<svg width="554" height="219" viewBox="0 0 554 219" fill="none" xmlns="http://www.w3.org/2000/svg">
<path d="M120.949 186.811C114.203 190.449 108.88 194.5 104.907 199C101.984 202.301 98.0111 208.602 92.9887 217.903C92.1267 216.178 91.2272 214.565 90.2527 213.102C89.3157 211.64 88.3788 210.214 87.5168 208.827C86.8421 209.502 86.3922 210.289 86.2048 211.152C82.5692 204.589 79.121 199.338 75.8602 195.363C71.8873 192.25 68.1019 190.712 64.4663 190.712C55.1337 190.712 45.5763 199.788 35.7189 217.903C34.6695 215.99 33.7698 214.265 32.9827 212.727C32.1956 211.19 31.3712 209.689 30.5091 208.339C30.1718 208.864 29.6469 209.802 28.9723 211.19C24.1373 202.038 20.6893 196.075 18.6279 193.3C14.9923 190.524 11.0192 187.937 6.70897 185.536C7.04629 185.349 7.49619 185.236 8.02092 185.161C8.54564 185.086 8.95783 184.861 9.33264 184.524C7.94586 183.661 6.52179 182.761 5.06005 181.786C3.59832 180.848 1.91157 179.836 7.22287e-05 178.823C10.1947 175.56 15.2921 167.496 15.2921 154.707C15.2921 145.894 12.7809 138.993 7.79604 133.967L9.10776 131.642C14.8048 134.417 19.6397 135.805 23.6126 135.805C27.2482 135.805 31.2211 134.605 35.5313 132.167C34.6693 130.254 33.8448 128.566 33.0577 127.104C32.2707 125.641 31.4462 124.216 30.5841 122.828C30.2468 123.166 29.9844 123.616 29.797 124.141C29.6096 124.666 29.3471 125.078 29.0098 125.454C26.2363 120.428 23.9501 116.415 22.1511 113.414C20.352 110.377 18.9277 108.276 17.8783 107.076C16.4915 105.876 14.9172 104.751 13.0807 103.701C11.2816 102.651 9.22022 101.525 7.00888 100.325C7.3462 100.138 7.75847 99.9878 8.17076 99.8002C8.58304 99.6127 9.0703 99.3877 9.59503 99.0126C7.00889 97.2874 3.89806 95.4872 0.262466 93.5744C9.40766 89.0739 15.4421 84.7608 18.403 80.6353C19.2651 79.4351 20.5768 77.1098 22.3009 73.6219C24.025 70.1714 26.2738 65.5208 29.0473 59.6326C29.9094 61.5453 30.7714 63.3456 31.6335 65.0708C32.4955 66.796 33.3576 68.3712 34.2196 69.7214C34.8943 68.3337 35.4189 67.2086 35.7562 66.346C39.9165 75.1596 43.9644 82.0605 47.9373 87.0861C51.0482 89.5239 54.309 90.7241 57.7947 90.7241C66.9399 90.7241 76.4225 80.3728 86.2798 59.6326C87.1419 61.6954 87.9664 63.6081 88.7534 65.3333C89.5405 67.0586 90.3652 68.7088 91.2273 70.2465C91.5646 69.5714 91.8644 68.8963 92.1268 68.2962C92.3891 67.6961 92.6889 67.0586 93.0263 66.346C94.9378 70.8465 96.7369 74.7095 98.461 78.01C100.185 81.3104 101.722 83.8982 103.108 85.7735C107.081 88.8864 111.579 91.6617 116.564 94.062C116.039 94.3996 115.552 94.6246 115.14 94.6996C114.69 94.7746 114.315 94.9996 113.978 95.3372C116.564 97.2499 119.675 99.0502 123.31 100.775C118.663 103.026 114.877 106.214 112.029 110.377C109.18 114.54 107.756 118.853 107.756 123.316L107.756 158.308C107.756 165.209 108.431 170.497 109.817 174.097C110.005 174.622 110.23 175.222 110.605 175.898C111.279 176.423 112.516 177.023 114.24 177.698L114.24 180.023L113.978 180.023C115.515 181.561 117.876 183.061 120.987 184.411L120.987 186.736L120.949 186.811ZM101.797 167.909C100.41 164.271 99.7352 158.833 99.7352 151.594L99.7352 116.602C99.7352 111.952 101.047 107.451 103.633 103.138C106.219 98.8251 109.593 95.7122 113.715 93.7995C106.107 90.0115 100.41 85.8485 96.6245 81.3479C93.5136 77.7099 90.0654 71.5966 86.2798 62.933C77.2846 82.2855 67.8019 91.9617 57.7947 91.9617C47.7874 91.9617 38.0426 82.2855 29.0473 62.933C26.7985 67.7711 24.8496 71.7091 23.2379 74.7095C21.5888 77.7474 20.3519 79.9227 19.4899 81.3104C16.0417 85.961 10.6071 90.124 3.18604 93.762C10.4197 97.55 15.7043 101.638 18.9651 105.951C20.5018 107.864 23.875 113.565 29.0473 123.053C38.7172 105.613 48.1999 96.8749 57.5325 96.8749C60.9807 96.8749 63.9789 98.5251 66.4526 101.788C68.9638 105.088 70.2006 108.539 70.2006 112.139L70.2006 130.292C64.841 125.454 59.931 123.053 55.4334 123.053C52.1351 123.053 47.3002 125.379 40.9285 130.067C34.7068 134.717 28.9348 137.08 23.5751 137.08C19.0775 137.08 14.1678 135.767 8.80809 133.18C13.9804 138.205 16.5663 145.369 16.5663 154.67C16.5663 168.134 12.0688 176.273 3.111 179.01C9.67006 182.648 14.9172 186.774 18.8901 191.462C20.8016 194.05 24.1373 199.826 28.9723 208.827C38.6422 191.387 48.2373 182.648 57.7199 182.648C67.2024 182.648 76.5349 191.387 86.2048 208.827C90.515 200.538 94.1507 194.762 97.0742 191.462C100.86 187.299 106.407 183.173 113.64 179.01C107.606 176.085 103.633 172.372 101.722 167.871L101.797 167.909ZM67.3523 105.726C66.3029 105.201 65.2908 104.938 64.2414 104.938C55.0962 104.938 45.6135 113.94 35.7562 131.904C36.6183 131.567 37.368 131.117 37.9677 130.592C38.5673 130.067 39.317 129.542 40.1791 129.054C46.7382 124.216 51.8353 121.816 55.4709 121.816C59.6312 121.816 64.0915 123.728 68.9264 127.516L68.9264 112.214C68.9264 109.964 68.4016 107.826 67.3896 105.726L67.3523 105.726ZM70.2006 157.033C70.2006 170.684 65.9655 177.51 57.495 177.51C51.9854 177.51 48.3497 174.66 46.6256 168.959C45.7636 165.509 45.3139 160.333 45.3139 153.395C45.3139 137.68 49.2118 129.804 56.9702 129.804C62.8546 129.804 67.2399 133.442 70.1634 140.68L70.1634 156.995L70.2006 157.033ZM68.8889 141.243C68.5516 140.906 68.3268 140.455 68.2518 139.93C68.1769 139.405 67.9518 138.993 67.6145 138.618C66.565 138.093 65.2908 137.83 63.7166 137.83C56.8202 137.83 53.372 145.256 53.372 160.108C53.372 166.859 53.7844 171.96 54.684 175.41L54.684 175.147C54.684 175.485 54.7589 175.747 54.9464 175.935C55.4711 176.123 56.3331 176.198 57.5325 176.198C65.141 176.198 68.9264 169.822 68.9264 157.033L68.9264 141.243L68.8889 141.243Z" fill="black"/>
<path d="M244.185 185.011C238.301 185.011 229.418 188.987 217.499 196.938C209.216 202.639 200.745 209.539 192.125 217.678C190.588 215.09 188.489 212.652 185.903 210.44C185.566 210.44 185.378 210.627 185.378 210.965C185.191 210.627 185.041 210.327 184.854 210.064C184.666 209.802 184.516 209.502 184.329 209.164C179.156 205.189 171.623 200.951 161.803 196.45C153.857 192.662 146.998 189.849 141.226 188.012C135.454 186.211 130.732 185.199 127.096 185.049L127.096 182.461C129.008 182.461 130.545 181.861 131.744 180.661C127.096 179.273 123.273 178.485 120.35 178.335L120.35 175.748C124.135 175.748 127.359 172.485 129.945 165.884C132.006 160.521 133.056 155.157 133.056 149.832L133.056 120.015C133.056 111.539 131.144 104.451 127.359 98.7502C126.834 98.4127 126.347 98.1126 125.935 97.8501C125.485 97.5876 125.035 97.2875 124.51 96.95L125.56 96.4249C124.51 95.0372 123.348 93.8746 122.074 92.937C120.762 91.9994 119.338 91.0992 117.801 90.1991C124.885 85.361 129.383 80.7854 131.257 76.4724C132.643 73.2094 133.318 67.3962 133.318 59.1076C133.318 50.8191 132.006 44.9308 129.42 40.4678C128.746 40.1302 128.108 39.8677 127.621 39.6802C127.096 39.4926 126.497 39.3426 125.822 39.1551L126.347 36.5673L126.347 36.8298L126.609 36.8298C124.36 34.767 121.849 33.3043 119.113 32.4417L119.638 29.8539C120.5 30.0414 121.812 30.1164 123.536 30.1164C132.006 30.1164 142.801 25.2783 155.919 15.6021C169.224 5.40076 180.243 0.300107 189.051 0.300107C196.66 0.300108 203.294 2.36287 208.991 6.52591C211.577 8.43865 213.751 10.6889 215.475 13.2768L215.737 13.2768C222.296 17.9274 225.595 23.8906 225.595 31.1666C225.595 36.1922 223.945 40.3927 220.685 43.8807C217.386 47.3311 213.264 49.0564 208.241 49.0564C200.295 49.0564 195.46 46.3935 193.736 41.0303C188.564 38.9676 185.978 34.542 185.978 27.8286C185.978 26.1034 186.24 24.4532 186.765 22.9155C184.329 25.3533 182.267 28.2787 180.543 31.7291C176.908 39.3426 175.109 48.3063 175.109 58.6951L175.109 86.6737C182.342 85.6235 188.152 83.4858 192.462 80.1853C197.297 76.3974 202.469 68.1838 208.016 55.5822C208.878 57.4949 209.74 59.2952 210.602 61.0204C211.465 62.7456 212.327 64.3208 213.189 65.671C213.863 64.2833 214.388 63.1582 214.725 62.2956C216.787 66.7961 218.773 70.6591 220.685 73.9595C222.596 77.26 224.32 79.9978 225.857 82.2481C227.768 83.6358 229.942 84.986 232.454 86.2611C234.965 87.5738 237.776 88.8865 240.887 90.2741C240.212 90.6117 239.575 90.9117 239.087 91.1743C238.6 91.4368 238.038 91.7368 237.551 92.0744C238.938 92.937 240.474 93.7621 242.198 94.5497C243.922 95.3373 245.722 96.1624 247.633 97.025C242.611 99.2753 238.638 102.538 235.714 106.889C232.791 111.202 231.329 115.627 231.329 120.09L231.329 155.833C231.329 163.446 233.316 170.009 237.288 175.523C237.476 175.71 237.626 175.785 237.813 175.785C238.001 175.785 238.151 175.86 238.338 176.048L238.076 176.573C239.8 179.011 242.123 181.073 245.084 182.798L244.297 185.124L244.185 185.011ZM223.196 149.007L223.196 113.265C223.196 108.426 224.508 103.851 227.094 99.5378C229.68 95.2248 233.128 92.1119 237.439 90.1991C229.493 86.9362 223.458 82.7732 219.298 77.7475C217.761 75.8348 216.075 73.2845 214.238 70.0966C212.439 66.9086 210.378 63.0456 208.166 58.5826C203.331 69.459 198.309 76.9974 193.137 81.123C187.102 85.7736 178.369 88.1364 166.975 88.1364L166.975 51.8692C166.975 41.1428 168.887 31.9917 172.672 24.4157C177.507 14.4019 184.591 9.37627 193.924 9.37627C198.421 9.37627 202.282 10.7639 205.58 13.5393C208.841 16.3147 210.49 19.8401 210.49 24.1532C210.49 25.6909 210.415 26.9285 210.228 27.7911C209.178 19.5026 205.393 15.3395 198.834 15.3395C195.535 15.3395 192.799 16.5397 190.551 18.9775C188.302 21.4153 187.177 24.3407 187.177 27.7911C187.177 36.6048 191.937 40.9928 201.42 40.9928C206.067 40.9928 209.928 39.3801 212.926 36.1922C215.962 33.0043 217.461 29.0663 217.461 24.4157C217.461 17.6648 214.351 12.0766 208.129 7.57604C202.619 3.60053 196.21 1.61278 188.976 1.61278C180.506 1.61278 169.712 6.63842 156.593 16.6522C143.288 26.516 132.269 31.4291 123.461 31.4291L121.399 31.4291C120.725 31.4291 120.013 31.3541 119.338 31.1666C129.533 33.6044 134.63 42.9056 134.63 59.1451C134.63 67.7713 133.955 73.7345 132.568 77.0349C130.657 81.5355 126.534 85.9236 120.125 90.2366C129.607 95.5998 134.368 105.539 134.368 120.053L134.368 149.869C134.368 155.57 133.318 161.083 131.257 166.446C128.333 173.535 124.698 177.06 120.387 177.06C124.173 177.248 129.008 178.223 134.892 180.023C140.777 181.823 147.673 184.636 155.619 188.462C172.373 196.225 182.38 203.051 185.641 208.939C193.249 201.851 201.345 195.288 209.965 189.249C222.034 181.148 231.217 177.06 237.401 177.06C227.918 170.159 223.158 160.821 223.158 149.082L223.196 149.007ZM192.912 154.707C192.912 162.996 190.251 169.297 184.891 173.61L167.013 185.274L167.013 95.6373C168.4 95.4498 169.524 95.3748 170.386 95.3748L172.185 95.3748C177.02 95.3748 181.518 96.3124 185.641 98.2252C190.476 100.475 192.874 104.001 192.874 108.839L192.874 154.707L192.912 154.707ZM191.6 108.839C191.6 108.314 191.563 107.864 191.488 107.414C191.413 107.001 191.263 106.514 191.113 105.989C189.201 105.126 187.327 104.488 185.416 104.038C183.504 103.626 181.368 103.401 178.932 103.401L177.395 103.401C176.87 103.401 176.083 103.476 175.071 103.663L175.071 178.56L184.141 172.597C189.164 168.622 191.637 162.658 191.637 154.707L191.637 108.839L191.6 108.839Z" fill="black"/>
<path d="M359.437 185.799C346.843 186.136 335.524 188.649 325.517 193.3C313.936 198.663 305.128 206.877 299.093 217.903C297.706 215.315 295.645 212.615 292.872 209.877C292.684 210.064 292.609 210.214 292.609 210.402C292.609 210.59 292.534 210.815 292.347 211.19C291.672 210.139 290.96 209.127 290.285 208.077C289.611 207.027 288.824 206.014 287.962 204.964C286.05 203.576 284.176 202.113 282.265 200.576C280.353 199.038 278.217 197.538 275.781 196.188C265.061 189.624 256.028 186.174 248.607 185.836L248.607 183.249C249.807 183.249 251.193 182.648 252.768 181.448C250.706 180.586 248.757 180.023 246.958 179.761C245.159 179.498 243.472 179.273 241.898 179.123L241.898 176.535C245.346 176.198 248.382 172.897 250.969 166.671C253.367 160.783 254.604 155.72 254.604 151.369L254.604 122.341C254.604 113.865 252.805 107.039 249.169 101.863C248.832 101.676 248.607 101.526 248.532 101.338C248.457 101.15 248.232 101 247.895 100.813L248.158 100.025C245.909 97.4375 243.585 95.4498 241.149 94.0621L241.673 91.9993C253.067 91.9993 264.387 89.4115 275.593 84.2358C287.662 78.5351 296.47 70.7716 302.017 60.9078C303.216 63.4957 305.202 66.196 307.976 68.9339C308.163 68.7463 308.388 68.3338 308.763 67.6212C309.438 69.1589 310.675 70.9966 312.399 73.0594C316.034 76.1723 320.345 79.0977 325.329 81.873C336.536 88.4364 345.681 91.8118 352.765 91.9618L353.027 94.5496C352.165 94.8872 351.378 95.1872 350.704 95.4498C350.029 95.7123 349.317 96.0873 348.642 96.6124C352.803 98.0001 356.401 98.6752 359.511 98.6752L359.774 101.263C350.966 103.701 346.581 112.402 346.581 127.441L346.581 156.47C346.581 160.446 346.918 163.971 347.63 167.084C348.305 170.197 349.429 172.972 351.004 175.373C352.053 176.048 352.803 176.498 353.327 176.685L353.065 177.998C354.789 180.436 357.113 182.236 360.074 183.436L359.549 185.761L359.437 185.799ZM338.448 149.794L338.448 120.766C338.448 104.863 343.095 95.7123 352.428 93.312C345.007 92.9744 335.674 89.524 324.467 82.9607C313.073 76.2098 305.577 69.6465 301.942 63.2706C296.582 72.6093 287.962 80.0353 276.043 85.5485C264.836 90.7242 253.517 93.312 242.123 93.312C251.268 98.4876 255.841 108.164 255.841 122.341L255.841 151.369C255.841 156.02 254.641 161.308 252.205 167.159C249.432 174.06 245.984 177.623 241.861 177.773C249.619 178.11 258.952 181.673 269.821 188.387C281.028 195.475 288.561 202.301 292.347 208.864C298.231 198.513 306.852 190.637 318.246 185.274C328.253 180.623 339.722 178.11 352.69 177.773C343.208 172.935 338.448 163.596 338.448 149.794ZM309.963 180.361C292.872 172.41 284.326 162.658 284.326 151.069L284.326 88.0988C288.824 91.0242 292.534 93.612 295.458 95.8623C298.381 98.1126 300.555 100.1 301.942 101.826C307.301 107.714 309.963 114.427 309.963 122.041L309.963 180.323L309.963 180.361ZM302.317 174.772C304.116 175.898 306.252 177.06 308.651 178.26L308.651 122.041C308.651 115.815 306.589 109.964 302.429 104.413C301.042 103.363 299.543 102.238 297.894 101.038C296.245 99.8378 294.408 98.5252 292.309 97.1375L292.309 157.783C292.309 162.621 293.846 167.121 296.957 171.247C298.681 172.447 300.443 173.61 302.279 174.735L302.317 174.772Z" fill="black"/>
<path d="M475.701 187.599C467.942 191.237 462.395 194.95 459.134 198.738C457.748 200.276 456.061 202.676 454.075 205.864C452.088 209.052 449.877 213.177 447.478 218.165C445.941 214.865 444.105 211.677 442.043 208.564C441.706 208.902 441.481 209.352 441.406 209.877C441.331 210.402 441.107 210.927 440.769 211.415C436.459 202.938 432.486 196.563 428.85 192.25C425.739 189.662 422.554 188.349 419.255 188.349C410.26 188.349 400.853 198.288 391.033 218.165C389.983 216.253 389.084 214.49 388.297 212.84C387.51 211.19 386.685 209.689 385.823 208.302C385.298 209.164 384.774 210.214 384.286 211.415C382.375 207.777 380.763 204.626 379.376 201.963C377.99 199.301 376.603 197.013 375.216 195.1C371.918 192.7 367.083 189.849 360.711 186.549C361.048 186.211 361.498 185.949 362.023 185.761C362.548 185.574 362.96 185.349 363.335 184.974C361.948 184.111 360.524 183.248 359.062 182.386C357.6 181.523 355.914 180.661 354.002 179.798C358.5 177.398 362.173 173.872 365.021 169.297C367.87 164.721 369.294 160.183 369.294 155.682L369.294 120.953C369.294 114.052 368.619 109.026 367.233 105.914L366.97 105.914L366.97 105.651C366.108 105.126 365.171 104.601 364.122 104.113C363.072 103.588 361.948 102.988 360.749 102.313C361.086 101.976 361.498 101.751 361.91 101.676C362.323 101.601 362.735 101.375 363.072 101.038C361.161 99.3127 358.162 97.5125 354.002 95.5997C367.645 88.3613 377.84 76.3223 384.549 59.5951C385.411 61.5079 386.235 63.3456 387.022 65.1833C387.809 67.0211 388.634 68.6713 389.496 70.2465C389.833 69.5714 390.133 68.8963 390.396 68.2962C390.658 67.6962 390.958 67.0586 391.295 66.346C394.743 74.9721 399.054 82.323 404.226 88.3613C405.613 89.5615 406.999 90.6491 408.386 91.5867C409.773 92.5243 411.16 93.462 412.546 94.3246C424.802 86.8986 434.21 75.3096 440.769 59.5951C442.306 63.3831 443.955 66.9461 445.679 70.209C446.016 69.5339 446.316 68.8588 446.579 68.2587C446.841 67.6587 447.141 67.0211 447.478 66.3085C450.926 74.9346 455.162 82.098 460.184 87.7987C463.632 91.0992 467.343 93.687 471.316 95.5622C470.978 95.7498 470.641 95.8998 470.266 96.0873C469.929 96.2748 469.591 96.4248 469.217 96.6124C470.603 97.6625 472.028 98.6376 473.489 99.5752C474.951 100.513 476.45 101.45 478.024 102.313C470.791 105.764 466.368 109.214 464.831 112.664C463.445 115.777 462.77 120.803 462.77 127.704L462.77 162.433C462.77 167.947 464.419 173.16 467.68 177.998C467.867 178.185 468.017 178.26 468.205 178.26C468.392 178.26 468.617 178.335 468.992 178.523L468.992 179.836C470.716 182.086 472.965 183.886 475.738 185.274L475.738 187.599L475.701 187.599ZM458.61 169.597C456.023 165.021 454.712 160.408 454.712 155.72L454.712 120.99C454.712 113.752 455.386 108.539 456.773 105.426C458.497 101.638 462.395 98.2626 468.429 95.3372C455.836 88.5863 446.579 77.8975 440.732 63.1956C434.847 77.7099 425.702 88.4363 413.296 95.3372C419.18 98.2626 423.041 101.638 424.952 105.426C426.152 108.014 426.751 113.189 426.751 120.99L426.751 155.72C426.751 160.371 425.515 164.384 423.003 167.759C420.492 171.134 417.007 172.822 412.509 172.822C408.011 172.822 404.488 171.022 401.902 167.384C399.466 164.121 398.266 160.221 398.266 155.72L398.266 120.99C398.266 113.752 398.941 108.539 400.328 105.426C402.052 101.638 405.95 98.2626 411.984 95.3372C399.541 88.5863 390.396 77.8975 384.549 63.1956C378.514 77.7099 369.257 88.4363 356.851 95.3372C362.735 98.2626 366.596 101.638 368.507 105.426C369.894 108.539 370.568 113.715 370.568 120.99L370.568 155.72C370.568 160.371 369.257 165.021 366.671 169.597C364.084 174.172 360.786 177.51 356.813 179.573C364.759 183.361 370.456 187.186 373.904 190.974C376.303 193.562 379.789 199.526 384.249 208.864C393.581 189.849 402.989 180.361 412.471 180.361C421.954 180.361 431.362 189.849 440.694 208.864C442.943 204.364 444.929 200.651 446.653 197.725C448.377 194.8 449.914 192.625 451.301 191.237C454.562 187.449 460.259 183.549 468.392 179.573C464.419 177.51 461.158 174.172 458.535 169.597L458.61 169.597ZM423.641 105.989L423.378 105.989L423.378 105.726C422.854 105.388 422.254 105.051 421.579 104.676C420.904 104.338 420.117 104.001 419.255 103.626C413.371 106.401 409.773 109.401 408.386 112.702C406.999 115.815 406.325 120.84 406.325 127.741L406.325 162.471C406.325 165.771 406.924 168.509 408.124 170.759C409.323 171.284 410.785 171.547 412.509 171.547C416.669 171.547 419.855 170.009 422.104 166.896C424.353 163.783 425.477 160.07 425.477 155.757L425.477 121.028C425.477 113.602 424.877 108.576 423.678 105.989L423.641 105.989ZM413.558 97.1749C415.47 98.9002 417.344 100.213 419.255 101.075L419.518 101.075C418.131 99.8753 416.145 98.5626 413.558 97.1749Z" fill="black"/>
<path d="M545.077 123.616L545.077 117.39L545.077 116.865L538.33 116.865L538.33 110.639C538.518 109.589 538.593 108.726 538.593 108.051L538.593 106.251C538.593 103.663 538.33 101.413 537.806 99.5003C535.894 98.9752 533.645 98.7127 531.059 98.7127L531.059 156.245C531.059 165.246 532.858 172.56 536.494 178.26C537.168 178.598 537.843 178.935 538.443 179.311C539.043 179.648 539.792 179.986 540.654 180.361L539.117 181.148C541.366 183.586 544.14 185.536 547.4 187.112C538.068 192.137 531.621 196.338 527.986 199.826L528.248 199.826C526.187 201.888 524.05 204.401 521.914 207.327C519.74 210.252 517.454 213.89 515.055 218.203C514.005 216.478 513.031 214.865 512.094 213.402C511.157 211.94 510.22 210.515 509.358 209.127C509.171 209.464 509.021 209.877 508.833 210.289C508.646 210.702 508.496 211.115 508.309 211.452C506.397 208.339 504.636 205.564 502.986 203.164C501.337 200.763 499.763 198.588 498.189 196.675C496.277 195.288 494.029 193.825 491.442 192.287C488.856 190.749 485.82 189.024 482.372 187.112C482.71 186.774 483.159 186.549 483.684 186.474C484.209 186.399 484.621 186.174 484.996 185.836C483.609 184.974 482.147 184.111 480.611 183.249C479.074 182.386 477.425 181.448 475.701 180.398C482.934 176.76 487.432 172.372 489.156 167.196C490.543 163.033 491.217 157.183 491.217 149.569L491.217 98.7877L480.348 98.7877L480.348 92.0368L473.602 92.0368L473.602 77.785L491.218 77.785L491.218 52.1317C491.218 49.5439 490.355 47.0311 488.631 44.6307C487.432 43.7681 486.195 42.868 484.996 41.8929C483.796 40.9553 482.747 40.0552 481.885 39.155L482.672 38.3674C481.285 37.3173 479.936 36.3047 478.662 35.2545C477.35 34.2044 476.188 33.2668 475.176 32.4042L476.713 30.8665C481.023 30.1914 487.057 28.8787 494.853 26.966L494.591 26.966C497.177 26.1034 500.363 24.4157 504.186 21.9028C507.971 19.39 512.544 16.1646 517.903 12.1891C527.049 5.62575 536.456 1.57523 546.126 3.01997e-05L545.864 5.96329C541.891 7.16345 538.443 9.26372 535.519 12.1891C541.216 9.60126 546.988 7.80103 552.873 6.7509L552.61 12.7142C538.293 17.2147 531.134 32.4792 531.134 58.5825L531.134 77.485C533.908 76.9599 535.782 76.0973 536.831 74.8971C537.88 73.697 538.368 68.5213 538.368 59.3326L546.651 59.3326L546.651 66.0835L553.397 66.0835L553.397 123.616L545.114 123.616L545.077 123.616ZM545.339 115.59L545.339 60.6453L539.642 60.6453C539.642 69.2714 539.042 74.2971 537.843 75.6847C536.119 77.935 531.209 79.0602 523.076 79.0602L523.076 51.8692C523.076 25.0907 530.234 9.45124 544.552 4.95067L544.814 1.57523C536.531 2.77539 527.798 6.67589 518.653 13.2392C513.144 17.2147 508.421 20.4777 504.523 23.103C500.625 25.6908 497.477 27.416 495.078 28.2787C487.32 30.3414 481.435 31.6541 477.462 32.1792L477.2 32.4417C478.587 33.4918 479.936 34.5044 481.21 35.5546C482.522 36.6047 483.834 37.7299 485.221 38.93C490.056 43.2431 492.454 47.6686 492.454 52.1317L492.454 79.0977L474.839 79.0977L474.839 90.7617L492.454 90.7617L492.454 149.569C492.454 157.52 491.78 163.559 490.393 167.722C488.332 173.61 484.359 177.923 478.474 180.661C487.432 185.499 493.316 189.212 496.09 191.8C499.725 195.438 503.773 201.138 508.271 208.902C510.332 205.114 512.431 201.813 514.493 199.038C516.554 196.263 518.541 193.937 520.452 192.025C523.713 188.912 529.522 185.124 537.806 180.623C527.948 175.973 523.038 165.584 523.038 149.532L523.038 90.7242C529.41 90.7242 533.833 91.7368 536.231 93.687C538.63 95.6748 539.867 99.8753 539.867 106.251L539.867 108.314C539.867 108.989 539.792 109.852 539.605 110.902L539.605 115.552L545.302 115.552L545.339 115.59Z" fill="black"/>
</svg>
