<svg width="81" height="41" viewBox="0 0 81 41" fill="none" xmlns="http://www.w3.org/2000/svg">
<path d="M40.3913 40.4861C62.5947 40.4861 80.5941 31.6154 80.5941 20.6729C80.5941 9.7303 62.5947 0.859619 40.3913 0.859619C18.1879 0.859619 0.188477 9.7303 0.188477 20.6729C0.188477 31.6154 18.1879 40.4861 40.3913 40.4861Z" fill="#FFFF00"/>
<path d="M40.3914 40.677C29.6229 40.677 19.4983 38.6093 11.8804 34.8524C4.21699 31.0762 0 26.0412 0 20.6696C0 15.2981 4.22024 10.2631 11.8804 6.4868C19.4983 2.72995 29.6262 0.662231 40.3914 0.662231C51.1566 0.662231 61.2845 2.72995 68.9024 6.4868C76.5658 10.2631 80.7828 15.2981 80.7828 20.6696C80.7828 26.0412 76.5625 31.0762 68.9024 34.8524C61.2845 38.6093 51.1566 40.677 40.3914 40.677ZM40.3914 1.04728C18.331 1.04728 0.380407 9.8521 0.380407 20.6729C0.380407 31.4936 18.3278 40.2984 40.3914 40.2984C62.455 40.2984 80.4024 31.4936 80.4024 20.6729C80.4024 9.8521 62.455 1.04728 40.3914 1.04728Z" fill="black"/>
<path d="M22.1222 26.4618C21.4492 26.821 20.9159 27.2255 20.5193 27.672C20.2267 27.9989 19.83 28.6234 19.3293 29.5488C19.2415 29.3773 19.1537 29.2188 19.0594 29.0732C18.9651 28.9275 18.8741 28.7852 18.7896 28.6493C18.7213 28.7172 18.679 28.7949 18.6595 28.8822C18.2986 28.2318 17.954 27.7076 17.6256 27.3129C17.2289 27.0054 16.8518 26.8501 16.4876 26.8501C15.5577 26.8501 14.6018 27.7497 13.6199 29.5521C13.5159 29.3644 13.4249 29.1929 13.3501 29.0376C13.272 28.8822 13.1908 28.7366 13.103 28.6007C13.0672 28.6525 13.0152 28.7463 12.9469 28.8822C12.4657 27.973 12.1211 27.3808 11.913 27.109C11.5521 26.8339 11.1554 26.5783 10.723 26.3389C10.7588 26.3227 10.801 26.3097 10.8531 26.3C10.9051 26.2903 10.9473 26.2709 10.9831 26.2353C10.8465 26.1512 10.7035 26.0606 10.5572 25.9667C10.4109 25.8729 10.2418 25.7726 10.0532 25.6722C11.0709 25.3454 11.5781 24.5494 11.5781 23.2809C11.5781 22.4072 11.3277 21.7212 10.8303 21.2229L10.9603 20.9899C11.5293 21.265 12.0105 21.4009 12.4072 21.4009C12.7681 21.4009 13.1648 21.2812 13.5972 21.0417C13.5094 20.8541 13.4281 20.6858 13.3533 20.5402C13.2753 20.3945 13.194 20.2522 13.1062 20.1163C13.0705 20.1519 13.0445 20.1939 13.0282 20.2457C13.0119 20.2975 12.9859 20.3395 12.9502 20.3751C12.6738 19.8768 12.4462 19.4788 12.2641 19.1779C12.0821 18.8769 11.9422 18.6666 11.8382 18.5469C11.7017 18.4271 11.5423 18.3139 11.3603 18.2136C11.1782 18.11 10.9766 18 10.7523 17.8803C10.788 17.8641 10.827 17.8447 10.8693 17.8285C10.9116 17.8123 10.9603 17.7864 11.0124 17.7508C10.7523 17.5793 10.4434 17.3981 10.0825 17.2104C10.9961 16.7639 11.5976 16.3368 11.8902 15.9258C11.9748 15.8061 12.1048 15.5731 12.2771 15.2301C12.4495 14.8871 12.6738 14.4244 12.9502 13.8419C13.0347 14.0296 13.1225 14.2108 13.2103 14.3823C13.2948 14.5538 13.3826 14.7091 13.4671 14.845C13.5354 14.7091 13.5874 14.5959 13.6232 14.5117C14.0361 15.3854 14.4425 16.0714 14.8392 16.5697C15.1481 16.8092 15.4765 16.9289 15.8211 16.9289C16.7347 16.9289 17.6809 15.8999 18.6628 13.8419C18.7473 14.049 18.8318 14.2367 18.9099 14.4082C18.9879 14.5797 19.0692 14.7415 19.1537 14.8968C19.1895 14.8289 19.2187 14.7641 19.2448 14.7026C19.2708 14.6412 19.3 14.5797 19.3358 14.5085C19.5244 14.955 19.7064 15.3401 19.8788 15.667C20.0511 15.9938 20.2072 16.2494 20.3437 16.4371C20.7404 16.7445 21.1891 17.0195 21.6865 17.259C21.6345 17.2946 21.5857 17.314 21.5435 17.3237C21.5012 17.3334 21.4622 17.3528 21.4264 17.3884C21.6833 17.5761 21.9954 17.7573 22.3563 17.9288C21.8913 18.1521 21.5174 18.4692 21.2313 18.8802C20.9485 19.2911 20.8054 19.7215 20.8054 20.1648V23.6369C20.8054 24.3229 20.8737 24.8471 21.0135 25.2063C21.0297 25.2581 21.0558 25.3195 21.0915 25.3875C21.1598 25.4393 21.2801 25.5008 21.4524 25.5687V25.8017H21.4264C21.5825 25.957 21.8133 26.1026 22.1254 26.2385V26.4715L22.1222 26.4618ZM20.2104 24.585C20.0738 24.2258 20.0023 23.6854 20.0023 22.9638V19.4917C20.0023 19.029 20.1324 18.5825 20.3892 18.1553C20.6461 17.7282 20.9842 17.4175 21.3971 17.2299C20.6396 16.8545 20.0706 16.4403 19.6902 15.9938C19.3813 15.6346 19.0367 15.0263 18.6563 14.1687C17.7589 16.0909 16.8128 17.0486 15.8146 17.0486C14.8164 17.0486 13.841 16.0876 12.9469 14.1687C12.7226 14.6477 12.5275 15.0392 12.3649 15.3401C12.2024 15.6411 12.0756 15.8578 11.991 15.997C11.6464 16.4597 11.1034 16.8707 10.3621 17.2331C11.0871 17.6117 11.6106 18.0129 11.939 18.4433C12.0951 18.631 12.43 19.1973 12.9469 20.1422C13.9126 18.411 14.8587 17.5437 15.7886 17.5437C16.1332 17.5437 16.4291 17.7055 16.6794 18.0324C16.9298 18.3592 17.0534 18.7022 17.0534 19.0614V20.8605C16.5201 20.3816 16.0292 20.1389 15.5805 20.1389C15.2521 20.1389 14.7709 20.3719 14.1337 20.8346C13.5126 21.2974 12.9372 21.5304 12.4007 21.5304C11.952 21.5304 11.4611 21.4009 10.9278 21.1453C11.4448 21.6436 11.7049 22.3555 11.7049 23.2809C11.7049 24.6173 11.2562 25.4231 10.3621 25.6982C11.0156 26.0573 11.5423 26.4683 11.939 26.9342C12.1276 27.1899 12.4657 27.7658 12.9469 28.659C13.9126 26.9278 14.8685 26.0606 15.8146 26.0606C16.7607 26.0606 17.6939 26.9278 18.6563 28.659C19.0854 27.837 19.4496 27.2611 19.7422 26.9342C20.1194 26.5233 20.6721 26.1124 21.3971 25.6982C20.7924 25.4069 20.399 25.038 20.2072 24.5915L20.2104 24.585ZM16.7737 18.411C16.6697 18.3592 16.5657 18.3333 16.4649 18.3333C15.5512 18.3333 14.6051 19.2264 13.6232 21.0094C13.711 20.9738 13.7825 20.9317 13.8443 20.8799C13.9061 20.8282 13.9776 20.7764 14.0654 20.7246C14.7189 20.2457 15.2294 20.003 15.5903 20.003C16.0032 20.003 16.4519 20.1907 16.9331 20.5693V19.0517C16.9331 18.8284 16.881 18.6148 16.777 18.4077L16.7737 18.411ZM17.0566 23.5042C17.0566 24.8601 16.6339 25.5364 15.7918 25.5364C15.2391 25.5364 14.8782 25.2548 14.7059 24.6886C14.6181 24.3456 14.5758 23.8311 14.5758 23.1451C14.5758 21.5854 14.9627 20.8055 15.7398 20.8055C16.3251 20.8055 16.764 21.1647 17.0566 21.8863V23.5075V23.5042ZM16.9266 21.9348C16.8908 21.8992 16.8713 21.8572 16.8615 21.8054C16.8518 21.7536 16.8323 21.7115 16.7965 21.676C16.6925 21.6242 16.5624 21.5983 16.4096 21.5983C15.7203 21.5983 15.3757 22.3361 15.3757 23.8116C15.3757 24.4814 15.4179 24.9863 15.5057 25.3293V25.3034C15.5057 25.3389 15.5155 25.3648 15.5317 25.381C15.5837 25.3972 15.6683 25.4069 15.7918 25.4069C16.5494 25.4069 16.9298 24.7727 16.9298 23.5042V21.9348H16.9266Z" fill="black"/>
<path d="M34.4219 26.2806C33.8367 26.2806 32.9491 26.6753 31.7591 27.4649C30.9332 28.0312 30.0879 28.7172 29.2263 29.5229C29.0702 29.2673 28.8654 29.0246 28.6053 28.8013C28.5695 28.8013 28.5532 28.8175 28.5532 28.8531C28.537 28.8175 28.5175 28.7884 28.5012 28.7625C28.485 28.7366 28.4655 28.7075 28.4492 28.6719C27.9322 28.2771 27.1812 27.8564 26.1993 27.4131C25.4059 27.0378 24.7232 26.7562 24.1444 26.5783C23.5657 26.3971 23.0975 26.3 22.7366 26.2838V26.0282C22.9252 26.0282 23.0812 25.9667 23.2015 25.847C22.7366 25.7111 22.3562 25.6334 22.0636 25.614V25.3583C22.4407 25.3583 22.7626 25.0315 23.0195 24.3811C23.2276 23.8504 23.3283 23.3198 23.3283 22.7858V19.8283C23.3283 18.9869 23.1398 18.2847 22.7594 17.7185C22.7073 17.6829 22.6586 17.6537 22.6163 17.6278C22.574 17.602 22.5253 17.5728 22.4732 17.5372L22.5773 17.4855C22.4732 17.3496 22.3562 17.2331 22.2294 17.1392C22.0993 17.0454 21.9595 16.9548 21.8035 16.8707C22.509 16.3918 22.9577 15.9355 23.1463 15.5084C23.2828 15.1815 23.3544 14.6088 23.3544 13.7836C23.3544 12.9585 23.2243 12.3793 22.9674 11.9327C22.8992 11.8971 22.8374 11.8712 22.7854 11.8551C22.7333 11.8389 22.6716 11.8195 22.6033 11.8033L22.6553 11.5476V11.5735H22.6813C22.457 11.3664 22.2066 11.2208 21.9335 11.1367L21.9855 10.8811C22.0701 10.8972 22.2001 10.9069 22.3725 10.9069C23.2178 10.9069 24.294 10.428 25.6043 9.46699C26.9308 8.45416 28.033 7.94934 28.9109 7.94934C29.6685 7.94934 30.3317 8.15645 30.9007 8.5674C31.1608 8.75508 31.3754 8.97838 31.5477 9.23725H31.5737C32.2273 9.69998 32.5556 10.2921 32.5556 11.0105C32.5556 11.5088 32.3931 11.9295 32.0647 12.2693C31.7363 12.6123 31.3234 12.7838 30.8227 12.7838C30.0294 12.7838 29.5482 12.5184 29.3758 11.9877C28.8589 11.7806 28.602 11.3438 28.602 10.6772C28.602 10.5057 28.628 10.3439 28.68 10.1886C28.4394 10.428 28.2314 10.7192 28.059 11.0622C27.6981 11.8162 27.5161 12.7093 27.5161 13.7383V16.5147C28.2411 16.4112 28.8166 16.1976 29.249 15.8708C29.7302 15.4954 30.2472 14.68 30.7999 13.4277C30.8845 13.6154 30.9722 13.7966 31.0568 13.9681C31.1413 14.1396 31.2291 14.2949 31.3136 14.4308C31.3819 14.2949 31.4339 14.1816 31.4697 14.0975C31.6778 14.544 31.8729 14.9291 32.0647 15.256C32.2533 15.5828 32.4256 15.8578 32.5817 16.0778C32.7702 16.2138 32.9913 16.3465 33.2417 16.4759C33.492 16.6053 33.7716 16.738 34.0805 16.8739C34.0122 16.9095 33.9505 16.9386 33.8984 16.9645C33.8464 16.9904 33.7944 17.0195 33.7424 17.0551C33.8789 17.1425 34.035 17.2234 34.2073 17.2978C34.3796 17.3754 34.5617 17.4563 34.7503 17.5437C34.2496 17.767 33.8529 18.0938 33.5603 18.5209C33.2677 18.9513 33.1214 19.3882 33.1214 19.8315V23.3812C33.1214 24.1352 33.3197 24.7889 33.7164 25.3357C33.7326 25.3519 33.7521 25.3616 33.7684 25.3616C33.7846 25.3616 33.8042 25.3713 33.8204 25.3875L33.7944 25.4392C33.9667 25.6787 34.1976 25.8858 34.4934 26.0573L34.4154 26.2903L34.4219 26.2806ZM32.328 22.7049V19.1552C32.328 18.6763 32.4581 18.22 32.715 17.7929C32.9718 17.3657 33.3165 17.0551 33.7489 16.8674C32.9556 16.5406 32.3541 16.1296 31.9411 15.6313C31.7851 15.4436 31.6193 15.1912 31.4372 14.8741C31.2551 14.557 31.0535 14.1752 30.8292 13.7286C30.348 14.8094 29.8473 15.5536 29.3303 15.9678C28.7256 16.4306 27.8575 16.6636 26.7195 16.6636V13.062C26.7195 12.0007 26.9081 11.0914 27.2885 10.3342C27.7697 9.34076 28.4785 8.84244 29.4083 8.84244C29.857 8.84244 30.2439 8.97836 30.5723 9.25341C30.9007 9.52846 31.0633 9.88117 31.0633 10.3083C31.0633 10.4636 31.0535 10.5833 31.0373 10.6675C30.9332 9.84557 30.5561 9.4314 29.8993 9.4314C29.5709 9.4314 29.2946 9.55112 29.0735 9.79057C28.8491 10.03 28.7386 10.3212 28.7386 10.6642C28.7386 11.5379 29.2133 11.9748 30.1594 11.9748C30.6243 11.9748 31.008 11.8162 31.3104 11.4991C31.6128 11.182 31.7623 10.7905 31.7623 10.3277C31.7623 9.65791 31.4534 9.10133 30.8324 8.65478C30.2797 8.26 29.6424 8.06263 28.9206 8.06263C28.0753 8.06263 26.9991 8.56095 25.6888 9.55436C24.3623 10.5316 23.2601 11.0202 22.3822 11.0202H22.1741C22.1058 11.0202 22.0343 11.0105 21.966 10.9943C22.9837 11.2338 23.4909 12.1592 23.4909 13.7707C23.4909 14.6282 23.4226 15.2204 23.2828 15.544C23.0942 15.9905 22.6781 16.4273 22.0408 16.8545C22.987 17.3851 23.4616 18.3721 23.4616 19.8121V22.7696C23.4616 23.3359 23.3576 23.886 23.1528 24.4167C22.8602 25.1189 22.4993 25.4716 22.0668 25.4716C22.444 25.4878 22.9284 25.5881 23.5137 25.7661C24.0989 25.9473 24.7882 26.2255 25.5815 26.6009C27.2527 27.371 28.2509 28.0506 28.5793 28.633C29.3368 27.9309 30.1464 27.2772 31.008 26.6786C32.2143 25.8728 33.1279 25.4684 33.7489 25.4684C32.8027 24.7824 32.328 23.8569 32.328 22.692V22.7049ZM29.3043 23.2712C29.3043 24.0931 29.0377 24.7209 28.5045 25.148L26.7227 26.3065V17.4078C26.8593 17.3916 26.9731 17.3819 27.0576 17.3819H27.2397C27.7209 17.3819 28.1696 17.4758 28.5825 17.6634C29.0637 17.8867 29.3076 18.2394 29.3076 18.7183V23.2712H29.3043ZM29.1743 18.7183C29.1743 18.6666 29.171 18.6213 29.1612 18.576C29.1515 18.5339 29.1385 18.4853 29.1222 18.4336C28.9337 18.3494 28.7418 18.2847 28.5532 18.2394C28.3647 18.1974 28.1468 18.1747 27.9062 18.1747H27.7502C27.6981 18.1747 27.6201 18.1844 27.5161 18.2006V25.6334L28.4199 25.0412C28.9206 24.6465 29.1677 24.0543 29.1677 23.268V18.7151L29.1743 18.7183Z" fill="black"/>
<path d="M45.922 26.3583C44.6637 26.3939 43.5355 26.6398 42.5373 27.1058C41.3831 27.6365 40.5052 28.4519 39.9005 29.5488C39.7639 29.2932 39.5558 29.0246 39.2795 28.7528C39.2632 28.769 39.2535 28.7884 39.2535 28.8046C39.2535 28.8208 39.2437 28.8467 39.2275 28.8823C39.1592 28.7787 39.0909 28.6751 39.0194 28.5748C38.9511 28.4713 38.8731 28.3678 38.7853 28.2674C38.5967 28.1315 38.4049 27.9859 38.2163 27.8306C38.0277 27.6753 37.8099 27.5297 37.5693 27.3938C36.4996 26.7434 35.5957 26.4003 34.8544 26.3647V26.1091C34.9747 26.1091 35.1113 26.0509 35.2673 25.9279C35.0592 25.8438 34.8674 25.7855 34.6853 25.7596C34.5033 25.7338 34.3374 25.7111 34.1814 25.6949V25.4393C34.526 25.4037 34.8284 25.0801 35.0853 24.462C35.3259 23.8796 35.4462 23.3748 35.4462 22.9444V20.0645C35.4462 19.2232 35.2641 18.5469 34.9032 18.0324C34.8674 18.0162 34.8479 17.9968 34.8382 17.9806C34.8284 17.9644 34.8089 17.945 34.7731 17.9288L34.7991 17.8512C34.5748 17.5956 34.3439 17.3981 34.1001 17.259L34.1521 17.0519C35.2901 17.0519 36.4183 16.7963 37.5368 16.2818C38.743 15.7155 39.6209 14.9454 40.1736 13.9681C40.2939 14.2238 40.4922 14.4923 40.7686 14.7642C40.7848 14.748 40.8109 14.7027 40.8466 14.6347C40.9149 14.79 41.0352 14.968 41.2075 15.1751C41.5684 15.4825 42.0008 15.777 42.4983 16.0488C43.6168 16.6992 44.5304 17.0357 45.2359 17.0519L45.2619 17.3075C45.1742 17.3431 45.0994 17.3723 45.0278 17.3982C44.9596 17.424 44.8913 17.4629 44.8198 17.5146C45.2327 17.6505 45.5936 17.7217 45.9057 17.7217L45.9317 17.9774C45.0539 18.2168 44.6149 19.084 44.6149 20.5758V23.4557C44.6149 23.8505 44.6507 24.2032 44.719 24.5106C44.7872 24.818 44.901 25.0931 45.0539 25.3325C45.1579 25.4005 45.2359 25.4457 45.288 25.4619L45.2619 25.5914C45.4343 25.8308 45.6651 26.012 45.961 26.1318L45.909 26.3647L45.922 26.3583ZM43.8281 22.7827V19.9027C43.8281 18.3268 44.293 17.4176 45.2229 17.1749C44.4816 17.1393 43.5517 16.7995 42.4333 16.1459C41.2953 15.476 40.5475 14.8256 40.1866 14.1914C39.6534 15.1169 38.7918 15.8546 37.6018 16.4047C36.4801 16.9192 35.3519 17.1749 34.2171 17.1749C35.1308 17.6894 35.586 18.6504 35.586 20.0548V22.9347C35.586 23.3975 35.4657 23.9217 35.2251 24.5041C34.9487 25.1901 34.6041 25.5428 34.1911 25.559C34.965 25.5946 35.8981 25.9441 36.9808 26.6139C38.0992 27.3161 38.8503 27.9956 39.2307 28.646C39.8159 27.617 40.6776 26.8372 41.8155 26.3065C42.8137 25.8438 43.9614 25.5946 45.2522 25.559C44.306 25.0801 43.8314 24.1547 43.8314 22.7827H43.8281ZM40.9864 25.8179C39.2795 25.0283 38.4276 24.0608 38.4276 22.9121V16.6604C38.8763 16.9516 39.247 17.2105 39.5396 17.4305C39.8322 17.6538 40.0468 17.8512 40.1866 18.0227C40.7198 18.6051 40.9864 19.275 40.9864 20.0289V25.8147V25.8179ZM40.2256 25.2645C40.4077 25.3778 40.6158 25.4911 40.8596 25.6108V20.0289C40.8596 19.4109 40.6515 18.8284 40.2386 18.2815C40.1021 18.178 39.9493 18.068 39.7867 17.9482C39.6241 17.8285 39.4388 17.6991 39.2307 17.5632V23.5819C39.2307 24.0608 39.3868 24.5074 39.6957 24.9183C39.868 25.038 40.0435 25.1545 40.2256 25.2645Z" fill="black"/>
<path d="M57.5261 26.5395C56.7523 26.8987 56.1995 27.2675 55.8711 27.6461C55.7313 27.8014 55.5655 28.0377 55.3672 28.3548C55.1688 28.6719 54.9478 29.0796 54.7072 29.578C54.5511 29.2512 54.3723 28.934 54.1642 28.6266C54.1284 28.6622 54.1089 28.7043 54.0992 28.756C54.0894 28.8078 54.0699 28.8596 54.0341 28.9114C53.605 28.07 53.2083 27.4358 52.8441 27.0087C52.5353 26.753 52.2166 26.6236 51.8883 26.6236C50.9909 26.6236 50.0545 27.6106 49.0726 29.5812C48.9685 29.3935 48.8775 29.2156 48.8027 29.0538C48.7247 28.892 48.6434 28.7399 48.5589 28.604C48.5069 28.6881 48.4548 28.7916 48.4028 28.9114C48.2142 28.5522 48.0484 28.2383 47.9119 27.973C47.7721 27.7076 47.6355 27.4811 47.4989 27.2902C47.1706 27.0507 46.6894 26.766 46.0521 26.4424C46.0879 26.4068 46.1301 26.3809 46.1822 26.3647C46.2342 26.3486 46.2764 26.3227 46.3122 26.2871C46.1757 26.2029 46.0326 26.1156 45.8863 26.0314C45.74 25.9473 45.5709 25.86 45.3823 25.7758C45.831 25.5364 46.1952 25.1901 46.4813 24.7338C46.7641 24.2808 46.9072 23.8311 46.9072 23.3845V19.9383C46.9072 19.2523 46.8389 18.754 46.6991 18.4466H46.6731V18.4207C46.5853 18.3689 46.491 18.3171 46.3902 18.2653C46.2894 18.2136 46.1756 18.1553 46.0553 18.0842C46.0911 18.0486 46.1269 18.0291 46.1724 18.0194C46.2147 18.0097 46.2537 17.9903 46.2894 17.9547C46.1009 17.7832 45.7985 17.602 45.3856 17.4143C46.7479 16.6927 47.7623 15.5019 48.4353 13.8387C48.5199 14.0264 48.6044 14.2108 48.6824 14.392C48.7605 14.5732 48.8417 14.7383 48.9263 14.8936C48.962 14.8256 48.9913 14.7609 49.0173 14.6994C49.0433 14.638 49.0726 14.5764 49.1084 14.5053C49.453 15.3628 49.8854 16.0908 50.3991 16.6927C50.5357 16.8124 50.6755 16.9192 50.8121 17.0131C50.9486 17.1069 51.0884 17.1975 51.225 17.2817C52.4475 16.5439 53.3871 15.3951 54.0406 13.8354C54.1967 14.214 54.3593 14.5635 54.5316 14.8903C54.5674 14.8224 54.5966 14.7577 54.6226 14.6962C54.6486 14.6347 54.6779 14.5732 54.7137 14.502C55.0583 15.3595 55.481 16.0714 55.9817 16.6377C56.3263 16.9645 56.697 17.2202 57.0936 17.4079C57.0579 17.424 57.0254 17.4434 56.9896 17.4596C56.9538 17.4758 56.9213 17.4952 56.8856 17.5114C57.0221 17.6149 57.1652 17.712 57.3115 17.8059C57.4578 17.8997 57.6074 17.9903 57.7634 18.0744C57.0384 18.4174 56.5994 18.7605 56.4466 19.1035C56.3101 19.4109 56.2385 19.9092 56.2385 20.5952V24.0414C56.2385 24.5915 56.4011 25.106 56.7295 25.5849C56.7457 25.6011 56.7653 25.6108 56.7815 25.6108C56.7978 25.6108 56.8238 25.6205 56.8595 25.6367V25.7661C57.0319 25.9894 57.2562 26.1706 57.5326 26.3065V26.5395H57.5261ZM55.8191 24.7533C55.559 24.3003 55.4322 23.8408 55.4322 23.378V19.9318C55.4322 19.2102 55.5005 18.6957 55.6403 18.3883C55.8126 18.0129 56.1995 17.6764 56.8043 17.3852C55.546 16.7154 54.6259 15.654 54.0374 14.1946C53.4521 15.6346 52.5385 16.6992 51.2965 17.3852C51.8817 17.6764 52.2687 18.0097 52.4605 18.3883C52.5808 18.6439 52.6426 19.1584 52.6426 19.9318V23.378C52.6426 23.8408 52.5158 24.2388 52.2687 24.5753C52.0183 24.9086 51.6704 25.0769 51.2217 25.0769C50.773 25.0769 50.4219 24.8956 50.1618 24.5365C49.9212 24.2096 49.8009 23.8246 49.8009 23.378V19.9318C49.8009 19.2102 49.8692 18.6957 50.009 18.3883C50.1813 18.0129 50.5682 17.6764 51.173 17.3852C49.9309 16.7154 49.0173 15.654 48.4321 14.1946C47.8273 15.6346 46.9072 16.6992 45.6652 17.3852C46.2504 17.6764 46.6373 18.0097 46.8292 18.3883C46.9657 18.6957 47.0373 19.2102 47.0373 19.9318V23.378C47.0373 23.8408 46.9072 24.3003 46.6503 24.7533C46.3902 25.2063 46.0651 25.5363 45.6684 25.7434C46.4618 26.122 47.0307 26.4974 47.3754 26.876C47.616 27.1316 47.9606 27.7238 48.4093 28.6493C49.3392 26.7628 50.2788 25.8211 51.225 25.8211C52.1711 25.8211 53.1108 26.7628 54.0406 28.6493C54.265 28.2027 54.4633 27.8338 54.6356 27.5426C54.808 27.2514 54.964 27.0378 55.1006 26.8987C55.429 26.5233 55.9947 26.135 56.8075 25.7402C56.4109 25.5331 56.0825 25.2031 55.8256 24.75L55.8191 24.7533ZM52.3304 18.4401H52.3044V18.4142C52.2524 18.3786 52.1939 18.3462 52.1223 18.3106C52.0541 18.2751 51.976 18.2427 51.8883 18.2071C51.303 18.4822 50.9421 18.7831 50.8023 19.1067C50.6657 19.4141 50.5942 19.9124 50.5942 20.5984V24.0446C50.5942 24.3714 50.656 24.6465 50.7763 24.8665C50.8966 24.9183 51.0429 24.9442 51.2152 24.9442C51.6281 24.9442 51.9468 24.7889 52.1711 24.4815C52.3955 24.1741 52.506 23.8052 52.506 23.3748V19.9286C52.506 19.1908 52.4442 18.6925 52.3239 18.4368L52.3304 18.4401ZM51.3225 17.5664C51.5111 17.7379 51.6997 17.8673 51.8915 17.9515H51.9175C51.781 17.8317 51.5826 17.7023 51.3225 17.5664Z" fill="black"/>
<path d="M64.4513 20.1842V19.5143H63.7783V18.8963C63.7945 18.7928 63.8043 18.7086 63.8043 18.6407V18.4595C63.8043 18.2038 63.7783 17.9805 63.7263 17.7896C63.5377 17.7379 63.3133 17.712 63.0532 17.712V23.4233C63.0532 24.3164 63.2353 25.0445 63.5962 25.6107C63.6645 25.6463 63.7295 25.6787 63.7913 25.7143C63.8531 25.7499 63.9246 25.7823 64.0124 25.8178L63.8563 25.8955C64.0807 26.135 64.357 26.3323 64.6822 26.4877C63.7523 26.986 63.1053 27.4066 62.7444 27.7464H62.7704C62.5623 27.9535 62.3509 28.1994 62.1364 28.4939C61.9218 28.7851 61.6909 29.1443 61.4503 29.5747C61.3463 29.4032 61.2487 29.2446 61.1545 29.099C61.0602 28.9534 60.9691 28.811 60.8846 28.6751C60.8683 28.7107 60.8488 28.7463 60.8326 28.7916C60.8163 28.8337 60.7968 28.8725 60.7805 28.9081C60.592 28.6007 60.4131 28.3257 60.2506 28.0862C60.088 27.8467 59.9287 27.6331 59.7726 27.4422C59.5841 27.3063 59.3597 27.1607 59.0996 27.0054C58.8427 26.8501 58.5404 26.6786 58.1957 26.4909C58.2315 26.4553 58.2738 26.4359 58.3258 26.4262C58.3778 26.4165 58.4201 26.397 58.4558 26.3615C58.3193 26.2773 58.173 26.19 58.0169 26.1058C57.8608 26.0217 57.6983 25.9246 57.526 25.8243C58.251 25.4651 58.6964 25.0283 58.8688 24.5138C59.0053 24.1028 59.0768 23.5204 59.0768 22.7632V17.7217H57.9909V17.0518H57.3179V15.6378H59.0736V13.0911C59.0736 12.8355 58.9858 12.5864 58.8167 12.3437C58.6964 12.2595 58.5761 12.1689 58.4558 12.0751C58.3355 11.9812 58.2315 11.8906 58.147 11.8065L58.225 11.7289C58.0884 11.6253 57.9551 11.5218 57.8251 11.4215C57.695 11.3179 57.578 11.2241 57.4772 11.1399L57.6333 10.9846C58.0624 10.9166 58.6672 10.7872 59.441 10.5995H59.415C59.6751 10.5154 59.9937 10.3471 60.3709 10.098C60.748 9.8488 61.2065 9.52845 61.7397 9.13367C62.6533 8.48326 63.593 8.07878 64.5554 7.92346L64.5293 8.51561C64.1327 8.63534 63.788 8.84245 63.4954 9.13367C64.0644 8.87804 64.6399 8.69682 65.2284 8.59327L65.2024 9.18546C63.7718 9.63201 63.0565 11.1496 63.0565 13.7383V15.6151C63.3328 15.5634 63.5214 15.4792 63.6255 15.3595C63.7295 15.2398 63.7815 14.7253 63.7815 13.816H64.6074V14.4858H65.2804V20.1971H64.4546L64.4513 20.1842ZM64.4773 19.3882V13.9357H63.9083C63.9083 14.7932 63.8466 15.2916 63.7263 15.4275C63.5539 15.6507 63.063 15.7607 62.2534 15.7607V13.0588C62.2534 10.4021 62.9687 8.84891 64.3993 8.40236L64.4253 8.06906C63.5995 8.18879 62.7281 8.57388 61.8145 9.22753C61.2617 9.6223 60.7936 9.94913 60.4066 10.2048C60.0197 10.4604 59.7044 10.6351 59.4638 10.7193C58.6867 10.9264 58.1014 11.0525 57.708 11.1043L57.682 11.1302C57.8186 11.2338 57.9519 11.3373 58.0819 11.4376C58.212 11.5412 58.3453 11.6512 58.4819 11.7709C58.963 12.2013 59.2069 12.6381 59.2069 13.0815V15.7575H57.4479V16.916H59.2069V22.7534C59.2069 23.543 59.1386 24.1417 58.9988 24.5526C58.7907 25.1351 58.3941 25.5654 57.8088 25.8372C58.7029 26.3162 59.2914 26.6851 59.5645 26.9439C59.9254 27.3031 60.3319 27.8694 60.7805 28.6428C60.9886 28.2674 61.1935 27.9406 61.4016 27.6655C61.6096 27.3905 61.8047 27.1607 61.9965 26.9698C62.3249 26.6624 62.9004 26.2838 63.7295 25.8372C62.7476 25.3745 62.2567 24.3455 62.2567 22.7502V16.9127C62.8939 16.9127 63.3328 17.013 63.5734 17.2072C63.814 17.4046 63.9343 17.822 63.9343 18.4562V18.6633C63.9343 18.7313 63.9246 18.8186 63.9083 18.9189V19.3817H64.4773V19.3882Z" fill="black"/>
</svg>
