<svg width="482" height="117" viewBox="0 0 482 117" fill="none" xmlns="http://www.w3.org/2000/svg">
<g clip-path="url(#clip0_1_959)">
<path d="M45.2338 70.1141L57.7373 82.3727L57.7373 102.239C57.7373 104.185 57.3599 106.056 56.58 107.85C55.8001 109.645 54.7435 111.237 53.385 112.602C52.0265 113.967 50.4415 115.029 48.6553 115.812C46.8691 116.596 45.0074 116.975 43.0451 116.975L28.2019 116.975C24.0257 116.975 20.554 115.559 17.7363 112.728L7.42152 102.644C5.18247 101.279 3.39626 99.4589 2.03773 97.1588C0.679207 94.884 -4.99537e-05 92.3059 -4.98311e-05 89.5003L-4.65895e-05 15.3422C-4.64956e-05 13.1938 0.3773 11.197 1.1572 9.35191C1.93709 7.5068 3.01889 5.88918 4.42773 4.5243C5.83657 3.15943 7.44668 2.07258 9.30837 1.23849C11.1449 0.404405 13.1324 -1.94974e-06 15.2708 -1.85627e-06L30.114 -1.20746e-06C32.9316 -1.08429e-06 35.4474 0.657161 37.6865 1.97148C39.9255 3.28581 41.7117 5.05509 43.0702 7.3046L53.385 17.3895C56.3033 20.3215 57.7373 23.86 57.7373 28.0557L57.7373 47.7706L38.1141 47.7706L33.1832 42.943L33.1832 69.2294L45.259 69.2294L45.259 70.1141L45.2338 70.1141ZM42.3155 72.1614L27.6233 72.1614C27.6233 73.1471 27.6988 74.4615 27.8497 76.1044C28.0007 77.7725 28.0007 79.3902 27.8497 81.0078C27.6988 82.6254 27.2963 84.0156 26.617 85.2541C25.9377 86.4673 24.7805 87.0739 23.1201 87.0739C21.6609 87.0739 20.403 86.7453 19.3464 86.0629C18.2897 85.3804 17.7363 84.2178 17.7363 82.5496L17.7363 22.2171C17.7363 21.0544 18.1639 20.0181 19.0445 19.1588C19.925 18.2741 20.9313 17.8445 22.0886 17.8445C24.1264 17.8445 25.5603 18.35 26.3906 19.3863C27.2208 20.3973 27.7239 21.6863 27.9252 23.1776C28.1265 24.6941 28.1265 26.2865 27.9252 28.0052C27.7239 29.6986 27.6233 31.2404 27.6233 32.6053L42.3155 32.6053L42.3155 15.3675C42.3155 11.9553 41.1331 9.04861 38.7431 6.59689C36.3782 4.17045 33.4851 2.95723 30.0888 2.95723L15.2456 2.95722C11.8493 2.95722 8.931 4.17045 6.51584 6.59689C4.10068 9.02333 2.8931 11.9553 2.8931 15.3675L2.89309 89.5762C2.89309 92.9883 4.10068 95.895 6.51583 98.2709C8.93099 100.647 11.8493 101.86 15.2456 101.86L30.0888 101.86C33.3844 101.86 36.2525 100.647 38.6676 98.1951C41.0828 95.7434 42.2904 92.8872 42.2904 89.5762L42.2904 72.1867L42.3155 72.1614Z" fill="#FFFF00"/>
<path d="M68.4797 102.694C66.2406 101.43 64.4293 99.6105 63.0204 97.2093C61.6116 94.8335 60.9071 92.2301 60.9071 89.3992L60.9071 15.3422C60.9071 13.1938 61.2845 11.197 62.0644 9.35191C62.8443 7.5068 63.9261 5.88918 65.335 4.5243C66.7438 3.15943 68.3539 2.07258 70.2156 1.23849C72.0773 0.404405 74.0647 -1.94974e-06 76.2031 -1.85627e-06L90.8953 -1.21405e-06C93.713 -1.09089e-06 96.254 0.682436 98.5182 2.04731C100.782 3.41218 102.619 5.20674 103.977 7.45626L114.166 17.3895C115.525 18.7544 116.607 20.3467 117.437 22.1413C118.267 23.9358 118.67 25.9073 118.67 28.0557L118.67 102.113C118.67 104.16 118.292 106.081 117.512 107.876C116.732 109.67 115.676 111.263 114.317 112.627C112.959 113.992 111.374 115.054 109.588 115.837C107.801 116.621 105.889 117 103.852 117L89.1595 117C85.0839 117 81.6373 115.585 78.8447 112.754L68.53 102.669L68.4797 102.694ZM103.223 15.3422C103.223 11.93 102.015 9.02333 99.6 6.57161C97.1848 4.14517 94.2665 2.93195 90.8702 2.93195L76.178 2.93195C72.7817 2.93195 69.8634 4.14517 67.4482 6.57161C65.0331 8.99805 63.8255 11.93 63.8255 15.3422L63.8255 89.3992C63.8255 92.8114 65.033 95.7181 67.4482 98.1698C69.8634 100.596 72.7817 101.835 76.178 101.835L90.8702 101.835C94.2665 101.835 97.1597 100.622 99.6 98.1698C102.015 95.7434 103.223 92.8114 103.223 89.3992L103.223 15.3422ZM88.5305 82.5496C88.5305 83.8134 88.1028 84.8749 87.2726 85.6838C86.4424 86.5178 85.3858 86.9222 84.1027 86.9222L83.0712 86.9222C81.7882 86.9222 80.7316 86.5178 79.9014 85.6838C79.0711 84.8497 78.6435 83.8134 78.6435 82.5496L78.6435 22.2171C78.6435 20.9533 79.0711 19.8918 79.9014 19.0071C80.7316 18.1225 81.7882 17.6928 83.0712 17.6928L84.1027 17.6928C85.3858 17.6928 86.4424 18.1225 87.2726 19.0071C88.1029 19.8918 88.5305 20.9533 88.5305 22.2171L88.5305 82.5496Z" fill="#FFFF00"/>
<path d="M168.81 -5.46544e-07L168.81 0.88464L181.313 13.1432L181.313 117L161.69 117L155.3 110.706L155.3 117L135.677 117L123.173 104.741L122.293 104.741L122.293 -2.57986e-06L141.916 -1.72211e-06L142.218 1.16267L148.331 7.0013L148.331 -1.44169e-06L168.835 -5.45445e-07L168.81 -5.46544e-07ZM151.224 2.93195L151.224 35.2087L139.878 2.93195L125.186 2.93195L125.186 101.835L139.878 101.835L139.878 38.5703C140.658 40.8957 141.614 43.4738 142.796 46.2288C143.954 49.0091 145.086 51.8399 146.218 54.6961C147.325 57.5775 148.356 60.383 149.262 63.1633C150.193 65.9436 150.847 68.4964 151.224 70.8218C151.602 72.9702 151.828 75.3461 151.878 77.9747C151.929 80.6034 151.878 83.3079 151.803 86.0882C151.702 88.8685 151.576 91.6235 151.451 94.3532C151.3 97.083 151.224 99.56 151.224 101.809L165.916 101.809L165.916 2.90668L151.224 2.90667L151.224 2.93195Z" fill="#FFFF00"/>
<path d="M227.251 -5.46544e-07L227.251 0.88464L239.755 13.1432L239.755 32.8581L228.559 32.8581L228.559 117L208.785 117L196.282 104.741L195.401 104.741L195.401 30.836L185.087 20.5995L184.206 20.5995L184.206 -2.42811e-06L227.251 -5.46544e-07ZM187.124 2.93195L187.124 17.6928L198.32 17.6928L198.32 101.835L213.163 101.835L213.163 17.6928L224.358 17.6928L224.358 2.93195L187.124 2.93195Z" fill="#FFFF00"/>
<path d="M243.554 104.741L242.673 104.741L242.673 15.3422C242.673 13.1938 243.05 11.197 243.83 9.35191C244.61 7.5068 245.692 5.88918 247.101 4.5243C248.51 3.15943 250.12 2.07258 251.981 1.23849C253.818 0.404405 255.805 -1.94974e-06 257.944 -1.85627e-06L272.636 -1.21405e-06C275.454 -1.09089e-06 277.995 0.682436 280.259 2.04731C282.523 3.41218 284.36 5.20674 285.718 7.45625L295.907 17.3895C297.266 18.7544 298.347 20.3467 299.178 22.1413C300.008 23.9358 300.41 25.9073 300.41 28.0557L300.41 117.025L280.636 117.025L275.831 112.349L275.831 117.025L256.057 117.025L243.554 104.767L243.554 104.741ZM284.989 15.3422C284.989 11.93 283.781 9.02333 281.366 6.57161C278.951 4.14517 276.032 2.93195 272.636 2.93195L257.944 2.93195C254.548 2.93195 251.629 4.14517 249.214 6.57161C246.799 8.99805 245.591 11.93 245.591 15.3422L245.591 101.809L260.435 101.809L260.435 67.1821L270.322 67.1821L270.322 101.809L285.014 101.809L285.014 15.3422L284.989 15.3422ZM260.409 52.4465L260.409 22.2171C260.409 21.0544 260.862 20.0181 261.743 19.1588C262.623 18.2741 263.655 17.8445 264.837 17.8445L265.869 17.8445C267.051 17.8445 268.083 18.2741 268.963 19.1588C269.844 20.0434 270.296 21.0544 270.296 22.2171L270.296 52.4465L260.409 52.4465Z" fill="#FFFF00"/>
<path d="M350.55 -5.46544e-07L350.55 0.88464L363.053 13.1432L363.053 117L343.43 117L337.04 110.706L337.04 117L317.417 117L304.914 104.741L304.033 104.741L304.033 -2.57986e-06L323.656 -1.72211e-06L323.958 1.16267L330.071 7.0013L330.071 -1.44169e-06L350.575 -5.45445e-07L350.55 -5.46544e-07ZM332.965 2.93195L332.965 35.2087L321.618 2.93195L306.926 2.93195L306.926 101.835L321.618 101.835L321.618 38.5703C322.398 40.8957 323.354 43.4738 324.537 46.2288C325.694 49.0091 326.826 51.8399 327.958 54.6961C329.065 57.5775 330.097 60.383 331.002 63.1633C331.933 65.9436 332.587 68.4964 332.965 70.8218C333.342 72.9702 333.568 75.3461 333.619 77.9747C333.669 80.6034 333.619 83.3079 333.543 86.0882C333.443 88.8685 333.317 91.6235 333.191 94.3532C333.04 97.083 332.965 99.56 332.965 101.809L347.657 101.809L347.657 2.90668L332.965 2.90667L332.965 2.93195Z" fill="#FFFF00"/>
<path d="M411.181 70.1141L423.684 82.3727L423.684 102.239C423.684 104.185 423.307 106.056 422.527 107.85C421.747 109.645 420.69 111.237 419.332 112.602C417.973 113.967 416.388 115.029 414.602 115.812C412.816 116.596 410.954 116.975 408.992 116.975L394.149 116.975C389.972 116.975 386.501 115.559 383.683 112.728L373.368 102.644C371.129 101.279 369.343 99.4589 367.984 97.1588C366.626 94.884 365.947 92.3059 365.947 89.5003L365.947 15.3422C365.947 13.1938 366.324 11.197 367.104 9.35191C367.884 7.5068 368.966 5.88918 370.375 4.5243C371.783 3.15943 373.393 2.07258 375.255 1.23849C377.117 0.404405 379.104 -1.94974e-06 381.243 -1.85627e-06L396.086 -1.20746e-06C398.904 -1.08429e-06 401.419 0.657161 403.658 1.97148C405.897 3.28581 407.684 5.05509 409.042 7.3046L419.357 17.3895C422.275 20.3215 423.709 23.86 423.709 28.0557L423.709 47.7706L404.086 47.7706L399.155 42.943L399.155 69.2294L411.231 69.2294L411.231 70.1141L411.181 70.1141ZM408.262 72.1614L393.57 72.1614C393.57 73.1471 393.646 74.4615 393.796 76.1044C393.947 77.7725 393.947 79.3902 393.796 81.0078C393.646 82.6254 393.243 84.0156 392.564 85.2541C391.884 86.4673 390.727 87.0739 389.067 87.0739C387.608 87.0739 386.35 86.7453 385.293 86.0629C384.236 85.3804 383.683 84.2178 383.683 82.5496L383.683 22.2171C383.683 21.0544 384.111 20.0181 384.991 19.1588C385.872 18.2741 386.878 17.8445 388.035 17.8445C390.073 17.8445 391.507 18.35 392.337 19.3863C393.168 20.3973 393.671 21.6863 393.872 23.1776C394.073 24.6941 394.073 26.2865 393.872 28.0052C393.671 29.6986 393.57 31.2404 393.57 32.6053L408.262 32.6053L408.262 15.3675C408.262 11.9553 407.08 9.04861 404.69 6.59689C402.325 4.17045 399.432 2.95723 396.036 2.95723L381.192 2.95722C377.796 2.95722 374.878 4.17045 372.463 6.59689C370.047 9.02333 368.84 11.9553 368.84 15.3675L368.84 89.5762C368.84 92.9883 370.047 95.895 372.463 98.2709C374.878 100.647 377.796 101.86 381.192 101.86L396.036 101.86C399.331 101.86 402.199 100.647 404.614 98.1951C407.03 95.7434 408.237 92.8872 408.237 89.5762L408.237 72.1867L408.262 72.1614Z" fill="#FFFF00"/>
<path d="M469.497 -5.46544e-07L469.497 0.88464L482 13.1432L482 32.8581L470.805 32.8581L470.805 117L451.031 117L438.527 104.741L437.647 104.741L437.647 30.836L427.332 20.5995L426.451 20.5995L426.451 -2.42811e-06L469.497 -5.46544e-07ZM429.37 2.93195L429.37 17.6928L440.565 17.6928L440.565 101.835L455.408 101.835L455.408 17.6928L466.603 17.6928L466.603 2.93195L429.37 2.93195Z" fill="#FFFF00"/>
</g>
<defs>
<clipPath id="clip0_1_959">
<rect width="117" height="482" fill="white" transform="translate(482) rotate(90)"/>
</clipPath>
</defs>
</svg>
