<svg width="83" height="34" viewBox="0 0 83 34" fill="none" xmlns="http://www.w3.org/2000/svg">
<g clip-path="url(#clip0_2_1291)">
<path d="M82.7784 0.222595H0.221436V33.7774H82.7784V0.222595Z" fill="#FF0000" stroke="black" stroke-miterlimit="10"/>
<path d="M12.6623 18.5382L14.8155 20.6529V24.0765C14.8155 24.4104 14.749 24.7354 14.6161 25.047C14.4832 25.3587 14.2971 25.6302 14.0667 25.8662C13.8319 26.1022 13.5617 26.2847 13.2515 26.4183C12.9414 26.5518 12.6224 26.6186 12.2857 26.6186H9.72934C9.01161 26.6186 8.40907 26.3737 7.92615 25.8885L6.14511 24.1522C5.75966 23.9162 5.45396 23.6046 5.21915 23.2084C4.98433 22.8121 4.86914 22.3714 4.86914 21.8861V9.09548C4.86914 8.72597 4.9356 8.38316 5.06851 8.06262C5.20142 7.74207 5.39193 7.46605 5.63118 7.23009C5.87485 6.99413 6.15397 6.80715 6.46853 6.66469C6.78752 6.52222 7.12867 6.45099 7.4964 6.45099H10.0528C10.5357 6.45099 10.9699 6.56229 11.3553 6.78934C11.7408 7.01639 12.0465 7.32358 12.2813 7.70646L14.0623 9.44274C14.563 9.94582 14.8155 10.5602 14.8155 11.2814V14.6783H11.4351L10.5844 13.8458V18.3779H12.6623V18.5293V18.5382ZM12.1617 18.8899H9.63187C9.63187 19.0591 9.64516 19.2861 9.66732 19.5711C9.6939 19.856 9.6939 20.1365 9.66732 20.4125C9.64073 20.6885 9.56985 20.9334 9.45465 21.1426C9.33946 21.3519 9.13566 21.4587 8.85211 21.4587C8.59958 21.4587 8.38249 21.4008 8.20084 21.2806C8.01476 21.1649 7.92615 20.9601 7.92615 20.6752V10.2753C7.92615 10.0749 8.00147 9.89684 8.1521 9.74548C8.30274 9.59411 8.47996 9.51842 8.67933 9.51842C9.02933 9.51842 9.27744 9.60746 9.41921 9.78109C9.56098 9.95917 9.64959 10.1773 9.68061 10.4355C9.71605 10.6982 9.71605 10.9742 9.68061 11.2681C9.64516 11.5619 9.63187 11.8246 9.63187 12.0605H12.1617V9.09103C12.1617 8.50337 11.9579 8.00029 11.5458 7.5818C11.1382 7.16331 10.6376 6.95407 10.0572 6.95407H7.50083C6.91601 6.95407 6.41537 7.16331 5.9989 7.5818C5.58244 8.00029 5.37421 8.50337 5.37421 9.09103V21.8817C5.37421 22.4693 5.58244 22.9679 5.9989 23.3775C6.41537 23.7871 6.91601 23.9964 7.50083 23.9964H10.0572C10.6243 23.9964 11.1161 23.7871 11.537 23.3686C11.9579 22.9501 12.1617 22.456 12.1617 21.8817V18.8855V18.8899Z" fill="#FFFF00"/>
<path d="M16.6719 24.1522C16.2865 23.934 15.9764 23.6179 15.7327 23.2084C15.489 22.7988 15.3694 22.3491 15.3694 21.8594V9.09548C15.3694 8.72597 15.4358 8.38316 15.5688 8.06262C15.7017 7.74207 15.8922 7.46605 16.1314 7.23009C16.3751 6.99413 16.6542 6.80715 16.9688 6.66469C17.2878 6.52222 17.6289 6.45099 17.9966 6.45099H20.5264C21.0093 6.45099 21.448 6.56674 21.8423 6.8027C22.2366 7.03865 22.5467 7.3503 22.7815 7.73317L24.536 9.44719C24.7708 9.68315 24.9569 9.95472 25.0986 10.2664C25.2404 10.578 25.3113 10.9164 25.3113 11.2859V24.0498C25.3113 24.4015 25.2449 24.7354 25.1119 25.0426C24.979 25.3542 24.7929 25.6258 24.5626 25.8618C24.3277 26.0977 24.0575 26.2802 23.7474 26.4138C23.4372 26.5474 23.1094 26.6141 22.7594 26.6141H20.2296C19.5296 26.6141 18.9359 26.3693 18.4485 25.884L16.6675 24.1477L16.6719 24.1522ZM22.6619 9.09548C22.6619 8.50782 22.4537 8.00474 22.0372 7.58625C21.6207 7.16776 21.1201 6.95852 20.5353 6.95852H18.0055C17.4207 6.95852 16.92 7.16776 16.5036 7.58625C16.0871 8.00474 15.8789 8.50782 15.8789 9.09548V21.8594C15.8789 22.4471 16.0871 22.9501 16.5036 23.3686C16.92 23.7871 17.4207 23.9964 18.0055 23.9964H20.5353C21.1201 23.9964 21.6207 23.7871 22.0372 23.3686C22.4537 22.9501 22.6619 22.4471 22.6619 21.8594V9.09548ZM20.1321 20.6752C20.1321 20.8933 20.0612 21.0758 19.915 21.2183C19.7688 21.3608 19.5872 21.432 19.3701 21.432H19.1929C18.9713 21.432 18.7897 21.3608 18.6479 21.2183C18.5017 21.0758 18.4308 20.8933 18.4308 20.6752V10.2753C18.4308 10.0571 18.5017 9.87013 18.6479 9.72322C18.7941 9.57185 18.9758 9.49616 19.1929 9.49616H19.3701C19.5916 9.49616 19.7733 9.57185 19.915 9.72322C20.0612 9.87458 20.1321 10.0571 20.1321 10.2753V20.6752Z" fill="#FFFF00"/>
<path d="M33.9595 6.45544V6.60681L36.1127 8.72152V26.623H32.7323L31.6291 25.5412V26.623H28.2487L26.0955 24.5083H25.9448V6.45544H29.3253L29.374 6.65578L30.4284 7.66194V6.45544H33.9595ZM30.9291 6.95852V12.5235L28.9753 6.95852H26.4455V24.0053H28.9753V13.1023C29.1082 13.5074 29.2765 13.9437 29.4759 14.4245C29.6753 14.9009 29.8746 15.3906 30.0651 15.8848C30.2556 16.379 30.4329 16.8687 30.5924 17.3451C30.7519 17.8214 30.8626 18.2622 30.9291 18.6673C30.9955 19.0368 31.031 19.4464 31.0398 19.9005C31.0487 20.3546 31.0398 20.8176 31.0265 21.2984C31.0088 21.7748 30.9911 22.2512 30.9645 22.7231C30.9379 23.195 30.9291 23.6224 30.9291 24.0053H33.4589V6.95852H30.9291Z" fill="#FFFF00"/>
<path d="M44.0298 6.45544V6.60681L46.183 8.72152V12.1184H44.2558V26.623H40.8488L38.6956 24.5083H38.545V11.7667L36.7639 10.0037H36.6133V6.45544H44.0298ZM37.1139 6.95852V9.50062H39.0412V24.0053H41.5975V9.50062H43.5248V6.95852H37.1095H37.1139Z" fill="#FFFF00"/>
<path d="M46.8389 24.5039H46.6882V9.09548C46.6882 8.72597 46.7547 8.38316 46.8876 8.06262C47.0205 7.74207 47.211 7.46605 47.4503 7.23009C47.6939 6.99413 47.9731 6.80715 48.2876 6.66469C48.6066 6.52222 48.9478 6.45099 49.3155 6.45099H51.8453C52.3282 6.45099 52.7668 6.56674 53.1611 6.8027C53.5554 7.03865 53.8656 7.3503 54.1004 7.73317L55.8548 9.44719C56.0896 9.68315 56.2757 9.95472 56.4175 10.2664C56.5593 10.578 56.6302 10.9164 56.6302 11.2859V26.6186H53.2231L52.3947 25.8128V26.6186H48.9876L46.8344 24.5039H46.8389ZM53.9807 9.09548C53.9807 8.50782 53.7725 8.00474 53.3561 7.58625C52.9396 7.16776 52.439 6.95852 51.8541 6.95852H49.3244C48.7395 6.95852 48.2389 7.16776 47.8224 7.58625C47.406 8.00474 47.1977 8.50782 47.1977 9.09548V24.0008H49.7541V18.0351H51.4598V24.0008H53.9896V9.09548H53.9807ZM49.7452 15.4886V10.2753C49.7452 10.0749 49.8206 9.89684 49.9756 9.74548C50.1263 9.59411 50.3079 9.51842 50.5117 9.51842H50.6889C50.8927 9.51842 51.0699 9.59411 51.225 9.74548C51.3756 9.89684 51.4554 10.0749 51.4554 10.2753V15.4886H49.7497H49.7452Z" fill="#FFFF00"/>
<path d="M65.5353 18.5382L67.6885 20.6529V24.0765C67.6885 24.4104 67.6221 24.7354 67.4892 25.047C67.3563 25.3587 67.1702 25.6302 66.9398 25.8662C66.705 26.1022 66.4347 26.2847 66.1246 26.4183C65.8145 26.5518 65.4955 26.6186 65.1588 26.6186H62.6024C61.8847 26.6186 61.2821 26.3737 60.7992 25.8885L59.0182 24.1522C58.6327 23.9162 58.327 23.6046 58.0922 23.2084C57.8574 22.8121 57.7422 22.3714 57.7422 21.8861V9.09548C57.7422 8.72597 57.8086 8.38316 57.9416 8.06262C58.0745 7.74207 58.265 7.46605 58.5042 7.23009C58.7479 6.99413 59.027 6.80715 59.3416 6.66469C59.6606 6.52222 60.0017 6.45099 60.3694 6.45099H62.9258C63.4087 6.45099 63.8429 6.56229 64.2284 6.78934C64.6138 7.01639 64.9195 7.32358 65.1543 7.70646L66.9354 9.44274C67.436 9.94582 67.6885 10.5602 67.6885 11.2814V14.6783H64.3081L63.4575 13.8458V18.3779H65.5353V18.5293V18.5382ZM65.0347 18.8899H62.5049C62.5049 19.0591 62.5182 19.2861 62.5404 19.5711C62.5669 19.856 62.5669 20.1365 62.5404 20.4125C62.5138 20.6885 62.4429 20.9334 62.3277 21.1426C62.2125 21.3519 62.0087 21.4587 61.7252 21.4587C61.4726 21.4587 61.2555 21.4008 61.0739 21.2806C60.8878 21.1649 60.7992 20.9601 60.7992 20.6752V10.2753C60.7992 10.0749 60.8745 9.89684 61.0252 9.74548C61.1758 9.59411 61.353 9.51842 61.5524 9.51842C61.9024 9.51842 62.1505 9.60746 62.2923 9.78109C62.434 9.95917 62.5226 10.1773 62.5537 10.4355C62.5891 10.6982 62.5891 10.9742 62.5537 11.2681C62.5182 11.5619 62.5049 11.8246 62.5049 12.0605H65.0347V9.09103C65.0347 8.50337 64.8309 8.00029 64.4189 7.5818C64.0113 7.16331 63.5106 6.95407 62.9302 6.95407H60.3739C59.7891 6.95407 59.2884 7.16331 58.872 7.5818C58.4555 8.00029 58.2473 8.50337 58.2473 9.09103V21.8817C58.2473 22.4693 58.4555 22.9679 58.872 23.3775C59.2884 23.7871 59.7891 23.9964 60.3739 23.9964H62.9302C63.4973 23.9964 63.9891 23.7871 64.41 23.3686C64.8309 22.9501 65.0347 22.456 65.0347 21.8817V18.8855V18.8899Z" fill="#FFFF00"/>
<path d="M75.5836 6.45544V6.60681L77.7368 8.72152V12.1184H75.8095V26.623H72.4025L70.2493 24.5083H70.0987V11.7667L68.3176 10.0037H68.167V6.45544H75.5836ZM68.6676 6.95852V9.50062H70.5949V24.0053H73.1512V9.50062H75.0785V6.95852H68.6632H68.6676Z" fill="#FFFF00"/>
</g>
<defs>
<clipPath id="clip0_2_1291">
<rect width="83" height="34" fill="white"/>
</clipPath>
</defs>
</svg>
