<svg width="129" height="358" viewBox="0 0 129 358" fill="none" xmlns="http://www.w3.org/2000/svg">
<g filter="url(#filter0_d_22_38)">
<g clip-path="url(#clip0_22_38)">
<path d="M124 0H4V350H124V0Z" fill="#FF0000"/>
<path d="M76.8945 19.255C76.8945 15.575 75.2845 14.025 71.5245 14.015C66.5145 13.995 61.5144 13.995 56.5044 14.015C52.5144 14.025 51.0044 15.555 51.0044 19.565C51.0044 25.005 51.0044 30.445 51.0044 35.885C51.0044 41.475 50.9944 47.055 51.0044 52.645C51.0144 56.395 52.5645 57.975 56.2645 57.995C61.4145 58.015 66.5645 58.025 71.7145 57.995C75.2845 57.975 76.8845 56.385 76.8945 52.775C76.9145 41.605 76.9145 30.435 76.8945 19.255ZM58.7245 15.525H69.1844V16.155H58.7245V15.525ZM63.9545 56.045C62.9945 56.045 62.2145 55.265 62.2145 54.305C62.2145 53.345 62.9945 52.565 63.9545 52.565C64.9145 52.565 65.6944 53.345 65.6944 54.305C65.6944 55.265 64.9145 56.045 63.9545 56.045ZM75.0345 50.215C75.0345 50.785 74.5744 51.245 74.0044 51.245H53.8645C53.2945 51.245 52.8345 50.785 52.8345 50.215V19.605C52.8345 19.035 53.2945 18.575 53.8645 18.575H74.0044C74.5744 18.575 75.0345 19.035 75.0345 19.605V50.215Z" fill="#FFFF00"/>
<path d="M52.6918 94.8196C52.7064 93.8949 52.8826 92.9702 53.2202 92.0455C53.5578 91.1207 54.1265 90.2768 54.9265 89.5135C55.7338 88.7502 56.8236 88.1374 58.196 87.6751C59.5758 87.2127 61.3078 86.9815 63.392 86.9815C65.3883 86.9815 67.157 87.1687 68.6982 87.543C70.2467 87.9173 71.5494 88.4603 72.6062 89.1722C73.6703 89.8841 74.4776 90.7428 75.0281 91.7482C75.5785 92.761 75.8537 93.9022 75.8537 95.1719C75.8537 96.4342 75.6005 97.5571 75.0941 98.5405C74.5951 99.5312 73.8978 100.339 73.0025 100.962C72.1071 101.586 71.076 101.99 69.9091 102.173L69.9091 99.4872C70.9219 99.2377 71.7622 98.7533 72.43 98.0341C73.0979 97.3149 73.4318 96.3608 73.4318 95.1719C73.4318 93.4252 72.6722 92.0491 71.1531 91.0437C69.6339 90.0456 67.5019 89.5428 64.7571 89.5355L64.7571 89.7116C65.3809 90.1226 65.913 90.6107 66.3533 91.1758C66.801 91.7482 67.146 92.3794 67.3881 93.0692C67.6303 93.7591 67.7514 94.4893 67.7514 95.2599C67.7514 96.5516 67.4285 97.7332 66.7827 98.8047C66.1442 99.8762 65.2598 100.735 64.1296 101.381C63.0067 102.027 61.7187 102.349 60.2656 102.349C58.8712 102.349 57.5942 102.038 56.4347 101.414C55.2824 100.79 54.3651 99.9129 53.6825 98.7827C53.0073 97.6598 52.6771 96.3388 52.6918 94.8196ZM55.1136 94.8196C55.1136 95.7443 55.3448 96.5736 55.8072 97.3075C56.2695 98.0488 56.8897 98.6322 57.6676 99.0579C58.4455 99.4909 59.3116 99.7074 60.2656 99.7074C61.1977 99.7074 62.0453 99.4982 62.8086 99.0799C63.5792 98.6689 64.192 98.1001 64.647 97.3736C65.102 96.6544 65.3295 95.8324 65.3295 94.9077C65.3295 94.2105 65.1901 93.561 64.9112 92.9592C64.6397 92.3574 64.2654 91.829 63.7884 91.3739C63.3113 90.9263 62.7646 90.574 62.1481 90.3171C61.5389 90.0602 60.8968 89.9318 60.2216 89.9318C59.3262 89.9318 58.4896 90.141 57.7116 90.5593C56.9337 90.985 56.3062 91.5647 55.8292 92.2986C55.3522 93.0399 55.1136 93.8802 55.1136 94.8196ZM57.6236 106.15L59.8693 106.15L75.5455 116.058L75.5455 117.687L72.0668 117.687L72.0668 116.586L60.2216 109.1L60.0455 109.1L60.0455 122.443L57.6236 122.443L57.6236 106.15ZM53 116.762L58.3061 116.762L59.3519 116.762L75.5455 116.762L75.5455 119.36L53 119.36L53 116.762ZM57.6236 126.04L59.8693 126.04L75.5455 135.947L75.5455 137.577L72.0668 137.577L72.0668 136.476L60.2216 128.99L60.0455 128.99L60.0455 142.332L57.6236 142.332L57.6236 126.04ZM53 136.652L58.3061 136.652L59.3519 136.652L75.5455 136.652L75.5455 139.25L53 139.25L53 136.652ZM75.5455 163.103L53 163.103L53 160.373L72.6832 160.373L72.6832 160.241L69.0284 154.736L71.8026 154.736L75.5455 160.373L75.5455 163.103ZM52.6918 177.073C52.7064 176.148 52.8826 175.223 53.2202 174.298C53.5578 173.374 54.1265 172.53 54.9265 171.766C55.7338 171.003 56.8236 170.39 58.196 169.928C59.5758 169.466 61.3078 169.234 63.392 169.234C65.3883 169.234 67.157 169.422 68.6982 169.796C70.2467 170.17 71.5494 170.713 72.6062 171.425C73.6703 172.137 74.4776 172.996 75.0281 174.001C75.5785 175.014 75.8537 176.155 75.8537 177.425C75.8537 178.687 75.6005 179.81 75.0941 180.793C74.595 181.784 73.8978 182.591 73.0025 183.215C72.1071 183.839 71.076 184.243 69.9091 184.426L69.9091 181.74C70.9219 181.491 71.7622 181.006 72.43 180.287C73.0979 179.568 73.4318 178.614 73.4318 177.425C73.4318 175.678 72.6722 174.302 71.153 173.297C69.6339 172.299 67.5019 171.796 64.7571 171.788L64.7571 171.965C65.3809 172.376 65.913 172.864 66.3533 173.429C66.801 174.001 67.1459 174.632 67.3881 175.322C67.6303 176.012 67.7514 176.742 67.7514 177.513C67.7514 178.805 67.4285 179.986 66.7827 181.058C66.1442 182.129 65.2598 182.988 64.1296 183.634C63.0067 184.279 61.7187 184.602 60.2656 184.602C58.8712 184.602 57.5942 184.29 56.4347 183.667C55.2824 183.043 54.3651 182.166 53.6825 181.036C53.0073 179.913 52.6771 178.592 52.6918 177.073ZM55.1136 177.073C55.1136 177.997 55.3448 178.827 55.8072 179.56C56.2695 180.302 56.8897 180.885 57.6676 181.311C58.4455 181.744 59.3115 181.96 60.2656 181.96C61.1977 181.96 62.0453 181.751 62.8086 181.333C63.5792 180.922 64.192 180.353 64.647 179.627C65.102 178.907 65.3295 178.085 65.3295 177.161C65.3295 176.463 65.1901 175.814 64.9112 175.212C64.6397 174.61 64.2654 174.082 63.7883 173.627C63.3113 173.179 62.7646 172.827 62.1481 172.57C61.5389 172.313 60.8968 172.185 60.2216 172.185C59.3262 172.185 58.4896 172.394 57.7116 172.812C56.9337 173.238 56.3062 173.818 55.8292 174.552C55.3522 175.293 55.1136 176.133 55.1136 177.073ZM52.6918 196.153C52.6918 194.641 52.9596 193.306 53.4954 192.146C54.0385 190.994 54.7834 190.095 55.7301 189.449C56.6842 188.803 57.7704 188.484 58.9886 188.491C59.9427 188.484 60.8234 188.671 61.6307 189.053C62.4453 189.434 63.1242 189.955 63.6673 190.616C64.2177 191.284 64.5663 192.029 64.7131 192.85L64.8452 192.85C65.124 191.772 65.7295 190.913 66.6616 190.275C67.601 189.636 68.6688 189.32 69.8651 189.328C71.0099 189.32 72.0337 189.61 72.9364 190.197C73.8391 190.785 74.551 191.592 75.0721 192.619C75.5932 193.654 75.8537 194.832 75.8537 196.153C75.8537 197.459 75.5932 198.626 75.0721 199.654C74.551 200.681 73.8391 201.489 72.9364 202.076C72.0337 202.67 71.0099 202.971 69.8651 202.978C68.6688 202.971 67.601 202.644 66.6616 201.999C65.7295 201.36 65.124 200.512 64.8452 199.456L64.7131 199.456C64.5663 200.27 64.2177 201.004 63.6673 201.657C63.1242 202.31 62.4453 202.832 61.6307 203.221C60.8234 203.609 59.9427 203.808 58.9886 203.815C57.7704 203.808 56.6842 203.477 55.7301 202.824C54.7834 202.178 54.0385 201.279 53.4954 200.127C52.9596 198.982 52.6918 197.658 52.6918 196.153ZM55.1136 196.153C55.1136 197.173 55.2788 198.054 55.609 198.795C55.9393 199.536 56.4053 200.109 57.0071 200.512C57.6089 200.916 58.3134 201.122 59.1207 201.129C59.9721 201.122 60.7243 200.901 61.3775 200.468C62.0307 200.035 62.5444 199.445 62.9187 198.696C63.293 197.955 63.4801 197.107 63.4801 196.153C63.4801 195.192 63.293 194.333 62.9187 193.577C62.5444 192.828 62.0307 192.238 61.3775 191.805C60.7243 191.379 59.9721 191.17 59.1207 191.177C58.3134 191.17 57.6089 191.364 57.0071 191.761C56.4053 192.164 55.9393 192.74 55.609 193.489C55.2788 194.238 55.1136 195.126 55.1136 196.153ZM65.8139 196.153C65.8139 196.96 65.9754 197.676 66.2983 198.3C66.6212 198.931 67.0726 199.426 67.6523 199.786C68.2321 200.145 68.911 200.329 69.6889 200.336C70.4522 200.329 71.1164 200.149 71.6815 199.797C72.2539 199.445 72.6942 198.957 73.0025 198.333C73.3181 197.709 73.4758 196.982 73.4758 196.153C73.4758 195.309 73.3181 194.571 73.0025 193.94C72.6942 193.309 72.2539 192.821 71.6815 192.476C71.1164 192.131 70.4522 191.962 69.6889 191.97C68.911 191.962 68.2321 192.135 67.6523 192.487C67.0726 192.847 66.6212 193.342 66.2983 193.973C65.9754 194.605 65.8139 195.331 65.8139 196.153ZM57.6236 216.224L59.8693 216.224L75.5454 226.132L75.5454 227.761L72.0668 227.761L72.0668 226.66L60.2216 219.175L60.0454 219.175L60.0454 232.517L57.6236 232.517L57.6236 216.224ZM53 226.837L58.3061 226.837L59.3519 226.837L75.5454 226.837L75.5454 229.435L53 229.435L53 226.837ZM75.8537 243.82C75.8463 244.745 75.6702 245.669 75.3253 246.594C74.9803 247.519 74.4079 248.363 73.6079 249.126C72.8153 249.889 71.7328 250.502 70.3604 250.964C68.988 251.427 67.267 251.658 65.1974 251.658C63.1939 251.658 61.4142 251.467 59.8583 251.086C58.3098 250.711 57.0034 250.168 55.9393 249.456C54.8751 248.752 54.0678 247.893 53.5174 246.88C52.967 245.875 52.6918 244.737 52.6918 243.468C52.6918 242.205 52.9413 241.079 53.4403 240.088C53.9467 239.105 54.6476 238.297 55.543 237.666C56.4457 237.042 57.4915 236.642 58.6804 236.466L58.6804 239.152C57.6456 239.395 56.7906 239.875 56.1154 240.594C55.4476 241.321 55.1136 242.279 55.1136 243.468C55.1136 245.207 55.8732 246.579 57.3924 247.585C58.9116 248.598 61.0582 249.104 63.8324 249.104L63.8324 248.928C63.2159 248.517 62.6838 248.029 62.2361 247.464C61.7885 246.899 61.4435 246.271 61.2013 245.581C60.9592 244.891 60.8381 244.158 60.8381 243.38C60.8381 242.088 61.1573 240.903 61.7958 239.824C62.4416 238.752 63.326 237.894 64.4489 237.248C65.5791 236.609 66.8707 236.29 68.3239 236.29C69.7036 236.29 70.9659 236.598 72.1108 237.215C73.263 237.839 74.1804 238.712 74.8629 239.835C75.5454 240.965 75.8757 242.293 75.8537 243.82ZM73.4318 243.82C73.4318 242.895 73.2006 242.062 72.7383 241.321C72.2833 240.587 71.6668 240.004 70.8888 239.571C70.1182 239.145 69.2633 238.932 68.3239 238.932C67.3845 238.932 66.5295 239.138 65.7589 239.549C64.9956 239.967 64.3865 240.536 63.9315 241.255C63.4838 241.982 63.2599 242.807 63.2599 243.732C63.2599 244.429 63.3957 245.079 63.6673 245.68C63.9461 246.282 64.3241 246.807 64.8011 247.255C65.2855 247.71 65.8323 248.066 66.4414 248.322C67.0579 248.579 67.7 248.708 68.3679 248.708C69.2486 248.708 70.0742 248.495 70.8448 248.069C71.6154 247.651 72.2392 247.071 72.7163 246.33C73.1933 245.596 73.4318 244.759 73.4318 243.82ZM52.6918 263.209C52.6918 261.697 52.9596 260.361 53.4954 259.202C54.0385 258.049 54.7834 257.15 55.7301 256.505C56.6842 255.859 57.7704 255.539 58.9886 255.547C59.9427 255.539 60.8234 255.727 61.6307 256.108C62.4453 256.49 63.1242 257.011 63.6673 257.671C64.2177 258.339 64.5663 259.084 64.7131 259.906L64.8452 259.906C65.124 258.827 65.7295 257.969 66.6616 257.33C67.601 256.692 68.6688 256.376 69.8651 256.383C71.0099 256.376 72.0337 256.666 72.9364 257.253C73.8391 257.84 74.551 258.648 75.0721 259.675C75.5932 260.71 75.8537 261.888 75.8537 263.209C75.8537 264.515 75.5932 265.682 75.0721 266.709C74.551 267.737 73.8391 268.544 72.9364 269.131C72.0337 269.726 71.0099 270.027 69.865 270.034C68.6688 270.027 67.601 269.7 66.6616 269.054C65.7295 268.416 65.124 267.568 64.8452 266.511L64.7131 266.511C64.5663 267.326 64.2177 268.06 63.6673 268.713C63.1242 269.366 62.4453 269.887 61.6307 270.276C60.8234 270.665 59.9427 270.863 58.9886 270.871C57.7704 270.863 56.6842 270.533 55.7301 269.88C54.7834 269.234 54.0385 268.335 53.4954 267.183C52.9596 266.038 52.6918 264.713 52.6918 263.209ZM55.1136 263.209C55.1136 264.229 55.2788 265.11 55.609 265.851C55.9393 266.592 56.4053 267.164 57.0071 267.568C57.6089 267.972 58.3134 268.177 59.1207 268.185C59.9721 268.177 60.7243 267.957 61.3775 267.524C62.0307 267.091 62.5444 266.5 62.9187 265.752C63.293 265.01 63.4801 264.163 63.4801 263.209C63.4801 262.247 63.293 261.389 62.9187 260.633C62.5444 259.884 62.0307 259.293 61.3775 258.86C60.7243 258.435 59.9721 258.226 59.1207 258.233C58.3134 258.226 57.6089 258.42 57.0071 258.816C56.4053 259.22 55.9393 259.796 55.609 260.545C55.2788 261.293 55.1136 262.181 55.1136 263.209ZM65.8139 263.209C65.8139 264.016 65.9754 264.732 66.2983 265.355C66.6212 265.987 67.0726 266.482 67.6523 266.842C68.2321 267.201 68.911 267.385 69.6889 267.392C70.4522 267.385 71.1164 267.205 71.6815 266.853C72.2539 266.5 72.6942 266.012 73.0025 265.388C73.3181 264.765 73.4758 264.038 73.4758 263.209C73.4758 262.365 73.3181 261.627 73.0025 260.996C72.6942 260.365 72.2539 259.877 71.6815 259.532C71.1164 259.187 70.4522 259.018 69.6889 259.025C68.911 259.018 68.2321 259.191 67.6523 259.543C67.0726 259.902 66.6212 260.398 66.2983 261.029C65.9754 261.66 65.8139 262.387 65.8139 263.209Z" fill="#FFFF00"/>
</g>
<line x1="124.5" y1="-2.18557e-08" x2="124.5" y2="350" stroke="black" stroke-dasharray="12 12"/>
</g>
<defs>
<filter id="filter0_d_22_38" x="0" y="0" width="129" height="358" filterUnits="userSpaceOnUse" color-interpolation-filters="sRGB">
<feFlood flood-opacity="0" result="BackgroundImageFix"/>
<feColorMatrix in="SourceAlpha" type="matrix" values="0 0 0 0 0 0 0 0 0 0 0 0 0 0 0 0 0 0 127 0" result="hardAlpha"/>
<feOffset dy="4"/>
<feGaussianBlur stdDeviation="2"/>
<feComposite in2="hardAlpha" operator="out"/>
<feColorMatrix type="matrix" values="0 0 0 0 0 0 0 0 0 0 0 0 0 0 0 0 0 0 0.25 0"/>
<feBlend mode="normal" in2="BackgroundImageFix" result="effect1_dropShadow_22_38"/>
<feBlend mode="normal" in="SourceGraphic" in2="effect1_dropShadow_22_38" result="shape"/>
</filter>
<clipPath id="clip0_22_38">
<rect width="120" height="350" fill="white" transform="translate(4)"/>
</clipPath>
</defs>
</svg>
