<svg width="121" height="350" viewBox="0 0 121 350" fill="none" xmlns="http://www.w3.org/2000/svg">
<g clip-path="url(#clip0_22_34)">
<path d="M120 0H0V350H120V0Z" fill="#FF0000"/>
<path d="M50.8399 28.57H43.6799V51.7H50.8399V28.57Z" fill="#FFFF00"/>
<path d="M47.23 25.54C49.57 25.54 51.46 23.63 51.46 21.27C51.46 18.91 49.56 17 47.23 17C44.9 17 43 18.91 43 21.27C43 23.63 44.89 25.54 47.23 25.54Z" fill="#FFFF00"/>
<path d="M62.2899 39.56C62.2899 36.31 63.7899 34.37 66.6499 34.37C69.2799 34.37 70.5499 36.23 70.5499 39.56V51.7H77.6799V37.05C77.6799 30.85 74.1699 27.86 69.2599 27.86C64.3499 27.86 62.2899 31.68 62.2899 31.68V28.56H55.4199V51.69H62.2899V39.55V39.56Z" fill="#FFFF00"/>
<path d="M51.7045 92.9403C51.7045 91.5739 52.0062 90.3951 52.6094 89.4041C53.2187 88.4193 54.0682 87.6591 55.1577 87.1236C56.2533 86.5942 57.5275 86.3295 58.9801 86.3295C60.4328 86.3295 61.7131 86.5942 62.821 87.1236C63.9351 87.6591 64.803 88.4039 65.4247 89.358C66.0526 90.3182 66.3665 91.4384 66.3665 92.7187C66.3665 93.4574 66.2434 94.1868 65.9972 94.907C65.7509 95.6271 65.3509 96.2827 64.7969 96.8736C64.2491 97.4645 63.5227 97.9354 62.6179 98.2862C61.7131 98.6371 60.599 98.8125 59.2756 98.8125L58.3523 98.8125L58.3523 87.8807L60.2358 87.8807L60.2358 96.5966C61.036 96.5966 61.75 96.4366 62.3778 96.1165C63.0057 95.8026 63.5012 95.3532 63.8643 94.7685C64.2275 94.1899 64.4091 93.5066 64.4091 92.7187C64.4091 91.8509 64.1937 91.0999 63.7628 90.4659C63.3381 89.8381 62.7841 89.3549 62.1009 89.0163C61.4176 88.6778 60.6851 88.5085 59.9034 88.5085L58.6477 88.5085C57.5767 88.5085 56.6688 88.6932 55.924 89.0625C55.1854 89.438 54.6222 89.9581 54.2344 90.6229C53.8527 91.2876 53.6619 92.0601 53.6619 92.9403C53.6619 93.5128 53.742 94.0298 53.902 94.4915C54.0682 94.9593 54.3144 95.3625 54.6406 95.701C54.973 96.0395 55.3854 96.3011 55.8778 96.4858L55.2869 98.5909C54.5729 98.3693 53.9451 97.9969 53.4034 97.4737C52.8679 96.9505 52.4493 96.3042 52.1477 95.5348C51.8523 94.7654 51.7045 93.9006 51.7045 92.9403ZM70.9091 104.306L52 104.306L52 102.127L70.9091 102.127L70.9091 104.306ZM66.1818 119.894L52 114.649L52 112.433L66.1818 107.189L66.1818 109.553L54.8807 113.468L54.8807 113.615L66.1818 117.53L66.1818 119.894ZM66.1818 134.366L52 129.122L52 126.906L66.1818 121.662L66.1818 124.025L54.8807 127.94L54.8807 128.088L66.1818 132.003L66.1818 134.366ZM52 137.242L66.1818 137.242L66.1818 139.421L52 139.421L52 137.242ZM68.5455 138.35C68.5455 137.926 68.6901 137.559 68.9794 137.252C69.2687 136.95 69.6165 136.799 70.0227 136.799C70.429 136.799 70.7767 136.95 71.066 137.252C71.3553 137.559 71.5 137.926 71.5 138.35C71.5 138.775 71.3553 139.138 71.066 139.44C70.7767 139.748 70.429 139.901 70.0227 139.901C69.6165 139.901 69.2687 139.748 68.9794 139.44C68.6901 139.138 68.5455 138.775 68.5455 138.35ZM52 143.412L66.1818 143.412L66.1818 145.517L64.0398 145.517L64.0398 145.665C64.7415 145.924 65.3108 146.391 65.7479 147.069C66.1849 147.746 66.4034 148.509 66.4034 149.358C66.4034 149.518 66.4003 149.718 66.3942 149.958C66.388 150.199 66.3788 150.38 66.3665 150.503L64.1506 150.503C64.169 150.429 64.1967 150.26 64.2337 149.995C64.2767 149.737 64.2983 149.463 64.2983 149.174C64.2983 148.484 64.1536 147.869 63.8643 147.327C63.5812 146.792 63.1873 146.367 62.6825 146.053C62.1839 145.745 61.6146 145.591 60.9744 145.591L52 145.591L52 143.412ZM51.6676 157.259C51.6676 156.361 51.8369 155.545 52.1754 154.813C52.5201 154.08 53.0156 153.499 53.6619 153.068C54.3144 152.637 55.1023 152.421 56.0256 152.421C56.8381 152.421 57.4967 152.581 58.0014 152.901C58.5123 153.222 58.9124 153.649 59.2017 154.185C59.491 154.72 59.7064 155.311 59.848 155.958C59.9957 156.61 60.1127 157.266 60.1989 157.924C60.3097 158.786 60.3928 159.485 60.4482 160.02C60.5097 160.562 60.6113 160.956 60.7528 161.202C60.8944 161.454 61.1406 161.58 61.4915 161.58L61.5653 161.58C62.4763 161.58 63.1842 161.331 63.6889 160.833C64.1937 160.34 64.446 159.592 64.446 158.589C64.446 157.549 64.2183 156.733 63.7628 156.142C63.3073 155.551 62.821 155.136 62.304 154.896L63.0426 152.828C63.9044 153.197 64.5753 153.689 65.0554 154.305C65.5417 154.927 65.8802 155.604 66.071 156.336C66.268 157.075 66.3665 157.801 66.3665 158.515C66.3665 158.971 66.3111 159.494 66.2003 160.085C66.0956 160.682 65.8771 161.257 65.5447 161.811C65.2124 162.371 64.7107 162.836 64.0398 163.205C63.3688 163.575 62.4702 163.759 61.3437 163.759L52 163.759L52 161.58L53.9205 161.58L53.9205 161.47C53.6127 161.322 53.2834 161.076 52.9325 160.731C52.5817 160.386 52.2831 159.928 52.0369 159.355C51.7907 158.783 51.6676 158.084 51.6676 157.259ZM53.625 157.592C53.625 158.454 53.7943 159.18 54.1328 159.771C54.4714 160.368 54.9084 160.817 55.4439 161.119C55.9794 161.427 56.5426 161.58 57.1335 161.58L59.1278 161.58C59.017 161.488 58.9155 161.285 58.8232 160.971C58.737 160.663 58.66 160.306 58.5923 159.9C58.5308 159.5 58.4754 159.109 58.4261 158.727C58.383 158.352 58.3461 158.047 58.3153 157.813C58.2415 157.247 58.1214 156.718 57.9553 156.225C57.7952 155.739 57.5521 155.345 57.2258 155.044C56.9058 154.748 56.4687 154.6 55.9148 154.6C55.1577 154.6 54.5852 154.88 54.1974 155.441C53.8158 156.007 53.625 156.724 53.625 157.592ZM51.7045 180.81C51.7045 179.481 52.0185 178.336 52.6463 177.376C53.2741 176.415 54.139 175.677 55.2408 175.16C56.3426 174.643 57.6013 174.384 59.017 174.384C60.4574 174.384 61.7285 174.649 62.8303 175.178C63.9382 175.714 64.803 176.459 65.4247 177.413C66.0526 178.373 66.3665 179.493 66.3665 180.773C66.3665 181.771 66.1818 182.669 65.8125 183.469C65.4432 184.27 64.9261 184.925 64.2614 185.436C63.5966 185.947 62.821 186.264 61.9347 186.387L61.9347 184.208C62.581 184.042 63.1534 183.673 63.652 183.1C64.1567 182.534 64.4091 181.771 64.4091 180.81C64.4091 179.961 64.1875 179.216 63.7443 178.576C63.3073 177.942 62.6887 177.446 61.8885 177.089C61.0945 176.739 60.1619 176.563 59.0909 176.563C57.9953 176.563 57.0412 176.736 56.2287 177.08C55.4162 177.431 54.7853 177.924 54.3359 178.558C53.8866 179.198 53.6619 179.949 53.6619 180.81C53.6619 181.377 53.7604 181.891 53.9574 182.352C54.1544 182.814 54.4375 183.205 54.8068 183.525C55.1761 183.845 55.6193 184.073 56.1364 184.208L56.1364 186.387C55.2992 186.264 54.5452 185.959 53.8743 185.473C53.2095 184.993 52.6802 184.356 52.2862 183.562C51.8984 182.774 51.7045 181.857 51.7045 180.81ZM51.6676 193.746C51.6676 192.847 51.8369 192.031 52.1754 191.299C52.5201 190.567 53.0156 189.985 53.6619 189.554C54.3144 189.123 55.1023 188.908 56.0256 188.908C56.8381 188.908 57.4967 189.068 58.0014 189.388C58.5123 189.708 58.9124 190.136 59.2017 190.671C59.491 191.207 59.7064 191.798 59.848 192.444C59.9957 193.096 60.1127 193.752 60.1989 194.411C60.3097 195.272 60.3928 195.971 60.4481 196.506C60.5097 197.048 60.6113 197.442 60.7528 197.688C60.8944 197.941 61.1406 198.067 61.4915 198.067L61.5653 198.067C62.4763 198.067 63.1842 197.817 63.6889 197.319C64.1937 196.826 64.446 196.079 64.446 195.075C64.446 194.035 64.2183 193.219 63.7628 192.629C63.3073 192.038 62.821 191.622 62.304 191.382L63.0426 189.314C63.9044 189.683 64.5753 190.176 65.0554 190.791C65.5417 191.413 65.8802 192.09 66.071 192.822C66.268 193.561 66.3665 194.287 66.3665 195.001C66.3665 195.457 66.3111 195.98 66.2003 196.571C66.0956 197.168 65.8771 197.744 65.5447 198.298C65.2124 198.858 64.7107 199.322 64.0398 199.692C63.3688 200.061 62.4702 200.246 61.3437 200.246L52 200.246L52 198.067L53.9204 198.067L53.9204 197.956C53.6127 197.808 53.2834 197.562 52.9325 197.217C52.5817 196.873 52.2831 196.414 52.0369 195.842C51.7907 195.269 51.6676 194.571 51.6676 193.746ZM53.625 194.078C53.625 194.94 53.7943 195.666 54.1328 196.257C54.4713 196.854 54.9084 197.304 55.4439 197.605C55.9794 197.913 56.5426 198.067 57.1335 198.067L59.1278 198.067C59.017 197.974 58.9155 197.771 58.8231 197.457C58.737 197.15 58.66 196.793 58.5923 196.386C58.5308 195.986 58.4754 195.595 58.4261 195.214C58.383 194.838 58.3461 194.534 58.3153 194.3C58.2415 193.733 58.1214 193.204 57.9553 192.712C57.7952 192.225 57.5521 191.831 57.2258 191.53C56.9058 191.234 56.4687 191.087 55.9148 191.087C55.1577 191.087 54.5852 191.367 54.1974 191.927C53.8158 192.493 53.625 193.21 53.625 194.078ZM63.0057 214.268L62.4517 212.311C62.7779 212.188 63.0949 212.006 63.4027 211.766C63.7166 211.532 63.9751 211.212 64.1783 210.806C64.3814 210.4 64.4829 209.88 64.4829 209.246C64.4829 208.378 64.2829 207.654 63.8828 207.076C63.4889 206.503 62.9872 206.217 62.3778 206.217C61.8362 206.217 61.4084 206.414 61.0945 206.808C60.7805 207.202 60.5189 207.818 60.3097 208.655L59.7926 210.76C59.4848 212.028 59.014 212.973 58.38 213.594C57.7521 214.216 56.9427 214.527 55.9517 214.527C55.1392 214.527 54.4129 214.293 53.7727 213.825C53.1326 213.363 52.6278 212.717 52.2585 211.886C51.8892 211.055 51.7045 210.089 51.7045 208.987C51.7045 207.541 52.0185 206.343 52.6463 205.395C53.2741 204.448 54.1913 203.847 55.3977 203.595L55.9148 205.663C55.1515 205.86 54.5791 206.233 54.1974 206.78C53.8158 207.334 53.625 208.058 53.625 208.95C53.625 209.966 53.8404 210.772 54.2713 211.369C54.7083 211.972 55.2315 212.274 55.8409 212.274C56.3333 212.274 56.7457 212.102 57.0781 211.757C57.4167 211.412 57.669 210.883 57.8352 210.169L58.3892 207.805C58.697 206.506 59.174 205.552 59.8203 204.943C60.4728 204.34 61.2883 204.038 62.267 204.038C63.0672 204.038 63.7751 204.263 64.3906 204.712C65.0062 205.168 65.4893 205.786 65.8402 206.568C66.191 207.356 66.3665 208.248 66.3665 209.246C66.3665 210.649 66.0587 211.751 65.4432 212.551C64.8276 213.357 64.0151 213.93 63.0057 214.268ZM66.1818 223.974L64.3352 223.974L64.3352 216.625L66.1818 216.625L66.1818 223.974ZM69.5795 218.767L69.5795 220.946L56.0625 220.946C55.447 220.946 54.9853 221.035 54.6776 221.214C54.3759 221.398 54.1728 221.632 54.0682 221.915C53.9697 222.205 53.9204 222.509 53.9204 222.83C53.9204 223.07 53.9328 223.267 53.9574 223.42C53.9882 223.574 54.0128 223.697 54.0312 223.79L52.0739 224.233C52.0185 224.085 51.9631 223.879 51.9077 223.614C51.8461 223.35 51.8153 223.014 51.8153 222.608C51.8153 221.992 51.9477 221.389 52.2124 220.798C52.477 220.214 52.8802 219.727 53.4219 219.339C53.9635 218.958 54.6468 218.767 55.4716 218.767L69.5795 218.767ZM51.7045 233.046C51.7045 231.679 52.0061 230.501 52.6094 229.51C53.2187 228.525 54.0682 227.765 55.1577 227.229C56.2533 226.7 57.5275 226.435 58.9801 226.435C60.4328 226.435 61.7131 226.7 62.821 227.229C63.9351 227.765 64.803 228.509 65.4247 229.463C66.0526 230.424 66.3665 231.544 66.3665 232.824C66.3665 233.563 66.2434 234.292 65.9972 235.012C65.7509 235.733 65.3508 236.388 64.7969 236.979C64.249 237.57 63.5227 238.041 62.6179 238.392C61.7131 238.743 60.599 238.918 59.2756 238.918L58.3523 238.918L58.3523 227.986L60.2358 227.986L60.2358 236.702C61.036 236.702 61.75 236.542 62.3778 236.222C63.0057 235.908 63.5012 235.459 63.8643 234.874C64.2275 234.295 64.4091 233.612 64.4091 232.824C64.4091 231.956 64.1936 231.205 63.7628 230.571C63.3381 229.944 62.7841 229.46 62.1008 229.122C61.4176 228.783 60.6851 228.614 59.9034 228.614L58.6477 228.614C57.5767 228.614 56.6688 228.799 55.924 229.168C55.1854 229.543 54.6222 230.064 54.2344 230.728C53.8527 231.393 53.6619 232.166 53.6619 233.046C53.6619 233.618 53.7419 234.135 53.902 234.597C54.0682 235.065 54.3144 235.468 54.6406 235.806C54.973 236.145 55.3854 236.407 55.8778 236.591L55.2869 238.696C54.5729 238.475 53.9451 238.102 53.4034 237.579C52.8679 237.056 52.4493 236.41 52.1477 235.64C51.8523 234.871 51.7045 234.006 51.7045 233.046ZM70.9091 244.412L52 244.412L52 242.233L70.9091 242.233L70.9091 244.412ZM70.9091 250.581L52 250.581L52 248.403L70.9091 248.403L70.9091 250.581ZM51.6676 258.746C51.6676 257.847 51.8369 257.031 52.1754 256.299C52.5201 255.567 53.0156 254.985 53.6619 254.554C54.3144 254.123 55.1023 253.908 56.0256 253.908C56.8381 253.908 57.4967 254.068 58.0014 254.388C58.5123 254.708 58.9124 255.136 59.2017 255.671C59.491 256.207 59.7064 256.798 59.848 257.444C59.9957 258.096 60.1127 258.752 60.1989 259.411C60.3097 260.272 60.3927 260.971 60.4481 261.506C60.5097 262.048 60.6113 262.442 60.7528 262.688C60.8944 262.941 61.1406 263.067 61.4915 263.067L61.5653 263.067C62.4763 263.067 63.1842 262.817 63.6889 262.319C64.1936 261.826 64.446 261.079 64.446 260.075C64.446 259.035 64.2183 258.219 63.7628 257.629C63.3073 257.038 62.821 256.622 62.304 256.382L63.0426 254.314C63.9043 254.683 64.5753 255.176 65.0554 255.791C65.5417 256.413 65.8802 257.09 66.071 257.822C66.268 258.561 66.3665 259.287 66.3665 260.001C66.3665 260.457 66.3111 260.98 66.2003 261.571C66.0956 262.168 65.8771 262.744 65.5447 263.298C65.2124 263.858 64.7107 264.322 64.0398 264.692C63.3688 265.061 62.4702 265.246 61.3437 265.246L52 265.246L52 263.067L53.9204 263.067L53.9204 262.956C53.6127 262.808 53.2834 262.562 52.9325 262.217C52.5817 261.873 52.2831 261.414 52.0369 260.842C51.7907 260.269 51.6676 259.571 51.6676 258.746ZM53.625 259.078C53.625 259.94 53.7943 260.666 54.1328 261.257C54.4713 261.854 54.9084 262.304 55.4439 262.605C55.9794 262.913 56.5426 263.067 57.1335 263.067L59.1278 263.067C59.017 262.974 58.9155 262.771 58.8231 262.457C58.737 262.15 58.66 261.793 58.5923 261.386C58.5308 260.986 58.4754 260.595 58.4261 260.214C58.383 259.838 58.3461 259.534 58.3153 259.3C58.2415 258.733 58.1214 258.204 57.9552 257.712C57.7952 257.225 57.5521 256.831 57.2258 256.53C56.9058 256.234 56.4687 256.087 55.9148 256.087C55.1577 256.087 54.5852 256.367 54.1974 256.927C53.8158 257.493 53.625 258.21 53.625 259.078ZM60.5312 271.402L52 271.402L52 269.223L66.1818 269.223L66.1818 271.328L63.9659 271.328L63.9659 271.513C64.6861 271.845 65.2647 272.35 65.7017 273.027C66.1449 273.704 66.3665 274.578 66.3665 275.649C66.3665 276.609 66.1695 277.449 65.7756 278.17C65.3878 278.89 64.7969 279.45 64.0028 279.85C63.215 280.25 62.2178 280.45 61.0114 280.45L52 280.45L52 278.271L60.8636 278.271C61.9777 278.271 62.8456 277.982 63.4673 277.403C64.0952 276.825 64.4091 276.031 64.4091 275.021C64.4091 274.326 64.2583 273.704 63.9567 273.156C63.6551 272.614 63.215 272.187 62.6364 271.873C62.0578 271.559 61.3561 271.402 60.5312 271.402ZM51.7045 290.193C51.7045 288.913 52.0092 287.79 52.6186 286.823C53.228 285.863 54.0805 285.112 55.1761 284.57C56.2718 284.035 57.5521 283.767 59.017 283.767C60.4943 283.767 61.7838 284.035 62.8856 284.57C63.9874 285.112 64.843 285.863 65.4524 286.823C66.0618 287.79 66.3665 288.913 66.3665 290.193C66.3665 291.473 66.0618 292.594 65.4524 293.554C64.843 294.52 63.9874 295.271 62.8856 295.807C61.7838 296.348 60.4943 296.619 59.017 296.619C57.5521 296.619 56.2718 296.348 55.1761 295.807C54.0805 295.271 53.228 294.52 52.6186 293.554C52.0092 292.594 51.7045 291.473 51.7045 290.193ZM53.6619 290.193C53.6619 291.166 53.9112 291.966 54.4098 292.594C54.9084 293.222 55.5639 293.686 56.3764 293.988C57.1889 294.29 58.0691 294.44 59.017 294.44C59.965 294.44 60.8482 294.29 61.6669 293.988C62.4855 293.686 63.1472 293.222 63.652 292.594C64.1567 291.966 64.4091 291.166 64.4091 290.193C64.4091 289.221 64.1567 288.42 63.652 287.793C63.1472 287.165 62.4856 286.7 61.6669 286.398C60.8482 286.097 59.965 285.946 59.017 285.946C58.0691 285.946 57.1889 286.097 56.3764 286.398C55.5639 286.7 54.9084 287.165 54.4098 287.793C53.9112 288.42 53.6619 289.221 53.6619 290.193ZM63.0057 309.991L62.4517 308.034C62.7779 307.91 63.0949 307.729 63.4027 307.489C63.7166 307.255 63.9751 306.935 64.1783 306.529C64.3814 306.122 64.4829 305.602 64.4829 304.968C64.4829 304.1 64.2829 303.377 63.8828 302.798C63.4889 302.226 62.9872 301.94 62.3778 301.94C61.8362 301.94 61.4084 302.137 61.0945 302.531C60.7805 302.925 60.5189 303.54 60.3096 304.377L59.7926 306.482C59.4848 307.75 59.014 308.695 58.38 309.317C57.7521 309.939 56.9427 310.249 55.9517 310.249C55.1392 310.249 54.4129 310.016 53.7727 309.548C53.1326 309.086 52.6278 308.44 52.2585 307.609C51.8892 306.778 51.7045 305.811 51.7045 304.71C51.7045 303.263 52.0185 302.066 52.6463 301.118C53.2741 300.17 54.1913 299.57 55.3977 299.318L55.9148 301.386C55.1515 301.583 54.5791 301.955 54.1974 302.503C53.8158 303.057 53.625 303.78 53.625 304.673C53.625 305.688 53.8404 306.495 54.2713 307.092C54.7083 307.695 55.2315 307.997 55.8409 307.997C56.3333 307.997 56.7457 307.824 57.0781 307.48C57.4167 307.135 57.669 306.606 57.8352 305.892L58.3892 303.528C58.697 302.229 59.174 301.275 59.8203 300.666C60.4728 300.062 61.2883 299.761 62.267 299.761C63.0672 299.761 63.7751 299.985 64.3906 300.435C65.0061 300.89 65.4893 301.509 65.8402 302.291C66.191 303.079 66.3665 303.971 66.3665 304.968C66.3665 306.372 66.0587 307.473 65.4432 308.274C64.8276 309.08 64.0151 309.652 63.0057 309.991Z" fill="#FFFF00"/>
</g>
<line x1="120.5" y1="-2.18557e-08" x2="120.5" y2="350" stroke="black" stroke-dasharray="12 12"/>
<defs>
<clipPath id="clip0_22_34">
<rect width="120" height="350" fill="white"/>
</clipPath>
</defs>
</svg>
