<svg width="121" height="350" viewBox="0 0 121 350" fill="none" xmlns="http://www.w3.org/2000/svg">
<g clip-path="url(#clip0_22_26)">
<path d="M120 0H0V350H120V0Z" fill="#FF0000"/>
<path d="M36.01 22.04C40.36 26.09 44.71 30.13 49.05 34.18C49.68 34.77 50.31 35.35 50.98 35.98C46.05 40.73 41.13 45.46 36.2 50.21C36.12 50.06 36.06 49.96 36 49.86C36 40.59 36 31.32 36 22.05L36.01 22.04Z" fill="#FFFF00"/>
<path d="M83.2801 18.52C75.6701 25.85 68.1001 33.14 60.5101 40.46C52.7801 33.25 45.0801 26.06 37.3401 18.84C37.8501 18.37 38.4301 18.13 39.0801 18.04C39.3301 18 39.5901 18 39.8401 18C53.6401 18 67.4501 18 81.2501 18C81.9401 18 82.6101 18.1 83.2701 18.52H83.2801Z" fill="#FFFF00"/>
<path d="M67.7299 37.95C72.8999 42.78 78.0299 47.57 83.2599 52.45C82.7499 52.6 82.3299 52.74 81.8999 52.82C81.6399 52.87 81.3599 52.85 81.0899 52.85C67.3799 52.85 53.6599 52.85 39.9499 52.85C39.4399 52.85 38.9299 52.76 38.4199 52.71C38.4199 52.66 38.4199 52.62 38.4099 52.57C43.3799 47.77 48.3599 42.98 53.3499 38.16C53.5199 38.32 53.6699 38.45 53.8199 38.59C55.6099 40.26 57.4099 41.94 59.1999 43.61C60.1299 44.48 60.9199 44.48 61.8299 43.61C63.6599 41.86 65.4799 40.1 67.3099 38.34C67.4299 38.22 67.5599 38.11 67.7299 37.95Z" fill="#FFFF00"/>
<path d="M70 35.72C74.96 30.94 79.88 26.2 84.86 21.4V49.6C79.89 44.96 74.97 40.36 70 35.72Z" fill="#FFFF00"/>
<path d="M59.7045 92.9403C59.7045 91.5739 60.0062 90.3951 60.6094 89.4041C61.2187 88.4193 62.0682 87.6591 63.1577 87.1236C64.2533 86.5942 65.5275 86.3295 66.9801 86.3295C68.4328 86.3295 69.7131 86.5942 70.821 87.1236C71.9351 87.6591 72.803 88.4039 73.4247 89.358C74.0526 90.3182 74.3665 91.4384 74.3665 92.7187C74.3665 93.4574 74.2434 94.1868 73.9972 94.907C73.7509 95.6271 73.3509 96.2827 72.7969 96.8736C72.2491 97.4645 71.5227 97.9354 70.6179 98.2862C69.7131 98.6371 68.599 98.8125 67.2756 98.8125L66.3523 98.8125L66.3523 87.8807L68.2358 87.8807L68.2358 96.5966C69.036 96.5966 69.75 96.4366 70.3778 96.1165C71.0057 95.8026 71.5012 95.3532 71.8643 94.7685C72.2275 94.1899 72.4091 93.5066 72.4091 92.7187C72.4091 91.8509 72.1937 91.0999 71.7628 90.4659C71.3381 89.8381 70.7841 89.3549 70.1009 89.0163C69.4176 88.6778 68.6851 88.5085 67.9034 88.5085L66.6477 88.5085C65.5767 88.5085 64.6688 88.6932 63.924 89.0625C63.1854 89.438 62.6222 89.9581 62.2344 90.6229C61.8527 91.2876 61.6619 92.0601 61.6619 92.9403C61.6619 93.5128 61.742 94.0298 61.902 94.4915C62.0682 94.9593 62.3144 95.3625 62.6406 95.701C62.973 96.0395 63.3854 96.3011 63.8778 96.4858L63.2869 98.5909C62.5729 98.3693 61.9451 97.9969 61.4034 97.4737C60.8679 96.9505 60.4493 96.3042 60.1477 95.5348C59.8523 94.7654 59.7045 93.9006 59.7045 92.9403ZM78.9091 104.306L60 104.306L60 102.127L78.9091 102.127L78.9091 104.306ZM74.1818 119.894L60 114.649L60 112.433L74.1818 107.189L74.1818 109.553L62.8807 113.468L62.8807 113.615L74.1818 117.53L74.1818 119.894ZM74.1818 134.366L60 129.122L60 126.906L74.1818 121.662L74.1818 124.025L62.8807 127.94L62.8807 128.088L74.1818 132.003L74.1818 134.366ZM60 137.242L74.1818 137.242L74.1818 139.421L60 139.421L60 137.242ZM76.5455 138.35C76.5455 137.926 76.6901 137.559 76.9794 137.252C77.2687 136.95 77.6165 136.799 78.0227 136.799C78.429 136.799 78.7767 136.95 79.066 137.252C79.3553 137.559 79.5 137.926 79.5 138.35C79.5 138.775 79.3553 139.138 79.066 139.44C78.7767 139.748 78.429 139.901 78.0227 139.901C77.6165 139.901 77.2687 139.748 76.9794 139.44C76.6901 139.138 76.5455 138.775 76.5455 138.35ZM60 143.412L74.1818 143.412L74.1818 145.517L72.0398 145.517L72.0398 145.665C72.7415 145.924 73.3108 146.391 73.7479 147.069C74.1849 147.746 74.4034 148.509 74.4034 149.358C74.4034 149.518 74.4003 149.718 74.3942 149.958C74.388 150.199 74.3788 150.38 74.3665 150.503L72.1506 150.503C72.169 150.429 72.1967 150.26 72.2337 149.995C72.2767 149.737 72.2983 149.463 72.2983 149.174C72.2983 148.484 72.1536 147.869 71.8643 147.327C71.5812 146.792 71.1873 146.367 70.6825 146.053C70.1839 145.745 69.6146 145.591 68.9744 145.591L60 145.591L60 143.412ZM59.6676 157.259C59.6676 156.361 59.8369 155.545 60.1754 154.813C60.5201 154.08 61.0156 153.499 61.6619 153.068C62.3144 152.637 63.1023 152.421 64.0256 152.421C64.8381 152.421 65.4967 152.581 66.0014 152.901C66.5123 153.222 66.9124 153.649 67.2017 154.185C67.491 154.72 67.7064 155.311 67.848 155.958C67.9957 156.61 68.1127 157.266 68.1989 157.924C68.3097 158.786 68.3928 159.485 68.4482 160.02C68.5097 160.562 68.6113 160.956 68.7528 161.202C68.8944 161.454 69.1406 161.58 69.4915 161.58L69.5653 161.58C70.4763 161.58 71.1842 161.331 71.6889 160.833C72.1937 160.34 72.446 159.592 72.446 158.589C72.446 157.549 72.2183 156.733 71.7628 156.142C71.3073 155.551 70.821 155.136 70.304 154.896L71.0426 152.828C71.9044 153.197 72.5753 153.689 73.0554 154.305C73.5417 154.927 73.8802 155.604 74.071 156.336C74.268 157.075 74.3665 157.801 74.3665 158.515C74.3665 158.971 74.3111 159.494 74.2003 160.085C74.0956 160.682 73.8771 161.257 73.5447 161.811C73.2124 162.371 72.7107 162.836 72.0398 163.205C71.3688 163.575 70.4702 163.759 69.3437 163.759L60 163.759L60 161.58L61.9205 161.58L61.9205 161.47C61.6127 161.322 61.2834 161.076 60.9325 160.731C60.5817 160.386 60.2831 159.928 60.0369 159.355C59.7907 158.783 59.6676 158.084 59.6676 157.259ZM61.625 157.592C61.625 158.454 61.7943 159.18 62.1328 159.771C62.4714 160.368 62.9084 160.817 63.4439 161.119C63.9794 161.427 64.5426 161.58 65.1335 161.58L67.1278 161.58C67.017 161.488 66.9155 161.285 66.8232 160.971C66.737 160.663 66.66 160.306 66.5923 159.9C66.5308 159.5 66.4754 159.109 66.4261 158.727C66.383 158.352 66.3461 158.047 66.3153 157.813C66.2415 157.247 66.1214 156.718 65.9553 156.225C65.7952 155.739 65.5521 155.345 65.2258 155.044C64.9058 154.748 64.4687 154.6 63.9148 154.6C63.1577 154.6 62.5852 154.88 62.1974 155.441C61.8158 156.007 61.625 156.724 61.625 157.592ZM59.8523 169.325C59.8523 168.869 60.0154 168.478 60.3416 168.152C60.6678 167.826 61.0587 167.663 61.5142 167.663C61.9697 167.663 62.3606 167.826 62.6868 168.152C63.013 168.478 63.1761 168.869 63.1761 169.325C63.1761 169.78 63.013 170.171 62.6868 170.497C62.3606 170.823 61.9697 170.987 61.5142 170.987C61.2126 170.987 60.9356 170.91 60.6832 170.756C60.4309 170.608 60.2277 170.408 60.0739 170.156C59.9261 169.909 59.8523 169.632 59.8523 169.325ZM59.7045 180.658C59.7045 179.328 60.0185 178.184 60.6463 177.223C61.2741 176.263 62.139 175.525 63.2408 175.007C64.3426 174.49 65.6013 174.232 67.017 174.232C68.4574 174.232 69.7285 174.497 70.8303 175.026C71.9382 175.561 72.803 176.306 73.4247 177.26C74.0526 178.221 74.3665 179.341 74.3665 180.621C74.3665 181.618 74.1818 182.517 73.8125 183.317C73.4432 184.117 72.9261 184.773 72.2614 185.284C71.5966 185.795 70.821 186.112 69.9347 186.235L69.9347 184.056C70.581 183.89 71.1534 183.52 71.652 182.948C72.1567 182.382 72.4091 181.618 72.4091 180.658C72.4091 179.809 72.1875 179.064 71.7443 178.424C71.3073 177.79 70.6887 177.294 69.8885 176.937C69.0945 176.586 68.1619 176.411 67.0909 176.411C65.9953 176.411 65.0412 176.583 64.2287 176.928C63.4162 177.279 62.7853 177.771 62.3359 178.405C61.8866 179.045 61.6619 179.796 61.6619 180.658C61.6619 181.224 61.7604 181.738 61.9574 182.2C62.1544 182.662 62.4375 183.052 62.8068 183.373C63.1761 183.693 63.6193 183.92 64.1364 184.056L64.1364 186.235C63.2992 186.112 62.5452 185.807 61.8743 185.321C61.2095 184.841 60.6802 184.203 60.2862 183.409C59.8984 182.622 59.7045 181.704 59.7045 180.658ZM59.6676 193.593C59.6676 192.695 59.8369 191.879 60.1754 191.147C60.5201 190.414 61.0156 189.833 61.6619 189.402C62.3144 188.971 63.1023 188.755 64.0256 188.755C64.8381 188.755 65.4967 188.915 66.0014 189.235C66.5123 189.556 66.9124 189.983 67.2017 190.519C67.491 191.054 67.7064 191.645 67.848 192.292C67.9957 192.944 68.1127 193.6 68.1989 194.258C68.3097 195.12 68.3928 195.819 68.4481 196.354C68.5097 196.896 68.6113 197.29 68.7528 197.536C68.8944 197.788 69.1406 197.914 69.4915 197.914L69.5653 197.914C70.4763 197.914 71.1842 197.665 71.6889 197.167C72.1937 196.674 72.446 195.926 72.446 194.923C72.446 193.883 72.2183 193.067 71.7628 192.476C71.3073 191.885 70.821 191.47 70.304 191.23L71.0426 189.162C71.9044 189.531 72.5753 190.023 73.0554 190.639C73.5417 191.261 73.8802 191.938 74.071 192.67C74.268 193.409 74.3665 194.135 74.3665 194.849C74.3665 195.305 74.3111 195.828 74.2003 196.419C74.0956 197.016 73.8771 197.591 73.5447 198.145C73.2124 198.705 72.7107 199.17 72.0398 199.539C71.3688 199.909 70.4702 200.093 69.3437 200.093L60 200.093L60 197.914L61.9204 197.914L61.9204 197.804C61.6127 197.656 61.2834 197.41 60.9325 197.065C60.5817 196.72 60.2831 196.262 60.0369 195.689C59.7907 195.117 59.6676 194.418 59.6676 193.593ZM61.625 193.926C61.625 194.788 61.7943 195.514 62.1328 196.105C62.4713 196.702 62.9084 197.151 63.4439 197.453C63.9794 197.761 64.5426 197.914 65.1335 197.914L67.1278 197.914C67.017 197.822 66.9155 197.619 66.8231 197.305C66.737 196.997 66.66 196.64 66.5923 196.234C66.5308 195.834 66.4754 195.443 66.4261 195.061C66.383 194.686 66.3461 194.381 66.3153 194.147C66.2415 193.581 66.1214 193.052 65.9553 192.559C65.7952 192.073 65.5521 191.679 65.2258 191.377C64.9058 191.082 64.4687 190.934 63.9148 190.934C63.1577 190.934 62.5852 191.214 62.1974 191.775C61.8158 192.341 61.625 193.058 61.625 193.926ZM71.0057 214.116L70.4517 212.159C70.7779 212.035 71.0949 211.854 71.4027 211.614C71.7166 211.38 71.9751 211.06 72.1783 210.654C72.3814 210.247 72.4829 209.727 72.4829 209.093C72.4829 208.225 72.2829 207.502 71.8828 206.923C71.4889 206.351 70.9872 206.065 70.3778 206.065C69.8362 206.065 69.4084 206.262 69.0945 206.656C68.7805 207.05 68.5189 207.665 68.3097 208.502L67.7926 210.607C67.4848 211.875 67.014 212.82 66.38 213.442C65.7521 214.064 64.9427 214.374 63.9517 214.374C63.1392 214.374 62.4129 214.141 61.7727 213.673C61.1326 213.211 60.6278 212.565 60.2585 211.734C59.8892 210.903 59.7045 209.936 59.7045 208.835C59.7045 207.388 60.0185 206.191 60.6463 205.243C61.2741 204.295 62.1913 203.695 63.3977 203.443L63.9148 205.511C63.1515 205.708 62.5791 206.08 62.1974 206.628C61.8158 207.182 61.625 207.905 61.625 208.798C61.625 209.813 61.8404 210.62 62.2713 211.217C62.7083 211.82 63.2315 212.122 63.8409 212.122C64.3333 212.122 64.7457 211.949 65.0781 211.605C65.4167 211.26 65.669 210.731 65.8352 210.017L66.3892 207.653C66.697 206.354 67.174 205.4 67.8203 204.791C68.4728 204.187 69.2883 203.886 70.267 203.886C71.0672 203.886 71.7751 204.11 72.3906 204.56C73.0062 205.015 73.4893 205.634 73.8402 206.416C74.191 207.204 74.3665 208.096 74.3665 209.093C74.3665 210.497 74.0587 211.598 73.4432 212.399C72.8276 213.205 72.0151 213.777 71.0057 214.116ZM74.1818 223.822L72.3352 223.822L72.3352 216.473L74.1818 216.473L74.1818 223.822ZM77.5795 218.615L77.5795 220.794L64.0625 220.794C63.447 220.794 62.9853 220.883 62.6776 221.061C62.3759 221.246 62.1728 221.48 62.0682 221.763C61.9697 222.052 61.9204 222.357 61.9204 222.677C61.9204 222.917 61.9328 223.114 61.9574 223.268C61.9882 223.422 62.0128 223.545 62.0312 223.637L60.0739 224.081C60.0185 223.933 59.9631 223.727 59.9077 223.462C59.8461 223.197 59.8153 222.862 59.8153 222.456C59.8153 221.84 59.9477 221.237 60.2124 220.646C60.477 220.061 60.8802 219.575 61.4219 219.187C61.9635 218.806 62.6468 218.615 63.4716 218.615L77.5795 218.615ZM59.7045 232.893C59.7045 231.527 60.0061 230.348 60.6094 229.357C61.2187 228.372 62.0682 227.612 63.1577 227.077C64.2533 226.547 65.5275 226.283 66.9801 226.283C68.4328 226.283 69.7131 226.547 70.821 227.077C71.9351 227.612 72.803 228.357 73.4247 229.311C74.0526 230.271 74.3665 231.392 74.3665 232.672C74.3665 233.411 74.2434 234.14 73.9972 234.86C73.7509 235.58 73.3508 236.236 72.7969 236.827C72.249 237.418 71.5227 237.888 70.6179 238.239C69.7131 238.59 68.599 238.766 67.2756 238.766L66.3523 238.766L66.3523 227.834L68.2358 227.834L68.2358 236.55C69.036 236.55 69.75 236.39 70.3778 236.07C71.0057 235.756 71.5012 235.306 71.8643 234.722C72.2275 234.143 72.4091 233.46 72.4091 232.672C72.4091 231.804 72.1936 231.053 71.7628 230.419C71.3381 229.791 70.7841 229.308 70.1008 228.969C69.4176 228.631 68.6851 228.462 67.9034 228.462L66.6477 228.462C65.5767 228.462 64.6688 228.646 63.924 229.016C63.1854 229.391 62.6222 229.911 62.2344 230.576C61.8527 231.241 61.6619 232.013 61.6619 232.893C61.6619 233.466 61.7419 233.983 61.902 234.445C62.0682 234.912 62.3144 235.316 62.6406 235.654C62.973 235.993 63.3854 236.254 63.8778 236.439L63.2869 238.544C62.5729 238.322 61.9451 237.95 61.4034 237.427C60.8679 236.904 60.4493 236.257 60.1477 235.488C59.8523 234.719 59.7045 233.854 59.7045 232.893ZM78.9091 244.259L60 244.259L60 242.08L78.9091 242.08L78.9091 244.259ZM78.9091 250.429L60 250.429L60 248.25L78.9091 248.25L78.9091 250.429ZM59.6676 258.593C59.6676 257.695 59.8369 256.879 60.1754 256.147C60.5201 255.414 61.0156 254.833 61.6619 254.402C62.3144 253.971 63.1023 253.755 64.0256 253.755C64.8381 253.755 65.4967 253.915 66.0014 254.235C66.5123 254.556 66.9124 254.983 67.2017 255.519C67.491 256.054 67.7064 256.645 67.848 257.292C67.9957 257.944 68.1127 258.6 68.1989 259.258C68.3097 260.12 68.3927 260.819 68.4481 261.354C68.5097 261.896 68.6113 262.29 68.7528 262.536C68.8944 262.788 69.1406 262.914 69.4915 262.914L69.5653 262.914C70.4763 262.914 71.1842 262.665 71.6889 262.167C72.1936 261.674 72.446 260.926 72.446 259.923C72.446 258.883 72.2183 258.067 71.7628 257.476C71.3073 256.885 70.821 256.47 70.304 256.23L71.0426 254.162C71.9043 254.531 72.5753 255.023 73.0554 255.639C73.5417 256.261 73.8802 256.938 74.071 257.67C74.268 258.409 74.3665 259.135 74.3665 259.849C74.3665 260.305 74.3111 260.828 74.2003 261.419C74.0956 262.016 73.8771 262.591 73.5447 263.145C73.2124 263.705 72.7107 264.17 72.0398 264.539C71.3688 264.909 70.4702 265.093 69.3437 265.093L60 265.093L60 262.914L61.9204 262.914L61.9204 262.804C61.6127 262.656 61.2834 262.41 60.9325 262.065C60.5817 261.72 60.2831 261.262 60.0369 260.689C59.7907 260.117 59.6676 259.418 59.6676 258.593ZM61.625 258.926C61.625 259.788 61.7943 260.514 62.1328 261.105C62.4713 261.702 62.9084 262.151 63.4439 262.453C63.9794 262.761 64.5426 262.914 65.1335 262.914L67.1278 262.914C67.017 262.822 66.9155 262.619 66.8231 262.305C66.737 261.997 66.66 261.64 66.5923 261.234C66.5308 260.834 66.4754 260.443 66.4261 260.061C66.383 259.686 66.3461 259.381 66.3153 259.147C66.2415 258.581 66.1214 258.052 65.9552 257.559C65.7952 257.073 65.5521 256.679 65.2258 256.377C64.9058 256.082 64.4687 255.934 63.9148 255.934C63.1577 255.934 62.5852 256.214 62.1974 256.775C61.8158 257.341 61.625 258.058 61.625 258.926ZM68.5312 271.249L60 271.249L60 269.07L74.1818 269.07L74.1818 271.176L71.9659 271.176L71.9659 271.36C72.6861 271.693 73.2647 272.197 73.7017 272.874C74.1449 273.552 74.3665 274.426 74.3665 275.497C74.3665 276.457 74.1695 277.297 73.7756 278.017C73.3878 278.737 72.7969 279.298 72.0028 279.698C71.215 280.098 70.2178 280.298 69.0114 280.298L60 280.298L60 278.119L68.8636 278.119C69.9777 278.119 70.8456 277.829 71.4673 277.251C72.0952 276.672 72.4091 275.878 72.4091 274.869C72.4091 274.173 72.2583 273.552 71.9567 273.004C71.6551 272.462 71.215 272.034 70.6364 271.72C70.0578 271.406 69.3561 271.249 68.5312 271.249ZM59.7045 290.041C59.7045 288.761 60.0092 287.637 60.6186 286.671C61.228 285.711 62.0805 284.96 63.1761 284.418C64.2718 283.882 65.5521 283.615 67.017 283.615C68.4943 283.615 69.7838 283.882 70.8856 284.418C71.9874 284.96 72.843 285.711 73.4524 286.671C74.0618 287.637 74.3665 288.761 74.3665 290.041C74.3665 291.321 74.0618 292.441 73.4524 293.402C72.843 294.368 71.9874 295.119 70.8856 295.654C69.7838 296.196 68.4943 296.467 67.017 296.467C65.5521 296.467 64.2718 296.196 63.1761 295.654C62.0805 295.119 61.228 294.368 60.6186 293.402C60.0092 292.441 59.7045 291.321 59.7045 290.041ZM61.6619 290.041C61.6619 291.013 61.9112 291.814 62.4098 292.441C62.9084 293.069 63.5639 293.534 64.3764 293.836C65.1889 294.137 66.0691 294.288 67.017 294.288C67.965 294.288 68.8482 294.137 69.6669 293.836C70.4855 293.534 71.1472 293.069 71.652 292.441C72.1567 291.814 72.4091 291.013 72.4091 290.041C72.4091 289.068 72.1567 288.268 71.652 287.64C71.1472 287.012 70.4856 286.548 69.6669 286.246C68.8482 285.944 67.965 285.794 67.017 285.794C66.0691 285.794 65.1889 285.944 64.3764 286.246C63.5639 286.548 62.9084 287.012 62.4098 287.64C61.9112 288.268 61.6619 289.068 61.6619 290.041ZM71.0057 309.839L70.4517 307.881C70.7779 307.758 71.0949 307.577 71.4027 307.336C71.7166 307.103 71.9751 306.782 72.1783 306.376C72.3814 305.97 72.4829 305.45 72.4829 304.816C72.4829 303.948 72.2829 303.225 71.8828 302.646C71.4889 302.074 70.9872 301.787 70.3778 301.787C69.8362 301.787 69.4084 301.984 69.0945 302.378C68.7805 302.772 68.5189 303.388 68.3096 304.225L67.7926 306.33C67.4848 307.598 67.014 308.543 66.38 309.165C65.7521 309.786 64.9427 310.097 63.9517 310.097C63.1392 310.097 62.4129 309.863 61.7727 309.395C61.1326 308.934 60.6278 308.287 60.2585 307.456C59.8892 306.626 59.7045 305.659 59.7045 304.557C59.7045 303.111 60.0185 301.914 60.6463 300.966C61.2741 300.018 62.1913 299.418 63.3977 299.165L63.9148 301.233C63.1515 301.43 62.5791 301.803 62.1974 302.351C61.8158 302.905 61.625 303.628 61.625 304.52C61.625 305.536 61.8404 306.342 62.2713 306.939C62.7083 307.543 63.2315 307.844 63.8409 307.844C64.3333 307.844 64.7457 307.672 65.0781 307.327C65.4167 306.983 65.669 306.453 65.8352 305.739L66.3892 303.376C66.697 302.077 67.174 301.123 67.8203 300.513C68.4728 299.91 69.2883 299.608 70.267 299.608C71.0672 299.608 71.7751 299.833 72.3906 300.282C73.0061 300.738 73.4893 301.357 73.8402 302.138C74.191 302.926 74.3665 303.819 74.3665 304.816C74.3665 306.219 74.0587 307.321 73.4432 308.121C72.8276 308.928 72.0151 309.5 71.0057 309.839ZM37.9318 92.9318C37.9318 91.7727 38.0909 90.7481 38.4091 89.858C38.7235 88.9678 39.1875 88.2197 39.8011 87.6136C40.4148 87.0076 41.1667 86.5492 42.0568 86.2386C42.947 85.928 43.9659 85.7727 45.1136 85.7727C46.2235 85.7727 47.2159 85.9299 48.0909 86.2443C48.9659 86.5625 49.7083 87.0227 50.3182 87.625C50.9318 88.2311 51.3996 88.9659 51.7216 89.8295C52.0436 90.697 52.2045 91.678 52.2045 92.7727C52.2045 93.8371 52.0303 94.7689 51.6818 95.5682C51.3371 96.3712 50.8693 97.0417 50.2784 97.5795C49.6913 98.1212 49.0303 98.5265 48.2955 98.7955C47.5606 99.0682 46.803 99.2045 46.0227 99.2045C45.4735 99.2045 44.9167 99.178 44.3523 99.125C43.7879 99.072 43.2689 98.9602 42.7955 98.7898C42.3258 98.6193 41.947 98.3561 41.6591 98C41.3712 97.6477 41.2273 97.1705 41.2273 96.5682C41.2273 96.303 41.2689 96.0114 41.3523 95.6932C41.4356 95.375 41.5739 95.0928 41.767 94.8466C41.9602 94.6004 42.2197 94.4545 42.5455 94.4091L42.5455 94.3409C42.3258 94.25 42.1174 94.1098 41.9205 93.9205C41.7235 93.7348 41.5663 93.4905 41.4489 93.1875C41.3314 92.8883 41.2803 92.5227 41.2955 92.0909C41.3144 91.5985 41.4242 91.1648 41.625 90.7898C41.8295 90.4148 42.1061 90.1004 42.4545 89.8466C42.8068 89.5966 43.214 89.4072 43.6761 89.2784C44.142 89.1534 44.6439 89.0909 45.1818 89.0909C45.6932 89.0909 46.161 89.1667 46.5852 89.3182C47.0095 89.4697 47.3807 89.6799 47.6989 89.9489C48.017 90.2216 48.2708 90.5398 48.4602 90.9034C48.6534 91.2708 48.7727 91.6667 48.8182 92.0909C48.8561 92.4697 48.839 92.8144 48.767 93.125C48.6989 93.4356 48.5947 93.6913 48.4545 93.892C48.3182 94.0928 48.1667 94.2197 48 94.2727L48 94.3409L48.6364 94.3409L48.6364 95.5455L43.5 95.5455C43.1818 95.5455 42.9015 95.6345 42.6591 95.8125C42.4167 95.9905 42.2955 96.25 42.2955 96.5909C42.2955 96.9773 42.428 97.2727 42.6932 97.4773C42.9583 97.6856 43.3674 97.8276 43.9205 97.9034C44.4735 97.983 45.1818 98.0227 46.0455 98.0227C46.553 98.0227 47.053 97.9527 47.5455 97.8125C48.0417 97.6761 48.5057 97.4678 48.9375 97.1875C49.3693 96.911 49.75 96.5606 50.0795 96.1364C50.4091 95.7121 50.6667 95.214 50.8523 94.642C51.0417 94.0739 51.1364 93.428 51.1364 92.7045C51.1364 91.8144 50.9981 91.017 50.7216 90.3125C50.4489 89.6117 50.0492 89.0152 49.5227 88.5227C49 88.0341 48.3636 87.661 47.6136 87.4034C46.8674 87.1496 46.0189 87.0227 45.0682 87.0227C44.1023 87.0227 43.2443 87.1496 42.4943 87.4034C41.7443 87.661 41.1117 88.0398 40.5966 88.5398C40.0814 89.0436 39.6913 89.6667 39.4261 90.4091C39.1572 91.1515 39.0227 92.0076 39.0227 92.9773C39.0227 93.3939 39.0625 93.8049 39.142 94.2102C39.2216 94.6155 39.3087 94.9735 39.4034 95.2841C39.4981 95.5947 39.5682 95.8182 39.6136 95.9545L38.5682 96.2727C38.4697 96.0379 38.3712 95.7311 38.2727 95.3523C38.1742 94.9773 38.0928 94.5758 38.0284 94.1477C37.964 93.7235 37.9318 93.3182 37.9318 92.9318ZM42.4545 92.2727C42.4545 92.7803 42.5568 93.1913 42.7614 93.5057C42.9659 93.8201 43.2746 94.0492 43.6875 94.1932C44.1004 94.3371 44.6212 94.4091 45.25 94.4091C45.8864 94.4091 46.3826 94.3295 46.7386 94.1705C47.0947 94.0114 47.3447 93.7765 47.4886 93.4659C47.6326 93.1553 47.7045 92.7727 47.7045 92.3182C47.7045 91.8864 47.5909 91.517 47.3636 91.2102C47.1402 90.9072 46.8409 90.6742 46.4659 90.5114C46.0947 90.3523 45.6894 90.2727 45.25 90.2727C44.7652 90.2727 44.3087 90.3371 43.8807 90.4659C43.4564 90.5947 43.1117 90.8049 42.8466 91.0966C42.5852 91.3883 42.4545 91.7803 42.4545 92.2727ZM37.5455 104.734C37.5455 104.087 37.6288 103.53 37.7955 103.064C37.9583 102.598 38.1742 102.21 38.4432 101.899C38.7083 101.592 38.9924 101.348 39.2955 101.166L40.0455 102.234C39.8864 102.356 39.7045 102.509 39.5 102.695C39.2917 102.88 39.1117 103.134 38.9602 103.456C38.8049 103.782 38.7273 104.208 38.7273 104.734C38.7273 105.439 38.8977 106.02 39.2386 106.479C39.5795 106.937 40.1136 107.166 40.8409 107.166L42.6136 107.166L42.6136 107.053C42.4545 106.954 42.2576 106.814 42.0227 106.632C41.7917 106.454 41.5852 106.196 41.4034 105.859C41.2254 105.526 41.1364 105.075 41.1364 104.507C41.1364 103.803 41.303 103.17 41.6364 102.609C41.9697 102.053 42.4545 101.611 43.0909 101.286C43.7273 100.964 44.5 100.803 45.4091 100.803C46.303 100.803 47.0814 100.96 47.7443 101.274C48.411 101.589 48.9261 102.026 49.2898 102.587C49.6572 103.147 49.8409 103.795 49.8409 104.53C49.8409 105.098 49.7462 105.549 49.5568 105.882C49.3712 106.219 49.1591 106.477 48.9205 106.655C48.6856 106.837 48.4924 106.977 48.3409 107.075L48.3409 107.212L49.7273 107.212L49.7273 108.507L40.75 108.507C40 108.507 39.3902 108.337 38.9205 107.996C38.447 107.659 38.1004 107.204 37.8807 106.632C37.6572 106.064 37.5455 105.431 37.5455 104.734ZM42.3409 104.689C42.3409 105.227 42.464 105.681 42.7102 106.053C42.9564 106.424 43.3106 106.706 43.7727 106.899C44.2348 107.092 44.7879 107.189 45.4318 107.189C46.0606 107.189 46.6155 107.094 47.0966 106.905C47.5777 106.715 47.9545 106.435 48.2273 106.064C48.5 105.693 48.6364 105.234 48.6364 104.689C48.6364 104.121 48.4924 103.647 48.2045 103.268C47.9167 102.893 47.5303 102.611 47.0455 102.422C46.5606 102.236 46.0227 102.143 45.4318 102.143C44.8258 102.143 44.2898 102.238 43.8239 102.428C43.3617 102.621 42.9981 102.905 42.733 103.28C42.4716 103.659 42.3409 104.128 42.3409 104.689ZM41 110.962L49.7273 110.962L49.7273 112.257L48.3636 112.257L48.3636 112.371C48.8295 112.553 49.1913 112.846 49.4489 113.251C49.7102 113.657 49.8409 114.143 49.8409 114.712C49.8409 115.287 49.7102 115.767 49.4489 116.149C49.1913 116.536 48.8295 116.837 48.3636 117.053L48.3636 117.143C48.8144 117.367 49.1723 117.702 49.4375 118.149C49.7064 118.596 49.8409 119.132 49.8409 119.757C49.8409 120.537 49.5966 121.176 49.108 121.672C48.6231 122.168 47.8674 122.416 46.8409 122.416L41 122.416L41 121.075L46.8409 121.075C47.4848 121.075 47.9451 120.899 48.2216 120.547C48.4981 120.195 48.6364 119.78 48.6364 119.303C48.6364 118.689 48.4508 118.214 48.0795 117.876C47.7121 117.539 47.2462 117.371 46.6818 117.371L41 117.371L41 116.007L46.9773 116.007C47.4735 116.007 47.8731 115.846 48.1761 115.524C48.483 115.202 48.6364 114.787 48.6364 114.28C48.6364 113.931 48.5436 113.606 48.358 113.303C48.1723 113.003 47.9148 112.761 47.5852 112.575C47.2595 112.393 46.8826 112.303 46.4545 112.303L41 112.303L41 110.962ZM40.7955 127.436C40.7955 126.883 40.8996 126.381 41.108 125.93C41.3201 125.48 41.625 125.122 42.0227 124.857C42.4242 124.591 42.9091 124.459 43.4773 124.459C43.9773 124.459 44.3826 124.557 44.6932 124.754C45.0076 124.951 45.2538 125.214 45.4318 125.544C45.6098 125.874 45.7424 126.237 45.8295 126.635C45.9205 127.036 45.9924 127.44 46.0455 127.845C46.1136 128.375 46.1648 128.805 46.1989 129.135C46.2367 129.468 46.2992 129.711 46.3864 129.862C46.4735 130.018 46.625 130.095 46.8409 130.095L46.8864 130.095C47.447 130.095 47.8826 129.942 48.1932 129.635C48.5038 129.332 48.6591 128.872 48.6591 128.254C48.6591 127.614 48.5189 127.112 48.2386 126.749C47.9583 126.385 47.6591 126.129 47.3409 125.982L47.7955 124.709C48.3258 124.936 48.7386 125.239 49.0341 125.618C49.3333 126 49.5417 126.417 49.6591 126.868C49.7803 127.322 49.8409 127.769 49.8409 128.209C49.8409 128.489 49.8068 128.811 49.7386 129.175C49.6742 129.542 49.5398 129.896 49.3352 130.237C49.1307 130.582 48.822 130.868 48.4091 131.095C47.9962 131.322 47.4432 131.436 46.75 131.436L41 131.436L41 130.095L42.1818 130.095L42.1818 130.027C41.9924 129.936 41.7898 129.785 41.5739 129.572C41.358 129.36 41.1742 129.078 41.0227 128.726C40.8712 128.374 40.7955 127.944 40.7955 127.436ZM42 127.641C42 128.171 42.1042 128.618 42.3125 128.982C42.5208 129.349 42.7898 129.625 43.1193 129.811C43.4489 130 43.7955 130.095 44.1591 130.095L45.3864 130.095C45.3182 130.038 45.2557 129.913 45.1989 129.72C45.1458 129.531 45.0985 129.311 45.0568 129.061C45.0189 128.815 44.9848 128.574 44.9545 128.339C44.928 128.108 44.9053 127.921 44.8864 127.777C44.8409 127.429 44.767 127.103 44.6648 126.8C44.5663 126.5 44.4167 126.258 44.2159 126.072C44.0189 125.891 43.75 125.8 43.4091 125.8C42.9432 125.8 42.5909 125.972 42.3523 126.317C42.1174 126.665 42 127.107 42 127.641ZM41 133.884L49.7273 133.884L49.7273 135.224L41 135.224L41 133.884ZM51.1818 134.565C51.1818 134.304 51.2708 134.079 51.4489 133.889C51.6269 133.704 51.8409 133.611 52.0909 133.611C52.3409 133.611 52.5549 133.704 52.733 133.889C52.911 134.079 53 134.304 53 134.565C53 134.827 52.911 135.05 52.733 135.236C52.5549 135.425 52.3409 135.52 52.0909 135.52C51.8409 135.52 51.6269 135.425 51.4489 135.236C51.2708 135.05 51.1818 134.827 51.1818 134.565ZM52.6364 139.021L41 139.021L41 137.68L52.6364 137.68L52.6364 139.021ZM40.9091 142.455C40.9091 142.174 41.0095 141.934 41.2102 141.733C41.411 141.532 41.6515 141.432 41.9318 141.432C42.2121 141.432 42.4526 141.532 42.6534 141.733C42.8542 141.934 42.9545 142.174 42.9545 142.455C42.9545 142.735 42.8542 142.975 42.6534 143.176C42.4526 143.377 42.2121 143.477 41.9318 143.477C41.7462 143.477 41.5758 143.43 41.4205 143.335C41.2651 143.244 41.1401 143.121 41.0455 142.966C40.9545 142.814 40.9091 142.644 40.9091 142.455ZM40.8182 149.429C40.8182 148.611 41.0114 147.906 41.3977 147.315C41.7841 146.724 42.3163 146.27 42.9943 145.952C43.6723 145.634 44.447 145.474 45.3182 145.474C46.2045 145.474 46.9867 145.637 47.6648 145.963C48.3466 146.293 48.8788 146.751 49.2614 147.338C49.6477 147.929 49.8409 148.618 49.8409 149.406C49.8409 150.02 49.7273 150.573 49.5 151.065C49.2727 151.558 48.9545 151.961 48.5455 152.276C48.1364 152.59 47.6591 152.785 47.1136 152.861L47.1136 151.52C47.5114 151.418 47.8636 151.19 48.1705 150.838C48.4811 150.49 48.6364 150.02 48.6364 149.429C48.6364 148.906 48.5 148.448 48.2273 148.054C47.9583 147.664 47.5776 147.359 47.0852 147.139C46.5966 146.923 46.0227 146.815 45.3636 146.815C44.6894 146.815 44.1023 146.921 43.6023 147.134C43.1023 147.349 42.714 147.652 42.4375 148.043C42.161 148.437 42.0227 148.899 42.0227 149.429C42.0227 149.777 42.0833 150.094 42.2045 150.378C42.3258 150.662 42.5 150.902 42.7273 151.099C42.9545 151.296 43.2273 151.437 43.5455 151.52L43.5455 152.861C43.0303 152.785 42.5663 152.598 42.1534 152.298C41.7443 152.003 41.4186 151.611 41.1761 151.122C40.9375 150.637 40.8182 150.073 40.8182 149.429ZM40.8182 158.366C40.8182 157.579 41.0057 156.887 41.3807 156.293C41.7557 155.702 42.2803 155.24 42.9545 154.906C43.6288 154.577 44.4167 154.412 45.3182 154.412C46.2273 154.412 47.0208 154.577 47.6989 154.906C48.3769 155.24 48.9034 155.702 49.2784 156.293C49.6534 156.887 49.8409 157.579 49.8409 158.366C49.8409 159.154 49.6534 159.844 49.2784 160.435C48.9034 161.029 48.3769 161.491 47.6989 161.821C47.0208 162.154 46.2273 162.321 45.3182 162.321C44.4167 162.321 43.6288 162.154 42.9545 161.821C42.2803 161.491 41.7557 161.029 41.3807 160.435C41.0057 159.844 40.8182 159.154 40.8182 158.366ZM42.0227 158.366C42.0227 158.965 42.1761 159.457 42.483 159.844C42.7898 160.23 43.1932 160.516 43.6932 160.702C44.1932 160.887 44.7348 160.98 45.3182 160.98C45.9015 160.98 46.4451 160.887 46.9489 160.702C47.4526 160.516 47.8598 160.23 48.1705 159.844C48.4811 159.457 48.6364 158.965 48.6364 158.366C48.6364 157.768 48.4811 157.276 48.1705 156.889C47.8598 156.503 47.4526 156.217 46.9489 156.031C46.4451 155.846 45.9015 155.753 45.3182 155.753C44.7348 155.753 44.1932 155.846 43.6932 156.031C43.1932 156.217 42.7898 156.503 42.483 156.889C42.1761 157.276 42.0227 157.768 42.0227 158.366ZM41 164.368L49.7273 164.368L49.7273 165.663L48.3636 165.663L48.3636 165.777C48.8295 165.959 49.1913 166.252 49.4489 166.658C49.7102 167.063 49.8409 167.55 49.8409 168.118C49.8409 168.694 49.7102 169.173 49.4489 169.555C49.1913 169.942 48.8295 170.243 48.3636 170.459L48.3636 170.55C48.8144 170.773 49.1723 171.108 49.4375 171.555C49.7064 172.002 49.8409 172.538 49.8409 173.163C49.8409 173.944 49.5966 174.582 49.108 175.078C48.6231 175.574 47.8674 175.822 46.8409 175.822L41 175.822L41 174.482L46.8409 174.482C47.4848 174.482 47.9451 174.305 48.2216 173.953C48.4981 173.601 48.6364 173.186 48.6364 172.709C48.6364 172.095 48.4508 171.62 48.0795 171.283C47.7121 170.946 47.2462 170.777 46.6818 170.777L41 170.777L41 169.413L46.9773 169.413C47.4735 169.413 47.8731 169.252 48.1761 168.93C48.483 168.608 48.6364 168.194 48.6364 167.686C48.6364 167.338 48.5436 167.012 48.358 166.709C48.1723 166.41 47.9148 166.167 47.5852 165.982C47.2595 165.8 46.8826 165.709 46.4545 165.709L41 165.709L41 164.368Z" fill="#FFFF00"/>
</g>
<line x1="120.5" y1="-2.18557e-08" x2="120.5" y2="350" stroke="black" stroke-dasharray="12 12"/>
<defs>
<clipPath id="clip0_22_26">
<rect width="120" height="350" fill="white"/>
</clipPath>
</defs>
</svg>
