<svg width="939" height="354" viewBox="0 0 939 354" fill="none" xmlns="http://www.w3.org/2000/svg">
<g clip-path="url(#clip0_21_47)">
<path d="M937.96 1H1V352H937.96V1Z" fill="#FF0000" stroke="black" stroke-width="2" stroke-miterlimit="10"/>
<path d="M936.97 4H3.08008V354H936.97V4Z" fill="#FF0000"/>
<path d="M935.52 351.42H929.52" stroke="black" stroke-miterlimit="10"/>
<path d="M917.54 351.42H12.95" stroke="black" stroke-miterlimit="10" stroke-dasharray="12 12"/>
<path d="M6.95996 351.42H0.959961" stroke="black" stroke-miterlimit="10"/>
</g>
<g clip-path="url(#clip1_21_47)">
<path d="M151.415 198.652L175.291 222.035V259.891C175.291 263.583 174.554 267.177 173.08 270.623C171.607 274.069 169.543 277.072 166.989 279.681C164.385 282.29 161.388 284.308 157.949 285.785C154.51 287.262 150.973 288 147.239 288H118.893C110.934 288 104.253 285.293 98.898 279.927L79.1487 260.728C74.8746 258.119 71.4848 254.673 68.8811 250.292C66.2773 245.911 65 241.037 65 235.671V94.2411C65 90.1552 65.7369 86.3647 67.2107 82.8203C68.6846 79.2759 70.797 76.2238 73.4499 73.6148C76.1519 71.0057 79.247 68.9382 82.735 67.3629C86.2722 65.7876 90.055 65 94.1326 65H122.479C127.834 65 132.649 66.2307 136.923 68.7413C141.197 71.2519 144.587 74.6486 147.19 78.8821L166.94 98.0808C172.491 103.643 175.291 110.437 175.291 118.412V155.972H137.807L128.374 146.767V196.88H151.415V198.554V198.652ZM145.864 202.541H117.812C117.812 204.412 117.959 206.923 118.205 210.073C118.5 213.224 118.5 216.325 118.205 219.377C117.91 222.429 117.124 225.137 115.847 227.45C114.57 229.764 112.31 230.945 109.166 230.945C106.365 230.945 103.958 230.306 101.944 228.976C99.8805 227.696 98.898 225.432 98.898 222.281V107.336C98.898 105.12 99.7331 103.151 101.403 101.477C103.074 99.8038 105.039 98.9669 107.25 98.9669C111.131 98.9669 113.882 99.9514 115.454 101.871C117.026 103.84 118.009 106.253 118.352 109.108C118.745 112.012 118.745 115.064 118.352 118.313C117.959 121.562 117.812 124.467 117.812 127.076H145.864V94.2411C145.864 87.743 143.604 82.1804 139.035 77.553C134.515 72.9256 128.964 70.6119 122.528 70.6119H94.1817C87.6969 70.6119 82.1455 72.9256 77.5275 77.553C72.9095 82.1804 70.6005 87.743 70.6005 94.2411V235.671C70.6005 242.169 72.9095 247.683 77.5275 252.212C82.1455 256.741 87.6969 259.054 94.1817 259.054H122.528C128.817 259.054 134.27 256.741 138.937 252.113C143.604 247.486 145.864 242.022 145.864 235.671V202.541Z" fill="#FFFF00"/>
<path d="M195.876 260.728C191.602 258.316 188.163 254.821 185.461 250.292C182.759 245.763 181.432 240.791 181.432 235.376V94.2411C181.432 90.1552 182.169 86.3647 183.643 82.8203C185.117 79.2759 187.229 76.2238 189.882 73.6148C192.584 71.0057 195.679 68.9382 199.167 67.3629C202.704 65.7876 206.487 65 210.565 65H238.617C243.971 65 248.835 66.2799 253.207 68.889C257.58 71.498 261.019 74.9439 263.622 79.1775L283.077 98.13C285.681 100.739 287.744 103.742 289.316 107.188C290.888 110.634 291.674 114.375 291.674 118.461V259.596C291.674 263.485 290.937 267.177 289.463 270.573C287.99 274.019 285.926 277.022 283.372 279.631C280.768 282.24 277.771 284.259 274.332 285.736C270.893 287.212 267.258 287.951 263.377 287.951H235.325C227.563 287.951 220.98 285.243 215.576 279.877L195.826 260.679L195.876 260.728ZM262.247 94.2411C262.247 87.743 259.938 82.1804 255.32 77.553C250.702 72.9256 245.15 70.6119 238.666 70.6119H210.614C204.129 70.6119 198.578 72.9256 193.96 77.553C189.342 82.1804 187.033 87.743 187.033 94.2411V235.376C187.033 241.874 189.342 247.437 193.96 252.064C198.578 256.691 204.129 259.005 210.614 259.005H238.666C245.15 259.005 250.702 256.691 255.32 252.064C259.938 247.437 262.247 241.874 262.247 235.376V94.2411ZM234.195 222.281C234.195 224.694 233.409 226.712 231.788 228.287C230.167 229.862 228.152 230.65 225.745 230.65H223.78C221.324 230.65 219.309 229.862 217.737 228.287C216.116 226.712 215.33 224.694 215.33 222.281V107.336C215.33 104.923 216.116 102.856 217.737 101.231C219.359 99.5576 221.373 98.7207 223.78 98.7207H225.745C228.202 98.7207 230.216 99.5576 231.788 101.231C233.409 102.905 234.195 104.923 234.195 107.336V222.331V222.281Z" fill="#FFFF00"/>
<path d="M387.571 65V66.6737L411.447 90.0567V288H373.963L361.73 276.038V288H324.246L300.37 264.617H298.699V65H336.184L336.724 67.2152L348.416 78.3406V65H387.571ZM353.968 70.5627V132.097L332.303 70.5627H304.251V259.054H332.303V138.496C333.776 142.976 335.643 147.8 337.854 153.117C340.065 158.384 342.276 163.799 344.388 169.264C346.501 174.728 348.466 180.143 350.234 185.41C352.003 190.677 353.231 195.551 353.968 200.031C354.705 204.117 355.098 208.645 355.196 213.667C355.294 218.688 355.196 223.808 355.049 229.124C354.852 234.391 354.656 239.659 354.361 244.877C354.066 250.095 353.968 254.821 353.968 259.054H382.02V70.5627H353.968Z" fill="#FFFF00"/>
<path d="M499.238 65V66.6737L523.114 90.0567V127.617H501.743V288H463.964L440.088 264.617H438.418V123.728L418.669 104.234H416.999V65H499.238ZM422.55 70.5627V98.6715H443.92V259.054H472.267V98.6715H493.637V70.5627H422.501H422.55Z" fill="#FFFF00"/>
<path d="M530.385 264.617H528.714V94.2411C528.714 90.1552 529.451 86.3647 530.925 82.8203C532.399 79.2759 534.511 76.2238 537.164 73.6148C539.866 71.0057 542.961 68.9382 546.449 67.3629C549.987 65.7876 553.769 65 557.847 65H585.899C591.254 65 596.117 66.2799 600.49 68.889C604.862 71.498 608.301 74.9439 610.905 79.1775L630.359 98.13C632.963 100.739 635.026 103.742 636.598 107.188C638.17 110.634 638.956 114.375 638.956 118.461V288H601.177L591.991 279.09V288H554.212L530.336 264.617H530.385ZM609.529 94.2411C609.529 87.743 607.22 82.1804 602.602 77.553C597.984 72.9256 592.433 70.6119 585.948 70.6119H557.896C551.411 70.6119 545.86 72.9256 541.242 77.553C536.624 82.1804 534.315 87.743 534.315 94.2411V259.054H562.661V193.09H581.576V259.054H609.627V94.2411H609.529ZM562.563 164.932V107.286C562.563 105.071 563.398 103.102 565.118 101.428C566.788 99.7545 568.802 98.9177 571.062 98.9177H573.027C575.287 98.9177 577.252 99.7545 578.972 101.428C580.642 103.102 581.526 105.071 581.526 107.286V164.932H562.612H562.563Z" fill="#FFFF00"/>
<path d="M737.703 198.652L761.579 222.035V259.891C761.579 263.583 760.842 267.177 759.368 270.623C757.894 274.069 755.831 277.072 753.276 279.681C750.673 282.29 747.676 284.308 744.237 285.785C740.798 287.262 737.261 288 733.527 288H705.18C697.222 288 690.54 285.293 685.186 279.927L665.436 260.728C661.162 258.119 657.772 254.673 655.169 250.292C652.565 245.911 651.288 241.037 651.288 235.671V94.2411C651.288 90.1552 652.025 86.3647 653.498 82.8203C654.972 79.2759 657.085 76.2238 659.738 73.6148C662.44 71.0057 665.535 68.9382 669.023 67.3629C672.56 65.7876 676.343 65 680.42 65H708.767C714.122 65 718.936 66.2307 723.21 68.7413C727.484 71.2519 730.874 74.6486 733.478 78.8821L753.227 98.0808C758.779 103.643 761.579 110.437 761.579 118.412V155.972H724.095L714.662 146.767V196.88H737.703V198.554V198.652ZM732.151 202.541H704.1C704.1 204.412 704.247 206.923 704.493 210.073C704.787 213.224 704.787 216.325 704.493 219.377C704.198 222.429 703.412 225.137 702.135 227.45C700.857 229.764 698.597 230.945 695.453 230.945C692.653 230.945 690.246 230.306 688.231 228.976C686.168 227.696 685.186 225.432 685.186 222.281V107.336C685.186 105.12 686.021 103.151 687.691 101.477C689.361 99.8038 691.327 98.9669 693.537 98.9669C697.418 98.9669 700.169 99.9514 701.742 101.871C703.314 103.84 704.296 106.253 704.64 109.108C705.033 112.012 705.033 115.064 704.64 118.313C704.247 121.562 704.1 124.467 704.1 127.076H732.151V94.2411C732.151 87.743 729.892 82.1804 725.323 77.553C720.803 72.9256 715.252 70.6119 708.816 70.6119H680.469C673.985 70.6119 668.433 72.9256 663.815 77.553C659.197 82.1804 656.888 87.743 656.888 94.2411V235.671C656.888 242.169 659.197 247.683 663.815 252.212C668.433 256.741 673.985 259.054 680.469 259.054H708.816C715.104 259.054 720.557 256.741 725.224 252.113C729.892 247.486 732.151 242.022 732.151 235.671V202.541Z" fill="#FFFF00"/>
<path d="M849.124 65V66.6737L873 90.0567V127.617H851.63V288H813.851L789.975 264.617H788.304V123.728L768.555 104.234H766.885V65H849.124ZM772.436 70.5627V98.6715H793.807V259.054H822.153V98.6715H843.524V70.5627H772.387H772.436Z" fill="#FFFF00"/>
</g>
<defs>
<clipPath id="clip0_21_47">
<rect width="938.96" height="354" fill="white"/>
</clipPath>
<clipPath id="clip1_21_47">
<rect width="808" height="223" fill="white" transform="translate(65 65)"/>
</clipPath>
</defs>
</svg>
