<svg width="121" height="350" viewBox="0 0 121 350" fill="none" xmlns="http://www.w3.org/2000/svg">
<g clip-path="url(#clip0_22_25)">
<path d="M120 0H0V350H120V0Z" fill="#FF0000"/>
<path d="M38 34.3584C38.11 33.5684 38.2 32.7684 38.33 31.9784C38.83 28.8684 40.02 26.0384 41.8 23.4484C44.49 19.5284 48.1 16.7884 52.56 15.1984C55.59 14.1184 58.72 13.8084 61.92 14.1084C65.91 14.4784 69.49 15.8884 72.7 18.2684C76.6 21.1684 79.23 24.9684 80.62 29.6084C81.51 32.5884 81.7 35.6484 81.27 38.7184C80.42 44.7884 77.41 49.5984 72.58 53.2884C70.83 54.6284 68.86 55.5884 66.77 56.2984C65.81 56.6284 65.16 56.1684 65.16 55.1584C65.16 53.2784 65.16 51.3984 65.16 49.5084C65.16 48.5684 65.1 47.6284 64.7 46.7684C64.46 46.2684 64.13 45.8084 63.84 45.3284C64.63 45.1784 65.5 45.0684 66.33 44.8584C68.54 44.2884 70.53 43.3084 71.87 41.3584C72.85 39.9484 73.3 38.3284 73.5 36.6384C73.65 35.3584 73.7 34.0684 73.45 32.7984C73.18 31.3784 72.56 30.1184 71.61 29.0384C71.44 28.8384 71.41 28.6784 71.49 28.4384C72.12 26.6484 71.87 24.8984 71.21 23.1784C71.17 23.0684 70.99 22.9684 70.86 22.9584C70.1 22.8484 69.39 23.0684 68.73 23.3784C67.63 23.8984 66.57 24.4884 65.49 25.0284C65.3 25.1284 65.03 25.1884 64.83 25.1384C61.44 24.2884 58.06 24.2884 54.67 25.1384C54.47 25.1884 54.19 25.1384 54.01 25.0184C52.63 24.1384 51.17 23.4384 49.59 23.0184C49.56 23.0184 49.54 22.9984 49.51 22.9984C48.5 22.7884 48.32 22.8984 48.02 23.8984C47.57 25.4384 47.49 26.9784 48.02 28.5284C48.06 28.6484 48.02 28.8684 47.94 28.9684C46.12 31.0384 45.7 33.4984 45.95 36.1484C46.1 37.6984 46.46 39.1784 47.16 40.5784C48.14 42.5484 49.8 43.7484 51.8 44.4384C52.99 44.8484 54.27 45.0184 55.5 45.2984C55.57 45.3084 55.63 45.3184 55.64 45.3184C55.32 45.8984 55 46.4584 54.7 47.0484C54.6 47.2484 54.52 47.4784 54.51 47.6984C54.49 48.1584 54.25 48.3684 53.84 48.4784C52.46 48.8484 51.1 49.0884 49.78 48.2884C49.09 47.8684 48.57 47.2684 48.17 46.5784C47.54 45.5084 46.67 44.7284 45.48 44.3784C45.04 44.2484 44.54 44.2884 44.07 44.3084C43.78 44.3284 43.69 44.5584 43.88 44.7984C44.07 45.0384 44.26 45.3184 44.52 45.4584C45.69 46.1384 46.34 47.2084 46.87 48.3884C47.17 49.0584 47.45 49.7284 48.02 50.2484C48.93 51.0684 50.04 51.3784 51.22 51.4284C52.24 51.4784 53.27 51.4284 54.36 51.4284C54.36 52.0484 54.36 52.7584 54.36 53.4784C54.36 54.0284 54.38 54.5784 54.38 55.1384C54.38 56.1584 53.71 56.6484 52.74 56.3184C49.53 55.2284 46.7 53.4984 44.33 51.0684C42.03 48.7084 40.28 45.9984 39.19 42.8684C38.58 41.0984 38.22 39.2684 38.08 37.3984C38.05 37.2384 38.02 37.0684 38 36.9084C38 36.0584 38 35.2084 38 34.3584Z" fill="#FFFF00"/>
<path d="M48.6705 93.8565C48.6705 92.3324 49.0069 91.0176 49.6797 89.9123C50.3594 88.8138 51.3068 87.9659 52.522 87.3686C53.7441 86.7782 55.1652 86.483 56.7855 86.483C58.4058 86.483 59.8338 86.7782 61.0696 87.3686C62.3123 87.9659 63.2803 88.7966 63.9737 89.8608C64.674 90.9318 65.0241 92.1813 65.0241 93.6094C65.0241 94.4332 64.8868 95.2468 64.6122 96.0501C64.3376 96.8533 63.8913 97.5845 63.2734 98.2436C62.6624 98.9027 61.8523 99.4279 60.843 99.8192C59.8338 100.211 58.5911 100.406 57.1151 100.406L56.0852 100.406L56.0852 88.2131L58.1861 88.2131L58.1861 97.9347C59.0786 97.9347 59.875 97.7562 60.5753 97.3991C61.2756 97.049 61.8282 96.5478 62.2333 95.8956C62.6384 95.2502 62.8409 94.4882 62.8409 93.6094C62.8409 92.6413 62.6006 91.8037 62.12 91.0966C61.6463 90.3963 61.0284 89.8574 60.2663 89.4798C59.5043 89.1022 58.6873 88.9134 57.8153 88.9134L56.4148 88.9134C55.2202 88.9134 54.2075 89.1193 53.3768 89.5312C52.5529 89.95 51.9247 90.5302 51.4922 91.2717C51.0665 92.0131 50.8537 92.8748 50.8537 93.8565C50.8537 94.495 50.9429 95.0717 51.1214 95.5866C51.3068 96.1084 51.5814 96.5581 51.9453 96.9357C52.3161 97.3133 52.776 97.6051 53.3253 97.8111L52.6662 100.159C51.8698 99.9119 51.1695 99.4966 50.5653 98.913C49.968 98.3294 49.5012 97.6085 49.1648 96.7504C48.8352 95.8922 48.6705 94.9276 48.6705 93.8565ZM70.0909 106.534L49 106.534L49 104.103L70.0909 104.103L70.0909 106.534ZM64.8182 123.92L49 118.07L49 115.599L64.8182 109.749L64.8182 112.386L52.2131 116.752L52.2131 116.917L64.8182 121.283L64.8182 123.92ZM64.8182 140.062L49 134.213L49 131.741L64.8182 125.892L64.8182 128.528L52.2131 132.895L52.2131 133.06L64.8182 137.426L64.8182 140.062ZM49 143.27L64.8182 143.27L64.8182 145.701L49 145.701L49 143.27ZM67.4545 144.506C67.4545 144.032 67.6159 143.624 67.9386 143.281C68.2612 142.944 68.6491 142.776 69.1023 142.776C69.5554 142.776 69.9433 142.944 70.266 143.281C70.5887 143.624 70.75 144.032 70.75 144.506C70.75 144.98 70.5887 145.385 70.266 145.721C69.9433 146.065 69.5554 146.236 69.1023 146.236C68.6491 146.236 68.2612 146.065 67.9386 145.721C67.6159 145.385 67.4545 144.98 67.4545 144.506ZM49 150.152L64.8182 150.152L64.8182 152.5L62.429 152.5L62.429 152.665C63.2116 152.953 63.8467 153.475 64.3342 154.23C64.8216 154.985 65.0653 155.837 65.0653 156.784C65.0653 156.963 65.0619 157.186 65.055 157.454C65.0482 157.721 65.0379 157.924 65.0241 158.061L62.5526 158.061C62.5732 157.979 62.604 157.79 62.6452 157.495C62.6933 157.206 62.7173 156.901 62.7173 156.578C62.7173 155.809 62.556 155.123 62.2333 154.519C61.9175 153.921 61.4781 153.448 60.9151 153.097C60.359 152.754 59.724 152.583 59.0099 152.583L49 152.583L49 150.152ZM48.6293 165.597C48.6293 164.595 48.8181 163.685 49.1957 162.868C49.5801 162.051 50.1328 161.402 50.8537 160.922C51.5814 160.441 52.4602 160.201 53.4901 160.201C54.3963 160.201 55.1309 160.379 55.6939 160.736C56.2637 161.093 56.71 161.57 57.0327 162.168C57.3553 162.765 57.5956 163.424 57.7535 164.145C57.9183 164.873 58.0488 165.604 58.1449 166.339C58.2685 167.3 58.3611 168.079 58.4229 168.676C58.4916 169.28 58.6049 169.72 58.7628 169.994C58.9207 170.276 59.1953 170.417 59.5866 170.417L59.669 170.417C60.6851 170.417 61.4747 170.139 62.0376 169.582C62.6006 169.033 62.8821 168.199 62.8821 167.08C62.8821 165.92 62.6281 165.01 62.12 164.351C61.612 163.692 61.0696 163.228 60.4929 162.961L61.3168 160.654C62.2779 161.066 63.0263 161.615 63.5618 162.302C64.1042 162.995 64.4818 163.75 64.6946 164.567C64.9143 165.391 65.0241 166.201 65.0241 166.998C65.0241 167.506 64.9624 168.089 64.8388 168.748C64.7221 169.414 64.4783 170.056 64.1076 170.674C63.7369 171.299 63.1773 171.817 62.429 172.229C61.6806 172.641 60.6783 172.847 59.4219 172.847L49 172.847L49 170.417L51.142 170.417L51.142 170.293C50.7988 170.128 50.4315 169.854 50.0401 169.469C49.6488 169.085 49.3158 168.573 49.0412 167.935C48.7666 167.296 48.6293 166.517 48.6293 165.597ZM50.8125 165.968C50.8125 166.929 51.0013 167.739 51.3789 168.398C51.7565 169.064 52.244 169.565 52.8413 169.902C53.4386 170.245 54.0668 170.417 54.7258 170.417L56.9503 170.417C56.8267 170.314 56.7134 170.087 56.6104 169.737C56.5143 169.394 56.4285 168.995 56.353 168.542C56.2843 168.096 56.2225 167.66 56.1676 167.234C56.1196 166.816 56.0784 166.476 56.044 166.215C55.9616 165.583 55.8278 164.993 55.6424 164.444C55.4639 163.901 55.1927 163.462 54.8288 163.125C54.4718 162.796 53.9844 162.631 53.3665 162.631C52.522 162.631 51.8835 162.944 51.451 163.568C51.0253 164.2 50.8125 165 50.8125 165.968Z" fill="#FFFF00"/>
</g>
<line x1="120.5" y1="-2.18557e-08" x2="120.5" y2="350" stroke="black" stroke-dasharray="12 12"/>
<defs>
<clipPath id="clip0_22_25">
<rect width="120" height="350" fill="white"/>
</clipPath>
</defs>
</svg>
