<svg width="121" height="350" viewBox="0 0 121 350" fill="none" xmlns="http://www.w3.org/2000/svg">
<g clip-path="url(#clip0_22_30)">
<path d="M120 0H0V350H120V0Z" fill="#FF0000"/>
<path d="M53.1 51.47C54.57 51.16 55.85 50.6 56.94 49.77C57.9 49.05 58.7 48.16 59.34 47.1C60.35 45.5 60.85 43.7 60.85 41.69C60.85 39.68 60.41 38.08 59.53 36.72C58.65 35.35 57.34 34.36 55.61 33.72C56.75 33.14 57.61 32.49 58.2 31.79C59.25 30.53 59.77 28.86 59.77 26.79C59.77 24.72 59.25 23.05 58.21 21.61C56.48 19.26 53.55 18.06 49.41 18H33V51.95H48.3C50.02 51.95 51.62 51.8 53.1 51.49V51.47ZM39.78 23.88H47.17C48.8 23.88 50.13 24.06 51.18 24.41C52.4 24.92 53 25.96 53 27.54C53 28.97 52.54 29.96 51.62 30.52C50.7 31.08 49.5 31.36 48.03 31.36H39.78V23.87V23.88ZM39.78 46.03V36.98H48.13C49.59 36.99 50.72 37.19 51.52 37.55C52.96 38.21 53.68 39.42 53.68 41.19C53.68 43.28 52.94 44.69 51.45 45.43C50.63 45.83 49.48 46.03 48.01 46.03H39.77H39.78Z" fill="#FFFF00"/>
<path d="M66.6 49.69C69.15 51.75 72.1 52.78 75.44 52.78C79.49 52.78 82.64 51.56 84.88 49.12C86.33 47.58 87.14 46.07 87.32 44.58H80.62C80.23 45.32 79.78 45.89 79.27 46.31C78.34 47.08 77.12 47.46 75.63 47.46C74.22 47.46 73.01 47.15 72.01 46.52C70.36 45.51 69.49 43.74 69.38 41.22H87.66C87.69 39.05 87.62 37.39 87.44 36.24C87.14 34.27 86.47 32.54 85.44 31.05C84.3 29.36 82.85 28.12 81.1 27.34C79.35 26.56 77.38 26.17 75.2 26.17C71.52 26.17 68.53 27.33 66.22 29.65C63.91 31.97 62.76 35.3 62.76 39.65C62.76 44.29 64.04 47.64 66.59 49.7L66.6 49.69ZM71.29 33C72.22 32.05 73.52 31.57 75.21 31.57C76.76 31.57 78.06 32.02 79.1 32.92C80.15 33.82 80.73 35.15 80.85 36.89H69.54C69.78 35.26 70.36 33.96 71.29 33Z" fill="#FFFF00"/>
<path d="M82.1499 19.94H67.3999V23.37H82.1499V19.94Z" fill="#FFFF00"/>
<path d="M49.7045 92.9403C49.7045 91.5739 50.0062 90.3951 50.6094 89.4041C51.2187 88.4193 52.0682 87.6591 53.1577 87.1236C54.2533 86.5942 55.5275 86.3295 56.9801 86.3295C58.4328 86.3295 59.7131 86.5942 60.821 87.1236C61.9351 87.6591 62.803 88.4039 63.4247 89.358C64.0526 90.3182 64.3665 91.4384 64.3665 92.7187C64.3665 93.4574 64.2434 94.1868 63.9972 94.907C63.7509 95.6271 63.3509 96.2827 62.7969 96.8736C62.2491 97.4645 61.5227 97.9354 60.6179 98.2862C59.7131 98.6371 58.599 98.8125 57.2756 98.8125L56.3523 98.8125L56.3523 87.8807L58.2358 87.8807L58.2358 96.5966C59.036 96.5966 59.75 96.4366 60.3778 96.1165C61.0057 95.8026 61.5012 95.3532 61.8643 94.7685C62.2275 94.1899 62.4091 93.5066 62.4091 92.7187C62.4091 91.8509 62.1937 91.0999 61.7628 90.4659C61.3381 89.8381 60.7841 89.3549 60.1009 89.0163C59.4176 88.6778 58.6851 88.5085 57.9034 88.5085L56.6477 88.5085C55.5767 88.5085 54.6688 88.6932 53.924 89.0625C53.1854 89.438 52.6222 89.9581 52.2344 90.6229C51.8527 91.2876 51.6619 92.0601 51.6619 92.9403C51.6619 93.5128 51.742 94.0298 51.902 94.4915C52.0682 94.9593 52.3144 95.3625 52.6406 95.701C52.973 96.0395 53.3854 96.3011 53.8778 96.4858L53.2869 98.5909C52.5729 98.3693 51.9451 97.9969 51.4034 97.4737C50.8679 96.9505 50.4493 96.3042 50.1477 95.5348C49.8523 94.7654 49.7045 93.9006 49.7045 92.9403ZM68.9091 104.306L50 104.306L50 102.127L68.9091 102.127L68.9091 104.306ZM64.1818 119.894L50 114.649L50 112.433L64.1818 107.189L64.1818 109.553L52.8807 113.468L52.8807 113.615L64.1818 117.53L64.1818 119.894ZM64.1818 134.366L50 129.122L50 126.906L64.1818 121.662L64.1818 124.025L52.8807 127.94L52.8807 128.088L64.1818 132.003L64.1818 134.366ZM50 137.242L64.1818 137.242L64.1818 139.421L50 139.421L50 137.242ZM66.5455 138.35C66.5455 137.926 66.6901 137.559 66.9794 137.252C67.2687 136.95 67.6165 136.799 68.0227 136.799C68.429 136.799 68.7767 136.95 69.066 137.252C69.3553 137.559 69.5 137.926 69.5 138.35C69.5 138.775 69.3553 139.138 69.066 139.44C68.7767 139.748 68.429 139.901 68.0227 139.901C67.6165 139.901 67.2687 139.748 66.9794 139.44C66.6901 139.138 66.5455 138.775 66.5455 138.35ZM50 143.412L64.1818 143.412L64.1818 145.517L62.0398 145.517L62.0398 145.665C62.7415 145.924 63.3108 146.391 63.7479 147.069C64.1849 147.746 64.4034 148.509 64.4034 149.358C64.4034 149.518 64.4003 149.718 64.3942 149.958C64.388 150.199 64.3788 150.38 64.3665 150.503L62.1506 150.503C62.169 150.429 62.1967 150.26 62.2337 149.995C62.2767 149.737 62.2983 149.463 62.2983 149.174C62.2983 148.484 62.1536 147.869 61.8643 147.327C61.5812 146.792 61.1873 146.367 60.6825 146.053C60.1839 145.745 59.6146 145.591 58.9744 145.591L50 145.591L50 143.412ZM49.6676 157.259C49.6676 156.361 49.8369 155.545 50.1754 154.813C50.5201 154.08 51.0156 153.499 51.6619 153.068C52.3144 152.637 53.1023 152.421 54.0256 152.421C54.8381 152.421 55.4967 152.581 56.0014 152.901C56.5123 153.222 56.9124 153.649 57.2017 154.185C57.491 154.72 57.7064 155.311 57.848 155.958C57.9957 156.61 58.1127 157.266 58.1989 157.924C58.3097 158.786 58.3928 159.485 58.4482 160.02C58.5097 160.562 58.6113 160.956 58.7528 161.202C58.8944 161.454 59.1406 161.58 59.4915 161.58L59.5653 161.58C60.4763 161.58 61.1842 161.331 61.6889 160.833C62.1937 160.34 62.446 159.592 62.446 158.589C62.446 157.549 62.2183 156.733 61.7628 156.142C61.3073 155.551 60.821 155.136 60.304 154.896L61.0426 152.828C61.9044 153.197 62.5753 153.689 63.0554 154.305C63.5417 154.927 63.8802 155.604 64.071 156.336C64.268 157.075 64.3665 157.801 64.3665 158.515C64.3665 158.971 64.3111 159.494 64.2003 160.085C64.0956 160.682 63.8771 161.257 63.5447 161.811C63.2124 162.371 62.7107 162.836 62.0398 163.205C61.3688 163.575 60.4702 163.759 59.3437 163.759L50 163.759L50 161.58L51.9205 161.58L51.9205 161.47C51.6127 161.322 51.2834 161.076 50.9325 160.731C50.5817 160.386 50.2831 159.928 50.0369 159.355C49.7907 158.783 49.6676 158.084 49.6676 157.259ZM51.625 157.592C51.625 158.454 51.7943 159.18 52.1328 159.771C52.4714 160.368 52.9084 160.817 53.4439 161.119C53.9794 161.427 54.5426 161.58 55.1335 161.58L57.1278 161.58C57.017 161.488 56.9155 161.285 56.8232 160.971C56.737 160.663 56.66 160.306 56.5923 159.9C56.5308 159.5 56.4754 159.109 56.4261 158.727C56.383 158.352 56.3461 158.047 56.3153 157.813C56.2415 157.247 56.1214 156.718 55.9553 156.225C55.7952 155.739 55.5521 155.345 55.2258 155.044C54.9058 154.748 54.4687 154.6 53.9148 154.6C53.1577 154.6 52.5852 154.88 52.1974 155.441C51.8158 156.007 51.625 156.724 51.625 157.592ZM49.7045 180.81C49.7045 179.481 50.0185 178.336 50.6463 177.376C51.2741 176.415 52.139 175.677 53.2408 175.16C54.3426 174.643 55.6013 174.384 57.017 174.384C58.4574 174.384 59.7285 174.649 60.8303 175.178C61.9382 175.714 62.803 176.459 63.4247 177.413C64.0526 178.373 64.3665 179.493 64.3665 180.773C64.3665 181.771 64.1818 182.669 63.8125 183.469C63.4432 184.27 62.9261 184.925 62.2614 185.436C61.5966 185.947 60.821 186.264 59.9347 186.387L59.9347 184.208C60.581 184.042 61.1534 183.673 61.652 183.1C62.1567 182.534 62.4091 181.771 62.4091 180.81C62.4091 179.961 62.1875 179.216 61.7443 178.576C61.3073 177.942 60.6887 177.446 59.8885 177.089C59.0945 176.739 58.1619 176.563 57.0909 176.563C55.9953 176.563 55.0412 176.736 54.2287 177.08C53.4162 177.431 52.7853 177.924 52.3359 178.558C51.8866 179.198 51.6619 179.949 51.6619 180.81C51.6619 181.377 51.7604 181.891 51.9574 182.352C52.1544 182.814 52.4375 183.205 52.8068 183.525C53.1761 183.845 53.6193 184.073 54.1364 184.208L54.1364 186.387C53.2992 186.264 52.5452 185.959 51.8743 185.473C51.2095 184.993 50.6802 184.356 50.2862 183.562C49.8984 182.774 49.7045 181.857 49.7045 180.81ZM49.6676 193.746C49.6676 192.847 49.8369 192.031 50.1754 191.299C50.5201 190.567 51.0156 189.985 51.6619 189.554C52.3144 189.123 53.1023 188.908 54.0256 188.908C54.8381 188.908 55.4967 189.068 56.0014 189.388C56.5123 189.708 56.9124 190.136 57.2017 190.671C57.491 191.207 57.7064 191.798 57.848 192.444C57.9957 193.096 58.1127 193.752 58.1989 194.411C58.3097 195.272 58.3928 195.971 58.4481 196.506C58.5097 197.048 58.6113 197.442 58.7528 197.688C58.8944 197.941 59.1406 198.067 59.4915 198.067L59.5653 198.067C60.4763 198.067 61.1842 197.817 61.6889 197.319C62.1937 196.826 62.446 196.079 62.446 195.075C62.446 194.035 62.2183 193.219 61.7628 192.629C61.3073 192.038 60.821 191.622 60.304 191.382L61.0426 189.314C61.9044 189.683 62.5753 190.176 63.0554 190.791C63.5417 191.413 63.8802 192.09 64.071 192.822C64.268 193.561 64.3665 194.287 64.3665 195.001C64.3665 195.457 64.3111 195.98 64.2003 196.571C64.0956 197.168 63.8771 197.744 63.5447 198.298C63.2124 198.858 62.7107 199.322 62.0398 199.692C61.3688 200.061 60.4702 200.246 59.3437 200.246L50 200.246L50 198.067L51.9204 198.067L51.9204 197.956C51.6127 197.808 51.2834 197.562 50.9325 197.217C50.5817 196.873 50.2831 196.414 50.0369 195.842C49.7907 195.269 49.6676 194.571 49.6676 193.746ZM51.625 194.078C51.625 194.94 51.7943 195.666 52.1328 196.257C52.4713 196.854 52.9084 197.304 53.4439 197.605C53.9794 197.913 54.5426 198.067 55.1335 198.067L57.1278 198.067C57.017 197.974 56.9155 197.771 56.8231 197.457C56.737 197.15 56.66 196.793 56.5923 196.386C56.5308 195.986 56.4754 195.595 56.4261 195.214C56.383 194.838 56.3461 194.534 56.3153 194.3C56.2415 193.733 56.1214 193.204 55.9553 192.712C55.7952 192.225 55.5521 191.831 55.2258 191.53C54.9058 191.234 54.4687 191.087 53.9148 191.087C53.1577 191.087 52.5852 191.367 52.1974 191.927C51.8158 192.493 51.625 193.21 51.625 194.078ZM61.0057 214.268L60.4517 212.311C60.7779 212.188 61.0949 212.006 61.4027 211.766C61.7166 211.532 61.9751 211.212 62.1783 210.806C62.3814 210.4 62.4829 209.88 62.4829 209.246C62.4829 208.378 62.2829 207.654 61.8828 207.076C61.4889 206.503 60.9872 206.217 60.3778 206.217C59.8362 206.217 59.4084 206.414 59.0945 206.808C58.7805 207.202 58.5189 207.818 58.3097 208.655L57.7926 210.76C57.4848 212.028 57.014 212.973 56.38 213.594C55.7521 214.216 54.9427 214.527 53.9517 214.527C53.1392 214.527 52.4129 214.293 51.7727 213.825C51.1326 213.363 50.6278 212.717 50.2585 211.886C49.8892 211.055 49.7045 210.089 49.7045 208.987C49.7045 207.541 50.0185 206.343 50.6463 205.395C51.2741 204.448 52.1913 203.847 53.3977 203.595L53.9148 205.663C53.1515 205.86 52.5791 206.233 52.1974 206.78C51.8158 207.334 51.625 208.058 51.625 208.95C51.625 209.966 51.8404 210.772 52.2713 211.369C52.7083 211.972 53.2315 212.274 53.8409 212.274C54.3333 212.274 54.7457 212.102 55.0781 211.757C55.4167 211.412 55.669 210.883 55.8352 210.169L56.3892 207.805C56.697 206.506 57.174 205.552 57.8203 204.943C58.4728 204.34 59.2883 204.038 60.267 204.038C61.0672 204.038 61.7751 204.263 62.3906 204.712C63.0062 205.168 63.4893 205.786 63.8402 206.568C64.191 207.356 64.3665 208.248 64.3665 209.246C64.3665 210.649 64.0587 211.751 63.4432 212.551C62.8276 213.357 62.0151 213.93 61.0057 214.268ZM64.1818 223.974L62.3352 223.974L62.3352 216.625L64.1818 216.625L64.1818 223.974ZM67.5795 218.767L67.5795 220.946L54.0625 220.946C53.447 220.946 52.9853 221.035 52.6776 221.214C52.3759 221.398 52.1728 221.632 52.0682 221.915C51.9697 222.205 51.9204 222.509 51.9204 222.83C51.9204 223.07 51.9328 223.267 51.9574 223.42C51.9882 223.574 52.0128 223.697 52.0312 223.79L50.0739 224.233C50.0185 224.085 49.9631 223.879 49.9077 223.614C49.8461 223.35 49.8153 223.014 49.8153 222.608C49.8153 221.992 49.9477 221.389 50.2124 220.798C50.477 220.214 50.8802 219.727 51.4219 219.339C51.9635 218.958 52.6468 218.767 53.4716 218.767L67.5795 218.767ZM49.7045 233.046C49.7045 231.679 50.0061 230.501 50.6094 229.51C51.2187 228.525 52.0682 227.765 53.1577 227.229C54.2533 226.7 55.5275 226.435 56.9801 226.435C58.4328 226.435 59.7131 226.7 60.821 227.229C61.9351 227.765 62.803 228.509 63.4247 229.463C64.0526 230.424 64.3665 231.544 64.3665 232.824C64.3665 233.563 64.2434 234.292 63.9972 235.012C63.7509 235.733 63.3508 236.388 62.7969 236.979C62.249 237.57 61.5227 238.041 60.6179 238.392C59.7131 238.743 58.599 238.918 57.2756 238.918L56.3523 238.918L56.3523 227.986L58.2358 227.986L58.2358 236.702C59.036 236.702 59.75 236.542 60.3778 236.222C61.0057 235.908 61.5012 235.459 61.8643 234.874C62.2275 234.295 62.4091 233.612 62.4091 232.824C62.4091 231.956 62.1936 231.205 61.7628 230.571C61.3381 229.944 60.7841 229.46 60.1008 229.122C59.4176 228.783 58.6851 228.614 57.9034 228.614L56.6477 228.614C55.5767 228.614 54.6688 228.799 53.924 229.168C53.1854 229.543 52.6222 230.064 52.2344 230.728C51.8527 231.393 51.6619 232.166 51.6619 233.046C51.6619 233.618 51.7419 234.135 51.902 234.597C52.0682 235.065 52.3144 235.468 52.6406 235.806C52.973 236.145 53.3854 236.407 53.8778 236.591L53.2869 238.696C52.5729 238.475 51.9451 238.102 51.4034 237.579C50.8679 237.056 50.4493 236.41 50.1477 235.64C49.8523 234.871 49.7045 234.006 49.7045 233.046ZM68.9091 244.412L50 244.412L50 242.233L68.9091 242.233L68.9091 244.412ZM68.9091 250.581L50 250.581L50 248.403L68.9091 248.403L68.9091 250.581ZM49.6676 258.746C49.6676 257.847 49.8369 257.031 50.1754 256.299C50.5201 255.567 51.0156 254.985 51.6619 254.554C52.3144 254.123 53.1023 253.908 54.0256 253.908C54.8381 253.908 55.4967 254.068 56.0014 254.388C56.5123 254.708 56.9124 255.136 57.2017 255.671C57.491 256.207 57.7064 256.798 57.848 257.444C57.9957 258.096 58.1127 258.752 58.1989 259.411C58.3097 260.272 58.3927 260.971 58.4481 261.506C58.5097 262.048 58.6113 262.442 58.7528 262.688C58.8944 262.941 59.1406 263.067 59.4915 263.067L59.5653 263.067C60.4763 263.067 61.1842 262.817 61.6889 262.319C62.1936 261.826 62.446 261.079 62.446 260.075C62.446 259.035 62.2183 258.219 61.7628 257.629C61.3073 257.038 60.821 256.622 60.304 256.382L61.0426 254.314C61.9043 254.683 62.5753 255.176 63.0554 255.791C63.5417 256.413 63.8802 257.09 64.071 257.822C64.268 258.561 64.3665 259.287 64.3665 260.001C64.3665 260.457 64.3111 260.98 64.2003 261.571C64.0956 262.168 63.8771 262.744 63.5447 263.298C63.2124 263.858 62.7107 264.322 62.0398 264.692C61.3688 265.061 60.4702 265.246 59.3437 265.246L50 265.246L50 263.067L51.9204 263.067L51.9204 262.956C51.6127 262.808 51.2834 262.562 50.9325 262.217C50.5817 261.873 50.2831 261.414 50.0369 260.842C49.7907 260.269 49.6676 259.571 49.6676 258.746ZM51.625 259.078C51.625 259.94 51.7943 260.666 52.1328 261.257C52.4713 261.854 52.9084 262.304 53.4439 262.605C53.9794 262.913 54.5426 263.067 55.1335 263.067L57.1278 263.067C57.017 262.974 56.9155 262.771 56.8231 262.457C56.737 262.15 56.66 261.793 56.5923 261.386C56.5308 260.986 56.4754 260.595 56.4261 260.214C56.383 259.838 56.3461 259.534 56.3153 259.3C56.2415 258.733 56.1214 258.204 55.9552 257.712C55.7952 257.225 55.5521 256.831 55.2258 256.53C54.9058 256.234 54.4687 256.087 53.9148 256.087C53.1577 256.087 52.5852 256.367 52.1974 256.927C51.8158 257.493 51.625 258.21 51.625 259.078ZM58.5312 271.402L50 271.402L50 269.223L64.1818 269.223L64.1818 271.328L61.9659 271.328L61.9659 271.513C62.6861 271.845 63.2647 272.35 63.7017 273.027C64.1449 273.704 64.3665 274.578 64.3665 275.649C64.3665 276.609 64.1695 277.449 63.7756 278.17C63.3878 278.89 62.7969 279.45 62.0028 279.85C61.215 280.25 60.2178 280.45 59.0114 280.45L50 280.45L50 278.271L58.8636 278.271C59.9777 278.271 60.8456 277.982 61.4673 277.403C62.0952 276.825 62.4091 276.031 62.4091 275.021C62.4091 274.326 62.2583 273.704 61.9567 273.156C61.6551 272.614 61.215 272.187 60.6364 271.873C60.0578 271.559 59.3561 271.402 58.5312 271.402ZM49.7045 290.193C49.7045 288.913 50.0092 287.79 50.6186 286.823C51.228 285.863 52.0805 285.112 53.1761 284.57C54.2718 284.035 55.5521 283.767 57.017 283.767C58.4943 283.767 59.7838 284.035 60.8856 284.57C61.9874 285.112 62.843 285.863 63.4524 286.823C64.0618 287.79 64.3665 288.913 64.3665 290.193C64.3665 291.473 64.0618 292.594 63.4524 293.554C62.843 294.52 61.9874 295.271 60.8856 295.807C59.7838 296.348 58.4943 296.619 57.017 296.619C55.5521 296.619 54.2718 296.348 53.1761 295.807C52.0805 295.271 51.228 294.52 50.6186 293.554C50.0092 292.594 49.7045 291.473 49.7045 290.193ZM51.6619 290.193C51.6619 291.166 51.9112 291.966 52.4098 292.594C52.9084 293.222 53.5639 293.686 54.3764 293.988C55.1889 294.29 56.0691 294.44 57.017 294.44C57.965 294.44 58.8482 294.29 59.6669 293.988C60.4855 293.686 61.1472 293.222 61.652 292.594C62.1567 291.966 62.4091 291.166 62.4091 290.193C62.4091 289.221 62.1567 288.42 61.652 287.793C61.1472 287.165 60.4856 286.7 59.6669 286.398C58.8482 286.097 57.965 285.946 57.017 285.946C56.0691 285.946 55.1889 286.097 54.3764 286.398C53.5639 286.7 52.9084 287.165 52.4098 287.793C51.9112 288.42 51.6619 289.221 51.6619 290.193ZM61.0057 309.991L60.4517 308.034C60.7779 307.91 61.0949 307.729 61.4027 307.489C61.7166 307.255 61.9751 306.935 62.1783 306.529C62.3814 306.122 62.4829 305.602 62.4829 304.968C62.4829 304.1 62.2829 303.377 61.8828 302.798C61.4889 302.226 60.9872 301.94 60.3778 301.94C59.8362 301.94 59.4084 302.137 59.0945 302.531C58.7805 302.925 58.5189 303.54 58.3096 304.377L57.7926 306.482C57.4848 307.75 57.014 308.695 56.38 309.317C55.7521 309.939 54.9427 310.249 53.9517 310.249C53.1392 310.249 52.4129 310.016 51.7727 309.548C51.1326 309.086 50.6278 308.44 50.2585 307.609C49.8892 306.778 49.7045 305.811 49.7045 304.71C49.7045 303.263 50.0185 302.066 50.6463 301.118C51.2741 300.17 52.1913 299.57 53.3977 299.318L53.9148 301.386C53.1515 301.583 52.5791 301.955 52.1974 302.503C51.8158 303.057 51.625 303.78 51.625 304.673C51.625 305.688 51.8404 306.495 52.2713 307.092C52.7083 307.695 53.2315 307.997 53.8409 307.997C54.3333 307.997 54.7457 307.824 55.0781 307.48C55.4167 307.135 55.669 306.606 55.8352 305.892L56.3892 303.528C56.697 302.229 57.174 301.275 57.8203 300.666C58.4728 300.062 59.2883 299.761 60.267 299.761C61.0672 299.761 61.7751 299.985 62.3906 300.435C63.0061 300.89 63.4893 301.509 63.8402 302.291C64.191 303.079 64.3665 303.971 64.3665 304.968C64.3665 306.372 64.0587 307.473 63.4432 308.274C62.8276 309.08 62.0151 309.652 61.0057 309.991Z" fill="#FFFF00"/>
</g>
<line x1="120.5" y1="-2.18557e-08" x2="120.5" y2="350" stroke="black" stroke-dasharray="12 12"/>
<defs>
<clipPath id="clip0_22_30">
<rect width="120" height="350" fill="white"/>
</clipPath>
</defs>
</svg>
