<svg width="132" height="87" viewBox="0 0 132 87" fill="none" xmlns="http://www.w3.org/2000/svg">
<g clip-path="url(#clip0_14_50)">
<path d="M127.738 0.252502H4.26233C2.04706 0.252502 0.251221 2.0579 0.251221 4.28498V82.715C0.251221 84.9421 2.04706 86.7475 4.26233 86.7475H127.738C129.953 86.7475 131.749 84.9421 131.749 82.715V4.28498C131.749 2.0579 129.953 0.252502 127.738 0.252502Z" fill="url(#paint0_linear_14_50)" stroke="black" stroke-width="2" stroke-miterlimit="10"/>
<path d="M6.83423 7.42615V69.3627L14.8765 79.6951H21.4922L13.8819 70.2919H18.7144L26.4302 79.7027H57.316L49.5751 70.2666V60.8028H59.3429C59.3429 60.8028 57.4943 55.5305 54.4025 53.3338C53.6942 52.8313 52.8452 52.5636 51.9762 52.5636H49.3239V7.43372L49.3842 7.42867H6.83423V7.42615Z" fill="black"/>
<path d="M19.9501 25.773C22.4747 25.773 24.5213 23.7155 24.5213 21.1775C24.5213 18.6394 22.4747 16.5819 19.9501 16.5819C17.4255 16.5819 15.3789 18.6394 15.3789 21.1775C15.3789 23.7155 17.4255 25.773 19.9501 25.773Z" fill="#ED92BC"/>
<path d="M20.1937 35.959C20.0505 35.6535 19.8295 35.6206 19.6587 35.6535C19.5331 35.6787 19.4201 35.7469 19.3297 35.8378L14.6002 40.696C14.2989 41.0065 13.8844 41.1808 13.4524 41.1808H6.55542V35.6964H11.9705C12.184 35.6964 12.3799 35.5777 12.4779 35.3883C17.3781 25.8841 23.6824 26.2427 23.6824 26.2427H39.8725C40.3748 26.2427 40.8445 26.4901 41.1309 26.9042L46.8775 35.2267C47.847 36.9236 46.0663 38.1255 46.0663 38.1255C43.7606 39.4713 42.5349 37.7189 42.3892 37.4967C42.3716 37.4715 42.3565 37.4488 42.339 37.4235L38.4484 31.8886C38.3002 31.6791 38.0591 31.5528 37.8029 31.5528H32.644C32.423 31.5528 32.2748 31.7851 32.3702 31.9846V31.9871L37.396 42.3802C38.3906 44.5214 38.4434 52.7227 38.4434 52.7227C38.4886 54.1796 39.3903 54.2175 39.6716 54.1948C39.7444 54.1897 39.8198 54.1847 39.8926 54.1847H51.5391C51.8632 54.1847 52.1796 54.2705 52.4609 54.4321C55.6432 56.2805 56.3138 59.164 56.3138 59.164L36.6124 59.1464C33.837 59.1464 32.9454 54.9674 32.9454 54.9674L31.3203 47.7155C31.2651 47.4706 30.9411 47.4201 30.8155 47.6373L20.264 65.868L19.7542 66.7467C19.7542 66.7467 19.7391 66.7694 19.7316 66.7795C19.071 67.7618 17.9608 68.34 16.7829 68.34H11.6214L12.8496 65.868L23.6623 44.1048C23.6623 44.1048 23.6749 44.0795 23.6824 44.0694C24.1144 43.2765 24.0792 42.312 23.602 41.5469C22.6727 40.0571 20.3971 36.4009 20.1887 35.959H20.1937Z" fill="#ED92BC"/>
<path d="M128.288 15.1401H76.0203V24.9549H128.288V15.1401Z" fill="black"/>
<path d="M75.2367 7.45135H88.7343L69.696 26.7376L62.9471 19.8998L75.2367 7.45135Z" fill="black"/>
<path d="M75.2367 32.3406H88.7343L69.696 13.0569L62.9471 19.8922L75.2367 32.3406Z" fill="black"/>
<path d="M67.6991 63.5449H78.4716V58.914H67.6991V55.3361H79.2427V50.7304H62.7361V72.3901H79.6923V67.7466H67.6991V63.5449Z" fill="black"/>
<path d="M102.249 50.7304H96.1235L91.6854 56.9672L87.2699 50.7304H81.0988L88.7242 61.0224L80.3779 72.3901H86.5114L91.6929 65.1004L96.8268 72.3901H102.968L94.5939 61.0224L102.249 50.7304Z" fill="black"/>
<path d="M108.878 50.7304H103.839V72.3901H108.878V50.7304Z" fill="black"/>
<path d="M110.643 50.7304V55.3361H117.058V72.3901H122.059V55.3361H128.539V50.7304H110.643Z" fill="black"/>
</g>
<defs>
<linearGradient id="paint0_linear_14_50" x1="0.251221" y1="43.5013" x2="131.749" y2="43.5013" gradientUnits="userSpaceOnUse">
<stop stop-color="#00D800"/>
<stop offset="0.41" stop-color="#FFFF00"/>
<stop offset="0.72" stop-color="#FF0000"/>
<stop offset="0.97" stop-color="#FFB0CD"/>
</linearGradient>
<clipPath id="clip0_14_50">
<rect width="132" height="87" fill="white"/>
</clipPath>
</defs>
</svg>
