<svg width="99" height="728" viewBox="0 0 99 728" fill="none" xmlns="http://www.w3.org/2000/svg">
<g clip-path="url(#clip0_2_970)">
<path d="M49.0351 80.7156C71.4306 80.7156 89.5858 62.6468 89.5858 40.3578C89.5858 18.0688 71.4306 0 49.0351 0C26.6395 0 8.48438 18.0688 8.48438 40.3578C8.48438 62.6468 26.6395 80.7156 49.0351 80.7156Z" fill="#333333" stroke="#4D4D4D" stroke-miterlimit="10"/>
<path d="M43.4005 15.9884H54.6729C73.225 15.9884 88.2852 30.977 88.2852 49.4408V608.758C88.2852 610.9 86.536 612.641 84.3836 612.641H13.6865C11.5341 612.641 9.78491 610.9 9.78491 608.758V49.4408C9.78491 30.977 24.8451 15.9884 43.3972 15.9884H43.4005Z" fill="#4D4D4D" stroke="#4D4D4D" stroke-miterlimit="10"/>
<path d="M13.0123 142H85.9877C93.1707 142 99 148.933 99 157.476V728H0V157.476C0 148.933 5.82929 142 13.0123 142Z" fill="#4D4D4D" stroke="#4D4D4D" stroke-miterlimit="10"/>
<path d="M87.4303 57.4529H11.6124C5.75132 57.4529 1 62.1816 1 68.0148V85.4723C1 91.3055 5.75132 96.0342 11.6124 96.0342H87.4303C93.2914 96.0342 98.0427 91.3055 98.0427 85.4723V68.0148C98.0427 62.1816 93.2914 57.4529 87.4303 57.4529Z" fill="#4D4D4D" stroke="#4D4D4D" stroke-miterlimit="10"/>
</g>
<defs>
<clipPath id="clip0_2_970">
<rect width="99" height="728" fill="white"/>
</clipPath>
</defs>
</svg>
