<svg width="511" height="272" viewBox="0 0 511 272" fill="none" xmlns="http://www.w3.org/2000/svg">
<path d="M120.799 103.068C120.799 111.379 118.061 118.412 112.585 124.12C107.108 129.828 100.217 132.979 91.9114 133.573C91.9114 133.436 91.7745 133.116 91.455 132.66C91.1356 132.203 90.9986 131.883 90.9986 131.746C90.8617 135.582 90.7705 140.469 90.7705 146.314L90.7705 150.698C90.7705 162.251 89.9034 171.11 88.2149 177.275C85.7506 186.363 80.7305 194.765 73.2006 202.483C61.5177 214.174 47.2793 220.064 30.4852 220.064C21.723 220.064 14.4212 217.187 8.67107 211.388C2.92091 205.634 8.68838e-05 198.327 8.72671e-05 189.56C8.74427e-05 185.541 0.684731 181.705 2.09945 178.006C0.730367 174.307 8.81015e-05 170.471 8.82771e-05 166.453C8.86544e-05 157.822 2.78392 150.606 8.44281 144.716C14.0561 138.87 21.1754 135.856 29.8007 135.719L29.8007 132.934C29.8007 131.244 29.8919 129.463 30.0288 127.636C29.8919 125.627 29.8007 123.938 29.8007 122.568L29.8007 109.872C29.8007 92.9303 35.5963 78.6369 47.2336 66.992C58.8708 55.3472 73.155 49.5476 90.086 49.5476C98.8482 49.5476 106.15 52.4246 112.037 58.2242C117.878 63.9781 120.799 71.2846 120.799 80.0525C120.799 84.2081 120.115 88.044 118.7 91.606C120.069 95.1679 120.799 99.0039 120.799 103.159L120.799 103.068ZM105.785 79.9612C105.785 75.3489 104.324 71.6043 101.404 68.773C98.483 65.9417 94.6953 64.4804 90.086 64.4804C77.3079 64.4804 66.5834 68.8187 57.8669 77.5409C49.1504 86.2631 44.8149 96.9946 44.8149 109.781L44.8149 122.476C44.8149 123.572 44.7236 126.723 44.5867 131.929L44.5867 136.541C44.5867 140.56 43.2176 143.894 40.525 146.588C37.8325 149.282 34.5011 150.652 30.4852 150.652C25.8759 150.652 22.1337 152.113 19.3042 155.036C16.4748 157.959 15.0144 161.749 15.0144 166.361C15.0144 170.973 16.4292 174.718 19.3042 177.549C22.1337 180.381 25.8759 181.842 30.4852 181.842C43.1264 181.842 53.7595 177.458 62.476 168.69C71.1925 159.922 75.6193 149.191 75.7562 136.587L75.9844 109.781C75.9844 107.452 76.167 105.717 76.5777 104.575C76.9428 103.433 78.175 101.835 80.1374 99.8259C82.1453 97.8166 85.6593 96.4009 90.6336 95.5333C95.6536 94.7113 99.3958 92.976 101.951 90.4643C104.507 87.9527 105.739 84.4364 105.739 79.9612L105.785 79.9612Z" fill="black"/>
<path d="M272.768 240.568C272.768 249.336 269.847 256.643 264.005 262.397C258.164 268.196 250.862 271.073 242.054 271.073C223.572 271.073 208.01 264.863 195.277 252.487C182.59 240.066 176.247 224.631 176.247 206.136L176.247 178.874C176.247 176.545 175.015 175.403 172.551 175.403L172.551 189.742C172.551 198.51 169.63 205.817 163.788 211.571C157.947 217.324 150.645 220.247 141.837 220.247C133.03 220.247 125.773 217.37 120.023 211.571C114.273 205.817 111.352 198.51 111.352 189.742L111.352 33.0622C111.352 24.2943 114.227 16.9421 120.023 11.0968C125.819 5.2516 133.075 2.32897 141.837 2.32897C150.6 2.32897 157.901 5.2516 163.788 11.0968C169.63 16.9421 172.551 24.2487 172.551 33.0622L172.551 70.0516C176.384 56.3518 186.104 49.5019 201.666 49.5019C210.428 49.5019 217.776 52.3789 223.617 58.1785C229.459 63.9324 232.38 71.239 232.38 80.0068C232.38 84.8018 231.923 89.3227 231.01 93.661C231.923 96.7663 232.38 99.9172 232.38 103.114C232.38 110.375 231.284 117.225 229.139 123.664C234.661 133.208 237.445 143.939 237.445 155.767L237.445 183.029C237.445 185.495 238.677 186.728 241.142 186.728C250.223 186.728 257.753 189.605 263.777 195.405C269.801 201.204 272.768 208.557 272.768 217.461C272.768 221.48 272.083 225.316 270.668 229.015C272.037 232.577 272.768 236.413 272.768 240.568ZM257.753 217.461C257.753 212.849 256.293 209.059 253.372 206.136C250.451 203.214 246.664 201.752 242.054 201.752L241.142 201.752C235.893 201.752 231.467 199.926 227.862 196.318C224.256 192.711 222.431 188.281 222.431 183.029L222.431 155.767C222.431 139.144 215.677 125.81 202.123 115.809C212.3 105.945 217.365 94.0263 217.365 80.0068C217.365 75.3946 215.905 71.65 212.984 68.8187C210.063 65.9874 206.276 64.5261 201.666 64.5261C191.353 64.5261 186.196 69.8233 186.196 80.4635C186.196 85.5324 184.37 89.9164 180.674 93.524C176.977 97.1316 172.596 98.8669 167.531 98.7299L157.582 98.5016L157.582 33.1079C157.582 28.4956 156.121 24.7053 153.201 21.7827C150.28 18.8601 146.492 17.3988 141.883 17.3988C137.274 17.3988 133.532 18.8601 130.702 21.7827C127.873 24.7053 126.412 28.4956 126.412 33.1079L126.412 166.681C126.412 171.293 127.827 175.038 130.702 177.869C133.532 180.7 137.274 182.162 141.883 182.162C146.492 182.162 150.28 180.746 153.201 177.869C156.121 175.038 157.582 171.293 157.582 166.681L157.582 137.318L172.596 137.318C177.844 137.318 182.271 139.099 185.876 142.615C189.482 146.177 191.307 150.561 191.307 155.767L191.307 183.029C191.307 197.186 196.099 209.059 205.637 218.603C215.175 228.147 227.04 232.942 241.187 232.942L242.1 232.942C246.709 232.942 250.497 231.527 253.418 228.65C256.339 225.818 257.799 222.074 257.799 217.461L257.753 217.461Z" fill="black"/>
<path d="M293.76 57.3108C293.76 63.1561 292.437 68.5447 289.836 73.4766C290.155 75.4859 290.292 77.6322 290.292 79.9612L290.292 189.742C290.292 198.51 287.326 205.817 281.393 211.571C275.46 217.324 268.204 220.247 259.579 220.247C250.954 220.247 243.515 217.37 237.765 211.571C231.969 205.817 229.094 198.51 229.094 189.742L229.094 79.9612C229.094 77.8149 229.231 75.7142 229.55 73.7049C226.766 68.636 225.397 63.1561 225.397 57.3108C225.397 53.2922 226.082 49.4563 227.497 45.7573C226.127 42.0584 225.397 38.2224 225.397 34.2038C225.397 24.7966 228.729 16.7594 235.437 10.0465C242.146 3.33361 250.178 -1.90505e-06 259.579 -1.49412e-06C268.98 -1.08319e-06 277.012 3.33362 283.72 10.0465C290.429 16.7594 293.76 24.7966 293.76 34.2038C293.76 38.2224 293.076 42.0584 291.661 45.7573C293.03 49.4563 293.76 53.2922 293.76 57.3108ZM278.746 34.2038C278.746 28.9522 276.875 24.477 273.087 20.6867C269.299 16.8964 264.827 15.0241 259.579 15.0241C254.331 15.0241 249.858 16.8964 246.07 20.6867C242.283 24.477 240.412 28.9522 240.412 34.2038C240.412 39.4554 242.283 43.9307 246.07 47.721C249.858 51.5112 254.331 53.3835 259.579 53.3835C264.827 53.3835 269.299 51.5112 273.087 47.721C276.875 43.9307 278.746 39.4554 278.746 34.2038ZM275.278 166.635L275.278 79.9612C275.278 69.6406 270.029 64.4804 259.579 64.4804C254.97 64.4804 251.227 65.896 248.398 68.773C245.568 71.6043 244.108 75.3489 244.108 79.9612L244.108 166.635C244.108 171.247 245.523 174.992 248.398 177.823C251.227 180.655 254.97 182.116 259.579 182.116C264.188 182.116 267.976 180.7 270.897 177.823C273.817 174.992 275.278 171.248 275.278 166.635Z" fill="black"/>
<path d="M343.869 189.697C343.869 198.464 340.902 205.771 334.97 211.525C329.037 217.279 321.781 220.201 313.155 220.201C304.53 220.201 297.092 217.324 291.341 211.525C285.546 205.771 282.671 198.464 282.671 189.697L282.671 33.0621C282.671 24.2943 285.546 16.9877 291.341 11.2338C297.092 5.47987 304.393 2.55725 313.155 2.55725C322.557 2.55725 329.995 5.29721 335.563 10.7771C341.085 16.257 343.869 23.7006 343.869 33.0621L343.869 189.742L343.869 189.697ZM328.854 166.59L328.854 33.0621C328.854 22.7416 323.606 17.5814 313.155 17.5814C308.546 17.5814 304.804 18.997 301.975 21.874C299.145 24.7053 297.685 28.4499 297.685 33.0621L297.685 166.635C297.685 171.247 299.1 174.992 301.975 177.823C304.804 180.655 308.546 182.116 313.155 182.116C317.765 182.116 321.553 180.7 324.473 177.823C327.394 174.992 328.854 171.247 328.854 166.635L328.854 166.59Z" fill="black"/>
<path d="M397.217 189.697C397.217 198.464 394.251 205.771 388.318 211.525C382.386 217.279 375.129 220.201 366.504 220.201C357.879 220.201 350.44 217.324 344.69 211.525C338.894 205.771 336.019 198.464 336.019 189.697L336.019 33.0621C336.019 24.2943 338.894 16.9877 344.69 11.2338C350.44 5.47987 357.742 2.55725 366.504 2.55725C375.905 2.55725 383.344 5.29721 388.912 10.7771C394.434 16.257 397.217 23.7006 397.217 33.0621L397.217 189.742L397.217 189.697ZM382.203 166.59L382.203 33.0621C382.203 22.7416 376.955 17.5814 366.504 17.5814C361.895 17.5814 358.153 18.997 355.323 21.874C352.494 24.7053 351.033 28.4499 351.033 33.0621L351.033 166.635C351.033 171.247 352.448 174.992 355.323 177.823C358.153 180.655 361.895 182.116 366.504 182.116C371.113 182.116 374.901 180.7 377.822 177.823C380.743 174.992 382.203 171.247 382.203 166.635L382.203 166.59Z" fill="black"/>
<path d="M510.167 103.068C510.167 111.379 507.429 118.412 501.953 124.12C496.476 129.828 489.585 132.979 481.279 133.573C481.279 133.436 481.142 133.116 480.823 132.66C480.504 132.203 480.367 131.883 480.367 131.746C480.23 135.582 480.138 140.469 480.138 146.314L480.138 150.698C480.138 162.251 479.271 171.11 477.583 177.275C475.118 186.363 470.098 194.765 462.568 202.483C450.886 214.174 436.601 220.064 419.853 220.064C411.091 220.064 403.789 217.187 398.039 211.388C392.243 205.634 389.368 198.327 389.368 189.56C389.368 185.541 390.053 181.705 391.467 178.006C390.098 174.307 389.368 170.471 389.368 166.453C389.368 157.822 392.197 150.606 397.811 144.716C403.424 138.87 410.543 135.856 419.169 135.719L419.169 132.934C419.169 131.244 419.26 129.463 419.397 127.636C419.26 125.627 419.169 123.938 419.169 122.568L419.169 109.872C419.169 92.9303 424.964 78.6369 436.601 66.992C448.239 55.3472 462.523 49.5476 479.454 49.5476C488.216 49.5476 495.563 52.4246 501.405 58.2242C507.246 63.9781 510.167 71.2846 510.167 80.0525C510.167 84.2081 509.482 88.044 508.068 91.606C509.437 95.1679 510.167 99.0039 510.167 103.159L510.167 103.068ZM495.153 79.9612C495.153 75.3489 493.692 71.6043 490.772 68.773C487.851 65.9417 484.063 64.4804 479.454 64.4804C466.676 64.4804 455.951 68.8187 447.235 77.5409C438.518 86.2631 434.183 96.9946 434.183 109.781L434.183 122.476C434.183 123.572 434.091 126.723 433.955 131.929L433.955 136.541C433.955 140.56 432.585 143.894 429.893 146.588C427.2 149.282 423.869 150.652 419.853 150.652C415.244 150.652 411.502 152.113 408.672 155.036C405.843 157.959 404.382 161.749 404.382 166.361C404.382 170.973 405.797 174.718 408.672 177.549C411.502 180.381 415.244 181.842 419.853 181.842C432.494 181.842 443.127 177.458 451.844 168.69C460.56 159.922 464.987 149.191 465.124 136.587L465.352 109.781C465.352 107.452 465.535 105.717 465.946 104.575C466.311 103.433 467.543 101.835 469.505 99.8259C471.468 97.8166 475.027 96.4009 480.001 95.5333C485.021 94.7113 488.764 92.976 491.319 90.4643C493.875 87.907 495.107 84.4364 495.107 79.9612L495.153 79.9612Z" fill="black"/>
</svg>
