<svg width="77" height="56" viewBox="0 0 77 56" fill="none" xmlns="http://www.w3.org/2000/svg">
<g filter="url(#filter0_d_2_974)">
<path d="M9.19242 0.661804H67.6255C70.1295 0.661804 72.1553 2.6814 72.1553 5.16769V42.3964C72.1553 44.8827 70.1295 46.9023 67.6255 46.9023H9.19242C6.68842 46.9023 4.6626 44.8827 4.6626 42.3964V5.16769C4.6626 2.6814 6.68842 0.661804 9.19242 0.661804Z" fill="#FFBFD7" stroke="black"/>
<mask id="path-2-inside-1_2_974" fill="white">
<path d="M67.6254 0.323587C70.3111 0.323587 72.4927 2.49808 72.4927 5.16768V42.3931C72.4927 45.066 70.3078 47.2373 67.6254 47.2373H9.19239C6.50678 47.2373 4.32513 45.0627 4.32513 42.3931V5.16768C4.32513 2.49485 6.51003 0.323587 9.19239 0.323587H67.6254ZM67.6254 0H9.19239C6.32471 0 4 2.31364 4 5.16768V42.3931C4 45.2472 6.32471 47.5608 9.19239 47.5608H67.6254C70.4931 47.5608 72.8178 45.2472 72.8178 42.3931V5.16768C72.8178 2.31364 70.4931 0 67.6254 0Z"/>
</mask>
<path d="M67.6254 0.323587C70.3111 0.323587 72.4927 2.49808 72.4927 5.16768V42.3931C72.4927 45.066 70.3078 47.2373 67.6254 47.2373H9.19239C6.50678 47.2373 4.32513 45.0627 4.32513 42.3931V5.16768C4.32513 2.49485 6.51003 0.323587 9.19239 0.323587H67.6254ZM67.6254 0H9.19239C6.32471 0 4 2.31364 4 5.16768V42.3931C4 45.2472 6.32471 47.5608 9.19239 47.5608H67.6254C70.4931 47.5608 72.8178 45.2472 72.8178 42.3931V5.16768C72.8178 2.31364 70.4931 0 67.6254 0Z" fill="black"/>
<path d="M67.6254 1.32359C69.7628 1.32359 71.4927 3.05443 71.4927 5.16768H73.4927C73.4927 1.94174 70.8593 -0.676413 67.6254 -0.676413V1.32359ZM71.4927 5.16768V42.3931H73.4927V5.16768H71.4927ZM71.4927 42.3931C71.4927 44.5088 69.7604 46.2373 67.6254 46.2373V48.2373C70.8552 48.2373 73.4927 45.6232 73.4927 42.3931H71.4927ZM67.6254 46.2373H9.19239V48.2373H67.6254V46.2373ZM9.19239 46.2373C7.055 46.2373 5.32513 44.5064 5.32513 42.3931H3.32513C3.32513 45.6191 5.95856 48.2373 9.19239 48.2373V46.2373ZM5.32513 42.3931V5.16768H3.32513V42.3931H5.32513ZM5.32513 5.16768C5.32513 3.05206 7.05738 1.32359 9.19239 1.32359V-0.676413C5.96269 -0.676413 3.32513 1.93764 3.32513 5.16768H5.32513ZM9.19239 1.32359H67.6254V-0.676413H9.19239V1.32359ZM67.6254 -1H9.19239V1H67.6254V-1ZM9.19239 -1C5.77693 -1 3 1.75686 3 5.16768H5C5 2.87042 6.87249 1 9.19239 1V-1ZM3 5.16768V42.3931H5V5.16768H3ZM3 42.3931C3 45.804 5.77692 48.5608 9.19239 48.5608V46.5608C6.87249 46.5608 5 44.6904 5 42.3931H3ZM9.19239 48.5608H67.6254V46.5608H9.19239V48.5608ZM67.6254 48.5608C71.0409 48.5608 73.8178 45.804 73.8178 42.3931H71.8178C71.8178 44.6904 69.9453 46.5608 67.6254 46.5608V48.5608ZM73.8178 42.3931V5.16768H71.8178V42.3931H73.8178ZM73.8178 5.16768C73.8178 1.75686 71.0409 -1 67.6254 -1V1C69.9453 1 71.8178 2.87042 71.8178 5.16768H73.8178Z" fill="black" mask="url(#path-2-inside-1_2_974)"/>
<path d="M22.4353 20.9038C22.5684 21.2391 22.637 21.6114 22.6373 22.0266C22.6366 22.8473 22.3701 23.5126 21.8411 24.0611C21.307 24.6148 20.641 24.9242 19.808 24.9838L19.8284 25.2678L19.24 25.2568C19.2235 25.7013 19.2137 26.2578 19.2137 26.9257V27.4241C19.2137 28.7191 19.1163 29.6729 18.9421 30.3075L18.9417 30.3091C18.6881 31.2454 18.1662 32.1229 17.3564 32.9444C16.119 34.1752 14.6213 34.7905 12.8371 34.7905C11.9565 34.7905 11.2578 34.5082 10.6993 33.9524C10.1437 33.3994 9.85815 32.7018 9.85815 31.8313C9.85815 31.4371 9.92579 31.0604 10.0631 30.6979L10.1302 30.5208L10.0631 30.3437C9.92579 29.9811 9.85815 29.6044 9.85815 29.2102C9.85815 28.3533 10.1327 27.6593 10.6794 27.096L10.6802 27.0951C11.2219 26.5341 11.9055 26.2421 12.7657 26.2251L13.2558 26.2154V25.7252V25.4113C13.2558 25.2367 13.2648 25.0464 13.2803 24.8486L13.2832 24.8111L13.2805 24.7737C13.2645 24.551 13.2558 24.3708 13.2558 24.2335V22.7903C13.2558 20.9972 13.8689 19.5048 15.0983 18.2812C16.3279 17.0574 17.8286 16.4464 19.6324 16.4464C20.5125 16.4464 21.2159 16.7284 21.7853 17.2866C22.3502 17.8434 22.6373 18.5374 22.6373 19.4088C22.6373 19.8253 22.5687 20.1987 22.4353 20.5348L22.362 20.7193L22.4353 20.9038ZM21.9271 18.9023H21.8779C21.7945 18.4692 21.5961 18.0855 21.2706 17.7711C20.8303 17.3456 20.2708 17.1452 19.6324 17.1452C18.0494 17.1452 16.6951 17.6887 15.6057 18.7729C14.5161 19.8572 13.9693 21.2062 13.9693 22.7838V24.227C13.9693 24.341 13.9599 24.6895 13.9434 25.2876L13.9432 25.2876V25.3013V25.8255C13.9432 26.1565 13.8382 26.404 13.6307 26.6083L13.6288 26.6102C13.4188 26.8193 13.1674 26.9241 12.8371 26.9241C12.1962 26.9241 11.6341 27.1297 11.2014 27.5732C10.7737 28.0117 10.5716 28.5697 10.5716 29.207C10.5716 29.8436 10.7735 30.402 11.2066 30.8331C11.6395 31.2639 12.1994 31.4641 12.8371 31.4641C14.4068 31.4641 15.7515 30.9153 16.8395 29.8218C17.9249 28.7309 18.4789 27.3925 18.5002 25.8323L18.5002 25.8298L18.5262 22.7881H18.5262V22.7838C18.5262 22.5383 18.549 22.4039 18.5666 22.3501L18.5668 22.3494C18.5668 22.3495 18.5668 22.3495 18.5668 22.3495C18.567 22.3496 18.5785 22.3228 18.6227 22.265C18.6717 22.2009 18.7457 22.118 18.8511 22.0146L18.8511 22.0146L18.8536 22.0121C18.9694 21.8969 19.2422 21.7573 19.7843 21.6653L19.7848 21.6652C20.4124 21.5581 20.9559 21.3372 21.3442 20.9508C21.7489 20.548 21.9271 20.0104 21.9271 19.4023V18.9023Z" fill="#333333" stroke="black"/>
<path d="M39.7713 36.5007C39.881 36.777 39.9469 37.0784 39.9669 37.4083V37.6202C39.9669 38.4918 39.6796 39.1859 39.1145 39.7428C38.5491 40.3 37.843 40.5826 36.9619 40.5826C34.9785 40.5826 33.3272 39.9266 31.9784 38.6144L31.978 38.614C30.6292 37.3048 29.9578 35.6856 29.9578 33.7178V30.6243C29.9578 30.4076 29.8985 30.1551 29.6946 29.9639C29.4967 29.7783 29.246 29.7295 29.0351 29.7295H28.5351V30.2295V31.8539C28.5351 32.7257 28.2477 33.4192 27.6836 33.9724L27.6828 33.9732C27.1174 34.5304 26.4113 34.813 25.5302 34.813C24.6496 34.813 23.9509 34.5308 23.3924 33.975C22.8368 33.422 22.5513 32.7244 22.5513 31.8539V14.0825C22.5513 13.2086 22.8338 12.5096 23.3946 11.9431C23.9542 11.3808 24.6526 11.0942 25.5302 11.0942C26.4076 11.0942 27.1109 11.3808 27.6815 11.9457C28.2476 12.5094 28.5351 13.2106 28.5351 14.0825V18.2762L29.5164 18.4119C29.711 17.7218 30.0399 17.2453 30.4813 16.9351C30.9274 16.6216 31.5381 16.4431 32.3548 16.4431C33.2349 16.4431 33.9384 16.7252 34.5078 17.2834C35.0726 17.8403 35.3597 18.5342 35.3597 19.4055C35.3597 19.914 35.3107 20.3955 35.212 20.845L35.1843 20.9712L35.2212 21.0949C35.3122 21.4007 35.3597 21.7118 35.3597 22.0266C35.3597 22.7974 35.244 23.5207 35.0178 24.2021L34.9467 24.4162L35.0601 24.6111C35.6437 25.614 35.9417 26.7397 35.9417 28.0032V31.0967C35.9417 31.3135 35.9965 31.5679 36.1932 31.7648C36.39 31.9618 36.645 32.0174 36.8644 32.0174C37.7858 32.0174 38.5162 32.3031 39.1001 32.8622C39.6804 33.4178 39.9734 34.1155 39.9734 35.0057C39.9734 35.3998 39.9057 35.7766 39.7684 36.1391L39.6997 36.3205L39.7713 36.5007ZM28.4732 21.0253L28.4732 21.0253L28.4678 21.0251L27.8249 21.0104V14.0825C27.8249 13.442 27.6174 12.8818 27.1769 12.4435C26.7367 12.0054 26.175 11.7995 25.5335 11.7995C24.8926 11.7995 24.3305 12.0052 23.8978 12.4487C23.4701 12.8871 23.268 13.4452 23.268 14.0825V29.2329C23.268 29.8694 23.4699 30.4279 23.903 30.8589C24.3359 31.2898 24.8958 31.4899 25.5335 31.4899C26.1719 31.4899 26.7314 31.2895 27.1717 30.8641C27.6175 30.4333 27.8249 29.8727 27.8249 29.2329V26.4031H29.0384C29.5118 26.4031 29.8892 26.5566 30.2051 26.8636C30.5167 27.1665 30.6713 27.5335 30.6713 28V31.0935C30.6713 32.8274 31.2622 34.3034 32.4507 35.4862C33.639 36.6689 35.1208 37.2563 36.8579 37.2563H36.9619C37.6003 37.2563 38.1599 37.0559 38.6001 36.6304C39.046 36.1996 39.2534 35.639 39.2534 34.9992C39.2534 34.3587 39.0458 33.7984 38.6054 33.3601C38.1652 32.922 37.6035 32.7162 36.9619 32.7162H36.8579C36.3894 32.7162 36.0125 32.5597 35.6949 32.2464C35.3793 31.9321 35.225 31.5595 35.225 31.0935V28C35.225 26.1408 34.5233 24.6024 33.1458 23.4159C34.1402 22.2849 34.6462 20.9421 34.6462 19.4023C34.6462 18.7625 34.4389 18.2018 33.993 17.771C33.5527 17.3456 32.9932 17.1452 32.3548 17.1452C31.6863 17.1452 31.0936 17.3168 30.6729 17.7477C30.2544 18.1763 30.0893 18.7766 30.0893 19.4541C30.0893 19.8919 29.9348 20.2591 29.6093 20.5783C29.2815 20.8966 28.9119 21.04 28.4732 21.0253Z" fill="#333333" stroke="black"/>
<path d="M42.3599 16.9914C42.3383 17.5141 42.2086 17.9922 41.9735 18.4321L41.8945 18.58L41.9206 18.7457C41.9515 18.941 41.9665 19.1601 41.9665 19.4023V31.8539C41.9665 32.724 41.6771 33.4165 41.1046 33.9699L41.1037 33.9707C40.5254 34.5324 39.8233 34.8131 38.9648 34.8131C38.1022 34.8131 37.3846 34.5299 36.827 33.975C36.2715 33.4221 35.9859 32.7244 35.9859 31.8539V19.4023C35.9859 19.1788 36.0007 18.9718 36.032 18.7705L36.0581 18.6026L35.9765 18.4535C35.7015 17.9514 35.5632 17.4127 35.5632 16.833C35.5632 16.4388 35.6309 16.0621 35.7682 15.6996L35.8352 15.5225L35.7682 15.3454C35.6309 14.9829 35.5632 14.6062 35.5632 14.212C35.5632 13.2812 35.89 12.4928 36.5604 11.8256C37.231 11.1581 38.0212 10.8322 38.9616 10.8322C39.902 10.8322 40.6921 11.1581 41.3628 11.8256C42.0333 12.4929 42.3599 13.2782 42.3599 14.212C42.3599 14.6092 42.2924 14.9827 42.155 15.3454L42.0879 15.5225L42.155 15.6996C42.2923 16.0621 42.3599 16.4388 42.3599 16.833V16.9914ZM40.86 12.3251L40.8587 12.3238C40.3371 11.8047 39.6971 11.5374 38.9648 11.5374C38.2326 11.5374 37.5926 11.8047 37.071 12.3238C36.5493 12.8429 36.2799 13.481 36.2799 14.212C36.2799 14.9429 36.5493 15.581 37.071 16.1002C37.5926 16.6193 38.2326 16.8865 38.9648 16.8865C39.6982 16.8865 40.3339 16.6185 40.8573 16.1015L40.8587 16.1002C41.3803 15.581 41.6497 14.9429 41.6497 14.212C41.6497 13.4799 41.3796 12.8461 40.86 12.3251ZM41.2531 29.2329V19.4023C41.2531 18.7368 41.0824 18.1467 40.6548 17.7274C40.229 17.31 39.633 17.1452 38.9616 17.1452C38.3239 17.1452 37.764 17.3454 37.3311 17.7762C36.898 18.2073 36.6961 18.7657 36.6961 19.4023V29.2329C36.6961 29.8695 36.898 30.4279 37.3311 30.859C37.764 31.2898 38.3239 31.4899 38.9616 31.4899C39.6 31.4899 40.1595 31.2895 40.5998 30.8641C41.0457 30.4333 41.2531 29.8727 41.2531 29.2329Z" fill="#333333" stroke="black"/>
<path d="M48.0823 31.3539H48.079V31.8539C48.079 32.724 47.7896 33.4165 47.2171 33.9698L47.2162 33.9707C46.6379 34.5324 45.9357 34.8131 45.0773 34.8131C44.2147 34.8131 43.4971 34.5299 42.9395 33.975C42.3839 33.4221 42.0984 32.7244 42.0984 31.8539V14.0825C42.0984 13.2081 42.3811 12.514 42.9395 11.9582C43.4981 11.4023 44.1967 11.1201 45.0773 11.1201C46.0445 11.1201 46.7606 11.3975 47.2825 11.9088C47.7994 12.4182 48.0823 13.1212 48.0823 14.0825V31.3539ZM47.3656 29.2329V14.0825C47.3656 13.417 47.1949 12.8269 46.7673 12.4077C46.3415 11.9902 45.7455 11.8254 45.0741 11.8254C44.4364 11.8254 43.8765 12.0256 43.4436 12.4564C43.0105 12.8875 42.8086 13.4459 42.8086 14.0825V29.2329C42.8086 29.8694 43.0105 30.4279 43.4436 30.8589C43.8765 31.2898 44.4364 31.4899 45.0741 31.4899C45.7125 31.4899 46.272 31.2895 46.7123 30.8641C47.1582 30.4333 47.3656 29.8727 47.3656 29.2329Z" fill="#333333" stroke="black"/>
<path d="M54.1655 31.3539H54.1623V31.8539C54.1623 32.724 53.8729 33.4165 53.3004 33.9698L53.2995 33.9707C52.7212 34.5324 52.019 34.8131 51.1606 34.8131C50.298 34.8131 49.5803 34.5299 49.0228 33.975C48.4672 33.422 48.1816 32.7244 48.1816 31.8539V14.0825C48.1816 13.2081 48.4644 12.514 49.0228 11.9582C49.5813 11.4023 50.28 11.1201 51.1606 11.1201C52.1277 11.1201 52.8438 11.3975 53.3658 11.9088C53.8827 12.4182 54.1655 13.1212 54.1655 14.0825V31.3539ZM53.4488 29.2329V14.0825C53.4488 13.417 53.2782 12.8269 52.8506 12.4077C52.4248 11.9902 51.8287 11.8254 51.1573 11.8254C50.5197 11.8254 49.9597 12.0256 49.5268 12.4564C49.0937 12.8875 48.8918 13.4459 48.8918 14.0825V29.2329C48.8918 29.8694 49.0937 30.4279 49.5268 30.8589C49.9597 31.2898 50.5197 31.4899 51.1573 31.4899C51.7957 31.4899 52.3553 31.2895 52.7955 30.8641C53.2414 30.4333 53.4488 29.8727 53.4488 29.2329Z" fill="#333333" stroke="black"/>
<path d="M66.842 20.9038C66.9751 21.2391 67.0437 21.6114 67.0441 22.0266C67.0434 22.8473 66.7769 23.5126 66.2478 24.0611C65.7137 24.6148 65.0478 24.9242 64.2148 24.9838L64.2351 25.2678L63.6468 25.2568C63.6302 25.7013 63.6204 26.2578 63.6204 26.9257V27.4241C63.6204 28.7191 63.523 29.6729 63.3489 30.3075L63.3484 30.3091C63.0948 31.2454 62.5729 32.1229 61.7632 32.9444C60.5257 34.1752 59.0281 34.7905 57.2438 34.7905C56.3632 34.7905 55.6646 34.5082 55.106 33.9524C54.5505 33.3994 54.2649 32.7018 54.2649 31.8313C54.2649 31.4371 54.3325 31.0604 54.4698 30.6979L54.5369 30.5208L54.4698 30.3437C54.3325 29.9811 54.2649 29.6044 54.2649 29.2102C54.2649 28.3533 54.5394 27.6593 55.0861 27.096L55.087 27.0951C55.6287 26.5341 56.3123 26.2421 57.1724 26.2251L57.6625 26.2154V25.7252V25.4113C57.6625 25.2367 57.6715 25.0464 57.687 24.8486L57.69 24.8111L57.6873 24.7737C57.6713 24.551 57.6625 24.3708 57.6625 24.2335V22.7903C57.6625 20.9972 58.2756 19.5048 59.5051 18.2812C60.7346 17.0574 62.2353 16.4464 64.0391 16.4464C64.9192 16.4464 65.6227 16.7284 66.192 17.2866C66.7569 17.8434 67.0441 18.5374 67.0441 19.4088C67.0441 19.8253 66.9755 20.1987 66.842 20.5348L66.7687 20.7193L66.842 20.9038ZM66.3339 18.9023H66.2846C66.2012 18.4692 66.0028 18.0855 65.6773 17.7711C65.2371 17.3456 64.6775 17.1452 64.0391 17.1452C62.4561 17.1452 61.1018 17.6887 60.0124 18.7729C58.9229 19.8572 58.376 21.2062 58.376 22.7838V24.227C58.376 24.341 58.3666 24.6895 58.3502 25.2876L58.35 25.2876V25.3013V25.8255C58.35 26.1565 58.2449 26.404 58.0375 26.6083L58.0356 26.6102C57.8255 26.8193 57.5742 26.9241 57.2438 26.9241C56.603 26.9241 56.0409 27.1297 55.6081 27.5732C55.1805 28.0117 54.9783 28.5697 54.9783 29.207C54.9783 29.8436 55.1802 30.402 55.6133 30.8331C56.0462 31.2639 56.6062 31.4641 57.2438 31.4641C58.8136 31.4641 60.1582 30.9153 61.2463 29.8218C62.3316 28.7309 62.8857 27.3925 62.9069 25.8323L62.9069 25.8298L62.9329 22.7881L62.933 22.7881V22.7838C62.933 22.5383 62.9557 22.4039 62.9733 22.3501L62.9735 22.3494C62.9735 22.3495 62.9735 22.3495 62.9735 22.3495C62.9738 22.3496 62.9853 22.3228 63.0295 22.265C63.0784 22.2009 63.1524 22.118 63.2578 22.0146L63.2579 22.0146L63.2604 22.0121C63.3761 21.8969 63.6489 21.7573 64.191 21.6653L64.1915 21.6652C64.8191 21.5581 65.3626 21.3372 65.7509 20.9508C66.1556 20.548 66.3339 20.0104 66.3339 19.4023V18.9023Z" fill="#333333" stroke="black"/>
</g>
<defs>
<filter id="filter0_d_2_974" x="0" y="0" width="76.8179" height="55.5609" filterUnits="userSpaceOnUse" color-interpolation-filters="sRGB">
<feFlood flood-opacity="0" result="BackgroundImageFix"/>
<feColorMatrix in="SourceAlpha" type="matrix" values="0 0 0 0 0 0 0 0 0 0 0 0 0 0 0 0 0 0 127 0" result="hardAlpha"/>
<feOffset dy="4"/>
<feGaussianBlur stdDeviation="2"/>
<feComposite in2="hardAlpha" operator="out"/>
<feColorMatrix type="matrix" values="0 0 0 0 0 0 0 0 0 0 0 0 0 0 0 0 0 0 0.25 0"/>
<feBlend mode="normal" in2="BackgroundImageFix" result="effect1_dropShadow_2_974"/>
<feBlend mode="normal" in="SourceGraphic" in2="effect1_dropShadow_2_974" result="shape"/>
</filter>
</defs>
</svg>
