<svg width="90" height="43" viewBox="0 0 90 43" fill="none" xmlns="http://www.w3.org/2000/svg">
<g clip-path="url(#clip0_2_1283)">
<path d="M66.6888 0.204712H23.3114C22.1423 0.204712 21.0148 0.638807 20.1536 1.4169L1.71423 18.1255C-0.291135 19.9438 -0.291135 23.0602 1.71423 24.8744L20.1577 41.583C21.019 42.3611 22.1465 42.7952 23.3156 42.7952H66.693C67.8621 42.7952 68.9896 42.3611 69.8508 41.583L88.2943 24.8744C90.2996 23.0561 90.2996 19.9397 88.2943 18.1255L69.8466 1.4169C68.9854 0.638807 67.8579 0.204712 66.6888 0.204712Z" fill="#00D800" stroke="black" stroke-miterlimit="10"/>
<path d="M9.08659 28.7608C8.89937 28.7116 8.71214 28.4618 8.59565 28.1424C8.51244 27.8762 8.44171 27.5936 8.44171 27.3766C8.44171 26.5576 8.50828 25.759 8.64558 25.0915C8.72879 24.5591 8.93265 23.8547 9.22389 22.921C9.42775 22.2535 10.1558 21.5368 10.8174 21.1846C10.497 21.0658 10.2058 20.8693 9.95197 20.6195L8.57901 19.2844C8.18792 19.0182 7.90085 18.666 7.71362 18.2156C9.47768 17.6832 11.0004 16.8641 12.2402 15.914C12.6313 15.6315 12.9184 15.3816 13.1056 15.2301C13.1722 15.181 13.2263 15.1482 13.2429 15.1318C13.9045 14.6158 14.3621 14.366 14.6325 14.366C15.2441 14.366 15.6685 14.5503 15.8849 14.8984C15.9015 14.9476 15.9181 14.9639 15.9348 14.9803L17.4076 16.43C17.4742 16.4956 17.5282 16.5488 17.5449 16.5979C17.6115 16.7495 17.6822 16.9133 17.7321 17.1672C18.818 17.1999 19.4254 17.3023 19.5627 17.4825C19.8165 16.6471 19.9705 15.8976 20.0204 15.2301C20.037 14.8124 20.8358 14.5298 22.446 14.3783C23.1907 14.3128 24.0228 14.28 24.9215 14.28C26.024 14.28 26.9393 14.7469 27.6341 15.697L28.8531 16.8969C29.3108 17.3474 29.6852 17.9494 29.989 18.7316C29.7185 18.9977 29.5313 19.1329 29.394 19.1984C28.5453 18.8298 28.0543 18.6496 27.9004 18.6496C27.3221 18.6496 26.6647 19.1001 25.9158 20.0175C25.1711 20.9512 24.7966 21.7211 24.7966 22.3026V22.3681L25.7286 23.2691C25.8285 23.3674 25.8825 23.437 25.8992 23.4697C26.7146 24.8212 27.1182 25.5542 27.1723 25.6238C27.9669 27.008 28.3913 27.9581 28.3913 28.4782C28.3913 29.027 28.0543 29.2973 27.3928 29.2973C26.8686 29.2973 25.3583 28.8632 22.9702 28.0441L21.5972 27.5936C21.1895 27.4585 20.6986 27.3111 20.2908 27.1759C19.933 27.0572 19.6459 26.9097 19.4088 26.6927L19.0884 26.3937C18.6807 26.9957 17.8361 27.6469 16.6795 28.2939C16.0513 28.6461 15.1859 29.0434 14.1042 29.5266C12.6813 30.1777 11.8159 30.4603 11.4248 30.4603C11.3416 30.4603 11.2542 30.4439 11.1377 30.4276C11.0171 30.4112 10.9339 30.3948 10.8839 30.3948C10.8007 30.3948 10.6967 30.3456 10.6135 30.2596L9.08659 28.7567V28.7608ZM25.2252 26.9261C25.3958 26.9589 25.6163 26.8934 25.9033 26.7418V26.2422C25.9033 26.0252 25.5289 25.2921 24.8008 24.0226C24.0228 22.6876 23.4778 21.9545 23.1574 21.8357C23.1408 21.9873 23.1574 22.2207 23.2073 22.5196C23.2573 22.8022 23.2905 23.0193 23.2905 23.1544C23.2905 23.7032 23.3072 23.8547 23.3238 23.6049C23.3072 23.74 23.2406 23.8219 23.0867 23.8383C22.7289 23.8383 22.4252 23.437 22.1714 22.6548C22.1381 22.536 22.1214 22.2698 22.1214 21.8521C22.1214 21.4344 22.3752 20.599 22.8662 19.3172C23.1532 18.8012 23.3238 18.4817 23.3904 18.3507C23.6109 17.9494 23.9479 17.5153 24.4264 17.0648C24.9839 16.516 25.479 16.2457 25.8659 16.2457C26.1863 16.2457 26.6273 16.344 27.1889 16.5283C26.4608 15.5455 25.7494 15.0581 25.0546 15.0581C24.6302 15.0581 23.9021 15.0909 22.9036 15.1769C21.7512 15.2588 21.1063 15.3776 20.9731 15.4922C20.8899 15.742 20.5987 16.7781 20.1244 18.5964C19.7666 19.9478 19.3963 20.8816 18.9719 21.4344L18.4976 21.201C18.4144 21.0167 18.3437 20.8324 18.3271 20.6522C18.3104 20.5539 18.3104 20.386 18.3271 20.1526C18.3437 19.9192 18.3437 19.7513 18.3437 19.6694C18.3271 19.6038 18.3104 19.5342 18.3104 19.4523C18.3104 19.268 18.4477 18.7684 18.7348 17.9657C18.2938 17.847 17.9027 17.7978 17.5491 17.7978C16.717 17.7978 16.3134 18.1132 16.3134 18.7643C16.3134 18.9814 16.3467 19.2803 16.4132 19.698C16.4798 20.1157 16.5131 20.4147 16.5131 20.6317C16.5131 21.2501 16.4299 21.6515 16.2759 21.8316C15.7184 21.1805 15.4272 19.9806 15.4272 18.1951C15.4272 17.9944 15.4272 17.6955 15.4438 17.2941C15.4605 16.8764 15.4605 16.5775 15.4605 16.3768C15.4605 15.5741 15.3398 15.1769 15.1235 15.1769C14.853 15.1769 14.3787 15.4267 13.7172 15.9263C12.7686 16.643 12.1903 17.0607 12.0073 17.1958C10.8049 17.8797 9.85628 18.4121 9.16148 18.7643C10.1766 19.1165 10.9422 19.3663 11.4664 19.5137C11.6869 19.6653 11.8741 20.1321 12.0447 20.9143C12.1986 21.5982 12.2652 22.1511 12.2652 22.6016C12.2652 23.654 12.078 24.1864 11.6869 24.1864C11.4997 24.1864 11.3998 24.0676 11.3832 23.8342C11.3832 23.8834 11.3832 23.867 11.3998 23.8178V22.5156C11.3998 22.3804 11.4331 22.0487 11.4331 21.9136C11.1128 22.1634 10.8049 22.364 10.5511 22.5319C10.3139 22.8473 10.1434 23.1176 10.0601 23.2977C9.50264 24.4976 9.22805 25.9187 9.22805 27.5691C9.22805 27.651 9.29461 27.8353 9.29461 27.8844C9.34454 27.9499 9.43191 27.9827 9.53176 27.9827C10.2266 27.9827 11.5662 27.4339 13.5508 26.3323C15.0444 25.5133 16.0762 24.8826 16.6545 24.4485C16.7752 23.6295 16.8418 23.2158 16.8584 23.179C16.9416 22.6794 17.1455 22.3599 17.4367 22.2453C17.6572 22.3108 17.7945 22.6138 17.8611 23.1298C17.9443 23.7646 18.015 24.1496 18.0982 24.2642C18.2522 24.4976 19.3173 24.9481 21.3351 25.5993C22.7081 26.0497 23.744 26.4347 24.4014 26.7336L25.2335 26.9179L25.2252 26.9261ZM24.9048 22.5196C24.9381 22.5688 24.988 22.6384 25.0754 22.6876L24.9048 22.5196Z" fill="black"/>
<path d="M38.3931 17.417L38.3764 17.5153L40.0365 19.1329L39.9532 19.7022C39.9366 19.9356 39.8159 20.2182 39.6162 20.5703C39.3292 21.0372 38.9714 21.287 38.5636 21.3034L37.7856 21.3362C38.3431 22.188 38.8882 22.9374 39.5164 23.7892C39.7036 24.1414 39.974 24.5714 40.311 25.0915C40.5981 25.5092 40.7354 26.058 40.7354 26.7091C40.7354 27.778 40.361 28.5438 39.7369 28.9287C39.246 29.2113 38.3639 29.3628 37.2115 29.3628C35.3975 29.3628 33.7541 29.0966 32.3146 28.5438L32.2979 28.5274C31.1954 28.1097 30.33 27.6101 29.7226 27.0081L28.4162 25.7222C27.4343 24.9563 26.9433 24.0554 26.9433 23.0357C26.9433 22.3354 27.0432 21.7662 27.2637 21.3525C27.401 21.1027 27.5341 20.7833 27.8919 20.2018L27.7546 20.0503C27.1763 19.6653 26.7894 19.1002 26.5855 18.3303C26.3151 17.331 26.1445 16.4792 26.1445 15.9427C26.1445 15.3243 26.1945 14.8739 26.2818 14.6077C26.469 14.1244 26.8601 13.8746 27.4509 13.8746C28.2123 13.8746 29.1983 14.2268 30.3841 14.9107H30.3674C31.0123 15.2629 31.5865 15.6602 32.0982 16.0943C32.2189 15.7789 32.4186 15.394 32.7431 15.009C33.0302 14.6937 33.4878 14.5422 34.1327 14.5422C34.27 14.5422 34.4531 14.7101 34.6902 15.0418L36.0798 16.4096C36.2005 16.5447 36.3669 16.7618 36.5541 17.0771C36.5708 17.1426 36.604 17.1754 36.6207 17.2286C36.8079 17.2942 37.0284 17.3269 37.2489 17.3474L38.4014 17.4129L38.3931 17.417ZM28.0542 24.424C28.4453 24.9072 28.9529 25.2758 29.5478 25.542C30.667 26.1603 31.6988 26.5617 32.6682 26.7255C33.2465 26.8238 33.6667 26.877 33.9247 26.8934L35.1271 26.9425C35.1271 26.9425 35.2644 26.9589 35.5847 26.9753C35.7553 26.9917 35.9592 26.9917 36.2129 26.9753C36.991 26.9425 37.5859 26.6927 37.9936 26.2095C38.2641 25.8942 38.4014 25.5583 38.4014 25.1734C38.4014 24.4403 38.1143 23.7032 37.5526 22.9538C37.2822 22.6016 36.7372 21.9013 35.9425 20.8529C35.722 20.554 35.4017 20.0707 34.9939 19.4032C34.9773 19.3541 34.944 19.2517 34.8941 19.0879C34.8608 18.9036 34.8608 18.8053 34.8774 18.7889C34.9606 18.7889 35.4349 18.9404 35.5556 18.9568C36.0299 19.0223 36.421 19.0387 36.7247 18.9896C37.1823 18.8544 37.2656 18.6374 37.6067 18.1542L36.2337 17.8388C35.8094 17.7405 35.4557 17.5399 35.1645 17.2532C34.9274 16.8846 34.6403 16.471 34.3158 15.9837C34.062 15.6315 33.8415 15.4349 33.6542 15.3817C33.2299 15.6806 32.9594 16.0164 32.8055 16.3645C32.7722 16.4464 32.6682 16.7823 32.5184 17.3638L32.2813 18.2483C32.144 17.8306 31.9942 17.4457 31.807 17.0648C31.6863 16.815 31.029 16.3318 29.8391 15.6315C28.6533 14.9312 27.9086 14.579 27.6007 14.579C27.3802 14.579 27.2429 14.579 27.2263 14.5954C27.193 14.6609 27.1264 14.7633 27.0224 14.878C26.9392 15.1769 26.9017 15.611 26.9017 16.1803C26.9017 16.5652 26.9683 16.8969 27.1223 17.2163C27.2221 17.6341 27.3594 18.0518 27.5466 18.449C27.8503 19.1165 28.1749 19.4483 28.5119 19.4483C28.6325 19.4483 28.8322 19.2312 29.1401 18.7971C29.4438 18.3466 29.5977 18.0641 29.6144 17.9125C29.4771 17.9617 29.294 18.0313 29.0735 18.1132C28.8197 17.9289 28.6991 17.63 28.6991 17.245C28.6991 16.8601 28.8697 16.643 29.2067 16.643C29.4272 16.643 29.6643 16.7249 29.9347 16.9092C30.2218 17.0935 30.3591 17.2778 30.3591 17.4784C30.3591 17.7283 30.0221 18.363 29.344 19.3623C28.9862 19.8783 28.6159 20.4475 28.2248 21.0454C27.867 21.5942 27.6839 22.0283 27.6839 22.3477C27.6839 22.2985 27.6673 22.4296 27.634 22.7163C27.6173 22.9169 27.6173 23.0848 27.6673 23.2323C27.7006 23.7483 27.8379 24.1496 28.0584 24.4158L28.0542 24.424ZM33.8331 23.3551C33.7333 23.3715 33.5461 23.4043 33.2756 23.4534C32.9553 23.5189 32.4976 23.3715 31.9027 23.0029C31.5449 22.7859 31.3618 22.4869 31.3618 22.1347C31.3618 21.9013 31.4617 21.5163 31.6655 20.984C31.9027 20.3492 32.1565 20.0339 32.4269 20.0339C32.9012 20.0339 33.2756 20.2673 33.5461 20.7505C33.596 20.8324 33.7666 21.2665 34.0703 22.0856C34.1909 22.5033 34.2409 22.7859 34.2409 22.9374C34.2409 23.22 34.1036 23.3551 33.8331 23.3551Z" fill="black"/>
<path d="M49.173 20.8202C49.0191 21.4713 48.5115 22.0037 47.6461 22.4214C47.8999 22.6221 48.137 22.8227 48.3908 23.0398C48.915 23.4575 49.5932 23.9244 50.2214 24.2561C50.6791 24.4731 51.0702 24.6574 51.274 24.7393C51.4613 24.7393 51.7483 24.641 51.8856 24.5878C51.9023 24.5386 51.9855 24.5059 52.0063 24.4526L52.1602 24.3175C52.2268 24.252 52.4473 24.0185 52.518 23.9489C52.8051 24.0472 53.009 24.2151 53.1296 24.4322L54.6399 25.9024C54.8604 26.1194 54.9603 26.4347 54.9603 26.8852C54.9603 27.9541 54.4194 29.0884 53.3335 30.2884C52.4015 31.3081 51.5694 31.8077 50.8414 31.8077C50.3504 31.8077 49.7887 31.4924 49.1647 30.874L48.0122 29.7396C47.6919 29.5062 47.3174 29.154 46.9263 28.6871C46.3855 28.036 45.8571 27.3357 45.3994 26.6682L45.2788 26.8197H45.2954C45.1748 26.9712 44.871 27.2538 44.3801 27.6715C43.5646 28.3554 42.9073 28.6912 42.3955 28.6912C42.2749 28.6912 42.175 28.6912 42.1251 28.6748C42.0752 28.6584 42.0253 28.6257 41.9712 28.5765L40.4276 27.0736L40.411 27.0572C40.0532 26.9384 39.6829 25.9884 39.3584 24.2724C39.0879 22.8023 38.9174 21.4344 38.9174 20.4188V20.3369C38.9174 20.2182 38.934 20.038 38.9506 19.7677C38.9506 19.567 38.9673 19.3336 38.9839 19.0674L37.4071 17.4989H37.3072C37.3072 17.4334 37.3239 17.3146 37.274 17.2491C37.2573 17.1508 37.2573 17.0484 37.274 16.9665C37.4945 16.2499 38.5637 15.5332 39.7328 15.1319C39.7827 15.1155 39.8701 15.1155 39.9866 15.0664C40.1738 15.0172 40.4609 14.9476 40.8021 14.8657C40.9893 14.8165 41.1765 14.7674 41.3804 14.7142C41.6009 14.665 41.7881 14.6323 42.1085 14.5463C42.0585 14.2145 42.0419 13.8951 42.0419 13.6453C42.0419 13.3955 42.0752 13.1784 42.1625 12.9942C42.433 12.5109 42.9406 12.2447 43.6187 12.2939C43.8059 12.3103 44.0764 12.343 44.4134 12.429C44.6006 12.5642 44.8877 12.8304 45.2788 13.2112C45.803 13.7272 46.2773 14.0958 46.7017 14.3456H46.685C47.0428 14.5299 47.5005 14.7469 48.0746 14.9804C48.836 15.2957 49.4309 15.5291 49.6182 15.6151V15.697L51.2616 17.3146C51.2616 17.3965 51.2782 17.4989 51.3281 17.5808C51.0411 17.9658 50.6999 18.2811 50.313 18.3999C50.0925 18.4818 49.7014 18.5514 49.1439 18.5842C48.7195 18.6005 48.4158 18.6497 48.1953 18.7029C48.3159 18.9036 48.4824 19.1206 48.7029 19.3377L48.9067 19.5384C49.0274 19.6571 49.1272 19.8537 49.1772 20.1404C49.2271 20.3902 49.2271 20.6236 49.1772 20.8243L49.173 20.8202ZM52.4764 25.2594C52.4099 25.2758 52.1894 25.3945 51.8149 25.5747C51.5611 25.7099 51.3905 25.7754 51.3406 25.759C51.0868 25.6403 50.7124 25.4928 50.2214 25.2922C50.0176 25.2758 49.4601 24.8908 48.5448 24.1414C47.85 23.5926 47.3257 23.1217 46.9346 22.7572L44.8003 20.7383C44.8502 20.6727 44.9002 20.6031 44.9542 20.554C45.0749 20.4557 45.2912 20.3369 45.6324 20.1854C46.244 19.9356 46.581 19.6366 46.6684 19.3172C46.7183 19.1165 46.6517 18.8504 46.4812 18.535C46.3272 18.2524 46.1774 18.019 45.9902 17.8675C45.5492 17.4825 45.3287 17.1344 45.3287 16.815C45.3287 16.4137 45.5825 16.1966 46.1067 16.1803L46.8681 16.2294C47.463 16.213 48.0372 16.0943 48.5988 15.8772C47.3798 15.3776 46.2606 14.878 45.258 14.3906C44.9376 14.2391 44.5465 13.7886 44.0556 13.072C43.9016 13.0392 43.7186 13.0064 43.5147 12.9532C43.211 12.9368 43.0238 13.2849 42.9572 14.0221C43.0071 14.2064 43.0404 14.4398 43.0571 14.6896C42.9572 15.1401 42.5828 15.4063 41.9212 15.4923L40.9726 15.6274C40.7854 15.6438 40.4484 15.6929 39.9908 15.7625C39.2627 15.8608 38.7551 16.1475 38.4306 16.6307L39.1753 16.6144C39.3292 16.6307 39.6995 16.9829 39.7536 17.1304C39.8368 17.3802 39.8743 17.7324 39.8743 18.1828C39.8743 18.535 39.841 18.9486 39.7911 19.3991C39.8077 20.0503 39.8243 21.0004 39.8743 22.2207C39.8909 22.8391 39.9575 23.2896 40.0615 23.6049C40.0116 23.6213 40.0449 23.822 40.1447 24.2233C40.178 24.3421 40.2279 24.555 40.3153 24.9072C40.3985 25.157 40.5857 25.5747 40.8728 26.1235C41.1266 26.1235 41.551 25.9392 42.1085 25.5911C42.6868 25.2225 42.9905 24.9236 43.0404 24.6902C43.0571 24.5714 43.0071 24.2397 42.8865 23.6541C42.6826 22.704 42.5828 22.2371 42.5661 22.2699C42.616 22.0364 42.7866 21.9177 43.0571 21.9177C43.1403 21.9177 43.2276 21.9341 43.3275 21.9504C43.6312 22.016 44.1929 22.7326 45.0208 24.1209C46.1233 25.972 46.7849 27.0408 47.0054 27.3562C47.8375 28.5561 48.5988 29.2236 49.277 29.3751C49.7014 29.457 50.3296 29.0434 51.1243 28.1056C51.8524 27.2538 52.2601 26.6559 52.3433 26.2709C52.4265 25.886 52.4806 25.5379 52.4806 25.2512L52.4764 25.2594ZM44.5091 19.3377C44.5091 19.6899 43.9516 19.9069 43.5438 19.9069C43.3233 19.9069 42.7284 19.8414 42.4746 19.8414C42.2874 19.8578 42.1542 19.6899 42.0835 19.3745C42.0669 19.223 42.0169 18.9896 41.9628 18.6743C41.8089 17.9576 41.7423 17.4907 41.7423 17.2573C41.7423 17.1385 41.8422 16.9911 42.0294 16.8068C42.5203 17.0075 43.0279 17.3064 43.523 17.7078C44.2345 18.277 44.5923 18.6579 44.5923 18.8749C44.5923 19.1575 44.559 19.3254 44.5091 19.3418V19.3377Z" fill="black"/>
<path d="M68.8856 16.598C68.715 16.7659 68.4113 16.897 67.9869 16.983C67.7997 17.0321 67.6832 17.0485 67.5625 17.0485C67.4252 17.0485 67.3087 17.0649 67.2047 17.0976C67.4252 17.2164 67.6291 17.3474 67.679 17.499L69.2392 19.0183C69.2392 19.0183 69.2226 19.0019 69.2059 19.0019L69.2392 19.0183C69.3058 19.0838 69.3391 19.1534 69.3391 19.2026C69.3391 19.821 69.2184 20.3697 68.9813 20.8693C68.8273 21.1847 68.5902 21.6024 68.2365 22.188L69.8799 23.7892V24.2725C69.8799 24.9564 69.6594 25.6731 69.2018 26.3897C68.9979 26.7051 68.6234 27.1924 68.1492 27.7739C67.6249 28.2571 67.0965 28.6257 66.5723 28.8755C66.3518 28.9738 65.7943 29.109 64.9289 29.2769C64.775 29.326 64.5711 29.3096 64.284 29.3096C63.8763 29.3096 63.3188 29.2932 62.6906 29.2277L62.1663 29.1786C61.3717 29.1622 60.8267 29.0598 60.5729 28.81L59.4703 27.7248C59.4703 27.7248 59.4371 27.7739 59.4204 27.7903C59.2332 28.0565 58.8088 28.3227 58.1307 28.6421C57.5898 28.8919 57.0614 29.0926 56.7078 29.2277C55.6552 29.5594 54.8272 29.7273 54.2156 29.7273H53.9285C53.8287 29.7273 53.7247 29.6782 53.6415 29.5922L52.1146 28.0729C51.9939 28.0237 51.9107 27.9377 51.7568 27.7575C51.944 27.3071 52.2643 26.7747 52.722 26.1563C53.1797 25.5379 53.4834 25.0874 53.6207 24.7557C54.5859 22.704 55.0602 21.5369 55.0602 21.2502C55.0602 20.9349 55.0436 20.6646 55.0436 20.4475L53.5707 19.0142C53.5208 18.9978 53.5375 18.9978 53.4875 18.9814C53.2171 18.6292 52.7927 18.0805 52.3018 17.3638C51.6236 16.3646 51.1826 15.6602 51.1826 15.4636C51.1826 15.2138 51.3199 15.0131 51.607 14.8616L51.5903 14.878C51.8109 14.7265 52.048 14.6773 52.2685 14.6773C52.9633 14.6773 54.2697 15.095 56.0296 15.8445C57.3859 16.4465 58.4177 16.9461 58.8088 17.1959C58.9087 17.2778 58.996 17.3802 59.046 17.5112L59.1833 17.6464C59.1833 17.4457 59.1833 17.2451 59.1999 17.028C59.2165 16.1762 59.3206 15.5414 59.4703 15.1933C59.7075 14.6241 60.2151 14.1941 60.9972 13.891L62.1996 13.4406C62.2662 13.3587 62.5366 13.3218 62.9277 13.2399C62.9943 13.2071 63.0276 13.2071 63.1649 13.1744C63.1982 13.158 63.2647 13.1416 63.3521 13.1252L63.556 13.0761C63.6766 13.0597 63.9803 13.0433 64.5378 13.0433C65.5031 13.0433 66.4017 13.461 67.2006 14.2801V14.3292L68.794 15.8977C68.794 15.8977 68.8273 15.9469 68.844 15.9632L68.8772 16.598H68.8856ZM67.5459 22.7531C66.0731 23.5353 65.1369 23.9203 64.7833 23.9203C64.4297 23.9203 64.2757 23.6869 64.2757 23.2364C64.2757 23.0685 64.3964 22.7695 64.6335 22.3354C64.9913 21.7334 65.2618 21.2011 65.8692 20.3165C66.1563 19.8988 66.5973 19.264 66.7179 18.9159C66.8386 18.531 66.9052 18.2811 66.9052 18.1829C66.9052 18.0641 66.8552 17.933 66.7679 17.7979C66.1396 18.2648 65.1078 18.7808 63.6808 19.3664C63.2065 19.5507 62.6282 19.8005 61.95 20.0831C61.5589 20.251 61.2386 20.3329 61.0014 20.3329C60.9348 20.3329 60.9016 20.3165 60.8808 20.2837L60.8475 20.2346C60.9473 19.9684 61.1179 19.735 61.355 19.5179C61.7961 19.1166 62.391 18.2484 63.1191 16.9133C64.0011 15.2957 65.1037 14.5258 66.4433 14.6118L65.8858 14.2269C65.1744 13.9607 64.5794 13.8255 64.1051 13.8255C63.6308 13.8255 62.986 13.977 62.1913 14.2924L60.5479 14.9435C60.2608 15.2589 60.0903 15.8445 60.007 16.7127C60.007 16.7618 59.9904 17.413 59.9405 18.6661C59.8198 19.4155 59.5161 19.952 59.0085 20.3001C58.8879 20.1813 58.7547 19.8496 58.6008 19.264C58.4136 18.5473 58.3137 18.146 58.2804 18.0477C58.1598 17.847 57.3984 17.3966 55.9922 16.6799C54.4653 15.9141 53.4002 15.5291 52.7719 15.5291H52.3143V15.779C52.3642 15.8445 52.5514 16.1803 52.8926 16.7782C53.3502 17.5972 53.604 18.0477 53.6207 18.1296C53.7039 18.2115 53.8745 18.2648 54.1283 18.2975C54.382 18.3303 54.536 18.363 54.6026 18.3958C55.1268 18.7808 55.4846 19.178 55.6385 19.5793C55.7592 19.8947 55.8257 20.4311 55.8257 21.1478C55.8257 21.5983 55.5054 22.4665 54.8605 23.7851C54.303 24.9031 53.6914 26.0375 52.9966 27.1883C53.0132 27.1883 53.2005 27.2702 53.2837 27.2702C53.6415 27.2702 54.199 27.1514 54.9604 26.9016C55.8257 26.6191 56.4873 26.2832 56.9782 25.9024C57.232 25.6853 57.5024 25.4028 57.7562 25.0178C58.2305 24.3339 58.5176 23.8179 58.6382 23.4821L58.7381 23.0152C58.7381 23.0152 58.8587 22.9333 59.0584 22.8473L59.4329 22.6794C59.6534 22.6139 59.9405 22.5115 60.2983 22.3641C60.4189 22.315 60.7559 22.1798 61.2968 21.93C61.7711 21.713 62.0915 21.6147 62.2454 21.6147C62.2953 21.6147 62.3286 21.6311 62.3453 21.6474C61.9874 22.831 61.5672 23.8015 61.0929 24.5182C61.0763 24.551 60.7892 24.985 60.2275 25.8041C59.9738 26.1727 59.8531 26.3897 59.8531 26.4716V26.7542C59.8032 26.7542 60.0403 26.7706 60.5646 26.8033C61.0888 26.8361 61.4133 26.8525 61.5131 26.8525L63.5144 26.8361C64.3964 26.8197 65.4656 26.0703 66.7013 24.551C67.1423 24.0186 67.4294 23.4166 67.55 22.749L67.5459 22.7531Z" fill="black"/>
<path d="M68.0577 25.8246C67.2422 25.2062 66.8386 24.6247 66.8386 24.0391C66.8386 23.9572 66.9385 23.6705 67.1257 23.3224C67.1423 23.2405 67.1923 23.1381 67.263 23.0234V23.0398C67.3129 22.9743 67.3837 22.8064 67.3629 22.8555C67.4128 22.79 67.4461 22.7204 67.4627 22.6713C67.4793 22.6221 67.496 22.6057 67.5126 22.5525L68.2241 21.2666C68.2241 21.2338 68.2074 21.1683 68.1575 21.0823L68.1741 21.0987C68.0909 20.9635 68.0036 20.898 67.937 20.898L67.5459 20.1158C67.5459 20.1158 67.4627 20.0339 67.4627 20.0175C67.342 19.8333 67.2089 19.6326 67.2089 19.3173C67.2089 19.1002 67.2588 18.8832 67.3462 18.617C67.5001 18.1337 67.9245 17.6341 68.5819 17.0976C69.2933 16.5489 69.8342 16.0615 70.2086 15.6643C70.6164 15.2138 71.3611 14.8289 72.447 14.4112C72.7673 14.2924 73.5329 14.1286 74.7519 13.9115C76.1249 13.6617 77.4313 13.543 78.6503 13.543C79.1079 13.543 79.6322 13.6249 80.1938 13.7764C80.1772 13.7928 80.1772 13.8255 80.1772 13.8583L81.8206 15.4759C81.754 15.8281 81.3962 16.2253 80.7347 16.7086C79.7362 17.3925 79.108 17.8593 78.8375 18.0764C78.3466 18.4941 77.9555 18.9282 77.6851 19.4114L78.7543 20.4475C78.9082 20.6154 79.0414 20.8489 79.1953 21.1642C79.316 21.3813 79.3326 21.7662 79.3326 22.2494C79.3326 22.4174 79.0289 22.917 78.9082 22.9497C78.875 22.9661 78.8417 22.9661 78.8084 22.9661C78.7585 22.9661 78.7751 22.9825 78.7252 22.9825C78.6753 22.9825 78.6253 22.9825 78.5712 22.9661H78.538L78.4548 22.9333C77.1151 25.1038 76.4369 26.5863 76.4369 27.3726C76.4369 27.7248 76.5742 28.2408 76.8613 28.9083C76.8613 29.5594 76.724 29.7765 76.0666 29.7765C75.4093 29.7765 74.236 29.4939 72.7424 28.9738C72.2182 28.7895 71.7064 28.5889 71.3694 28.4046C70.4375 27.9214 69.726 27.4545 69.2684 26.9876L68.066 25.8205L68.0577 25.8246ZM68.5652 20.1854C68.8523 20.1363 69.3599 20.0503 70.1254 19.9029C71.5317 19.6367 72.3471 19.5015 72.551 19.5015C72.7549 19.5015 72.9088 19.5507 73.0086 19.6694V19.8865C72.2806 20.8202 71.6523 21.4058 71.1115 21.6393L70.4499 21.9218L70.6704 21.2871C70.6704 21.2052 70.841 21.0209 71.1947 20.7383C71.6523 20.3697 71.956 20.1199 72.0767 20.0053C71.5525 20.0872 70.4 20.3042 68.636 20.6236C68.6193 20.64 68.7192 20.7055 68.9064 20.8571C68.9563 20.8898 69.0271 20.9922 69.1103 21.1724C68.973 21.5041 68.8065 21.8399 68.6193 22.1716L68.1284 23.0234C68.0452 23.175 67.9079 23.4248 67.7207 23.7729C67.7207 24.6411 68.5694 25.4396 70.2461 26.1604C70.6372 26.3119 71.3486 26.6109 72.3638 27.0286C72.8214 27.2129 73.433 27.3112 74.2277 27.2948C74.2277 27.2293 74.2443 27.1433 74.261 27.045C74.2776 26.9467 74.2776 26.8607 74.261 26.7788L73.9572 25.7263C73.9572 25.0096 74.211 24.207 74.702 23.2896C74.8559 23.0234 75.2428 22.2904 75.9044 21.1028C76.0916 20.554 76.2622 20.2674 76.3953 20.2674L76.9528 20.5499C76.9528 20.5499 76.9694 20.4844 76.9861 20.4312C77.0027 20.3656 77.0027 20.296 76.9861 20.2305V19.7964C76.6657 19.2476 76.1207 18.8791 75.3593 18.6784C75.1388 18.6293 74.8018 18.5965 74.3442 18.5965C74.157 18.5965 73.8865 18.6293 73.5121 18.6784C73.1543 18.7275 72.8838 18.7439 72.6966 18.7439C72.576 18.7439 72.3929 18.7603 72.1225 18.7767C71.902 18.8258 71.6981 18.7603 71.5275 18.6088C71.5109 18.5269 71.5109 18.4573 71.5109 18.3917C71.5109 18.1747 71.5774 18.0232 71.7147 17.9085C71.902 17.6751 72.0725 17.4908 72.2057 17.3433C72.4428 17.1099 72.8838 16.8765 73.5454 16.6594C73.562 16.6594 73.562 16.6758 73.562 16.7086C73.562 16.8929 73.4788 17.1263 73.2916 17.4253C73.1043 17.7078 72.9338 17.9085 72.784 17.9945C72.6633 18.06 72.6134 18.1624 72.6134 18.3098C72.6134 18.3262 72.8838 18.3098 73.4455 18.2443C73.9032 18.1952 74.157 18.1624 74.1902 18.1624C74.5647 18.1133 74.7852 18.0436 74.8351 17.9945C75.2428 17.3106 75.8711 16.5775 76.699 15.824C77.581 15.0418 78.3757 14.5053 79.0871 14.2228C79.0372 14.19 78.8833 14.1736 78.6295 14.19C76.9362 14.2392 75.1222 14.489 73.2042 14.9231C72.3388 15.2753 71.5109 15.5578 70.6455 16.2745C70.425 16.4588 69.9673 16.8233 69.3058 17.3925C68.3905 18.1747 67.9328 18.7275 67.9328 19.0429C67.9328 19.1412 67.9828 19.2763 68.1034 19.4606L68.5611 20.1773L68.5652 20.1854Z" fill="black"/>
</g>
<defs>
<clipPath id="clip0_2_1283">
<rect width="90" height="43" fill="white"/>
</clipPath>
</defs>
</svg>
