<svg width="1379" height="786" viewBox="0 0 1379 786" fill="none" xmlns="http://www.w3.org/2000/svg">
<g clip-path="url(#clip0_18_4)">
<path d="M1033.7 0.829102H345.301L1.10181 393L345.301 785.171H1033.7L1377.9 393L1033.7 0.829102Z" fill="#00D800" stroke="black" stroke-width="2" stroke-miterlimit="10"/>
<path d="M434.793 147.79C433.459 147.425 432.125 145.609 431.28 143.304C430.675 141.364 430.187 139.308 430.187 137.732C430.187 131.796 430.667 125.976 431.636 121.125C432.241 117.245 433.699 112.154 435.754 105.372C437.203 100.522 442.414 95.3149 447.136 92.7696C444.833 91.9239 442.778 90.4646 440.964 88.6489L431.156 78.9565C428.372 77.0164 426.31 74.471 424.984 71.196C437.576 67.3158 448.478 61.3793 457.317 54.4728C460.1 52.4166 462.163 50.5925 463.488 49.5064C463.969 49.1416 464.333 48.9012 464.457 48.7768C469.179 45.0209 472.452 43.2051 474.39 43.2051C478.747 43.2051 481.779 44.54 483.353 47.0854C483.477 47.4502 483.593 47.5663 483.718 47.6906L494.255 58.237C494.735 58.7179 495.1 59.0827 495.224 59.4475C495.705 60.5419 496.193 61.7524 496.558 63.5682C504.312 63.8086 508.669 64.5382 509.638 65.8731C511.452 59.8123 512.546 54.3567 512.91 49.5147C513.035 46.4884 518.726 44.4239 530.224 43.3295C535.551 42.8486 541.482 42.5999 547.902 42.5999C555.772 42.5999 562.308 45.991 567.278 52.8975L575.993 61.6198C579.265 64.8948 581.924 69.2559 584.103 74.9519C582.164 76.892 580.831 77.8621 579.862 78.343C573.806 75.6732 570.294 74.3467 569.208 74.3467C565.091 74.3467 560.369 77.6217 555.043 84.2877C549.716 91.0782 547.049 96.6498 547.049 100.895V101.376L553.709 107.917C554.438 108.647 554.803 109.128 554.918 109.368C560.734 119.185 563.633 124.516 563.998 125.006C569.689 135.063 572.712 141.969 572.712 145.733C572.712 149.73 570.294 151.67 565.572 151.67C561.819 151.67 551.042 148.519 533.968 142.583L524.16 139.308C521.252 138.338 517.74 137.252 514.832 136.281C512.289 135.436 510.235 134.341 508.537 132.766L506.234 130.585C503.326 134.947 497.27 139.673 489.036 144.407C484.554 146.952 478.383 149.862 470.629 153.378C460.456 158.104 454.285 160.168 451.493 160.168C450.888 160.168 450.284 160.044 449.43 159.928C448.585 159.803 447.981 159.687 447.616 159.687C447.011 159.687 446.282 159.323 445.678 158.717L434.776 147.806L434.793 147.79ZM550.072 134.457C551.282 134.698 552.856 134.217 554.918 133.123V129.483C554.918 127.907 552.251 122.576 547.049 113.365C541.474 103.672 537.605 98.3329 535.302 97.4872C535.178 98.5817 535.302 100.273 535.667 102.454C536.031 104.518 536.271 106.093 536.271 107.063C536.271 111.06 536.396 112.154 536.512 110.338C536.387 111.309 535.907 111.914 534.813 112.038C532.27 112.038 530.091 109.128 528.277 103.432C528.037 102.586 527.913 100.646 527.913 97.6116C527.913 94.577 529.727 88.5245 533.239 79.1887C535.302 75.4328 536.511 73.1279 536.992 72.1578C538.566 69.2476 540.985 66.097 544.381 62.822C548.374 58.8256 551.887 56.8855 554.678 56.8855C556.981 56.8855 560.129 57.6151 564.122 58.95C558.911 51.803 553.833 48.2876 548.863 48.2876C545.839 48.2876 540.629 48.528 533.488 49.1333C525.254 49.7386 520.648 50.5843 519.678 51.4382C519.074 53.254 517.019 60.7741 513.623 73.9818C511.08 83.7986 508.412 90.589 505.389 94.5853L502 92.8856C501.396 91.5508 500.907 90.2159 500.791 88.8893C500.667 88.1597 500.667 86.9492 500.791 85.2578C500.915 83.5581 500.915 82.3476 500.915 81.7423C500.791 81.2615 500.675 80.7723 500.675 80.167C500.675 78.8322 501.644 75.2006 503.699 69.3803C500.551 68.5346 497.767 68.1698 495.224 68.1698C489.293 68.1698 486.385 70.4747 486.385 75.2006C486.385 76.776 486.625 78.9565 487.114 81.9911C487.595 85.0173 487.843 87.2062 487.843 88.7815C487.843 93.267 487.238 96.1772 486.145 97.5038C482.152 92.7779 480.089 84.0473 480.089 71.0799C480.089 69.629 480.089 67.4401 480.214 64.5382C480.338 61.512 480.338 59.3231 480.338 57.8722C480.338 52.0518 479.493 49.1499 477.919 49.1499C475.98 49.1499 472.592 50.9656 467.87 54.6055C461.086 59.8206 456.969 62.8468 455.643 63.8169C447.045 68.7833 440.26 72.6636 435.298 75.2089C442.563 77.7543 448.014 79.5701 451.766 80.6645C453.34 81.7589 454.674 85.15 455.884 90.846C456.977 95.8124 457.458 99.817 457.458 103.084C457.458 110.72 456.124 114.6 453.34 114.6C452.007 114.6 451.286 113.754 451.162 112.055C451.162 112.42 451.162 112.295 451.286 111.93V102.478C451.286 101.508 451.526 99.0874 451.526 98.1173C449.223 99.9331 447.045 101.392 445.23 102.603C443.532 104.908 442.323 106.848 441.718 108.174C437.725 116.897 435.787 127.203 435.787 139.2C435.787 139.805 436.267 141.14 436.267 141.505C436.632 141.986 437.236 142.234 437.965 142.234C442.927 142.234 452.495 138.238 466.661 130.237C477.314 124.301 484.704 119.691 488.821 116.54C489.666 110.604 490.154 107.569 490.27 107.329C490.875 103.697 492.333 101.392 494.387 100.538C495.961 101.019 496.931 103.208 497.411 106.964C498.016 111.566 498.505 114.36 499.109 115.205C500.203 116.905 507.824 120.172 522.238 124.898C532.046 128.173 539.436 130.959 544.158 133.139L550.089 134.474L550.072 134.457ZM547.769 102.462C548.01 102.827 548.374 103.308 548.979 103.672L547.769 102.462Z" fill="black"/>
<path d="M644.17 65.3756L644.046 66.1053L655.917 77.8621L655.312 81.9828C655.188 83.6825 654.343 85.7387 652.893 88.2841C650.83 91.6751 648.287 93.4992 645.388 93.6153L639.821 93.8557C643.814 100.033 647.691 105.488 652.172 111.673C653.506 114.219 655.445 117.369 657.863 121.125C659.918 124.152 660.887 128.156 660.887 132.882C660.887 140.643 658.228 146.214 653.746 149C650.234 151.065 643.938 152.151 635.704 152.151C622.748 152.151 611.001 150.211 600.712 146.214L600.588 146.09C592.718 143.064 586.538 139.424 582.181 135.063L572.853 125.727C565.829 120.155 562.316 113.605 562.316 106.218C562.316 101.127 563.045 97.0063 564.619 93.9801C565.588 92.1643 566.557 89.8594 569.101 85.6143L568.131 84.5199C564.014 81.7341 561.231 77.6134 559.773 72.0334C557.834 64.7621 556.625 58.5769 556.625 54.7049C556.625 50.2194 556.989 46.9444 557.594 45.0126C558.928 41.4972 561.711 39.6814 565.953 39.6814C571.404 39.6814 578.428 42.2268 586.903 47.1932H586.779C591.385 49.7385 595.493 52.6487 599.13 55.7994C599.975 53.4944 601.433 50.7086 603.728 47.9228C605.79 45.6179 609.054 44.5317 613.66 44.5317C614.629 44.5317 615.963 45.7422 617.653 48.1632L627.586 58.1043C628.431 59.0744 629.648 60.6497 630.974 62.9546C631.098 63.4355 631.338 63.6842 631.454 64.0491C632.788 64.5299 634.362 64.7787 635.936 64.8947L644.17 65.3756ZM570.302 116.275C573.085 119.79 576.722 122.452 580.955 124.392C588.949 128.877 596.338 131.788 603.239 132.998C607.356 133.728 610.38 134.093 612.202 134.209L620.801 134.573C620.677 134.573 621.77 134.698 624.073 134.814C625.283 134.938 626.741 134.938 628.555 134.814C634.122 134.573 638.363 132.758 641.271 129.242C643.209 126.937 644.178 124.516 644.178 121.731C644.178 116.399 642.116 111.068 638.123 105.613C636.184 103.067 632.307 97.9764 626.616 90.3403C625.042 88.1597 622.739 84.6442 619.832 79.7939C619.707 79.4291 619.467 78.6995 619.103 77.489C618.862 76.1541 618.863 75.4245 618.978 75.3084C619.583 75.3084 622.971 76.4029 623.825 76.5189C627.213 76.9998 629.996 77.1242 632.183 76.7594C635.455 75.7893 636.06 74.214 638.479 70.6985L628.671 68.3936C625.647 67.664 623.096 66.213 621.041 64.1485C619.343 61.4871 617.289 58.4525 614.986 54.9371C613.171 52.3917 611.597 50.9408 610.264 50.576C607.24 52.7565 605.302 55.1858 604.208 57.7229C603.968 58.3282 603.239 60.7492 602.154 64.9942L600.456 71.4199C599.486 68.3936 598.393 65.5995 597.067 62.8137C596.222 60.9979 591.501 57.4825 583.018 52.3917C574.543 47.301 569.217 44.7556 567.03 44.7556C565.456 44.7556 564.487 44.7556 564.362 44.8799C564.122 45.3608 563.633 46.0904 562.913 46.9444C562.308 49.125 562.068 52.2756 562.068 56.3963C562.068 59.1822 562.548 61.6115 563.642 63.9081C564.371 66.9344 565.34 69.9689 566.665 72.8791C568.844 77.7294 571.147 80.1504 573.566 80.1504C574.411 80.1504 575.869 78.5751 578.047 75.4245C580.226 72.1495 581.32 70.0933 581.436 68.9989C580.466 69.3637 579.133 69.8446 577.559 70.4498C575.744 69.1149 574.899 66.9344 574.899 64.1485C574.899 61.3627 576.109 59.7874 578.528 59.7874C580.102 59.7874 581.8 60.3927 583.738 61.7275C585.793 63.0624 586.762 64.3973 586.762 65.8482C586.762 67.664 584.343 72.2739 579.497 79.5452C576.954 83.3011 574.286 87.4218 571.503 91.7829C568.96 95.7792 567.626 98.9299 567.626 101.235C567.626 100.87 567.502 101.84 567.262 103.896C567.137 105.347 567.137 106.566 567.502 107.652C567.742 111.408 568.711 114.318 570.285 116.258L570.302 116.275ZM611.597 108.514C610.868 108.639 609.535 108.879 607.605 109.244C605.302 109.725 602.038 108.639 597.796 105.969C595.253 104.394 593.919 102.213 593.919 99.6678C593.919 97.9681 594.648 95.1823 596.098 91.302C597.796 86.7004 599.611 84.3955 601.549 84.3955C604.937 84.3955 607.605 86.0952 609.543 89.6106C609.908 90.2159 611.117 93.3665 613.296 99.303C614.141 102.329 614.505 104.394 614.505 105.48C614.505 107.544 613.536 108.506 611.597 108.506V108.514Z" fill="black"/>
<path d="M721.186 90.0998C720.093 94.8258 716.464 98.706 710.284 101.732C712.099 103.183 713.797 104.642 715.611 106.218C719.364 109.244 724.21 112.643 728.691 115.064C731.964 116.64 734.747 117.975 736.197 118.58C737.53 118.58 739.585 117.85 740.554 117.485C740.678 117.121 741.283 116.88 741.399 116.515L742.492 115.545C742.973 115.064 744.547 113.365 745.036 112.884C747.09 113.613 748.548 114.824 749.393 116.399L760.17 127.062C761.744 128.637 762.473 130.942 762.473 134.209C762.473 141.969 758.597 150.211 750.851 158.933C744.191 166.329 738.259 169.96 733.049 169.96C729.536 169.96 725.543 167.655 721.062 163.17L712.828 154.928C710.525 153.229 707.865 150.683 705.074 147.292C701.197 142.566 697.444 137.475 694.172 132.625L693.327 133.719H693.451C692.606 134.814 690.428 136.87 686.915 139.896C681.1 144.863 676.378 147.292 672.75 147.292C671.905 147.292 671.176 147.292 670.811 147.168C670.447 147.043 670.082 146.803 669.718 146.438L658.7 135.527L658.576 135.403C656.033 134.557 653.365 127.642 651.071 115.164C649.132 104.502 647.923 94.5604 647.923 87.1647V86.5595C647.923 85.7138 648.047 84.3789 648.163 82.4388C648.163 80.9879 648.287 79.2882 648.403 77.348L637.137 65.956H636.408C636.408 65.4751 636.532 64.6211 636.168 64.1403C636.043 63.4106 636.043 62.6893 636.168 62.0841C637.742 56.8689 645.371 51.6621 653.73 48.7519C654.094 48.6275 654.699 48.6275 655.544 48.271C656.878 47.9062 658.932 47.4253 661.359 46.8201C662.693 46.4553 664.027 46.0904 665.476 45.7256C667.05 45.3608 668.384 45.1204 670.687 44.5151C670.322 42.0941 670.206 39.7892 670.206 37.9734C670.206 36.1577 670.447 34.5823 671.051 33.2475C672.99 29.732 676.627 27.7919 681.464 28.1567C682.798 28.2811 684.737 28.5215 687.156 29.1268C688.489 30.0968 690.544 32.037 693.327 34.8228C697.08 38.5787 700.468 41.2484 703.5 43.0642H703.376C705.919 44.3991 709.191 45.9744 713.308 47.6658C718.759 49.9707 722.992 51.6621 724.326 52.2756V52.8809L736.072 64.6377C736.072 65.243 736.197 65.9726 736.553 66.5779C734.49 69.3637 732.071 71.6686 729.288 72.5143C727.714 73.1196 724.93 73.6087 720.929 73.8492C717.906 73.9735 715.719 74.3301 714.145 74.6949C714.99 76.1458 716.207 77.7211 717.781 79.2965L719.231 80.7474C720.076 81.5931 720.805 83.0523 721.169 85.1085C721.534 86.9243 721.534 88.624 721.169 90.0749L721.186 90.0998ZM744.795 122.336C744.315 122.46 742.733 123.306 740.074 124.641C738.259 125.611 737.05 126.092 736.685 125.976C734.871 125.13 732.204 124.035 728.691 122.585C727.242 122.46 723.24 119.674 716.704 114.219C711.742 110.222 707.99 106.823 705.198 104.162L689.939 89.4946C690.303 89.0137 690.668 88.5245 691.032 88.1597C691.877 87.4301 693.451 86.5844 695.879 85.4899C700.236 83.6742 702.663 81.4936 703.268 79.1887C703.632 77.7377 703.144 75.7976 701.934 73.4927C700.841 71.4282 699.755 69.7368 698.422 68.6423C695.274 65.8565 693.7 63.3111 693.7 61.0062C693.7 58.096 695.514 56.5207 699.267 56.3963L704.718 56.7611C708.959 56.6368 713.076 55.7911 717.069 54.2158C708.354 50.576 700.36 46.9444 693.211 43.429C690.908 42.3346 688.125 39.0679 684.612 33.8527C683.519 33.6123 682.193 33.3718 680.735 33.007C678.557 32.8827 677.223 35.428 676.743 40.7675C677.107 42.1024 677.347 43.7938 677.472 45.6179C676.743 48.8929 674.083 50.833 669.362 51.4382L662.577 52.4083C661.243 52.5327 658.824 52.8892 655.552 53.3784C650.342 54.108 646.713 56.1642 644.41 59.6796L649.737 59.5553C650.83 59.6796 653.489 62.2167 653.854 63.3111C654.459 65.1269 654.699 67.6723 654.699 70.9473C654.699 73.4927 654.459 76.5272 654.094 79.7939C654.218 84.5199 654.334 91.4264 654.699 100.273C654.823 104.759 655.304 108.034 656.033 110.33C655.668 110.455 655.908 111.906 656.637 114.816C656.878 115.661 657.242 117.237 657.847 119.782C658.452 121.598 659.785 124.632 661.84 128.629C663.654 128.629 666.686 127.294 670.679 124.748C674.796 122.087 676.975 119.898 677.339 118.207C677.463 117.361 677.099 114.932 676.246 110.695C674.796 103.788 674.067 100.397 673.943 100.638C674.307 98.9382 675.517 98.0925 677.455 98.0925C678.06 98.0925 678.664 98.2168 679.393 98.3329C681.572 98.8138 685.565 104.029 691.505 114.086C699.374 127.543 704.096 135.295 705.67 137.6C711.601 146.322 717.052 151.172 721.898 152.267C724.922 152.872 729.404 149.846 735.095 143.055C740.305 136.87 743.205 132.509 743.81 129.723C744.414 126.937 744.779 124.392 744.779 122.327L744.795 122.336ZM687.884 79.313C687.884 81.8584 683.892 83.4337 680.984 83.4337C679.41 83.4337 675.169 82.9529 673.354 82.9529C672.021 83.0772 671.051 81.8584 670.571 79.5618C670.447 78.4673 670.091 76.776 669.726 74.471C668.633 69.2559 668.152 65.8648 668.152 64.1651C668.152 63.3194 668.881 62.225 670.215 60.8901C673.727 62.3411 677.356 64.5299 680.868 67.4318C685.954 71.5525 688.498 74.3384 688.498 75.9137C688.498 77.9782 688.257 79.1887 687.893 79.3048L687.884 79.313Z" fill="black"/>
<path d="M862.014 59.4392C860.804 60.6497 858.626 61.6198 855.594 62.225C854.26 62.5898 853.415 62.7059 852.57 62.7059C851.601 62.7059 850.756 62.8303 850.027 63.0707C851.601 63.9164 853.05 64.8865 853.415 65.9809L864.557 77.0081C864.433 77.0081 864.433 76.8838 864.317 76.8838L864.557 77.0081C865.037 77.489 865.286 77.9782 865.286 78.343C865.286 82.8285 864.441 86.8248 862.743 90.4646C861.649 92.7696 859.959 95.7958 857.416 100.041L869.163 111.673V115.189C869.163 120.155 867.589 125.37 864.317 130.577C862.867 132.882 860.2 136.398 856.811 140.634C853.059 144.15 849.306 146.82 845.553 148.635C843.98 149.365 839.987 150.335 833.807 151.545C832.713 151.91 831.264 151.786 829.201 151.786C826.293 151.786 822.3 151.662 817.819 151.181L814.066 150.816C808.375 150.691 804.498 149.97 802.684 148.146L794.814 140.27C794.69 140.394 794.574 140.634 794.45 140.75C793.116 142.691 790.092 144.631 785.246 146.936C781.369 148.751 777.617 150.211 775.073 151.181C767.568 153.602 761.629 154.812 757.271 154.812H755.208C754.479 154.812 753.759 154.447 753.146 153.842L742.244 142.815C741.399 142.45 740.794 141.845 739.701 140.51C741.035 137.235 743.338 133.363 746.601 128.877C749.874 124.392 752.052 121.117 753.021 118.696C759.922 103.789 763.31 95.3067 763.31 93.2422C763.31 90.9372 763.186 88.9971 763.186 87.4218L752.649 76.9998C752.284 76.8755 752.408 76.8755 752.044 76.7594C750.106 74.214 747.082 70.2177 743.569 65.0025C738.723 57.7312 735.575 52.6405 735.575 51.1895C735.575 49.3738 736.545 47.9145 738.599 46.8284L738.475 46.9527C740.049 45.8583 741.747 45.5018 743.321 45.5018C748.283 45.5018 757.611 48.5281 770.202 53.9836C779.886 58.3448 787.276 61.9846 790.059 63.8003C790.788 64.4056 791.393 65.1352 791.757 66.1053L792.727 67.0753C792.727 65.6244 792.727 64.1651 792.851 62.5898C792.975 56.4046 793.696 51.8031 794.789 49.2577C796.487 45.137 800.116 41.9863 805.691 39.8058L814.29 36.5308C814.77 35.9255 816.709 35.6851 819.5 35.0798C819.981 34.8394 820.229 34.8394 821.199 34.5989C821.439 34.4746 821.928 34.3585 822.532 34.2341L823.982 33.8693C824.827 33.7449 827.006 33.6289 831.007 33.6289C837.907 33.6289 844.327 36.6551 850.019 42.5999V42.9647L861.401 54.3567C861.525 54.4811 861.641 54.7215 861.765 54.8376L862.005 59.4392H862.014ZM852.446 104.162C841.909 109.858 835.248 112.643 832.705 112.643C830.162 112.643 829.068 110.944 829.068 107.677C829.068 106.467 829.913 104.286 831.612 101.135C834.155 96.7742 836.093 92.8939 840.451 86.4683C842.513 83.442 845.661 78.8322 846.506 76.2868C847.351 73.501 847.84 71.6852 847.84 70.9556C847.84 70.1099 847.475 69.1398 846.871 68.1698C842.389 71.5608 835 75.3167 824.827 79.5618C821.439 80.8967 817.322 82.7124 812.476 84.7769C809.692 85.9874 807.389 86.5927 805.691 86.5927C805.211 86.5927 804.962 86.4683 804.846 86.2279L804.606 85.8631C805.335 83.9229 806.544 82.2232 808.242 80.6479C811.39 77.7377 815.632 71.4365 820.834 61.7441C827.13 49.9873 835 44.4156 844.568 45.0209L840.575 42.2351C835.488 40.2949 831.247 39.3249 827.859 39.3249C824.471 39.3249 819.865 40.4193 814.174 42.716L802.427 47.4419C800.373 49.7469 799.155 53.9836 798.55 60.2849C798.55 60.6497 798.426 65.3756 798.07 74.4627C797.225 79.9183 795.046 83.7986 791.409 86.3439C790.564 85.4982 789.595 83.0689 788.502 78.8322C787.168 73.617 786.447 70.7151 786.199 69.9855C785.354 68.5346 779.903 65.2596 769.855 60.0444C758.953 54.4645 751.323 51.6787 746.85 51.6787H743.578V53.4944C743.942 53.9753 745.276 56.4046 747.695 60.7658C750.967 66.7022 752.781 69.9772 752.905 70.5825C753.51 71.1877 754.72 71.5525 756.534 71.793C758.348 72.0334 759.442 72.2739 759.922 72.5226C763.675 75.3084 766.218 78.2186 767.311 81.1288C768.156 83.4337 768.645 87.314 768.645 92.5208C768.645 95.7958 766.342 102.097 761.744 111.673C757.752 119.79 753.386 128.032 748.424 136.398C748.548 136.398 749.874 137.003 750.487 137.003C753.03 137.003 757.023 136.157 762.473 134.333C768.645 132.277 773.375 129.848 776.879 127.062C778.694 125.486 780.632 123.422 782.454 120.636C785.843 115.67 787.905 111.914 788.75 109.485L789.479 106.093C789.604 105.969 790.324 105.488 791.782 104.883L794.45 103.672C796.024 103.192 798.086 102.462 800.621 101.367C801.466 101.003 803.893 100.033 807.762 98.2168C811.15 96.6415 813.453 95.9119 814.547 95.9119C814.911 95.9119 815.151 96.0363 815.276 96.1524C812.732 104.759 809.709 111.789 806.312 116.996C806.188 117.237 804.134 120.387 800.132 126.332C798.318 129.002 797.473 130.577 797.473 131.182V133.247C797.109 133.247 798.807 133.371 802.56 133.612C806.312 133.852 808.615 133.977 809.344 133.977L823.634 133.852C829.93 133.728 837.559 128.281 846.398 117.245C849.546 113.365 851.609 109.004 852.454 104.153L852.446 104.162Z" fill="black"/>
<path d="M856.082 126.456C850.267 121.971 847.368 117.734 847.368 113.489C847.368 112.884 848.097 110.819 849.422 108.274C849.546 107.669 849.903 106.939 850.391 106.093V106.218C850.756 105.737 851.236 104.518 851.12 104.883C851.485 104.402 851.725 103.913 851.849 103.548C851.974 103.183 852.09 103.067 852.214 102.702L857.3 93.3665C857.3 93.1261 857.176 92.6369 856.82 92.0316L856.944 92.156C856.339 91.186 855.734 90.7051 855.246 90.7051L852.462 85.009C852.338 84.8847 851.858 84.4038 851.858 84.2794C851.013 82.9446 850.043 81.4936 850.043 79.1887C850.043 77.6134 850.408 76.038 851.013 74.0979C852.106 70.5825 855.13 66.9509 859.852 63.0707C864.938 59.0744 868.815 55.5589 871.474 52.6487C874.382 49.3737 879.708 46.5879 887.462 43.5616C889.765 42.7159 895.216 41.4972 903.931 39.9218C913.739 38.1061 923.067 37.2604 931.781 37.2604C935.054 37.2604 938.806 37.8656 942.799 38.9601C942.675 39.0844 942.675 39.3249 942.675 39.5653L954.421 51.3222C953.941 53.8675 951.398 56.7777 946.668 60.2932C939.527 65.2596 935.045 68.6589 933.107 70.2342C929.594 73.2605 926.811 76.4111 924.872 79.9266L932.502 87.4384C933.596 88.6489 934.565 90.3485 935.65 92.6535C936.495 94.2288 936.619 97.0146 936.619 100.53C936.619 101.741 934.44 105.38 933.596 105.621C933.355 105.745 933.115 105.745 932.867 105.745C932.502 105.745 932.626 105.87 932.262 105.87C931.897 105.87 931.533 105.87 931.168 105.745H930.928L930.323 105.505C920.755 121.258 915.909 132.045 915.909 137.741C915.909 140.286 916.879 144.042 918.933 148.892C918.933 153.618 917.964 155.194 913.242 155.194C908.52 155.194 900.161 153.137 889.508 149.373C885.756 148.038 882.119 146.587 879.7 145.252C873.04 141.737 867.953 138.346 864.681 134.947L856.082 126.465V126.456ZM859.711 85.4899C861.774 85.1251 865.402 84.5199 870.853 83.4337C880.901 81.4936 886.717 80.5235 888.166 80.5235C889.616 80.5235 890.709 80.8884 891.438 81.7341V83.3094C886.228 90.0998 881.754 94.3366 877.878 96.0363L873.156 98.0925L874.73 93.4909C874.73 92.8856 875.939 91.5508 878.482 89.4946C881.754 86.8248 883.933 85.0091 884.778 84.1634C881.025 84.7686 872.791 86.3439 860.2 88.6489C860.075 88.7732 860.804 89.2541 862.138 90.3485C862.502 90.589 862.983 91.3186 863.588 92.6535C862.618 95.0745 861.409 97.5038 860.075 99.9248L856.563 106.11C855.958 107.204 854.989 109.02 853.655 111.566C853.655 117.867 859.711 123.687 871.698 128.894C874.481 129.988 879.567 132.169 886.833 135.195C890.105 136.53 894.462 137.252 900.153 137.135C900.153 136.655 900.277 136.041 900.393 135.32C900.518 134.59 900.518 133.985 900.393 133.38L898.215 125.743C898.215 120.528 900.029 114.716 903.541 108.05C904.635 106.11 907.418 100.779 912.14 92.1726C913.474 88.1763 914.683 86.1118 915.652 86.1118L919.645 88.1763C919.645 88.0519 919.77 87.6954 919.886 87.3306C920.01 86.8497 920.01 86.3605 919.886 85.8796V82.729C917.583 78.7327 913.714 76.0629 908.263 74.612C906.689 74.2471 904.27 74.0067 900.998 74.0067C899.664 74.0067 897.726 74.2471 895.067 74.612C892.524 74.9768 890.585 75.0928 889.251 75.0928C888.406 75.0928 887.073 75.2172 885.134 75.3333C883.56 75.6981 882.111 75.2089 880.893 74.1228C880.769 73.5175 880.769 73.0284 880.769 72.5475C880.769 70.9722 881.249 69.8777 882.218 69.032C883.552 67.3323 884.761 66.0058 885.731 64.9113C887.429 63.2116 890.577 61.5203 895.299 59.9449C895.423 59.9449 895.423 60.0693 895.423 60.3097C895.423 61.6446 894.818 63.336 893.484 65.5249C892.151 67.5811 890.941 69.0403 889.848 69.6456C889.003 70.1265 888.638 70.8561 888.638 71.9505C888.638 72.0749 890.577 71.9505 894.57 71.4696C897.842 71.1048 899.656 70.8644 899.896 70.8644C902.564 70.4996 904.138 70.0187 904.502 69.6539C907.41 64.6875 911.891 59.348 917.823 53.9007C924.119 48.2047 929.81 44.3244 934.896 42.2682C934.532 42.0278 933.446 41.9034 931.624 42.0278C919.513 42.3926 906.557 44.2084 892.871 47.359C886.692 49.9044 880.76 51.9606 874.589 57.1757C873.015 58.5106 869.743 61.172 865.021 65.2927C858.485 70.9887 855.213 74.9851 855.213 77.29C855.213 78.0196 855.577 78.9897 856.422 80.3163L859.694 85.5314L859.711 85.4899Z" fill="black"/>
</g>
<defs>
<clipPath id="clip0_18_4">
<rect width="1379" height="786" fill="white"/>
</clipPath>
</defs>
</svg>
