<svg width="362" height="604" viewBox="0 0 362 604" fill="none" xmlns="http://www.w3.org/2000/svg">
<path d="M0.99998 152L0.999993 452L181 602L361 452L361 152L181 2.00001L0.99998 152Z" fill="#00D800" stroke="black" stroke-width="2" stroke-miterlimit="10"/>
<path d="M43.3088 207.776C42.5869 207.579 41.865 206.596 41.4077 205.348C41.0803 204.298 40.8158 203.185 40.8158 202.333C40.8158 199.119 41.0759 195.969 41.6005 193.344C41.9278 191.244 42.7169 188.488 43.8289 184.817C44.6136 182.192 47.4339 179.374 49.9896 177.996C48.7431 177.538 47.6312 176.748 46.6492 175.766L41.3404 170.52C39.8338 169.469 38.7174 168.092 38 166.319C44.8153 164.219 50.716 161.006 55.5002 157.267C57.0067 156.155 58.1232 155.167 58.8406 154.579C59.1007 154.382 59.2979 154.252 59.3652 154.184C61.921 152.152 63.6921 151.169 64.7413 151.169C67.0997 151.169 68.7408 151.891 69.5927 153.269C69.66 153.466 69.7227 153.529 69.79 153.597L75.4934 159.305C75.7534 159.565 75.9507 159.763 76.018 159.96C76.278 160.552 76.5426 161.208 76.7399 162.19C80.9367 162.321 83.2952 162.715 83.8198 163.438C84.8017 160.158 85.3936 157.205 85.5908 154.584C85.6581 152.946 88.7385 151.828 94.962 151.236C97.845 150.976 101.055 150.841 104.53 150.841C108.79 150.841 112.328 152.677 115.018 156.415L119.735 161.136C121.506 162.908 122.945 165.269 124.124 168.352C123.075 169.402 122.353 169.927 121.829 170.187C118.551 168.742 116.65 168.024 116.063 168.024C113.834 168.024 111.278 169.797 108.395 173.405C105.512 177.08 104.069 180.096 104.069 182.394V182.654L107.673 186.195C108.068 186.59 108.265 186.85 108.328 186.98C111.476 192.294 113.045 195.179 113.242 195.444C116.323 200.888 117.959 204.626 117.959 206.663C117.959 208.826 116.65 209.876 114.094 209.876C112.063 209.876 106.23 208.171 96.9886 204.958L91.6798 203.185C90.106 202.66 88.2049 202.072 86.6311 201.547C85.2546 201.089 84.1426 200.497 83.2234 199.644L81.9769 198.464C80.4031 200.825 77.1255 203.383 72.6686 205.945C70.2429 207.323 66.9024 208.898 62.7056 210.801C57.1995 213.359 53.8591 214.476 52.3481 214.476C52.0208 214.476 51.6935 214.409 51.2316 214.346C50.7743 214.279 50.447 214.216 50.2497 214.216C49.9224 214.216 49.5278 214.018 49.2005 213.691L43.2998 207.785L43.3088 207.776ZM105.705 200.56C106.36 200.69 107.212 200.43 108.328 199.837V197.867C108.328 197.015 106.884 194.129 104.069 189.143C101.051 183.897 98.957 181.007 97.7105 180.549C97.6433 181.142 97.7105 182.057 97.9078 183.238C98.1051 184.355 98.2351 185.208 98.2351 185.733C98.2351 187.896 98.3024 188.488 98.3652 187.505C98.2979 188.03 98.0378 188.358 97.446 188.425C96.0694 188.425 94.8902 186.85 93.9083 183.767C93.7782 183.309 93.711 182.259 93.711 180.617C93.711 178.974 94.6929 175.698 96.5941 170.645C97.7105 168.612 98.3651 167.365 98.6252 166.84C99.4771 165.264 100.786 163.559 102.625 161.787C104.786 159.623 106.687 158.573 108.198 158.573C109.445 158.573 111.148 158.968 113.31 159.691C110.489 155.822 107.741 153.92 105.05 153.92C103.414 153.92 100.594 154.05 96.7286 154.377C92.2717 154.705 89.7787 155.163 89.2541 155.625C88.9268 156.608 87.8148 160.678 85.9765 167.827C84.5999 173.14 83.1562 176.816 81.5196 178.979L79.6857 178.059C79.3584 177.336 79.0939 176.614 79.0311 175.896C78.9638 175.501 78.9638 174.846 79.0311 173.93C79.0984 173.01 79.0983 172.355 79.0983 172.027C79.0311 171.767 78.9683 171.502 78.9683 171.175C78.9683 170.452 79.4929 168.487 80.6049 165.336C78.901 164.879 77.3945 164.681 76.018 164.681C72.8076 164.681 71.2338 165.929 71.2338 168.487C71.2338 169.339 71.3638 170.52 71.6284 172.162C71.8884 173.8 72.0229 174.985 72.0229 175.837C72.0229 178.265 71.6956 179.84 71.1037 180.558C68.9426 178 67.8261 173.275 67.8261 166.256C67.8261 165.471 67.8261 164.286 67.8934 162.715C67.9606 161.077 67.9606 159.893 67.9606 159.107C67.9606 155.957 67.5033 154.386 66.6514 154.386C65.6021 154.386 63.7683 155.369 61.2125 157.339C57.5403 160.162 55.3119 161.8 54.5945 162.325C49.9403 165.013 46.2681 167.113 43.5823 168.491C47.5146 169.869 50.4649 170.852 52.496 171.444C53.348 172.036 54.0699 173.872 54.7245 176.955C55.3164 179.643 55.5764 181.81 55.5764 183.579C55.5764 187.712 54.8545 189.812 53.348 189.812C52.6261 189.812 52.236 189.354 52.1687 188.434C52.1687 188.632 52.1688 188.564 52.236 188.367V183.251C52.236 182.726 52.366 181.416 52.366 180.891C51.1195 181.873 49.9403 182.663 48.9584 183.318C48.0392 184.566 47.3845 185.616 47.0572 186.334C44.896 191.055 43.8468 196.633 43.8468 203.127C43.8468 203.454 44.1069 204.177 44.1069 204.374C44.3042 204.635 44.6315 204.769 45.0261 204.769C47.7119 204.769 52.8906 202.606 60.5579 198.276C66.324 195.063 70.3236 192.567 72.552 190.862C73.0094 187.649 73.2739 186.006 73.3367 185.876C73.664 183.911 74.4531 182.663 75.5651 182.201C76.417 182.461 76.9416 183.646 77.2017 185.679C77.529 188.169 77.7936 189.682 78.1209 190.14C78.7127 191.06 82.8378 192.828 90.6396 195.386C95.9484 197.158 99.9479 198.666 102.504 199.846L105.714 200.569L105.705 200.56ZM104.459 183.242C104.589 183.44 104.786 183.7 105.113 183.897L104.459 183.242Z" fill="black"/>
<path d="M156.637 163.169L156.569 163.564L162.995 169.927L162.667 172.158C162.6 173.078 162.143 174.19 161.358 175.568C160.242 177.404 158.865 178.391 157.296 178.454L154.283 178.584C156.444 181.927 158.542 184.88 160.968 188.228C161.69 189.606 162.739 191.311 164.048 193.344C165.16 194.982 165.685 197.149 165.685 199.707C165.685 203.908 164.246 206.923 161.82 208.431C159.919 209.549 156.511 210.137 152.054 210.137C145.042 210.137 138.684 209.086 133.115 206.923L133.047 206.856C128.788 205.218 125.443 203.248 123.084 200.888L118.036 195.834C114.233 192.819 112.332 189.273 112.332 185.275C112.332 182.52 112.727 180.289 113.579 178.651C114.103 177.668 114.628 176.421 116.005 174.123L115.48 173.531C113.251 172.023 111.745 169.793 110.956 166.772C109.907 162.837 109.252 159.489 109.252 157.393C109.252 154.965 109.449 153.193 109.777 152.147C110.498 150.244 112.005 149.261 114.301 149.261C117.251 149.261 121.053 150.639 125.64 153.327H125.573C128.066 154.705 130.29 156.28 132.258 157.985C132.716 156.738 133.505 155.23 134.747 153.722C135.863 152.475 137.63 151.887 140.123 151.887C140.647 151.887 141.369 152.542 142.284 153.852L147.66 159.233C148.117 159.758 148.776 160.611 149.494 161.858C149.561 162.119 149.691 162.253 149.754 162.451C150.476 162.711 151.328 162.846 152.18 162.908L156.637 163.169ZM116.655 190.718C118.161 192.621 120.13 194.062 122.421 195.112C126.748 197.54 130.747 199.115 134.482 199.77C136.711 200.165 138.347 200.362 139.334 200.425L143.988 200.623C143.921 200.623 144.512 200.69 145.759 200.753C146.414 200.82 147.203 200.82 148.185 200.753C151.198 200.623 153.493 199.64 155.067 197.737C156.116 196.49 156.641 195.179 156.641 193.671C156.641 190.786 155.525 187.9 153.363 184.947C152.314 183.57 150.216 180.814 147.135 176.681C146.284 175.501 145.037 173.598 143.463 170.973C143.396 170.775 143.266 170.38 143.069 169.725C142.939 169.003 142.939 168.608 143.001 168.545C143.329 168.545 145.163 169.137 145.624 169.2C147.458 169.46 148.965 169.528 150.149 169.33C151.92 168.805 152.247 167.953 153.556 166.05L148.247 164.802C146.611 164.407 145.23 163.622 144.118 162.505C143.199 161.064 142.087 159.422 140.84 157.519C139.858 156.141 139.006 155.356 138.284 155.158C136.648 156.339 135.599 157.653 135.007 159.027C134.877 159.354 134.482 160.665 133.895 162.962L132.976 166.44C132.451 164.802 131.859 163.29 131.142 161.782C130.684 160.799 128.129 158.896 123.537 156.141C118.95 153.386 116.067 152.008 114.884 152.008C114.032 152.008 113.507 152.008 113.44 152.075C113.31 152.336 113.045 152.73 112.655 153.193C112.328 154.373 112.198 156.078 112.198 158.309C112.198 159.816 112.458 161.131 113.05 162.374C113.444 164.012 113.969 165.655 114.686 167.23C115.866 169.855 117.112 171.166 118.421 171.166C118.879 171.166 119.668 170.313 120.847 168.608C122.026 166.835 122.618 165.722 122.681 165.13C122.156 165.327 121.434 165.588 120.582 165.915C119.601 165.193 119.143 164.012 119.143 162.505C119.143 160.997 119.798 160.144 121.107 160.144C121.959 160.144 122.878 160.472 123.927 161.194C125.039 161.917 125.564 162.639 125.564 163.425C125.564 164.407 124.255 166.902 121.632 170.838C120.255 172.871 118.811 175.101 117.305 177.462C115.928 179.625 115.206 181.33 115.206 182.578C115.206 182.38 115.139 182.905 115.009 184.018C114.942 184.804 114.942 185.463 115.139 186.051C115.269 188.084 115.794 189.659 116.646 190.71L116.655 190.718ZM139.006 186.518C138.612 186.585 137.89 186.716 136.845 186.913C135.599 187.173 133.832 186.585 131.536 185.14C130.16 184.288 129.438 183.107 129.438 181.73C129.438 180.81 129.833 179.302 130.617 177.202C131.536 174.711 132.518 173.463 133.567 173.463C135.401 173.463 136.845 174.383 137.894 176.286C138.092 176.614 138.746 178.319 139.926 181.532C140.383 183.17 140.58 184.288 140.58 184.876C140.58 185.993 140.056 186.514 139.006 186.514V186.518Z" fill="black"/>
<path d="M198.322 176.551C197.731 179.109 195.767 181.209 192.422 182.847C193.404 183.632 194.323 184.422 195.305 185.275C197.336 186.913 199.959 188.753 202.385 190.063C204.156 190.916 205.662 191.638 206.447 191.966C207.169 191.966 208.281 191.571 208.805 191.374C208.873 191.176 209.2 191.046 209.263 190.849L209.855 190.324C210.115 190.063 210.967 189.143 211.231 188.883C212.343 189.278 213.132 189.933 213.59 190.786L219.423 196.557C220.275 197.41 220.67 198.657 220.67 200.425C220.67 204.626 218.571 209.086 214.379 213.808C210.774 217.811 207.563 219.776 204.743 219.776C202.842 219.776 200.681 218.529 198.255 216.101L193.798 211.64C192.552 210.72 191.112 209.342 189.601 207.507C187.503 204.949 185.472 202.193 183.701 199.568L183.243 200.161H183.311C182.853 200.753 181.674 201.866 179.773 203.504C176.625 206.192 174.07 207.507 172.106 207.507C171.648 207.507 171.254 207.507 171.057 207.44C170.859 207.372 170.662 207.242 170.465 207.045L164.501 201.139L164.434 201.072C163.057 200.614 161.614 196.871 160.372 190.117C159.322 184.346 158.668 178.965 158.668 174.962V174.635C158.668 174.177 158.735 173.454 158.798 172.404C158.798 171.619 158.865 170.699 158.928 169.649L152.83 163.483H152.435C152.435 163.223 152.503 162.76 152.305 162.5C152.238 162.105 152.238 161.715 152.305 161.387C153.157 158.564 157.287 155.746 161.811 154.171C162.008 154.104 162.336 154.104 162.793 153.911C163.515 153.713 164.627 153.453 165.94 153.125C166.662 152.928 167.384 152.73 168.169 152.533C169.021 152.336 169.743 152.205 170.989 151.878C170.792 150.567 170.729 149.32 170.729 148.337C170.729 147.354 170.859 146.502 171.187 145.779C172.236 143.876 174.204 142.826 176.823 143.024C177.545 143.091 178.594 143.221 179.903 143.549C180.625 144.074 181.737 145.124 183.243 146.632C185.275 148.665 187.108 150.11 188.749 151.092H188.682C190.059 151.815 191.83 152.668 194.058 153.583C197.009 154.831 199.3 155.746 200.022 156.078V156.406L206.38 162.769C206.38 163.097 206.447 163.492 206.64 163.819C205.523 165.327 204.214 166.575 202.708 167.033C201.856 167.36 200.349 167.625 198.183 167.755C196.547 167.822 195.363 168.015 194.511 168.213C194.969 168.998 195.628 169.851 196.48 170.704L197.264 171.489C197.722 171.947 198.116 172.736 198.313 173.849C198.511 174.832 198.511 175.752 198.313 176.537L198.322 176.551ZM211.101 193.999C210.841 194.066 209.985 194.524 208.545 195.247C207.563 195.772 206.909 196.032 206.712 195.969C205.73 195.511 204.286 194.919 202.385 194.134C201.6 194.066 199.434 192.558 195.897 189.606C193.211 187.443 191.18 185.603 189.669 184.162L181.41 176.223C181.607 175.963 181.804 175.698 182.001 175.501C182.459 175.106 183.311 174.648 184.624 174.056C186.983 173.073 188.297 171.893 188.624 170.645C188.821 169.86 188.557 168.81 187.902 167.562C187.31 166.445 186.723 165.529 186.001 164.937C184.297 163.429 183.445 162.051 183.445 160.804C183.445 159.229 184.427 158.376 186.458 158.309L189.409 158.506C191.704 158.439 193.933 157.981 196.094 157.128C191.377 155.158 187.05 153.193 183.181 151.29C181.934 150.698 180.428 148.929 178.526 146.107C177.935 145.977 177.217 145.846 176.428 145.649C175.249 145.582 174.527 146.959 174.267 149.849C174.464 150.572 174.594 151.487 174.661 152.475C174.267 154.247 172.828 155.297 170.272 155.625L166.6 156.15C165.878 156.217 164.568 156.41 162.797 156.675C159.977 157.07 158.013 158.183 156.767 160.086L159.65 160.018C160.242 160.086 161.681 161.459 161.878 162.051C162.206 163.034 162.336 164.412 162.336 166.184C162.336 167.562 162.206 169.205 162.008 170.973C162.075 173.531 162.138 177.269 162.336 182.057C162.403 184.485 162.663 186.258 163.057 187.501C162.86 187.568 162.99 188.353 163.385 189.929C163.515 190.386 163.712 191.239 164.039 192.617C164.367 193.6 165.089 195.242 166.201 197.405C167.183 197.405 168.824 196.683 170.985 195.305C173.213 193.864 174.392 192.68 174.59 191.764C174.657 191.306 174.46 189.991 173.998 187.698C173.213 183.96 172.819 182.125 172.751 182.255C172.949 181.335 173.603 180.877 174.652 180.877C174.98 180.877 175.307 180.944 175.702 181.007C176.881 181.267 179.042 184.09 182.257 189.534C186.517 196.817 189.072 201.013 189.924 202.261C193.135 206.982 196.085 209.607 198.708 210.199C200.345 210.527 202.77 208.889 205.851 205.214C208.671 201.866 210.24 199.505 210.568 197.997C210.895 196.49 211.092 195.112 211.092 193.994L211.101 193.999ZM180.298 170.713C180.298 172.09 178.136 172.943 176.563 172.943C175.711 172.943 173.415 172.683 172.433 172.683C171.711 172.75 171.187 172.09 170.926 170.847C170.859 170.255 170.666 169.339 170.469 168.092C169.877 165.269 169.617 163.434 169.617 162.514C169.617 162.056 170.012 161.463 170.734 160.741C172.635 161.526 174.599 162.711 176.5 164.282C179.253 166.512 180.629 168.02 180.629 168.873C180.629 169.99 180.499 170.645 180.302 170.708L180.298 170.713Z" fill="black"/>
<path d="M274.546 159.956C273.892 160.611 272.712 161.136 271.071 161.463C270.349 161.661 269.892 161.724 269.435 161.724C268.91 161.724 268.453 161.791 268.058 161.921C268.91 162.379 269.695 162.904 269.892 163.496L275.923 169.465C275.856 169.465 275.856 169.398 275.793 169.398L275.923 169.465C276.183 169.725 276.317 169.99 276.317 170.187C276.317 172.615 275.86 174.778 274.941 176.748C274.349 177.996 273.434 179.634 272.058 181.932L278.416 188.228V190.131C278.416 192.819 277.564 195.641 275.793 198.46C275.008 199.707 273.564 201.61 271.731 203.903C269.699 205.806 267.668 207.251 265.637 208.234C264.785 208.629 262.624 209.154 259.279 209.809C258.687 210.006 257.902 209.939 256.786 209.939C255.212 209.939 253.051 209.872 250.625 209.612L248.594 209.414C245.514 209.347 243.415 208.956 242.433 207.969L238.174 203.706C238.107 203.773 238.044 203.903 237.977 203.966C237.255 205.016 235.618 206.066 232.995 207.314C230.897 208.297 228.866 209.086 227.489 209.612C223.427 210.922 220.212 211.577 217.853 211.577H216.737C216.342 211.577 215.952 211.38 215.62 211.052L209.72 205.084C209.262 204.886 208.935 204.558 208.343 203.836C209.065 202.063 210.312 199.968 212.078 197.54C213.849 195.112 215.029 193.339 215.553 192.029C219.288 183.96 221.122 179.369 221.122 178.252C221.122 177.004 221.055 175.954 221.055 175.101L215.351 169.46C215.154 169.393 215.221 169.393 215.024 169.33C213.975 167.953 212.338 165.79 210.437 162.967C207.814 159.031 206.11 156.276 206.11 155.49C206.11 154.508 206.635 153.718 207.747 153.13L207.68 153.197C208.532 152.605 209.451 152.412 210.303 152.412C212.988 152.412 218.037 154.05 224.853 157.003C230.094 159.363 234.094 161.333 235.6 162.316C235.995 162.644 236.322 163.039 236.519 163.564L237.044 164.089C237.044 163.303 237.044 162.514 237.111 161.661C237.178 158.313 237.569 155.822 238.16 154.445C239.08 152.214 241.044 150.509 244.061 149.329L248.715 147.556C248.975 147.229 250.025 147.098 251.536 146.771C251.796 146.641 251.93 146.641 252.455 146.511C252.585 146.443 252.849 146.38 253.177 146.313L253.961 146.116C254.419 146.048 255.598 145.985 257.764 145.985C261.499 145.985 264.973 147.623 268.054 150.841V151.039L274.214 157.205C274.282 157.272 274.345 157.402 274.412 157.465L274.542 159.956H274.546ZM269.368 184.162C263.664 187.245 260.059 188.753 258.683 188.753C257.306 188.753 256.714 187.833 256.714 186.065C256.714 185.41 257.172 184.229 258.091 182.524C259.467 180.164 260.517 178.063 262.875 174.585C263.991 172.947 265.695 170.452 266.153 169.075C266.61 167.567 266.875 166.584 266.875 166.189C266.875 165.731 266.677 165.206 266.35 164.681C263.924 166.517 259.925 168.549 254.419 170.847C252.585 171.57 250.356 172.552 247.733 173.67C246.227 174.325 244.98 174.653 244.061 174.653C243.801 174.653 243.667 174.585 243.604 174.455L243.474 174.258C243.868 173.208 244.523 172.288 245.442 171.435C247.146 169.86 249.442 166.449 252.257 161.203C255.665 154.84 259.925 151.824 265.103 152.152L262.942 150.644C260.189 149.594 257.894 149.069 256.06 149.069C254.226 149.069 251.733 149.661 248.652 150.904L242.294 153.462C241.182 154.71 240.523 157.003 240.196 160.413C240.196 160.611 240.129 163.169 239.936 168.087C239.479 171.04 238.299 173.14 236.331 174.518C235.874 174.06 235.349 172.745 234.757 170.452C234.035 167.629 233.645 166.059 233.511 165.664C233.053 164.879 230.103 163.106 224.664 160.283C218.764 157.263 214.634 155.755 212.213 155.755H210.442V156.738C210.639 156.998 211.361 158.313 212.67 160.674C214.441 163.887 215.423 165.659 215.49 165.987C215.818 166.315 216.472 166.512 217.454 166.642C218.436 166.772 219.028 166.902 219.288 167.037C221.319 168.545 222.696 170.12 223.288 171.695C223.745 172.943 224.01 175.043 224.01 177.861C224.01 179.634 222.763 183.045 220.275 188.228C218.113 192.621 215.75 197.082 213.065 201.61C213.132 201.61 213.849 201.938 214.181 201.938C215.558 201.938 217.719 201.48 220.669 200.493C224.01 199.38 226.57 198.065 228.466 196.557C229.448 195.704 230.498 194.587 231.484 193.079C233.318 190.391 234.434 188.358 234.892 187.043L235.286 185.208C235.354 185.14 235.744 184.88 236.533 184.552L237.977 183.897C238.829 183.637 239.945 183.242 241.317 182.65C241.774 182.452 243.088 181.927 245.182 180.944C247.016 180.092 248.262 179.697 248.854 179.697C249.052 179.697 249.182 179.764 249.249 179.827C247.872 184.485 246.236 188.291 244.397 191.109C244.33 191.239 243.218 192.944 241.052 196.162C240.071 197.607 239.613 198.46 239.613 198.787V199.905C239.416 199.905 240.335 199.972 242.366 200.102C244.397 200.232 245.644 200.3 246.038 200.3L253.773 200.232C257.181 200.165 261.31 197.217 266.094 191.244C267.798 189.143 268.915 186.783 269.372 184.158L269.368 184.162Z" fill="black"/>
<path d="M271.336 196.229C268.188 193.802 266.619 191.508 266.619 189.211C266.619 188.883 267.014 187.766 267.731 186.388C267.798 186.06 267.991 185.665 268.256 185.208V185.275C268.453 185.015 268.713 184.355 268.65 184.552C268.848 184.292 268.978 184.027 269.045 183.83C269.112 183.632 269.175 183.57 269.242 183.372L271.995 178.319C271.995 178.189 271.928 177.924 271.735 177.597L271.802 177.664C271.475 177.139 271.148 176.879 270.883 176.879L269.377 173.796C269.309 173.728 269.049 173.468 269.049 173.401C268.592 172.678 268.067 171.893 268.067 170.645C268.067 169.793 268.265 168.94 268.592 167.89C269.184 165.987 270.82 164.021 273.376 161.921C276.129 159.758 278.228 157.855 279.667 156.28C281.241 154.508 284.124 153 288.321 151.362C289.567 150.904 292.517 150.244 297.234 149.392C302.543 148.409 307.592 147.951 312.309 147.951C314.08 147.951 316.111 148.279 318.272 148.871C318.205 148.938 318.205 149.069 318.205 149.199L324.563 155.562C324.303 156.94 322.926 158.515 320.366 160.418C316.501 163.106 314.075 164.946 313.026 165.799C311.125 167.437 309.619 169.142 308.569 171.045L312.699 175.11C313.291 175.766 313.815 176.686 314.403 177.933C314.86 178.786 314.927 180.294 314.927 182.196C314.927 182.852 313.748 184.822 313.291 184.952C313.161 185.019 313.031 185.019 312.896 185.019C312.699 185.019 312.766 185.086 312.569 185.086C312.372 185.086 312.174 185.086 311.977 185.019H311.847L311.52 184.889C306.341 193.416 303.718 199.254 303.718 202.337C303.718 203.715 304.243 205.748 305.355 208.373C305.355 210.931 304.83 211.784 302.274 211.784C299.718 211.784 295.194 210.671 289.428 208.633C287.397 207.911 285.429 207.125 284.119 206.403C280.514 204.5 277.761 202.665 275.99 200.825L271.336 196.234V196.229ZM273.3 174.056C274.416 173.858 276.38 173.531 279.331 172.943C284.769 171.893 287.917 171.368 288.702 171.368C289.486 171.368 290.078 171.565 290.473 172.023V172.876C287.653 176.551 285.231 178.844 283.133 179.764L280.577 180.877L281.429 178.386C281.429 178.059 282.084 177.336 283.46 176.223C285.231 174.778 286.411 173.796 286.868 173.338C284.837 173.665 280.38 174.518 273.565 175.766C273.497 175.833 273.892 176.093 274.614 176.686C274.811 176.816 275.071 177.211 275.398 177.933C274.874 179.244 274.219 180.558 273.497 181.869L271.596 185.217C271.269 185.809 270.744 186.792 270.022 188.17C270.022 191.58 273.3 194.73 279.788 197.549C281.295 198.141 284.048 199.321 287.98 200.959C289.751 201.682 292.109 202.072 295.19 202.009C295.19 201.749 295.257 201.417 295.32 201.027C295.387 200.632 295.387 200.304 295.32 199.977L294.141 195.843C294.141 193.021 295.123 189.875 297.024 186.267C297.616 185.217 299.122 182.331 301.678 177.673C302.4 175.51 303.054 174.392 303.579 174.392L305.74 175.51C305.74 175.442 305.807 175.25 305.87 175.052C305.937 174.792 305.937 174.527 305.87 174.267V172.561C304.624 170.398 302.53 168.953 299.579 168.168C298.728 167.971 297.418 167.84 295.647 167.84C294.925 167.84 293.876 167.971 292.437 168.168C291.06 168.365 290.011 168.428 289.289 168.428C288.832 168.428 288.11 168.496 287.061 168.558C286.209 168.756 285.424 168.491 284.765 167.903C284.698 167.576 284.698 167.311 284.698 167.051C284.698 166.198 284.958 165.606 285.482 165.148C286.204 164.228 286.859 163.51 287.384 162.917C288.303 161.997 290.007 161.082 292.562 160.229C292.63 160.229 292.63 160.297 292.63 160.427C292.63 161.149 292.302 162.065 291.58 163.25C290.858 164.362 290.204 165.152 289.612 165.48C289.155 165.74 288.957 166.135 288.957 166.727C288.957 166.795 290.007 166.727 292.168 166.467C293.939 166.27 294.921 166.14 295.051 166.14C296.495 165.942 297.346 165.682 297.544 165.484C299.118 162.796 301.543 159.906 304.754 156.958C308.161 153.875 311.242 151.775 313.995 150.662C313.798 150.531 313.21 150.464 312.224 150.531C305.668 150.729 298.656 151.712 291.249 153.417C287.904 154.795 284.693 155.908 281.353 158.73C280.501 159.453 278.73 160.894 276.174 163.124C272.636 166.207 270.865 168.37 270.865 169.618C270.865 170.012 271.063 170.537 271.52 171.256L273.291 174.078L273.3 174.056Z" fill="black"/>
</svg>
