<svg width="362" height="658" viewBox="0 0 362 658" fill="none" xmlns="http://www.w3.org/2000/svg">
<path d="M0.999979 165.5L0.999993 492.5L181 656L361 492.5L361 165.5L181 1.99997L0.999979 165.5Z" fill="#00D800" stroke="black" stroke-width="2" stroke-miterlimit="10"/>
<path d="M76.5912 148.151C76.0434 148.001 75.4957 147.255 75.1486 146.308C74.9003 145.512 74.6995 144.667 74.6995 144.02C74.6995 141.582 74.8969 139.192 75.2949 137.2C75.5433 135.606 76.1421 133.515 76.9858 130.73C77.5812 128.738 79.7212 126.599 81.6604 125.554C80.7146 125.207 79.8709 124.607 79.1258 123.862L75.0976 119.881C73.9545 119.084 73.1073 118.039 72.563 116.694C77.7343 115.1 82.2116 112.662 85.8417 109.826C86.9848 108.981 87.832 108.232 88.3763 107.786C88.5737 107.636 88.7233 107.538 88.7744 107.486C90.7136 105.944 92.0575 105.198 92.8536 105.198C94.6431 105.198 95.8883 105.746 96.5348 106.792C96.5858 106.942 96.6334 106.989 96.6845 107.04L101.012 111.372C101.209 111.569 101.359 111.719 101.41 111.869C101.607 112.318 101.808 112.816 101.958 113.561C105.142 113.66 106.932 113.96 107.33 114.508C108.075 112.019 108.524 109.778 108.674 107.79C108.725 106.547 111.062 105.699 115.784 105.249C117.972 105.052 120.408 104.95 123.045 104.95C126.277 104.95 128.961 106.342 131.002 109.179L134.581 112.761C135.925 114.106 137.017 115.897 137.912 118.236C137.116 119.033 136.568 119.432 136.17 119.629C133.683 118.533 132.241 117.988 131.795 117.988C130.104 117.988 128.165 119.333 125.977 122.071C123.79 124.859 122.694 127.148 122.694 128.891V129.089L125.43 131.775C125.729 132.075 125.879 132.272 125.926 132.371C128.315 136.403 129.505 138.592 129.655 138.793C131.992 142.924 133.234 145.76 133.234 147.306C133.234 148.947 132.241 149.744 130.301 149.744C128.76 149.744 124.334 148.45 117.322 146.012L113.294 144.667C112.1 144.269 110.657 143.823 109.463 143.424C108.419 143.077 107.575 142.627 106.877 141.98L105.932 141.085C104.737 142.876 102.25 144.817 98.8687 146.761C97.0281 147.807 94.4935 149.002 91.309 150.446C87.1311 152.386 84.5965 153.234 83.45 153.234C83.2016 153.234 82.9533 153.183 82.6028 153.136C82.2558 153.085 82.0075 153.037 81.8578 153.037C81.6094 153.037 81.31 152.887 81.0616 152.638L76.5844 148.157L76.5912 148.151ZM123.936 142.675C124.433 142.774 125.079 142.576 125.926 142.127V140.632C125.926 139.985 124.831 137.796 122.694 134.012C120.404 130.032 118.816 127.839 117.87 127.492C117.819 127.941 117.87 128.636 118.02 129.531C118.169 130.379 118.268 131.026 118.268 131.425C118.268 133.066 118.319 133.515 118.367 132.77C118.316 133.168 118.118 133.417 117.669 133.468C116.625 133.468 115.73 132.272 114.985 129.933C114.886 129.586 114.835 128.789 114.835 127.543C114.835 126.296 115.58 123.811 117.023 119.976C117.87 118.434 118.367 117.487 118.564 117.089C119.21 115.894 120.204 114.6 121.599 113.255C123.239 111.614 124.681 110.817 125.828 110.817C126.773 110.817 128.066 111.116 129.706 111.665C127.566 108.729 125.481 107.286 123.439 107.286C122.197 107.286 120.057 107.384 117.125 107.633C113.743 107.881 111.851 108.229 111.453 108.58C111.205 109.325 110.361 112.414 108.966 117.838C107.922 121.87 106.826 124.659 105.585 126.3L104.193 125.602C103.945 125.054 103.744 124.505 103.696 123.96C103.645 123.661 103.645 123.164 103.696 122.469C103.747 121.771 103.747 121.274 103.747 121.025C103.696 120.828 103.649 120.627 103.649 120.378C103.649 119.83 104.047 118.339 104.891 115.948C103.598 115.601 102.455 115.451 101.41 115.451C98.9741 115.451 97.78 116.398 97.78 118.339C97.78 118.986 97.8786 119.881 98.0794 121.127C98.2767 122.37 98.3788 123.269 98.3788 123.916C98.3788 125.758 98.1304 126.954 97.6813 127.498C96.0414 125.557 95.1943 121.972 95.1943 116.646C95.1943 116.05 95.1943 115.151 95.2453 113.96C95.2964 112.717 95.2964 111.818 95.2964 111.222C95.2964 108.832 94.9493 107.64 94.3029 107.64C93.5068 107.64 92.1153 108.385 90.1761 109.88C87.3897 112.022 85.6988 113.265 85.1545 113.663C81.623 115.703 78.8366 117.297 76.7987 118.342C79.7824 119.387 82.021 120.133 83.5622 120.583C84.2086 121.032 84.7564 122.425 85.2531 124.764C85.7022 126.804 85.8995 128.448 85.8995 129.79C85.8995 132.926 85.3518 134.52 84.2087 134.52C83.6609 134.52 83.3649 134.172 83.3139 133.474C83.3139 133.624 83.3139 133.573 83.3649 133.423V129.541C83.3649 129.143 83.4636 128.149 83.4636 127.75C82.5178 128.496 81.623 129.095 80.8779 129.593C80.1805 130.539 79.6837 131.336 79.4354 131.881C77.7955 135.463 76.9994 139.696 76.9994 144.623C76.9994 144.871 77.1968 145.42 77.1968 145.569C77.3465 145.767 77.5948 145.869 77.8942 145.869C79.9321 145.869 83.8616 144.228 89.6794 140.942C94.0546 138.504 97.0893 136.611 98.7802 135.317C99.1272 132.879 99.328 131.632 99.3756 131.533C99.624 130.042 100.223 129.095 101.066 128.745C101.713 128.942 102.111 129.841 102.308 131.384C102.557 133.274 102.757 134.421 103.006 134.768C103.455 135.466 106.585 136.808 112.505 138.749C116.533 140.094 119.568 141.238 121.507 142.134L123.943 142.682L123.936 142.675ZM122.99 129.535C123.089 129.685 123.239 129.882 123.487 130.032L122.99 129.535Z" fill="black"/>
<path d="M162.581 114.304L162.53 114.603L167.406 119.432L167.157 121.124C167.106 121.822 166.759 122.667 166.164 123.712C165.317 125.105 164.272 125.854 163.081 125.901L160.795 126C162.435 128.537 164.027 130.778 165.868 133.318C166.416 134.363 167.212 135.657 168.205 137.2C169.049 138.442 169.447 140.087 169.447 142.028C169.447 145.215 168.355 147.504 166.514 148.648C165.072 149.496 162.486 149.942 159.104 149.942C153.783 149.942 148.959 149.145 144.733 147.504L144.682 147.452C141.45 146.21 138.912 144.715 137.123 142.924L133.292 139.089C130.407 136.801 128.964 134.111 128.964 131.077C128.964 128.986 129.264 127.294 129.91 126.051C130.308 125.306 130.706 124.359 131.751 122.615L131.353 122.166C129.662 121.022 128.519 119.33 127.92 117.038C127.124 114.052 126.627 111.511 126.627 109.921C126.627 108.079 126.777 106.734 127.025 105.941C127.573 104.497 128.716 103.751 130.458 103.751C132.696 103.751 135.581 104.796 139.062 106.836H139.011C140.903 107.881 142.59 109.077 144.084 110.371C144.431 109.424 145.029 108.28 145.972 107.136C146.819 106.189 148.159 105.743 150.051 105.743C150.449 105.743 150.997 106.24 151.691 107.235L155.77 111.317C156.117 111.716 156.617 112.363 157.162 113.309C157.213 113.507 157.311 113.609 157.359 113.759C157.907 113.956 158.553 114.058 159.199 114.106L162.581 114.304ZM132.244 135.208C133.387 136.651 134.881 137.744 136.619 138.541C139.902 140.383 142.937 141.579 145.771 142.076C147.462 142.375 148.704 142.525 149.452 142.573L152.984 142.723C152.933 142.723 153.382 142.774 154.328 142.821C154.824 142.873 155.423 142.873 156.168 142.821C158.454 142.723 160.196 141.977 161.39 140.533C162.187 139.587 162.585 138.592 162.585 137.448C162.585 135.259 161.737 133.069 160.098 130.829C159.302 129.783 157.709 127.693 155.372 124.556C154.726 123.661 153.78 122.217 152.586 120.225C152.535 120.075 152.436 119.776 152.286 119.278C152.188 118.73 152.188 118.431 152.235 118.383C152.484 118.383 153.875 118.832 154.225 118.88C155.617 119.078 156.76 119.129 157.658 118.979C159.002 118.58 159.25 117.933 160.244 116.49L156.216 115.543C154.974 115.243 153.926 114.647 153.082 113.8C152.385 112.707 151.541 111.46 150.595 110.016C149.85 108.971 149.204 108.375 148.656 108.225C147.414 109.121 146.618 110.119 146.169 111.161C146.07 111.409 145.771 112.403 145.325 114.147L144.628 116.786C144.23 115.543 143.781 114.395 143.236 113.251C142.889 112.506 140.95 111.062 137.466 108.971C133.986 106.88 131.798 105.835 130.9 105.835C130.254 105.835 129.856 105.835 129.805 105.886C129.706 106.084 129.505 106.383 129.209 106.734C128.961 107.629 128.862 108.923 128.862 110.616C128.862 111.76 129.06 112.758 129.509 113.701C129.808 114.944 130.206 116.19 130.75 117.385C131.645 119.377 132.591 120.371 133.584 120.371C133.931 120.371 134.53 119.725 135.425 118.431C136.32 117.086 136.769 116.241 136.816 115.792C136.418 115.941 135.871 116.139 135.224 116.387C134.479 115.839 134.132 114.944 134.132 113.8C134.132 112.655 134.629 112.008 135.622 112.008C136.269 112.008 136.966 112.257 137.762 112.805C138.606 113.354 139.004 113.902 139.004 114.498C139.004 115.243 138.011 117.137 136.02 120.123C134.976 121.665 133.88 123.358 132.737 125.149C131.693 126.79 131.145 128.084 131.145 129.031C131.145 128.881 131.094 129.279 130.995 130.124C130.944 130.72 130.944 131.22 131.094 131.666C131.193 133.209 131.591 134.404 132.237 135.201L132.244 135.208ZM149.204 132.02C148.904 132.072 148.357 132.17 147.564 132.32C146.618 132.518 145.278 132.072 143.536 130.975C142.491 130.328 141.944 129.433 141.944 128.387C141.944 127.689 142.243 126.545 142.838 124.951C143.536 123.062 144.281 122.115 145.077 122.115C146.468 122.115 147.564 122.813 148.36 124.257C148.51 124.505 149.007 125.799 149.901 128.237C150.248 129.48 150.398 130.328 150.398 130.774C150.398 131.622 150 132.017 149.204 132.017V132.02Z" fill="black"/>
<path d="M194.212 124.458C193.763 126.399 192.272 127.992 189.734 129.235C190.48 129.831 191.177 130.43 191.922 131.077C193.463 132.32 195.454 133.716 197.294 134.71C198.638 135.357 199.781 135.906 200.376 136.154C200.924 136.154 201.768 135.855 202.166 135.705C202.217 135.555 202.465 135.456 202.513 135.306L202.962 134.908C203.159 134.71 203.806 134.012 204.007 133.815C204.85 134.115 205.449 134.612 205.796 135.259L210.222 139.638C210.869 140.285 211.168 141.231 211.168 142.573C211.168 145.76 209.576 149.145 206.395 152.727C203.66 155.764 201.224 157.256 199.084 157.256C197.641 157.256 196.001 156.309 194.161 154.467L190.779 151.082C189.833 150.384 188.741 149.339 187.594 147.946C186.002 146.005 184.461 143.915 183.117 141.923L182.77 142.372H182.821C182.474 142.821 181.579 143.666 180.137 144.909C177.749 146.949 175.809 147.946 174.319 147.946C173.972 147.946 173.673 147.946 173.523 147.895C173.373 147.844 173.224 147.745 173.074 147.595L168.549 143.114L168.498 143.063C167.454 142.716 166.358 139.876 165.416 134.751C164.62 130.372 164.123 126.29 164.123 123.252V123.004C164.123 122.656 164.174 122.108 164.221 121.311C164.221 120.715 164.272 120.017 164.32 119.221L159.693 114.542H159.394C159.394 114.344 159.445 113.994 159.295 113.796C159.244 113.497 159.244 113.2 159.295 112.952C159.942 110.81 163.075 108.671 166.508 107.476C166.657 107.425 166.906 107.425 167.253 107.279C167.801 107.129 168.644 106.931 169.641 106.683C170.189 106.533 170.737 106.383 171.332 106.233C171.978 106.084 172.526 105.985 173.472 105.736C173.322 104.742 173.275 103.795 173.275 103.05C173.275 102.304 173.373 101.657 173.622 101.109C174.418 99.6649 175.911 98.8681 177.898 99.0179C178.446 99.069 179.242 99.1678 180.236 99.4163C180.783 99.8147 181.627 100.612 182.77 101.756C184.311 103.298 185.703 104.395 186.948 105.14H186.897C187.941 105.689 189.285 106.336 190.976 107.03C193.215 107.977 194.953 108.671 195.501 108.923V109.172L200.325 114C200.325 114.249 200.376 114.549 200.523 114.797C199.676 115.941 198.682 116.888 197.539 117.235C196.893 117.484 195.75 117.685 194.106 117.784C192.864 117.835 191.966 117.981 191.32 118.131C191.667 118.727 192.167 119.374 192.813 120.021L193.409 120.617C193.756 120.964 194.055 121.563 194.205 122.408C194.355 123.153 194.355 123.852 194.205 124.447L194.212 124.458ZM203.908 137.697C203.711 137.748 203.061 138.095 201.969 138.643C201.224 139.042 200.727 139.239 200.577 139.192C199.832 138.844 198.737 138.395 197.294 137.799C196.699 137.748 195.055 136.604 192.371 134.363C190.333 132.722 188.792 131.326 187.646 130.233L181.379 124.209C181.528 124.012 181.678 123.811 181.828 123.661C182.175 123.361 182.821 123.014 183.818 122.564C185.608 121.819 186.604 120.923 186.853 119.976C187.002 119.381 186.802 118.584 186.305 117.637C185.856 116.789 185.41 116.095 184.863 115.645C183.57 114.501 182.923 113.456 182.923 112.509C182.923 111.314 183.668 110.667 185.21 110.616L187.448 110.766C189.19 110.715 190.881 110.367 192.521 109.72C188.942 108.225 185.659 106.734 182.723 105.29C181.777 104.841 180.634 103.499 179.191 101.357C178.742 101.259 178.198 101.16 177.599 101.01C176.704 100.959 176.156 102.004 175.959 104.197C176.109 104.745 176.207 105.44 176.258 106.189C175.959 107.534 174.867 108.331 172.928 108.58L170.141 108.978C169.594 109.029 168.6 109.175 167.256 109.376C165.116 109.676 163.626 110.52 162.68 111.964L164.868 111.913C165.317 111.964 166.409 113.006 166.559 113.456C166.807 114.201 166.906 115.247 166.906 116.592C166.906 117.637 166.807 118.883 166.657 120.225C166.708 122.166 166.756 125.002 166.906 128.636C166.957 130.478 167.154 131.823 167.454 132.766C167.304 132.817 167.403 133.413 167.702 134.608C167.801 134.956 167.95 135.603 168.199 136.648C168.447 137.394 168.995 138.64 169.838 140.281C170.584 140.281 171.829 139.733 173.469 138.688C175.159 137.595 176.054 136.696 176.204 136.001C176.255 135.654 176.105 134.656 175.755 132.916C175.159 130.08 174.86 128.687 174.809 128.786C174.959 128.088 175.455 127.74 176.252 127.74C176.5 127.74 176.748 127.791 177.048 127.839C177.942 128.036 179.582 130.178 182.022 134.309C185.254 139.835 187.193 143.019 187.839 143.966C190.275 147.548 192.514 149.54 194.504 149.989C195.746 150.238 197.587 148.995 199.924 146.206C202.064 143.666 203.255 141.875 203.503 140.731C203.751 139.587 203.901 138.541 203.901 137.693L203.908 137.697ZM180.535 120.028C180.535 121.073 178.895 121.72 177.701 121.72C177.055 121.72 175.313 121.522 174.568 121.522C174.02 121.573 173.622 121.073 173.424 120.13C173.373 119.68 173.227 118.986 173.077 118.039C172.628 115.897 172.431 114.504 172.431 113.806C172.431 113.459 172.73 113.01 173.278 112.461C174.721 113.057 176.211 113.956 177.653 115.148C179.742 116.84 180.787 117.984 180.787 118.631C180.787 119.479 180.688 119.976 180.538 120.024L180.535 120.028Z" fill="black"/>
<path d="M252.048 111.865C251.551 112.363 250.657 112.761 249.411 113.01C248.864 113.159 248.517 113.207 248.17 113.207C247.772 113.207 247.425 113.258 247.125 113.357C247.772 113.704 248.367 114.103 248.517 114.552L253.093 119.081C253.042 119.081 253.042 119.03 252.994 119.03L253.093 119.081C253.29 119.278 253.392 119.479 253.392 119.629C253.392 121.471 253.045 123.113 252.348 124.607C251.898 125.554 251.204 126.797 250.16 128.54L254.984 133.318V134.762C254.984 136.801 254.338 138.943 252.994 141.081C252.399 142.028 251.303 143.472 249.912 145.212C248.37 146.656 246.829 147.752 245.288 148.498C244.642 148.797 243.002 149.196 240.464 149.693C240.015 149.843 239.419 149.792 238.572 149.792C237.378 149.792 235.738 149.741 233.897 149.543L232.356 149.393C230.019 149.342 228.427 149.046 227.682 148.297L224.45 145.062C224.399 145.113 224.351 145.212 224.3 145.26C223.752 146.056 222.51 146.853 220.52 147.8C218.928 148.546 217.387 149.145 216.342 149.543C213.26 150.538 210.82 151.035 209.031 151.035H208.184C207.884 151.035 207.588 150.885 207.337 150.636L202.859 146.107C202.512 145.958 202.264 145.709 201.815 145.161C202.363 143.816 203.308 142.226 204.649 140.383C205.993 138.541 206.888 137.196 207.286 136.202C210.12 130.08 211.511 126.596 211.511 125.748C211.511 124.802 211.46 124.005 211.46 123.358L207.133 119.078C206.983 119.026 207.034 119.026 206.884 118.979C206.088 117.933 204.846 116.292 203.404 114.15C201.413 111.164 200.121 109.073 200.121 108.477C200.121 107.732 200.519 107.132 201.362 106.686L201.311 106.737C201.958 106.288 202.655 106.141 203.302 106.141C205.34 106.141 209.17 107.384 214.342 109.625C218.319 111.416 221.354 112.911 222.497 113.657C222.796 113.905 223.045 114.205 223.194 114.603L223.592 115.002C223.592 114.406 223.592 113.806 223.643 113.159C223.694 110.619 223.99 108.729 224.439 107.684C225.137 105.992 226.627 104.698 228.917 103.802L232.448 102.457C232.645 102.209 233.442 102.11 234.588 101.861C234.785 101.762 234.888 101.762 235.286 101.664C235.384 101.613 235.585 101.565 235.833 101.514L236.429 101.364C236.776 101.313 237.671 101.265 239.314 101.265C242.148 101.265 244.784 102.508 247.122 104.95V105.099L251.796 109.778C251.847 109.829 251.895 109.928 251.946 109.976L252.045 111.865H252.048ZM248.119 130.233C243.791 132.572 241.056 133.716 240.011 133.716C238.967 133.716 238.518 133.018 238.518 131.677C238.518 131.179 238.865 130.284 239.562 128.99C240.607 127.199 241.403 125.605 243.192 122.966C244.039 121.723 245.332 119.83 245.679 118.785C246.026 117.641 246.227 116.895 246.227 116.595C246.227 116.248 246.077 115.849 245.829 115.451C243.988 116.844 240.954 118.386 236.776 120.13C235.384 120.678 233.693 121.424 231.703 122.272C230.56 122.769 229.614 123.017 228.917 123.017C228.719 123.017 228.617 122.966 228.57 122.867L228.471 122.718C228.77 121.921 229.267 121.223 229.965 120.576C231.257 119.381 232.999 116.793 235.136 112.812C237.722 107.984 240.954 105.695 244.883 105.944L243.243 104.8C241.154 104.003 239.412 103.605 238.021 103.605C236.629 103.605 234.738 104.054 232.401 104.997L227.576 106.938C226.732 107.885 226.232 109.625 225.984 112.213C225.984 112.363 225.933 114.304 225.787 118.036C225.44 120.276 224.545 121.87 223.051 122.915C222.704 122.568 222.306 121.57 221.857 119.83C221.309 117.688 221.013 116.496 220.911 116.197C220.564 115.601 218.326 114.256 214.199 112.114C209.722 109.822 206.588 108.678 204.751 108.678H203.407V109.424C203.557 109.621 204.105 110.619 205.098 112.41C206.442 114.848 207.187 116.193 207.238 116.442C207.486 116.691 207.983 116.84 208.728 116.939C209.473 117.038 209.922 117.137 210.12 117.239C211.661 118.383 212.705 119.578 213.154 120.773C213.501 121.72 213.702 123.314 213.702 125.452C213.702 126.797 212.756 129.385 210.868 133.318C209.228 136.651 207.435 140.036 205.397 143.472C205.448 143.472 205.993 143.72 206.245 143.72C207.289 143.72 208.929 143.373 211.167 142.624C213.702 141.78 215.645 140.782 217.084 139.638C217.829 138.991 218.625 138.143 219.374 136.999C220.765 134.959 221.612 133.417 221.959 132.419L222.259 131.026C222.31 130.975 222.606 130.778 223.204 130.529L224.3 130.032C224.946 129.834 225.793 129.535 226.835 129.085C227.182 128.935 228.178 128.537 229.767 127.791C231.159 127.144 232.105 126.845 232.554 126.845C232.703 126.845 232.802 126.896 232.853 126.943C231.809 130.478 230.567 133.365 229.172 135.504C229.121 135.603 228.277 136.897 226.634 139.338C225.889 140.434 225.542 141.081 225.542 141.33V142.178C225.392 142.178 226.089 142.229 227.631 142.328C229.172 142.426 230.118 142.478 230.417 142.478L236.286 142.426C238.871 142.375 242.005 140.138 245.635 135.606C246.928 134.012 247.775 132.221 248.122 130.229L248.119 130.233Z" fill="black"/>
<path d="M249.613 139.389C247.224 137.547 246.034 135.807 246.034 134.064C246.034 133.815 246.333 132.967 246.877 131.922C246.928 131.673 247.075 131.373 247.275 131.026V131.077C247.425 130.88 247.623 130.379 247.575 130.529C247.725 130.331 247.823 130.131 247.874 129.981C247.925 129.831 247.973 129.783 248.024 129.633L250.113 125.799C250.113 125.701 250.062 125.5 249.916 125.251L249.967 125.302C249.718 124.904 249.47 124.706 249.269 124.706L248.126 122.367C248.075 122.316 247.878 122.118 247.878 122.067C247.531 121.519 247.133 120.923 247.133 119.976C247.133 119.33 247.282 118.683 247.531 117.886C247.98 116.442 249.222 114.951 251.161 113.357C253.25 111.716 254.842 110.272 255.934 109.077C257.128 107.732 259.316 106.588 262.5 105.345C263.446 104.997 265.685 104.497 269.264 103.85C273.292 103.104 277.123 102.757 280.702 102.757C282.046 102.757 283.587 103.005 285.227 103.455C285.176 103.506 285.176 103.605 285.176 103.703L290 108.532C289.803 109.577 288.758 110.772 286.816 112.216C283.883 114.256 282.042 115.652 281.246 116.299C279.804 117.542 278.661 118.836 277.865 120.28L280.998 123.365C281.447 123.862 281.845 124.56 282.291 125.506C282.638 126.153 282.689 127.298 282.689 128.741C282.689 129.238 281.794 130.733 281.447 130.832C281.348 130.883 281.25 130.883 281.148 130.883C280.998 130.883 281.049 130.934 280.899 130.934C280.75 130.934 280.6 130.934 280.45 130.883H280.352L280.103 130.784C276.174 137.254 274.183 141.684 274.183 144.024C274.183 145.069 274.581 146.611 275.425 148.603C275.425 150.544 275.027 151.191 273.088 151.191C271.149 151.191 267.716 150.347 263.341 148.801C261.799 148.253 260.306 147.657 259.312 147.109C256.577 145.665 254.488 144.272 253.144 142.876L249.613 139.393V139.389ZM251.103 122.564C251.95 122.415 253.44 122.166 255.679 121.72C259.806 120.923 262.194 120.525 262.789 120.525C263.385 120.525 263.834 120.675 264.133 121.022V121.669C261.993 124.458 260.156 126.198 258.564 126.896L256.625 127.74L257.271 125.85C257.271 125.602 257.768 125.054 258.812 124.209C260.156 123.113 261.051 122.367 261.398 122.02C259.857 122.268 256.475 122.915 251.304 123.862C251.253 123.913 251.552 124.11 252.1 124.56C252.249 124.659 252.447 124.958 252.695 125.506C252.297 126.501 251.8 127.498 251.253 128.493L249.81 131.033C249.562 131.482 249.164 132.228 248.616 133.274C248.616 135.861 251.103 138.252 256.026 140.39C257.169 140.84 259.258 141.735 262.242 142.978C263.586 143.526 265.375 143.823 267.712 143.775C267.712 143.577 267.763 143.325 267.811 143.029C267.862 142.73 267.862 142.481 267.811 142.232L266.916 139.096C266.916 136.954 267.661 134.567 269.104 131.83C269.553 131.033 270.696 128.843 272.635 125.309C273.183 123.668 273.68 122.82 274.078 122.82L275.718 123.668C275.718 123.617 275.769 123.47 275.816 123.32C275.867 123.123 275.867 122.922 275.816 122.724V121.43C274.871 119.789 273.282 118.693 271.043 118.097C270.397 117.947 269.403 117.848 268.059 117.848C267.512 117.848 266.716 117.947 265.623 118.097C264.579 118.247 263.783 118.294 263.235 118.294C262.888 118.294 262.34 118.345 261.544 118.393C260.898 118.543 260.302 118.342 259.802 117.896C259.751 117.647 259.751 117.446 259.751 117.249C259.751 116.602 259.949 116.153 260.347 115.805C260.894 115.107 261.391 114.562 261.789 114.113C262.487 113.415 263.779 112.72 265.719 112.073C265.77 112.073 265.77 112.124 265.77 112.223C265.77 112.771 265.521 113.466 264.974 114.365C264.426 115.209 263.929 115.809 263.48 116.057C263.133 116.255 262.983 116.554 262.983 117.004C262.983 117.055 263.779 117.004 265.419 116.806C266.763 116.656 267.508 116.558 267.607 116.558C268.702 116.408 269.349 116.21 269.499 116.061C270.693 114.021 272.533 111.828 274.969 109.591C277.555 107.252 279.892 105.658 281.981 104.813C281.831 104.715 281.386 104.664 280.637 104.715C275.663 104.865 270.342 105.61 264.722 106.904C262.184 107.95 259.748 108.794 257.213 110.936C256.567 111.484 255.223 112.577 253.284 114.27C250.599 116.609 249.256 118.25 249.256 119.197C249.256 119.496 249.405 119.895 249.752 120.44L251.096 122.581L251.103 122.564Z" fill="black"/>
</svg>
