<svg width="503" height="135" viewBox="0 0 503 135" fill="none" xmlns="http://www.w3.org/2000/svg">
<path d="M10.1574 113.428C8.88888 113.074 7.62039 111.362 6.82388 109.178C6.26338 107.347 5.79135 105.399 5.79135 103.894C5.79135 98.2553 6.26336 92.7646 7.17787 88.1595C7.73838 84.4991 9.12488 79.6579 11.0719 73.2226C12.4584 68.6175 17.385 63.6878 21.869 61.2672C19.686 60.4701 17.739 59.0827 16.028 57.3706L6.73534 48.19C4.10981 46.3597 2.1333 43.9391 0.894284 40.8396C12.8419 37.1791 23.1671 31.5409 31.5452 24.9875C34.1707 23.0392 36.1473 21.3271 37.3863 20.2939C37.8583 19.9397 38.1828 19.733 38.3008 19.6149C42.7848 16.0431 45.8824 14.3309 47.7114 14.3309C51.8414 14.3309 54.703 15.6003 56.2075 17.9914C56.3255 18.3456 56.4435 18.4637 56.5615 18.5522L66.5326 28.5299C67.0046 29.0022 67.3291 29.3269 67.4471 29.6811C67.9191 30.7143 68.3616 31.8656 68.7156 33.5777C76.0612 33.8139 80.1913 34.4928 81.1058 35.7622C82.8168 30.0059 83.8493 24.8399 84.2033 20.2644C84.3213 17.401 89.7199 15.4527 100.606 14.4195C105.65 13.9472 111.285 13.7405 117.362 13.7405C124.825 13.7405 131.02 16.9582 135.711 23.5115L143.971 31.777C147.069 34.8766 149.606 39.0093 151.671 44.4114C149.842 46.2417 148.573 47.1568 147.659 47.6291C141.936 45.0904 138.602 43.8506 137.569 43.8506C133.675 43.8506 129.191 46.9501 124.147 53.2673C119.102 59.7026 116.565 64.9866 116.565 69.0013L116.565 69.4736L122.878 75.6727C123.557 76.3517 123.911 76.824 124.029 77.0602C129.545 86.3588 132.289 91.4067 132.643 91.879C138.041 101.414 140.903 107.967 140.903 111.51C140.903 115.288 138.602 117.148 134.118 117.148C130.548 117.148 120.341 114.166 104.175 108.528L94.8824 105.429C92.1389 104.513 88.8054 103.48 86.0323 102.565C83.6133 101.768 81.6663 100.735 80.0733 99.2294L77.8903 97.163C75.1467 101.296 69.3941 105.783 61.606 110.24C57.358 112.661 51.5169 115.406 44.1713 118.742C34.5247 123.229 28.6836 125.177 26.0286 125.177C25.4681 125.177 24.8781 125.059 24.0816 124.941C23.2851 124.823 22.695 124.705 22.3705 124.705C21.81 124.705 21.102 124.351 20.5415 123.79L10.2164 113.458L10.1574 113.428ZM119.397 100.794C120.548 101.03 122.023 100.558 123.999 99.5246L123.999 96.0708C123.999 94.5653 121.462 89.5174 116.536 80.8092C111.255 71.6285 107.597 66.5807 105.414 65.7541C105.296 66.7873 105.414 68.3814 105.768 70.4478C106.122 72.3961 106.329 73.9016 106.329 74.8167C106.329 78.5952 106.447 79.6284 106.565 77.9162C106.447 78.8313 106.004 79.4217 104.972 79.5103C102.553 79.5103 100.488 76.765 98.7765 71.3629C98.5405 70.5658 98.4225 68.7356 98.4225 65.8427C98.4225 62.9498 100.134 57.223 103.467 48.3966C105.414 44.8247 106.565 42.6698 107.037 41.7252C108.541 38.9798 110.813 35.9688 114.028 32.8693C117.804 29.0907 121.138 27.231 123.793 27.231C125.976 27.231 128.955 27.91 132.731 29.1793C127.805 22.4193 122.967 19.0836 118.276 19.0836C115.415 19.0836 110.488 19.3197 103.703 19.8806C95.915 20.4415 91.5489 21.268 90.6344 22.0651C90.0739 23.7772 88.0974 30.8914 84.9113 43.4078C82.4923 52.7065 79.9848 59.1417 77.1232 62.9202L73.9077 61.3262C73.3472 60.0569 72.8752 58.7875 72.7572 57.5477C72.6392 56.8687 72.6392 55.7175 72.7572 54.0939C72.8752 52.4998 72.8752 51.3486 72.8752 50.7582C72.7572 50.2858 72.6392 49.8431 72.6392 49.2527C72.6392 47.9833 73.5537 44.559 75.5007 39.0389C72.5212 38.2418 69.8662 37.8876 67.4766 37.8876C61.8421 37.8876 59.0985 40.072 59.0985 44.559C59.0985 46.0645 59.3345 48.1309 59.777 50.9943C60.2195 53.8577 60.4555 55.9241 60.4555 57.4296C60.4555 61.6804 59.895 64.4258 58.8625 65.6951C55.0865 61.2081 53.1395 52.9426 53.1395 40.6624C53.1395 39.275 53.1394 37.2086 53.2574 34.4633C53.3754 31.5999 53.3755 29.5335 53.3755 28.1461C53.3755 22.6259 52.579 19.8806 51.0744 19.8806C49.2454 19.8806 46.0298 21.5928 41.5458 25.0466C35.1147 29.9763 31.2207 32.8397 29.9522 33.7844C21.8101 38.478 15.379 42.1679 10.6884 44.5886C17.562 47.0092 22.7246 48.7213 26.2941 49.7545C27.7986 50.7877 29.0377 54.0053 30.1882 59.4074C31.2207 64.101 31.6927 67.9091 31.6927 71.0086C31.6927 78.2409 30.4242 81.9309 27.7986 81.9309C26.5301 81.9309 25.8516 81.1339 25.7336 79.5103C25.7336 79.8645 25.7336 79.7464 25.8516 79.3922L25.8516 70.4478C25.8516 69.5327 26.0876 67.2301 26.0876 66.315C23.9046 68.0271 21.8396 69.4146 20.1285 70.5658C18.5355 72.7503 17.385 74.5805 16.795 75.8499C13.0189 84.1153 11.1604 93.8863 11.1604 105.251C11.1604 105.812 11.6324 107.082 11.6324 107.436C11.9864 107.908 12.5469 108.115 13.2255 108.115C17.916 108.115 27.0021 104.336 40.4248 96.7498C50.5139 91.1115 57.535 86.7721 61.429 83.7611C62.2256 78.1229 62.6976 75.2595 62.8156 75.0233C63.3761 71.5695 64.7626 69.3851 66.7096 68.588C68.2141 69.0603 69.1286 71.1267 69.5711 74.6691C70.1316 79.038 70.6037 81.6652 71.1642 82.4623C72.1967 84.0563 79.4243 87.1559 93.0829 91.6429C102.376 94.7424 109.367 97.3697 113.851 99.4361L119.486 100.705L119.397 100.794ZM117.214 70.4773C117.45 70.8315 117.775 71.2743 118.365 71.6285L117.214 70.4773Z" fill="black"/>
<path d="M208.547 35.3489L208.429 36.0278L219.669 47.1568L219.109 51.0533C218.991 52.6474 218.194 54.6252 216.808 57.0163C214.861 60.2339 212.442 61.9461 209.698 62.0642L204.417 62.3003C208.193 68.1452 211.881 73.3112 216.129 79.1856C217.398 81.6062 219.227 84.5876 221.528 88.13C223.475 90.9934 224.389 94.8014 224.389 99.2589C224.389 106.609 221.852 111.893 217.634 114.521C214.3 116.469 208.341 117.502 200.523 117.502C188.251 117.502 177.13 115.672 167.365 111.864L167.247 111.746C159.783 108.882 153.942 105.429 149.812 101.296L140.962 92.4399C134.295 87.1559 130.991 80.9567 130.991 73.9606C130.991 69.1489 131.67 65.2228 133.174 62.3594C134.089 60.6472 135.003 58.4628 137.422 54.4481L136.508 53.4149C132.614 50.7877 129.958 46.8615 128.601 41.5775C126.772 34.6995 125.622 28.8251 125.622 25.1646C125.622 20.9138 125.976 17.8142 126.536 15.984C127.805 12.6483 130.431 10.9362 134.443 10.9362C139.605 10.9362 146.272 13.3568 154.296 18.0504L154.178 18.0504C158.544 20.471 162.438 23.2163 165.89 26.1978C166.686 24.0134 168.073 21.3861 170.256 18.7293C172.203 16.5449 175.301 15.5117 179.667 15.5117C180.581 15.5117 181.85 16.663 183.443 18.9655L192.853 28.3823C193.65 29.2974 194.8 30.8029 196.069 32.9873C196.187 33.4596 196.423 33.6663 196.541 34.0205C197.809 34.4928 199.284 34.6995 200.789 34.8175L208.577 35.2899L208.547 35.3489ZM138.543 83.584C141.169 86.9197 144.62 89.4289 148.632 91.2886C156.214 95.5394 163.205 98.2848 169.754 99.436C173.649 100.115 176.54 100.469 178.251 100.587L186.393 100.942C186.393 100.942 187.307 101.06 189.49 101.178C190.641 101.296 192.027 101.296 193.738 101.178C199.019 100.942 203.031 99.2294 205.774 95.8937C207.603 93.7092 208.518 91.4067 208.518 88.7794C208.518 83.7316 206.571 78.6837 202.765 73.5178C200.936 71.0972 197.249 66.2855 191.85 59.0532C190.346 56.9868 188.192 53.6511 185.419 49.0755C185.301 48.7213 185.065 48.0423 184.741 46.8911C184.505 45.6217 184.505 44.9428 184.623 44.8247C185.183 44.8247 188.399 45.8579 189.225 45.976C192.44 46.4483 195.066 46.5368 197.131 46.2121C200.228 45.297 200.789 43.7915 203.09 40.4853L193.797 38.3009C190.936 37.6219 188.517 36.2345 186.57 34.2862C184.977 31.7475 183 28.8841 180.847 25.5484C179.136 23.1278 177.631 21.7699 176.363 21.4156C173.501 23.482 171.672 25.7845 170.61 28.2051C170.374 28.766 169.695 31.0685 168.663 35.0832L167.07 41.1643C166.155 38.3009 165.123 35.6441 163.854 33.0168C163.058 31.3047 158.574 27.969 150.55 23.1278C142.526 18.2865 137.481 15.8955 135.416 15.8955C133.912 15.8955 132.997 15.8955 132.879 16.0135C132.643 16.4858 132.201 17.1648 131.493 17.9618C130.932 20.0282 130.696 23.0097 130.696 26.9063C130.696 29.5335 131.168 31.8361 132.201 34.0205C132.879 36.8839 133.794 39.7473 135.062 42.5222C137.127 47.1272 139.31 49.4002 141.611 49.4002C142.408 49.4002 143.794 47.8947 145.859 44.9133C147.924 41.8137 148.957 39.8654 149.075 38.8322C148.16 39.1864 146.892 39.6292 145.417 40.2196C143.706 38.9503 142.88 36.8839 142.88 34.2567C142.88 31.6294 144.03 30.1239 146.331 30.1239C147.836 30.1239 149.429 30.6848 151.258 31.9541C153.205 33.2235 154.119 34.4928 154.119 35.8507C154.119 37.5629 151.818 41.9318 147.246 48.8394C144.827 52.4112 142.319 56.3078 139.664 60.4406C137.245 64.2191 136.006 67.2301 136.006 69.385C136.006 69.0308 135.888 69.9459 135.652 71.9237C135.534 73.3112 135.534 74.4624 135.888 75.4956C136.124 79.0675 137.039 81.8128 138.514 83.643L138.543 83.584ZM177.661 76.2336C176.982 76.3517 175.714 76.5878 173.885 76.9125C171.701 77.3849 168.604 76.3517 164.592 73.813C162.173 72.3075 160.934 70.2411 160.934 67.85C160.934 66.256 161.612 63.5992 162.999 59.9388C164.592 55.5698 166.332 53.3854 168.161 53.3854C171.377 53.3854 173.885 54.9795 175.743 58.3152C176.097 58.876 177.248 61.8871 179.313 67.4958C180.109 70.3592 180.463 72.3075 180.463 73.3407C180.463 75.289 179.549 76.2041 177.72 76.2041L177.661 76.2336Z" fill="black"/>
<path d="M281.531 58.758C280.499 63.245 277.047 66.9054 271.206 69.7688C272.917 71.1563 274.54 72.5142 276.251 74.0197C279.82 76.8831 284.393 80.1007 288.641 82.4032C291.738 83.9087 294.393 85.1486 295.75 85.739C297.019 85.739 298.966 85.06 299.88 84.7058C299.998 84.3515 300.559 84.1449 300.677 83.7907L301.709 82.8756C302.181 82.4032 303.656 80.8092 304.128 80.3369C306.075 81.0158 307.462 82.1671 308.259 83.6726L318.466 93.7683C319.97 95.2738 320.649 97.4287 320.649 100.558C320.649 107.908 316.991 115.701 309.645 123.967C303.332 130.963 297.697 134.417 292.771 134.417C289.437 134.417 285.661 132.232 281.413 127.982L273.625 120.188C271.442 118.594 268.935 116.174 266.28 112.956C262.621 108.469 259.052 103.657 255.954 99.0523L255.158 100.086L255.276 100.086C254.479 101.119 252.414 103.067 249.081 105.93C243.564 110.624 239.11 112.927 235.658 112.927C234.862 112.927 234.154 112.927 233.829 112.808C233.475 112.69 233.151 112.454 232.797 112.13L222.353 101.798L222.235 101.68C219.816 100.883 217.309 94.3292 215.126 82.4918C213.297 72.3961 212.146 62.9793 212.146 55.9536L212.146 55.3928C212.146 54.5957 212.264 53.3264 212.382 51.4962C212.382 50.1088 212.5 48.5147 212.618 46.6845L201.939 35.8803L201.261 35.8803C201.261 35.408 201.379 34.6109 201.025 34.1682C200.907 33.4892 200.907 32.7807 201.025 32.2199C202.529 27.2901 209.757 22.3308 217.663 19.5855C218.017 19.4674 218.577 19.4674 219.374 19.1131C220.642 18.7589 222.589 18.3161 224.89 17.7257C226.159 17.3715 227.428 17.0468 228.785 16.6925C230.289 16.3383 231.528 16.1317 233.711 15.5413C233.357 13.2387 233.239 11.0543 233.239 9.34213C233.239 7.62999 233.475 6.1245 234.036 4.85515C235.865 1.51943 239.316 -0.310788 243.918 0.0434482C245.187 0.161527 247.016 0.397688 249.317 0.958561C250.585 1.87367 252.532 3.70389 255.158 6.36066C258.727 9.93253 261.943 12.4417 264.804 14.1538L264.686 14.1538C267.106 15.4232 270.203 16.8992 274.097 18.5227C279.26 20.7072 283.272 22.3013 284.54 22.8916L284.54 23.4525L295.662 34.5814C295.662 35.1423 295.78 35.8508 296.134 36.4116C294.187 39.0389 291.886 41.2233 289.26 42.0499C287.756 42.6108 285.13 43.0831 281.354 43.3192C278.493 43.4373 276.428 43.7916 274.923 44.1163C275.72 45.5037 276.87 46.9797 278.375 48.4852L279.761 49.8726C280.558 50.6696 281.266 52.057 281.59 54.0053C281.944 55.7175 281.944 57.3411 281.59 58.699L281.531 58.758ZM303.892 89.3108C303.42 89.4289 301.945 90.2259 299.408 91.4953C297.697 92.4104 296.547 92.8827 296.193 92.7646C294.482 91.9676 291.945 90.9344 288.611 89.547C287.225 89.4289 283.449 86.8017 277.254 81.6357C272.563 77.8572 268.994 74.6396 266.339 72.1009L251.883 58.1971C252.237 57.7248 252.562 57.282 252.916 56.9278C253.712 56.2488 255.217 55.4223 257.518 54.3891C261.648 52.677 263.949 50.6106 264.509 48.4261C264.863 47.0387 264.391 45.2085 263.241 43.024C262.208 41.0758 261.176 39.4522 259.907 38.419C256.928 35.7917 255.423 33.3711 255.423 31.1867C255.423 28.4413 257.134 26.9358 260.704 26.8178L265.866 27.172C269.879 27.0539 273.773 26.2569 277.578 24.7514C269.318 21.2976 261.736 17.8733 254.981 14.5376C252.798 13.5044 250.172 10.4048 246.839 5.47506C245.806 5.23891 244.538 5.00275 243.181 4.67803C241.116 4.55995 239.847 6.98057 239.405 12.0284C239.759 13.2978 239.965 14.8918 240.083 16.6335C239.405 19.733 236.868 21.5633 232.384 22.1537L225.953 23.0688C224.684 23.1868 222.383 23.5411 219.285 23.9839C214.359 24.6628 210.907 26.6111 208.724 29.9468L213.769 29.8288C214.801 29.9468 217.338 32.3675 217.663 33.4006C218.223 35.1128 218.459 37.5334 218.459 40.633C218.459 43.0536 218.223 45.917 217.899 49.0165C218.017 53.5035 218.135 60.0274 218.459 68.4109C218.577 72.6618 219.02 75.7613 219.728 77.9458C219.374 78.0638 219.61 79.4513 220.288 82.1966C220.524 82.9936 220.849 84.4991 221.439 86.8902C221.999 88.6024 223.268 91.4953 225.215 95.2738C226.926 95.2738 229.817 94.0045 233.593 91.6134C237.487 89.0747 239.552 87.0083 239.906 85.4142C240.024 84.6172 239.67 82.3147 238.874 78.3C237.487 71.7467 236.809 68.529 236.691 68.7652C237.045 67.1711 238.195 66.3446 240.024 66.3446C240.585 66.3446 241.175 66.4626 241.853 66.5807C243.918 67.053 247.694 71.9828 253.329 81.5177C260.792 94.2701 265.276 101.621 266.752 103.805C272.386 112.07 277.549 116.676 282.121 117.709C284.983 118.27 289.231 115.406 294.629 108.971C299.556 103.126 302.329 98.9933 302.889 96.3365C303.45 93.6797 303.804 91.2887 303.804 89.3404L303.892 89.3108ZM249.966 48.5442C249.966 50.9648 246.19 52.4408 243.417 52.4408C241.912 52.4408 237.9 51.9685 236.189 51.9685C234.921 52.0866 234.006 50.9353 233.564 48.7509C233.446 47.7177 233.092 46.1236 232.767 43.9392C231.735 39.0094 231.263 35.7917 231.263 34.1682C231.263 33.3711 231.941 32.3379 233.21 31.0686C236.543 32.456 239.965 34.5224 243.299 37.2677C248.107 41.1643 250.526 43.8211 250.526 45.2971C250.526 47.2454 250.29 48.3966 249.966 48.5147L249.966 48.5442Z" fill="black"/>
<path d="M414.991 29.7107C413.84 30.862 411.775 31.7771 408.914 32.338C407.645 32.6922 406.849 32.8103 406.052 32.8103C405.138 32.8103 404.341 32.9284 403.633 33.1645C405.138 33.9615 406.495 34.8766 406.849 35.9098L417.41 46.3598C417.41 46.3598 417.292 46.2417 417.174 46.2417L417.41 46.3598C417.882 46.8321 418.088 47.2749 418.088 47.6291C418.088 51.88 417.292 55.6585 415.669 59.1123C414.637 61.2967 413.044 64.1601 410.625 68.1748L421.746 79.1856L421.746 82.5213C421.746 87.215 420.242 92.1743 417.144 97.1041C415.758 99.2885 413.25 102.624 410.035 106.639C406.465 109.975 402.925 112.484 399.356 114.225C397.851 114.904 394.075 115.819 388.234 116.971C387.201 117.325 385.815 117.207 383.868 117.207C381.124 117.207 377.319 117.089 373.071 116.646L369.501 116.292C364.103 116.174 360.445 115.495 358.704 113.753L351.24 106.285C351.24 106.285 351.004 106.639 350.886 106.757C349.618 108.587 346.756 110.417 342.154 112.602C338.496 114.314 334.927 115.701 332.508 116.617C325.398 118.919 319.764 120.07 315.634 120.07L313.686 120.07C313.008 120.07 312.3 119.716 311.739 119.155L301.414 108.705C300.618 108.351 300.028 107.79 298.995 106.521C300.264 103.421 302.447 99.7313 305.544 95.51C308.642 91.2592 310.707 88.1596 311.621 85.8571C318.171 71.7467 321.386 63.6878 321.386 61.7395C321.386 59.5551 321.268 57.7248 321.268 56.2193L311.297 46.3598C310.943 46.2417 311.061 46.2417 310.736 46.1236C308.907 43.703 306.046 39.9245 302.712 34.9947C298.11 28.1166 295.131 23.2754 295.131 21.9175C295.131 20.2054 296.045 18.818 297.992 17.7848L297.874 17.9029C299.379 16.8697 300.972 16.5154 302.476 16.5154C307.167 16.5154 316.017 19.3788 327.965 24.5448C337.139 28.6775 344.131 32.1313 346.786 33.8435C347.464 34.4043 348.054 35.1128 348.379 36.0279L349.293 36.943C349.293 35.5556 349.293 34.1977 349.411 32.6922C349.529 26.8473 350.208 22.4784 351.24 20.0578C352.833 16.1612 356.285 13.1797 361.566 11.1133L369.708 8.01378C370.18 7.4529 372.009 7.21674 374.634 6.62635C375.106 6.39019 375.313 6.39019 376.227 6.15404C376.463 6.03596 376.906 5.91788 377.496 5.7998L378.882 5.44557C379.679 5.32749 381.744 5.20941 385.549 5.20941C392.098 5.20941 398.176 8.07282 403.574 13.7111L403.574 14.0653L414.371 24.8695C414.489 24.9876 414.607 25.2237 414.725 25.3418L414.961 29.7107L414.991 29.7107ZM405.934 72.0714C395.963 77.4735 389.65 80.1007 387.231 80.1007C384.812 80.1007 383.779 78.5067 383.779 75.4071C383.779 74.2558 384.576 72.1895 386.198 69.208C388.617 65.0752 390.446 61.4148 394.576 55.3042C396.524 52.4408 399.503 48.0719 400.3 45.6513C401.096 43.0241 401.568 41.2824 401.568 40.6035C401.568 39.8064 401.214 38.8913 400.654 37.9762C396.406 41.1939 389.414 44.7362 379.767 48.7804C376.552 50.0497 372.658 51.7619 368.056 53.7102C365.43 54.8614 363.247 55.4223 361.625 55.4223C361.153 55.4223 360.946 55.3042 360.828 55.0681L360.592 54.7138C361.271 52.8836 362.421 51.2601 364.044 49.7841C367.023 47.0387 371.035 41.0463 375.991 31.8656C381.95 20.7367 389.414 15.4527 398.471 16.0136L394.694 13.3864C389.886 11.5561 385.844 10.641 382.658 10.641C379.472 10.641 375.077 11.6742 369.678 13.8587L358.557 18.3457C356.61 20.5301 355.459 24.5448 354.899 30.5077C354.899 30.862 354.781 35.3194 354.426 43.9392C353.63 49.1051 351.565 52.7951 348.113 55.1862C347.317 54.3891 346.402 52.0866 345.37 48.0719C344.101 43.1421 343.423 40.3673 343.187 39.6883C342.39 38.3009 337.228 35.2014 327.699 30.2716C317.374 24.9876 310.146 22.3603 305.898 22.3603L302.801 22.3603L302.801 24.0725C303.155 24.5448 304.394 26.8178 306.695 30.9505C309.792 36.5888 311.503 39.6883 311.621 40.2492C312.182 40.8101 313.332 41.1643 315.073 41.4005C316.784 41.6366 317.817 41.8728 318.289 42.0794C321.858 44.7067 324.248 47.4815 325.28 50.2269C326.077 52.4113 326.549 56.0717 326.549 61.031C326.549 64.1306 324.366 70.0936 320 79.1856C316.224 86.8903 312.093 94.6834 307.373 102.595C307.491 102.595 308.76 103.156 309.32 103.156C311.739 103.156 315.516 102.359 320.678 100.617C326.519 98.6686 331.003 96.3661 334.337 93.7388C336.048 92.2333 337.906 90.285 339.617 87.6578C342.833 82.9641 344.78 79.3923 345.576 77.0897L346.255 73.8721C346.255 73.8721 347.051 73.3112 348.438 72.7208L350.975 71.5696C352.479 71.0972 354.426 70.4183 356.816 69.3851C357.613 69.0309 359.914 68.1158 363.601 66.4036C366.817 64.8981 369 64.2192 370.032 64.2192C370.386 64.2192 370.593 64.3372 370.711 64.4553C368.292 72.6027 365.43 79.2742 362.215 84.204C362.097 84.4401 360.15 87.4216 356.374 93.0599C354.662 95.5985 353.836 97.0745 353.836 97.6649L353.836 99.6132C353.482 99.6132 355.105 99.7313 358.645 99.9675C362.215 100.204 364.398 100.322 365.076 100.322L378.617 100.204C384.576 100.086 391.803 94.9196 400.182 84.4696C403.161 80.8092 405.108 76.6765 405.905 72.0714L405.934 72.0714Z" fill="black"/>
<path d="M409.386 93.2075C403.869 88.9566 401.126 84.942 401.126 80.9273C401.126 80.3664 401.804 78.3886 403.073 75.9975C403.191 75.4366 403.545 74.7282 403.987 73.9311L403.987 74.0492C404.341 73.5769 404.784 72.4551 404.666 72.7799C405.02 72.3075 405.226 71.8647 405.344 71.5105C405.462 71.1563 405.58 71.0382 405.698 70.7135L410.507 61.8576C410.507 61.6214 410.389 61.1786 410.035 60.5883L410.153 60.7063C409.592 59.7912 409.002 59.3189 408.56 59.3189L405.934 53.9168C405.934 53.9168 405.374 53.3559 405.374 53.2379C404.577 51.9685 403.663 50.6106 403.663 48.4262C403.663 46.9207 404.017 45.4447 404.577 43.6145C405.61 40.2787 408.471 36.8249 412.955 33.1645C417.764 29.386 421.452 26.0503 423.959 23.2754C426.703 20.1759 431.747 17.5486 439.093 14.6557C441.276 13.8587 446.438 12.7074 454.699 11.2019C463.991 9.48976 472.841 8.66321 481.101 8.66321C484.199 8.66321 487.768 9.22408 491.544 10.2573C491.426 10.3753 491.426 10.6115 491.426 10.8181L502.548 21.947C502.076 24.3677 499.687 27.113 495.203 30.4487C488.417 35.1423 484.199 38.36 482.34 39.8655C479.007 42.7289 476.381 45.7104 474.552 49.0461L481.78 56.1603C482.812 57.3116 483.727 58.9056 484.759 61.0901C485.556 62.5956 485.674 65.2228 485.674 68.5586C485.674 69.7098 483.609 73.1636 482.812 73.3703C482.576 73.4883 482.34 73.4883 482.134 73.4883C481.78 73.4883 481.898 73.6064 481.573 73.6064C481.249 73.6064 480.895 73.6064 480.541 73.4883L480.305 73.4883L479.744 73.2522C470.688 88.1891 466.086 98.4029 466.086 103.805C466.086 106.226 467 109.768 468.947 114.373C468.947 118.86 468.033 120.336 463.549 120.336C459.065 120.336 451.158 118.388 441.069 114.816C437.5 113.546 434.078 112.189 431.777 110.919C425.464 107.584 420.655 104.366 417.558 101.148L409.415 93.1189L409.386 93.2075ZM412.837 54.3891C414.785 54.0349 418.236 53.474 423.399 52.4408C432.927 50.6106 438.444 49.6955 439.801 49.6955C441.158 49.6955 442.22 50.0497 442.898 50.8468L442.898 52.3523C437.972 58.7876 433.724 62.8022 430.036 64.3963L425.552 66.3446L427.057 61.9757C427.057 61.4148 428.207 60.1455 430.626 58.1972C433.724 55.6585 435.789 53.9463 436.585 53.1493C433.016 53.7102 425.228 55.2157 413.28 57.4001C413.162 57.5182 413.84 57.961 415.109 58.9942C415.463 59.2303 415.906 59.9093 416.496 61.1786C415.581 63.4812 414.431 65.7837 413.162 68.0567L409.828 73.9016C409.268 74.9348 408.324 76.6469 407.085 79.0675C407.085 85.0305 412.808 90.5507 424.195 95.4805C426.821 96.5137 431.659 98.58 438.532 101.443C441.63 102.713 445.76 103.392 451.158 103.274C451.158 102.801 451.276 102.24 451.394 101.562C451.512 100.883 451.512 100.292 451.394 99.7313L449.329 92.499C449.329 87.5692 451.04 82.049 454.374 75.7318C455.407 73.9016 458.032 68.8538 462.516 60.6768C463.785 56.8983 464.935 54.95 465.85 54.95L469.626 56.8983C469.626 56.8983 469.744 56.426 469.862 56.1013C469.98 55.629 469.98 55.1862 469.862 54.7138L469.862 51.7324C467.679 47.9539 464.021 45.4152 458.858 44.0277C457.354 43.6735 455.082 43.4669 451.984 43.4669C450.716 43.4669 448.887 43.703 446.35 44.0277C443.931 44.382 442.102 44.5001 440.833 44.5001C440.037 44.5001 438.768 44.6181 436.939 44.7362C435.435 45.0904 434.078 44.6181 432.927 43.5849C432.809 43.0241 432.809 42.5517 432.809 42.0794C432.809 40.5739 433.281 39.5407 434.196 38.7437C435.464 37.1497 436.615 35.8803 437.529 34.8471C439.122 33.2531 442.131 31.6295 446.586 30.1535C446.704 30.1535 446.704 30.2716 446.704 30.5077C446.704 31.7771 446.143 33.3711 444.875 35.4375C443.606 37.3858 442.456 38.7732 441.423 39.3341C440.627 39.8064 440.273 40.4854 440.273 41.5186C440.273 41.6366 442.102 41.5186 445.907 41.0463C449.005 40.692 450.716 40.4854 450.952 40.4854C453.489 40.1311 454.964 39.6884 455.318 39.3341C458.062 34.6405 462.31 29.5631 467.944 24.3972C473.903 18.9951 479.302 15.3346 484.11 13.3864C483.756 13.1502 482.724 13.0321 481.013 13.1502C469.537 13.5044 457.265 15.2166 444.285 18.198C438.444 20.6187 432.809 22.567 426.968 27.4967C425.464 28.7661 422.366 31.2752 417.912 35.2014C411.716 40.6035 408.619 44.382 408.619 46.5664C408.619 47.2454 408.973 48.1605 409.769 49.4298L412.867 54.3596L412.837 54.3891Z" fill="black"/>
</svg>
