<svg width="75" height="112" viewBox="0 0 75 112" fill="none" xmlns="http://www.w3.org/2000/svg">
<path d="M65.71 0.5H9.32C4.72499 0.5 1 4.22499 1 8.82V65.21C1 69.805 4.72499 73.53 9.32 73.53H65.71C70.305 73.53 74.03 69.805 74.03 65.21V8.82C74.03 4.22499 70.305 0.5 65.71 0.5Z" stroke="#1D1D1B" stroke-miterlimit="10"/>
<path d="M15.6717 48.97V15.6754H26.9216C29.5335 15.6754 31.6686 16.1469 33.3269 17.0898C34.9959 18.0219 36.2315 19.2845 37.0335 20.8777C37.8355 22.4709 38.2365 24.2483 38.2365 26.21C38.2365 28.1717 37.8355 29.9546 37.0335 31.5586C36.2423 33.1626 35.0176 34.4415 33.3594 35.3953C31.7012 36.3382 29.5769 36.8097 26.9866 36.8097H18.9231V33.2331H26.8565C28.6448 33.2331 30.0809 32.9242 31.1647 32.3064C32.2485 31.6887 33.0342 30.8541 33.522 29.8028C34.0205 28.7407 34.2698 27.5431 34.2698 26.21C34.2698 24.8769 34.0205 23.6848 33.522 22.6335C33.0342 21.5822 32.2431 20.7585 31.1484 20.1624C30.0538 19.5555 28.6015 19.252 26.7915 19.252H19.7034V48.97H15.6717ZM61.8987 29.5915L58.4522 30.5669C58.2355 29.9925 57.9157 29.4344 57.493 28.8924C57.0812 28.3397 56.5176 27.8845 55.8023 27.5269C55.087 27.1692 54.1712 26.9904 53.0549 26.9904C51.5267 26.9904 50.2532 27.3426 49.2344 28.0471C48.2265 28.7407 47.7225 29.624 47.7225 30.697C47.7225 31.6507 48.0693 32.404 48.763 32.9567C49.4566 33.5095 50.5404 33.9701 52.0144 34.3386L55.721 35.249C57.9537 35.7909 59.6173 36.62 60.712 37.7363C61.8066 38.8418 62.3539 40.267 62.3539 42.0119C62.3539 43.4426 61.9421 44.7214 61.1184 45.8486C60.3055 46.9758 59.1675 47.8645 57.7044 48.5148C56.2413 49.1651 54.5397 49.4902 52.5997 49.4902C50.0527 49.4902 47.9447 48.9375 46.2756 47.832C44.6066 46.7265 43.5499 45.1116 43.1055 42.9874L46.7471 42.077C47.0939 43.4209 47.7496 44.4288 48.7142 45.1008C49.6896 45.7727 50.9631 46.1087 52.5346 46.1087C54.3229 46.1087 55.7427 45.7294 56.794 44.9707C57.8561 44.2012 58.3872 43.28 58.3872 42.207C58.3872 41.34 58.0837 40.6138 57.4768 40.0286C56.8699 39.4325 55.9378 38.9881 54.6806 38.6955L50.5188 37.7201C48.2319 37.1782 46.552 36.3382 45.4791 35.2002C44.4169 34.0514 43.8859 32.6153 43.8859 30.8921C43.8859 29.4831 44.2814 28.2367 45.0726 27.1529C45.8746 26.0691 46.9639 25.2183 48.3403 24.6006C49.7276 23.9828 51.2991 23.6739 53.0549 23.6739C55.5259 23.6739 57.466 24.2158 58.8749 25.2996C60.2947 26.3834 61.3026 27.8141 61.8987 29.5915Z" fill="#1D1D1B"/>
<path d="M7.92045 111.415V102.415H8.89205V103.454H9.01136C9.08523 103.341 9.1875 103.196 9.31818 103.02C9.4517 102.841 9.64205 102.682 9.8892 102.542C10.1392 102.4 10.4773 102.329 10.9034 102.329C11.4545 102.329 11.9403 102.467 12.3608 102.743C12.7813 103.018 13.1094 103.409 13.3452 103.915C13.581 104.42 13.6989 105.017 13.6989 105.704C13.6989 106.397 13.581 106.998 13.3452 107.507C13.1094 108.013 12.7827 108.405 12.3651 108.683C11.9474 108.959 11.4659 109.096 10.9205 109.096C10.5 109.096 10.1634 109.027 9.91051 108.888C9.65767 108.745 9.46307 108.585 9.3267 108.406C9.19034 108.224 9.08523 108.074 9.01136 107.954H8.92614V111.415H7.92045ZM8.90909 105.687C8.90909 106.182 8.98153 106.618 9.12642 106.995C9.27131 107.37 9.48295 107.665 9.76136 107.878C10.0398 108.088 10.3807 108.193 10.7841 108.193C11.2045 108.193 11.5554 108.082 11.8366 107.861C12.1207 107.636 12.3338 107.335 12.4759 106.957C12.6207 106.576 12.6932 106.153 12.6932 105.687C12.6932 105.227 12.6222 104.812 12.4801 104.443C12.3409 104.071 12.1293 103.777 11.8452 103.561C11.5639 103.342 11.2102 103.233 10.7841 103.233C10.375 103.233 10.0313 103.336 9.75284 103.544C9.47443 103.748 9.2642 104.035 9.12216 104.405C8.98011 104.771 8.90909 105.199 8.90909 105.687ZM16.2386 105.022V108.96H15.233V100.233H16.2386V103.437H16.3239C16.4773 103.099 16.7074 102.831 17.0142 102.632C17.3239 102.43 17.7358 102.329 18.25 102.329C18.696 102.329 19.0866 102.419 19.4219 102.598C19.7571 102.774 20.017 103.045 20.2017 103.412C20.3892 103.775 20.483 104.238 20.483 104.801V108.96H19.4773V104.869C19.4773 104.349 19.3423 103.947 19.0724 103.663C18.8054 103.376 18.4347 103.233 17.9602 103.233C17.6307 103.233 17.3352 103.302 17.0739 103.441C16.8153 103.581 16.6108 103.784 16.4602 104.051C16.3125 104.318 16.2386 104.642 16.2386 105.022ZM24.9819 109.096C24.391 109.096 23.8725 108.956 23.4265 108.674C22.9833 108.393 22.6367 108 22.3867 107.494C22.1396 106.988 22.016 106.397 22.016 105.721C22.016 105.04 22.1396 104.444 22.3867 103.936C22.6367 103.427 22.9833 103.032 23.4265 102.751C23.8725 102.47 24.391 102.329 24.9819 102.329C25.5728 102.329 26.0898 102.47 26.533 102.751C26.979 103.032 27.3256 103.427 27.5728 103.936C27.8228 104.444 27.9478 105.04 27.9478 105.721C27.9478 106.397 27.8228 106.988 27.5728 107.494C27.3256 108 26.979 108.393 26.533 108.674C26.0898 108.956 25.5728 109.096 24.9819 109.096ZM24.9819 108.193C25.4308 108.193 25.8001 108.078 26.0898 107.848C26.3796 107.618 26.5941 107.315 26.7333 106.94C26.8725 106.565 26.9421 106.159 26.9421 105.721C26.9421 105.284 26.8725 104.876 26.7333 104.498C26.5941 104.12 26.3796 103.815 26.0898 103.582C25.8001 103.349 25.4308 103.233 24.9819 103.233C24.533 103.233 24.1637 103.349 23.8739 103.582C23.5842 103.815 23.3697 104.12 23.2305 104.498C23.0913 104.876 23.0217 105.284 23.0217 105.721C23.0217 106.159 23.0913 106.565 23.2305 106.94C23.3697 107.315 23.5842 107.618 23.8739 107.848C24.1637 108.078 24.533 108.193 24.9819 108.193ZM32.3295 102.415V103.267H28.9375V102.415H32.3295ZM29.9261 100.846H30.9318V107.085C30.9318 107.369 30.973 107.582 31.0554 107.724C31.1406 107.863 31.2486 107.957 31.3793 108.005C31.5128 108.051 31.6534 108.074 31.8011 108.074C31.9119 108.074 32.0028 108.068 32.0739 108.057C32.1449 108.042 32.2017 108.031 32.2443 108.022L32.4489 108.926C32.3807 108.951 32.2855 108.977 32.1634 109.003C32.0412 109.031 31.8864 109.045 31.6989 109.045C31.4148 109.045 31.1364 108.984 30.8636 108.862C30.5938 108.74 30.3693 108.554 30.1903 108.304C30.0142 108.054 29.9261 107.738 29.9261 107.358V100.846ZM36.4311 109.096C35.8402 109.096 35.3217 108.956 34.8757 108.674C34.4325 108.393 34.0859 108 33.8359 107.494C33.5888 106.988 33.4652 106.397 33.4652 105.721C33.4652 105.04 33.5888 104.444 33.8359 103.936C34.0859 103.427 34.4325 103.032 34.8757 102.751C35.3217 102.47 35.8402 102.329 36.4311 102.329C37.022 102.329 37.5391 102.47 37.9822 102.751C38.4283 103.032 38.7749 103.427 39.022 103.936C39.272 104.444 39.397 105.04 39.397 105.721C39.397 106.397 39.272 106.988 39.022 107.494C38.7749 108 38.4283 108.393 37.9822 108.674C37.5391 108.956 37.022 109.096 36.4311 109.096ZM36.4311 108.193C36.88 108.193 37.2493 108.078 37.5391 107.848C37.8288 107.618 38.0433 107.315 38.1825 106.94C38.3217 106.565 38.3913 106.159 38.3913 105.721C38.3913 105.284 38.3217 104.876 38.1825 104.498C38.0433 104.12 37.8288 103.815 37.5391 103.582C37.2493 103.349 36.88 103.233 36.4311 103.233C35.9822 103.233 35.6129 103.349 35.3232 103.582C35.0334 103.815 34.8189 104.12 34.6797 104.498C34.5405 104.876 34.4709 105.284 34.4709 105.721C34.4709 106.159 34.5405 106.565 34.6797 106.94C34.8189 107.315 35.0334 107.618 35.3232 107.848C35.6129 108.078 35.9822 108.193 36.4311 108.193ZM45.5685 103.88L44.6651 104.136C44.6083 103.986 44.5245 103.839 44.4137 103.697C44.3058 103.552 44.158 103.433 43.9705 103.339C43.783 103.245 43.543 103.199 43.2504 103.199C42.8498 103.199 42.516 103.291 42.2489 103.476C41.9847 103.657 41.8526 103.889 41.8526 104.17C41.8526 104.42 41.9435 104.618 42.1254 104.763C42.3072 104.907 42.5913 105.028 42.9776 105.125L43.9492 105.363C44.5344 105.505 44.9705 105.723 45.2575 106.015C45.5444 106.305 45.6879 106.679 45.6879 107.136C45.6879 107.511 45.5799 107.846 45.364 108.142C45.1509 108.437 44.8526 108.67 44.4691 108.841C44.0856 109.011 43.6396 109.096 43.131 109.096C42.4634 109.096 41.9109 108.951 41.4734 108.662C41.0359 108.372 40.7589 107.949 40.6424 107.392L41.5969 107.153C41.6879 107.505 41.8597 107.77 42.1126 107.946C42.3683 108.122 42.7021 108.21 43.114 108.21C43.5827 108.21 43.9549 108.111 44.2305 107.912C44.5089 107.71 44.6481 107.468 44.6481 107.187C44.6481 106.96 44.5685 106.77 44.4094 106.616C44.2504 106.46 44.006 106.343 43.6765 106.267L42.5856 106.011C41.9862 105.869 41.5458 105.649 41.2646 105.351C40.9862 105.049 40.8469 104.673 40.8469 104.221C40.8469 103.852 40.9506 103.525 41.158 103.241C41.3683 102.957 41.6538 102.734 42.0146 102.572C42.3782 102.41 42.7901 102.329 43.2504 102.329C43.8981 102.329 44.4066 102.471 44.7759 102.755C45.1481 103.04 45.4123 103.415 45.5685 103.88ZM48.2074 105.022V108.96H47.2017V100.233H48.2074V103.437H48.2926C48.446 103.099 48.6761 102.831 48.983 102.632C49.2926 102.43 49.7045 102.329 50.2188 102.329C50.6648 102.329 51.0554 102.419 51.3906 102.598C51.7259 102.774 51.9858 103.045 52.1705 103.412C52.358 103.775 52.4517 104.238 52.4517 104.801V108.96H51.446V104.869C51.446 104.349 51.3111 103.947 51.0412 103.663C50.7741 103.376 50.4034 103.233 49.929 103.233C49.5994 103.233 49.304 103.302 49.0426 103.441C48.7841 103.581 48.5795 103.784 48.429 104.051C48.2813 104.318 48.2074 104.642 48.2074 105.022ZM56.9506 109.096C56.3597 109.096 55.8413 108.956 55.3952 108.674C54.9521 108.393 54.6055 108 54.3555 107.494C54.1083 106.988 53.9847 106.397 53.9847 105.721C53.9847 105.04 54.1083 104.444 54.3555 103.936C54.6055 103.427 54.9521 103.032 55.3952 102.751C55.8413 102.47 56.3597 102.329 56.9506 102.329C57.5415 102.329 58.0586 102.47 58.5018 102.751C58.9478 103.032 59.2944 103.427 59.5415 103.936C59.7915 104.444 59.9165 105.04 59.9165 105.721C59.9165 106.397 59.7915 106.988 59.5415 107.494C59.2944 108 58.9478 108.393 58.5018 108.674C58.0586 108.956 57.5415 109.096 56.9506 109.096ZM56.9506 108.193C57.3995 108.193 57.7688 108.078 58.0586 107.848C58.3484 107.618 58.5629 107.315 58.7021 106.94C58.8413 106.565 58.9109 106.159 58.9109 105.721C58.9109 105.284 58.8413 104.876 58.7021 104.498C58.5629 104.12 58.3484 103.815 58.0586 103.582C57.7688 103.349 57.3995 103.233 56.9506 103.233C56.5018 103.233 56.1325 103.349 55.8427 103.582C55.5529 103.815 55.3384 104.12 55.1992 104.498C55.06 104.876 54.9904 105.284 54.9904 105.721C54.9904 106.159 55.06 106.565 55.1992 106.94C55.3384 107.315 55.5529 107.618 55.8427 107.848C56.1325 108.078 56.5018 108.193 56.9506 108.193ZM61.4517 111.415V102.415H62.4233V103.454H62.5426C62.6165 103.341 62.7188 103.196 62.8494 103.02C62.983 102.841 63.1733 102.682 63.4205 102.542C63.6705 102.4 64.0085 102.329 64.4347 102.329C64.9858 102.329 65.4716 102.467 65.892 102.743C66.3125 103.018 66.6406 103.409 66.8764 103.915C67.1122 104.42 67.2301 105.017 67.2301 105.704C67.2301 106.397 67.1122 106.998 66.8764 107.507C66.6406 108.013 66.3139 108.405 65.8963 108.683C65.4787 108.959 64.9972 109.096 64.4517 109.096C64.0313 109.096 63.6946 109.027 63.4418 108.888C63.1889 108.745 62.9943 108.585 62.858 108.406C62.7216 108.224 62.6165 108.074 62.5426 107.954H62.4574V111.415H61.4517ZM62.4403 105.687C62.4403 106.182 62.5128 106.618 62.6577 106.995C62.8026 107.37 63.0142 107.665 63.2926 107.878C63.571 108.088 63.9119 108.193 64.3153 108.193C64.7358 108.193 65.0866 108.082 65.3679 107.861C65.652 107.636 65.8651 107.335 66.0071 106.957C66.152 106.576 66.2244 106.153 66.2244 105.687C66.2244 105.227 66.1534 104.812 66.0114 104.443C65.8722 104.071 65.6605 103.777 65.3764 103.561C65.0952 103.342 64.7415 103.233 64.3153 103.233C63.9063 103.233 63.5625 103.336 63.2841 103.544C63.0057 103.748 62.7955 104.035 62.6534 104.405C62.5114 104.771 62.4403 105.199 62.4403 105.687Z" fill="#1D1D1B"/>
</svg>
