<svg width="58" height="103" viewBox="0 0 58 103" fill="none" xmlns="http://www.w3.org/2000/svg">
<path d="M12.5529 99.8999V91.1726H13.6097V95.059H18.2631V91.1726H19.32V99.8999H18.2631V95.9965H13.6097V99.8999H12.5529ZM20.9585 92.1101V91.1726H27.5039V92.1101H24.7596V99.8999H23.7028V92.1101H20.9585ZM29.1349 91.1726H30.3963L33.3622 98.4169H33.4645L36.4304 91.1726H37.6918V99.8999H36.7031V93.2692H36.6179L33.8906 99.8999H32.9361L30.2088 93.2692H30.1236V99.8999H29.1349V91.1726ZM39.8107 99.8999V91.1726H40.8675V98.9624H44.9244V99.8999H39.8107Z" fill="#1D1D1B"/>
<path d="M28.6183 0.679949C37.5683 0.679949 46.5283 0.70996 55.4783 0.65996C56.9083 0.65996 57.3183 0.999936 57.1783 2.50994C55.8583 16.5199 54.6183 30.5299 53.3683 44.5499C52.9783 48.8799 52.6283 53.2099 52.2983 57.5399C52.2083 58.6999 51.8083 59.33 50.5783 59.66C43.5883 61.53 36.6283 63.52 29.6383 65.41C28.9283 65.6 28.0783 65.58 27.3583 65.38C20.4283 63.49 13.5083 61.51 6.57831 59.63C5.44831 59.32 5.02831 58.79 4.93831 57.63C4.07831 47.42 3.16831 37.2199 2.26831 27.0199C1.53831 18.8299 0.848309 10.6299 0.0283089 2.44994C-0.131691 0.889938 0.37831 0.64996 1.76831 0.65996C10.7183 0.70996 19.6783 0.689959 28.6283 0.689959L28.6183 0.679949ZM44.8183 27.25H42.8583C35.5083 27.25 28.1583 27.22 20.8083 27.28C19.5083 27.29 18.9083 26.92 18.8483 25.59C18.7883 24.35 18.5683 23.1199 18.4583 21.8899C18.2683 19.7999 18.3083 19.78 20.3383 19.78C28.2083 19.78 36.0683 19.78 43.9383 19.78C44.4883 19.78 45.0483 19.73 45.7083 19.69C45.8583 17.88 45.9183 16.18 46.1583 14.5C46.3683 13.03 45.8283 12.6599 44.4083 12.6699C33.7483 12.7199 23.0883 12.6999 12.4283 12.6999C11.9283 12.6999 11.4283 12.7499 10.7383 12.7899C11.4183 20.0199 12.0783 27.1 12.7483 34.25C13.4783 34.25 13.9883 34.25 14.4983 34.25C21.6383 34.25 28.7783 34.2799 35.9283 34.2299C37.2083 34.2299 37.5683 34.6699 37.4383 35.8599C37.2083 38.0699 37.1083 40.3 36.8083 42.5C36.7383 43.02 36.1983 43.74 35.7183 43.9C31.3383 45.3533 26.9083 45.44 22.4283 44.16C22.1783 44.09 21.8583 44.1099 21.6883 43.9499C21.2183 43.5099 20.5883 43.06 20.4183 42.5C20.1383 41.52 20.1283 40.46 20.0683 39.43C20.0083 38.49 19.6383 38.04 18.6183 38.09C17.2283 38.16 15.8183 38.16 14.4283 38.09C13.2883 38.04 13.0183 38.4799 13.1483 39.5699C13.4783 42.2899 13.7383 45.02 13.9283 47.75C14.0083 48.8 14.4383 49.2599 15.4483 49.5099C19.5083 50.5399 23.5383 51.66 27.5983 52.69C28.2583 52.86 29.0383 52.86 29.7083 52.69C33.7183 51.67 37.6983 50.5299 41.7083 49.5199C42.8283 49.2399 43.1783 48.6499 43.2483 47.5799C43.5083 43.8099 43.8483 40.0499 44.1383 36.2899C44.3683 33.3599 44.5883 30.4299 44.8283 27.2399L44.8183 27.25Z" fill="#1D1D1B"/>
</svg>
