<svg width="75" height="75" viewBox="0 0 75 75" fill="none" xmlns="http://www.w3.org/2000/svg">
<path d="M65.71 0.5H9.32C4.72499 0.5 1 4.22499 1 8.82V65.21C1 69.805 4.72499 73.53 9.32 73.53H65.71C70.305 73.53 74.03 69.805 74.03 65.21V8.82C74.03 4.22499 70.305 0.5 65.71 0.5Z" stroke="#1D1D1B" stroke-miterlimit="10"/>
<path d="M21.1173 48.97H16.8905L29.1158 15.6754H33.2776L45.503 48.97H41.2761L31.3268 20.9427H31.0667L21.1173 48.97ZM22.678 35.9643H39.7155V39.5409H22.678V35.9643ZM50.437 48.97V23.9991H54.2737V48.97H50.437ZM52.3879 19.8372C51.64 19.8372 50.9952 19.5825 50.4533 19.0732C49.9222 18.5638 49.6567 17.9514 49.6567 17.2361C49.6567 16.5208 49.9222 15.9084 50.4533 15.3991C50.9952 14.8897 51.64 14.635 52.3879 14.635C53.1357 14.635 53.7751 14.8897 54.3062 15.3991C54.8481 15.9084 55.1191 16.5208 55.1191 17.2361C55.1191 17.9514 54.8481 18.5638 54.3062 19.0732C53.7751 19.5825 53.1357 19.8372 52.3879 19.8372Z" fill="#1D1D1B"/>
</svg>
