<svg width="74" height="71" viewBox="0 0 74 71" fill="none" xmlns="http://www.w3.org/2000/svg">
<path d="M65.0201 1.21997H5.54012C3.09902 1.21997 1.12012 3.19887 1.12012 5.63997V65.12C1.12012 67.5611 3.09902 69.54 5.54012 69.54H65.0201C67.4612 69.54 69.4401 67.5611 69.4401 65.12V5.63997C69.4401 3.19887 67.4612 1.21997 65.0201 1.21997Z" stroke="#1D1D1B" stroke-miterlimit="10"/>
<path d="M36.3454 24.6191H40.3719V48.3883C40.3719 50.5098 39.9822 52.3119 39.2029 53.7948C38.4236 55.2777 37.325 56.4034 35.9071 57.1719C34.4891 57.9404 32.8168 58.3246 30.8902 58.3246C29.0718 58.3246 27.4536 57.9945 26.0357 57.3342C24.6178 56.6631 23.5029 55.7106 22.6911 54.4767C21.8793 53.2428 21.4734 51.7762 21.4734 50.0768H25.435C25.435 51.0185 25.6677 51.8411 26.1331 52.5447C26.6094 53.2374 27.2588 53.7786 28.0814 54.1682C28.904 54.5579 29.8403 54.7527 30.8902 54.7527C32.0484 54.7527 33.0333 54.5092 33.8451 54.0221C34.6569 53.535 35.2739 52.8207 35.696 51.879C36.129 50.9265 36.3454 49.7629 36.3454 48.3883V24.6191ZM66.6252 32.9318C66.4304 31.2866 65.6402 30.0094 64.2548 29.1002C62.8693 28.191 61.17 27.7364 59.1567 27.7364C57.6847 27.7364 56.3966 27.9745 55.2926 28.4507C54.1994 28.927 53.3443 29.5818 52.7273 30.4153C52.1212 31.2487 51.8181 32.1958 51.8181 33.2565C51.8181 34.1441 52.0292 34.9072 52.4513 35.5458C52.8843 36.1736 53.4363 36.6985 54.1074 37.1206C54.7785 37.532 55.482 37.8729 56.218 38.1435C56.9541 38.4033 57.6306 38.6143 58.2475 38.7767L61.6246 39.6859C62.4905 39.9132 63.4538 40.2271 64.5145 40.6276C65.5861 41.0281 66.609 41.5747 67.5831 42.2674C68.5681 42.9493 69.3799 43.826 70.0185 44.8976C70.6571 45.9692 70.9764 47.2843 70.9764 48.8429C70.9764 50.6397 70.5055 52.2632 69.5639 53.7136C68.633 55.164 67.2692 56.3168 65.4724 57.1719C63.6865 58.0269 61.5163 58.4545 58.9619 58.4545C56.5806 58.4545 54.5187 58.0702 52.7761 57.3017C51.0442 56.5332 49.6804 55.4617 48.6846 54.0871C47.6997 52.7124 47.1422 51.1159 47.0123 49.2975H51.1687C51.2769 50.5531 51.6991 51.5922 52.4351 52.4148C53.1819 53.2266 54.1236 53.8327 55.2601 54.2332C56.4075 54.6228 57.6414 54.8177 58.9619 54.8177C60.4989 54.8177 61.8789 54.5687 63.102 54.0708C64.3251 53.5621 65.2939 52.8585 66.0082 51.9602C66.7226 51.051 67.0798 49.9902 67.0798 48.7779C67.0798 47.6739 66.7713 46.7755 66.1544 46.0828C65.5374 45.3901 64.7256 44.8272 63.719 44.3943C62.7124 43.9613 61.6246 43.5825 60.4556 43.2578L56.3642 42.0888C53.7664 41.342 51.7099 40.2758 50.1946 38.8903C48.6792 37.5049 47.9216 35.6919 47.9216 33.4514C47.9216 31.5897 48.4249 29.9661 49.4315 28.5806C50.4489 27.1843 51.8127 26.102 53.5229 25.3335C55.2439 24.5541 57.1651 24.1645 59.2866 24.1645C61.4297 24.1645 63.3347 24.5487 65.0016 25.3172C66.6685 26.0749 67.989 27.114 68.9631 28.4345C69.9481 29.755 70.4677 31.2541 70.5218 32.9318H66.6252Z" fill="#1D1D1B"/>
</svg>
