<svg width="68" height="101" viewBox="0 0 68 101" fill="none" xmlns="http://www.w3.org/2000/svg">
<path d="M19.9205 97.8999V91.3544H20.892V92.3431H20.9602C21.0795 92.0192 21.2955 91.7564 21.608 91.5547C21.9205 91.353 22.2727 91.2522 22.6648 91.2522C22.7386 91.2522 22.831 91.2536 22.9418 91.2564C23.0526 91.2593 23.1364 91.2635 23.1932 91.2692V92.2919C23.1591 92.2834 23.081 92.2706 22.9588 92.2536C22.8395 92.2337 22.7131 92.2238 22.5795 92.2238C22.2614 92.2238 21.9773 92.2905 21.7273 92.424C21.4801 92.5547 21.2841 92.7365 21.1392 92.9695C20.9972 93.1996 20.9261 93.4624 20.9261 93.7579V97.8999H19.9205ZM26.9304 98.0363C26.2997 98.0363 25.7557 97.8971 25.2983 97.6187C24.8438 97.3374 24.4929 96.9454 24.2457 96.4425C24.0014 95.9368 23.8793 95.3488 23.8793 94.6783C23.8793 94.0079 24.0014 93.4169 24.2457 92.9056C24.4929 92.3914 24.8366 91.9908 25.277 91.7039C25.7202 91.4141 26.2372 91.2692 26.8281 91.2692C27.169 91.2692 27.5057 91.326 27.8381 91.4397C28.1705 91.5533 28.473 91.738 28.7457 91.9937C29.0185 92.2465 29.2358 92.5817 29.3977 92.9993C29.5597 93.4169 29.6406 93.9312 29.6406 94.5419V94.9681H24.5952V94.0988H28.6179C28.6179 93.7294 28.544 93.3999 28.3963 93.1101C28.2514 92.8204 28.044 92.5917 27.7741 92.424C27.5071 92.2564 27.1918 92.1726 26.8281 92.1726C26.4276 92.1726 26.081 92.2721 25.7884 92.4709C25.4986 92.6669 25.2756 92.9226 25.1193 93.238C24.9631 93.5533 24.8849 93.8914 24.8849 94.2522V94.8317C24.8849 95.326 24.9702 95.7451 25.1406 96.0888C25.3139 96.4297 25.554 96.6897 25.8608 96.8687C26.1676 97.0448 26.5241 97.1329 26.9304 97.1329C27.1946 97.1329 27.4332 97.0959 27.6463 97.0221C27.8622 96.9454 28.0483 96.8317 28.2045 96.6812C28.3608 96.5277 28.4815 96.3374 28.5668 96.1101L29.5384 96.3829C29.4361 96.7124 29.2642 97.0022 29.0227 97.2522C28.7813 97.4993 28.483 97.6925 28.1278 97.8317C27.7727 97.9681 27.3736 98.0363 26.9304 98.0363ZM33.0966 98.0533C32.6818 98.0533 32.3054 97.9752 31.9673 97.8189C31.6293 97.6598 31.3608 97.4312 31.1619 97.1329C30.9631 96.8317 30.8636 96.4681 30.8636 96.0419C30.8636 95.6669 30.9375 95.363 31.0852 95.13C31.233 94.8942 31.4304 94.7096 31.6776 94.576C31.9247 94.4425 32.1974 94.3431 32.4957 94.2777C32.7969 94.2096 33.0994 94.1556 33.4034 94.1158C33.8011 94.0647 34.1236 94.0263 34.3707 94.0008C34.6207 93.9723 34.8026 93.9255 34.9162 93.8601C35.0327 93.7948 35.0909 93.6812 35.0909 93.5192V93.4851C35.0909 93.0647 34.9759 92.738 34.7457 92.505C34.5185 92.2721 34.1733 92.1556 33.7102 92.1556C33.2301 92.1556 32.8537 92.2607 32.581 92.4709C32.3082 92.6812 32.1165 92.9056 32.0057 93.1442L31.0511 92.8033C31.2216 92.4056 31.4489 92.0959 31.733 91.8743C32.0199 91.6499 32.3324 91.4937 32.6705 91.4056C33.0114 91.3147 33.3466 91.2692 33.6761 91.2692C33.8864 91.2692 34.1278 91.2948 34.4006 91.3459C34.6761 91.3942 34.9418 91.4951 35.1974 91.6485C35.456 91.8019 35.6705 92.0334 35.8409 92.3431C36.0114 92.6527 36.0966 93.0675 36.0966 93.5874V97.8999H35.0909V97.0135H35.0398C34.9716 97.1556 34.858 97.3076 34.6989 97.4695C34.5398 97.6314 34.3281 97.7692 34.0639 97.8829C33.7997 97.9965 33.4773 98.0533 33.0966 98.0533ZM33.25 97.1499C33.6477 97.1499 33.983 97.0718 34.2557 96.9155C34.5313 96.7593 34.7386 96.5576 34.8778 96.3104C35.0199 96.0633 35.0909 95.8033 35.0909 95.5306V94.6101C35.0483 94.6613 34.9545 94.7081 34.8097 94.7508C34.6676 94.7905 34.5028 94.826 34.3153 94.8573C34.1307 94.8857 33.9503 94.9113 33.7741 94.934C33.6009 94.9539 33.4602 94.9709 33.3523 94.9851C33.0909 95.0192 32.8466 95.0746 32.6193 95.1513C32.3949 95.2252 32.2131 95.3374 32.0739 95.488C31.9375 95.6357 31.8693 95.8374 31.8693 96.0931C31.8693 96.4425 31.9986 96.7067 32.2571 96.8857C32.5185 97.0618 32.8494 97.1499 33.25 97.1499ZM40.5913 98.0363C39.9776 98.0363 39.4492 97.8914 39.006 97.6016C38.5629 97.3118 38.2219 96.9127 37.9833 96.4042C37.7447 95.8956 37.6254 95.3147 37.6254 94.6613C37.6254 93.9965 37.7475 93.4098 37.9918 92.9013C38.239 92.39 38.5827 91.9908 39.0231 91.7039C39.4663 91.4141 39.9833 91.2692 40.5742 91.2692C41.0344 91.2692 41.4492 91.3544 41.8185 91.5249C42.1879 91.6954 42.4904 91.934 42.7262 92.2408C42.962 92.5476 43.1083 92.9056 43.1651 93.3147H42.1594C42.0827 93.0164 41.9123 92.7522 41.6481 92.5221C41.3867 92.2891 41.0344 92.1726 40.5913 92.1726C40.1992 92.1726 39.8555 92.2749 39.56 92.4794C39.2674 92.6812 39.0387 92.9667 38.8739 93.336C38.712 93.7025 38.631 94.1329 38.631 94.6272C38.631 95.1329 38.7106 95.5732 38.8697 95.9482C39.0316 96.3232 39.2589 96.6144 39.5515 96.8218C39.8469 97.0292 40.1935 97.1329 40.5913 97.1329C40.8526 97.1329 41.0898 97.0874 41.3029 96.9965C41.516 96.9056 41.6964 96.7749 41.8441 96.6044C41.9918 96.434 42.0969 96.2294 42.1594 95.9908H43.1651C43.1083 96.3772 42.9677 96.7252 42.7433 97.0348C42.5217 97.3417 42.2276 97.586 41.8612 97.7678C41.4975 97.9468 41.0742 98.0363 40.5913 98.0363ZM47.4819 91.3544V92.2067H44.0898V91.3544H47.4819ZM45.0785 89.7863H46.0842V96.0249C46.0842 96.309 46.1254 96.5221 46.2077 96.6641C46.293 96.8033 46.4009 96.8971 46.5316 96.9454C46.6651 96.9908 46.8058 97.0135 46.9535 97.0135C47.0643 97.0135 47.1552 97.0079 47.2262 96.9965C47.2972 96.9823 47.354 96.9709 47.3967 96.9624L47.6012 97.8658C47.533 97.8914 47.4379 97.9169 47.3157 97.9425C47.1935 97.9709 47.0387 97.9851 46.8512 97.9851C46.5671 97.9851 46.2887 97.9241 46.016 97.8019C45.7461 97.6797 45.5217 97.4937 45.3427 97.2437C45.1665 96.9937 45.0785 96.6783 45.0785 96.2976V89.7863Z" fill="#1D1D1B"/>
<path d="M47.85 61H47.59C47.27 60.86 46.96 60.86 46.64 61H46.38C46.25 60.82 46.06 60.93 45.9 60.89C44.14 60.47 42.49 59.81 40.91 58.94C38.44 57.57 36.27 55.81 34.22 53.88C33.96 53.63 33.81 53.7 33.63 53.89C32.81 54.75 31.88 55.48 30.96 56.22C29.38 57.5 27.67 58.57 25.82 59.44C24.82 59.92 23.8 60.35 22.72 60.6C22.16 60.73 21.59 60.86 21.02 60.99H20.85C20.37 60.8 19.87 60.95 19.38 60.9C17.78 60.82 16.45 60.17 15.43 58.96C14.48 57.83 13.81 56.54 13.54 55.06C13.35 54.06 13.19 53.06 13.11 52.04C12.98 50.38 13.07 48.72 13.27 47.09C13.45 45.61 13.7 44.12 14.11 42.67C14.19 42.4 14.11 42.32 13.88 42.25C12.28 41.79 10.72 41.22 9.2 40.53C6.53 39.31 4.04 37.82 2.06 35.59C1.39 34.83 0.860002 33.98 0.440002 33.06C0.0300024 32.17 0.06 31.23 0 30.29C0 30.23 0 30.17 0 30.12C0.25 28.98 0.670001 27.92 1.36 26.98C2.7 25.16 4.48 23.85 6.42 22.74C8.72 21.42 11.18 20.49 13.71 19.73C14.25 19.57 14.24 19.57 14.1 19.01C13.98 18.51 13.84 18.01 13.74 17.51C13.57 16.59 13.46 15.66 13.34 14.73C12.99 12.12 12.93 9.51999 13.49 6.92999C13.76 5.64999 14.21 4.44999 14.96 3.36999C15.54 2.51999 16.28 1.83 17.21 1.41C18.78 0.700002 20.42 0.749985 22.07 1.07998C23.88 1.44998 25.53 2.21999 27.12 3.11999C29.45 4.43999 31.54 6.08998 33.48 7.91998C33.77 8.18998 33.93 8.17998 34.2 7.91998C35 7.15998 35.82 6.40998 36.7 5.72998C39.76 3.35998 42.93 1.20998 46.95 0.829985C48.42 0.689985 49.81 0.959997 51.04 1.78C52.42 2.71 53.19 4.10998 53.73 5.63998C54.02 6.46998 54.18 7.33998 54.34 8.19998C54.36 8.22998 54.39 8.25998 54.41 8.28998C54.45 8.42998 54.36 8.54998 54.38 8.69998C54.45 9.23998 54.49 9.77998 54.51 10.33C54.55 11.62 54.52 12.91 54.34 14.19C54.22 15.08 54.13 15.97 53.98 16.85C53.84 17.67 53.65 18.49 53.48 19.31C53.43 19.54 53.48 19.65 53.74 19.72C55.06 20.11 56.37 20.55 57.64 21.08C60.69 22.36 63.59 23.88 65.8 26.45C66.59 27.37 67.2 28.39 67.48 29.58C67.52 29.76 67.48 29.95 67.66 30.08V31.38C67.45 31.72 67.5 32.13 67.39 32.5C66.86 34.25 65.68 35.54 64.37 36.73C62.52 38.4 60.35 39.56 58.09 40.55C56.72 41.15 55.31 41.67 53.87 42.08C53.73 42.12 53.53 42.13 53.61 42.37C53.82 42.97 53.89 43.6 54.02 44.22C54.33 45.68 54.46 47.16 54.6 48.63C54.74 50.15 54.63 51.67 54.44 53.18C54.15 55.46 53.52 57.6 51.84 59.29C50.92 60.21 49.83 60.74 48.54 60.87C48.31 60.9 48.07 60.8 47.86 60.96L47.85 61ZM43.84 20.71C43.84 20.71 43.88 20.68 43.85 20.65C43.84 20.65 43.82 20.63 43.82 20.63C43.8 20.63 43.79 20.66 43.77 20.67C43.79 20.68 43.81 20.7 47.64 27.42C47.71 27.39 47.72 27.39 47.73 27.38C48.56 25.6 49.19 23.74 49.8 21.88C49.86 21.69 49.77 21.66 49.62 21.63C49.1 21.53 48.59 21.43 48.07 21.31C46.8 21.03 45.5 20.94 44.24 20.62C44.13 20.59 43.94 20.65 43.86 20.73C43.79 20.8 43.92 20.93 43.98 21.03C44.16 21.33 44.35 21.61 44.53 21.91C45.59 23.72 46.65 25.54 43.84 20.7V20.71ZM25.26 5.42999C25.26 5.42999 25.2 5.38999 25.17 5.36999C24.84 5.24999 24.59 4.98999 24.23 4.92999C24.21 4.82999 24.15 4.77999 24.06 4.76999C23.88 4.71999 23.69 4.69999 23.53 4.61999C22.28 4.03999 20.99 3.79999 19.6 3.79999C18.05 3.79999 16.99 5.20998 16.69 6.50998C16.67 6.53998 16.64 6.55999 16.62 6.58999C16.23 7.59999 16.05 8.65998 16.03 9.72998C15.99 11.19 15.99 12.66 16.17 14.12C16.36 15.63 16.64 17.11 16.98 18.59C17.03 18.8 17.1 18.87 17.34 18.82C18.11 18.65 18.87 18.49 19.65 18.36C20.85 18.16 22.05 17.92 23.27 17.81C23.96 17.75 24.66 17.67 25.35 17.58C25.82 17.52 26.22 17.42 26.48 16.95C26.7 16.55 27.01 16.2 27.28 15.83C28.34 14.41 29.45 13.04 30.61 11.71C30.77 11.69 30.82 11.59 30.82 11.44C31.09 11.13 31.35 10.81 31.63 10.51C31.76 10.37 31.73 10.27 31.61 10.15C30.74 9.27999 29.77 8.52999 28.81 7.76999C27.7 6.88999 26.52 6.1 25.27 5.44L25.26 5.42999ZM38.08 41.69C38.55 41.78 39.06 41.6 39.57 41.62C39.89 41.64 40.07 41.51 40.24 41.26C42.38 38 44.33 34.63 46.03 31.12C46.12 30.94 46.13 30.79 46.03 30.6C45.67 29.92 45.34 29.22 44.98 28.54C43.52 25.77 41.92 23.09 40.18 20.49C40.09 20.35 39.99 20.27 39.81 20.24C39.06 20.12 38.3 20.14 37.54 20.09C34.53 19.89 31.53 20 28.52 20.16C27.92 20.19 27.49 20.39 27.15 20.96C26.4 22.21 25.59 23.41 24.85 24.67C23.78 26.49 22.78 28.35 21.79 30.22C21.55 30.67 21.5 31.07 21.78 31.54C22.31 32.47 22.77 33.45 23.29 34.39C24.53 36.63 25.88 38.81 27.25 40.97C27.58 41.49 27.88 41.85 28.6 41.71C29.26 41.58 29.93 41.77 30.6 41.77C33.08 41.77 35.56 41.84 38.09 41.68L38.08 41.69ZM18.28 30.9C18.24 30.79 18.22 30.69 18.18 30.6C17.03 28.01 15.94 25.41 15.13 22.69C15.05 22.41 14.91 22.38 14.65 22.47C14.08 22.67 13.49 22.83 12.92 23.02C10.32 23.91 7.84 25.03 5.64 26.72C4.69 27.46 3.83 28.29 3.27 29.38C3.03 29.85 2.77 30.37 2.86 30.9C3.1 32.33 3.74 33.59 4.87 34.49C6.64 35.92 8.53 37.18 10.64 38.07C11.93 38.61 13.23 39.11 14.59 39.48C14.89 39.56 14.99 39.48 15.08 39.2C15.95 36.46 16.98 33.79 18.17 31.17C18.21 31.08 18.24 30.98 18.27 30.89L18.28 30.9ZM15.98 50.57C15.98 51.72 15.98 52.86 16.26 53.99C16.48 54.91 16.73 55.81 17.25 56.6C17.58 57.1 17.96 57.55 18.55 57.75C19.83 58.2 21.13 58.21 22.4 57.75C24.06 57.15 25.65 56.37 27.14 55.41C28.79 54.35 30.31 53.13 31.7 51.75C31.89 51.56 31.86 51.48 31.7 51.31C31.3 50.89 30.92 50.46 30.54 50.03C29.03 48.3 27.61 46.5 26.28 44.63C26.19 44.5 26.1 44.35 25.91 44.38C25.19 44.48 24.53 44.02 23.81 44.19C23.74 44.2 23.66 44.12 23.58 44.08C23.51 44.05 23.44 43.97 23.35 44.01C22.69 44.22 22.04 43.99 21.41 43.91C20.01 43.73 18.63 43.4 17.24 43.12C17.01 43.07 16.91 43.17 16.87 43.36C16.33 45.73 15.91 48.12 15.96 50.57H15.98ZM35.93 51.52C36.58 52.32 37.37 52.99 38.16 53.6C39.15 54.36 40.13 55.15 41.22 55.78C42.4 56.46 43.57 57.13 44.84 57.63C45.54 57.9 46.28 58.01 47.01 58.12C47.79 58.24 48.6 58.16 49.25 57.69C50.29 56.94 50.98 55.88 51.28 54.63C51.6 53.31 51.68 51.95 51.73 50.59C51.77 49.51 51.66 48.44 51.58 47.37C51.48 45.96 51.1 44.62 50.86 43.24C50.82 43.02 50.69 42.96 50.49 43C49.06 43.28 47.63 43.59 46.19 43.81C44.92 44 43.65 44.12 42.38 44.3C42.08 44.34 41.72 44.19 41.47 44.56C39.79 47 37.99 49.35 35.94 51.5L35.93 51.52ZM47.62 3.72998C45.84 3.65998 44.37 4.31998 42.95 5.03998C41.28 5.88998 39.74 6.96998 38.3 8.16998C37.59 8.75998 36.9 9.35999 36.21 9.95999C36 10.15 35.84 10.35 36.11 10.63C37.98 12.59 39.65 14.72 41.21 16.94C41.53 17.39 41.89 17.58 42.42 17.57C42.77 17.56 43.14 17.57 43.46 17.63C43.96 17.73 44.46 17.83 44.96 17.89C45.82 17.99 46.67 18.15 47.53 18.28C48.45 18.43 49.36 18.65 50.28 18.84C50.51 18.89 50.68 18.87 50.71 18.54C50.77 18.03 50.88 17.53 51.01 17.03C51.34 15.66 51.45 14.27 51.57 12.87C51.65 11.84 51.67 10.81 51.57 9.76999C51.44 8.35999 51.26 6.96999 50.62 5.67999C49.99 4.38999 49.06 3.53999 47.62 3.70999V3.72998ZM64.71 30.63C64.71 30.15 64.55 29.63 64.09 28.95C63.14 27.56 61.82 26.58 60.42 25.7C59.31 25.01 58.14 24.45 56.93 23.94C55.65 23.39 54.35 22.93 53.02 22.51C52.82 22.45 52.6 22.38 52.54 22.66C52.28 23.73 51.85 24.74 51.47 25.77C50.92 27.26 50.32 28.73 49.65 30.17C49.51 30.48 49.31 30.77 49.51 31.17C50.74 33.71 51.78 36.33 52.65 39.01C52.75 39.32 52.86 39.41 53.2 39.3C55.38 38.62 57.49 37.78 59.48 36.66C61.04 35.78 62.52 34.78 63.67 33.37C64.25 32.65 64.76 31.87 64.72 30.63H64.71ZM23.9 41.29C23.9 41.29 23.93 41.22 23.94 41.19C23.82 41 23.7 40.8 23.58 40.61C22.38 38.72 21.24 36.79 20.21 34.79C20.15 34.67 20.13 34.47 19.96 34.48C19.79 34.49 19.79 34.69 19.74 34.82C19.1 36.34 18.54 37.88 18.02 39.44C17.72 40.35 17.7 40.34 18.65 40.5C19.83 40.7 21 40.88 22.17 41.11C22.75 41.22 23.32 41.16 23.89 41.28L23.9 41.29ZM47.71 34.31C47.39 34.7 47.22 35.16 46.99 35.59C46.02 37.37 45.01 39.13 43.91 40.84C43.85 40.93 43.74 41.04 43.8 41.15C43.86 41.26 44.02 41.22 44.12 41.2C44.67 41.04 45.25 41.1 45.81 40.98C47.07 40.71 48.34 40.53 49.6 40.26C49.91 40.19 49.94 40.1 49.85 39.81C49.31 38.12 48.67 36.47 47.98 34.85C47.9 34.67 47.87 34.46 47.7 34.32L47.71 34.31ZM29.95 44.66C30 44.77 30.02 44.82 30.05 44.86C31.21 46.4 32.49 47.84 33.71 49.33C33.84 49.49 33.93 49.49 34.08 49.33C35.09 48.2 36.06 47.04 36.98 45.85C37.23 45.53 37.47 45.21 37.71 44.88C37.75 44.83 37.81 44.77 37.76 44.69C37.72 44.63 37.67 44.59 37.58 44.61C36.85 44.72 36.11 44.7 35.37 44.69C33.96 44.67 32.55 44.68 31.13 44.67C30.75 44.67 30.37 44.67 29.95 44.67V44.66ZM37.08 17.23C37.28 17.23 37.53 17.31 37.64 17.11C37.75 16.92 37.51 16.79 37.4 16.65C36.36 15.25 35.22 13.94 34.07 12.64C33.9 12.45 33.78 12.45 33.62 12.63C33.4 12.89 33.16 13.14 32.94 13.4C31.96 14.53 31 15.68 30.1 16.87C30.03 16.96 29.91 17.04 29.96 17.16C30.02 17.29 30.17 17.23 30.27 17.23C30.68 17.21 31.1 17.16 31.51 17.15C33.36 17.13 35.22 17.08 37.07 17.22L37.08 17.23ZM19.96 27.53C20.38 26.75 20.73 26.07 21.1 25.42C21.94 23.96 22.71 22.47 23.65 21.07C23.71 20.98 23.81 20.86 23.75 20.76C23.67 20.64 23.51 20.68 23.39 20.7C23.05 20.75 22.72 20.84 22.38 20.87C20.95 20.98 19.56 21.33 18.16 21.59C17.86 21.65 17.85 21.78 17.93 22.03C18.22 22.84 18.47 23.66 18.77 24.47C19.13 25.45 19.53 26.43 19.96 27.53Z" fill="#1D1D1B"/>
<path d="M19.3799 61C19.3799 61 19.3799 60.94 19.3799 60.91C19.8699 60.96 20.3699 60.81 20.8499 61H19.3799Z" fill="#1D1D1B"/>
<path d="M46.6399 61C46.9599 60.86 47.2699 60.86 47.5899 61H46.6399Z" fill="#1D1D1B"/>
<path d="M48.5401 60.9101C48.5401 60.9101 48.5401 60.9701 48.5401 61.0001H47.8501C48.0601 60.8401 48.3101 60.9401 48.5301 60.9101H48.5401Z" fill="#1D1D1B"/>
<path d="M30.6001 11.7099C30.6001 11.5699 30.7001 11.4999 30.8101 11.4399C30.8101 11.5899 30.7601 11.6899 30.6001 11.7099Z" fill="#1D1D1B"/>
<path d="M24.2301 4.93002C24.1101 4.95002 24.0901 4.85002 24.0601 4.77002C24.1601 4.78002 24.2201 4.83002 24.2301 4.93002Z" fill="#1D1D1B"/>
<path d="M25.2599 5.44C25.1999 5.46 25.1899 5.42 25.1699 5.38C25.1999 5.4 25.2299 5.42 25.2599 5.44Z" fill="#1D1D1B"/>
<path d="M16.6901 6.51001C16.6901 6.51001 16.6401 6.56003 16.6201 6.59003C16.6401 6.56003 16.6701 6.54001 16.6901 6.51001Z" fill="#1D1D1B"/>
<path d="M54.3401 8.22998C54.3401 8.22998 54.3901 8.28998 54.4101 8.31998C54.3901 8.28998 54.3601 8.25998 54.3401 8.22998Z" fill="#1D1D1B"/>
<path d="M33.8601 24.84C37.3301 24.76 39.6301 27.68 39.8201 30.18C39.9701 32.11 39.4401 33.81 38.1001 35.14C36.9601 36.28 35.4901 36.87 33.8101 36.87C30.5201 36.88 27.6401 34.14 27.7701 30.63C27.9001 27.16 30.8901 24.65 33.8501 24.83L33.8601 24.84Z" fill="#1D1D1B"/>
</svg>
