<svg width="75" height="113" viewBox="0 0 75 113" fill="none" xmlns="http://www.w3.org/2000/svg">
<path d="M65.71 0.5H9.32001C4.725 0.5 1 4.22499 1 8.82V65.21C1 69.805 4.725 73.53 9.32001 73.53H65.71C70.305 73.53 74.03 69.805 74.03 65.21V8.82C74.03 4.22499 70.305 0.5 65.71 0.5Z" stroke="#1D1D1B" stroke-miterlimit="10"/>
<path d="M21.1173 48.97H16.8905L29.1158 15.6754H33.2776L45.503 48.97H41.2761L31.3268 20.9427H31.0667L21.1173 48.97ZM22.678 35.9643H39.7155V39.5409H22.678V35.9643ZM50.437 48.97V23.9991H54.2737V48.97H50.437ZM52.3879 19.8372C51.64 19.8372 50.9952 19.5825 50.4533 19.0732C49.9222 18.5638 49.6567 17.9514 49.6567 17.2361C49.6567 16.5208 49.9222 15.9084 50.4533 15.3991C50.9952 14.8897 51.64 14.635 52.3879 14.635C53.1357 14.635 53.7751 14.8897 54.3062 15.3991C54.8481 15.9084 55.1191 16.5208 55.1191 17.2361C55.1191 17.9514 54.8481 18.5638 54.3062 19.0732C53.7751 19.5825 53.1357 19.8372 52.3879 19.8372Z" fill="#1D1D1B"/>
<path d="M11.9205 109.89V103.345H12.9261V109.89H11.9205ZM12.4318 102.254C12.2358 102.254 12.0668 102.187 11.9247 102.053C11.7855 101.92 11.7159 101.759 11.7159 101.572C11.7159 101.384 11.7855 101.224 11.9247 101.09C12.0668 100.957 12.2358 100.89 12.4318 100.89C12.6278 100.89 12.7955 100.957 12.9347 101.09C13.0767 101.224 13.1477 101.384 13.1477 101.572C13.1477 101.759 13.0767 101.92 12.9347 102.053C12.7955 102.187 12.6278 102.254 12.4318 102.254ZM15.7738 101.163V109.89H14.7681V101.163H15.7738ZM18.6214 101.163V109.89H17.6158V101.163H18.6214ZM24.5884 107.214V103.345H25.5941V109.89H24.5884V108.782H24.5202C24.3668 109.114 24.1282 109.397 23.8043 109.63C23.4805 109.86 23.0714 109.975 22.5771 109.975C22.168 109.975 21.8043 109.886 21.4862 109.707C21.168 109.525 20.918 109.252 20.7362 108.889C20.5543 108.522 20.4634 108.06 20.4634 107.504V103.345H21.4691V107.435C21.4691 107.913 21.6026 108.293 21.8697 108.578C22.1396 108.862 22.4833 109.004 22.9009 109.004C23.1509 109.004 23.4052 108.94 23.6637 108.812C23.9251 108.684 24.1438 108.488 24.32 108.224C24.4989 107.96 24.5884 107.623 24.5884 107.214ZM32.0724 104.81L31.169 105.066C31.1122 104.916 31.0284 104.769 30.9176 104.627C30.8097 104.482 30.6619 104.363 30.4744 104.269C30.2869 104.176 30.0469 104.129 29.7543 104.129C29.3537 104.129 29.0199 104.221 28.7528 104.406C28.4886 104.587 28.3565 104.819 28.3565 105.1C28.3565 105.35 28.4474 105.548 28.6293 105.693C28.8111 105.837 29.0952 105.958 29.4815 106.055L30.4531 106.293C31.0384 106.435 31.4744 106.653 31.7614 106.945C32.0483 107.235 32.1918 107.609 32.1918 108.066C32.1918 108.441 32.0838 108.776 31.8679 109.072C31.6548 109.367 31.3565 109.6 30.973 109.771C30.5895 109.941 30.1435 110.026 29.6349 110.026C28.9673 110.026 28.4148 109.881 27.9773 109.592C27.5398 109.302 27.2628 108.879 27.1463 108.322L28.1009 108.083C28.1918 108.435 28.3636 108.7 28.6165 108.876C28.8722 109.052 29.206 109.14 29.6179 109.14C30.0866 109.14 30.4588 109.041 30.7344 108.842C31.0128 108.64 31.152 108.399 31.152 108.117C31.152 107.89 31.0724 107.7 30.9134 107.546C30.7543 107.39 30.5099 107.274 30.1804 107.197L29.0895 106.941C28.4901 106.799 28.0497 106.579 27.7685 106.281C27.4901 105.98 27.3509 105.603 27.3509 105.151C27.3509 104.782 27.4545 104.455 27.6619 104.171C27.8722 103.887 28.1577 103.664 28.5185 103.502C28.8821 103.34 29.294 103.259 29.7543 103.259C30.402 103.259 30.9105 103.401 31.2798 103.685C31.652 103.97 31.9162 104.345 32.0724 104.81ZM36.5522 103.345V104.197H33.1602V103.345H36.5522ZM34.1488 101.776H35.1545V108.015C35.1545 108.299 35.1957 108.512 35.2781 108.654C35.3633 108.793 35.4712 108.887 35.6019 108.935C35.7354 108.981 35.8761 109.004 36.0238 109.004C36.1346 109.004 36.2255 108.998 36.2965 108.987C36.3675 108.972 36.4244 108.961 36.467 108.953L36.6715 109.856C36.6033 109.881 36.5082 109.907 36.386 109.933C36.2638 109.961 36.109 109.975 35.9215 109.975C35.6374 109.975 35.359 109.914 35.0863 109.792C34.8164 109.67 34.592 109.484 34.413 109.234C34.2369 108.984 34.1488 108.668 34.1488 108.288V101.776ZM38.065 109.89V103.345H39.0366V104.333H39.1048C39.2241 104.009 39.44 103.747 39.7525 103.545C40.065 103.343 40.4173 103.242 40.8093 103.242C40.8832 103.242 40.9755 103.244 41.0863 103.247C41.1971 103.249 41.2809 103.254 41.3377 103.259V104.282C41.3036 104.274 41.2255 104.261 41.1033 104.244C40.984 104.224 40.8576 104.214 40.7241 104.214C40.4059 104.214 40.1218 104.281 39.8718 104.414C39.6246 104.545 39.4286 104.727 39.2837 104.96C39.1417 105.19 39.0707 105.453 39.0707 105.748V109.89H38.065ZM44.456 110.043C44.0412 110.043 43.6648 109.965 43.3267 109.809C42.9886 109.65 42.7202 109.421 42.5213 109.123C42.3224 108.822 42.223 108.458 42.223 108.032C42.223 107.657 42.2969 107.353 42.4446 107.12C42.5923 106.884 42.7898 106.7 43.0369 106.566C43.2841 106.433 43.5568 106.333 43.8551 106.268C44.1563 106.2 44.4588 106.146 44.7628 106.106C45.1605 106.055 45.483 106.016 45.7301 105.991C45.9801 105.962 46.1619 105.916 46.2756 105.85C46.392 105.785 46.4503 105.671 46.4503 105.509V105.475C46.4503 105.055 46.3352 104.728 46.1051 104.495C45.8778 104.262 45.5327 104.146 45.0696 104.146C44.5895 104.146 44.2131 104.251 43.9403 104.461C43.6676 104.671 43.4759 104.896 43.3651 105.134L42.4105 104.793C42.581 104.396 42.8082 104.086 43.0923 103.864C43.3793 103.64 43.6918 103.484 44.0298 103.396C44.3707 103.305 44.706 103.259 45.0355 103.259C45.2457 103.259 45.4872 103.285 45.7599 103.336C46.0355 103.384 46.3011 103.485 46.5568 103.639C46.8153 103.792 47.0298 104.024 47.2003 104.333C47.3707 104.643 47.456 105.058 47.456 105.578V109.89H46.4503V109.004H46.3991C46.331 109.146 46.2173 109.298 46.0582 109.46C45.8991 109.622 45.6875 109.759 45.4233 109.873C45.1591 109.987 44.8366 110.043 44.456 110.043ZM44.6094 109.14C45.0071 109.14 45.3423 109.062 45.6151 108.906C45.8906 108.749 46.098 108.548 46.2372 108.301C46.3793 108.053 46.4503 107.793 46.4503 107.521V106.6C46.4077 106.651 46.3139 106.698 46.169 106.741C46.027 106.781 45.8622 106.816 45.6747 106.847C45.4901 106.876 45.3097 106.901 45.1335 106.924C44.9602 106.944 44.8196 106.961 44.7116 106.975C44.4503 107.009 44.206 107.065 43.9787 107.141C43.7543 107.215 43.5724 107.328 43.4332 107.478C43.2969 107.626 43.2287 107.828 43.2287 108.083C43.2287 108.433 43.358 108.697 43.6165 108.876C43.8778 109.052 44.2088 109.14 44.6094 109.14ZM52.1381 103.345V104.197H48.7461V103.345H52.1381ZM49.7347 101.776H50.7404V108.015C50.7404 108.299 50.7816 108.512 50.864 108.654C50.9492 108.793 51.0572 108.887 51.1879 108.935C51.3214 108.981 51.462 109.004 51.6097 109.004C51.7205 109.004 51.8114 108.998 51.8825 108.987C51.9535 108.972 52.0103 108.961 52.0529 108.953L52.2575 109.856C52.1893 109.881 52.0941 109.907 51.9719 109.933C51.8498 109.961 51.695 109.975 51.5075 109.975C51.2234 109.975 50.945 109.914 50.6722 109.792C50.4023 109.67 50.1779 109.484 49.9989 109.234C49.8228 108.984 49.7347 108.668 49.7347 108.288V101.776ZM56.2397 110.026C55.6488 110.026 55.1303 109.886 54.6843 109.605C54.2411 109.323 53.8945 108.93 53.6445 108.424C53.3974 107.918 53.2738 107.328 53.2738 106.651C53.2738 105.97 53.3974 105.374 53.6445 104.866C53.8945 104.357 54.2411 103.962 54.6843 103.681C55.1303 103.4 55.6488 103.259 56.2397 103.259C56.8306 103.259 57.3477 103.4 57.7908 103.681C58.2369 103.962 58.5835 104.357 58.8306 104.866C59.0806 105.374 59.2056 105.97 59.2056 106.651C59.2056 107.328 59.0806 107.918 58.8306 108.424C58.5835 108.93 58.2369 109.323 57.7908 109.605C57.3477 109.886 56.8306 110.026 56.2397 110.026ZM56.2397 109.123C56.6886 109.123 57.0579 109.008 57.3477 108.778C57.6374 108.548 57.8519 108.245 57.9911 107.87C58.1303 107.495 58.1999 107.089 58.1999 106.651C58.1999 106.214 58.1303 105.806 57.9911 105.428C57.8519 105.051 57.6374 104.745 57.3477 104.512C57.0579 104.279 56.6886 104.163 56.2397 104.163C55.7908 104.163 55.4215 104.279 55.1317 104.512C54.842 104.745 54.6275 105.051 54.4883 105.428C54.3491 105.806 54.2795 106.214 54.2795 106.651C54.2795 107.089 54.3491 107.495 54.4883 107.87C54.6275 108.245 54.842 108.548 55.1317 108.778C55.4215 109.008 55.7908 109.123 56.2397 109.123ZM60.7408 109.89V103.345H61.7124V104.333H61.7805C61.8999 104.009 62.1158 103.747 62.4283 103.545C62.7408 103.343 63.093 103.242 63.4851 103.242C63.5589 103.242 63.6513 103.244 63.7621 103.247C63.8729 103.249 63.9567 103.254 64.0135 103.259V104.282C63.9794 104.274 63.9013 104.261 63.7791 104.244C63.6598 104.224 63.5334 104.214 63.3999 104.214C63.0817 104.214 62.7976 104.281 62.5476 104.414C62.3004 104.545 62.1044 104.727 61.9595 104.96C61.8175 105.19 61.7464 105.453 61.7464 105.748V109.89H60.7408Z" fill="#1D1D1B"/>
</svg>
