<svg width="58" height="104" viewBox="0 0 58 104" fill="none" xmlns="http://www.w3.org/2000/svg">
<path d="M24.0795 94.71H23.0227C22.9602 94.406 22.8509 94.1389 22.6946 93.9088C22.5412 93.6787 22.3537 93.4855 22.1321 93.3293C21.9134 93.1702 21.6705 93.0509 21.4034 92.9713C21.1364 92.8918 20.858 92.852 20.5682 92.852C20.0398 92.852 19.5611 92.9855 19.1321 93.2526C18.706 93.5196 18.3665 93.9131 18.1136 94.433C17.8636 94.9529 17.7386 95.5906 17.7386 96.3463C17.7386 97.102 17.8636 97.7398 18.1136 98.2597C18.3665 98.7796 18.706 99.173 19.1321 99.4401C19.5611 99.7071 20.0398 99.8406 20.5682 99.8406C20.858 99.8406 21.1364 99.8009 21.4034 99.7213C21.6705 99.6418 21.9134 99.5239 22.1321 99.3676C22.3537 99.2085 22.5412 99.0139 22.6946 98.7838C22.8509 98.5509 22.9602 98.2838 23.0227 97.9827H24.0795C24 98.4287 23.8551 98.8279 23.6449 99.1801C23.4347 99.5324 23.1733 99.8321 22.8608 100.079C22.5483 100.324 22.1974 100.51 21.8082 100.638C21.4219 100.765 21.0085 100.829 20.5682 100.829C19.8239 100.829 19.1619 100.647 18.5824 100.284C18.0028 99.9202 17.5469 99.4031 17.2145 98.7327C16.8821 98.0622 16.7159 97.2668 16.7159 96.3463C16.7159 95.4259 16.8821 94.6304 17.2145 93.96C17.5469 93.2895 18.0028 92.7725 18.5824 92.4088C19.1619 92.0452 19.8239 91.8634 20.5682 91.8634C21.0085 91.8634 21.4219 91.9273 21.8082 92.0551C22.1974 92.183 22.5483 92.3705 22.8608 92.6176C23.1733 92.8619 23.4347 93.1602 23.6449 93.5125C23.8551 93.8619 24 94.2611 24.0795 94.71ZM30.56 94.1645C30.5089 93.7327 30.3015 93.3975 29.9379 93.1588C29.5742 92.9202 29.1282 92.8009 28.5998 92.8009C28.2134 92.8009 27.8754 92.8634 27.5856 92.9884C27.2987 93.1134 27.0742 93.2852 26.9123 93.504C26.7532 93.7227 26.6737 93.9713 26.6737 94.2497C26.6737 94.4827 26.729 94.683 26.8398 94.8506C26.9535 95.0154 27.0984 95.1531 27.2745 95.2639C27.4506 95.3719 27.6353 95.4614 27.8285 95.5324C28.0217 95.6006 28.1992 95.656 28.3612 95.6986L29.2475 95.9372C29.4748 95.9969 29.7276 96.0793 30.006 96.1844C30.2873 96.2895 30.5558 96.433 30.8114 96.6148C31.07 96.7938 31.283 97.0239 31.4506 97.3051C31.6183 97.5864 31.7021 97.9316 31.7021 98.3406C31.7021 98.8122 31.5785 99.2384 31.3313 99.6191C31.087 99.9997 30.729 100.302 30.2575 100.527C29.7887 100.751 29.2191 100.863 28.5487 100.863C27.9237 100.863 27.3825 100.763 26.9251 100.561C26.4705 100.359 26.1126 100.078 25.8512 99.7171C25.5927 99.3563 25.4464 98.9372 25.4123 98.46H26.5032C26.5316 98.7895 26.6424 99.0622 26.8356 99.2781C27.0316 99.4912 27.2788 99.6503 27.5771 99.7554C27.8782 99.8577 28.2021 99.9088 28.5487 99.9088C28.9521 99.9088 29.3143 99.8435 29.6353 99.7128C29.9563 99.5793 30.2106 99.3946 30.3981 99.1588C30.5856 98.9202 30.6793 98.6418 30.6793 98.3236C30.6793 98.0338 30.5984 97.798 30.4364 97.6162C30.2745 97.4344 30.0614 97.2867 29.7972 97.173C29.533 97.0594 29.2475 96.96 28.9407 96.8747L27.8668 96.5679C27.185 96.3719 26.6452 96.0921 26.2475 95.7284C25.8498 95.3648 25.6509 94.8889 25.6509 94.3009C25.6509 93.8122 25.783 93.3861 26.0472 93.0225C26.3143 92.656 26.6722 92.3719 27.1211 92.1702C27.5728 91.9656 28.0771 91.8634 28.6339 91.8634C29.1964 91.8634 29.6964 91.9642 30.1339 92.1659C30.5714 92.3648 30.918 92.6375 31.1737 92.9841C31.4322 93.3307 31.5685 93.7242 31.5827 94.1645H30.56ZM38.2124 94.1645C38.1612 93.7327 37.9538 93.3975 37.5902 93.1588C37.2266 92.9202 36.7805 92.8009 36.2521 92.8009C35.8658 92.8009 35.5277 92.8634 35.2379 92.9884C34.951 93.1134 34.7266 93.2852 34.5646 93.504C34.4055 93.7227 34.326 93.9713 34.326 94.2497C34.326 94.4827 34.3814 94.683 34.4922 94.8506C34.6058 95.0154 34.7507 95.1531 34.9268 95.2639C35.103 95.3719 35.2876 95.4614 35.4808 95.5324C35.674 95.6006 35.8516 95.656 36.0135 95.6986L36.8999 95.9372C37.1271 95.9969 37.38 96.0793 37.6584 96.1844C37.9396 96.2895 38.2081 96.433 38.4638 96.6148C38.7223 96.7938 38.9354 97.0239 39.103 97.3051C39.2706 97.5864 39.3544 97.9316 39.3544 98.3406C39.3544 98.8122 39.2308 99.2384 38.9837 99.6191C38.7393 99.9997 38.3814 100.302 37.9098 100.527C37.4411 100.751 36.8714 100.863 36.201 100.863C35.576 100.863 35.0348 100.763 34.5774 100.561C34.1229 100.359 33.7649 100.078 33.5036 99.7171C33.245 99.3563 33.0987 98.9372 33.0646 98.46H34.1555C34.1839 98.7895 34.2947 99.0622 34.4879 99.2781C34.6839 99.4912 34.9311 99.6503 35.2294 99.7554C35.5305 99.8577 35.8544 99.9088 36.201 99.9088C36.6044 99.9088 36.9666 99.8435 37.2876 99.7128C37.6087 99.5793 37.8629 99.3946 38.0504 99.1588C38.2379 98.9202 38.3317 98.6418 38.3317 98.3236C38.3317 98.0338 38.2507 97.798 38.0888 97.6162C37.9268 97.4344 37.7138 97.2867 37.4496 97.173C37.1854 97.0594 36.8999 96.96 36.593 96.8747L35.5192 96.5679C34.8374 96.3719 34.2976 96.0921 33.8999 95.7284C33.5021 95.3648 33.3033 94.8889 33.3033 94.3009C33.3033 93.8122 33.4354 93.3861 33.6996 93.0225C33.9666 92.656 34.3246 92.3719 34.7734 92.1702C35.2251 91.9656 35.7294 91.8634 36.2862 91.8634C36.8487 91.8634 37.3487 91.9642 37.7862 92.1659C38.2237 92.3648 38.5703 92.6375 38.826 92.9841C39.0845 93.3307 39.2209 93.7242 39.2351 94.1645H38.2124Z" fill="#1D1D1B"/>
<path d="M28.7427 0.489959C37.5927 0.489959 46.4327 0.489959 55.2827 0.489959C57.2627 0.489959 57.3027 0.489953 57.1327 2.38995C56.1627 13.09 55.1727 23.8 54.1927 34.5C53.5227 41.81 52.7827 49.1099 52.2327 56.4299C52.1027 58.2199 51.5827 58.9599 49.7627 59.3999C43.5427 60.9099 37.3527 62.5799 31.2127 64.3999C29.0727 65.0399 27.1527 64.7 25.1627 64.16C18.9227 62.49 12.6927 60.8 6.4527 59.14C5.6727 58.93 5.25269 58.59 5.18269 57.69C4.75269 52.49 4.2527 47.3 3.7727 42.11C2.9727 33.62 2.16269 25.13 1.37269 16.64C0.912695 11.75 0.512697 6.85995 0.0226965 1.97995C-0.0973035 0.809949 0.242698 0.469949 1.4227 0.479949C10.5327 0.529949 19.6327 0.509954 28.7427 0.499954V0.489959ZM27.8727 19.56C27.5227 20.18 26.8827 20.2799 26.3427 20.5099C21.9727 22.3699 17.6027 24.25 13.2127 26.06C12.3527 26.41 12.0027 26.85 12.1127 27.78C12.2627 29.11 12.4427 30.47 12.3627 31.8C12.2627 33.38 12.8127 33.7799 14.3727 33.7599C21.5627 33.6699 28.7527 33.7199 35.9427 33.7299C36.5727 33.7299 37.3527 33.51 37.2627 34.66C37.0727 37.08 36.9427 39.5099 36.7727 41.9299C36.7427 42.3899 36.7027 42.91 36.1327 43.06C32.4627 44.03 29.0327 45.9099 24.9127 44.3699C20.9127 42.8699 20.8027 43.1799 20.4027 38.9299C20.4027 38.8299 20.3927 38.7199 20.3827 38.6199C20.3527 37.8699 20.0227 37.52 19.2227 37.53C17.5127 37.57 15.8127 37.56 14.1027 37.53C13.3727 37.52 13.0627 37.77 13.1327 38.52C13.4127 41.45 13.7127 44.38 13.9027 47.32C13.9627 48.28 14.3727 48.64 15.2427 48.88C19.4227 50.05 23.5827 51.28 27.7327 52.52C28.4227 52.73 29.0527 52.64 29.7027 52.46C33.9327 51.28 38.1627 50.09 42.3927 48.94C43.1427 48.74 43.4827 48.41 43.5427 47.58C44.0327 41.14 44.5527 34.7 45.1227 28.27C45.2327 27 44.9427 26.56 43.5827 26.58C39.2927 26.67 34.9927 26.62 30.7027 26.6C30.2927 26.6 29.8127 26.7799 29.2927 26.2899C33.5927 24.4799 37.7227 22.5799 41.9827 21.0099C44.8627 19.9499 46.9027 18.6299 46.2427 15.1499C46.1927 14.8599 46.3327 14.5399 46.3727 14.2299C46.5527 12.8166 45.9094 12.1166 44.4427 12.13C44.0327 12.13 43.6127 12.13 43.2027 12.13C32.7527 12.14 22.3027 12.17 11.8527 12.13C10.6027 12.13 10.1927 12.38 10.4927 13.69C10.8327 15.14 11.0327 16.64 11.1327 18.13C11.2127 19.25 11.7227 19.44 12.7127 19.42C17.2127 19.35 21.7127 19.35 26.2127 19.34C26.7427 19.34 27.3227 19.15 27.8527 19.57L27.8727 19.56Z" fill="#1D1D1B"/>
</svg>
