<svg width="58" height="66" viewBox="0 0 58 66" fill="none" xmlns="http://www.w3.org/2000/svg">
<path d="M29.0299 0.659945C37.9799 0.659945 46.9399 0.68994 55.8899 0.63994C57.3199 0.63994 57.7299 0.979946 57.5899 2.48995C56.2699 16.4999 55.0299 30.5099 53.7799 44.5299C53.3899 48.8599 53.0399 53.1899 52.7099 57.5199C52.6199 58.6799 52.2199 59.3099 50.9899 59.6399C43.9999 61.5099 37.0399 63.4999 30.0499 65.3899C29.3399 65.5799 28.4899 65.5599 27.7699 65.3599C20.8399 63.4699 13.9199 61.4899 6.98993 59.6099C5.85993 59.2999 5.43993 58.7699 5.34993 57.6099C4.48993 47.3999 3.57993 37.1999 2.67993 26.9999C1.94993 18.8099 1.25993 10.6099 0.43993 2.42993C0.27993 0.869934 0.789931 0.62994 2.17993 0.63994C11.1299 0.68994 20.0899 0.669939 29.0399 0.669939L29.0299 0.659945ZM45.2299 27.2299H43.2699C35.9199 27.2299 28.5699 27.1999 21.2199 27.2599C19.9199 27.2699 19.3199 26.8999 19.2599 25.5699C19.1999 24.3299 18.9799 23.0999 18.8699 21.8699C18.6799 19.7799 18.7199 19.7599 20.7499 19.7599C28.6199 19.7599 36.4799 19.7599 44.3499 19.7599C44.8999 19.7599 45.4599 19.7099 46.1199 19.6699C46.2699 17.8599 46.3299 16.1599 46.5699 14.4799C46.7799 13.0099 46.2399 12.6399 44.8199 12.6499C34.1599 12.6999 23.4999 12.6799 12.8399 12.6799C12.3399 12.6799 11.8399 12.7299 11.1499 12.7699C11.8299 19.9999 12.4899 27.0799 13.1599 34.2299C13.8899 34.2299 14.3999 34.2299 14.9099 34.2299C22.0499 34.2299 29.1899 34.2599 36.3399 34.2099C37.6199 34.2099 37.9799 34.6499 37.8499 35.8399C37.6199 38.0499 37.5199 40.2799 37.2199 42.4799C37.1499 42.9999 36.6099 43.7199 36.1299 43.8799C31.7499 45.3333 27.3199 45.4199 22.8399 44.1399C22.5899 44.0699 22.2699 44.0899 22.0999 43.9299C21.6299 43.4899 20.9999 43.0399 20.8299 42.4799C20.5499 41.4999 20.5399 40.4399 20.4799 39.4099C20.4199 38.4699 20.0499 38.02 19.0299 38.07C17.6399 38.14 16.2299 38.14 14.8399 38.07C13.6999 38.02 13.4299 38.4599 13.5599 39.5499C13.8899 42.2699 14.1499 44.9999 14.3399 47.7299C14.4199 48.7799 14.8499 49.2399 15.8599 49.4899C19.9199 50.5199 23.9499 51.6399 28.0099 52.6699C28.6699 52.8399 29.4499 52.8399 30.1199 52.6699C34.1299 51.6499 38.1099 50.5099 42.1199 49.4999C43.2399 49.2199 43.5899 48.6299 43.6599 47.5599C43.9199 43.7899 44.2599 40.0299 44.5499 36.2699C44.7799 33.3399 44.9999 30.4099 45.2399 27.2199L45.2299 27.2299Z" fill="#1D1D1B"/>
</svg>
