<svg width="74" height="106" viewBox="0 0 74 106" fill="none" xmlns="http://www.w3.org/2000/svg">
<path d="M9.39773 94.0727H10.4545V100.311C10.4545 100.868 10.3523 101.341 10.1477 101.73C9.94318 102.12 9.65483 102.415 9.28267 102.617C8.91051 102.818 8.47159 102.919 7.96591 102.919C7.48864 102.919 7.06392 102.833 6.69176 102.659C6.3196 102.483 6.02699 102.233 5.81392 101.909C5.60085 101.585 5.49432 101.2 5.49432 100.754H6.53409C6.53409 101.002 6.59517 101.218 6.71733 101.402C6.84233 101.584 7.01278 101.726 7.22869 101.828C7.4446 101.931 7.69034 101.982 7.96591 101.982C8.26989 101.982 8.52841 101.918 8.74148 101.79C8.95455 101.662 9.11648 101.475 9.22727 101.227C9.34091 100.977 9.39773 100.672 9.39773 100.311V94.0727ZM14.3622 102.953C13.9474 102.953 13.571 102.875 13.233 102.719C12.8949 102.56 12.6264 102.331 12.4276 102.033C12.2287 101.732 12.1293 101.368 12.1293 100.942C12.1293 100.567 12.2031 100.263 12.3509 100.03C12.4986 99.7942 12.696 99.6096 12.9432 99.4761C13.1903 99.3425 13.4631 99.2431 13.7614 99.1778C14.0625 99.1096 14.3651 99.0556 14.669 99.0158C15.0668 98.9647 15.3892 98.9263 15.6364 98.9008C15.8864 98.8724 16.0682 98.8255 16.1818 98.7602C16.2983 98.6948 16.3565 98.5812 16.3565 98.4192V98.3852C16.3565 97.9647 16.2415 97.638 16.0114 97.405C15.7841 97.1721 15.4389 97.0556 14.9759 97.0556C14.4957 97.0556 14.1193 97.1607 13.8466 97.3709C13.5739 97.5812 13.3821 97.8056 13.2713 98.0442L12.3168 97.7033C12.4872 97.3056 12.7145 96.9959 12.9986 96.7744C13.2855 96.5499 13.598 96.3937 13.9361 96.3056C14.277 96.2147 14.6122 96.1692 14.9418 96.1692C15.152 96.1692 15.3935 96.1948 15.6662 96.2459C15.9418 96.2942 16.2074 96.3951 16.4631 96.5485C16.7216 96.7019 16.9361 96.9334 17.1065 97.2431C17.277 97.5528 17.3622 97.9675 17.3622 98.4874V102.8H16.3565V101.914H16.3054C16.2372 102.056 16.1236 102.208 15.9645 102.37C15.8054 102.531 15.5938 102.669 15.3295 102.783C15.0653 102.897 14.7429 102.953 14.3622 102.953ZM14.5156 102.05C14.9134 102.05 15.2486 101.972 15.5213 101.816C15.7969 101.659 16.0043 101.458 16.1435 101.21C16.2855 100.963 16.3565 100.703 16.3565 100.431V99.5102C16.3139 99.5613 16.2202 99.6082 16.0753 99.6508C15.9332 99.6906 15.7685 99.7261 15.581 99.7573C15.3963 99.7857 15.2159 99.8113 15.0398 99.834C14.8665 99.8539 14.7259 99.8709 14.6179 99.8852C14.3565 99.9192 14.1122 99.9746 13.8849 100.051C13.6605 100.125 13.4787 100.237 13.3395 100.388C13.2031 100.536 13.1349 100.737 13.1349 100.993C13.1349 101.343 13.2642 101.607 13.5227 101.786C13.7841 101.962 14.1151 102.05 14.5156 102.05ZM24.3157 96.2545L21.8952 102.8H20.8725L18.4521 96.2545H19.543L21.3498 101.47H21.418L23.2248 96.2545H24.3157ZM27.37 102.953C26.9553 102.953 26.5788 102.875 26.2408 102.719C25.9027 102.56 25.6342 102.331 25.4354 102.033C25.2365 101.732 25.1371 101.368 25.1371 100.942C25.1371 100.567 25.2109 100.263 25.3587 100.03C25.5064 99.7942 25.7038 99.6096 25.951 99.4761C26.1982 99.3425 26.4709 99.2431 26.7692 99.1778C27.0703 99.1096 27.3729 99.0556 27.6768 99.0158C28.0746 98.9647 28.397 98.9263 28.6442 98.9008C28.8942 98.8724 29.076 98.8255 29.1896 98.7602C29.3061 98.6948 29.3643 98.5812 29.3643 98.4192V98.3852C29.3643 97.9647 29.2493 97.638 29.0192 97.405C28.7919 97.1721 28.4467 97.0556 27.9837 97.0556C27.5036 97.0556 27.1271 97.1607 26.8544 97.3709C26.5817 97.5812 26.3899 97.8056 26.2791 98.0442L25.3246 97.7033C25.495 97.3056 25.7223 96.9959 26.0064 96.7744C26.2933 96.5499 26.6058 96.3937 26.9439 96.3056C27.2848 96.2147 27.62 96.1692 27.9496 96.1692C28.1598 96.1692 28.4013 96.1948 28.674 96.2459C28.9496 96.2942 29.2152 96.3951 29.4709 96.5485C29.7294 96.7019 29.9439 96.9334 30.1143 97.2431C30.2848 97.5528 30.37 97.9675 30.37 98.4874V102.8H29.3643V101.914H29.3132C29.245 102.056 29.1314 102.208 28.9723 102.37C28.8132 102.531 28.6016 102.669 28.3374 102.783C28.0732 102.897 27.7507 102.953 27.37 102.953ZM27.5234 102.05C27.9212 102.05 28.2564 101.972 28.5291 101.816C28.8047 101.659 29.0121 101.458 29.1513 101.21C29.2933 100.963 29.3643 100.703 29.3643 100.431V99.5102C29.3217 99.5613 29.228 99.6082 29.0831 99.6508C28.9411 99.6906 28.7763 99.7261 28.5888 99.7573C28.4041 99.7857 28.2237 99.8113 28.0476 99.834C27.8743 99.8539 27.7337 99.8709 27.6257 99.8852C27.3643 99.9192 27.12 99.9746 26.8928 100.051C26.6683 100.125 26.4865 100.237 26.3473 100.388C26.2109 100.536 26.1428 100.737 26.1428 100.993C26.1428 101.343 26.272 101.607 26.5305 101.786C26.7919 101.962 27.1229 102.05 27.5234 102.05ZM40.4897 96.2545C40.4386 95.8227 40.2312 95.4874 39.8675 95.2488C39.5039 95.0102 39.0579 94.8908 38.5295 94.8908C38.1431 94.8908 37.805 94.9533 37.5153 95.0783C37.2283 95.2033 37.0039 95.3752 36.842 95.594C36.6829 95.8127 36.6033 96.0613 36.6033 96.3397C36.6033 96.5727 36.6587 96.7729 36.7695 96.9406C36.8832 97.1053 37.0281 97.2431 37.2042 97.3539C37.3803 97.4619 37.565 97.5513 37.7582 97.6224C37.9513 97.6906 38.1289 97.7459 38.2908 97.7886L39.1772 98.0272C39.4045 98.0869 39.6573 98.1692 39.9357 98.2744C40.217 98.3795 40.4854 98.5229 40.7411 98.7048C40.9996 98.8837 41.2127 99.1138 41.3803 99.3951C41.5479 99.6763 41.6317 100.022 41.6317 100.431C41.6317 100.902 41.5082 101.328 41.261 101.709C41.0167 102.09 40.6587 102.392 40.1871 102.617C39.7184 102.841 39.1488 102.953 38.4783 102.953C37.8533 102.953 37.3121 102.852 36.8548 102.651C36.4002 102.449 36.0423 102.168 35.7809 101.807C35.5224 101.446 35.3761 101.027 35.342 100.55H36.4329C36.4613 100.879 36.5721 101.152 36.7653 101.368C36.9613 101.581 37.2085 101.74 37.5067 101.845C37.8079 101.948 38.1317 101.999 38.4783 101.999C38.8817 101.999 39.244 101.933 39.565 101.803C39.886 101.669 40.1403 101.485 40.3278 101.249C40.5153 101.01 40.609 100.732 40.609 100.414C40.609 100.124 40.5281 99.888 40.3661 99.7062C40.2042 99.5244 39.9911 99.3766 39.7269 99.263C39.4627 99.1494 39.1772 99.0499 38.8704 98.9647L37.7965 98.6579C37.1147 98.4619 36.5749 98.182 36.1772 97.8184C35.7795 97.4548 35.5806 96.9789 35.5806 96.3908C35.5806 95.9022 35.7127 95.4761 35.9769 95.1124C36.244 94.7459 36.6019 94.4619 37.0508 94.2602C37.5025 94.0556 38.0067 93.9533 38.5636 93.9533C39.1261 93.9533 39.6261 94.0542 40.0636 94.2559C40.5011 94.4548 40.8477 94.7275 41.1033 95.0741C41.3619 95.4207 41.4982 95.8141 41.5124 96.2545H40.4897ZM45.892 102.936C45.2784 102.936 44.75 102.791 44.3068 102.502C43.8636 102.212 43.5227 101.813 43.2841 101.304C43.0455 100.796 42.9261 100.215 42.9261 99.5613C42.9261 98.8965 43.0483 98.3099 43.2926 97.8013C43.5398 97.29 43.8835 96.8908 44.3239 96.6039C44.767 96.3141 45.2841 96.1692 45.875 96.1692C46.3352 96.1692 46.75 96.2545 47.1193 96.4249C47.4886 96.5954 47.7912 96.834 48.027 97.1408C48.2628 97.4477 48.4091 97.8056 48.4659 98.2147H47.4602C47.3835 97.9164 47.2131 97.6522 46.9489 97.4221C46.6875 97.1891 46.3352 97.0727 45.892 97.0727C45.5 97.0727 45.1563 97.1749 44.8608 97.3795C44.5682 97.5812 44.3395 97.8667 44.1747 98.236C44.0128 98.6025 43.9318 99.0329 43.9318 99.5272C43.9318 100.033 44.0114 100.473 44.1705 100.848C44.3324 101.223 44.5597 101.514 44.8523 101.722C45.1477 101.929 45.4943 102.033 45.892 102.033C46.1534 102.033 46.3906 101.987 46.6037 101.897C46.8168 101.806 46.9972 101.675 47.1449 101.504C47.2926 101.334 47.3977 101.129 47.4602 100.891H48.4659C48.4091 101.277 48.2685 101.625 48.044 101.935C47.8224 102.242 47.5284 102.486 47.1619 102.668C46.7983 102.847 46.375 102.936 45.892 102.936ZM49.9361 102.8V96.2545H50.9077V97.2431H50.9759C51.0952 96.9192 51.3111 96.6565 51.6236 96.4548C51.9361 96.2531 52.2884 96.1522 52.6804 96.1522C52.7543 96.1522 52.8466 96.1536 52.9574 96.1565C53.0682 96.1593 53.152 96.1636 53.2088 96.1692V97.192C53.1747 97.1834 53.0966 97.1707 52.9744 97.1536C52.8551 97.1337 52.7287 97.1238 52.5952 97.1238C52.277 97.1238 51.9929 97.1906 51.7429 97.3241C51.4957 97.4548 51.2997 97.6366 51.1548 97.8695C51.0128 98.0996 50.9418 98.3624 50.9418 98.6579V102.8H49.9361ZM54.4009 102.8V96.2545H55.4066V102.8H54.4009ZM54.9123 95.1636C54.7163 95.1636 54.5472 95.0968 54.4052 94.9633C54.266 94.8298 54.1964 94.6692 54.1964 94.4817C54.1964 94.2942 54.266 94.1337 54.4052 94.0002C54.5472 93.8667 54.7163 93.7999 54.9123 93.7999C55.1083 93.7999 55.2759 93.8667 55.4151 94.0002C55.5572 94.1337 55.6282 94.2942 55.6282 94.4817C55.6282 94.6692 55.5572 94.8298 55.4151 94.9633C55.2759 95.0968 55.1083 95.1636 54.9123 95.1636ZM57.2486 105.254V96.2545H58.2202V97.2942H58.3395C58.4134 97.1806 58.5156 97.0357 58.6463 96.8596C58.7798 96.6806 58.9702 96.5215 59.2173 96.3823C59.4673 96.2403 59.8054 96.1692 60.2315 96.1692C60.7827 96.1692 61.2685 96.307 61.6889 96.5826C62.1094 96.8582 62.4375 97.2488 62.6733 97.7545C62.9091 98.2602 63.027 98.8567 63.027 99.5442C63.027 100.237 62.9091 100.838 62.6733 101.347C62.4375 101.852 62.1108 102.245 61.6932 102.523C61.2756 102.799 60.794 102.936 60.2486 102.936C59.8281 102.936 59.4915 102.867 59.2386 102.727C58.9858 102.585 58.7912 102.425 58.6548 102.246C58.5185 102.064 58.4134 101.914 58.3395 101.794H58.2543V105.254H57.2486ZM58.2372 99.5272C58.2372 100.022 58.3097 100.458 58.4545 100.835C58.5994 101.21 58.8111 101.504 59.0895 101.718C59.3679 101.928 59.7088 102.033 60.1122 102.033C60.5327 102.033 60.8835 101.922 61.1648 101.7C61.4489 101.476 61.6619 101.175 61.804 100.797C61.9489 100.416 62.0213 99.9931 62.0213 99.5272C62.0213 99.067 61.9503 98.6522 61.8082 98.2829C61.669 97.9107 61.4574 97.6167 61.1733 97.4008C60.892 97.182 60.5384 97.0727 60.1122 97.0727C59.7031 97.0727 59.3594 97.1763 59.081 97.3837C58.8026 97.5883 58.5923 97.8752 58.4503 98.2445C58.3082 98.611 58.2372 99.0386 58.2372 99.5272ZM67.4077 96.2545V97.1067H64.0156V96.2545H67.4077ZM65.0043 94.6863H66.0099V100.925C66.0099 101.209 66.0511 101.422 66.1335 101.564C66.2188 101.703 66.3267 101.797 66.4574 101.845C66.5909 101.891 66.7315 101.914 66.8793 101.914C66.9901 101.914 67.081 101.908 67.152 101.897C67.223 101.882 67.2798 101.871 67.3224 101.862L67.527 102.766C67.4588 102.791 67.3636 102.817 67.2415 102.843C67.1193 102.871 66.9645 102.885 66.777 102.885C66.4929 102.885 66.2145 102.824 65.9418 102.702C65.6719 102.58 65.4474 102.394 65.2685 102.144C65.0923 101.894 65.0043 101.578 65.0043 101.198V94.6863Z" fill="#1D1D1B"/>
<path d="M64.9 0.719971H5.42001C2.97891 0.719971 1 2.69887 1 5.13997V64.62C1 67.0611 2.97891 69.04 5.42001 69.04H64.9C67.3411 69.04 69.32 67.0611 69.32 64.62V5.13997C69.32 2.69887 67.3411 0.719971 64.9 0.719971Z" stroke="#1D1D1B" stroke-miterlimit="10"/>
<path d="M36.2353 24.1291H40.2618V47.8983C40.2618 50.0198 39.8721 51.822 39.0928 53.3048C38.3135 54.7877 37.2149 55.9134 35.797 56.6819C34.379 57.4504 32.7067 57.8346 30.7801 57.8346C28.9617 57.8346 27.3435 57.5045 25.9256 56.8442C24.5077 56.1731 23.3928 55.2206 22.581 53.9867C21.7692 52.7528 21.3633 51.2862 21.3633 49.5868H25.3249C25.3249 50.5285 25.5576 51.3511 26.023 52.0547C26.4993 52.7474 27.1487 53.2886 27.9713 53.6782C28.7939 54.0679 29.7302 54.2627 30.7801 54.2627C31.9382 54.2627 32.9232 54.0192 33.735 53.5321C34.5468 53.045 35.1638 52.3307 35.5859 51.389C36.0188 50.4365 36.2353 49.2729 36.2353 47.8983V24.1291ZM66.5151 32.4418C66.3203 30.7966 65.5301 29.5194 64.1447 28.6102C62.7592 27.701 61.0599 27.2464 59.0466 27.2464C57.5746 27.2464 56.2865 27.4845 55.1825 27.9607C54.0893 28.437 53.2342 29.0918 52.6172 29.9253C52.0111 30.7587 51.708 31.7058 51.708 32.7665C51.708 33.6541 51.9191 34.4172 52.3412 35.0558C52.7742 35.6836 53.3262 36.2085 53.9973 36.6307C54.6684 37.042 55.3719 37.3829 56.1079 37.6535C56.844 37.9133 57.5204 38.1244 58.1374 38.2867L61.5145 39.1959C62.3804 39.4232 63.3437 39.7371 64.4044 40.1376C65.476 40.5381 66.4988 41.0847 67.473 41.7774C68.458 42.4593 69.2698 43.336 69.9084 44.4076C70.547 45.4792 70.8663 46.7943 70.8663 48.3529C70.8663 50.1497 70.3954 51.7732 69.4538 53.2236C68.5229 54.674 67.1591 55.8268 65.3623 56.6819C63.5764 57.537 61.4062 57.9645 58.8518 57.9645C56.4705 57.9645 54.4086 57.5802 52.6659 56.8118C50.9341 56.0433 49.5703 54.9717 48.5745 53.5971C47.5896 52.2224 47.0321 50.6259 46.9022 48.8075H51.0586C51.1668 50.0631 51.589 51.1022 52.325 51.9248C53.0718 52.7366 54.0135 53.3427 55.15 53.7432C56.2974 54.1328 57.5313 54.3277 58.8518 54.3277C60.3888 54.3277 61.7688 54.0787 62.9919 53.5808C64.215 53.0721 65.1837 52.3686 65.8981 51.4702C66.6125 50.561 66.9697 49.5002 66.9697 48.288C66.9697 47.1839 66.6612 46.2855 66.0442 45.5928C65.4273 44.9001 64.6155 44.3372 63.6089 43.9043C62.6023 43.4713 61.5145 43.0925 60.3455 42.7678L56.2541 41.5988C53.6563 40.852 51.5998 39.7858 50.0845 38.4004C48.5691 37.0149 47.8114 35.2019 47.8114 32.9614C47.8114 31.0997 48.3148 29.4761 49.3214 28.0906C50.3388 26.6943 51.7026 25.612 53.4128 24.8435C55.1338 24.0642 57.055 23.6745 59.1765 23.6745C61.3196 23.6745 63.2246 24.0587 64.8915 24.8272C66.5584 25.5849 67.8789 26.624 68.853 27.9445C69.838 29.265 70.3576 30.7641 70.4117 32.4418H66.5151Z" fill="#1D1D1B"/>
</svg>
