<svg width="94" height="108" viewBox="0 0 94 108" fill="none" xmlns="http://www.w3.org/2000/svg">
<path d="M38.8295 97.5645C38.7784 97.1327 38.571 96.7975 38.2074 96.5588C37.8438 96.3202 37.3977 96.2009 36.8693 96.2009C36.483 96.2009 36.1449 96.2634 35.8551 96.3884C35.5682 96.5134 35.3438 96.6853 35.1818 96.904C35.0227 97.1228 34.9432 97.3713 34.9432 97.6498C34.9432 97.8827 34.9986 98.083 35.1094 98.2506C35.223 98.4154 35.3679 98.5532 35.544 98.664C35.7202 98.7719 35.9048 98.8614 36.098 98.9324C36.2912 99.0006 36.4688 99.056 36.6307 99.0986L37.517 99.3373C37.7443 99.3969 37.9972 99.4793 38.2756 99.5844C38.5568 99.6895 38.8253 99.833 39.081 100.015C39.3395 100.194 39.5526 100.424 39.7202 100.705C39.8878 100.986 39.9716 101.332 39.9716 101.741C39.9716 102.212 39.848 102.638 39.6009 103.019C39.3565 103.4 38.9986 103.702 38.527 103.927C38.0582 104.151 37.4886 104.263 36.8182 104.263C36.1932 104.263 35.652 104.163 35.1946 103.961C34.7401 103.759 34.3821 103.478 34.1207 103.117C33.8622 102.756 33.7159 102.337 33.6818 101.86H34.7727C34.8011 102.19 34.9119 102.462 35.1051 102.678C35.3011 102.891 35.5483 103.05 35.8466 103.155C36.1477 103.258 36.4716 103.309 36.8182 103.309C37.2216 103.309 37.5838 103.244 37.9048 103.113C38.2259 102.979 38.4801 102.795 38.6676 102.559C38.8551 102.32 38.9489 102.042 38.9489 101.724C38.9489 101.434 38.8679 101.198 38.706 101.016C38.544 100.834 38.331 100.687 38.0668 100.573C37.8026 100.459 37.517 100.36 37.2102 100.275L36.1364 99.9679C35.4545 99.7719 34.9148 99.4921 34.517 99.1285C34.1193 98.7648 33.9205 98.289 33.9205 97.7009C33.9205 97.2123 34.0526 96.7861 34.3168 96.4225C34.5838 96.056 34.9418 95.7719 35.3906 95.5702C35.8423 95.3657 36.3466 95.2634 36.9034 95.2634C37.4659 95.2634 37.9659 95.3642 38.4034 95.566C38.8409 95.7648 39.1875 96.0375 39.4432 96.3841C39.7017 96.7307 39.8381 97.1242 39.8523 97.5645H38.8295ZM43.4989 104.263C43.0842 104.263 42.7077 104.185 42.3697 104.029C42.0316 103.87 41.7631 103.641 41.5643 103.343C41.3654 103.042 41.266 102.678 41.266 102.252C41.266 101.877 41.3398 101.573 41.4876 101.34C41.6353 101.104 41.8327 100.92 42.0799 100.786C42.3271 100.653 42.5998 100.553 42.8981 100.488C43.1992 100.42 43.5018 100.366 43.8058 100.326C44.2035 100.275 44.5259 100.236 44.7731 100.211C45.0231 100.182 45.2049 100.136 45.3185 100.07C45.435 100.005 45.4933 99.8912 45.4933 99.7293V99.6952C45.4933 99.2748 45.3782 98.9481 45.1481 98.7151C44.9208 98.4821 44.5756 98.3657 44.1126 98.3657C43.6325 98.3657 43.256 98.4708 42.9833 98.681C42.7106 98.8912 42.5188 99.1157 42.408 99.3543L41.4535 99.0134C41.6239 98.6157 41.8512 98.306 42.1353 98.0844C42.4222 97.86 42.7347 97.7037 43.0728 97.6157C43.4137 97.5248 43.7489 97.4793 44.0785 97.4793C44.2887 97.4793 44.5302 97.5049 44.8029 97.556C45.0785 97.6043 45.3441 97.7052 45.5998 97.8586C45.8583 98.012 46.0728 98.2435 46.2433 98.5532C46.4137 98.8628 46.4989 99.2776 46.4989 99.7975V104.11H45.4933V103.224H45.4421C45.3739 103.366 45.2603 103.518 45.1012 103.68C44.9421 103.842 44.7305 103.979 44.4663 104.093C44.2021 104.207 43.8796 104.263 43.4989 104.263ZM43.6523 103.36C44.0501 103.36 44.3853 103.282 44.658 103.126C44.9336 102.969 45.141 102.768 45.2802 102.52C45.4222 102.273 45.4933 102.013 45.4933 101.741V100.82C45.4506 100.871 45.3569 100.918 45.212 100.961C45.07 101.001 44.9052 101.036 44.7177 101.067C44.533 101.096 44.3526 101.121 44.1765 101.144C44.0032 101.164 43.8626 101.181 43.7546 101.195C43.4933 101.229 43.2489 101.285 43.0217 101.361C42.7972 101.435 42.6154 101.547 42.4762 101.698C42.3398 101.846 42.2717 102.047 42.2717 102.303C42.2717 102.653 42.4009 102.917 42.6594 103.096C42.9208 103.272 43.2518 103.36 43.6523 103.36ZM52.9709 99.0304L52.0675 99.2861C52.0107 99.1356 51.9268 98.9892 51.8161 98.8472C51.7081 98.7023 51.5604 98.583 51.3729 98.4892C51.1854 98.3955 50.9453 98.3486 50.6527 98.3486C50.2521 98.3486 49.9183 98.441 49.6513 98.6256C49.3871 98.8074 49.255 99.039 49.255 99.3202C49.255 99.5702 49.3459 99.7677 49.5277 99.9125C49.7095 100.057 49.9936 100.178 50.38 100.275L51.3516 100.513C51.9368 100.655 52.3729 100.873 52.6598 101.165C52.9467 101.455 53.0902 101.829 53.0902 102.286C53.0902 102.661 52.9822 102.996 52.7663 103.292C52.5533 103.587 52.255 103.82 51.8714 103.991C51.4879 104.161 51.0419 104.246 50.5334 104.246C49.8658 104.246 49.3132 104.101 48.8757 103.812C48.4382 103.522 48.1612 103.099 48.0447 102.542L48.9993 102.303C49.0902 102.655 49.2621 102.92 49.5149 103.096C49.7706 103.272 50.1044 103.36 50.5163 103.36C50.9851 103.36 51.3572 103.261 51.6328 103.062C51.9112 102.86 52.0504 102.619 52.0504 102.337C52.0504 102.11 51.9709 101.92 51.8118 101.766C51.6527 101.61 51.4084 101.494 51.0788 101.417L49.9879 101.161C49.3885 101.019 48.9482 100.799 48.6669 100.501C48.3885 100.199 48.2493 99.8231 48.2493 99.3713C48.2493 99.002 48.353 98.6753 48.5604 98.3912C48.7706 98.1071 49.0561 97.8841 49.4169 97.7222C49.7805 97.5603 50.1925 97.4793 50.6527 97.4793C51.3004 97.4793 51.8089 97.6213 52.1783 97.9054C52.5504 98.1895 52.8146 98.5645 52.9709 99.0304ZM59.2404 99.0304L58.337 99.2861C58.2802 99.1356 58.1964 98.9892 58.0856 98.8472C57.9776 98.7023 57.8299 98.583 57.6424 98.4892C57.4549 98.3955 57.2148 98.3486 56.9222 98.3486C56.5217 98.3486 56.1879 98.441 55.9208 98.6256C55.6566 98.8074 55.5245 99.039 55.5245 99.3202C55.5245 99.5702 55.6154 99.7677 55.7972 99.9125C55.979 100.057 56.2631 100.178 56.6495 100.275L57.6211 100.513C58.2063 100.655 58.6424 100.873 58.9293 101.165C59.2163 101.455 59.3597 101.829 59.3597 102.286C59.3597 102.661 59.2518 102.996 59.0359 103.292C58.8228 103.587 58.5245 103.82 58.141 103.991C57.7575 104.161 57.3114 104.246 56.8029 104.246C56.1353 104.246 55.5827 104.101 55.1452 103.812C54.7077 103.522 54.4308 103.099 54.3143 102.542L55.2688 102.303C55.3597 102.655 55.5316 102.92 55.7844 103.096C56.0401 103.272 56.3739 103.36 56.7859 103.36C57.2546 103.36 57.6268 103.261 57.9023 103.062C58.1808 102.86 58.32 102.619 58.32 102.337C58.32 102.11 58.2404 101.92 58.0813 101.766C57.9222 101.61 57.6779 101.494 57.3484 101.417L56.2575 101.161C55.658 101.019 55.2177 100.799 54.9364 100.501C54.658 100.199 54.5188 99.8231 54.5188 99.3713C54.5188 99.002 54.6225 98.6753 54.8299 98.3912C55.0401 98.1071 55.3256 97.8841 55.6864 97.7222C56.0501 97.5603 56.462 97.4793 56.9222 97.4793C57.57 97.4793 58.0785 97.6213 58.4478 97.9054C58.82 98.1895 59.0842 98.5645 59.2404 99.0304Z" fill="#1D1D1B"/>
<path d="M44.07 0.51001C44.12 0.61001 44.22 0.580017 44.3 0.580017C46.05 0.680017 47.78 0.930015 49.48 1.39001C51.51 1.94001 53.42 2.73002 55.1 4.02002C56.7 5.24002 57.9 6.75001 58.49 8.70001C58.73 9.49001 58.87 10.31 58.93 11.13C59.12 13.63 58.56 15.99 57.56 18.25C56.21 21.31 54.17 23.86 51.67 26.06C49.93 27.59 48.01 28.85 45.91 29.82C44.08 30.66 42.17 31.27 40.22 31.77C38.82 32.13 37.39 32.39 35.96 32.56C35.18 32.65 34.39 32.7 33.6 32.74C32.71 32.79 31.82 32.76 30.94 32.71C28.97 32.6 27.05 32.24 25.3 31.25C24.05 30.55 22.96 29.68 22.17 28.46C21.89 28.03 21.71 27.55 21.61 27.04C21.59 26.9 21.61 26.77 21.65 26.65C21.77 26.34 22.09 26.25 22.36 26.45C22.49 26.55 22.63 26.66 22.74 26.79C23.57 27.78 24.66 28.39 25.85 28.84C27.08 29.3 28.35 29.53 29.66 29.59C31.62 29.69 33.54 29.41 35.45 29.01C38.21 28.44 40.83 27.49 43.31 26.16C45.77 24.85 47.98 23.21 49.88 21.17C51.01 19.96 51.98 18.64 52.73 17.17C53.26 16.14 53.66 15.05 53.85 13.9C54.05 12.67 54 11.45 53.52 10.28C53.17 9.41001 52.57 8.76001 51.82 8.23001C50.75 7.47001 49.55 7.02002 48.29 6.71002C46.73 6.32002 45.15 6.19001 43.55 6.18001C41.07 6.16001 38.63 6.49001 36.21 7.03001C32.91 7.78001 29.75 8.91002 26.69 10.35C23.35 11.93 20.13 13.72 17.09 15.82C15.13 17.17 13.28 18.65 11.62 20.36C10.39 21.63 9.28999 23.01 8.45999 24.59C7.78999 25.86 7.33997 27.2 7.15997 28.63C6.97997 30.07 7.08999 31.47 7.60999 32.83C8.03999 33.97 8.68999 34.98 9.45999 35.92C10.53 37.24 11.8 38.36 13.1 39.44C14.74 40.8 16.47 42.05 18.13 43.38C19.32 44.33 20.47 45.33 21.52 46.43C21.81 46.73 21.73 46.73 22.09 46.53C24.16 45.4 26.23 44.26 28.3 43.13C29.07 42.71 29.83 42.28 30.61 41.88C30.92 41.72 31.16 41.5 31.37 41.22C32.85 39.3 34.62 37.74 36.81 36.67C37.62 36.27 38.48 36 39.4 36.01C40.81 36.03 41.78 36.74 42.18 38.1C42.45 39.03 42.47 39.97 42.37 40.92C42.34 41.24 42.29 41.57 42.26 41.89C42.41 41.91 42.49 41.82 42.57 41.76C42.89 41.5 43.25 41.39 43.66 41.43C44.16 41.47 44.61 41.64 44.99 41.96C45.33 42.25 45.47 42.63 45.38 43.07C45.22 43.85 44.99 44.6 44.79 45.36C44.24 47.4 43.71 49.45 43.25 51.51C43.02 52.53 42.86 53.56 42.92 54.62C42.93 54.81 42.94 55.01 43.03 55.2C43.2 55.2 43.27 55.05 43.35 54.94C43.61 54.57 43.8 54.16 44.01 53.76C44.98 51.91 45.84 50 46.7 48.09C47.6 46.09 48.49 44.09 49.38 42.09C50.23 40.18 51.09 38.27 51.88 36.33C52.16 35.65 52.31 34.94 52.5 34.23C52.56 34.02 52.62 33.81 52.66 33.59C52.73 33.29 52.91 33.1 53.18 32.98C53.55 32.81 53.94 32.71 54.33 32.65C55.12 32.51 55.93 32.47 56.73 32.5C57.1 32.51 57.45 32.59 57.8 32.72C57.97 32.79 58.12 32.88 58.26 33.01C58.48 33.23 58.55 33.46 58.45 33.77C58.13 34.7 57.8 35.63 57.58 36.59C57.3 37.76 57.25 38.95 57.45 40.14C57.5 40.46 57.54 40.79 57.58 41.12C57.69 41.85 57.99 42.52 58.3 43.18C58.47 43.55 58.66 43.92 58.87 44.33C58.95 44.23 59.01 44.16 59.05 44.08C60.25 42.09 61.41 40.07 62.5 38.02C63.16 36.78 63.79 35.54 64.32 34.24C64.58 33.62 64.67 32.95 64.85 32.31C64.99 31.79 65.15 31.28 65.31 30.77C65.39 30.5 65.56 30.34 65.8 30.22C66.19 30.03 66.6 29.94 67.02 29.87C67.77 29.75 68.52 29.68 69.27 29.72C69.71 29.74 70.14 29.8 70.54 30C70.67 30.07 70.79 30.14 70.9 30.25C71.11 30.46 71.18 30.68 71.08 30.98C70.88 31.55 70.69 32.13 70.51 32.71C70.14 33.89 69.88 35.09 69.97 36.33C70.07 37.79 70.27 39.23 70.99 40.55C71.34 41.19 71.65 41.85 71.98 42.5C72.11 42.75 72.12 42.75 72.36 42.64C73.94 41.89 75.6 41.37 77.32 41.08C78.97 40.8 80.63 40.73 82.3 40.87C83.56 40.97 84.78 41.21 85.97 41.62C87.88 42.27 89.57 43.27 90.96 44.75C92.27 46.14 93.15 47.75 93.46 49.65C93.68 51.04 93.58 52.4 92.93 53.67C92.18 55.14 90.99 56.14 89.49 56.79C89.26 56.89 89.02 56.91 88.78 56.94C88.56 56.97 88.4 56.86 88.33 56.7C88.26 56.52 88.29 56.38 88.5 56.23C88.71 56.07 88.94 55.93 89.16 55.78C89.83 55.33 90.42 54.78 90.87 54.1C91.67 52.89 91.8 51.59 91.39 50.22C90.9 48.57 89.89 47.29 88.5 46.29C87.09 45.27 85.5 44.69 83.82 44.34C82.74 44.11 81.64 44 80.53 43.94C78.17 43.81 75.87 44.09 73.64 44.9C73.09 45.1 73.09 45.1 73.27 45.63C73.59 46.54 73.81 47.48 73.87 48.44C73.92 49.28 73.76 50.09 73.41 50.85C72.95 51.87 72.24 52.7 71.43 53.45C69.91 54.85 68.1 55.71 66.15 56.31C65.53 56.5 64.91 56.56 64.29 56.31C63.44 55.97 63 55.34 62.93 54.45C62.83 53.22 63.15 52.06 63.65 50.95C64.24 49.67 65.05 48.53 65.98 47.47C66.64 46.7 67.36 46 68.15 45.36C68.37 45.18 68.36 45.18 68.24 44.91C67.82 44.03 67.35 43.17 67.01 42.26C66.53 40.98 66.22 39.65 65.93 38.32C65.89 38.15 65.86 37.97 65.82 37.77C65.69 37.81 65.67 37.91 65.63 37.99C64.61 40.02 63.5 42.01 62.31 43.95C61.7 44.95 61.07 45.93 60.39 46.88C60.23 47.11 60.22 47.29 60.33 47.55C60.78 48.58 61.12 49.65 61.23 50.77C61.48 53.33 60.63 55.43 58.57 57.02C57.7 57.69 56.73 58.19 55.7 58.6C54.86 58.93 54.01 59.21 53.11 59.34C52.22 59.47 51.32 59.56 50.42 59.37C49.78 59.24 49.32 58.87 49.15 58.2C49.05 57.8 49.19 57.43 49.34 57.07C49.47 56.76 49.67 56.5 49.87 56.24C50.68 55.16 51.57 54.14 52.43 53.1C53.3 52.05 54.21 51.03 55.02 49.94C55.3 49.56 55.57 49.17 55.86 48.79C55.99 48.62 56.02 48.46 55.91 48.26C55.63 47.72 55.39 47.16 55.11 46.62C54.23 44.92 53.75 43.09 53.35 41.23C53.3 40.99 53.29 40.75 53.17 40.48C53.05 40.77 52.95 41.02 52.84 41.28C51.25 45.23 49.51 49.12 47.52 52.89C46.67 54.51 45.82 56.12 44.9 57.7C44.27 58.79 43.48 59.77 42.39 60.46C41.83 60.81 41.23 60.89 40.6 60.71C40.02 60.54 39.61 60.15 39.32 59.63C38.97 59 38.81 58.32 38.73 57.61C38.59 56.41 38.62 55.21 38.78 54.01C38.8 53.88 38.8 53.74 38.8 53.6C38.67 53.64 38.67 53.74 38.64 53.82C37.85 55.72 37.02 57.6 36.04 59.41C35.7 60.03 35.33 60.63 34.83 61.14C34.06 61.94 33.11 62.17 32.03 62.07C31.08 61.97 30.38 61.49 29.82 60.74C29.09 59.74 28.61 58.63 28.25 57.47C27.77 55.96 27.51 54.42 27.56 52.84C27.6 51.69 27.74 50.54 27.94 49.4C28.12 48.37 28.37 47.35 28.71 46.36C28.72 46.32 28.74 46.27 28.77 46.16C26.95 47.11 25.26 48.13 23.55 49.13C23.54 49.24 23.6 49.31 23.63 49.39C24.19 50.54 24.47 51.77 24.62 53.03C24.7 53.73 24.76 54.43 24.74 55.14C24.69 57.57 24.21 59.9 23.14 62.09C22.23 63.95 20.97 65.55 19.41 66.91C17.78 68.33 15.95 69.38 13.88 70.02C12.83 70.34 11.76 70.53 10.66 70.6C9.36997 70.69 8.10999 70.53 6.85999 70.27C5.85999 70.06 5.13 69.47 4.53 68.69C3.68 67.59 3.22997 66.33 3.12997 64.95C2.91997 62.18 3.77998 59.75 5.53998 57.62C6.92998 55.95 8.59999 54.59 10.36 53.34C12.65 51.72 15.07 50.32 17.57 49.05C17.83 48.92 18.1 48.8 18.33 48.63C18.31 48.48 18.19 48.43 18.1 48.36C16.74 47.23 15.28 46.24 13.83 45.24C11.85 43.87 9.85998 42.51 7.97998 41C6.41998 39.75 4.93 38.42 3.62 36.9C2.25 35.31 1.11997 33.58 0.469971 31.56C0.329971 31.13 0.219984 30.7 0.139984 30.25C0.119984 30.12 0.11 29.98 0 29.89V28.5C0.15 28.28 0.119983 28.01 0.169983 27.77C0.409983 26.41 0.849972 25.11 1.43997 23.86C2.63997 21.31 4.32999 19.1 6.23999 17.06C7.84999 15.34 9.62998 13.81 11.51 12.39C14.18 10.38 17.02 8.64001 19.98 7.09001C22.27 5.89001 24.61 4.82001 27.01 3.87001C28.93 3.10001 30.87 2.38002 32.87 1.85002C35.38 1.18002 37.93 0.740021 40.52 0.600021C40.59 0.600021 40.67 0.620014 40.71 0.530014H44.07V0.51001ZM20.65 50.59C20.53 50.57 20.47 50.62 20.41 50.66C18.24 51.92 16.13 53.26 14.15 54.81C13.02 55.7 11.9 56.6 10.99 57.72C9.99999 58.95 9.25998 60.3 8.94998 61.87C8.80998 62.59 8.77 63.32 9 64.03C9.21 64.69 9.65 65.1 10.31 65.27C10.56 65.33 10.81 65.38 11.07 65.38C12.2 65.4 13.25 65.07 14.26 64.6C15.77 63.89 17.05 62.88 18.14 61.62C19.31 60.26 20.19 58.75 20.68 57.03C21.05 55.72 21.2 54.39 21.07 53.03C21 52.2 20.86 51.39 20.65 50.59ZM32.32 52.68C32.34 52.99 32.34 53.43 32.39 53.87C32.45 54.44 32.54 55 32.73 55.54C32.81 55.75 32.89 55.95 33.02 56.13C33.28 56.49 33.58 56.52 33.91 56.22C34.16 56 34.35 55.74 34.52 55.45C35.02 54.61 35.42 53.73 35.8 52.83C36.35 51.53 36.84 50.21 37.35 48.89C38.23 46.66 39.02 44.4 39.62 42.08C39.77 41.5 39.91 40.92 39.9 40.32C39.9 39.86 39.68 39.66 39.22 39.67C38.91 39.67 38.62 39.79 38.35 39.92C37.47 40.33 36.76 40.96 36.17 41.71C35.23 42.9 34.51 44.23 33.87 45.59C32.83 47.79 32.36 50.12 32.31 52.67L32.32 52.68ZM69.71 46.93C69.64 46.97 69.61 46.99 69.58 47.01C67.99 48.43 66.88 50.16 66.23 52.18C66.12 52.52 66.02 52.85 66.06 53.22C66.09 53.46 66.16 53.51 66.4 53.42C66.77 53.29 67.12 53.11 67.45 52.92C68.46 52.33 69.22 51.52 69.64 50.42C69.86 49.86 69.94 49.27 69.98 48.67C70.02 48.08 69.9 47.51 69.7 46.92L69.71 46.93ZM57.35 51.12C57.22 51.16 57.19 51.23 57.15 51.29C56.5 52.13 55.86 52.97 55.16 53.76C54.44 54.58 53.7 55.39 52.96 56.19C52.86 56.29 52.69 56.41 52.78 56.55C52.88 56.69 53.07 56.6 53.21 56.55C53.24 56.54 53.28 56.52 53.31 56.51C53.66 56.39 53.95 56.17 54.25 55.96C55.13 55.34 55.93 54.64 56.53 53.73C57.06 52.94 57.34 52.08 57.34 51.1L57.35 51.12Z" fill="#1D1D1B"/>
</svg>
