<svg width="62" height="62" viewBox="0 0 62 62" fill="none" xmlns="http://www.w3.org/2000/svg">
<path d="M30.77 0.660034C30.93 0.680034 31.09 0.710032 31.25 0.720032C32.26 0.760032 33.28 0.740017 34.28 0.830017C36.4 1.02002 38.54 1.10003 40.6 1.75003C41.65 2.08003 42.68 2.48002 43.74 2.80002C47.17 3.83002 50.07 5.78002 52.82 7.99002C53.23 8.32002 53.55 8.75003 53.9 9.16003C54.47 9.83003 55.04 10.51 55.58 11.21C57.85 14.13 59.71 17.27 60.67 20.87C61.1 22.49 61.34 24.14 61.43 25.81C61.5 27.14 61.56 28.48 61.62 29.82C61.69 31.31 61.53 32.78 61.35 34.25C61.2 35.46 61.01 36.67 60.81 37.88C60.73 38.32 60.58 38.76 60.44 39.19C60.17 40 59.88 40.8 59.6 41.61C59.57 41.7 59.58 41.82 59.63 41.9C59.92 42.41 60.22 42.92 60.52 43.43C60.61 43.58 60.71 43.73 60.81 43.88C60.48 44.13 60.11 44.07 59.77 44.13C59.53 44.17 59.28 44.19 59.03 44.2C58.77 44.21 58.62 44.33 58.49 44.56C57.88 45.69 57.27 46.82 56.63 47.94C55.34 50.19 53.63 52.08 51.67 53.76C51.51 53.9 51.38 54.07 51.22 54.22C51.14 54.3 51.02 54.33 50.93 54.4C50.41 54.82 49.9 55.26 49.38 55.67C49.26 55.76 49.12 55.82 48.97 55.9C48.98 55.92 49.01 55.96 49.07 56.05C48.75 56.17 48.45 56.29 48.14 56.4C48.08 56.42 48.01 56.44 47.95 56.47C47.54 56.69 47.13 56.9 46.74 57.15C46.57 57.25 46.44 57.42 46.29 57.55C46.26 57.58 46.24 57.63 46.2 57.64C45.91 57.75 45.63 57.86 45.34 57.97C45.21 58.02 45.07 58.03 44.96 58.09C44.33 58.43 43.69 58.72 42.96 58.79C42.91 58.79 42.82 58.86 42.82 58.9C42.78 59.2 42.62 59.25 42.36 59.13C42.44 59.07 42.52 59 42.59 58.94C42.58 58.92 42.57 58.91 42.56 58.89C41.94 59.17 41.32 59.45 40.71 59.73C40.71 59.75 40.72 59.77 40.73 59.79C40.82 59.78 40.9 59.77 41.03 59.75C40.84 59.85 40.63 59.89 40.68 60.15C40.68 60.17 40.6 60.22 40.54 60.24C39.95 60.39 39.36 60.54 38.74 60.69C38.79 60.59 38.83 60.52 38.87 60.43C38.57 60.19 38.39 60.5 38.16 60.59C38.25 60.62 38.34 60.65 38.5 60.7C37.71 60.99 36.87 60.81 36.22 61.16C36.02 61.17 35.87 61.16 35.73 61.19C35.1 61.28 34.47 61.39 33.83 61.47C33.42 61.52 33.01 61.53 32.6 61.54C32.13 61.55 31.66 61.54 31.16 61.54C31.24 61.38 31.28 61.3 31.33 61.19C30.76 61.17 30.24 61.13 29.71 61.12C29.2 61.11 28.68 61.16 28.18 61.1C27.54 61.03 26.9 60.92 26.28 60.77C25.16 60.51 24.05 60.18 22.92 59.93C21.45 59.6 19.99 59.21 18.66 58.48C16.93 57.54 15.18 56.62 13.6 55.44C12.84 54.87 12.09 54.26 11.51 53.47C11.39 53.31 11.22 53.23 10.99 53.25C10.87 53.26 10.72 53.09 10.6 52.99C10.56 52.96 10.57 52.87 10.53 52.83C10.48 52.77 10.42 52.71 10.36 52.68C10.34 52.67 10.24 52.76 10.24 52.77C10.28 52.85 10.33 52.92 10.39 52.98C10.42 53.01 10.47 53.02 10.51 53.03C10.51 53.05 10.5 53.07 10.49 53.1C10.38 53.07 10.24 53.08 10.18 53.02C9.62001 52.45 9.08002 51.86 8.53002 51.27C8.49002 51.22 8.46003 51.16 8.38003 51.04C8.66003 51.25 8.75003 51.6 9.17003 51.59C9.07003 51.43 9.00002 51.3 8.91002 51.18C8.74002 50.94 8.57001 50.71 8.40001 50.48C8.37001 50.44 8.33003 50.41 8.29003 50.38C7.92003 50.08 7.59001 49.76 7.40001 49.3C7.25001 48.95 7.01001 48.64 6.80001 48.31C6.78001 48.27 6.76001 48.24 6.74001 48.2C6.91001 48.13 6.97001 48.22 6.99001 48.36C7.01001 48.54 7.06003 48.65 7.29003 48.65C7.55003 48.65 7.71001 48.86 7.83001 49.08C7.97001 49.32 8.16002 49.46 8.50002 49.46C7.94002 48.53 7.41002 47.64 6.84002 46.7C6.98002 46.77 7.06003 46.81 7.20003 46.88C7.11003 46.68 7.04003 46.54 6.98003 46.4C6.99003 46.4 7.00001 46.38 7.02001 46.37C7.07001 46.44 7.13001 46.5 7.18001 46.57C7.73001 47.28 8.26001 48.01 8.83001 48.71C9.06001 48.99 9.38002 49.18 9.66002 49.41C9.77002 49.5 9.87003 49.58 9.98003 49.67C10.33 49.97 10.64 50.32 11.03 50.56C11.21 50.67 11.24 50.78 11.31 50.95C11.36 51.08 11.48 51.21 11.6 51.29C11.84 51.46 12.1 51.62 12.36 51.76C12.81 52 13.18 52.33 13.55 52.68C13.94 53.05 14.43 53.33 14.88 53.64C15.19 53.85 15.52 54.03 15.85 54.22C15.94 54.27 16.04 54.34 16.13 54.34C16.44 54.32 16.63 54.52 16.86 54.66C17.49 55.03 18.11 55.39 18.7 55.73C18.79 55.68 18.84 55.64 18.87 55.65C19.6 55.77 20.19 56.2 20.81 56.55C21.19 56.77 21.6 56.95 22 57.14C22.03 57.15 22.08 57.15 22.09 57.17C22.21 57.45 22.46 57.38 22.68 57.41C22.84 57.43 22.99 57.5 23.15 57.54C23.41 57.61 23.66 57.72 23.92 57.72C24.59 57.72 25.17 58.04 25.81 58.13C26.48 58.23 27.13 58.39 27.8 58.47C28.56 58.56 29.32 58.69 30.07 58.76C31.06 58.85 32.07 58.83 33.07 58.67C34.11 58.51 35.16 58.4 36.2 58.27C37.78 58.07 39.34 57.83 40.8 57.1C41.55 56.72 42.36 56.48 43.14 56.17C43.25 56.13 43.36 56.07 43.46 56.01C44.25 55.54 45.05 55.08 45.83 54.58C47.6 53.45 49.38 52.34 50.86 50.81C51.51 50.13 52.31 49.6 52.84 48.8C52.99 48.56 53.14 48.32 53.3 48.09C53.41 47.93 53.53 47.78 53.66 47.6C53.66 47.47 53.62 47.25 53.7 47.1C53.79 46.94 53.99 46.83 54.13 46.71C53.93 46.55 53.95 46.4 54.26 46.2C54.39 46.12 54.54 46.07 54.51 45.87C54.51 45.84 54.56 45.78 54.6 45.75C54.75 45.67 54.97 45.62 54.78 45.37C54.78 45.36 54.89 45.24 54.96 45.19C55.12 45.1 55.29 45.02 55.45 44.94C55.45 44.91 55.43 44.89 55.42 44.86C55.35 44.85 55.28 44.84 55.21 44.83C55.17 44.55 55.41 44.53 55.6 44.43C55.54 44.38 55.49 44.34 55.43 44.29C55.52 44.2 55.62 44.11 55.76 43.98C55.48 43.95 55.25 43.91 55.02 43.92C53.14 43.98 51.27 44.04 49.39 44.11C48.27 44.15 47.15 44.23 46.03 44.27C44.03 44.34 42.04 44.36 40.04 44.45C38.08 44.54 36.13 44.73 34.17 44.83C32.03 44.94 29.89 44.99 27.75 45.06C24.46 45.16 21.17 45.26 17.88 45.33C16.24 45.36 14.59 45.32 12.94 45.3C11.39 45.29 9.84003 45.31 8.29003 45.23C7.21003 45.18 6.13002 44.98 5.06002 44.84C4.76002 44.8 4.45001 44.74 4.15001 44.71C4.06001 44.71 3.97002 44.75 3.87002 44.78C3.82002 44.48 3.60002 44.73 3.47002 44.67C3.38002 44.22 3.42002 44.17 3.84002 44.03C4.72002 43.74 5.64002 43.63 6.56002 43.62C8.04002 43.59 9.52003 43.55 11.01 43.53C13.07 43.5 15.14 43.49 17.21 43.47C17.21 43.47 17.23 43.47 17.24 43.47C17.69 43.44 17.72 43.43 17.74 42.99C17.79 42.14 17.81 41.3 17.84 40.45C17.84 40.28 17.84 40.11 17.84 39.93H18.12C18.15 40.77 18.17 41.61 18.2 42.45C18.23 42.45 18.25 42.45 18.28 42.45C18.28 42.38 18.31 42.32 18.31 42.25C18.31 41.65 18.31 41.05 18.32 40.45C18.33 40.09 18.41 39.72 18.4 39.36C18.4 39.18 18.41 38.95 18.15 38.85C18.07 38.82 18 38.64 18 38.52C17.99 37.85 17.97 37.17 18.01 36.5C18.04 36.05 18.18 35.61 18.21 35.16C18.28 34.23 18.3 33.3 18.35 32.37C18.32 32.37 18.28 32.37 18.25 32.37C18.19 33.04 18.14 33.72 18.08 34.39C18.05 34.39 18.02 34.39 17.98 34.39C17.97 34.28 17.96 34.17 17.95 34.06C17.91 33.68 17.86 33.31 17.85 32.93C17.85 32.61 17.79 32.23 17.94 31.99C18.31 31.38 18.19 30.73 18.24 30.1C18.3 29.44 18.26 28.78 18.27 28.12C18.27 28.04 18.27 27.96 18.26 27.88C18.23 27.88 18.2 27.88 18.17 27.88C18.13 29.1 18.08 30.32 18.04 31.54C18.01 31.54 17.98 31.54 17.95 31.54C17.96 31.28 17.99 31.01 17.99 30.75C17.99 29.97 18.04 29.18 17.94 28.41C17.83 27.53 18.05 26.69 18.05 25.83C18.05 24.62 18.13 23.41 18.21 22.2C18.24 21.67 18.27 21.14 18.3 20.61C18.3 20.46 18.28 20.31 18.26 20.09C18.16 20.2 18.09 20.27 18.04 20.34C16.98 21.69 15.94 23.05 14.85 24.37C14.21 25.15 13.5 25.88 12.8 26.6C12.57 26.83 12.29 27.01 12.13 27.32C12.07 27.43 11.89 27.58 11.68 27.42C12.01 27.17 12.23 26.88 12.3 26.49C12.28 26.47 12.26 26.45 12.24 26.44C12.07 26.61 11.9 26.79 11.71 26.97C11.74 26.62 12.07 26.22 12.29 26.26C12.14 25.78 12.53 25.54 12.69 25.19C12.72 25.2 12.74 25.21 12.77 25.22C12.7 25.39 12.63 25.56 12.56 25.73C12.58 25.74 12.59 25.75 12.61 25.76C12.73 25.6 12.87 25.46 12.97 25.29C13.18 24.91 13.36 24.51 13.58 24.13C13.69 23.93 13.86 23.77 13.99 23.58C15.63 21.18 17.24 18.77 18.9 16.38C19.93 14.9 21.03 13.46 22.11 12.01C22.81 11.07 23.55 10.15 24.26 9.22003C24.66 8.70003 25.05 8.17004 25.44 7.63004C26.43 6.24004 27.41 4.85002 28.4 3.46002C28.48 3.35002 28.55 3.24004 28.66 3.07004C28.38 3.10004 28.15 3.12005 27.93 3.14005C26.87 3.23005 25.81 3.28003 24.76 3.41003C24.03 3.50003 23.3 3.70003 22.58 3.87003C19.15 4.71003 16.1 6.30002 13.39 8.55002C11.99 9.71002 10.6 10.91 9.46001 12.35C8.30001 13.81 7.36002 15.42 6.41002 17.01C5.15002 19.12 4.10001 21.32 3.36001 23.67C3.13001 24.38 2.91001 25.09 2.77001 25.82C2.65001 26.44 2.66003 27.08 2.60003 27.71C2.56003 28.14 2.54001 28.59 2.43001 29.01C2.35001 29.3 2.16001 29.59 1.96001 29.82C1.77001 30.03 1.64003 30.21 1.73003 30.5C1.64003 30.5 1.55001 30.52 1.43001 30.53C1.47001 30.93 1.50003 31.33 1.54003 31.73C1.52003 31.73 1.50003 31.73 1.48003 31.74C1.45003 31.56 1.41003 31.38 1.38003 31.2C1.32003 30.81 1.27003 30.41 1.20003 30.02C1.16003 29.82 1.09002 29.63 1.03002 29.44C1.02002 29.39 0.990011 29.34 0.990011 29.29C0.950011 28.79 0.930036 28.3 0.890036 27.8C0.710036 25.82 1.11002 23.93 1.62002 22.03C2.47002 18.83 4.04002 15.98 5.91002 13.3C6.95002 11.81 8.13003 10.4 9.32003 9.02002C10.31 7.87002 11.54 6.95002 12.78 6.08002C14.4 4.94002 16.05 3.83002 17.92 3.15002C19.06 2.73002 20.21 2.31003 21.38 2.03003C22.67 1.72003 24 1.52003 25.32 1.34003C26.92 1.12003 28.53 0.970039 30.14 0.790039C30.2 0.790039 30.25 0.760031 30.31 0.750031C30.5 0.750031 30.69 0.750031 30.88 0.750031L30.77 0.660034ZM23.91 12.4C23.86 12.46 23.79 12.52 23.76 12.59C23.72 12.71 23.74 12.86 23.68 12.96C23.56 13.16 23.42 13.37 23.24 13.53C22.98 13.75 22.94 14.2 22.5 14.22C22.48 14.22 22.45 14.27 22.44 14.3C22.29 14.76 21.95 15.09 21.67 15.46C20.89 16.51 20.13 17.58 19.37 18.65C19.32 18.72 19.28 18.79 19.21 18.9C19.38 18.9 19.5 18.9 19.62 18.9C20.26 18.9 20.91 18.9 21.55 18.88C22.62 18.84 23.69 18.8 24.76 18.74C25.68 18.69 26.61 18.6 27.53 18.59C29.44 18.57 31.35 18.5 33.25 18.33C34.63 18.21 36.02 18.16 37.4 18.12C38.2 18.1 38.99 18.15 39.79 18.17C39.88 18.17 39.97 18.17 40.09 18.16C40.02 18.04 39.97 17.96 39.92 17.89C39.39 17.11 38.86 16.33 38.33 15.55C36.08 12.19 33.9 8.78002 31.34 5.65002C30.98 5.21002 30.63 4.75002 30.28 4.30002C30.15 4.13002 30.03 4.10002 29.89 4.27002C29.75 4.43002 29.6 4.59004 29.47 4.76004C28.86 5.60004 28.26 6.44003 27.66 7.28003C27.16 7.99003 26.67 8.70004 26.19 9.42004C26.16 9.47004 26.16 9.54004 26.14 9.60004H26.29C26.25 9.69004 26.2 9.76004 26.16 9.85004C26.09 9.77004 26.04 9.70003 25.98 9.62003C25.77 9.91003 25.57 10.19 25.38 10.46C25.4 10.47 25.42 10.49 25.43 10.5C25.5 10.44 25.58 10.38 25.65 10.33C25.65 10.33 25.67 10.35 25.67 10.36C25.47 10.61 25.27 10.87 25.05 11.14V10.92C24.61 11.41 24.21 11.87 23.91 12.41V12.4ZM22.53 39.47C22.53 39.47 22.43 39.38 22.38 39.33C21.66 38.55 21.29 37.58 20.87 36.63C20.85 36.59 20.83 36.54 20.84 36.51C20.87 36.43 20.92 36.36 20.96 36.28C21.02 36.32 21.1 36.35 21.14 36.41C21.21 36.49 21.26 36.58 21.32 36.67C21.34 36.66 21.37 36.65 21.39 36.64L21.1 35.51C21.1 35.51 21.12 35.51 21.13 35.51C21.24 35.77 21.35 36.03 21.46 36.29C21.56 36.29 21.65 36.32 21.69 36.37C22.09 37 22.48 37.63 22.86 38.27C23.01 38.53 23.24 38.79 22.96 39.08C23.15 39.21 23.32 39.32 23.49 39.43L23.54 39.36C23.42 39.2 23.29 39.04 23.17 38.87C23.25 38.86 23.28 38.88 23.31 38.91C23.71 39.29 24.08 39.72 24.53 40.05C25.49 40.75 26.57 41.24 27.72 41.54C28.77 41.81 29.86 41.78 30.94 41.75C33.06 41.7 35.06 41.24 36.76 39.86C36.83 39.8 36.92 39.76 36.99 39.69C37.22 39.46 37.48 39.26 37.68 39C38.52 37.87 39.27 36.68 39.69 35.32C39.78 35.01 39.89 34.71 39.99 34.41C39.98 34.41 39.96 34.4 39.95 34.39L39.71 34.71C39.71 34.71 39.65 34.67 39.63 34.65C39.69 34.54 39.74 34.43 39.8 34.32C40.07 33.77 40.32 33.21 40.37 32.58C40.41 32.08 40.45 31.57 40.54 31.08C40.66 30.42 40.76 29.78 40.52 29.12C40.3 28.54 40.26 27.87 39.97 27.34C39.56 26.6 39.01 25.95 38.49 25.28C38.33 25.07 38.09 24.9 37.87 24.75C37.09 24.22 36.31 23.7 35.52 23.18C34.91 22.78 34.27 22.44 33.55 22.33C32.94 22.23 32.32 22.23 31.71 22.22C31.37 22.22 31.03 22.28 30.7 22.34C30.38 22.4 30.07 22.5 29.76 22.57C29.55 22.62 29.33 22.64 29.12 22.71C28.86 22.8 28.61 22.91 28.37 23.04C27.73 23.36 27.08 23.68 26.45 24.01C26.38 24.05 26.33 24.12 26.27 24.17C26.28 24.18 26.29 24.2 26.31 24.21C26.47 24.15 26.62 24.08 26.78 24.02C26.79 24.04 26.8 24.07 26.82 24.09C26.61 24.22 26.41 24.36 26.14 24.53C26.16 24.36 26.17 24.27 26.19 24.15C25.99 24.22 25.83 24.3 25.96 24.51C25.83 24.6 25.68 24.66 25.6 24.77C25.33 25.13 24.96 25.36 24.58 25.57C24.46 25.64 24.32 25.71 24.27 25.82C24 26.36 23.54 26.75 23.16 27.19C23.11 27.25 23.1 27.36 23.11 27.45C23.13 27.68 23.09 27.87 22.91 28.03C22.94 27.87 22.96 27.72 22.99 27.57L22.9 27.55C22.68 27.9 22.37 28.19 22.25 28.62C22.14 29 21.81 29.3 21.81 29.73C21.81 29.77 21.75 29.8 21.71 29.83C21.4 30.09 21.38 30.36 21.61 30.57C21.53 30.93 21.47 31.25 21.39 31.56C21.36 31.69 21.33 31.83 21.28 31.95C21.14 32.27 20.89 32.3 20.68 32.02C20.68 32.02 20.65 32.02 20.57 32.01C20.31 35.84 20.78 39.64 20.86 43.47C23.1 43.43 25.32 43.39 27.54 43.35C27.54 43.33 27.55 43.3 27.56 43.28C27.13 43.07 26.69 42.86 26.26 42.65C26.2 42.62 26.13 42.59 26.07 42.57C25.81 42.47 25.53 42.4 25.28 42.26C24.92 42.06 24.59 41.82 24.24 41.6C24.14 41.53 24.02 41.48 23.92 41.43C23.92 41.42 23.93 41.4 23.94 41.39C24.11 41.46 24.28 41.52 24.45 41.59C24.46 41.57 24.47 41.55 24.48 41.54C24.21 41.22 23.94 40.9 23.64 40.54C23.4 40.55 23.17 40.44 23.06 40.14H23.22C23.09 39.95 22.97 39.8 22.86 39.64C22.75 39.49 22.65 39.33 22.54 39.18C22.52 39.19 22.5 39.2 22.48 39.22C22.52 39.3 22.56 39.38 22.6 39.46L22.53 39.47ZM57.96 36.81C58.03 36.68 58.09 36.62 58.11 36.54C58.16 36.33 58.22 36.12 58.24 35.91C58.28 35.43 58.29 34.95 58.33 34.48C58.41 33.58 58.51 32.68 58.59 31.78C58.36 31.74 58.16 30.93 58.32 30.52C58.44 30.56 58.57 30.59 58.73 30.64C58.69 30.5 58.64 30.43 58.66 30.38C58.76 30.09 58.6 29.85 58.5 29.61C58.41 29.39 58.44 29.19 58.6 29.01C58.64 28.97 58.66 28.92 58.71 28.84C58.55 28.87 58.43 28.89 58.27 28.92C58.33 28.62 57.98 28.29 58.46 28.07C58.5 28.27 58.53 28.46 58.56 28.65H58.65C58.84 27.32 58.74 26 58.56 24.66C58.45 24.68 58.39 24.69 58.3 24.7C58.4 24.47 58.13 24.33 58.24 24.12C58.25 24.1 58.2 24.05 58.19 24.01C58.14 23.84 58.08 23.67 58.06 23.5C58.03 23.27 58.06 23.04 58.02 22.81C57.85 21.48 57.46 20.21 57.1 18.92C56.65 17.33 55.9 15.92 54.86 14.66C53.16 12.6 51.48 10.51 49.6 8.61002C49.39 8.39002 49.16 8.16003 48.89 8.03003C47.37 7.25003 45.84 6.48003 44.29 5.75003C41.72 4.54003 39 3.84003 36.19 3.47003C34.99 3.31003 33.77 3.25005 32.56 3.14005C32.39 3.13005 32.23 3.10002 32.01 3.08002C32.1 3.19002 32.15 3.26004 32.2 3.32004C32.55 3.74004 32.91 4.15003 33.24 4.59003C34.71 6.54003 36.17 8.50002 37.62 10.46C39.06 12.43 40.48 14.42 41.91 16.4C42.17 16.75 42.44 17.09 42.7 17.44C42.99 17.82 43.35 18.01 43.85 17.97C44.36 17.93 44.87 17.97 45.38 17.97C45.38 18.09 45.38 18.18 45.38 18.26C45.4 19.24 45.41 20.23 45.44 21.21C45.44 21.34 45.52 21.49 45.59 21.61C46.4 22.84 47.22 24.07 48.03 25.29C48.53 26.04 49.01 26.8 49.52 27.54C51.04 29.76 52.58 31.96 54.09 34.19C55.18 35.81 56.23 37.45 57.31 39.09C57.36 39.17 57.43 39.24 57.49 39.31C57.51 39.3 57.54 39.28 57.56 39.27C57.53 39.17 57.5 39.07 57.45 38.91C57.57 38.97 57.64 39 57.76 39.06V37.52C57.76 37.52 57.72 37.52 57.71 37.52C57.63 37.92 57.55 38.31 57.45 38.77C57.26 38.47 57.2 38.25 57.35 37.99C57.42 37.86 57.44 37.7 57.46 37.55C57.49 37.34 57.5 37.13 57.52 36.9C57.63 36.94 57.71 36.97 57.84 37.01C57.77 36.68 57.7 36.39 57.63 36.06C58.08 36.17 57.89 36.52 58 36.83L57.96 36.81ZM45.31 42.69C45.48 42.66 45.62 42.62 45.76 42.62C45.88 42.62 46 42.7 46.12 42.69C47.25 42.64 48.38 42.55 49.51 42.53C51.66 42.49 53.81 42.49 55.96 42.48C56.18 42.48 56.41 42.46 56.63 42.42C56.71 42.41 56.82 42.32 56.84 42.25C56.86 42.17 56.81 42.05 56.75 41.99C56.55 41.76 56.32 41.56 56.13 41.31C54.72 39.42 53.27 37.54 51.92 35.6C50.65 33.79 49.5 31.9 48.27 30.07C47.48 28.88 46.65 27.71 45.84 26.54C45.73 26.38 45.6 26.23 45.43 26.01C45.43 26.18 45.41 26.26 45.41 26.35C45.38 27.69 45.34 29.02 45.32 30.36C45.32 30.57 45.28 30.76 45.39 31C45.51 31.25 45.42 31.61 45.42 31.92H45.41C45.39 31.77 45.36 31.61 45.34 31.46C45.32 31.46 45.29 31.46 45.27 31.47C45.27 31.87 45.27 32.27 45.27 32.68C45.27 33.05 45.23 33.42 45.49 33.67C45.41 33.74 45.3 33.8 45.3 33.85C45.33 34.33 45.15 34.84 45.46 35.29C45.5 35.35 45.52 35.43 45.55 35.52C45.44 35.51 45.35 35.5 45.23 35.48C45.25 35.74 45.24 35.98 45.28 36.22C45.31 36.4 45.42 36.5 45.62 36.25C45.66 36.52 45.69 36.72 45.71 36.93C45.73 37.17 45.82 37.43 45.75 37.64C45.67 37.9 45.73 38.11 45.8 38.34C45.85 38.53 45.86 38.73 45.89 38.92C45.87 38.92 45.84 38.92 45.82 38.92C45.78 38.77 45.74 38.62 45.69 38.45C45.64 38.76 45.59 39.04 45.55 39.33C45.43 39.28 45.36 39.25 45.25 39.2C45.36 40.39 45.02 41.55 45.31 42.69ZM42.71 28.54C42.71 28.54 42.77 28.54 42.79 28.53C42.79 28.44 42.8 28.35 42.8 28.26C42.76 26.43 42.71 24.59 42.7 22.76C42.7 22.16 42.57 21.66 42.24 21.15C41.99 20.76 41.73 20.52 41.25 20.64C41.14 20.66 41.03 20.65 40.92 20.65C39.14 20.68 37.36 20.72 35.57 20.75C35.53 20.75 35.48 20.76 35.44 20.77C35.79 21 36.15 21.17 36.52 21.33C37.42 21.74 38.32 22.15 39.08 22.79C39.75 23.35 40.36 23.98 40.82 24.74C40.98 25 41.15 25.27 41.33 25.51C41.95 26.32 42.32 27.25 42.59 28.21C42.62 28.32 42.66 28.43 42.7 28.54H42.71ZM36.01 42.94C36.01 42.94 36.02 42.98 36.03 43C38.35 42.92 40.68 42.84 43.02 42.75C42.71 40.42 42.45 38.14 42.45 35.83C42.15 36.34 41.89 36.86 41.63 37.38C40.9 38.87 40 40.23 38.56 41.16C38.48 41.21 38.42 41.28 38.35 41.35C37.73 41.92 37.06 42.43 36.3 42.8C36.2 42.85 36.11 42.9 36.01 42.94ZM20.71 21.42C20.65 23.39 20.6 25.32 20.54 27.23C22.22 24.89 24.06 22.7 26.58 21.14C24.62 21.23 22.66 21.33 20.71 21.42ZM34.83 61.07C34.83 61.07 34.83 61.11 34.83 61.13L36 60.98C36 60.98 36 60.96 36 60.95C35.86 60.92 35.72 60.89 35.58 60.86C35.58 60.84 35.59 60.82 35.6 60.8C35.86 60.88 36.97 60.68 37.1 60.45C35.73 60.64 34.36 60.82 32.99 61.01C32.99 61.06 33 61.1 33.01 61.15C33.7 61.08 34.39 61.02 35.07 60.95V61.02C34.99 61.04 34.91 61.06 34.83 61.08V61.07ZM9.58001 51.91C9.58001 51.91 9.54002 51.94 9.53002 51.96C9.67002 52.3 9.95002 52.58 10.22 52.62C9.99002 52.37 9.79001 52.14 9.58001 51.91ZM37.17 60.43C37.17 60.43 37.17 60.48 37.17 60.5C37.53 60.61 37.86 60.44 38.2 60.37C38.2 60.35 38.2 60.32 38.2 60.3C37.86 60.34 37.52 60.38 37.18 60.42L37.17 60.43ZM31.66 61.11C31.66 61.11 31.66 61.17 31.66 61.21C32.03 61.17 32.39 61.13 32.76 61.09C32.76 61.06 32.76 61.03 32.75 61C32.39 61.04 32.02 61.08 31.66 61.12V61.11Z" fill="#1D1D1B"/>
<path d="M2.59007 31.01C2.62007 31.48 2.63007 31.95 2.68007 32.41C2.71007 32.75 2.78008 33.08 2.85008 33.42C2.92008 33.78 3.02006 34.13 3.08006 34.49C3.09006 34.55 3.02006 34.65 2.96006 34.7C2.89006 34.76 2.80006 34.78 2.77006 34.79C2.85006 34.91 2.99008 35.03 2.98008 35.15C2.98008 35.27 2.83006 35.38 2.74006 35.51C2.84006 35.55 2.92006 35.59 3.02006 35.63C3.05006 35.56 3.07008 35.51 3.10008 35.43C3.19008 35.56 3.27008 35.68 3.35008 35.8C3.28008 35.84 3.20009 35.91 3.14009 35.9C2.98009 35.87 2.82007 35.81 2.62007 35.74C2.65007 36.07 2.67008 36.36 2.70008 36.65C2.69008 36.65 2.68009 36.65 2.67009 36.65C2.52009 36.04 2.37006 35.44 2.21006 34.81C2.11006 34.83 2.04006 34.84 1.96006 34.86C1.96006 34.85 1.93007 34.84 1.93007 34.82C1.82007 34.3 1.72007 33.79 1.62007 33.27C1.60007 33.15 1.57007 33.03 1.59007 32.92C1.62007 32.68 1.63007 32.47 1.43007 32.28C1.39007 32.24 1.45008 32.08 1.48008 31.9C1.64008 32.13 1.76007 32.28 1.87007 32.43H1.92009C1.92009 32.25 1.94008 32.09 1.95008 31.92C2.04008 31.92 2.11008 31.91 2.20008 31.9V31.51C2.20008 31.51 2.24007 31.51 2.25007 31.51C2.32007 31.83 2.40006 32.15 2.49006 32.53C2.59006 31.97 2.27006 31.47 2.49006 30.98C2.53006 30.98 2.57006 30.98 2.61006 30.98L2.59007 31.01Z" fill="#1D1D1B"/>
<path d="M9.87012 29.1401C9.79012 29.2501 9.72012 29.3701 9.62012 29.4701C9.49012 29.6101 9.46012 29.7301 9.69012 29.8501C9.77012 29.7401 9.84014 29.6201 9.92014 29.5101C9.94014 29.5201 9.96013 29.5401 9.98013 29.5501C9.78013 29.8501 9.58013 30.1601 9.38013 30.4601C9.38013 30.4601 9.36013 30.4501 9.35013 30.4401C9.42013 30.2601 9.50013 30.0801 9.57013 29.8901C9.55013 29.8901 9.53013 29.8701 9.51013 29.8601C9.18013 30.2801 8.85012 30.7101 8.50012 31.1401C8.70012 31.2501 8.64012 31.3501 8.50012 31.4601C8.23012 31.6601 7.93013 31.8501 7.82013 32.2001C7.80013 32.2601 7.70013 32.3001 7.66013 32.3301C7.55013 32.2101 7.47012 32.1201 7.37012 32.0001C7.57012 31.5101 8.00011 31.1701 8.43011 30.8401C8.59011 30.7201 8.73012 30.5901 8.90012 30.4901C9.16012 30.3401 9.16012 30.0801 9.19012 29.8201C9.11012 29.9201 9.03013 30.0201 8.95013 30.1301C8.93013 30.1101 8.92012 30.1001 8.90012 30.0801C9.14012 29.7001 9.43013 29.3601 9.79013 29.0801C9.81013 29.1001 9.84011 29.1201 9.86011 29.1401H9.87012Z" fill="#1D1D1B"/>
<path d="M10.9299 27.84C10.6999 28.13 10.48 28.43 10.2 28.78C10.18 28.65 10.14 28.56 10.17 28.52C10.38 28.25 10.57 27.95 10.84 27.74C10.87 27.77 10.8999 27.81 10.9299 27.84Z" fill="#1D1D1B"/>
<path d="M3.77002 37.61C4.02002 37.53 4.02004 37.72 4.07004 37.82C4.37004 38.42 4.38003 38.51 4.25003 38.65C4.09003 38.3 3.93002 37.97 3.77002 37.6V37.61Z" fill="#1D1D1B"/>
<path d="M3.42008 36.25C3.50008 36.44 3.58007 36.64 3.66007 36.84C3.47007 36.84 3.31006 36.51 3.34006 36.27C3.36006 36.27 3.39007 36.25 3.41007 36.24L3.42008 36.25Z" fill="#1D1D1B"/>
<path d="M48.5999 56.51C48.3899 56.62 48.1899 56.73 47.9799 56.84C47.9699 56.82 47.9499 56.79 47.9399 56.77C48.1399 56.65 48.3399 56.52 48.5399 56.4C48.5599 56.44 48.5799 56.47 48.5999 56.51Z" fill="#1D1D1B"/>
<path d="M8.92993 29.35C9.07993 29.16 9.22994 28.98 9.37994 28.79C9.27994 29.02 9.22993 29.28 8.92993 29.35Z" fill="#1D1D1B"/>
<path d="M29.95 22.8401C30.13 22.7601 30.2999 22.6701 30.4899 22.5801C30.4899 22.6734 30.31 22.7601 29.95 22.8401Z" fill="#1D1D1B"/>
<path d="M23.9102 12.4001C24.0202 12.3401 24.1302 12.2901 24.3102 12.2001C24.1902 12.3701 24.1102 12.4901 24.0102 12.6401C23.9702 12.5301 23.9501 12.4601 23.9301 12.3901L23.9102 12.4001Z" fill="#1D1D1B"/>
<path d="M45.5299 40.9401C45.3499 40.9501 45.3399 40.9201 45.3999 40.4301C45.5799 40.5501 45.5699 40.5401 45.4999 40.7201C45.4799 40.7701 45.5199 40.8601 45.5299 40.9401Z" fill="#1D1D1B"/>
</svg>
