<svg width="75" height="112" viewBox="0 0 75 112" fill="none" xmlns="http://www.w3.org/2000/svg">
<path d="M65.71 1H9.32001C4.725 1 1 4.72499 1 9.32V65.71C1 70.305 4.725 74.03 9.32001 74.03H65.71C70.305 74.03 74.03 70.305 74.03 65.71V9.32C74.03 4.72499 70.305 1 65.71 1Z" stroke="#1D1D1B" stroke-miterlimit="10"/>
<path d="M24.0335 16.1754V49.47H20.0017V16.1754H24.0335ZM41.0262 49.9902C38.9453 49.9902 37.1083 49.4646 35.5151 48.4133C33.9219 47.3511 32.6755 45.8555 31.7759 43.9263C30.8764 41.9863 30.4266 39.694 30.4266 37.0495C30.4266 34.4267 30.8764 32.1507 31.7759 30.2216C32.6755 28.2924 33.9273 26.8022 35.5313 25.7509C37.1354 24.6996 38.9887 24.1739 41.0913 24.1739C42.717 24.1739 44.0013 24.4449 44.9442 24.9868C45.8979 25.5178 46.6241 26.1248 47.1226 26.8076C47.632 27.4795 48.0276 28.0323 48.3094 28.4658H48.6346V16.1754H52.4712V49.47H48.7646V45.6333H48.3094C48.0276 46.0885 47.6266 46.6629 47.1064 47.3565C46.5862 48.0393 45.8438 48.6517 44.8792 49.1936C43.9146 49.7247 42.6303 49.9902 41.0262 49.9902ZM41.5465 46.5437C43.0855 46.5437 44.386 46.1427 45.4482 45.3407C46.5103 44.5278 47.3177 43.4061 47.8705 41.9754C48.4232 40.534 48.6996 38.8703 48.6996 36.9845C48.6996 35.1204 48.4286 33.4892 47.8867 32.0911C47.3448 30.6822 46.5428 29.5875 45.4807 28.8072C44.4185 28.016 43.1071 27.6204 41.5465 27.6204C39.9207 27.6204 38.566 28.0377 37.4822 28.8722C36.4092 29.6959 35.6018 30.8177 35.0599 32.2374C34.5288 33.6464 34.2633 35.2287 34.2633 36.9845C34.2633 38.762 34.5342 40.3768 35.0761 41.8291C35.6289 43.2706 36.4417 44.4194 37.5147 45.2756C38.5985 46.121 39.9424 46.5437 41.5465 46.5437Z" fill="#1D1D1B"/>
<path d="M13.9205 108.96V102.415H14.9261V108.96H13.9205ZM14.4318 101.324C14.2358 101.324 14.0668 101.257 13.9247 101.123C13.7855 100.99 13.7159 100.829 13.7159 100.642C13.7159 100.454 13.7855 100.294 13.9247 100.16C14.0668 100.027 14.2358 99.96 14.4318 99.96C14.6278 99.96 14.7955 100.027 14.9347 100.16C15.0767 100.294 15.1477 100.454 15.1477 100.642C15.1477 100.829 15.0767 100.99 14.9347 101.123C14.7955 101.257 14.6278 101.324 14.4318 101.324ZM17.7738 105.022V108.96H16.7681V102.415H17.7397V103.437H17.8249C17.9783 103.105 18.2113 102.838 18.5238 102.636C18.8363 102.432 19.2397 102.329 19.734 102.329C20.1772 102.329 20.565 102.42 20.8974 102.602C21.2298 102.781 21.4883 103.054 21.6729 103.42C21.8576 103.784 21.9499 104.244 21.9499 104.801V108.96H20.9442V104.869C20.9442 104.355 20.8107 103.954 20.5437 103.667C20.2766 103.378 19.9102 103.233 19.4442 103.233C19.1232 103.233 18.8363 103.302 18.5835 103.441C18.3335 103.581 18.136 103.784 17.9911 104.051C17.8462 104.318 17.7738 104.642 17.7738 105.022ZM26.6172 108.96H23.924V100.233H26.7365C27.5831 100.233 28.3075 100.407 28.9098 100.757C29.5121 101.103 29.9737 101.602 30.2947 102.253C30.6158 102.9 30.7763 103.676 30.7763 104.579C30.7763 105.488 30.6143 106.271 30.2905 106.927C29.9666 107.581 29.495 108.084 28.8757 108.436C28.2564 108.785 27.5036 108.96 26.6172 108.96ZM24.9808 108.022H26.549C27.2706 108.022 27.8686 107.883 28.343 107.605C28.8175 107.326 29.1712 106.93 29.4041 106.416C29.6371 105.902 29.7536 105.29 29.7536 104.579C29.7536 103.875 29.6385 103.268 29.4084 102.76C29.1783 102.248 28.8345 101.856 28.3771 101.584C27.9197 101.308 27.3501 101.17 26.6683 101.17H24.9808V108.022ZM35.157 109.096C34.5263 109.096 33.9822 108.957 33.5249 108.679C33.0703 108.397 32.7195 108.005 32.4723 107.503C32.228 106.997 32.1058 106.409 32.1058 105.738C32.1058 105.068 32.228 104.477 32.4723 103.966C32.7195 103.451 33.0632 103.051 33.5036 102.764C33.9467 102.474 34.4638 102.329 35.0547 102.329C35.3956 102.329 35.7322 102.386 36.0646 102.5C36.397 102.613 36.6996 102.798 36.9723 103.054C37.245 103.307 37.4624 103.642 37.6243 104.059C37.7862 104.477 37.8672 104.991 37.8672 105.602V106.028H32.8217V105.159H36.8445C36.8445 104.79 36.7706 104.46 36.6229 104.17C36.478 103.88 36.2706 103.652 36.0007 103.484C35.7337 103.316 35.4183 103.233 35.0547 103.233C34.6541 103.233 34.3075 103.332 34.0149 103.531C33.7251 103.727 33.5021 103.983 33.3459 104.298C33.1896 104.613 33.1115 104.951 33.1115 105.312V105.892C33.1115 106.386 33.1967 106.805 33.3672 107.149C33.5405 107.49 33.7805 107.75 34.0874 107.929C34.3942 108.105 34.7507 108.193 35.157 108.193C35.4212 108.193 35.6598 108.156 35.8729 108.082C36.0888 108.005 36.2749 107.892 36.4311 107.741C36.5874 107.588 36.7081 107.397 36.7933 107.17L37.7649 107.443C37.6626 107.772 37.4908 108.062 37.2493 108.312C37.0078 108.559 36.7095 108.753 36.3544 108.892C35.9993 109.028 35.6001 109.096 35.157 109.096ZM44.0334 103.88L43.13 104.136C43.0732 103.986 42.9893 103.839 42.8786 103.697C42.7706 103.552 42.6229 103.433 42.4354 103.339C42.2479 103.245 42.0078 103.199 41.7152 103.199C41.3146 103.199 40.9808 103.291 40.7138 103.476C40.4496 103.657 40.3175 103.889 40.3175 104.17C40.3175 104.42 40.4084 104.618 40.5902 104.763C40.772 104.907 41.0561 105.028 41.4425 105.125L42.4141 105.363C42.9993 105.505 43.4354 105.723 43.7223 106.015C44.0092 106.305 44.1527 106.679 44.1527 107.136C44.1527 107.511 44.0447 107.846 43.8288 108.142C43.6158 108.437 43.3175 108.67 42.9339 108.841C42.5504 109.011 42.1044 109.096 41.5959 109.096C40.9283 109.096 40.3757 108.951 39.9382 108.662C39.5007 108.372 39.2237 107.949 39.1072 107.392L40.0618 107.153C40.1527 107.505 40.3246 107.77 40.5774 107.946C40.8331 108.122 41.1669 108.21 41.5788 108.21C42.0476 108.21 42.4197 108.111 42.6953 107.912C42.9737 107.71 43.1129 107.468 43.1129 107.187C43.1129 106.96 43.0334 106.77 42.8743 106.616C42.7152 106.46 42.4709 106.343 42.1413 106.267L41.0504 106.011C40.451 105.869 40.0107 105.649 39.7294 105.351C39.451 105.049 39.3118 104.673 39.3118 104.221C39.3118 103.852 39.4155 103.525 39.6229 103.241C39.8331 102.957 40.1186 102.734 40.4794 102.572C40.843 102.41 41.255 102.329 41.7152 102.329C42.3629 102.329 42.8714 102.471 43.2408 102.755C43.6129 103.04 43.8771 103.415 44.0334 103.88ZM45.6665 108.96V102.415H46.6722V108.96H45.6665ZM46.1779 101.324C45.9819 101.324 45.8129 101.257 45.6708 101.123C45.5316 100.99 45.462 100.829 45.462 100.642C45.462 100.454 45.5316 100.294 45.6708 100.16C45.8129 100.027 45.9819 99.96 46.1779 99.96C46.3739 99.96 46.5415 100.027 46.6808 100.16C46.8228 100.294 46.8938 100.454 46.8938 100.642C46.8938 100.829 46.8228 100.99 46.6808 101.123C46.5415 101.257 46.3739 101.324 46.1779 101.324ZM51.1562 111.551C50.6705 111.551 50.2528 111.488 49.9034 111.363C49.554 111.241 49.2628 111.079 49.0298 110.878C48.7997 110.679 48.6165 110.466 48.4801 110.238L49.2812 109.676C49.3722 109.795 49.4872 109.932 49.6264 110.085C49.7656 110.241 49.956 110.376 50.1974 110.49C50.4418 110.606 50.7614 110.665 51.1562 110.665C51.6847 110.665 52.1207 110.537 52.4645 110.281C52.8082 110.025 52.9801 109.625 52.9801 109.079V107.75H52.8949C52.821 107.869 52.7159 108.017 52.5795 108.193C52.446 108.366 52.2528 108.521 52 108.657C51.75 108.791 51.4119 108.858 50.9858 108.858C50.4574 108.858 49.983 108.733 49.5625 108.483C49.1449 108.233 48.8139 107.869 48.5696 107.392C48.3281 106.915 48.2074 106.335 48.2074 105.653C48.2074 104.983 48.3253 104.399 48.5611 103.902C48.7969 103.402 49.125 103.015 49.5455 102.743C49.9659 102.467 50.4517 102.329 51.0028 102.329C51.429 102.329 51.767 102.4 52.017 102.542C52.2699 102.682 52.4631 102.841 52.5966 103.02C52.733 103.196 52.8381 103.341 52.9119 103.454H53.0142V102.415H53.9858V109.147C53.9858 109.71 53.858 110.167 53.6023 110.52C53.3494 110.875 53.0085 111.135 52.5795 111.299C52.1534 111.467 51.679 111.551 51.1562 111.551ZM51.1222 107.954C51.5256 107.954 51.8665 107.862 52.1449 107.677C52.4233 107.493 52.6349 107.227 52.7798 106.88C52.9247 106.534 52.9972 106.119 52.9972 105.636C52.9972 105.165 52.9261 104.748 52.7841 104.388C52.642 104.027 52.4318 103.744 52.1534 103.54C51.875 103.335 51.5313 103.233 51.1222 103.233C50.696 103.233 50.3409 103.341 50.0568 103.557C49.7756 103.772 49.5639 104.062 49.4219 104.426C49.2827 104.79 49.2131 105.193 49.2131 105.636C49.2131 106.091 49.2841 106.493 49.4261 106.842C49.571 107.189 49.7841 107.461 50.0653 107.66C50.3494 107.856 50.7017 107.954 51.1222 107.954ZM56.8324 105.022V108.96H55.8267V102.415H56.7983V103.437H56.8835C57.0369 103.105 57.2699 102.838 57.5824 102.636C57.8949 102.432 58.2983 102.329 58.7926 102.329C59.2358 102.329 59.6236 102.42 59.956 102.602C60.2884 102.781 60.5469 103.054 60.7315 103.42C60.9162 103.784 61.0085 104.244 61.0085 104.801V108.96H60.0028V104.869C60.0028 104.355 59.8693 103.954 59.6023 103.667C59.3352 103.378 58.9688 103.233 58.5028 103.233C58.1818 103.233 57.8949 103.302 57.642 103.441C57.392 103.581 57.1946 103.784 57.0497 104.051C56.9048 104.318 56.8324 104.642 56.8324 105.022Z" fill="#1D1D1B"/>
</svg>
