<svg width="95" height="42" viewBox="0 0 95 42" fill="none" xmlns="http://www.w3.org/2000/svg">
<path d="M70.73 0.869995V8.29999C70.22 8.29999 69.7499 8.30999 69.2699 8.29999C67.8999 8.25999 67.6699 8.36 67.2899 9.66C66.6899 11.7 66.1799 13.77 65.5899 15.81C65.0199 17.8 64.4199 19.77 63.8099 21.75C63.1999 23.7 62.1699 25.4 60.5599 26.9C60.8799 26.99 61.0499 27.04 61.3699 27.13C61.1499 27.5 60.9999 27.89 60.7399 28.18C59.0999 29.94 57.57 31.83 55.73 33.36C54.52 34.36 52.78 34.47 51.2 34.04C50.92 33.96 50.56 33.2 50.67 32.9C50.92 32.18 51.2799 31.38 51.8399 30.92C54.3099 28.9 56.8699 26.98 59.4099 25.04C60.1799 24.45 60.7599 23.78 61.0799 22.83C61.3799 21.95 61.9899 21.17 62.3099 20.29C62.9599 18.49 63.5899 16.68 64.0899 14.84C64.6299 12.85 65.03 10.81 65.45 8.79001C65.51 8.50001 65.4099 8 65.2099 7.88C63.2799 6.66 62.9699 4.90999 63.3999 2.85999C63.5399 2.20999 63.6499 1.55001 63.7799 0.890015C66.0999 0.890015 68.4199 0.890015 70.7399 0.890015L70.73 0.869995Z" fill="#1D1D1B"/>
<path d="M94.1798 25.7201C89.7898 28.4801 85.3999 31.2401 81.0099 34.0001C80.5499 34.2901 80.0499 34.5301 79.5699 34.8001C78.9299 35.1601 78.4498 35.0801 78.0298 34.4201C77.6098 33.7601 77.9399 33.3701 78.4199 33.0501C79.8099 32.1101 81.1998 31.1801 82.6198 30.2801C85.3998 28.5101 88.1899 26.7601 90.9699 25.0001C91.2799 24.8101 91.5698 24.5901 91.9898 24.3001C91.6198 24.0001 91.3199 23.7101 90.9799 23.4901C87.2999 21.1001 83.5999 18.7201 79.9199 16.3301C79.3299 15.9501 78.7799 15.5201 78.2299 15.0801C77.7899 14.7301 77.5399 14.3201 77.9799 13.7601C78.3899 13.2401 78.7799 13.1301 79.3799 13.5001C83.9899 16.3201 88.5999 19.1101 93.2199 21.9101C93.5299 22.1001 93.8599 22.2701 94.1699 22.4401V25.7301L94.1798 25.7201Z" fill="#1D1D1B"/>
<path d="M30.1398 41.61C30.1398 40.09 30.1298 38.64 30.1598 37.19C30.1598 36.99 30.3598 36.75 30.5398 36.61C35.7398 32.52 40.9398 28.45 46.1498 24.37C46.2398 24.3 46.3598 24.26 46.5498 24.15C46.4698 24.5 46.4098 24.75 46.3598 25.01C46.0998 26.37 46.6898 27.16 48.0898 27.15C50.9698 27.13 53.4198 26.04 55.4598 24.02C55.6098 23.87 55.7298 23.67 55.8998 23.56C56.3098 23.3 56.7498 23.08 57.1798 22.85C57.2398 23.35 57.4998 23.92 57.3298 24.33C57.0198 25.09 56.5598 25.84 55.9998 26.45C53.5698 29.07 50.7298 31.24 47.9098 33.42C44.6098 35.97 41.3398 38.57 38.0298 41.11C37.6598 41.4 37.1098 41.58 36.6398 41.59C34.5098 41.64 32.3798 41.61 30.1398 41.61Z" fill="#1D1D1B"/>
<path d="M38.3899 41.43C42.3399 38.32 46.2999 35.21 50.2699 32.09C50.3299 32.23 50.3799 32.29 50.3699 32.33C50.0599 34.04 50.7199 34.72 52.5199 34.58C55.4299 34.34 57.9199 33.2 59.9599 31.1C60.1299 30.93 60.3099 30.77 60.5899 30.5C60.8299 31.94 60.7899 33.26 60.0999 34.43C59.2099 35.94 58.2199 37.4 57.1699 38.82C56.4499 39.79 55.7199 40.98 54.7099 41.46C53.7299 41.92 52.3899 41.61 51.1999 41.62C47.2399 41.62 43.2699 41.62 39.3099 41.62H38.4399C38.4199 41.56 38.3999 41.5 38.3799 41.44L38.3899 41.43Z" fill="#1D1D1B"/>
<path d="M49.2598 20.53C48.9898 20.99 48.8298 21.58 48.4398 21.89C42.5198 26.58 36.5698 31.23 30.6298 35.89C30.5398 35.96 30.4298 36.02 30.2298 36.14C30.1898 35.85 30.1398 35.63 30.1398 35.41C30.1398 33.37 30.1198 31.33 30.1498 29.3C30.1498 28.95 30.3098 28.49 30.5598 28.28C32.9598 26.26 35.3898 24.28 37.8198 22.29C37.9298 22.2 38.0698 22.14 38.2098 22.06C38.4598 23.67 38.9598 24.05 40.5898 24.06C43.1298 24.06 45.3798 23.38 47.1998 21.52C47.6898 21.02 48.3198 20.64 48.8798 20.21C48.9998 20.32 49.1298 20.42 49.2498 20.53H49.2598Z" fill="#1D1D1B"/>
<path d="M2.70989 24.37C3.42989 24.96 3.92987 25.45 4.50987 25.82C7.85987 27.99 11.2299 30.14 14.5899 32.31C15.2499 32.74 15.8799 33.23 16.4999 33.73C17.0099 34.14 16.9499 34.59 16.5599 35.07C16.1999 35.52 15.8799 35.65 15.3299 35.31C10.4999 32.33 5.65988 29.38 0.829881 26.41C0.649881 26.3 0.419883 26.07 0.409883 25.89C0.369883 24.98 0.369883 24.06 0.409883 23.15C0.409883 22.97 0.649881 22.74 0.829881 22.63C5.62988 19.73 10.4399 16.84 15.2499 13.94C15.7599 13.63 16.1699 13.58 16.5999 14.1C17.2499 14.88 17.2799 15.23 16.3999 15.79C13.0599 17.92 9.68989 20 6.31989 22.11C5.18989 22.82 4.05989 23.53 2.70989 24.38V24.37Z" fill="#1D1D1B"/>
<path d="M48.4398 26.82C46.8598 26.84 46.3998 26.19 46.7698 24.73C47.1398 23.28 48.3599 22.62 49.4099 21.83C50.5299 20.99 51.7099 20.23 52.8499 19.43C54.0399 18.59 55.2099 17.71 56.4199 16.88C56.8399 16.59 57.3198 16.33 57.8098 16.22C58.2098 16.13 58.8499 16.14 59.0399 16.38C59.2699 16.68 59.2999 17.32 59.1299 17.69C58.8099 18.4 58.3599 19.08 57.8499 19.67C56.8599 20.82 55.7898 21.91 54.7398 23.02C54.1698 23.62 53.4799 24.11 53.0099 24.77C51.8399 26.4 50.1398 26.68 48.4298 26.81L48.4398 26.82Z" fill="#1D1D1B"/>
<path d="M40.4599 23.98C39.8699 23.64 39.0199 23.45 38.7499 22.94C38.3199 22.15 38.8299 21.41 39.5699 20.85C42.1499 18.9 44.6799 16.8999 47.2599 14.9599C47.8599 14.5099 48.5499 14.12 49.2599 13.88C49.6399 13.75 50.2899 13.86 50.5599 14.13C50.7699 14.33 50.7299 15.03 50.5399 15.35C50.0899 16.14 49.5599 16.9099 48.9299 17.5499C47.2399 19.2599 45.4799 20.9 43.7399 22.57C42.8599 23.41 41.8199 23.83 40.5799 23.72C40.5399 23.81 40.4999 23.89 40.4599 23.98Z" fill="#1D1D1B"/>
</svg>
