<svg width="79" height="60" viewBox="0 0 79 60" fill="none" xmlns="http://www.w3.org/2000/svg">
<path d="M37.2401 0.280029C37.2801 0.360029 37.3601 0.340027 37.4301 0.340027C38.9001 0.420027 40.3501 0.64002 41.7801 1.02002C43.4801 1.48002 45.0801 2.15003 46.4901 3.22003C47.8301 4.24003 48.8401 5.51002 49.3301 7.15002C49.5301 7.82002 49.6401 8.50003 49.7001 9.19003C49.8601 11.29 49.3901 13.27 48.5501 15.17C47.4101 17.74 45.7101 19.88 43.6101 21.73C42.1501 23.01 40.5401 24.07 38.7801 24.88C37.2501 25.58 35.6401 26.1 34.0101 26.51C32.8301 26.81 31.6401 27.03 30.4301 27.17C29.7701 27.25 29.1101 27.29 28.4501 27.32C27.7001 27.36 26.9601 27.34 26.2201 27.3C24.5601 27.21 22.9601 26.91 21.4901 26.08C20.4401 25.49 19.5201 24.76 18.8601 23.74C18.6201 23.38 18.4701 22.98 18.3901 22.55C18.3701 22.43 18.3901 22.32 18.4201 22.22C18.5201 21.96 18.7901 21.88 19.0101 22.05C19.1201 22.14 19.2401 22.23 19.3301 22.34C20.0301 23.17 20.9401 23.68 21.9401 24.06C22.9701 24.45 24.0401 24.64 25.1401 24.69C26.7901 24.77 28.4001 24.54 30.0001 24.21C32.3101 23.73 34.5101 22.93 36.6001 21.82C38.6601 20.72 40.5201 19.34 42.1101 17.63C43.0501 16.62 43.8701 15.51 44.5001 14.27C44.9401 13.4 45.2801 12.49 45.4401 11.53C45.6101 10.5 45.5601 9.48002 45.1701 8.49002C44.8801 7.76002 44.3701 7.22002 43.7401 6.77002C42.8401 6.13002 41.8301 5.76002 40.7801 5.49002C39.4801 5.17002 38.1501 5.05004 36.8001 5.04004C34.7201 5.03004 32.6701 5.30004 30.6401 5.76004C27.8701 6.39004 25.2201 7.34002 22.6501 8.55002C19.8501 9.87002 17.1501 11.38 14.5901 13.14C12.9501 14.27 11.3901 15.51 10.0001 16.95C8.97009 18.02 8.05009 19.18 7.35009 20.5C6.79009 21.56 6.41009 22.69 6.26009 23.89C6.11009 25.1 6.20009 26.27 6.64009 27.41C7.00009 28.36 7.55009 29.21 8.19009 30C9.09009 31.11 10.1501 32.05 11.2501 32.96C12.6301 34.1 14.0701 35.15 15.4701 36.27C16.4701 37.07 17.4301 37.9 18.3201 38.83C18.5601 39.08 18.4901 39.08 18.8001 38.91C20.5401 37.96 22.2801 37.01 24.0101 36.06C24.6501 35.71 25.3001 35.35 25.9501 35.01C26.2101 34.87 26.4101 34.69 26.5901 34.46C27.8301 32.85 29.3201 31.54 31.1501 30.64C31.8301 30.31 32.5501 30.08 33.3201 30.08C34.5001 30.09 35.3201 30.69 35.6501 31.83C35.8801 32.61 35.8901 33.4 35.8101 34.2C35.7801 34.47 35.7501 34.74 35.7101 35.02C35.8401 35.04 35.9001 34.96 35.9701 34.91C36.2401 34.69 36.5401 34.6 36.8801 34.63C37.3001 34.66 37.6801 34.81 38.0001 35.08C38.2801 35.32 38.4001 35.64 38.3301 36.02C38.2001 36.67 38.0001 37.31 37.8301 37.95C37.3701 39.66 36.9201 41.38 36.5401 43.11C36.3501 43.97 36.2101 44.83 36.2601 45.72C36.2701 45.88 36.2801 46.05 36.3601 46.21C36.5001 46.21 36.5601 46.09 36.6301 45.99C36.8501 45.68 37.0101 45.34 37.1901 45C38.0101 43.44 38.7301 41.84 39.4501 40.24C40.2001 38.56 40.9501 36.89 41.7001 35.21C42.4101 33.6 43.1401 32.01 43.8001 30.38C44.0301 29.81 44.1601 29.21 44.3201 28.62C44.3701 28.44 44.4201 28.27 44.4601 28.09C44.5201 27.84 44.6701 27.68 44.9001 27.58C45.2101 27.44 45.5401 27.36 45.8701 27.3C46.5401 27.18 47.2101 27.15 47.8801 27.17C48.1901 27.18 48.4901 27.24 48.7801 27.35C48.9301 27.41 49.0501 27.49 49.1601 27.6C49.3501 27.78 49.4001 27.98 49.3201 28.24C49.0501 29.02 48.7801 29.8 48.5901 30.61C48.3601 31.6 48.3201 32.59 48.4801 33.59C48.5201 33.86 48.5501 34.14 48.5901 34.41C48.6801 35.02 48.9401 35.58 49.1901 36.14C49.3301 36.45 49.5001 36.76 49.6701 37.11C49.7401 37.02 49.7801 36.97 49.8201 36.9C50.8301 35.23 51.8001 33.54 52.7201 31.82C53.2701 30.78 53.8001 29.74 54.2501 28.65C54.4601 28.13 54.5401 27.57 54.6901 27.03C54.8101 26.6 54.9401 26.17 55.0801 25.74C55.1501 25.52 55.2901 25.38 55.4901 25.28C55.8201 25.12 56.1601 25.05 56.5201 24.99C57.1501 24.89 57.7801 24.83 58.4101 24.87C58.7801 24.89 59.1401 24.93 59.4801 25.1C59.5901 25.16 59.6901 25.22 59.7801 25.31C59.9501 25.48 60.0201 25.67 59.9301 25.92C59.7601 26.4 59.6001 26.89 59.4501 27.37C59.1401 28.36 58.9201 29.37 58.9901 30.41C59.0701 31.64 59.2401 32.85 59.8401 33.95C60.1301 34.49 60.3901 35.04 60.6701 35.59C60.7801 35.8 60.7801 35.8 60.9901 35.7C62.3201 35.07 63.7001 34.64 65.1501 34.39C66.5401 34.15 67.9301 34.1 69.3301 34.22C70.3801 34.31 71.4101 34.51 72.4101 34.85C74.0101 35.39 75.4301 36.24 76.6001 37.47C77.7001 38.63 78.4401 39.99 78.7001 41.58C78.8901 42.74 78.8001 43.88 78.2601 44.95C77.6301 46.19 76.6301 47.03 75.3701 47.57C75.1801 47.65 74.9801 47.67 74.7701 47.7C74.5901 47.72 74.4501 47.64 74.3901 47.5C74.3301 47.35 74.3601 47.23 74.5301 47.1C74.7101 46.96 74.9001 46.84 75.0901 46.72C75.6601 46.34 76.1501 45.88 76.5201 45.31C77.1901 44.3 77.3001 43.2 76.9601 42.06C76.5501 40.67 75.7001 39.6 74.5401 38.76C73.3601 37.91 72.0301 37.42 70.6101 37.12C69.7001 36.93 68.7801 36.84 67.8501 36.79C65.8701 36.68 63.9401 36.92 62.0701 37.59C61.6101 37.76 61.6101 37.76 61.7601 38.2C62.0301 38.96 62.2101 39.75 62.2601 40.56C62.3101 41.26 62.1701 41.94 61.8801 42.59C61.5001 43.45 60.9001 44.14 60.2201 44.77C58.9501 45.95 57.4201 46.66 55.7901 47.17C55.2701 47.33 54.7501 47.38 54.2301 47.17C53.5201 46.89 53.1501 46.35 53.0901 45.61C53.0001 44.57 53.2701 43.6 53.7001 42.67C54.1901 41.59 54.8801 40.64 55.6501 39.75C56.2101 39.11 56.8101 38.52 57.4701 37.98C57.6501 37.83 57.6501 37.83 57.5401 37.6C57.1901 36.86 56.8001 36.14 56.5101 35.38C56.1101 34.31 55.8501 33.19 55.6101 32.08C55.5801 31.93 55.5501 31.79 55.5201 31.62C55.4101 31.66 55.4001 31.74 55.3601 31.81C54.5001 33.52 53.5701 35.19 52.5801 36.82C52.0701 37.66 51.5401 38.48 50.9701 39.28C50.8301 39.47 50.8201 39.63 50.9201 39.84C51.3001 40.7 51.5801 41.6 51.6701 42.54C51.8801 44.68 51.1701 46.45 49.4401 47.78C48.7101 48.35 47.8901 48.77 47.0301 49.11C46.3301 49.39 45.6101 49.62 44.8601 49.73C44.1101 49.84 43.3601 49.91 42.6101 49.76C42.0701 49.65 41.6801 49.34 41.5501 48.78C41.4701 48.44 41.5801 48.13 41.7101 47.83C41.8201 47.57 41.9901 47.35 42.1501 47.13C42.8301 46.22 43.5701 45.37 44.3001 44.5C45.0301 43.62 45.7901 42.77 46.4701 41.85C46.7101 41.53 46.9301 41.2 47.1801 40.89C47.2901 40.74 47.3101 40.62 47.2201 40.44C46.9901 39.99 46.7801 39.52 46.5501 39.06C45.8101 37.63 45.4101 36.1 45.0701 34.54C45.0301 34.34 45.0201 34.14 44.9201 33.91C44.8201 34.15 44.7301 34.37 44.6501 34.58C43.3101 37.9 41.8501 41.16 40.1901 44.32C39.4801 45.68 38.7601 47.03 37.9901 48.35C37.4601 49.26 36.8001 50.09 35.8901 50.66C35.4201 50.95 34.9201 51.02 34.3901 50.87C33.9001 50.73 33.5601 50.4 33.3201 49.97C33.0301 49.44 32.9001 48.87 32.8301 48.28C32.7101 47.27 32.7401 46.26 32.8801 45.26C32.8901 45.15 32.8901 45.04 32.9001 44.91C32.7901 44.94 32.7901 45.03 32.7601 45.1C32.1001 46.69 31.4001 48.27 30.5801 49.79C30.3001 50.31 29.9801 50.81 29.5701 51.24C28.9201 51.91 28.1201 52.11 27.2201 52.02C26.4201 51.94 25.8301 51.54 25.3701 50.9C24.7601 50.06 24.3601 49.13 24.0501 48.15C23.6501 46.88 23.4301 45.59 23.4701 44.26C23.5001 43.29 23.6301 42.33 23.7901 41.37C23.9401 40.5 24.1501 39.65 24.4401 38.82C24.4501 38.78 24.4601 38.75 24.4901 38.65C22.9701 39.44 21.5401 40.31 20.1101 41.14C20.1101 41.24 20.1501 41.29 20.1801 41.36C20.6501 42.33 20.8801 43.36 21.0101 44.42C21.0801 45.01 21.1301 45.6 21.1101 46.19C21.0601 48.23 20.6601 50.18 19.7701 52.02C19.0101 53.58 17.9501 54.92 16.6401 56.06C15.2701 57.25 13.7301 58.13 12.0001 58.67C11.1201 58.94 10.2201 59.09 9.30009 59.16C8.22009 59.24 7.16009 59.1 6.11009 58.89C5.27009 58.72 4.66009 58.22 4.15009 57.56C3.44009 56.64 3.06009 55.58 2.97009 54.42C2.79009 52.09 3.51009 50.05 4.99009 48.27C6.15009 46.87 7.56009 45.73 9.04009 44.68C10.9601 43.32 13.0001 42.15 15.0901 41.08C15.3101 40.97 15.5301 40.87 15.7301 40.72C15.7201 40.59 15.6101 40.55 15.5401 40.49C14.4001 39.54 13.1701 38.71 11.9501 37.87C10.2901 36.72 8.62009 35.58 7.04009 34.31C5.73009 33.26 4.48009 32.14 3.38009 30.87C2.23009 29.54 1.28009 28.08 0.740089 26.39C0.620089 26.03 0.530091 25.66 0.460091 25.29C0.440091 25.18 0.440088 25.07 0.340088 24.98V23.82C0.470088 23.63 0.440095 23.41 0.480095 23.2C0.680095 22.06 1.05009 20.97 1.55009 19.92C2.56009 17.78 3.97009 15.93 5.58009 14.21C6.93009 12.77 8.42009 11.48 10.0001 10.29C12.2401 8.60004 14.6201 7.14003 17.1101 5.84003C19.0301 4.84003 21.0001 3.94004 23.0101 3.13004C24.6201 2.49004 26.2501 1.88002 27.9201 1.43002C30.0201 0.870023 32.1601 0.500035 34.3401 0.380035C34.4001 0.380035 34.4701 0.390038 34.5001 0.320038H37.3201L37.2401 0.280029ZM17.5901 42.3C17.4901 42.28 17.4401 42.33 17.3901 42.36C15.5701 43.42 13.8001 44.54 12.1401 45.84C11.1901 46.58 10.2601 47.34 9.49009 48.29C8.66009 49.32 8.04009 50.46 7.78009 51.77C7.66009 52.38 7.63009 52.98 7.82009 53.58C7.99009 54.13 8.36009 54.48 8.92009 54.62C9.13009 54.67 9.34009 54.71 9.55009 54.71C10.5001 54.72 11.3801 54.45 12.2301 54.05C13.5001 53.46 14.5701 52.61 15.4801 51.55C16.4601 50.41 17.2001 49.14 17.6101 47.7C17.9201 46.6 18.0401 45.48 17.9401 44.34C17.8801 43.65 17.7701 42.97 17.5901 42.29V42.3ZM27.3801 44.06C27.3901 44.32 27.4001 44.69 27.4401 45.06C27.4901 45.54 27.5601 46.01 27.7301 46.47C27.7901 46.64 27.8601 46.81 27.9701 46.96C28.1901 47.26 28.4401 47.29 28.7201 47.04C28.9301 46.85 29.0901 46.63 29.2301 46.4C29.6501 45.7 29.9901 44.95 30.3101 44.2C30.7701 43.11 31.1801 42 31.6101 40.9C32.3501 39.03 33.0101 37.13 33.5101 35.18C33.6301 34.7 33.7601 34.21 33.7501 33.7C33.7501 33.32 33.5701 33.15 33.1801 33.15C32.9201 33.15 32.6801 33.25 32.4501 33.36C31.7101 33.71 31.1201 34.24 30.6201 34.86C29.8301 35.86 29.2301 36.97 28.6901 38.12C27.8201 39.97 27.4201 41.92 27.3801 44.06ZM58.7501 39.24C58.6901 39.28 58.6701 39.29 58.6401 39.31C57.3101 40.5 56.3801 41.95 55.8301 43.65C55.7401 43.93 55.6501 44.22 55.6901 44.52C55.7101 44.72 55.7701 44.76 55.9701 44.69C56.2801 44.58 56.5701 44.43 56.8501 44.27C57.7001 43.78 58.3301 43.1 58.6901 42.17C58.8701 41.7 58.9401 41.2 58.9801 40.71C59.0201 40.22 58.9201 39.74 58.7501 39.24ZM48.3801 42.76C48.2801 42.8 48.2501 42.86 48.2101 42.9C47.6701 43.6 47.1301 44.31 46.5401 44.98C45.9401 45.67 45.3201 46.35 44.6901 47.02C44.6101 47.11 44.4601 47.2 44.5401 47.32C44.6201 47.44 44.7801 47.37 44.9001 47.32C44.9301 47.32 44.9601 47.3 44.9901 47.29C45.2801 47.19 45.5301 47 45.7801 46.83C46.5201 46.31 47.1901 45.72 47.7001 44.96C48.1401 44.3 48.3801 43.58 48.3801 42.76Z" fill="#1D1D1B"/>
</svg>
