<svg width="75" height="113" viewBox="0 0 75 113" fill="none" xmlns="http://www.w3.org/2000/svg">
<path d="M65.71 1H9.32C4.72499 1 1 4.725 1 9.32001V65.71C1 70.305 4.72499 74.03 9.32 74.03H65.71C70.305 74.03 74.03 70.305 74.03 65.71V9.32001C74.03 4.725 70.305 1 65.71 1Z" stroke="#1D1D1B" stroke-miterlimit="10"/>
<path d="M10.9205 111.915V102.915H11.892V103.954H12.0114C12.0852 103.841 12.1875 103.696 12.3182 103.52C12.4517 103.341 12.642 103.182 12.8892 103.042C13.1392 102.9 13.4773 102.829 13.9034 102.829C14.4545 102.829 14.9403 102.967 15.3608 103.243C15.7813 103.518 16.1094 103.909 16.3452 104.415C16.581 104.92 16.6989 105.517 16.6989 106.204C16.6989 106.897 16.581 107.498 16.3452 108.007C16.1094 108.513 15.7827 108.905 15.3651 109.183C14.9474 109.459 14.4659 109.596 13.9205 109.596C13.5 109.596 13.1634 109.527 12.9105 109.388C12.6577 109.245 12.4631 109.085 12.3267 108.906C12.1903 108.724 12.0852 108.574 12.0114 108.454H11.9261V111.915H10.9205ZM11.9091 106.187C11.9091 106.682 11.9815 107.118 12.1264 107.495C12.2713 107.87 12.483 108.165 12.7614 108.378C13.0398 108.588 13.3807 108.693 13.7841 108.693C14.2045 108.693 14.5554 108.582 14.8366 108.361C15.1207 108.136 15.3338 107.835 15.4759 107.457C15.6207 107.076 15.6932 106.653 15.6932 106.187C15.6932 105.727 15.6222 105.312 15.4801 104.943C15.3409 104.571 15.1293 104.277 14.8452 104.061C14.5639 103.842 14.2102 103.733 13.7841 103.733C13.375 103.733 13.0313 103.836 12.7528 104.044C12.4744 104.248 12.2642 104.535 12.1222 104.905C11.9801 105.271 11.9091 105.699 11.9091 106.187ZM18.233 109.46V102.915H19.2045V103.903H19.2727C19.392 103.579 19.608 103.316 19.9205 103.115C20.233 102.913 20.5852 102.812 20.9773 102.812C21.0511 102.812 21.1435 102.814 21.2543 102.816C21.3651 102.819 21.4489 102.824 21.5057 102.829V103.852C21.4716 103.843 21.3935 103.831 21.2713 103.814C21.152 103.794 21.0256 103.784 20.892 103.784C20.5739 103.784 20.2898 103.851 20.0398 103.984C19.7926 104.115 19.5966 104.297 19.4517 104.53C19.3097 104.76 19.2386 105.022 19.2386 105.318V109.46H18.233ZM25.1577 109.596C24.5668 109.596 24.0483 109.456 23.6023 109.174C23.1591 108.893 22.8125 108.5 22.5625 107.994C22.3153 107.488 22.1918 106.897 22.1918 106.221C22.1918 105.54 22.3153 104.944 22.5625 104.436C22.8125 103.927 23.1591 103.532 23.6023 103.251C24.0483 102.97 24.5668 102.829 25.1577 102.829C25.7486 102.829 26.2656 102.97 26.7088 103.251C27.1548 103.532 27.5014 103.927 27.7486 104.436C27.9986 104.944 28.1236 105.54 28.1236 106.221C28.1236 106.897 27.9986 107.488 27.7486 107.994C27.5014 108.5 27.1548 108.893 26.7088 109.174C26.2656 109.456 25.7486 109.596 25.1577 109.596ZM25.1577 108.693C25.6065 108.693 25.9759 108.578 26.2656 108.348C26.5554 108.118 26.7699 107.815 26.9091 107.44C27.0483 107.065 27.1179 106.659 27.1179 106.221C27.1179 105.784 27.0483 105.376 26.9091 104.998C26.7699 104.62 26.5554 104.315 26.2656 104.082C25.9759 103.849 25.6065 103.733 25.1577 103.733C24.7088 103.733 24.3395 103.849 24.0497 104.082C23.7599 104.315 23.5455 104.62 23.4062 104.998C23.267 105.376 23.1974 105.784 23.1974 106.221C23.1974 106.659 23.267 107.065 23.4062 107.44C23.5455 107.815 23.7599 108.118 24.0497 108.348C24.3395 108.578 24.7088 108.693 25.1577 108.693ZM32.3178 109.596C31.7042 109.596 31.1758 109.451 30.7326 109.162C30.2894 108.872 29.9485 108.473 29.7099 107.964C29.4712 107.456 29.3519 106.875 29.3519 106.221C29.3519 105.557 29.4741 104.97 29.7184 104.461C29.9656 103.95 30.3093 103.551 30.7496 103.264C31.1928 102.974 31.7099 102.829 32.3008 102.829C32.761 102.829 33.1758 102.915 33.5451 103.085C33.9144 103.255 34.217 103.494 34.4528 103.801C34.6886 104.108 34.8349 104.466 34.8917 104.875H33.886C33.8093 104.576 33.6388 104.312 33.3746 104.082C33.1133 103.849 32.761 103.733 32.3178 103.733C31.9258 103.733 31.582 103.835 31.2866 104.04C30.994 104.241 30.7653 104.527 30.6005 104.896C30.4386 105.263 30.3576 105.693 30.3576 106.187C30.3576 106.693 30.4371 107.133 30.5962 107.508C30.7582 107.883 30.9854 108.174 31.2781 108.382C31.5735 108.589 31.9201 108.693 32.3178 108.693C32.5792 108.693 32.8164 108.647 33.0295 108.557C33.2425 108.466 33.4229 108.335 33.5707 108.165C33.7184 107.994 33.8235 107.79 33.886 107.551H34.8917C34.8349 107.937 34.6942 108.285 34.4698 108.595C34.2482 108.902 33.9542 109.146 33.5877 109.328C33.2241 109.507 32.8008 109.596 32.3178 109.596ZM36.3619 109.46V102.915H37.3335V103.903H37.4016C37.521 103.579 37.7369 103.316 38.0494 103.115C38.3619 102.913 38.7141 102.812 39.1062 102.812C39.18 102.812 39.2724 102.814 39.3832 102.816C39.494 102.819 39.5778 102.824 39.6346 102.829V103.852C39.6005 103.843 39.5224 103.831 39.4002 103.814C39.2809 103.794 39.1545 103.784 39.021 103.784C38.7028 103.784 38.4187 103.851 38.1687 103.984C37.9215 104.115 37.7255 104.297 37.5806 104.53C37.4386 104.76 37.3675 105.022 37.3675 105.318V109.46H36.3619ZM43.3718 109.596C42.7411 109.596 42.1971 109.457 41.7397 109.179C41.2852 108.897 40.9343 108.505 40.6871 108.003C40.4428 107.497 40.3207 106.909 40.3207 106.238C40.3207 105.568 40.4428 104.977 40.6871 104.466C40.9343 103.951 41.2781 103.551 41.7184 103.264C42.1616 102.974 42.6786 102.829 43.2695 102.829C43.6104 102.829 43.9471 102.886 44.2795 103C44.6119 103.113 44.9144 103.298 45.1871 103.554C45.4599 103.807 45.6772 104.142 45.8391 104.559C46.0011 104.977 46.082 105.491 46.082 106.102V106.528H41.0366V105.659H45.0593C45.0593 105.29 44.9854 104.96 44.8377 104.67C44.6928 104.38 44.4854 104.152 44.2156 103.984C43.9485 103.816 43.6332 103.733 43.2695 103.733C42.869 103.733 42.5224 103.832 42.2298 104.031C41.94 104.227 41.717 104.483 41.5607 104.798C41.4045 105.113 41.3263 105.451 41.3263 105.812V106.392C41.3263 106.886 41.4116 107.305 41.582 107.649C41.7553 107.99 41.9954 108.25 42.3022 108.429C42.609 108.605 42.9656 108.693 43.3718 108.693C43.636 108.693 43.8746 108.656 44.0877 108.582C44.3036 108.505 44.4897 108.392 44.646 108.241C44.8022 108.088 44.9229 107.897 45.0082 107.67L45.9798 107.943C45.8775 108.272 45.7056 108.562 45.4641 108.812C45.2227 109.059 44.9244 109.253 44.5692 109.392C44.2141 109.528 43.815 109.596 43.3718 109.596ZM49.538 109.613C49.1232 109.613 48.7468 109.535 48.4087 109.379C48.0707 109.22 47.8022 108.991 47.6033 108.693C47.4045 108.392 47.305 108.028 47.305 107.602C47.305 107.227 47.3789 106.923 47.5266 106.69C47.6744 106.454 47.8718 106.27 48.119 106.136C48.3661 106.003 48.6388 105.903 48.9371 105.838C49.2383 105.77 49.5408 105.716 49.8448 105.676C50.2425 105.625 50.565 105.586 50.8121 105.561C51.0621 105.532 51.244 105.486 51.3576 105.42C51.4741 105.355 51.5323 105.241 51.5323 105.079V105.045C51.5323 104.625 51.4173 104.298 51.1871 104.065C50.9599 103.832 50.6147 103.716 50.1516 103.716C49.6715 103.716 49.2951 103.821 49.0224 104.031C48.7496 104.241 48.5579 104.466 48.4471 104.704L47.4925 104.363C47.663 103.966 47.8903 103.656 48.1744 103.434C48.4613 103.21 48.7738 103.054 49.1119 102.966C49.4528 102.875 49.788 102.829 50.1175 102.829C50.3278 102.829 50.5692 102.855 50.842 102.906C51.1175 102.954 51.3832 103.055 51.6388 103.209C51.8974 103.362 52.1119 103.593 52.2823 103.903C52.4528 104.213 52.538 104.628 52.538 105.147V109.46H51.5323V108.574H51.4812C51.413 108.716 51.2994 108.868 51.1403 109.03C50.9812 109.191 50.7695 109.329 50.5053 109.443C50.2411 109.557 49.9187 109.613 49.538 109.613ZM49.6914 108.71C50.0891 108.71 50.4244 108.632 50.6971 108.476C50.9727 108.319 51.18 108.118 51.3192 107.87C51.4613 107.623 51.5323 107.363 51.5323 107.091V106.17C51.4897 106.221 51.396 106.268 51.2511 106.311C51.109 106.351 50.9442 106.386 50.7567 106.417C50.5721 106.446 50.3917 106.471 50.2156 106.494C50.0423 106.514 49.9016 106.531 49.7937 106.545C49.5323 106.579 49.288 106.635 49.0607 106.711C48.8363 106.785 48.6545 106.897 48.5153 107.048C48.3789 107.196 48.3107 107.397 48.3107 107.653C48.3107 108.003 48.44 108.267 48.6985 108.446C48.9599 108.622 49.2908 108.71 49.6914 108.71ZM57.2202 102.915V103.767H53.8281V102.915H57.2202ZM54.8168 101.346H55.8224V107.585C55.8224 107.869 55.8636 108.082 55.946 108.224C56.0313 108.363 56.1392 108.457 56.2699 108.505C56.4034 108.551 56.544 108.574 56.6918 108.574C56.8026 108.574 56.8935 108.568 56.9645 108.557C57.0355 108.542 57.0923 108.531 57.1349 108.522L57.3395 109.426C57.2713 109.451 57.1761 109.477 57.054 109.503C56.9318 109.531 56.777 109.545 56.5895 109.545C56.3054 109.545 56.027 109.484 55.7543 109.362C55.4844 109.24 55.2599 109.054 55.081 108.804C54.9048 108.554 54.8168 108.238 54.8168 107.858V101.346ZM61.407 109.596C60.7763 109.596 60.2322 109.457 59.7749 109.179C59.3203 108.897 58.9695 108.505 58.7223 108.003C58.478 107.497 58.3558 106.909 58.3558 106.238C58.3558 105.568 58.478 104.977 58.7223 104.466C58.9695 103.951 59.3132 103.551 59.7536 103.264C60.1967 102.974 60.7138 102.829 61.3047 102.829C61.6456 102.829 61.9822 102.886 62.3146 103C62.647 103.113 62.9496 103.298 63.2223 103.554C63.495 103.807 63.7124 104.142 63.8743 104.559C64.0362 104.977 64.1172 105.491 64.1172 106.102V106.528H59.0717V105.659H63.0945C63.0945 105.29 63.0206 104.96 62.8729 104.67C62.728 104.38 62.5206 104.152 62.2507 103.984C61.9837 103.816 61.6683 103.733 61.3047 103.733C60.9041 103.733 60.5575 103.832 60.2649 104.031C59.9751 104.227 59.7521 104.483 59.5959 104.798C59.4396 105.113 59.3615 105.451 59.3615 105.812V106.392C59.3615 106.886 59.4467 107.305 59.6172 107.649C59.7905 107.99 60.0305 108.25 60.3374 108.429C60.6442 108.605 61.0007 108.693 61.407 108.693C61.6712 108.693 61.9098 108.656 62.1229 108.582C62.3388 108.505 62.5249 108.392 62.6811 108.241C62.8374 108.088 62.9581 107.897 63.0433 107.67L64.0149 107.943C63.9126 108.272 63.7408 108.562 63.4993 108.812C63.2578 109.059 62.9595 109.253 62.6044 109.392C62.2493 109.528 61.8501 109.596 61.407 109.596Z" fill="#1D1D1B"/>
<path d="M68.3099 8.83008C70.0699 17.5001 68.4399 25.4101 62.9599 32.3901C57.2999 39.6001 49.7999 44.2201 41.1899 46.9901C36.0599 48.6401 30.7499 49.7301 25.5399 51.1301C24.1199 51.5101 22.7199 52.0301 21.3599 52.6001C15.5899 55.0301 11.2199 58.7701 9.87988 65.2601C10.5299 49.8701 17.9499 38.4501 33.4699 33.5701C39.7499 31.6001 46.0699 29.6901 52.1899 27.2901C55.3099 26.0701 58.1999 24.0501 60.8799 21.9901C65.1599 18.7201 67.6799 14.2701 68.2799 8.82007L68.3099 8.83008Z" fill="#1D1D1B"/>
</svg>
