<svg width="75" height="75" viewBox="0 0 75 75" fill="none" xmlns="http://www.w3.org/2000/svg">
<path d="M65.3799 0.969971H8.9899C4.39489 0.969971 0.669922 4.69496 0.669922 9.28997V65.68C0.669922 70.275 4.39489 74 8.9899 74H65.3799C69.9749 74 73.6999 70.275 73.6999 65.68V9.28997C73.6999 4.69496 69.9749 0.969971 65.3799 0.969971Z" stroke="#1D1D1B" stroke-miterlimit="10"/>
<path d="M66.3099 8.79992C68.0699 17.4699 66.4399 25.3799 60.9599 32.3599C55.2999 39.5699 47.7999 44.1899 39.1899 46.9599C34.0599 48.6099 28.7499 49.6999 23.5399 51.0999C22.1199 51.4799 20.7199 51.9999 19.3599 52.5699C13.5899 54.9999 9.21988 58.7399 7.87988 65.2299C8.52988 49.8399 15.9499 38.4199 31.4699 33.5399C37.7499 31.5699 44.0699 29.6599 50.1899 27.2599C53.3099 26.0399 56.1999 24.0199 58.8799 21.9599C63.1599 18.6899 65.6799 14.2399 66.2799 8.78992L66.3099 8.79992Z" fill="#1D1D1B"/>
</svg>
