<svg width="60" height="60" viewBox="0 0 60 60" fill="none" xmlns="http://www.w3.org/2000/svg">
<path d="M0.360107 44.31C0.360107 34.5 0.360107 24.68 0.360107 14.87C0.460107 14.83 0.560107 14.79 0.660107 14.75C2.43011 13.87 4.20011 12.98 5.97011 12.09C6.17011 11.99 6.30011 11.98 6.49011 12.13C11.2501 15.85 16.0201 19.56 20.7901 23.27C20.9101 23.36 21.0401 23.45 21.1901 23.57C21.3001 23.45 21.3801 23.34 21.4801 23.24C29.0801 15.63 36.6901 8.03 44.2801 0.420004C44.4701 0.230004 44.6201 0.199979 44.8601 0.299979C48.8201 1.88998 52.7901 3.47999 56.7501 5.05999C57.5801 5.38999 58.4001 5.71998 59.2301 6.04998V53.11C59.1301 53.15 59.0301 53.2 58.9301 53.24C54.2601 55.11 49.5801 56.98 44.9101 58.85C44.8001 58.9 44.6901 58.97 44.5901 59.03H44.5301C44.4801 58.97 44.4301 58.91 44.3801 58.85C36.7201 51.18 29.0501 43.52 21.3901 35.85C21.3201 35.78 21.2401 35.71 21.1601 35.63C21.0301 35.73 20.9201 35.81 20.8101 35.9C16.0401 39.62 11.2601 43.33 6.49011 47.05C6.32011 47.18 6.19011 47.21 6.00011 47.11C4.94011 46.57 3.87011 46.03 2.80011 45.5C1.99011 45.1 1.18011 44.71 0.380107 44.31H0.360107ZM44.5201 41.71V17.46C39.3001 21.52 34.1301 25.54 28.9301 29.58C34.1401 33.63 39.3101 37.65 44.5201 41.7V41.71ZM6.26011 20.82V38.35C9.19011 35.42 12.1201 32.49 15.0101 29.59C12.1101 26.69 9.19011 23.76 6.26011 20.82Z" fill="#1D1D1B"/>
</svg>
