<svg width="74" height="74" viewBox="0 0 74 74" fill="none" xmlns="http://www.w3.org/2000/svg">
<path d="M51.7499 11.91C56.1399 11.13 60.5399 10.38 64.9299 9.55002C66.9199 9.17002 68.9299 8.94002 70.8899 8.44002C71.4599 8.30002 72.0899 8.27001 72.6599 8.47001C73.6599 8.84001 74.0799 10.12 73.5199 11.17C72.4699 13.13 71.3799 15.06 70.3099 17C69.1699 19.09 68.0399 21.18 66.8499 23.24C65.6699 25.3 64.5099 27.38 63.3199 29.43C61.0599 33.33 58.9299 37.3 56.7399 41.23C54.3499 45.52 51.9499 49.81 49.5499 54.1C46.1399 60.2 42.7299 66.3 39.3099 72.39C38.9099 73.1 38.2899 73.64 37.4799 73.6C36.7299 73.56 36.1199 73.08 35.7199 72.38C30.9299 63.94 26.1599 55.49 21.3299 47.08C19.0099 43.03 16.7399 38.95 14.3899 34.91C10.5499 28.33 6.90992 21.64 3.10992 15.04C2.30992 13.64 1.42992 12.29 0.739923 10.83C0.259923 9.81001 1.06993 8.45001 2.18993 8.37001C3.18993 8.30001 4.15994 8.56001 5.12994 8.72001C7.62994 9.13001 10.1099 9.67001 12.6099 10.12C16.0899 10.74 19.5699 11.32 23.0499 11.94C24.3599 12.18 25.6699 12.44 26.9999 12.55C26.9999 12.75 27.0499 12.95 27.0199 13.14C26.7199 14.94 26.7399 16.77 26.6199 18.59C26.5299 20.02 26.4399 21.46 26.3999 22.9C26.3699 23.81 26.3299 24.73 26.2699 25.64C26.1399 27.78 25.9399 29.92 25.8399 32.06C25.7699 33.42 26.2299 33.72 27.5499 33.4C29.6499 32.89 31.7499 32.39 33.8599 31.9C34.6799 31.71 35.1199 32.09 35.1199 32.91C35.1199 33.19 35.0199 33.44 34.9799 33.7C34.4499 36.9 33.7099 40.06 33.0799 43.24C32.9399 43.92 33.5799 44.52 34.2699 44.33C35.4899 43.98 36.6999 43.6 37.9199 43.26C38.4499 43.11 39.0299 42.86 39.5399 43.28C40.1299 43.76 39.7899 44.34 39.6099 44.89C39.6099 44.91 39.6099 44.94 39.6099 44.96C38.9299 48.33 38.2599 51.69 37.5699 55.05C37.2199 56.75 36.8299 58.43 36.4799 60.13C36.3799 60.61 36.5399 61.07 36.9599 61.29C37.3399 61.48 37.7699 61.41 38.0999 61.03C38.3399 60.75 38.5599 60.47 38.7299 60.13C43.1099 51.4 47.4999 42.67 51.8799 33.95C53.6999 30.33 55.5199 26.7 57.3299 23.07C57.9599 21.81 58.5899 20.55 59.2199 19.28C59.4199 18.88 59.4799 18.43 59.2399 18.07C58.9899 17.7 58.5799 17.73 58.1299 17.78C55.8599 18.05 53.6499 18.64 51.3999 19.02C50.1599 19.23 49.6599 18.67 50.0399 17.44C50.2099 16.88 50.3399 16.31 50.5399 15.77C50.9999 14.5 51.1399 13.12 51.7599 11.9L51.7499 11.91Z" fill="#1D1D1B"/>
<path d="M37.9199 58.1501C38.1299 57.1901 38.3399 56.2401 38.5399 55.2801C39.0399 52.8201 39.5399 50.3701 40.0299 47.9101L40.5899 45.1201L40.6199 45.0301C40.7999 44.5401 41.2199 43.4001 40.1599 42.5301C39.7899 42.2301 39.3599 42.0801 38.8799 42.0801C38.4799 42.0801 38.1099 42.1901 37.8199 42.2801L37.6399 42.3301C36.9599 42.5201 36.2899 42.7201 35.6199 42.9201C35.0699 43.0801 34.5299 43.2501 33.9799 43.4001C34.2499 42.4001 34.4799 41.3401 34.6999 40.2801C35.1399 38.2001 35.5899 36.0501 35.9499 33.9001C35.9599 33.8301 35.9799 33.7601 35.9899 33.7001C36.0399 33.5001 36.0999 33.2501 36.0999 32.9501C36.0999 32.1301 35.7999 31.6601 35.5399 31.4001C35.3099 31.1701 34.8899 30.8901 34.2299 30.8901C34.0299 30.8901 33.8299 30.9201 33.6099 30.9701C31.4999 31.4601 29.3999 31.9601 27.2899 32.4701C27.0699 32.5201 26.9199 32.5501 26.8199 32.5601C26.8199 32.4701 26.8099 32.3401 26.8199 32.1601C26.8799 30.8901 26.9699 29.6201 27.0699 28.3601C27.1299 27.4901 27.1999 26.6201 27.2499 25.7501C27.3099 24.8301 27.3499 23.9001 27.3799 22.9801C27.4199 21.6401 27.4999 20.3001 27.5999 18.7101C27.6399 18.1601 27.6599 17.6001 27.6799 17.0401C27.7299 15.7601 27.7799 14.5601 27.9799 13.3601C28.0199 13.0901 27.9999 12.8601 27.9799 12.6901V12.5601C27.9899 11.7601 28.0599 10.8601 28.1299 9.98009C28.2199 8.83009 28.3099 7.64009 28.3099 6.44009C28.3099 6.32009 28.3199 6.26009 28.3299 6.23009C28.3499 6.23009 28.4599 6.18009 28.7199 6.14009C29.9999 5.90009 31.2799 5.67009 32.5599 5.44009C34.8299 5.03009 37.1099 4.61009 39.3699 4.17009C42.5699 3.55009 45.7699 2.9101 48.9699 2.2701L53.1299 1.44009C53.3199 1.40009 53.4199 1.38009 53.5299 1.36009C53.5799 1.36009 53.6399 1.35009 53.6899 1.34009C53.6899 1.37009 53.6699 1.4201 53.6599 1.4601C53.5199 1.9401 53.3699 2.4201 53.2199 2.9101C52.9299 3.8501 52.6299 4.83009 52.3899 5.81009C52.1999 6.58009 51.9699 7.33009 51.7199 8.12009C51.3699 9.24009 50.9999 10.4101 50.7899 11.6301C50.4099 12.4201 50.2099 13.2201 50.0099 14.0101C49.8799 14.5201 49.7599 15.0101 49.5899 15.4701C49.4599 15.8201 49.3599 16.1901 49.2599 16.5501C49.1999 16.7601 49.1399 16.9701 49.0799 17.1801C48.7999 18.0801 48.8599 18.8101 49.2599 19.3601C49.5099 19.7001 49.9999 20.1101 50.9199 20.1101C51.1099 20.1101 51.3299 20.0901 51.5599 20.0501C52.4499 19.9001 53.3299 19.7201 54.2099 19.5301C55.5299 19.2601 56.8999 18.9701 58.2499 18.8101C58.2899 18.8101 58.3199 18.8101 58.3599 18.8001C58.3599 18.8201 58.3399 18.8501 58.3299 18.8701C57.7099 20.1301 57.0799 21.3901 56.4399 22.6501L55.2499 25.0201C53.8299 27.8601 52.4099 30.6901 50.9799 33.5301C50.9799 33.5301 40.7099 53.9701 37.8299 59.7201C37.7399 59.8901 37.6299 60.0601 37.4699 60.2501C37.6199 59.5501 37.7699 58.8601 37.9199 58.1701V58.1501Z" fill="#1D1D1B"/>
<path d="M52.2699 2.60005C51.9799 3.55005 51.6699 4.54005 51.4299 5.55005C51.2499 6.29005 51.0199 7.02004 50.7799 7.79004C50.4299 8.91004 50.0599 10.06 49.8399 11.3C49.4599 12.14 49.2399 12.9801 49.0499 13.7401C48.9299 14.2301 48.8099 14.69 48.6599 15.11C48.5099 15.51 48.4099 15.9001 48.3099 16.2701C48.2499 16.4701 48.1999 16.67 48.1399 16.87C47.6599 18.39 48.0599 19.38 48.4699 19.94C48.7899 20.37 49.5299 21.09 50.9299 21.09C51.1899 21.09 51.4599 21.0701 51.7399 21.0201C52.6499 20.8601 53.5499 20.68 54.4299 20.5C55.1799 20.35 55.8999 20.2001 56.6199 20.0701C56.2699 20.7801 55.9099 21.49 55.5499 22.2L54.6699 23.9601C53.1499 27.0001 51.6299 30.0401 50.0999 33.0701L45.9099 41.41C43.9399 45.33 41.9699 49.24 40.0099 53.16C40.3399 51.52 40.6699 49.87 40.9999 48.23L41.5699 45.39C41.5699 45.39 41.5699 45.38 41.5699 45.37C42.1399 43.84 41.8799 42.63 40.8099 41.75C40.2699 41.3 39.5999 41.0701 38.8899 41.0701C38.3399 41.0701 37.8799 41.21 37.5399 41.31L37.3799 41.36C36.7099 41.55 36.0499 41.75 35.3799 41.94C35.4799 41.46 35.5799 40.98 35.6799 40.5C36.1199 38.4 36.5799 36.23 36.9399 34.05C36.9399 34 36.9599 33.96 36.9699 33.91C37.0199 33.69 37.0999 33.35 37.0999 32.93C37.0999 31.77 36.6399 31.06 36.2499 30.67C35.7299 30.15 35.0099 29.86 34.2299 29.86C33.9599 29.86 33.6699 29.8901 33.3899 29.9601C31.5899 30.3801 29.7399 30.8101 27.8799 31.2701C27.9399 30.3101 28.0099 29.34 28.0799 28.39C28.1399 27.52 28.2099 26.6501 28.2599 25.7701C28.3199 24.7301 28.3699 23.82 28.3899 22.97C28.4299 21.5 28.5299 20.01 28.6099 18.73C28.6499 18.17 28.6699 17.61 28.6899 17.05C28.7399 15.8 28.7899 14.62 28.9799 13.48C29.0399 13.09 29.0099 12.75 28.9899 12.55V12.5201C29.0099 11.7001 29.0799 10.8801 29.1399 10.0201C29.2199 9.05005 29.2899 8.05004 29.3199 7.01004C30.4799 6.80004 31.6299 6.59005 32.7899 6.38005C35.0099 5.98005 37.3099 5.56004 39.5799 5.12004C42.7899 4.50004 46.0399 3.85005 49.1799 3.22005C50.2099 3.01005 51.2399 2.81005 52.2599 2.60005M53.7299 0.310043C53.6199 0.310043 53.5099 0.310042 53.3799 0.340042C53.2299 0.360042 53.0899 0.390044 52.9399 0.420044C48.3599 1.33004 43.7799 2.27004 39.1899 3.15004C35.6499 3.83004 32.0899 4.46004 28.5499 5.12004C27.6599 5.29004 27.3199 5.60005 27.3299 6.41005C27.3299 8.47005 27.0499 10.5101 26.9899 12.5701C26.9899 12.7701 27.0399 12.97 27.0099 13.16C26.7099 14.96 26.7299 16.79 26.6099 18.61C26.5199 20.04 26.4299 21.48 26.3899 22.92C26.3599 23.83 26.3199 24.75 26.2599 25.66C26.1299 27.8 25.9299 29.94 25.8299 32.08C25.7799 33.11 26.0299 33.53 26.7299 33.53C26.9499 33.53 27.2199 33.49 27.5299 33.41C29.6299 32.9 31.7299 32.4 33.8399 31.91C33.9799 31.88 34.1099 31.86 34.2299 31.86C34.7999 31.86 35.0999 32.24 35.0999 32.92C35.0999 33.2 34.9999 33.4501 34.9599 33.7101C34.4299 36.9101 33.6899 40.07 33.0599 43.25C32.9399 43.84 33.4099 44.37 33.9899 44.37C34.0799 44.37 34.1699 44.36 34.2599 44.33C35.4799 43.98 36.6899 43.6 37.9099 43.26C38.2299 43.17 38.5599 43.05 38.8799 43.05C39.0999 43.05 39.3199 43.11 39.5299 43.28C40.1199 43.76 39.7799 44.34 39.5999 44.89C39.5999 44.91 39.5999 44.9401 39.5999 44.9601C38.9199 48.3301 38.2499 51.69 37.5599 55.05C37.2099 56.75 36.8199 58.4301 36.4699 60.1301C36.3699 60.6101 36.5299 61.07 36.9499 61.29C37.0799 61.36 37.2199 61.39 37.3599 61.39C37.6199 61.39 37.8799 61.27 38.0899 61.03C38.3299 60.75 38.5499 60.4701 38.7199 60.1301C43.0999 51.4001 47.4899 42.67 51.8699 33.95C53.6899 30.33 55.5099 26.7001 57.3199 23.0701C57.9499 21.8101 58.5799 20.55 59.2099 19.28C59.4099 18.88 59.4699 18.4301 59.2299 18.0701C59.0599 17.8201 58.8099 17.75 58.5299 17.75C58.3999 17.75 58.2699 17.76 58.1299 17.78C55.8599 18.05 53.6499 18.6401 51.3999 19.0201C51.2299 19.0501 51.0699 19.06 50.9299 19.06C50.0399 19.06 49.7099 18.5 50.0499 17.43C50.2199 16.87 50.3499 16.3 50.5499 15.76C51.0099 14.49 51.1499 13.11 51.7699 11.89C52.0999 9.87005 52.8999 7.98005 53.3899 6.00005C53.7399 4.55005 54.2299 3.13005 54.6499 1.69005C54.9099 0.800048 54.5699 0.290039 53.7599 0.290039L53.7299 0.310043Z" fill="#FFBFD7"/>
</svg>
