<svg width="59" height="65" viewBox="0 0 59 65" fill="none" xmlns="http://www.w3.org/2000/svg">
<path d="M29.6499 0.160003C38.4999 0.160003 47.3399 0.160003 56.1899 0.160003C58.1699 0.160003 58.2099 0.159997 58.0399 2.06C57.0699 12.76 56.0799 23.47 55.0999 34.17C54.4299 41.48 53.6899 48.78 53.1399 56.1C53.0099 57.89 52.4899 58.63 50.6699 59.07C44.4499 60.58 38.2599 62.25 32.1199 64.07C29.9799 64.71 28.0599 64.37 26.0699 63.83C19.8299 62.16 13.5999 60.47 7.35992 58.81C6.57992 58.6 6.15992 58.26 6.08992 57.36C5.65992 52.16 5.15992 46.97 4.67992 41.78C3.87992 33.29 3.06992 24.8 2.27992 16.31C1.81992 11.42 1.41992 6.52999 0.929923 1.64999C0.809923 0.479993 1.14992 0.139993 2.32992 0.149993C11.4399 0.199993 20.5399 0.179997 29.6499 0.169997V0.160003ZM28.7799 19.23C28.4299 19.85 27.7899 19.95 27.2499 20.18C22.8799 22.04 18.5099 23.92 14.1199 25.73C13.2599 26.08 12.9099 26.52 13.0199 27.45C13.1699 28.78 13.3499 30.14 13.2699 31.47C13.1699 33.05 13.7199 33.45 15.2799 33.43C22.4699 33.34 29.6599 33.39 36.8499 33.4C37.4799 33.4 38.2599 33.18 38.1699 34.33C37.9799 36.75 37.8499 39.18 37.6799 41.6C37.6499 42.06 37.6099 42.58 37.0399 42.73C33.3699 43.7 29.9399 45.58 25.8199 44.04C21.8199 42.54 21.7099 42.85 21.3099 38.6C21.3099 38.5 21.2999 38.39 21.2899 38.29C21.2599 37.54 20.9299 37.19 20.1299 37.2C18.4199 37.24 16.7199 37.23 15.0099 37.2C14.2799 37.19 13.9699 37.44 14.0399 38.19C14.3199 41.12 14.6199 44.05 14.8099 46.99C14.8699 47.95 15.2799 48.31 16.1499 48.55C20.3299 49.72 24.4899 50.95 28.6399 52.19C29.3299 52.4 29.9599 52.31 30.6099 52.13C34.8399 50.95 39.0699 49.76 43.2999 48.61C44.0499 48.41 44.3899 48.08 44.4499 47.25C44.9399 40.81 45.4599 34.37 46.0299 27.94C46.1399 26.67 45.8499 26.23 44.4899 26.25C40.1999 26.34 35.8999 26.29 31.6099 26.27C31.1999 26.27 30.7199 26.45 30.1999 25.96C34.4999 24.15 38.6299 22.25 42.8899 20.68C45.7699 19.62 47.8099 18.3 47.1499 14.82C47.0999 14.53 47.2399 14.21 47.2799 13.9C47.4599 12.4867 46.8166 11.7867 45.3499 11.8C44.9399 11.8 44.5199 11.8 44.1099 11.8C33.6599 11.81 23.2099 11.84 12.7599 11.8C11.5099 11.8 11.0999 12.05 11.3999 13.36C11.7399 14.81 11.9399 16.31 12.0399 17.8C12.1199 18.92 12.6299 19.11 13.6199 19.09C18.1199 19.02 22.6199 19.02 27.1199 19.01C27.6499 19.01 28.2299 18.82 28.7599 19.24L28.7799 19.23Z" fill="#1D1D1B"/>
</svg>
