<svg width="74" height="105" viewBox="0 0 74 105" fill="none" xmlns="http://www.w3.org/2000/svg">
<path d="M33.2727 95.3544L30.8523 101.9H29.8295L27.4091 95.3544H28.5L30.3068 100.57H30.375L32.1818 95.3544H33.2727ZM34.6001 101.9V95.3544H35.6058V101.9H34.6001ZM35.1115 94.2635C34.9155 94.2635 34.7464 94.1968 34.6044 94.0633C34.4652 93.9297 34.3956 93.7692 34.3956 93.5817C34.3956 93.3942 34.4652 93.2337 34.6044 93.1002C34.7464 92.9667 34.9155 92.8999 35.1115 92.8999C35.3075 92.8999 35.4751 92.9667 35.6143 93.1002C35.7564 93.2337 35.8274 93.3942 35.8274 93.5817C35.8274 93.7692 35.7564 93.9297 35.6143 94.0633C35.4751 94.1968 35.3075 94.2635 35.1115 94.2635ZM40.2944 95.3544V96.2067H36.9023V95.3544H40.2944ZM37.891 93.7863H38.8967V100.025C38.8967 100.309 38.9379 100.522 39.0202 100.664C39.1055 100.803 39.2134 100.897 39.3441 100.945C39.4776 100.991 39.6183 101.014 39.766 101.014C39.8768 101.014 39.9677 101.008 40.0387 100.996C40.1097 100.982 40.1665 100.971 40.2092 100.962L40.4137 101.866C40.3455 101.891 40.2504 101.917 40.1282 101.943C40.006 101.971 39.8512 101.985 39.6637 101.985C39.3796 101.985 39.1012 101.924 38.8285 101.802C38.5586 101.68 38.3342 101.494 38.1552 101.244C37.979 100.994 37.891 100.678 37.891 100.298V93.7863ZM44.4812 102.036C43.8505 102.036 43.3065 101.897 42.8491 101.619C42.3945 101.337 42.0437 100.945 41.7965 100.443C41.5522 99.9368 41.43 99.3488 41.43 98.6783C41.43 98.0079 41.5522 97.4169 41.7965 96.9056C42.0437 96.3914 42.3874 95.9908 42.8278 95.7039C43.271 95.4141 43.788 95.2692 44.3789 95.2692C44.7198 95.2692 45.0565 95.326 45.3888 95.4397C45.7212 95.5533 46.0238 95.738 46.2965 95.9937C46.5692 96.2465 46.7866 96.5817 46.9485 96.9993C47.1104 97.4169 47.1914 97.9312 47.1914 98.5419V98.9681H42.146V98.0988H46.1687C46.1687 97.7294 46.0948 97.3999 45.9471 97.1101C45.8022 96.8204 45.5948 96.5917 45.3249 96.424C45.0579 96.2564 44.7425 96.1726 44.3789 96.1726C43.9783 96.1726 43.6317 96.2721 43.3391 96.4709C43.0494 96.6669 42.8263 96.9226 42.6701 97.238C42.5138 97.5533 42.4357 97.8914 42.4357 98.2522V98.8317C42.4357 99.326 42.521 99.7451 42.6914 100.089C42.8647 100.43 43.1048 100.69 43.4116 100.869C43.7184 101.045 44.0749 101.133 44.4812 101.133C44.7454 101.133 44.984 101.096 45.1971 101.022C45.413 100.945 45.5991 100.832 45.7553 100.681C45.9116 100.528 46.0323 100.337 46.1175 100.11L47.0891 100.383C46.9869 100.712 46.815 101.002 46.5735 101.252C46.332 101.499 46.0337 101.693 45.6786 101.832C45.3235 101.968 44.9244 102.036 44.4812 102.036Z" fill="#1D1D1B"/>
<path d="M51.151 11.6C55.541 10.82 59.941 10.0701 64.331 9.24006C66.321 8.86006 68.3311 8.63008 70.2911 8.13008C70.8611 7.99008 71.491 7.96008 72.061 8.16008C73.061 8.53008 73.4811 9.81006 72.9211 10.8601C71.8711 12.8201 70.781 14.7501 69.711 16.6901C68.571 18.7801 67.441 20.8701 66.251 22.9301C65.071 24.9901 63.9111 27.0701 62.7211 29.1201C60.4611 33.0201 58.3311 36.9901 56.1411 40.9201C53.7511 45.2101 51.3511 49.5001 48.9511 53.7901C45.5411 59.8901 42.131 65.9901 38.711 72.0801C38.311 72.7901 37.6911 73.3301 36.8811 73.2901C36.1311 73.2501 35.521 72.7701 35.121 72.0701C30.331 63.6301 25.5611 55.1801 20.7311 46.7701C18.4111 42.7201 16.141 38.64 13.791 34.6C9.95104 28.0201 6.31104 21.3301 2.51104 14.7301C1.71104 13.3301 0.831047 11.9801 0.141047 10.5201C-0.338953 9.50006 0.471044 8.14007 1.59104 8.06007C2.59104 7.99007 3.56105 8.25008 4.53105 8.41008C7.03105 8.82008 9.51104 9.36007 12.011 9.81007C15.491 10.4301 18.9711 11.0101 22.4511 11.6301C23.7611 11.8701 25.071 12.1301 26.401 12.2401C26.401 12.4401 26.4511 12.6401 26.4211 12.8301C26.1211 14.6301 26.141 16.4601 26.021 18.2801C25.931 19.7101 25.841 21.1501 25.801 22.5901C25.771 23.5001 25.7311 24.4201 25.6711 25.3301C25.5411 27.4701 25.341 29.6101 25.241 31.7501C25.171 33.1101 25.6311 33.4101 26.9511 33.0901C29.0511 32.5801 31.1511 32.0801 33.2611 31.5901C34.0811 31.4001 34.521 31.78 34.521 32.6C34.521 32.88 34.4211 33.1301 34.3811 33.3901C33.8511 36.5901 33.1111 39.7501 32.4811 42.9301C32.3411 43.6101 32.9811 44.2101 33.6711 44.0201C34.8911 43.6701 36.1011 43.2901 37.3211 42.9501C37.8511 42.8001 38.4311 42.5501 38.9411 42.9701C39.5311 43.4501 39.1911 44.0301 39.0111 44.5801C39.0111 44.6001 39.0111 44.6301 39.0111 44.6501C38.3311 48.0201 37.6611 51.3801 36.9711 54.7401C36.6211 56.4401 36.2311 58.12 35.8811 59.82C35.7811 60.3 35.941 60.7601 36.361 60.9801C36.741 61.1701 37.171 61.1001 37.501 60.7201C37.741 60.4401 37.9611 60.16 38.1311 59.82C42.5111 51.09 46.901 42.3601 51.281 33.6401C53.101 30.0201 54.9211 26.3901 56.7311 22.7601C57.3611 21.5001 57.991 20.2401 58.621 18.9701C58.821 18.5701 58.8811 18.1201 58.6411 17.7601C58.3911 17.3901 57.981 17.4201 57.531 17.4701C55.261 17.7401 53.051 18.3301 50.801 18.7101C49.561 18.9201 49.0611 18.3601 49.4411 17.1301C49.6111 16.5701 49.7411 16.0001 49.9411 15.4601C50.4011 14.1901 50.5411 12.8101 51.1611 11.5901L51.151 11.6Z" fill="#1D1D1B"/>
<path d="M36.871 59.92C37.021 59.21 37.181 58.5 37.331 57.79C37.541 56.85 37.741 55.91 37.941 54.96C38.441 52.53 38.931 50.11 39.411 47.68L39.991 44.8L40.021 44.71C40.201 44.22 40.621 43.08 39.571 42.21C39.201 41.91 38.771 41.75 38.291 41.75C37.891 41.75 37.521 41.86 37.231 41.95L37.051 42C36.381 42.19 35.701 42.39 35.031 42.59C34.481 42.75 33.941 42.92 33.391 43.08C33.661 42.08 33.891 41.02 34.111 39.96C34.551 37.88 35.001 35.73 35.361 33.58C35.371 33.51 35.391 33.45 35.401 33.38C35.451 33.18 35.511 32.93 35.511 32.63C35.511 31.81 35.211 31.34 34.951 31.08C34.721 30.85 34.301 30.57 33.641 30.57C33.451 30.57 33.241 30.6 33.021 30.65C30.911 31.14 28.811 31.64 26.701 32.15C26.481 32.2 26.331 32.23 26.231 32.24C26.231 32.15 26.221 32.02 26.231 31.84C26.291 30.57 26.381 29.3 26.481 28.03C26.541 27.16 26.611 26.29 26.661 25.43C26.721 24.51 26.761 23.58 26.791 22.66C26.831 21.22 26.921 19.75 27.011 18.39C27.051 17.84 27.071 17.29 27.091 16.73C27.141 15.45 27.191 14.24 27.391 13.04C27.431 12.78 27.411 12.54 27.391 12.37V12.24C27.401 11.44 27.471 10.53 27.541 9.66003C27.631 8.51003 27.721 7.32004 27.721 6.13004C27.721 6.01004 27.731 5.95001 27.741 5.92001C27.741 5.92001 27.871 5.87002 28.131 5.83002C29.441 5.59002 30.761 5.35002 32.071 5.11002C34.311 4.70002 36.551 4.29002 38.781 3.86002C41.991 3.24002 45.191 2.60001 48.401 1.95001L52.641 1.10001C52.741 1.08001 52.831 1.06002 52.931 1.05002C52.981 1.05002 53.041 1.04003 53.091 1.03003C53.091 1.06003 53.071 1.11002 53.061 1.15002C52.921 1.64002 52.771 2.12001 52.621 2.60001C52.331 3.54001 52.031 4.52003 51.791 5.50003C51.601 6.27003 51.371 7.01003 51.121 7.81003C50.761 8.94003 50.401 10.1 50.181 11.32C49.801 12.11 49.601 12.92 49.401 13.7C49.271 14.21 49.151 14.7 48.981 15.16C48.851 15.51 48.751 15.88 48.651 16.25C48.591 16.46 48.531 16.67 48.471 16.88C48.191 17.78 48.251 18.51 48.651 19.06C48.901 19.4 49.391 19.8 50.311 19.8C50.501 19.8 50.721 19.78 50.951 19.74C51.841 19.59 52.721 19.41 53.611 19.22C54.931 18.95 56.291 18.67 57.631 18.5C57.671 18.5 57.701 18.5 57.741 18.49C57.741 18.51 57.721 18.54 57.711 18.56C57.091 19.82 56.461 21.08 55.821 22.35C55.821 22.35 51.711 30.55 50.371 33.23L46.461 41.01C43.381 47.15 40.291 53.28 37.211 59.42C37.121 59.59 37.011 59.76 36.851 59.95L36.871 59.92Z" fill="#1D1D1B"/>
<path d="M51.671 2.28998C51.381 3.23998 51.071 4.22999 50.831 5.23999C50.651 5.97999 50.421 6.70998 50.181 7.47998C49.831 8.59998 49.461 9.74999 49.241 10.99C48.861 11.83 48.641 12.67 48.451 13.43C48.331 13.92 48.211 14.38 48.061 14.8C47.911 15.2 47.811 15.59 47.701 15.96C47.641 16.16 47.591 16.36 47.531 16.56C47.051 18.08 47.451 19.07 47.861 19.63C48.181 20.06 48.921 20.78 50.321 20.78C50.581 20.78 50.851 20.76 51.131 20.71C52.041 20.55 52.941 20.37 53.811 20.19C54.561 20.04 55.281 19.89 56.001 19.76C55.651 20.47 55.291 21.18 54.931 21.89L53.911 23.92C52.431 26.87 50.961 29.82 49.471 32.77L45.541 40.59C43.481 44.68 41.431 48.77 39.371 52.86C39.711 51.21 40.041 49.56 40.371 47.91L40.941 45.09C40.941 45.09 40.941 45.09 40.941 45.08C41.511 43.55 41.251 42.33 40.181 41.46C39.641 41.01 38.971 40.78 38.261 40.78C37.711 40.78 37.251 40.92 36.911 41.02L36.751 41.07C36.081 41.26 35.421 41.46 34.751 41.65C34.851 41.17 34.951 40.69 35.051 40.2C35.491 38.1 35.951 35.93 36.311 33.76C36.311 33.71 36.331 33.67 36.341 33.62C36.391 33.4 36.471 33.06 36.481 32.64C36.481 31.48 36.021 30.77 35.631 30.38C35.111 29.86 34.391 29.57 33.611 29.57C33.341 29.57 33.061 29.6 32.771 29.67C30.971 30.09 29.121 30.52 27.261 30.98C27.321 30.02 27.391 29.04 27.461 28.1C27.521 27.23 27.591 26.36 27.641 25.49C27.701 24.47 27.751 23.55 27.771 22.69C27.811 21.36 27.891 20.03 27.991 18.45C28.031 17.89 28.051 17.33 28.071 16.77C28.121 15.52 28.171 14.34 28.361 13.2C28.431 12.81 28.391 12.47 28.371 12.27V12.24C28.391 11.42 28.461 10.6 28.521 9.73999C28.601 8.76999 28.671 7.76998 28.701 6.72998C29.861 6.51998 31.011 6.31 32.171 6.09C34.391 5.69 36.691 5.26999 38.951 4.82999C42.151 4.20999 45.401 3.55999 48.531 2.92999C49.561 2.71999 50.601 2.52 51.631 2.31M53.101 0.019989C52.991 0.019989 52.881 0.0199878 52.751 0.0499878C52.601 0.0699878 52.461 0.100005 52.311 0.130005C47.731 1.04 43.151 1.97999 38.561 2.85999C35.021 3.53999 31.461 4.16999 27.921 4.82999C27.031 4.99999 26.691 5.31 26.701 6.12C26.701 8.18 26.421 10.22 26.361 12.28C26.361 12.48 26.411 12.68 26.381 12.87C26.081 14.67 26.101 16.5 25.981 18.32C25.891 19.75 25.801 21.19 25.761 22.63C25.731 23.54 25.691 24.46 25.631 25.37C25.501 27.51 25.301 29.65 25.201 31.79C25.151 32.82 25.401 33.24 26.101 33.24C26.321 33.24 26.591 33.2 26.901 33.12C29.001 32.61 31.101 32.11 33.211 31.62C33.351 31.59 33.481 31.57 33.601 31.57C34.171 31.57 34.471 31.95 34.471 32.63C34.471 32.91 34.371 33.16 34.331 33.42C33.801 36.62 33.061 39.78 32.431 42.96C32.311 43.55 32.781 44.08 33.361 44.08C33.451 44.08 33.541 44.07 33.631 44.04C34.851 43.69 36.061 43.31 37.281 42.97C37.601 42.88 37.931 42.76 38.251 42.76C38.471 42.76 38.691 42.82 38.901 42.99C39.491 43.47 39.151 44.05 38.971 44.6C38.971 44.62 38.971 44.65 38.971 44.67C38.291 48.04 37.621 51.4 36.931 54.76C36.581 56.46 36.191 58.14 35.841 59.84C35.741 60.32 35.891 60.78 36.321 61C36.451 61.07 36.591 61.1 36.731 61.1C36.991 61.1 37.251 60.98 37.461 60.74C37.701 60.46 37.921 60.18 38.091 59.84C42.471 51.11 46.861 42.38 51.241 33.66C53.061 30.04 54.881 26.41 56.691 22.78C57.321 21.52 57.951 20.26 58.581 18.99C58.781 18.59 58.841 18.14 58.601 17.78C58.431 17.53 58.181 17.46 57.901 17.46C57.771 17.46 57.641 17.47 57.501 17.49C55.231 17.76 53.021 18.35 50.771 18.73C50.601 18.76 50.441 18.77 50.301 18.77C49.411 18.77 49.081 18.21 49.421 17.14C49.591 16.58 49.721 16.01 49.921 15.47C50.381 14.2 50.521 12.82 51.141 11.6C51.471 9.57998 52.271 7.68999 52.761 5.70999C53.111 4.25999 53.601 2.83999 54.021 1.39999C54.281 0.509994 53.941 0 53.131 0L53.101 0.019989Z" fill="#FFBFD7"/>
</svg>
