<svg width="75" height="75" viewBox="0 0 75 75" fill="none" xmlns="http://www.w3.org/2000/svg">
<path d="M65.8599 1.46997H9.46991C4.8749 1.46997 1.1499 5.19496 1.1499 9.78997V66.18C1.1499 70.775 4.8749 74.5 9.46991 74.5H65.8599C70.4549 74.5 74.1799 70.775 74.1799 66.18V9.78997C74.1799 5.19496 70.4549 1.46997 65.8599 1.46997Z" stroke="#1D1D1B" stroke-miterlimit="10"/>
<path d="M24.1834 16.6454V49.9399H20.1516V16.6454H24.1834ZM41.1761 50.4602C39.0952 50.4602 37.2582 49.9345 35.665 48.8832C34.0718 47.8211 32.8254 46.3254 31.9258 44.3963C31.0263 42.4563 30.5765 40.164 30.5765 37.5195C30.5765 34.8967 31.0263 32.6207 31.9258 30.6915C32.8254 28.7624 34.0772 27.2721 35.6812 26.2208C37.2853 25.1695 39.1386 24.6439 41.2412 24.6439C42.8669 24.6439 44.1512 24.9148 45.0941 25.4567C46.0478 25.9878 46.774 26.5947 47.2725 27.2775C47.7819 27.9495 48.1775 28.5022 48.4593 28.9358H48.7845V16.6454H52.6211V49.9399H48.9145V46.1033H48.4593C48.1775 46.5585 47.7765 47.1329 47.2563 47.8265C46.7361 48.5093 45.9937 49.1217 45.0291 49.6636C44.0645 50.1946 42.7802 50.4602 41.1761 50.4602ZM41.6964 47.0137C43.2354 47.0137 44.5359 46.6127 45.5981 45.8106C46.6602 44.9978 47.4676 43.876 48.0204 42.4454C48.5731 41.004 48.8495 39.3403 48.8495 37.4545C48.8495 35.5903 48.5785 33.9592 48.0366 32.5611C47.4947 31.1522 46.6927 30.0575 45.6306 29.2772C44.5684 28.486 43.257 28.0904 41.6964 28.0904C40.0706 28.0904 38.7159 28.5077 37.6321 29.3422C36.5591 30.1659 35.7517 31.2876 35.2098 32.7074C34.6787 34.1164 34.4132 35.6987 34.4132 37.4545C34.4132 39.2319 34.6841 40.8468 35.226 42.2991C35.7788 43.7406 36.5916 44.8894 37.6646 45.7456C38.7484 46.591 40.0923 47.0137 41.6964 47.0137Z" fill="#1D1D1B"/>
</svg>
