<svg width="68" height="62" viewBox="0 0 68 62" fill="none" xmlns="http://www.w3.org/2000/svg">
<path d="M48.0299 61.0899H47.7699C47.4499 60.9499 47.1399 60.9499 46.8199 61.0899H46.5599C46.4299 60.9099 46.2399 61.0199 46.0799 60.9799C44.3199 60.5599 42.6699 59.8999 41.0899 59.0299C38.6199 57.6599 36.4499 55.8999 34.3999 53.9699C34.1399 53.7199 33.9899 53.7899 33.8099 53.9799C32.9899 54.8399 32.0599 55.5699 31.1399 56.3099C29.5599 57.5899 27.8499 58.6599 25.9999 59.5299C24.9999 60.0099 23.9799 60.4399 22.8999 60.6899C22.3399 60.8199 21.7699 60.9499 21.1999 61.0799H21.0299C20.5499 60.8899 20.0499 61.0399 19.5599 60.9899C17.9599 60.9099 16.6299 60.2599 15.6099 59.0499C14.6599 57.9199 13.9899 56.6299 13.7199 55.1499C13.5299 54.1499 13.3699 53.1499 13.2899 52.1299C13.1599 50.4699 13.2499 48.8099 13.4499 47.1799C13.6299 45.6999 13.8799 44.2099 14.2899 42.7599C14.3699 42.4899 14.2899 42.4099 14.0599 42.3399C12.4599 41.8799 10.8999 41.3099 9.37993 40.6199C6.70993 39.3999 4.21993 37.9099 2.23993 35.6799C1.56993 34.9199 1.03993 34.0699 0.619931 33.1499C0.209931 32.2599 0.239932 31.3199 0.179932 30.3799C0.179932 30.3199 0.179932 30.2599 0.179932 30.2099C0.429932 29.0699 0.849932 28.0099 1.53993 27.0699C2.87993 25.2499 4.65993 23.9399 6.59993 22.8299C8.89993 21.5099 11.3599 20.5799 13.8899 19.8199C14.4299 19.6599 14.4199 19.6599 14.2799 19.0999C14.1599 18.5999 14.0199 18.0999 13.9199 17.5999C13.7499 16.6799 13.6399 15.7499 13.5199 14.8199C13.1699 12.2099 13.1099 9.60993 13.6699 7.01993C13.9399 5.73993 14.3899 4.53993 15.1399 3.45993C15.7199 2.60993 16.4599 1.91994 17.3899 1.49994C18.9599 0.789939 20.5999 0.839953 22.2499 1.16995C24.0599 1.53995 25.7099 2.30993 27.2999 3.20993C29.6299 4.52993 31.7199 6.17995 33.6599 8.00995C33.9499 8.27995 34.1099 8.26995 34.3799 8.00995C35.1799 7.24995 35.9999 6.49995 36.8799 5.81995C39.9399 3.44995 43.1099 1.29995 47.1299 0.919953C48.5999 0.779953 49.9899 1.04993 51.2199 1.86993C52.5999 2.79993 53.3699 4.19995 53.9099 5.72995C54.1999 6.55995 54.3599 7.42995 54.5199 8.28995C54.5399 8.31995 54.5699 8.34994 54.5899 8.37994C54.6299 8.51994 54.5399 8.63995 54.5599 8.78995C54.6299 9.32995 54.6699 9.86995 54.6899 10.42C54.7299 11.71 54.6999 12.9999 54.5199 14.2799C54.3999 15.1699 54.3099 16.0599 54.1599 16.9399C54.0199 17.7599 53.8299 18.5799 53.6599 19.3999C53.6099 19.6299 53.6599 19.7399 53.9199 19.8099C55.2399 20.1999 56.5499 20.64 57.8199 21.17C60.8699 22.45 63.7699 23.9699 65.9799 26.5399C66.7699 27.4599 67.3799 28.48 67.6599 29.67C67.6999 29.85 67.6599 30.04 67.8399 30.17V31.4699C67.6299 31.8099 67.6799 32.2199 67.5699 32.5899C67.0399 34.3399 65.8599 35.6299 64.5499 36.8199C62.6999 38.4899 60.5299 39.65 58.2699 40.64C56.8999 41.24 55.4899 41.76 54.0499 42.17C53.9099 42.21 53.7099 42.2199 53.7899 42.4599C53.9999 43.0599 54.0699 43.6899 54.1999 44.3099C54.5099 45.7699 54.6399 47.2499 54.7799 48.7199C54.9199 50.2399 54.8099 51.7599 54.6199 53.2699C54.3299 55.5499 53.6999 57.6899 52.0199 59.3799C51.0999 60.2999 50.0099 60.8299 48.7199 60.9599C48.4899 60.9899 48.2499 60.8899 48.0399 61.0499L48.0299 61.0899ZM44.0199 20.7999C44.0199 20.7999 44.0599 20.7699 44.0299 20.7399C44.0199 20.7399 43.9999 20.7199 43.9999 20.7199C43.9799 20.7199 43.9699 20.7499 43.9499 20.7599C43.9699 20.7699 43.9899 20.7899 47.8199 27.5099C47.8899 27.4799 47.8999 27.4799 47.9099 27.4699C48.7399 25.6899 49.3699 23.8299 49.9799 21.9699C50.0399 21.7799 49.9499 21.7499 49.7999 21.7199C49.2799 21.6199 48.7699 21.5199 48.2499 21.3999C46.9799 21.1199 45.6799 21.0299 44.4199 20.7099C44.3099 20.6799 44.1199 20.7399 44.0399 20.8199C43.9699 20.8899 44.0999 21.0199 44.1599 21.1199C44.3399 21.4199 44.5299 21.6999 44.7099 21.9999C45.7699 23.8099 46.8299 25.6299 44.0199 20.7899V20.7999ZM25.4399 5.51993C25.4399 5.51993 25.3799 5.47993 25.3499 5.45993C25.0199 5.33993 24.7699 5.07993 24.4099 5.01993C24.3899 4.91993 24.3299 4.86992 24.2399 4.85992C24.0599 4.80992 23.8699 4.78993 23.7099 4.70993C22.4599 4.12993 21.1699 3.88995 19.7799 3.88995C18.2299 3.88995 17.1699 5.29995 16.8699 6.59995C16.8499 6.62995 16.8199 6.64993 16.7999 6.67993C16.4099 7.68993 16.2299 8.74995 16.2099 9.81995C16.1699 11.2799 16.1699 12.7499 16.3499 14.2099C16.5399 15.7199 16.8199 17.1999 17.1599 18.6799C17.2099 18.8899 17.2799 18.9599 17.5199 18.9099C18.2899 18.7399 19.0499 18.58 19.8299 18.45C21.0299 18.25 22.2299 18.0099 23.4499 17.8999C24.1399 17.8399 24.8399 17.76 25.5299 17.67C25.9999 17.61 26.3999 17.5099 26.6599 17.0399C26.8799 16.6399 27.1899 16.29 27.4599 15.92C28.5199 14.5 29.6299 13.1299 30.7899 11.7999C30.9499 11.7799 30.9999 11.6799 30.9999 11.5299C31.2699 11.2199 31.5299 10.8999 31.8099 10.5999C31.9399 10.4599 31.9099 10.3599 31.7899 10.2399C30.9199 9.36993 29.9499 8.61992 28.9899 7.85992C27.8799 6.97992 26.6999 6.18994 25.4499 5.52994L25.4399 5.51993ZM38.2599 41.7799C38.7299 41.8699 39.2399 41.6899 39.7499 41.7099C40.0699 41.7299 40.2499 41.5999 40.4199 41.3499C42.5599 38.0899 44.5099 34.7199 46.2099 31.2099C46.2999 31.0299 46.3099 30.8799 46.2099 30.6899C45.8499 30.0099 45.5199 29.3099 45.1599 28.6299C43.6999 25.8599 42.0999 23.1799 40.3599 20.5799C40.2699 20.4399 40.1699 20.3599 39.9899 20.3299C39.2399 20.2099 38.4799 20.2299 37.7199 20.1799C34.7099 19.9799 31.7099 20.0899 28.6999 20.2499C28.0999 20.2799 27.6699 20.4799 27.3299 21.0499C26.5799 22.2999 25.7699 23.4999 25.0299 24.7599C23.9599 26.5799 22.9599 28.4399 21.9699 30.3099C21.7299 30.7599 21.6799 31.1599 21.9599 31.6299C22.4899 32.5599 22.9499 33.5399 23.4699 34.4799C24.7099 36.7199 26.0599 38.8999 27.4299 41.0599C27.7599 41.5799 28.0599 41.9399 28.7799 41.7999C29.4399 41.6699 30.1099 41.8599 30.7799 41.8599C33.2599 41.8599 35.7399 41.9299 38.2699 41.7699L38.2599 41.7799ZM18.4599 30.9899C18.4199 30.8799 18.3999 30.7799 18.3599 30.6899C17.2099 28.0999 16.1199 25.4999 15.3099 22.7799C15.2299 22.4999 15.0899 22.4699 14.8299 22.5599C14.2599 22.7599 13.6699 22.9199 13.0999 23.1099C10.4999 23.9999 8.01993 25.1199 5.81993 26.8099C4.86993 27.5499 4.00993 28.3799 3.44993 29.4699C3.20993 29.9399 2.94993 30.4599 3.03993 30.9899C3.27993 32.4199 3.91993 33.6799 5.04993 34.5799C6.81993 36.0099 8.70993 37.2699 10.8199 38.1599C12.1099 38.6999 13.4099 39.1999 14.7699 39.5699C15.0699 39.6499 15.1699 39.5699 15.2599 39.2899C16.1299 36.5499 17.1599 33.8799 18.3499 31.2599C18.3899 31.1699 18.4199 31.0699 18.4499 30.9799L18.4599 30.9899ZM16.1599 50.6599C16.1599 51.8099 16.1599 52.9499 16.4399 54.0799C16.6599 54.9999 16.9099 55.8999 17.4299 56.6899C17.7599 57.1899 18.1399 57.6399 18.7299 57.8399C20.0099 58.2899 21.3099 58.2999 22.5799 57.8399C24.2399 57.2399 25.8299 56.4599 27.3199 55.4999C28.9699 54.4399 30.4899 53.2199 31.8799 51.8399C32.0699 51.6499 32.0399 51.5699 31.8799 51.3999C31.4799 50.9799 31.0999 50.5499 30.7199 50.1199C29.2099 48.3899 27.7899 46.5899 26.4599 44.7199C26.3699 44.5899 26.2799 44.4399 26.0899 44.4699C25.3699 44.5699 24.7099 44.1099 23.9899 44.2799C23.9199 44.2899 23.8399 44.21 23.7599 44.17C23.6899 44.14 23.6199 44.0599 23.5299 44.0999C22.8699 44.3099 22.2199 44.0799 21.5899 43.9999C20.1899 43.8199 18.8099 43.4899 17.4199 43.2099C17.1899 43.1599 17.0899 43.26 17.0499 43.45C16.5099 45.82 16.0899 48.2099 16.1399 50.6599H16.1599ZM36.1099 51.6099C36.7599 52.4099 37.5499 53.0799 38.3399 53.6899C39.3299 54.4499 40.3099 55.2399 41.3999 55.8699C42.5799 56.5499 43.7499 57.2199 45.0199 57.7199C45.7199 57.9899 46.4599 58.0999 47.1899 58.2099C47.9699 58.3299 48.7799 58.2499 49.4299 57.7799C50.4699 57.0299 51.1599 55.9699 51.4599 54.7199C51.7799 53.3999 51.8599 52.0399 51.9099 50.6799C51.9499 49.5999 51.8399 48.5299 51.7599 47.4599C51.6599 46.0499 51.2799 44.7099 51.0399 43.3299C50.9999 43.1099 50.8699 43.0499 50.6699 43.0899C49.2399 43.3699 47.8099 43.6799 46.3699 43.8999C45.0999 44.0899 43.8299 44.21 42.5599 44.39C42.2599 44.43 41.8999 44.2799 41.6499 44.6499C39.9699 47.0899 38.1699 49.4399 36.1199 51.5899L36.1099 51.6099ZM47.7999 3.81995C46.0199 3.74995 44.5499 4.40994 43.1299 5.12994C41.4599 5.97994 39.9199 7.05995 38.4799 8.25995C37.7699 8.84995 37.0799 9.44993 36.3899 10.0499C36.1799 10.2399 36.0199 10.4399 36.2899 10.7199C38.1599 12.6799 39.8299 14.8099 41.3899 17.0299C41.7099 17.4799 42.0699 17.6699 42.5999 17.6599C42.9499 17.6499 43.3199 17.6599 43.6399 17.7199C44.1399 17.8199 44.6399 17.9199 45.1399 17.9799C45.9999 18.0799 46.8499 18.2399 47.7099 18.3699C48.6299 18.5199 49.5399 18.7399 50.4599 18.9299C50.6899 18.9799 50.8599 18.9599 50.8899 18.6299C50.9499 18.1199 51.0599 17.6199 51.1899 17.1199C51.5199 15.7499 51.6299 14.3599 51.7499 12.9599C51.8299 11.9299 51.8499 10.8999 51.7499 9.85992C51.6199 8.44992 51.4399 7.05993 50.7999 5.76993C50.1699 4.47993 49.2399 3.62993 47.7999 3.79993V3.81995ZM64.8899 30.7199C64.8899 30.2399 64.7299 29.7199 64.2699 29.0399C63.3199 27.6499 61.9999 26.6699 60.5999 25.7899C59.4899 25.0999 58.3199 24.5399 57.1099 24.0299C55.8299 23.4799 54.5299 23.0199 53.1999 22.5999C52.9999 22.5399 52.7799 22.4699 52.7199 22.7499C52.4599 23.8199 52.0299 24.8299 51.6499 25.8599C51.0999 27.3499 50.4999 28.8199 49.8299 30.2599C49.6899 30.5699 49.4899 30.8599 49.6899 31.2599C50.9199 33.7999 51.9599 36.4199 52.8299 39.0999C52.9299 39.4099 53.0399 39.5 53.3799 39.39C55.5599 38.71 57.6699 37.8699 59.6599 36.7499C61.2199 35.8699 62.6999 34.8699 63.8499 33.4599C64.4299 32.7399 64.9399 31.9599 64.8999 30.7199H64.8899ZM24.0799 41.3799C24.0799 41.3799 24.1099 41.3099 24.1199 41.2799C23.9999 41.0899 23.8799 40.89 23.7599 40.7C22.5599 38.81 21.4199 36.8799 20.3899 34.8799C20.3299 34.7599 20.3099 34.5599 20.1399 34.5699C19.9699 34.5799 19.9699 34.7799 19.9199 34.9099C19.2799 36.4299 18.7199 37.9699 18.1999 39.5299C17.8999 40.4399 17.8799 40.4299 18.8299 40.5899C20.0099 40.7899 21.1799 40.97 22.3499 41.2C22.9299 41.31 23.4999 41.2499 24.0699 41.3699L24.0799 41.3799ZM47.8899 34.3999C47.5699 34.7899 47.3999 35.2499 47.1699 35.6799C46.1999 37.4599 45.1899 39.2199 44.0899 40.9299C44.0299 41.0199 43.9199 41.1299 43.9799 41.2399C44.0399 41.3499 44.1999 41.3099 44.2999 41.2899C44.8499 41.1299 45.4299 41.1899 45.9899 41.0699C47.2499 40.7999 48.5199 40.6199 49.7799 40.3499C50.0899 40.2799 50.1199 40.1899 50.0299 39.8999C49.4899 38.2099 48.8499 36.5599 48.1599 34.9399C48.0799 34.7599 48.0499 34.5499 47.8799 34.4099L47.8899 34.3999ZM30.1299 44.7499C30.1799 44.8599 30.1999 44.91 30.2299 44.95C31.3899 46.49 32.6699 47.93 33.8899 49.42C34.0199 49.58 34.1099 49.58 34.2599 49.42C35.2699 48.29 36.2399 47.1299 37.1599 45.9399C37.4099 45.6199 37.6499 45.2999 37.8899 44.9699C37.9299 44.9199 37.9899 44.8599 37.9399 44.7799C37.8999 44.7199 37.8499 44.68 37.7599 44.7C37.0299 44.81 36.2899 44.7899 35.5499 44.7799C34.1399 44.7599 32.7299 44.7699 31.3099 44.7599C30.9299 44.7599 30.5499 44.7599 30.1299 44.7599V44.7499ZM37.2599 17.3199C37.4599 17.3199 37.7099 17.4 37.8199 17.2C37.9299 17.01 37.6899 16.8799 37.5799 16.7399C36.5399 15.3399 35.3999 14.0299 34.2499 12.7299C34.0799 12.5399 33.9599 12.5399 33.7999 12.7199C33.5799 12.9799 33.3399 13.2299 33.1199 13.4899C32.1399 14.6199 31.1799 15.7699 30.2799 16.9599C30.2099 17.0499 30.0899 17.1299 30.1399 17.2499C30.1999 17.3799 30.3499 17.3199 30.4499 17.3199C30.8599 17.2999 31.2799 17.2499 31.6899 17.2399C33.5399 17.2199 35.3999 17.1699 37.2499 17.3099L37.2599 17.3199ZM20.1399 27.6199C20.5599 26.8399 20.9099 26.1599 21.2799 25.5099C22.1199 24.0499 22.8899 22.5599 23.8299 21.1599C23.8899 21.0699 23.9899 20.9499 23.9299 20.8499C23.8499 20.7299 23.6899 20.7699 23.5699 20.7899C23.2299 20.8399 22.8999 20.9299 22.5599 20.9599C21.1299 21.0699 19.7399 21.4199 18.3399 21.6799C18.0399 21.7399 18.0299 21.8699 18.1099 22.1199C18.3999 22.9299 18.6499 23.7499 18.9499 24.5599C19.3099 25.5399 19.7099 26.5199 20.1399 27.6199Z" fill="#1D1D1B"/>
<path d="M19.5698 61.09C19.5698 61.09 19.5698 61.03 19.5698 61C20.0598 61.05 20.5598 60.9 21.0398 61.09H19.5698Z" fill="#1D1D1B"/>
<path d="M46.8198 61.0899C47.1398 60.9499 47.4498 60.9499 47.7698 61.0899H46.8198Z" fill="#1D1D1B"/>
<path d="M48.72 60.9999C48.72 60.9999 48.72 61.0599 48.72 61.0899H48.03C48.24 60.9299 48.49 61.0299 48.71 60.9999H48.72Z" fill="#1D1D1B"/>
<path d="M30.78 11.7899C30.78 11.6499 30.88 11.5799 30.99 11.5199C30.99 11.6699 30.94 11.7699 30.78 11.7899Z" fill="#1D1D1B"/>
<path d="M24.41 5.01987C24.29 5.03987 24.27 4.93986 24.24 4.85986C24.34 4.86986 24.4 4.91987 24.41 5.01987Z" fill="#1D1D1B"/>
<path d="M25.4399 5.51996C25.3799 5.53996 25.3699 5.49996 25.3499 5.45996C25.3799 5.47996 25.4099 5.49996 25.4399 5.51996Z" fill="#1D1D1B"/>
<path d="M16.8701 6.58997C16.8701 6.58997 16.82 6.63998 16.8 6.66998C16.82 6.63998 16.8501 6.61997 16.8701 6.58997Z" fill="#1D1D1B"/>
<path d="M54.52 8.30994C54.52 8.30994 54.57 8.36993 54.59 8.39993C54.57 8.36993 54.54 8.33994 54.52 8.30994Z" fill="#1D1D1B"/>
<path d="M34.04 24.93C37.51 24.85 39.81 27.77 40 30.27C40.15 32.2 39.62 33.9 38.28 35.23C37.14 36.37 35.67 36.96 33.99 36.96C30.7 36.97 27.82 34.23 27.95 30.72C28.08 27.25 31.07 24.74 34.03 24.92L34.04 24.93Z" fill="#1D1D1B"/>
</svg>
