<svg width="75" height="75" viewBox="0 0 75 75" fill="none" xmlns="http://www.w3.org/2000/svg">
<path d="M65.21 0.969971H8.82C4.22499 0.969971 0.5 4.69496 0.5 9.28997V65.68C0.5 70.275 4.22499 74 8.82 74H65.21C69.805 74 73.53 70.275 73.53 65.68V9.28997C73.53 4.69496 69.805 0.969971 65.21 0.969971Z" stroke="#1D1D1B" stroke-miterlimit="10"/>
<path d="M15.1717 49.4399V16.1454H26.4216C29.0335 16.1454 31.1686 16.6169 32.8269 17.5598C34.4959 18.4918 35.7315 19.7545 36.5335 21.3477C37.3355 22.9409 37.7365 24.7183 37.7365 26.68C37.7365 28.6417 37.3355 30.4246 36.5335 32.0286C35.7423 33.6326 34.5176 34.9115 32.8594 35.8653C31.2012 36.8082 29.0769 37.2796 26.4866 37.2796H18.4231V33.7031H26.3565C28.1448 33.7031 29.5809 33.3942 30.6647 32.7764C31.7485 32.1586 32.5342 31.3241 33.022 30.2728C33.5205 29.2107 33.7698 28.0131 33.7698 26.68C33.7698 25.3469 33.5205 24.1547 33.022 23.1034C32.5342 22.0521 31.7431 21.2285 30.6484 20.6324C29.5538 20.0254 28.1015 19.722 26.2915 19.722H19.2034V49.4399H15.1717ZM61.3987 30.0615L57.9522 31.0369C57.7355 30.4625 57.4157 29.9043 56.993 29.3624C56.5812 28.8097 56.0176 28.3545 55.3023 27.9968C54.587 27.6392 53.6712 27.4603 52.5549 27.4603C51.0267 27.4603 49.7532 27.8126 48.7344 28.5171C47.7265 29.2107 47.2225 30.094 47.2225 31.167C47.2225 32.1207 47.5693 32.874 48.263 33.4267C48.9566 33.9794 50.0404 34.4401 51.5144 34.8085L55.221 35.7189C57.4537 36.2609 59.1173 37.09 60.212 38.2063C61.3066 39.3118 61.8539 40.737 61.8539 42.4819C61.8539 43.9125 61.4421 45.1914 60.6184 46.3186C59.8055 47.4457 58.6675 48.3345 57.2044 48.9847C55.7413 49.635 54.0397 49.9602 52.0997 49.9602C49.5527 49.9602 47.4447 49.4074 45.7756 48.3019C44.1066 47.1965 43.0499 45.5816 42.6055 43.4573L46.2471 42.5469C46.5939 43.8909 47.2496 44.8988 48.2142 45.5708C49.1896 46.2427 50.4631 46.5787 52.0346 46.5787C53.8229 46.5787 55.2427 46.1994 56.294 45.4407C57.3561 44.6712 57.8872 43.75 57.8872 42.677C57.8872 41.8099 57.5837 41.0838 56.9768 40.4985C56.3699 39.9024 55.4378 39.4581 54.1806 39.1655L50.0188 38.19C47.7319 37.6481 46.052 36.8082 44.9791 35.6702C43.9169 34.5213 43.3859 33.0853 43.3859 31.362C43.3859 29.9531 43.7814 28.7067 44.5726 27.6229C45.3746 26.5391 46.4639 25.6883 47.8403 25.0705C49.2276 24.4528 50.7991 24.1439 52.5549 24.1439C55.0259 24.1439 56.966 24.6858 58.3749 25.7696C59.7947 26.8534 60.8026 28.284 61.3987 30.0615Z" fill="#1D1D1B"/>
</svg>
