<svg width="69" height="68" viewBox="0 0 69 68" fill="none" xmlns="http://www.w3.org/2000/svg">
<path d="M40.8299 49.75C42.6299 49.33 44.3799 49.03 46.0699 48.52C51.6899 46.83 54.8199 42.94 55.7699 37.23C56.2499 34.35 56.3999 31.46 55.5299 28.61C55.0299 26.97 54.2499 25.48 53.1299 24.18C52.7899 23.79 52.7099 23.47 52.8599 22.96C53.6699 20.29 53.4099 17.65 52.4799 15.06C52.3899 14.8 51.9299 14.47 51.6799 14.51C50.5499 14.67 49.3599 14.78 48.3199 15.22C46.6699 15.92 45.1399 16.87 43.5299 17.68C43.1899 17.85 42.7199 17.96 42.3599 17.88C37.1399 16.63 31.9399 16.63 26.7199 17.87C26.3399 17.96 25.8099 17.87 25.4799 17.67C23.2299 16.28 20.9599 14.97 18.2899 14.55C16.8499 14.32 16.6899 14.41 16.2999 15.78C15.5899 18.23 15.4699 20.69 16.2099 23.17C16.2799 23.4 16.2199 23.78 16.0699 23.95C13.0299 27.56 12.5099 31.77 13.1099 36.25C13.4899 39.11 14.3199 41.81 16.1499 44.11C18.4599 47.02 21.6399 48.41 25.1699 49.15C26.1599 49.36 27.1499 49.49 28.2399 49.68C27.1099 50.91 26.5399 52.3 26.2499 53.83C26.2099 54.05 25.9299 54.31 25.6999 54.41C21.9499 56.02 18.5699 54.94 16.3899 51.45C15.2599 49.65 13.7699 48.32 11.6099 47.94C11.1799 47.86 10.6999 47.91 10.2599 48C9.4899 48.17 9.3899 48.61 9.9399 49.2C10.1799 49.45 10.4499 49.69 10.7399 49.87C12.4399 50.86 13.6599 52.34 14.2599 54.14C15.5699 58.09 19.4399 59.79 23.5699 59.39C24.3599 59.31 25.1599 59.2 26.0699 59.08C26.0699 61.29 26.1299 63.44 26.0499 65.58C26.0099 66.78 24.8699 67.33 23.5599 66.89C20.6199 65.89 17.8399 64.54 15.3299 62.71C5.2999 55.44 0.3299 45.56 0.6699 33.19C1.1099 17.28 12.9099 3.77 28.5599 0.959996C46.7599 -2.32 64.2499 9.79999 67.7199 28.08C70.8899 44.73 61.5299 61.18 45.6899 66.78C43.7999 67.45 42.8599 66.78 42.8699 64.76C42.8799 61.94 42.8899 59.12 42.9199 56.29C42.9399 53.87 42.5399 51.58 40.8099 49.74L40.8299 49.75Z" fill="#1D1D1B"/>
</svg>
