<svg xmlns="http://www.w3.org/2000/svg" width="554" height="219" fill="none" viewBox="0 0 554 219"><path fill="#000" d="M120.949 186.811c-6.746 3.638-12.069 7.689-16.042 12.189-2.923 3.301-6.896 9.602-11.918 18.903-.862-1.725-1.762-3.338-2.736-4.801-.937-1.462-1.874-2.888-2.736-4.275-.675.675-1.125 1.462-1.312 2.325-3.636-6.563-7.084-11.814-10.345-15.789-3.973-3.113-7.758-4.651-11.394-4.651-9.332 0-18.89 9.076-28.747 27.191a201.07 201.07 0 0 1-2.736-5.176c-.787-1.537-1.612-3.038-2.474-4.388-.337.525-.862 1.463-1.537 2.851-4.835-9.152-8.283-15.115-10.344-17.89-3.636-2.776-7.609-5.363-11.919-7.764.337-.187.787-.3 1.312-.375.525-.075.937-.3 1.312-.637a159.348 159.348 0 0 1-4.273-2.738A70.327 70.327 0 0 0 0 178.823c10.195-3.263 15.292-11.327 15.292-24.116 0-8.813-2.511-15.714-7.496-20.74l1.312-2.325c5.697 2.775 10.532 4.163 14.505 4.163 3.635 0 7.608-1.2 11.918-3.638a80.743 80.743 0 0 0-2.473-5.063 79.329 79.329 0 0 0-2.474-4.276c-.337.338-.6.788-.787 1.313-.187.525-.45.937-.787 1.313-2.774-5.026-5.06-9.039-6.859-12.04-1.799-3.037-3.223-5.138-4.273-6.338a30.102 30.102 0 0 0-4.797-3.375c-1.8-1.05-3.86-2.176-6.072-3.376.337-.187.75-.337 1.162-.525.412-.187.9-.412 1.424-.787-2.586-1.726-5.697-3.526-9.333-5.439 9.146-4.5 15.18-8.813 18.141-12.939.862-1.2 2.174-3.525 3.898-7.013 1.724-3.45 3.973-8.101 6.746-13.99a150.055 150.055 0 0 0 2.587 5.439c.861 1.725 1.724 3.3 2.586 4.65.674-1.387 1.199-2.512 1.536-3.375 4.16 8.814 8.208 15.715 12.181 20.74 3.111 2.438 6.372 3.638 9.858 3.638 9.145 0 18.627-10.351 28.485-31.091a196.237 196.237 0 0 0 2.473 5.7 66.647 66.647 0 0 0 2.474 4.913c.338-.675.637-1.35.9-1.95.262-.6.562-1.237.9-1.95 1.91 4.5 3.71 8.364 5.434 11.664 1.724 3.3 3.261 5.888 4.647 7.763 3.973 3.113 8.471 5.889 13.456 8.289-.525.338-1.012.563-1.424.638-.45.075-.825.3-1.162.637 2.586 1.913 5.697 3.713 9.332 5.438-4.647 2.251-8.433 5.439-11.281 9.602-2.849 4.163-4.273 8.476-4.273 12.939v34.992c0 6.901.675 12.189 2.061 15.789.188.525.413 1.125.788 1.801.674.525 1.911 1.125 3.635 1.8v2.325h-.262c1.537 1.538 3.898 3.038 7.009 4.388v2.325l-.038.075Zm-19.152-18.902c-1.387-3.638-2.062-9.076-2.062-16.315v-34.992c0-4.65 1.312-9.151 3.898-13.464 2.586-4.313 5.96-7.426 10.082-9.339-7.608-3.788-13.305-7.95-17.09-12.451-3.111-3.638-6.56-9.751-10.345-18.415-8.995 19.352-18.478 29.029-28.485 29.029-10.008 0-19.752-9.677-28.748-29.029-2.248 4.838-4.197 8.776-5.81 11.777-1.648 3.037-2.885 5.213-3.747 6.6-3.448 4.651-8.883 8.814-16.304 12.452 7.234 3.788 12.518 7.876 15.78 12.189 1.536 1.913 4.909 7.614 10.081 17.102 9.67-17.44 19.153-26.178 28.485-26.178 3.449 0 6.447 1.65 8.92 4.913 2.512 3.3 3.749 6.751 3.749 10.351v18.153c-5.36-4.838-10.27-7.239-14.768-7.239-3.298 0-8.133 2.326-14.505 7.014-6.221 4.65-11.993 7.013-17.353 7.013-4.497 0-9.407-1.313-14.767-3.9 5.172 5.025 7.758 12.189 7.758 21.49 0 13.464-4.497 21.603-13.455 24.34 6.56 3.638 11.806 7.764 15.78 12.452 1.91 2.588 5.246 8.364 10.081 17.365 9.67-17.44 19.265-26.179 28.748-26.179 9.482 0 18.815 8.739 28.485 26.179 4.31-8.289 7.946-14.065 10.87-17.365 3.785-4.163 9.332-8.289 16.565-12.452-6.034-2.925-10.007-6.638-11.918-11.139l.075.038Zm-34.445-62.183c-1.05-.525-2.061-.788-3.11-.788-9.146 0-18.629 9.002-28.486 26.966.862-.337 1.612-.787 2.212-1.312.6-.525 1.349-1.05 2.211-1.538 6.56-4.838 11.656-7.238 15.292-7.238 4.16 0 8.62 1.912 13.455 5.7v-15.302c0-2.25-.524-4.388-1.536-6.488h-.038Zm2.849 51.307c0 13.651-4.235 20.477-12.706 20.477-5.51 0-9.145-2.85-10.87-8.551-.861-3.45-1.311-8.626-1.311-15.564 0-15.715 3.898-23.591 11.656-23.591 5.885 0 10.27 3.638 13.193 10.876v16.315l.038.038Zm-1.312-15.79a2.29 2.29 0 0 1-.637-1.313c-.075-.525-.3-.937-.637-1.312-1.05-.525-2.324-.788-3.898-.788-6.897 0-10.345 7.426-10.345 22.278 0 6.751.412 11.852 1.312 15.302v-.263c0 .338.075.6.262.788.525.188 1.387.263 2.587.263 7.608 0 11.393-6.376 11.393-19.165v-15.79h-.037Z"/><path fill="#000" d="M244.185 185.011c-5.884 0-14.767 3.976-26.686 11.927-8.283 5.701-16.754 12.601-25.374 20.74-1.537-2.588-3.636-5.026-6.222-7.238-.337 0-.525.187-.525.525-.187-.338-.337-.638-.524-.901-.188-.262-.338-.562-.525-.9-5.173-3.975-12.706-8.213-22.526-12.714-7.946-3.788-14.805-6.601-20.577-8.438-5.772-1.801-10.494-2.813-14.13-2.963v-2.588c1.912 0 3.449-.6 4.648-1.8-4.648-1.388-8.471-2.176-11.394-2.326v-2.587c3.785 0 7.009-3.263 9.595-9.864 2.061-5.363 3.111-10.727 3.111-16.052v-29.817c0-8.476-1.912-15.564-5.697-21.265-.525-.337-1.012-.637-1.424-.9-.45-.262-.9-.563-1.425-.9l1.05-.525c-1.05-1.388-2.212-2.55-3.486-3.488-1.312-.938-2.736-1.838-4.273-2.738 7.084-4.838 11.582-9.414 13.456-13.727 1.386-3.263 2.061-9.076 2.061-17.364 0-8.289-1.312-14.177-3.898-18.64-.674-.338-1.312-.6-1.799-.788-.525-.187-1.124-.337-1.799-.525l.525-2.588v.263h.262c-2.249-2.063-4.76-3.526-7.496-4.388l.525-2.588c.862.187 2.174.262 3.898.262 8.47 0 19.265-4.838 32.383-14.514C169.224 5.401 180.243.3 189.051.3c7.609 0 14.243 2.063 19.94 6.226 2.586 1.913 4.76 4.163 6.484 6.75h.262c6.559 4.651 9.858 10.615 9.858 17.89 0 5.026-1.65 9.227-4.91 12.715-3.299 3.45-7.421 5.175-12.444 5.175-7.946 0-12.781-2.662-14.505-8.026-5.172-2.062-7.758-6.488-7.758-13.201 0-1.726.262-3.376.787-4.913-2.436 2.437-4.498 5.363-6.222 8.813-3.635 7.614-5.434 16.577-5.434 26.966v27.979c7.233-1.05 13.043-3.188 17.353-6.489 4.835-3.788 10.007-12.001 15.554-24.603a150.06 150.06 0 0 0 2.586 5.438c.863 1.726 1.725 3.3 2.587 4.651.674-1.388 1.199-2.513 1.536-3.375 2.062 4.5 4.048 8.363 5.96 11.664 1.911 3.3 3.635 6.038 5.172 8.288a48.63 48.63 0 0 0 6.597 4.013c2.511 1.313 5.322 2.626 8.433 4.013-.675.338-1.312.638-1.8.9-.487.263-1.049.563-1.536.9a41.122 41.122 0 0 0 4.647 2.476c1.724.787 3.524 1.612 5.435 2.475-5.022 2.25-8.995 5.513-11.919 9.864-2.923 4.313-4.385 8.738-4.385 13.201v35.743c0 7.613 1.987 14.176 5.959 19.69.188.187.338.262.525.262.188 0 .338.075.525.263l-.262.525c1.724 2.438 4.047 4.5 7.008 6.225l-.787 2.326-.112-.113Zm-20.989-36.004v-35.742c0-4.839 1.312-9.414 3.898-13.727 2.586-4.313 6.034-7.426 10.345-9.339-7.946-3.263-13.981-7.426-18.141-12.451-1.537-1.913-3.223-4.464-5.06-7.651a244.793 244.793 0 0 1-6.072-11.514c-4.835 10.876-9.857 18.414-15.029 22.54-6.035 4.65-14.768 7.013-26.162 7.013V51.87c0-10.726 1.912-19.877 5.697-27.453 4.835-10.014 11.919-15.04 21.252-15.04 4.497 0 8.358 1.388 11.656 4.163 3.261 2.776 4.91 6.301 4.91 10.614 0 1.538-.075 2.776-.262 3.638-1.05-8.288-4.835-12.452-11.394-12.452-3.299 0-6.035 1.2-8.283 3.638-2.249 2.438-3.374 5.364-3.374 8.814 0 8.814 4.76 13.202 14.243 13.202 4.647 0 8.508-1.613 11.506-4.8 3.036-3.189 4.535-7.127 4.535-11.777 0-6.751-3.11-12.34-9.332-16.84-5.51-3.975-11.919-5.963-19.153-5.963-8.47 0-19.264 5.025-32.383 15.04-13.305 9.863-24.324 14.776-33.132 14.776h-2.062a7.775 7.775 0 0 1-2.061-.262c10.195 2.437 15.292 11.739 15.292 27.978 0 8.626-.675 14.59-2.062 17.89-1.911 4.5-6.034 8.889-12.443 13.202 9.482 5.363 14.243 15.302 14.243 29.816v29.816c0 5.701-1.05 11.214-3.111 16.577-2.924 7.089-6.559 10.614-10.87 10.614 3.786.188 8.621 1.163 14.505 2.963 5.885 1.8 12.781 4.613 20.727 8.439 16.754 7.763 26.761 14.589 30.022 20.477a225.087 225.087 0 0 1 24.324-19.69c12.069-8.101 21.252-12.189 27.436-12.189-9.483-6.901-14.243-16.239-14.243-27.978l.038-.075Zm-30.284 5.7c0 8.289-2.661 14.59-8.021 18.903l-17.878 11.664V95.637c1.387-.187 2.511-.262 3.373-.262h1.799c4.835 0 9.333.937 13.456 2.85 4.835 2.25 7.233 5.776 7.233 10.614v45.868h.038Zm-1.312-45.868a8.45 8.45 0 0 0-.112-1.425c-.075-.413-.225-.9-.375-1.425a31.026 31.026 0 0 0-5.697-1.951c-1.912-.412-4.048-.637-6.484-.637h-1.537c-.525 0-1.312.075-2.324.262v74.897l9.07-5.963c5.023-3.975 7.496-9.939 7.496-17.89v-45.868h-.037Z"/><path fill="#000" d="M359.437 185.799c-12.594.337-23.913 2.85-33.92 7.501-11.581 5.363-20.389 13.577-26.424 24.603-1.387-2.588-3.448-5.288-6.221-8.026-.188.187-.263.337-.263.525s-.075.413-.262.788c-.675-1.051-1.387-2.063-2.062-3.113-.674-1.05-1.461-2.063-2.323-3.113-1.912-1.388-3.786-2.851-5.697-4.388a45.507 45.507 0 0 0-6.484-4.388c-10.72-6.564-19.753-10.014-27.174-10.352v-2.587c1.2 0 2.586-.601 4.161-1.801-2.062-.862-4.011-1.425-5.81-1.687-1.799-.263-3.486-.488-5.06-.638v-2.588c3.448-.337 6.484-3.638 9.071-9.864 2.398-5.888 3.635-10.951 3.635-15.302v-29.028c0-8.476-1.799-15.302-5.435-20.478-.337-.187-.562-.337-.637-.525-.075-.188-.3-.338-.637-.525l.263-.788c-2.249-2.588-4.573-4.575-7.009-5.963l.524-2.063c11.394 0 22.714-2.587 33.92-7.763 12.069-5.7 20.877-13.464 26.424-23.328 1.199 2.588 3.185 5.288 5.959 8.026.187-.188.412-.6.787-1.313.675 1.538 1.912 3.376 3.636 5.438 3.635 3.113 7.946 6.039 12.93 8.814 11.207 6.563 20.352 9.939 27.436 10.089l.262 2.588c-.862.337-1.649.637-2.323.9a8.195 8.195 0 0 0-2.062 1.162c4.161 1.388 7.759 2.063 10.869 2.063l.263 2.588c-8.808 2.438-13.193 11.139-13.193 26.178v29.029c0 3.976.337 7.501 1.049 10.614.675 3.113 1.799 5.888 3.374 8.289 1.049.675 1.799 1.125 2.323 1.312l-.262 1.313c1.724 2.438 4.048 4.238 7.009 5.438l-.525 2.325-.112.038Zm-20.989-36.005v-29.028c0-15.903 4.647-25.054 13.98-27.454-7.421-.338-16.754-3.788-27.961-10.351-11.394-6.751-18.89-13.314-22.525-19.69-5.36 9.338-13.98 16.764-25.899 22.278-11.207 5.175-22.526 7.763-33.92 7.763 9.145 5.176 13.718 14.852 13.718 29.029v29.028c0 4.651-1.2 9.939-3.636 15.79-2.773 6.901-6.221 10.464-10.344 10.614 7.758.337 17.091 3.9 27.96 10.614 11.207 7.088 18.74 13.914 22.526 20.477 5.884-10.351 14.505-18.227 25.899-23.59 10.007-4.651 21.476-7.164 34.444-7.501-9.482-4.838-14.242-14.177-14.242-27.979Zm-28.485 30.567c-17.091-7.951-25.637-17.703-25.637-29.292v-62.97c4.498 2.925 8.208 5.513 11.132 7.763 2.923 2.25 5.097 4.238 6.484 5.964 5.359 5.888 8.021 12.601 8.021 20.215v58.32Zm-7.646-5.589c1.799 1.126 3.935 2.288 6.334 3.488v-56.219c0-6.226-2.062-12.077-6.222-17.628a294.725 294.725 0 0 0-4.535-3.375 148.439 148.439 0 0 0-5.585-3.9v60.645c0 4.838 1.537 9.338 4.648 13.464 1.724 1.2 3.486 2.363 5.322 3.488l.038.037Z"/><path fill="#000" d="M475.701 187.599c-7.759 3.638-13.306 7.351-16.567 11.139-1.386 1.538-3.073 3.938-5.059 7.126-1.987 3.188-4.198 7.313-6.597 12.301-1.537-3.3-3.373-6.488-5.435-9.601a2.295 2.295 0 0 0-.637 1.313c-.075.525-.299 1.05-.637 1.538-4.31-8.477-8.283-14.852-11.919-19.165-3.111-2.588-6.296-3.901-9.595-3.901-8.995 0-18.402 9.939-28.222 29.816a104.44 104.44 0 0 1-2.736-5.325 46.44 46.44 0 0 0-2.474-4.538c-.525.862-1.049 1.912-1.537 3.113-1.911-3.638-3.523-6.789-4.91-9.452-1.386-2.662-2.773-4.95-4.16-6.863-3.298-2.4-8.133-5.251-14.505-8.551.337-.338.787-.6 1.312-.788.525-.187.937-.412 1.312-.787a209.48 209.48 0 0 0-4.273-2.588c-1.462-.863-3.148-1.725-5.06-2.588 4.498-2.4 8.171-5.926 11.019-10.501 2.849-4.576 4.273-9.114 4.273-13.615v-34.729c0-6.901-.675-11.927-2.061-15.039h-.263v-.263a28.752 28.752 0 0 0-2.848-1.538 78.24 78.24 0 0 1-3.373-1.8c.337-.337.749-.562 1.161-.637.413-.075.825-.301 1.162-.638-1.911-1.725-4.91-3.525-9.07-5.438 13.643-7.239 23.838-19.278 30.547-36.005a325.53 325.53 0 0 1 2.473 5.588 57.94 57.94 0 0 0 2.474 5.063c.337-.675.637-1.35.9-1.95.262-.6.562-1.237.899-1.95 3.448 8.626 7.759 15.977 12.931 22.015 1.387 1.2 2.773 2.288 4.16 3.226 1.387.937 2.774 1.875 4.16 2.738 12.256-7.426 21.664-19.015 28.223-34.73 1.537 3.788 3.186 7.351 4.91 10.614.337-.675.637-1.35.9-1.95.262-.6.562-1.238.899-1.95 3.448 8.626 7.684 15.789 12.706 21.49 3.448 3.3 7.159 5.888 11.132 7.763-.338.188-.675.338-1.05.525-.337.188-.675.338-1.049.525a66.67 66.67 0 0 0 4.272 2.963c1.462.938 2.961 1.875 4.535 2.738-7.233 3.451-11.656 6.901-13.193 10.351-1.386 3.113-2.061 8.139-2.061 15.04v34.729c0 5.514 1.649 10.727 4.91 15.565.187.187.337.262.525.262.187 0 .412.075.787.263v1.313c1.724 2.25 3.973 4.05 6.746 5.438v2.325h-.037Zm-17.091-18.002c-2.587-4.576-3.898-9.189-3.898-13.877v-34.73c0-7.238.674-12.451 2.061-15.564 1.724-3.788 5.622-7.163 11.656-10.089-12.593-6.75-21.85-17.44-27.697-32.141-5.885 14.514-15.03 25.24-27.436 32.141 5.884 2.926 9.745 6.301 11.656 10.089 1.2 2.588 1.799 7.763 1.799 15.564v34.73c0 4.651-1.236 8.664-3.748 12.039-2.511 3.375-5.996 5.063-10.494 5.063-4.498 0-8.021-1.8-10.607-5.438-2.436-3.263-3.636-7.163-3.636-11.664v-34.73c0-7.238.675-12.451 2.062-15.564 1.724-3.788 5.622-7.163 11.656-10.089-12.443-6.75-21.588-17.44-27.435-32.141-6.035 14.514-15.292 25.24-27.698 32.141 5.884 2.926 9.745 6.301 11.656 10.089 1.387 3.113 2.061 8.289 2.061 15.564v34.73c0 4.651-1.311 9.301-3.897 13.877-2.587 4.575-5.885 7.913-9.858 9.976 7.946 3.788 13.643 7.613 17.091 11.401 2.399 2.588 5.885 8.552 10.345 17.89 9.332-19.015 18.74-28.503 28.222-28.503 9.483 0 18.891 9.488 28.223 28.503 2.249-4.5 4.235-8.213 5.959-11.139 1.724-2.925 3.261-5.1 4.648-6.488 3.261-3.788 8.958-7.688 17.091-11.664-3.973-2.063-7.234-5.401-9.857-9.976h.075Zm-34.969-63.608h-.263v-.263a32.665 32.665 0 0 0-1.799-1.05c-.675-.338-1.462-.675-2.324-1.05-5.884 2.775-9.482 5.775-10.869 9.076-1.387 3.113-2.061 8.138-2.061 15.039v34.73c0 3.3.599 6.038 1.799 8.288 1.199.525 2.661.788 4.385.788 4.16 0 7.346-1.538 9.595-4.651 2.249-3.113 3.373-6.826 3.373-11.139v-34.729c0-7.426-.6-12.452-1.799-15.039h-.037Zm-10.083-8.814c1.912 1.725 3.786 3.038 5.697 3.9h.263c-1.387-1.2-3.373-2.512-5.96-3.9Z"/><path fill="#000" d="M545.077 123.616v-6.751h-6.747v-6.226c.188-1.05.263-1.913.263-2.588v-1.8c0-2.588-.263-4.838-.787-6.75-1.912-.526-4.161-.788-6.747-.788v57.532c0 9.001 1.799 16.315 5.435 22.015.674.338 1.349.675 1.949 1.051.6.337 1.349.675 2.211 1.05l-1.537.787c2.249 2.438 5.023 4.388 8.283 5.964-9.332 5.025-15.779 9.226-19.414 12.714h.262c-2.061 2.062-4.198 4.575-6.334 7.501-2.174 2.925-4.46 6.563-6.859 10.876-1.05-1.725-2.024-3.338-2.961-4.801-.937-1.462-1.874-2.887-2.736-4.275-.187.337-.337.75-.525 1.162-.187.413-.337.826-.524 1.163-1.912-3.113-3.673-5.888-5.323-8.288-1.649-2.401-3.223-4.576-4.797-6.489-1.912-1.387-4.16-2.85-6.747-4.388-2.586-1.538-5.622-3.263-9.07-5.175a2.287 2.287 0 0 1 1.312-.638c.525-.075.937-.3 1.312-.638a114.095 114.095 0 0 0-4.385-2.587 158.284 158.284 0 0 1-4.91-2.851c7.233-3.638 11.731-8.026 13.455-13.202 1.387-4.163 2.061-10.013 2.061-17.627V98.788h-10.869v-6.751h-6.746V77.785h17.616V52.132c0-2.588-.863-5.1-2.587-7.501-1.199-.863-2.436-1.763-3.635-2.738-1.2-.938-2.249-1.838-3.111-2.738l.787-.788c-1.387-1.05-2.736-2.062-4.01-3.112a150.558 150.558 0 0 1-3.486-2.85l1.537-1.539c4.31-.675 10.344-1.987 18.14-3.9h-.262c2.586-.863 5.772-2.55 9.595-5.063 3.785-2.513 8.358-5.738 13.717-9.714C527.049 5.626 536.456 1.575 546.126 0l-.262 5.963c-3.973 1.2-7.421 3.3-10.345 6.226 5.697-2.588 11.469-4.388 17.354-5.438l-.263 5.963c-14.317 4.5-21.476 19.765-21.476 45.869v18.902c2.774-.525 4.648-1.388 5.697-2.588 1.049-1.2 1.537-6.376 1.537-15.564h8.283v6.75h6.746v57.533h-8.32Zm.262-8.026V60.645h-5.697c0 8.626-.6 13.652-1.799 15.04-1.724 2.25-6.634 3.375-14.767 3.375V51.87c0-26.78 7.158-42.419 21.476-46.92l.262-3.375c-8.283 1.2-17.016 5.1-26.161 11.664a530.677 530.677 0 0 1-14.13 9.864c-3.898 2.588-7.046 4.313-9.445 5.176-7.758 2.062-13.643 3.375-17.616 3.9l-.262.263c1.387 1.05 2.736 2.062 4.01 3.113 1.312 1.05 2.624 2.175 4.011 3.375 4.835 4.313 7.233 8.739 7.233 13.202v26.966h-17.615v11.664h17.615v58.807c0 7.951-.674 13.99-2.061 18.153-2.061 5.888-6.034 10.201-11.919 12.939 8.958 4.838 14.842 8.551 17.616 11.139 3.635 3.638 7.683 9.338 12.181 17.102 2.061-3.788 4.16-7.089 6.222-9.864 2.061-2.775 4.048-5.101 5.959-7.013 3.261-3.113 9.07-6.901 17.354-11.402-9.858-4.65-14.768-15.039-14.768-31.091V90.724c6.372 0 10.795 1.013 13.193 2.963 2.399 1.988 3.636 6.188 3.636 12.564v2.063c0 .675-.075 1.538-.262 2.588v4.65h5.697l.037.038Z"/></svg>