<svg xmlns="http://www.w3.org/2000/svg" width="81" height="41" fill="none" viewBox="0 0 81 41"><path fill="#FF0" d="M40.391 40.486c22.204 0 40.203-8.87 40.203-19.813S62.594.86 40.391.86C18.188.86.188 9.73.188 20.673c0 10.942 18 19.813 40.203 19.813Z"/><path fill="#000" d="M40.391 40.677c-10.768 0-20.893-2.068-28.51-5.825C4.216 31.076 0 26.042 0 20.67S4.22 10.263 11.88 6.487C19.498 2.73 29.626.662 40.391.662c10.766 0 20.894 2.068 28.511 5.825 7.664 3.776 11.88 8.811 11.88 14.183 0 5.371-4.22 10.406-11.88 14.182-7.617 3.757-17.745 5.825-28.51 5.825Zm0-39.63c-22.06 0-40.01 8.805-40.01 19.626 0 10.82 17.947 19.625 40.01 19.625 22.064 0 40.011-8.804 40.011-19.625 0-10.82-17.947-19.626-40.01-19.626Z"/><path fill="#000" d="M22.122 26.462c-.673.359-1.206.764-1.603 1.21-.292.327-.689.951-1.19 1.877a5.406 5.406 0 0 0-.27-.476 27.992 27.992 0 0 1-.27-.424.465.465 0 0 0-.13.233c-.36-.65-.705-1.174-1.033-1.57-.397-.307-.774-.462-1.138-.462-.93 0-1.886.9-2.868 2.702a11.36 11.36 0 0 1-.27-.514 4.656 4.656 0 0 0-.247-.437 2.675 2.675 0 0 0-.156.281c-.481-.909-.826-1.501-1.034-1.773a9.74 9.74 0 0 0-1.19-.77.563.563 0 0 1 .13-.039.237.237 0 0 0 .13-.065c-.136-.084-.28-.174-.426-.268a7.245 7.245 0 0 0-.504-.295c1.018-.327 1.525-1.123 1.525-2.391 0-.874-.25-1.56-.748-2.058l.13-.233c.57.275 1.05.41 1.447.41.361 0 .758-.119 1.19-.358a15.47 15.47 0 0 0-.244-.502 5.99 5.99 0 0 0-.247-.424.31.31 0 0 0-.078.13.31.31 0 0 1-.078.13 38.31 38.31 0 0 0-.686-1.198 5.069 5.069 0 0 0-.426-.631 2.698 2.698 0 0 0-.478-.333 25.923 25.923 0 0 0-.608-.334c.036-.016.075-.035.117-.052a.712.712 0 0 0 .143-.077c-.26-.172-.569-.353-.93-.54.914-.447 1.516-.874 1.808-1.285.085-.12.215-.353.387-.696.173-.343.397-.806.673-1.388.085.188.173.369.26.54.085.172.173.327.257.463.068-.136.12-.25.156-.333.413.873.82 1.56 1.216 2.058.31.24.637.359.982.359.914 0 1.86-1.03 2.842-3.087.084.207.169.395.247.566.078.172.16.334.244.489.035-.068.065-.133.09-.194.027-.062.056-.123.092-.194.188.446.37.831.543 1.158.172.327.328.582.465.77.396.307.845.582 1.342.822a.42.42 0 0 1-.142.065.236.236 0 0 0-.118.064c.257.188.57.37.93.54a2.85 2.85 0 0 0-1.125.952c-.283.411-.426.841-.426 1.285v3.472c0 .686.069 1.21.209 1.57.016.051.042.113.078.18.068.052.188.114.36.182v.233h-.026c.157.155.387.3.7.436v.233l-.004-.01Zm-1.912-1.877c-.136-.36-.208-.9-.208-1.621v-3.472c0-.463.13-.91.387-1.337a2.265 2.265 0 0 1 1.008-.925c-.757-.375-1.326-.79-1.707-1.236-.309-.36-.653-.968-1.034-1.825-.897 1.922-1.843 2.88-2.841 2.88-.999 0-1.974-.961-2.868-2.88-.224.479-.42.87-.582 1.171-.163.301-.29.518-.374.657-.345.463-.888.874-1.629 1.236.725.379 1.249.78 1.577 1.21.156.188.491.754 1.008 1.7.966-1.732 1.912-2.6 2.842-2.6.344 0 .64.163.89.49.25.326.374.67.374 1.028v1.8c-.533-.48-1.024-.722-1.473-.722-.328 0-.81.233-1.446.696-.621.462-1.197.695-1.733.695-.449 0-.94-.13-1.473-.385.517.499.777 1.21.777 2.136 0 1.336-.449 2.142-1.343 2.417.654.36 1.18.77 1.577 1.236.189.256.527.832 1.008 1.725.966-1.731 1.921-2.598 2.868-2.598.946 0 1.879.867 2.841 2.598.43-.822.794-1.398 1.086-1.725.377-.41.93-.822 1.655-1.236-.605-.291-.998-.66-1.19-1.107l.003-.006Zm-3.436-6.174a.692.692 0 0 0-.31-.078c-.913 0-1.859.893-2.84 2.676a.81.81 0 0 0 .22-.13c.062-.05.134-.103.221-.154.654-.48 1.164-.722 1.525-.722.413 0 .862.188 1.343.566v-1.517c0-.224-.052-.437-.156-.644l-.003.003Zm.283 5.093c0 1.356-.423 2.032-1.265 2.032-.553 0-.914-.281-1.086-.847-.088-.343-.13-.858-.13-1.544 0-1.56.387-2.34 1.164-2.34.585 0 1.024.36 1.317 1.081v1.622-.004Zm-.13-1.57a.235.235 0 0 1-.066-.129.234.234 0 0 0-.064-.129.867.867 0 0 0-.387-.078c-.69 0-1.034.738-1.034 2.214 0 .67.042 1.174.13 1.517v-.026c0 .036.01.062.026.078a.947.947 0 0 0 .26.026c.757 0 1.138-.634 1.138-1.903v-1.57h-.003Z"/><path fill="#000" d="M34.422 26.28c-.585 0-1.473.395-2.663 1.185a21.736 21.736 0 0 0-2.533 2.058 3.04 3.04 0 0 0-.62-.722c-.037 0-.053.017-.053.052-.016-.036-.036-.065-.052-.09-.016-.026-.036-.056-.052-.091-.517-.395-1.268-.816-2.25-1.259-.793-.375-1.476-.657-2.055-.835-.578-.18-1.046-.278-1.407-.294v-.256a.634.634 0 0 0 .465-.181c-.465-.136-.846-.214-1.138-.233v-.256c.377 0 .699-.326.956-.977.208-.53.308-1.061.308-1.595v-2.958c0-.841-.188-1.543-.569-2.11-.052-.035-.1-.064-.143-.09-.042-.026-.09-.055-.143-.09l.104-.053a1.762 1.762 0 0 0-.348-.346 3.84 3.84 0 0 0-.425-.268c.705-.48 1.154-.935 1.342-1.363.137-.326.208-.9.208-1.724 0-.825-.13-1.405-.387-1.851a1.12 1.12 0 0 0-.182-.078c-.052-.016-.113-.036-.182-.052l.052-.255v.025h.026a1.935 1.935 0 0 0-.748-.436l.052-.256c.085.016.215.026.387.026.846 0 1.922-.479 3.232-1.44 1.327-1.013 2.429-1.518 3.307-1.518.758 0 1.42.207 1.99.618.26.188.474.411.647.67h.026c.653.463.982 1.055.982 1.774 0 .498-.163.919-.491 1.258-.329.343-.742.515-1.242.515-.794 0-1.275-.266-1.447-.796-.517-.207-.774-.644-.774-1.31 0-.172.026-.334.078-.49-.24.24-.449.531-.621.874-.36.754-.543 1.647-.543 2.676v2.777c.725-.104 1.3-.317 1.733-.644.481-.376.998-1.191 1.55-2.443.085.187.173.369.258.54.084.172.172.327.257.463.068-.136.12-.25.156-.333.208.446.403.831.595 1.158.188.327.36.602.517.822.188.136.41.268.66.398.25.13.53.262.839.398a4.91 4.91 0 0 1-.183.09 1.294 1.294 0 0 0-.156.091c.137.087.293.168.465.243.173.077.355.158.543.246-.5.223-.897.55-1.19.977-.292.43-.439.867-.439 1.31v3.55c0 .754.199 1.408.595 1.955a.08.08 0 0 0 .052.026.08.08 0 0 1 .052.026l-.026.051c.173.24.404.447.7.618l-.079.233.007-.01Zm-2.094-3.575v-3.55c0-.479.13-.935.387-1.362a2.226 2.226 0 0 1 1.034-.926c-.793-.326-1.395-.737-1.808-1.236a5.473 5.473 0 0 1-.504-.757 23.78 23.78 0 0 1-.608-1.145c-.481 1.08-.982 1.825-1.499 2.239-.604.463-1.472.696-2.61.696v-3.602c0-1.061.188-1.97.569-2.728.48-.993 1.19-1.492 2.12-1.492.448 0 .835.136 1.163.411.329.275.491.628.491 1.055 0 .156-.01.275-.026.36-.104-.822-.48-1.237-1.138-1.237-.328 0-.604.12-.826.36a1.23 1.23 0 0 0-.334.873c0 .874.474 1.31 1.42 1.31.465 0 .849-.158 1.151-.475.303-.317.452-.709.452-1.171 0-.67-.309-1.227-.93-1.673-.552-.395-1.19-.592-1.911-.592-.846 0-1.922.498-3.232 1.491-1.327.978-2.429 1.466-3.307 1.466h-.208a.915.915 0 0 1-.208-.026c1.018.24 1.525 1.165 1.525 2.777 0 .857-.068 1.45-.208 1.773-.189.447-.605.883-1.242 1.31.946.531 1.42 1.518 1.42 2.958v2.958a4.54 4.54 0 0 1-.308 1.647c-.293.702-.654 1.055-1.086 1.055.377.016.861.116 1.447.294.585.181 1.274.46 2.067.835 1.672.77 2.67 1.45 2.998 2.032a22.23 22.23 0 0 1 2.429-1.954c1.206-.806 2.12-1.21 2.74-1.21-.945-.687-1.42-1.612-1.42-2.777v.013Zm-3.024.566c0 .822-.266 1.45-.8 1.877l-1.781 1.159v-8.9c.136-.015.25-.025.335-.025h.182c.48 0 .93.094 1.343.281.48.224.725.576.725 1.055v4.553h-.004Zm-.13-4.553a.66.66 0 0 0-.013-.142 1.892 1.892 0 0 0-.039-.142 3.276 3.276 0 0 0-.569-.195 3 3 0 0 0-.647-.064h-.156c-.052 0-.13.01-.234.026v7.432l.904-.592c.5-.395.748-.987.748-1.773v-4.553l.006.003Z"/><path fill="#000" d="M45.922 26.358c-1.258.036-2.386.282-3.385.748a5.608 5.608 0 0 0-2.636 2.443 3.392 3.392 0 0 0-.622-.796c-.016.016-.026.035-.026.052 0 .016-.01.042-.026.077a10.213 10.213 0 0 0-.208-.307 2.864 2.864 0 0 0-.234-.308c-.188-.136-.38-.281-.569-.436a4.5 4.5 0 0 0-.647-.437c-1.07-.65-1.973-.994-2.715-1.03v-.255c.12 0 .257-.058.413-.181a2.516 2.516 0 0 0-.582-.168 13.832 13.832 0 0 0-.504-.065v-.256c.345-.035.647-.359.904-.977.24-.582.361-1.087.361-1.518v-2.88c0-.84-.182-1.517-.543-2.032a.14.14 0 0 1-.065-.051.141.141 0 0 0-.065-.052l.026-.078a2.769 2.769 0 0 0-.699-.592l.052-.207c1.138 0 2.266-.256 3.385-.77 1.206-.566 2.084-1.337 2.637-2.314.12.256.318.524.595.796a.707.707 0 0 0 .078-.13c.068.156.188.334.36.541.361.307.794.602 1.291.874 1.119.65 2.032.987 2.738 1.003l.026.256a6.489 6.489 0 0 1-.234.09.904.904 0 0 0-.208.117c.413.136.774.207 1.086.207l.026.255c-.878.24-1.317 1.107-1.317 2.599v2.88c0 .395.036.747.104 1.055.068.307.182.582.335.822.104.068.182.113.234.129l-.026.13c.172.239.403.42.699.54l-.052.233.013-.007Zm-2.094-3.575v-2.88c0-1.576.465-2.485 1.395-2.728-.741-.036-1.671-.376-2.79-1.03-1.138-.669-1.886-1.32-2.246-1.954-.534.926-1.395 1.664-2.585 2.214-1.122.514-2.25.77-3.385.77.914.514 1.369 1.475 1.369 2.88v2.88c0 .463-.12.987-.36 1.57-.277.685-.622 1.038-1.035 1.054.774.036 1.707.385 2.79 1.055 1.118.702 1.87 1.382 2.25 2.032.585-1.029 1.447-1.809 2.584-2.34.999-.462 2.146-.711 3.437-.747-.946-.479-1.42-1.404-1.42-2.776h-.004Zm-2.842 3.035c-1.706-.79-2.558-1.757-2.558-2.906V16.66c.448.292.819.55 1.112.77.292.224.507.421.647.593.533.582.8 1.252.8 2.006v5.789Zm-.76-.553c.182.113.39.226.634.346v-5.582c0-.618-.209-1.2-.621-1.747-.137-.104-.29-.214-.452-.334-.163-.12-.348-.249-.556-.385v6.019c0 .479.156.925.465 1.336.172.12.348.236.53.347Z"/><path fill="#000" d="M57.526 26.54c-.774.359-1.327.727-1.655 1.106-.14.155-.306.392-.504.709-.198.317-.42.725-.66 1.223a7.312 7.312 0 0 0-.543-.951.234.234 0 0 0-.065.129.398.398 0 0 1-.065.155c-.429-.841-.826-1.475-1.19-1.902-.309-.256-.627-.385-.956-.385-.897 0-1.834.987-2.815 2.957a8.176 8.176 0 0 1-.27-.527 4.832 4.832 0 0 0-.244-.45 2.442 2.442 0 0 0-.156.307c-.189-.359-.355-.673-.491-.938a5.91 5.91 0 0 0-.413-.683c-.328-.24-.81-.524-1.447-.848a.31.31 0 0 1 .13-.077.31.31 0 0 0 .13-.078c-.136-.084-.28-.171-.426-.256a5.58 5.58 0 0 0-.504-.255c.449-.24.813-.586 1.1-1.042.282-.453.425-.903.425-1.35v-3.446c0-.686-.068-1.184-.208-1.491h-.026v-.026a5.546 5.546 0 0 0-.283-.156c-.1-.051-.214-.11-.335-.18a.223.223 0 0 1 .117-.066.235.235 0 0 0 .117-.064c-.188-.172-.49-.353-.903-.54 1.362-.722 2.376-1.913 3.05-3.576.084.187.168.372.246.553.078.181.16.346.244.502.036-.068.065-.133.091-.195a3.22 3.22 0 0 1 .091-.194c.345.858.777 1.586 1.291 2.188.137.12.276.226.413.32.137.094.276.184.413.269 1.222-.738 2.162-1.887 2.816-3.447.156.379.318.728.49 1.055.036-.068.066-.132.092-.194.026-.061.055-.123.09-.194.345.857.768 1.57 1.269 2.136.344.326.715.582 1.112.77-.036.016-.069.035-.104.052-.036.016-.069.035-.104.051a6.93 6.93 0 0 0 .878.563c-.726.343-1.165.686-1.317 1.03-.137.307-.209.805-.209 1.491v3.446c0 .55.163 1.065.492 1.544a.08.08 0 0 0 .052.026c.016 0 .042.01.078.026v.13c.172.222.396.404.673.54v.233h-.007Zm-1.707-1.787a2.734 2.734 0 0 1-.387-1.375v-3.446c0-.722.069-1.236.208-1.544.173-.375.56-.712 1.164-1.003-1.258-.67-2.178-1.731-2.767-3.19-.585 1.44-1.498 2.504-2.74 3.19.585.291.972.625 1.164 1.003.12.256.182.77.182 1.544v3.446c0 .463-.127.86-.374 1.197-.25.334-.599.502-1.047.502-.449 0-.8-.181-1.06-.54a1.898 1.898 0 0 1-.361-1.159v-3.446c0-.722.068-1.236.208-1.544.172-.375.56-.712 1.164-1.003-1.242-.67-2.156-1.731-2.74-3.19-.606 1.44-1.526 2.504-2.768 3.19.585.291.972.625 1.164 1.003.137.308.208.822.208 1.544v3.446c0 .463-.13.922-.387 1.375-.26.453-.585.783-.982.99.794.379 1.363.754 1.707 1.133.241.256.586.848 1.034 1.773.93-1.886 1.87-2.828 2.816-2.828.946 0 1.886.942 2.816 2.828.224-.446.422-.815.595-1.106a3.45 3.45 0 0 1 .465-.644c.328-.376.894-.764 1.706-1.159-.396-.207-.724-.537-.981-.99l-.007.003ZM52.33 18.44h-.026v-.026a1.506 1.506 0 0 0-.182-.103 2.793 2.793 0 0 0-.234-.104c-.585.275-.946.576-1.086.9-.136.307-.208.805-.208 1.491v3.447c0 .326.062.601.182.821.12.052.267.078.44.078.412 0 .73-.155.955-.462.224-.308.335-.677.335-1.107v-3.446c0-.738-.062-1.236-.182-1.492l.006.003Zm-1.008-.874c.19.172.378.301.57.386h.025a3.088 3.088 0 0 0-.595-.386Z"/><path fill="#000" d="M64.451 20.184v-.67h-.673v-.618a1.74 1.74 0 0 0 .026-.255v-.181c0-.256-.026-.48-.078-.67a2.568 2.568 0 0 0-.673-.078v5.711c0 .893.182 1.622.543 2.188.069.035.134.068.195.103.062.036.134.068.221.104l-.156.077c.225.24.501.437.826.593-.93.498-1.577.919-1.938 1.258h.026c-.208.207-.42.453-.634.748-.214.291-.445.65-.686 1.08a19.51 19.51 0 0 0-.296-.475 27.527 27.527 0 0 1-.27-.424c-.016.036-.035.071-.051.117-.017.042-.036.08-.052.116a21.275 21.275 0 0 0-.53-.822 9.019 9.019 0 0 0-.478-.644 9.413 9.413 0 0 0-.673-.437c-.257-.155-.56-.326-.904-.514a.237.237 0 0 1 .13-.065.237.237 0 0 0 .13-.064 8.713 8.713 0 0 0-.44-.256c-.155-.084-.318-.181-.49-.282.725-.359 1.17-.796 1.343-1.31.136-.411.208-.994.208-1.75v-5.042H57.99v-.67h-.673v-1.414h1.756V13.09c0-.255-.088-.505-.257-.747a8.761 8.761 0 0 1-.361-.269 3.458 3.458 0 0 1-.309-.268l.078-.078-.4-.307c-.13-.104-.247-.198-.348-.282l.156-.155c.43-.068 1.034-.198 1.808-.385h-.026c.26-.085.579-.253.956-.502.377-.25.835-.57 1.369-.964.913-.65 1.853-1.055 2.815-1.21l-.026.592a2.45 2.45 0 0 0-1.034.618 7.302 7.302 0 0 1 1.733-.54l-.026.591c-1.43.447-2.145 1.965-2.145 4.553v1.877c.276-.052.464-.136.569-.255.104-.12.156-.635.156-1.544h.825v.67h.673v5.711h-.825l-.004-.013Zm.026-.796v-5.452h-.569c0 .857-.061 1.356-.182 1.492-.172.223-.663.333-1.473.333v-2.702c0-2.657.716-4.21 2.146-4.657l.026-.333c-.825.12-1.697.505-2.61 1.159-.553.394-1.021.721-1.408.977-.387.255-.703.43-.943.514-.777.207-1.363.334-1.756.385l-.026.026c.137.104.27.207.4.308.13.103.263.213.4.333.481.43.725.867.725 1.31v2.677h-1.76v1.158h1.76v5.837c0 .79-.068 1.389-.208 1.8-.208.582-.605 1.012-1.19 1.284.894.48 1.482.848 1.756 1.107.36.36.767.925 1.216 1.699.208-.376.413-.702.62-.977a6.58 6.58 0 0 1 .595-.696c.329-.308.904-.686 1.733-1.133-.981-.462-1.472-1.491-1.472-3.087v-5.837c.637 0 1.076.1 1.316.294.241.198.361.615.361 1.25v.206c0 .068-.01.156-.026.256v.463h.57v.006Z"/></svg>