<svg xmlns="http://www.w3.org/2000/svg" width="129" height="358" fill="none" viewBox="0 0 129 358"><g filter="url(#a)"><g clip-path="url(#b)"><path fill="red" d="M124 0H4v350h120V0Z"/><path fill="#FF0" d="M76.894 19.255c0-3.68-1.61-5.23-5.37-5.24-5.01-.02-10.01-.02-15.02 0-3.99.01-5.5 1.54-5.5 5.55v16.32c0 5.59-.01 11.17 0 16.76.01 3.75 1.56 5.33 5.26 5.35 5.15.02 10.3.03 15.45 0 3.57-.02 5.17-1.61 5.18-5.22.02-11.17.02-22.34 0-33.52Zm-18.17-3.73h10.46v.63h-10.46v-.63Zm5.23 40.52a1.741 1.741 0 0 1 0-3.48 1.741 1.741 0 0 1 0 3.48Zm11.08-5.83c0 .57-.46 1.03-1.03 1.03h-20.14c-.57 0-1.03-.46-1.03-1.03v-30.61c0-.57.46-1.03 1.03-1.03h20.14c.57 0 1.03.46 1.03 1.03v30.61ZM52.692 94.82c.014-.925.19-1.85.528-2.774.338-.925.907-1.77 1.706-2.533.808-.763 1.898-1.376 3.27-1.838 1.38-.462 3.112-.694 5.196-.694 1.996 0 3.765.188 5.306.562 1.549.374 2.851.917 3.908 1.63 1.064.711 1.872 1.57 2.422 2.575.55 1.013.826 2.154.826 3.424 0 1.262-.254 2.385-.76 3.368a6.418 6.418 0 0 1-2.091 2.422c-.896.624-1.927 1.028-3.094 1.211v-2.686c1.013-.25 1.853-.734 2.521-1.453.668-.72 1.002-1.673 1.002-2.862 0-1.747-.76-3.123-2.279-4.128-1.52-.998-3.651-1.501-6.396-1.508v.176a6.626 6.626 0 0 1 2.631 3.357c.242.69.363 1.42.363 2.19 0 1.293-.323 2.474-.968 3.546-.639 1.071-1.523 1.93-2.653 2.576-1.123.646-2.411.968-3.864.968-1.395 0-2.672-.311-3.831-.935a7.129 7.129 0 0 1-2.753-2.631c-.675-1.123-1.005-2.444-.99-3.963Zm2.422 0c0 .924.23 1.754.693 2.488a4.959 4.959 0 0 0 1.86 1.75c.779.433 1.645.65 2.599.65.932 0 1.78-.21 2.543-.628a4.786 4.786 0 0 0 1.838-1.706c.455-.72.682-1.542.682-2.466 0-.698-.139-1.347-.418-1.949a5.03 5.03 0 0 0-1.123-1.585 5.426 5.426 0 0 0-1.64-1.057 4.907 4.907 0 0 0-1.926-.385 5.22 5.22 0 0 0-2.51.627 5.166 5.166 0 0 0-1.883 1.74c-.477.74-.715 1.581-.715 2.52Zm2.51 11.33h2.245l15.677 9.908v1.629h-3.48v-1.101L60.223 109.1h-.177v13.343h-2.421V106.15ZM53 116.762h22.546v2.598H53v-2.598Zm4.624 9.278h2.245l15.677 9.907v1.63h-3.48v-1.101l-11.844-7.486h-.177v13.342h-2.421V126.04ZM53 136.652h22.546v2.598H53v-2.598Zm22.546 26.451H53v-2.73h19.683v-.132l-3.655-5.505h2.775l3.743 5.637v2.73Zm-22.854 13.97a8.44 8.44 0 0 1 .528-2.775c.338-.924.907-1.768 1.706-2.532.808-.763 1.898-1.376 3.27-1.838 1.38-.462 3.112-.694 5.196-.694 1.996 0 3.765.188 5.306.562 1.549.374 2.851.917 3.908 1.629 1.064.712 1.872 1.571 2.422 2.576.55 1.013.826 2.154.826 3.424 0 1.262-.254 2.385-.76 3.368a6.426 6.426 0 0 1-2.091 2.422c-.896.624-1.927 1.028-3.094 1.211v-2.686c1.013-.249 1.853-.734 2.521-1.453.668-.719 1.002-1.673 1.002-2.862 0-1.747-.76-3.123-2.279-4.128-1.52-.998-3.651-1.501-6.396-1.509v.177a6.627 6.627 0 0 1 2.631 3.357c.242.69.363 1.42.363 2.191a6.745 6.745 0 0 1-.968 3.545c-.639 1.071-1.523 1.93-2.653 2.576-1.123.645-2.411.968-3.864.968-1.395 0-2.672-.312-3.831-.935a7.13 7.13 0 0 1-2.753-2.631c-.675-1.123-1.005-2.444-.99-3.963Zm2.422 0c0 .924.23 1.754.693 2.487a4.957 4.957 0 0 0 1.86 1.751c.779.433 1.645.649 2.599.649.932 0 1.78-.209 2.543-.627a4.79 4.79 0 0 0 1.838-1.706c.455-.72.682-1.542.682-2.466 0-.698-.139-1.347-.418-1.949a5.024 5.024 0 0 0-1.123-1.585 5.42 5.42 0 0 0-1.64-1.057 4.905 4.905 0 0 0-1.926-.385 5.22 5.22 0 0 0-2.51.627 5.17 5.17 0 0 0-1.883 1.74c-.477.741-.715 1.581-.715 2.521Zm-2.422 19.08c0-1.512.268-2.847.803-4.007.544-1.152 1.288-2.051 2.235-2.697.954-.646 2.04-.965 3.259-.958a5.993 5.993 0 0 1 2.642.562 5.742 5.742 0 0 1 2.036 1.563c.55.668.9 1.413 1.046 2.234h.132c.279-1.078.885-1.937 1.817-2.575.939-.639 2.007-.955 3.203-.947 1.145-.008 2.169.282 3.071.869.903.588 1.615 1.395 2.136 2.422.521 1.035.782 2.213.782 3.534 0 1.306-.26 2.473-.782 3.501-.521 1.027-1.233 1.835-2.136 2.422-.902.594-1.926.895-3.07.902-1.197-.007-2.265-.334-3.204-.979-.933-.639-1.538-1.487-1.817-2.543h-.132a4.646 4.646 0 0 1-1.046 2.201 5.934 5.934 0 0 1-2.036 1.564 6.126 6.126 0 0 1-2.642.594c-1.219-.007-2.305-.338-3.259-.991-.947-.646-1.691-1.545-2.235-2.697-.535-1.145-.803-2.469-.803-3.974Zm2.422 0c0 1.02.165 1.901.495 2.642.33.741.796 1.314 1.398 1.717.602.404 1.306.61 2.114.617.851-.007 1.603-.228 2.256-.661.654-.433 1.167-1.023 1.542-1.772.374-.741.561-1.589.561-2.543 0-.961-.187-1.82-.561-2.576-.375-.749-.888-1.339-1.541-1.772-.654-.426-1.406-.635-2.257-.628-.808-.007-1.512.187-2.114.584-.602.403-1.068.979-1.398 1.728-.33.749-.495 1.637-.495 2.664Zm10.7 0c0 .807.161 1.523.484 2.147a3.688 3.688 0 0 0 1.354 1.486c.58.359 1.259.543 2.037.55.763-.007 1.427-.187 1.993-.539a3.497 3.497 0 0 0 1.32-1.464c.316-.624.474-1.351.474-2.18 0-.844-.158-1.582-.474-2.213a3.415 3.415 0 0 0-1.32-1.464c-.566-.345-1.23-.514-1.993-.506-.778-.008-1.457.165-2.037.517-.58.36-1.03.855-1.354 1.486-.323.632-.484 1.358-.484 2.18Zm-8.19 20.071h2.245l15.676 9.908v1.629h-3.478v-1.101l-11.845-7.485h-.177v13.342h-2.421v-16.293ZM53 226.837h22.545v2.598H53v-2.598Zm22.854 16.983a8.077 8.077 0 0 1-.529 2.774c-.345.925-.917 1.769-1.717 2.532-.793.763-1.875 1.376-3.248 1.838-1.372.463-3.093.694-5.163.694-2.003 0-3.783-.191-5.339-.572-1.548-.375-2.855-.918-3.919-1.63-1.064-.704-1.871-1.563-2.422-2.576-.55-1.005-.825-2.143-.825-3.412 0-1.263.25-2.389.748-3.38a6.636 6.636 0 0 1 2.103-2.422c.903-.624 1.949-1.024 3.137-1.2v2.686c-1.034.243-1.89.723-2.565 1.442-.667.727-1.001 1.685-1.001 2.874 0 1.739.76 3.111 2.278 4.117 1.52 1.013 3.666 1.519 6.44 1.519v-.176a6.914 6.914 0 0 1-1.596-1.464 6.451 6.451 0 0 1-1.035-1.883 6.597 6.597 0 0 1-.363-2.201c0-1.292.32-2.477.958-3.556a7.264 7.264 0 0 1 2.653-2.576c1.13-.639 2.422-.958 3.875-.958 1.38 0 2.642.308 3.787.925a7.152 7.152 0 0 1 2.752 2.62c.682 1.13 1.013 2.458.99 3.985Zm-2.422 0c0-.925-.231-1.758-.694-2.499a4.987 4.987 0 0 0-1.85-1.75c-.77-.426-1.625-.639-2.564-.639-.94 0-1.794.206-2.565.617a4.92 4.92 0 0 0-1.828 1.706c-.447.727-.671 1.552-.671 2.477 0 .697.136 1.347.407 1.948a5.052 5.052 0 0 0 1.134 1.575 5.48 5.48 0 0 0 1.64 1.067 4.959 4.959 0 0 0 1.927.386 5.04 5.04 0 0 0 2.477-.639 5.067 5.067 0 0 0 1.871-1.739c.477-.734.716-1.571.716-2.51Zm-20.74 19.389c0-1.512.268-2.848.803-4.007.544-1.153 1.288-2.052 2.235-2.697.954-.646 2.04-.966 3.259-.958a5.992 5.992 0 0 1 2.642.561 5.765 5.765 0 0 1 2.036 1.563c.55.668.9 1.413 1.046 2.235h.132c.279-1.079.885-1.937 1.817-2.576.939-.638 2.007-.954 3.203-.947 1.145-.007 2.169.283 3.071.87.903.587 1.615 1.395 2.136 2.422.521 1.035.782 2.213.782 3.534 0 1.306-.26 2.473-.782 3.5-.521 1.028-1.233 1.835-2.136 2.422-.902.595-1.926.896-3.071.903-1.196-.007-2.264-.334-3.203-.98-.933-.638-1.538-1.486-1.817-2.543h-.132a4.644 4.644 0 0 1-1.046 2.202 5.931 5.931 0 0 1-2.036 1.563 6.127 6.127 0 0 1-2.642.595c-1.219-.008-2.305-.338-3.259-.991-.947-.646-1.691-1.545-2.235-2.697-.535-1.145-.803-2.47-.803-3.974Zm2.422 0c0 1.02.165 1.901.495 2.642.33.741.796 1.313 1.398 1.717.602.404 1.306.609 2.114.617.851-.008 1.603-.228 2.256-.661.654-.433 1.167-1.024 1.542-1.772.374-.742.561-1.589.561-2.543 0-.962-.187-1.82-.561-2.576-.375-.749-.888-1.34-1.541-1.773-.654-.425-1.406-.634-2.257-.627-.808-.007-1.512.187-2.114.583-.602.404-1.068.98-1.398 1.729-.33.748-.495 1.636-.495 2.664Zm10.7 0c0 .807.161 1.523.484 2.146a3.684 3.684 0 0 0 1.354 1.487c.58.359 1.259.543 2.037.55.763-.007 1.427-.187 1.993-.539a3.505 3.505 0 0 0 1.32-1.465c.316-.623.474-1.35.474-2.179 0-.844-.158-1.582-.474-2.213a3.415 3.415 0 0 0-1.32-1.464c-.566-.345-1.23-.514-1.993-.507-.778-.007-1.457.166-2.037.518a3.681 3.681 0 0 0-1.354 1.486c-.323.631-.484 1.358-.484 2.18Z"/></g><path stroke="#000" stroke-dasharray="12 12" d="M124.5 0v350"/></g><defs><clipPath id="b"><path fill="#fff" d="M4 0h120v350H4z"/></clipPath><filter id="a" width="129" height="358" x="0" y="0" color-interpolation-filters="sRGB" filterUnits="userSpaceOnUse"><feFlood flood-opacity="0" result="BackgroundImageFix"/><feColorMatrix in="SourceAlpha" result="hardAlpha" values="0 0 0 0 0 0 0 0 0 0 0 0 0 0 0 0 0 0 127 0"/><feOffset dy="4"/><feGaussianBlur stdDeviation="2"/><feComposite in2="hardAlpha" operator="out"/><feColorMatrix values="0 0 0 0 0 0 0 0 0 0 0 0 0 0 0 0 0 0 0.25 0"/><feBlend in2="BackgroundImageFix" result="effect1_dropShadow_22_38"/><feBlend in="SourceGraphic" in2="effect1_dropShadow_22_38" result="shape"/></filter></defs></svg>