<svg xmlns="http://www.w3.org/2000/svg" width="121" height="350" fill="none" viewBox="0 0 121 350"><g clip-path="url(#a)"><path fill="red" d="M120 0H0v350h120V0Z"/><path fill="#FF0" d="M38 34.358c.11-.79.2-1.59.33-2.38.5-3.11 1.69-5.94 3.47-8.53 2.69-3.92 6.3-6.66 10.76-8.25 3.03-1.08 6.16-1.39 9.36-1.09 3.99.37 7.57 1.78 10.78 4.16 3.9 2.9 6.53 6.7 7.92 11.34.89 2.98 1.08 6.04.65 9.11-.85 6.07-3.86 10.88-8.69 14.57-1.75 1.34-3.72 2.3-5.81 3.01-.96.33-1.61-.13-1.61-1.14v-5.65c0-.94-.06-1.88-.46-2.74-.24-.5-.57-.96-.86-1.44.79-.15 1.66-.26 2.49-.47 2.21-.57 4.2-1.55 5.54-3.5.98-1.41 1.43-3.03 1.63-4.72.15-1.28.2-2.57-.05-3.84a7.826 7.826 0 0 0-1.84-3.76c-.17-.2-.2-.36-.12-.6.63-1.79.38-3.54-.28-5.26-.04-.11-.22-.21-.35-.22-.76-.11-1.47.11-2.13.42-1.1.52-2.16 1.11-3.24 1.65-.19.1-.46.16-.66.11a20.56 20.56 0 0 0-10.16 0c-.2.05-.48 0-.66-.12-1.38-.88-2.84-1.58-4.42-2-.03 0-.05-.02-.08-.02-1.01-.21-1.19-.1-1.49.9-.45 1.54-.53 3.08 0 4.63.04.12 0 .34-.08.44-1.82 2.07-2.24 4.53-1.99 7.18.15 1.55.51 3.03 1.21 4.43.98 1.97 2.64 3.17 4.64 3.86 1.19.41 2.47.58 3.7.86.07.01.13.02.14.02-.32.58-.64 1.14-.94 1.73-.1.2-.18.43-.19.65-.02.46-.26.67-.67.78-1.38.37-2.74.61-4.06-.19-.69-.42-1.21-1.02-1.61-1.71-.63-1.07-1.5-1.85-2.69-2.2-.44-.13-.94-.09-1.41-.07-.29.02-.38.25-.19.49s.38.52.64.66c1.17.68 1.82 1.75 2.35 2.93.3.67.58 1.34 1.15 1.86.91.82 2.02 1.13 3.2 1.18 1.02.05 2.05 0 3.14 0v2.05c0 .55.02 1.1.02 1.66 0 1.02-.67 1.51-1.64 1.18-3.21-1.09-6.04-2.82-8.41-5.25-2.3-2.36-4.05-5.07-5.14-8.2-.61-1.77-.97-3.6-1.11-5.47-.03-.16-.06-.33-.08-.49v-2.55Zm10.67 59.498c0-1.524.337-2.838 1.01-3.944.68-1.098 1.627-1.946 2.842-2.543 1.222-.59 2.643-.886 4.264-.886 1.62 0 3.048.295 4.284.886 1.242.597 2.21 1.428 2.904 2.492.7 1.07 1.05 2.32 1.05 3.748a7.5 7.5 0 0 1-.412 2.441 6.048 6.048 0 0 1-1.339 2.194c-.61.659-1.42 1.184-2.43 1.575-1.01.392-2.252.587-3.728.587h-1.03V88.213h2.101v9.722c.893 0 1.689-.179 2.39-.536.7-.35 1.252-.851 1.657-1.503.405-.646.608-1.408.608-2.287 0-.968-.24-1.805-.721-2.512a4.741 4.741 0 0 0-1.854-1.617 5.445 5.445 0 0 0-2.45-.567h-1.401c-1.195 0-2.207.206-3.038.618-.824.419-1.452 1-1.885 1.74-.425.742-.638 1.604-.638 2.585 0 .639.089 1.216.267 1.73.186.522.46.972.824 1.35.371.377.831.67 1.38.875l-.659 2.348a5.205 5.205 0 0 1-2.1-1.246c-.598-.584-1.065-1.304-1.401-2.163-.33-.858-.495-1.822-.495-2.894Zm21.42 12.678H49v-2.431h21.09v2.431Zm-5.272 17.386L49 118.07v-2.471l15.818-5.85v2.637l-12.605 4.366v.165l12.605 4.366v2.637Zm0 16.142L49 134.213v-2.472l15.818-5.849v2.636l-12.605 4.367v.165l12.605 4.366v2.636ZM49 143.27h15.818v2.431H49v-2.431Zm18.454 1.236c0-.474.162-.882.485-1.225a1.55 1.55 0 0 1 1.163-.505c.453 0 .841.168 1.164.505.323.343.484.751.484 1.225 0 .474-.161.879-.484 1.215-.323.344-.71.515-1.164.515-.453 0-.84-.171-1.163-.515a1.69 1.69 0 0 1-.484-1.215ZM49 150.152h15.818v2.348H62.43v.165c.783.288 1.418.81 1.905 1.565.488.755.731 1.607.731 2.554 0 .179-.003.402-.01.67a9.67 9.67 0 0 1-.03.607h-2.472c.02-.082.051-.271.092-.566a5.59 5.59 0 0 0 .072-.917c0-.769-.161-1.455-.484-2.059a3.654 3.654 0 0 0-1.318-1.422c-.556-.343-1.191-.514-1.905-.514H49v-2.431Zm-.37 15.445c0-1.002.188-1.912.566-2.729a4.678 4.678 0 0 1 1.658-1.946c.727-.481 1.606-.721 2.636-.721.906 0 1.64.178 2.204.535.57.357 1.016.834 1.339 1.432.322.597.563 1.256.72 1.977.165.728.296 1.459.392 2.194.123.961.216 1.74.278 2.337.069.604.182 1.044.34 1.318.158.282.432.423.824.423h.082c1.016 0 1.806-.278 2.369-.835.563-.549.844-1.383.844-2.502 0-1.16-.254-2.07-.762-2.729-.508-.659-1.05-1.123-1.627-1.39l.824-2.307c.96.412 1.71.961 2.245 1.648.542.693.92 1.448 1.133 2.265.22.824.33 1.634.33 2.431a9.62 9.62 0 0 1-.186 1.75 5.605 5.605 0 0 1-.731 1.926c-.371.625-.93 1.143-1.679 1.555-.748.412-1.75.618-3.007.618H49v-2.43h2.142v-.124c-.343-.165-.71-.439-1.102-.824-.391-.384-.724-.896-.999-1.534-.274-.639-.412-1.418-.412-2.338Zm2.182.371c0 .961.19 1.771.567 2.43.378.666.865 1.167 1.462 1.504a3.73 3.73 0 0 0 1.885.515h2.224c-.123-.103-.237-.33-.34-.68a11.465 11.465 0 0 1-.257-1.195c-.069-.446-.13-.882-.185-1.308-.048-.418-.09-.758-.124-1.019a9.27 9.27 0 0 0-.402-1.771c-.178-.543-.45-.982-.813-1.319-.357-.329-.845-.494-1.462-.494-.845 0-1.483.313-1.916.937-.426.632-.639 1.432-.639 2.4Z"/></g><path stroke="#000" stroke-dasharray="12 12" d="M120.5 0v350"/><defs><clipPath id="a"><path fill="#fff" d="M0 0h120v350H0z"/></clipPath></defs></svg>