<svg xmlns="http://www.w3.org/2000/svg" width="83" height="34" fill="none" viewBox="0 0 83 34"><g clip-path="url(#a)"><path fill="red" stroke="#000" stroke-miterlimit="10" d="M82.778.223H.221v33.554h82.557V.223Z"/><path fill="#FF0" d="m12.662 18.538 2.153 2.115v3.424c0 .333-.066.658-.199.97a2.567 2.567 0 0 1-1.365 1.371c-.31.134-.629.2-.965.2H9.729c-.717 0-1.32-.244-1.803-.73l-1.78-1.736a2.693 2.693 0 0 1-.927-.944 2.543 2.543 0 0 1-.35-1.322V9.096c0-.37.067-.713.2-1.033a2.51 2.51 0 0 1 .562-.833c.244-.236.523-.423.838-.565.319-.143.66-.214 1.027-.214h2.557c.483 0 .917.111 1.302.338.386.227.691.535.926.917l1.781 1.737a2.51 2.51 0 0 1 .754 1.838v3.397h-3.38l-.852-.832v4.532h2.078v.161Zm-.5.352h-2.53c0 .17.013.396.035.681.027.285.027.566 0 .841a1.861 1.861 0 0 1-.212.73c-.116.21-.32.317-.603.317-.252 0-.47-.058-.651-.178-.186-.116-.275-.32-.275-.606v-10.4c0-.2.075-.378.226-.53a.723.723 0 0 1 .527-.227c.35 0 .598.09.74.263.142.178.23.396.262.654a3.27 3.27 0 0 1 0 .833 6.586 6.586 0 0 0-.05.792h2.53V9.091c0-.588-.203-1.09-.615-1.51a2.006 2.006 0 0 0-1.489-.627H7.501c-.585 0-1.086.21-1.502.628a2.063 2.063 0 0 0-.625 1.509v12.79c0 .588.208 1.087.625 1.497.416.41.917.618 1.502.618h2.556c.567 0 1.06-.209 1.48-.627.42-.419.625-.913.625-1.487v-2.997.005Zm4.51 5.262a2.554 2.554 0 0 1-.94-.944 2.588 2.588 0 0 1-.363-1.349V9.095c0-.369.067-.712.2-1.032a2.51 2.51 0 0 1 .562-.833c.244-.236.523-.423.838-.565.319-.143.66-.214 1.028-.214h2.53c.482 0 .921.116 1.315.352.395.236.705.547.94.93l1.754 1.714c.235.236.42.508.563.82.141.311.212.65.212 1.019V24.05c0 .351-.066.685-.2.993a2.57 2.57 0 0 1-1.364 1.371c-.31.133-.638.2-.988.2h-2.53a2.43 2.43 0 0 1-1.78-.73l-1.782-1.736.005.004Zm5.99-15.057c0-.587-.208-1.09-.625-1.509a2.043 2.043 0 0 0-1.502-.627h-2.53c-.584 0-1.085.209-1.501.627a2.063 2.063 0 0 0-.625 1.51v12.763c0 .588.208 1.091.625 1.51.416.418.917.627 1.502.627h2.53c.584 0 1.085-.209 1.501-.627.417-.419.625-.922.625-1.51V9.095Zm-2.53 11.58c0 .218-.07.4-.217.543a.75.75 0 0 1-.545.214h-.177a.736.736 0 0 1-.762-.757v-10.4a.75.75 0 0 1 .217-.552.727.727 0 0 1 .545-.227h.177c.222 0 .403.076.545.227a.76.76 0 0 1 .217.552v10.4ZM33.96 6.455v.152l2.153 2.115v17.901h-3.38l-1.104-1.082v1.082h-3.38l-2.153-2.115h-.151V6.455h3.38l.049.2 1.054 1.007V6.455h3.531Zm-3.03.504v5.565l-1.955-5.565h-2.53v17.046h2.53V13.102c.133.405.301.842.5 1.322.2.477.4.967.59 1.46.19.495.368.985.527 1.461.16.476.27.917.337 1.322.067.37.102.78.11 1.233.01.455 0 .918-.013 1.398-.017.477-.035.953-.061 1.425-.027.472-.036.9-.036 1.282h2.53V6.96h-2.53Zm13.1-.504v.152l2.153 2.115v3.396h-1.927v14.505h-3.407l-2.153-2.115h-.151V11.767l-1.781-1.763h-.15V6.455h7.416Zm-6.916.504V9.5h1.927v14.504h2.556V9.501h1.928V6.959h-6.416.005Zm9.725 17.545h-.15V9.095c0-.369.066-.712.199-1.032.133-.32.323-.597.562-.833.244-.236.523-.423.838-.565.319-.143.66-.214 1.028-.214h2.53c.482 0 .92.116 1.315.352.394.236.705.547.94.93l1.754 1.714c.235.236.42.508.563.82.141.311.212.65.212 1.019v15.333h-3.407l-.828-.806v.806h-3.407l-2.154-2.115h.005ZM53.98 9.095c0-.587-.209-1.09-.625-1.509a2.043 2.043 0 0 0-1.502-.627h-2.53c-.584 0-1.085.209-1.502.627a2.063 2.063 0 0 0-.624 1.51V24h2.556v-5.966h1.706V24h2.53V9.095h-.01Zm-4.236 6.394v-5.214c0-.2.076-.378.23-.53a.736.736 0 0 1 .537-.227h.177c.204 0 .38.076.536.227.15.152.23.33.23.53v5.214h-1.71Zm15.791 3.049 2.154 2.115v3.424c0 .333-.067.658-.2.97a2.568 2.568 0 0 1-1.365 1.371c-.31.134-.628.2-.965.2h-2.557c-.717 0-1.32-.244-1.803-.73l-1.78-1.736a2.693 2.693 0 0 1-.927-.944 2.543 2.543 0 0 1-.35-1.322V9.096c0-.37.067-.713.2-1.033a2.51 2.51 0 0 1 .562-.833c.244-.236.523-.423.838-.565.319-.143.66-.214 1.027-.214h2.557c.483 0 .917.111 1.302.338.386.227.692.535.926.917l1.781 1.737a2.51 2.51 0 0 1 .754 1.838v3.397h-3.38l-.851-.832v4.532h2.077v.161Zm-.5.352h-2.53c0 .17.013.396.035.681.027.285.027.566 0 .841a1.861 1.861 0 0 1-.212.73c-.116.21-.32.317-.603.317-.252 0-.47-.058-.651-.178-.186-.116-.275-.32-.275-.606v-10.4c0-.2.075-.378.226-.53a.723.723 0 0 1 .527-.227c.35 0 .599.09.74.263.142.178.23.396.262.654.035.263.035.54 0 .833a6.576 6.576 0 0 0-.05.792h2.53V9.091c0-.588-.203-1.09-.615-1.51a2.007 2.007 0 0 0-1.489-.627h-2.556c-.585 0-1.086.21-1.502.628a2.063 2.063 0 0 0-.625 1.509v12.79c0 .588.209 1.087.625 1.497.416.41.917.618 1.502.618h2.556c.567 0 1.06-.209 1.48-.627.42-.419.625-.913.625-1.487v-2.997.005ZM75.584 6.455v.152l2.153 2.115v3.396H75.81v14.505h-3.407l-2.154-2.115h-.15V11.767l-1.781-1.763h-.151V6.455h7.417Zm-6.916.504V9.5h1.927v14.504h2.556V9.501h1.928V6.959h-6.416.005Z"/></g><defs><clipPath id="a"><path fill="#fff" d="M0 0h83v34H0z"/></clipPath></defs></svg>