<svg xmlns="http://www.w3.org/2000/svg" width="939" height="354" fill="none" viewBox="0 0 939 354"><g clip-path="url(#a)"><path fill="red" stroke="#000" stroke-miterlimit="10" stroke-width="2" d="M937.96 1H1v351h936.96V1Z"/><path fill="red" d="M936.97 4H3.08v350h933.89V4Z"/><path stroke="#000" stroke-miterlimit="10" d="M935.52 351.42h-6"/><path stroke="#000" stroke-dasharray="12 12" stroke-miterlimit="10" d="M917.54 351.42H12.95"/><path stroke="#000" stroke-miterlimit="10" d="M6.96 351.42h-6"/></g><g fill="#FF0" clip-path="url(#b)"><path d="m151.415 198.652 23.876 23.383v37.856a27.08 27.08 0 0 1-2.211 10.732c-1.473 3.446-3.537 6.449-6.091 9.058-2.604 2.609-5.601 4.627-9.04 6.104-3.439 1.477-6.976 2.215-10.71 2.215h-28.346c-7.959 0-14.64-2.707-19.995-8.073l-19.75-19.199c-4.273-2.609-7.663-6.055-10.267-10.436-2.604-4.381-3.881-9.255-3.881-14.621V94.241c0-4.086.737-7.876 2.21-11.42 1.475-3.545 3.587-6.597 6.24-9.206 2.702-2.61 5.797-4.677 9.285-6.252C86.272 65.788 90.055 65 94.133 65h28.346c5.355 0 10.17 1.23 14.444 3.741 4.274 2.51 7.664 5.908 10.267 10.141l19.75 19.199c5.551 5.562 8.351 12.356 8.351 20.331v37.56h-37.484l-9.433-9.205v50.113h23.041v1.772Zm-5.551 3.889h-28.052c0 1.871.147 4.382.393 7.532a49.014 49.014 0 0 1 0 9.304c-.295 3.052-1.081 5.76-2.358 8.073-1.277 2.314-3.537 3.495-6.681 3.495-2.801 0-5.208-.639-7.222-1.969-2.064-1.28-3.046-3.544-3.046-6.695V107.336c0-2.216.835-4.185 2.505-5.859 1.671-1.673 3.636-2.51 5.847-2.51 3.881 0 6.632.984 8.204 2.904 1.572 1.969 2.555 4.382 2.898 7.237.393 2.904.393 5.956 0 9.205a72.643 72.643 0 0 0-.54 8.763h28.052V94.241c0-6.498-2.26-12.06-6.829-16.688-4.52-4.627-10.071-6.941-16.507-6.941H94.182c-6.485 0-12.037 2.314-16.654 6.941-4.619 4.627-6.928 10.19-6.928 16.688v141.43c0 6.498 2.31 12.012 6.928 16.541 4.617 4.529 10.169 6.842 16.654 6.842h28.346c6.289 0 11.742-2.313 16.409-6.941 4.667-4.627 6.927-10.091 6.927-16.442v-33.13Zm50.012 58.187c-4.274-2.412-7.713-5.907-10.415-10.436-2.702-4.529-4.029-9.501-4.029-14.916V94.241c0-4.086.737-7.876 2.211-11.42 1.474-3.545 3.586-6.597 6.239-9.206 2.702-2.61 5.797-4.677 9.285-6.252 3.537-1.575 7.32-2.363 11.398-2.363h28.052c5.354 0 10.218 1.28 14.59 3.889 4.373 2.609 7.812 6.055 10.415 10.288l19.455 18.953c2.604 2.609 4.667 5.612 6.239 9.058 1.572 3.446 2.358 7.187 2.358 11.273v141.135c0 3.889-.737 7.581-2.211 10.977-1.473 3.446-3.537 6.449-6.091 9.058-2.604 2.609-5.601 4.628-9.04 6.105-3.439 1.476-7.074 2.215-10.955 2.215h-28.052c-7.762 0-14.345-2.708-19.749-8.074l-19.75-19.198.05.049Zm66.371-166.487c0-6.498-2.309-12.06-6.927-16.688-4.618-4.627-10.17-6.941-16.654-6.941h-28.052c-6.485 0-12.036 2.314-16.654 6.941s-6.927 10.19-6.927 16.688v141.135c0 6.498 2.309 12.061 6.927 16.688 4.618 4.627 10.169 6.941 16.654 6.941h28.052c6.484 0 12.036-2.314 16.654-6.941s6.927-10.19 6.927-16.688V94.241Zm-28.052 128.04c0 2.413-.786 4.431-2.407 6.006-1.621 1.575-3.636 2.363-6.043 2.363h-1.965c-2.456 0-4.471-.788-6.043-2.363-1.621-1.575-2.407-3.593-2.407-6.006V107.336c0-2.413.786-4.48 2.407-6.105 1.622-1.673 3.636-2.51 6.043-2.51h1.965c2.457 0 4.471.837 6.043 2.51 1.621 1.674 2.407 3.692 2.407 6.105v114.995-.05ZM387.571 65v1.674l23.876 23.383V288h-37.484l-12.233-11.962V288h-37.484l-23.876-23.383h-1.671V65h37.485l.54 2.215 11.692 11.126V65h39.155Zm-33.603 5.563v61.534l-21.665-61.534h-28.052v188.491h28.052V138.496c1.473 4.48 3.34 9.304 5.551 14.621a609.125 609.125 0 0 1 6.534 16.147 381.95 381.95 0 0 1 5.846 16.146c1.769 5.267 2.997 10.141 3.734 14.621.737 4.086 1.13 8.614 1.228 13.636.098 5.021 0 10.141-.147 15.457-.197 5.267-.393 10.535-.688 15.753a249.918 249.918 0 0 0-.393 14.177h28.052V70.563h-28.052ZM499.238 65v1.674l23.876 23.383v37.56h-21.371V288h-37.779l-23.876-23.383h-1.67V123.728l-19.749-19.494h-1.67V65h82.239Zm-76.688 5.563V98.67h21.37v160.383h28.347V98.672h21.37v-28.11h-71.136.049Zm107.835 194.054h-1.671V94.241c0-4.086.737-7.876 2.211-11.42 1.474-3.545 3.586-6.597 6.239-9.206 2.702-2.61 5.797-4.677 9.285-6.252 3.538-1.575 7.32-2.363 11.398-2.363h28.052c5.355 0 10.218 1.28 14.591 3.889 4.372 2.609 7.811 6.055 10.415 10.288l19.454 18.953c2.604 2.609 4.667 5.612 6.239 9.058 1.572 3.446 2.358 7.187 2.358 11.273V288h-37.779l-9.186-8.91V288h-37.779l-23.876-23.383h.049Zm79.144-170.376c0-6.498-2.309-12.06-6.927-16.688-4.618-4.627-10.169-6.941-16.654-6.941h-28.052c-6.485 0-12.036 2.314-16.654 6.941s-6.927 10.19-6.927 16.688v164.813h28.346V193.09h18.915v65.964h28.051V94.241h-.098Zm-46.966 70.691v-57.646c0-2.215.835-4.184 2.555-5.858 1.67-1.674 3.684-2.51 5.944-2.51h1.965c2.26 0 4.225.836 5.945 2.51 1.67 1.674 2.554 3.643 2.554 5.858v57.646h-18.963Zm175.14 33.72 23.876 23.383v37.856a27.08 27.08 0 0 1-2.211 10.732c-1.474 3.446-3.537 6.449-6.092 9.058-2.603 2.609-5.6 4.627-9.039 6.104-3.439 1.477-6.976 2.215-10.71 2.215H705.18c-7.958 0-14.64-2.707-19.994-8.073l-19.75-19.199c-4.274-2.609-7.664-6.055-10.267-10.436-2.604-4.381-3.881-9.255-3.881-14.621V94.241c0-4.086.737-7.876 2.21-11.42 1.474-3.545 3.587-6.597 6.24-9.206 2.702-2.61 5.797-4.677 9.285-6.252C672.56 65.788 676.343 65 680.42 65h28.347c5.355 0 10.169 1.23 14.443 3.741 4.274 2.51 7.664 5.908 10.268 10.141l19.749 19.199c5.552 5.562 8.352 12.356 8.352 20.331v37.56h-37.484l-9.433-9.205v50.113h23.041v1.772Zm-5.552 3.889H704.1c0 1.871.147 4.382.393 7.532a49.18 49.18 0 0 1 0 9.304c-.295 3.052-1.081 5.76-2.358 8.073-1.278 2.314-3.538 3.495-6.682 3.495-2.8 0-5.207-.639-7.222-1.969-2.063-1.28-3.045-3.544-3.045-6.695V107.336c0-2.216.835-4.185 2.505-5.859 1.67-1.673 3.636-2.51 5.846-2.51 3.881 0 6.632.984 8.205 2.904 1.572 1.969 2.554 4.382 2.898 7.237.393 2.904.393 5.956 0 9.205a72.643 72.643 0 0 0-.54 8.763h28.051V94.241c0-6.498-2.259-12.06-6.828-16.688-4.52-4.627-10.071-6.941-16.507-6.941h-28.347c-6.484 0-12.036 2.314-16.654 6.941s-6.927 10.19-6.927 16.688v141.43c0 6.498 2.309 12.012 6.927 16.541 4.618 4.529 10.17 6.842 16.654 6.842h28.347c6.288 0 11.741-2.313 16.408-6.941 4.668-4.627 6.927-10.091 6.927-16.442v-33.13ZM849.124 65v1.674L873 90.057v37.56h-21.37V288h-37.779l-23.876-23.383h-1.671V123.728l-19.749-19.494h-1.67V65h82.239Zm-76.688 5.563V98.67h21.371v160.383h28.346V98.672h21.371v-28.11h-71.137.049Z"/></g><defs><clipPath id="a"><path fill="#fff" d="M0 0h938.96v354H0z"/></clipPath><clipPath id="b"><path fill="#fff" d="M65 65h808v223H65z"/></clipPath></defs></svg>