<svg xmlns="http://www.w3.org/2000/svg" width="121" height="350" fill="none" viewBox="0 0 121 350"><g clip-path="url(#a)"><path fill="red" d="M120 0H0v350h120V0Z"/><path fill="#FF0" d="M36.01 22.04c4.35 4.05 8.7 8.09 13.04 12.14.63.59 1.26 1.17 1.93 1.8-4.93 4.75-9.85 9.48-14.78 14.23-.08-.15-.14-.25-.2-.35V22.05l.01-.01Zm47.27-3.52c-7.61 7.33-15.18 14.62-22.77 21.94-7.73-7.21-15.43-14.4-23.17-21.62.51-.47 1.09-.71 1.74-.8.25-.04.51-.04.76-.04h41.41c.69 0 1.36.1 2.02.52h.01Z"/><path fill="#FF0" d="M67.73 37.95c5.17 4.83 10.3 9.62 15.53 14.5-.51.15-.93.29-1.36.37-.26.05-.54.03-.81.03H39.95c-.51 0-1.02-.09-1.53-.14 0-.05 0-.09-.01-.14 4.97-4.8 9.95-9.59 14.94-14.41.17.16.32.29.47.43l5.38 5.02c.93.87 1.72.87 2.63 0 1.83-1.75 3.65-3.51 5.48-5.27.12-.12.25-.23.42-.39ZM70 35.72 84.86 21.4v28.2c-4.97-4.64-9.89-9.24-14.86-13.88ZM59.705 92.94c0-1.366.301-2.545.904-3.536.61-.985 1.46-1.745 2.549-2.28 1.095-.53 2.37-.794 3.822-.794 1.453 0 2.733.264 3.841.794 1.114.535 1.982 1.28 2.604 2.234.628.96.942 2.08.942 3.36 0 .74-.124 1.469-.37 2.189a5.423 5.423 0 0 1-1.2 1.967c-.548.59-1.274 1.061-2.18 1.412-.904.351-2.018.526-3.341.526h-.924v-10.93h1.884v8.716c.8 0 1.514-.16 2.142-.48a3.617 3.617 0 0 0 1.486-1.349c.364-.578.545-1.261.545-2.05 0-.867-.215-1.618-.646-2.252a4.252 4.252 0 0 0-1.662-1.45 4.883 4.883 0 0 0-2.198-.508h-1.255c-1.071 0-1.98.185-2.724.555-.739.375-1.302.895-1.69 1.56-.381.665-.572 1.437-.572 2.317 0 .573.08 1.09.24 1.552.166.467.412.87.739 1.209.332.339.744.6 1.237.785l-.591 2.105a4.668 4.668 0 0 1-1.884-1.117c-.535-.523-.954-1.17-1.255-1.94-.296-.769-.444-1.633-.444-2.594Zm19.204 11.366H60v-2.179h18.91v2.179Zm-4.727 15.588L60 114.649v-2.216l14.182-5.244v2.364l-11.301 3.915v.147l11.3 3.915v2.364Zm0 14.472L60 129.122v-2.216l14.182-5.244v2.363L62.88 127.94v.148l11.3 3.915v2.363ZM60 137.242h14.182v2.179H60v-2.179Zm16.546 1.108c0-.424.144-.791.433-1.098.29-.302.638-.453 1.044-.453s.754.151 1.043.453c.29.307.434.674.434 1.098 0 .425-.145.788-.434 1.09a1.38 1.38 0 0 1-1.043.461 1.38 1.38 0 0 1-1.044-.461 1.519 1.519 0 0 1-.433-1.09ZM60 143.412h14.182v2.105H72.04v.148c.701.259 1.27.726 1.708 1.404.437.677.655 1.44.655 2.289 0 .16-.003.36-.009.6a8.004 8.004 0 0 1-.028.545h-2.215a6.53 6.53 0 0 0 .083-.508c.043-.258.064-.532.064-.821 0-.69-.144-1.305-.434-1.847a3.276 3.276 0 0 0-1.181-1.274c-.5-.308-1.068-.462-1.709-.462H60v-2.179Zm-.332 13.847c0-.898.169-1.714.507-2.446a4.196 4.196 0 0 1 1.487-1.745c.652-.431 1.44-.647 2.364-.647.812 0 1.47.16 1.975.48a3.39 3.39 0 0 1 1.2 1.284c.29.535.505 1.126.647 1.773.148.652.265 1.308.35 1.966.112.862.195 1.561.25 2.096.062.542.163.936.305 1.182.141.252.388.378.739.378h.073c.911 0 1.62-.249 2.124-.747.505-.493.757-1.241.757-2.244 0-1.04-.228-1.856-.683-2.447-.456-.591-.942-1.006-1.459-1.246l.739-2.068c.861.369 1.532.861 2.012 1.477a5.54 5.54 0 0 1 1.016 2.031c.197.739.296 1.465.296 2.179 0 .456-.056.979-.167 1.57a5.022 5.022 0 0 1-.655 1.726c-.333.56-.834 1.025-1.505 1.394-.671.37-1.57.554-2.696.554H60v-2.179h1.92v-.11c-.307-.148-.637-.394-.988-.739-.35-.345-.649-.803-.895-1.376-.246-.572-.37-1.271-.37-2.096Zm1.957.333c0 .862.17 1.588.508 2.179.338.597.775 1.046 1.31 1.348a3.338 3.338 0 0 0 1.69.461h1.995c-.111-.092-.213-.295-.305-.609a10.295 10.295 0 0 1-.23-1.071 45.28 45.28 0 0 1-.167-1.173 70.73 70.73 0 0 0-.11-.914 8.34 8.34 0 0 0-.36-1.588c-.16-.486-.404-.88-.73-1.181-.32-.296-.757-.444-1.311-.444-.757 0-1.33.28-1.718.841-.381.566-.572 1.283-.572 2.151Zm-1.773 11.733a1.6 1.6 0 0 1 .49-1.173 1.6 1.6 0 0 1 1.172-.489 1.6 1.6 0 0 1 1.173.489 1.6 1.6 0 0 1 .49 1.173 1.6 1.6 0 0 1-.49 1.172 1.6 1.6 0 0 1-1.173.49c-.301 0-.578-.077-.83-.231a1.729 1.729 0 0 1-.61-.6 1.587 1.587 0 0 1-.222-.831Zm-.147 11.333c0-1.33.314-2.474.941-3.435.628-.96 1.493-1.698 2.595-2.216 1.102-.517 2.36-.775 3.776-.775 1.44 0 2.712.265 3.813.794 1.108.535 1.973 1.28 2.595 2.234.628.961.942 2.081.942 3.361 0 .997-.185 1.896-.555 2.696a5.168 5.168 0 0 1-1.55 1.967c-.665.511-1.441.828-2.327.951v-2.179c.646-.166 1.218-.536 1.717-1.108.505-.566.757-1.33.757-2.29 0-.849-.222-1.594-.665-2.234-.437-.634-1.055-1.13-1.856-1.487-.794-.351-1.726-.526-2.797-.526-1.096 0-2.05.172-2.862.517-.813.351-1.444.843-1.893 1.477-.45.64-.674 1.391-.674 2.253 0 .566.098 1.08.295 1.542.197.462.48.852.85 1.173.37.32.812.547 1.33.683v2.179a5.05 5.05 0 0 1-2.263-.914c-.665-.48-1.194-1.118-1.588-1.912-.388-.787-.581-1.705-.581-2.751Zm-.037 12.935c0-.898.169-1.714.507-2.446a4.196 4.196 0 0 1 1.487-1.745c.652-.431 1.44-.647 2.364-.647.812 0 1.47.16 1.975.48a3.39 3.39 0 0 1 1.2 1.284c.29.535.505 1.126.647 1.773.148.652.265 1.308.35 1.966.112.862.195 1.561.25 2.096.062.542.163.936.305 1.182.141.252.388.378.739.378h.073c.911 0 1.62-.249 2.124-.747.505-.493.757-1.241.757-2.244 0-1.04-.228-1.856-.683-2.447-.456-.591-.942-1.006-1.459-1.246l.739-2.068c.861.369 1.532.861 2.012 1.477a5.54 5.54 0 0 1 1.016 2.031c.197.739.296 1.465.296 2.179 0 .456-.056.979-.167 1.57a5.022 5.022 0 0 1-.655 1.726c-.333.56-.834 1.025-1.505 1.394-.671.37-1.57.554-2.696.554H60v-2.179h1.92v-.11c-.307-.148-.637-.394-.988-.739-.35-.345-.649-.803-.895-1.376-.246-.572-.37-1.271-.37-2.096Zm1.957.333c0 .862.17 1.588.508 2.179.338.597.775 1.046 1.31 1.348a3.338 3.338 0 0 0 1.69.461h1.995c-.111-.092-.213-.295-.305-.609a10.323 10.323 0 0 1-.23-1.071 45.28 45.28 0 0 1-.167-1.173 70.73 70.73 0 0 0-.11-.914 8.34 8.34 0 0 0-.36-1.588c-.16-.486-.404-.88-.73-1.182-.32-.295-.757-.443-1.311-.443-.757 0-1.33.28-1.718.841-.381.566-.572 1.283-.572 2.151Zm9.38 20.19-.553-1.957a3.65 3.65 0 0 0 .95-.545c.315-.234.573-.554.776-.96.203-.407.305-.927.305-1.561 0-.868-.2-1.591-.6-2.17-.394-.572-.896-.858-1.505-.858-.542 0-.97.197-1.284.591-.313.394-.575 1.009-.784 1.846l-.517 2.105c-.308 1.268-.779 2.213-1.413 2.835-.628.622-1.437.932-2.428.932a3.598 3.598 0 0 1-2.18-.701c-.64-.462-1.144-1.108-1.514-1.939-.369-.831-.553-1.798-.553-2.899 0-1.447.314-2.644.941-3.592.628-.948 1.545-1.548 2.752-1.8l.517 2.068c-.764.197-1.336.569-1.718 1.117-.381.554-.572 1.277-.572 2.17 0 1.015.215 1.822.646 2.419.437.603.96.905 1.57.905.492 0 .905-.173 1.237-.517.339-.345.591-.874.757-1.588l.554-2.364c.308-1.299.785-2.253 1.431-2.862.653-.604 1.468-.905 2.447-.905.8 0 1.508.224 2.124.674.615.455 1.098 1.074 1.45 1.856.35.788.526 1.68.526 2.677 0 1.404-.308 2.505-.924 3.306-.615.806-1.428 1.378-2.437 1.717Zm3.177 9.706h-1.847v-7.349h1.847v7.349Zm3.397-5.207v2.179H64.063c-.616 0-1.078.089-1.385.267-.302.185-.505.419-.61.702a2.815 2.815 0 0 0-.148.914c0 .24.013.437.037.591l.074.369-1.957.444a4.44 4.44 0 0 1-.166-.619 4.55 4.55 0 0 1-.093-1.006c0-.616.133-1.219.397-1.81a3.594 3.594 0 0 1 1.21-1.459c.542-.381 1.225-.572 2.05-.572h14.107Zm-17.874 14.278c0-1.366.301-2.545.904-3.536.61-.985 1.46-1.745 2.549-2.28 1.095-.53 2.37-.794 3.822-.794 1.453 0 2.733.264 3.841.794 1.114.535 1.982 1.28 2.604 2.234.628.96.942 2.081.942 3.361a6.72 6.72 0 0 1-.37 2.188 5.428 5.428 0 0 1-1.2 1.967c-.548.591-1.274 1.061-2.18 1.412-.904.351-2.018.527-3.341.527h-.924v-10.932h1.884v8.716c.8 0 1.514-.16 2.142-.48a3.623 3.623 0 0 0 1.486-1.348c.364-.579.545-1.262.545-2.05 0-.868-.215-1.619-.646-2.253a4.254 4.254 0 0 0-1.662-1.45 4.889 4.889 0 0 0-2.198-.507h-1.255c-1.071 0-1.98.184-2.724.554-.739.375-1.302.895-1.69 1.56-.381.665-.572 1.437-.572 2.317 0 .573.08 1.09.24 1.552.166.467.412.871.739 1.209.332.339.744.6 1.237.785l-.591 2.105a4.674 4.674 0 0 1-1.884-1.117c-.535-.523-.954-1.17-1.255-1.939-.296-.769-.444-1.634-.444-2.595Zm19.204 11.366H60v-2.179h18.91v2.179Zm0 6.17H60v-2.179h18.91v2.179Zm-19.241 8.164c0-.898.169-1.714.507-2.446a4.196 4.196 0 0 1 1.487-1.745c.652-.431 1.44-.647 2.364-.647.812 0 1.47.16 1.975.48a3.39 3.39 0 0 1 1.2 1.284c.29.535.505 1.126.647 1.773.148.652.265 1.308.35 1.966.112.862.195 1.561.25 2.096.062.542.163.936.305 1.182.141.252.388.378.739.378h.073c.911 0 1.62-.249 2.124-.747.505-.493.757-1.241.757-2.244 0-1.04-.228-1.856-.683-2.447-.456-.591-.942-1.006-1.459-1.246l.739-2.068c.861.369 1.532.861 2.012 1.477a5.54 5.54 0 0 1 1.016 2.031c.197.739.296 1.465.296 2.179 0 .456-.056.979-.167 1.57a5.022 5.022 0 0 1-.655 1.726c-.333.56-.834 1.025-1.505 1.394-.671.37-1.57.554-2.696.554H60v-2.179h1.92v-.11c-.307-.148-.637-.394-.988-.739-.35-.345-.649-.803-.895-1.376-.246-.572-.37-1.271-.37-2.096Zm1.957.333c0 .862.17 1.588.508 2.179.338.597.775 1.046 1.31 1.348a3.338 3.338 0 0 0 1.69.461h1.995c-.111-.092-.213-.295-.305-.609a10.323 10.323 0 0 1-.23-1.071 45.28 45.28 0 0 1-.167-1.173 70.73 70.73 0 0 0-.11-.914 8.333 8.333 0 0 0-.36-1.588c-.16-.486-.404-.88-.73-1.182-.32-.295-.757-.443-1.311-.443-.757 0-1.33.28-1.718.841-.381.566-.572 1.283-.572 2.151Zm6.906 12.323H60v-2.179h14.182v2.106h-2.216v.184c.72.333 1.299.837 1.736 1.514.443.678.665 1.552.665 2.623 0 .96-.198 1.8-.591 2.52-.388.72-.98 1.281-1.773 1.681-.788.4-1.785.6-2.992.6H60v-2.179h8.864c1.114 0 1.982-.29 2.603-.868.628-.579.942-1.373.942-2.382 0-.696-.15-1.317-.452-1.865a3.237 3.237 0 0 0-1.32-1.284c-.58-.314-1.28-.471-2.106-.471Zm-8.827 18.792c0-1.28.305-2.404.915-3.37.609-.96 1.462-1.711 2.557-2.253 1.096-.536 2.376-.803 3.841-.803 1.477 0 2.767.267 3.869.803 1.101.542 1.957 1.293 2.566 2.253.61.966.915 2.09.915 3.37 0 1.28-.305 2.4-.915 3.361-.609.966-1.465 1.717-2.566 2.252-1.102.542-2.392.813-3.869.813-1.465 0-2.745-.271-3.84-.813-1.096-.535-1.949-1.286-2.558-2.252-.61-.961-.914-2.081-.914-3.361Zm1.958 0c0 .972.25 1.773.748 2.4.498.628 1.154 1.093 1.966 1.395a7.543 7.543 0 0 0 2.641.452 7.62 7.62 0 0 0 2.65-.452c.819-.302 1.48-.767 1.985-1.395.505-.627.757-1.428.757-2.4 0-.973-.252-1.773-.757-2.401-.505-.628-1.166-1.092-1.985-1.394a7.597 7.597 0 0 0-2.65-.452 7.52 7.52 0 0 0-2.64.452c-.813.302-1.469.766-1.967 1.394-.499.628-.748 1.428-.748 2.401Zm9.344 19.798-.554-1.958c.326-.123.643-.304.95-.545.315-.233.573-.554.776-.96.203-.406.305-.926.305-1.56 0-.868-.2-1.591-.6-2.17-.394-.572-.896-.859-1.505-.859-.542 0-.97.197-1.284.591-.313.394-.575 1.01-.784 1.847l-.517 2.105c-.308 1.268-.779 2.213-1.413 2.835-.628.621-1.437.932-2.428.932a3.6 3.6 0 0 1-2.18-.702c-.64-.461-1.144-1.108-1.514-1.939-.369-.83-.553-1.797-.553-2.899 0-1.446.314-2.643.941-3.591.628-.948 1.545-1.548 2.752-1.801l.517 2.068c-.764.197-1.336.57-1.718 1.118-.381.554-.572 1.277-.572 2.169 0 1.016.215 1.822.646 2.419.437.604.96.905 1.57.905.492 0 .905-.172 1.237-.517.339-.344.591-.874.757-1.588l.554-2.363c.308-1.299.785-2.253 1.431-2.863.653-.603 1.468-.905 2.447-.905.8 0 1.508.225 2.124.674.615.456 1.098 1.075 1.45 1.856.35.788.526 1.681.526 2.678 0 1.403-.308 2.505-.924 3.305-.615.807-1.428 1.379-2.437 1.718ZM37.932 92.932c0-1.16.159-2.184.477-3.074.315-.89.779-1.638 1.392-2.244.614-.606 1.366-1.065 2.256-1.375.89-.311 1.909-.466 3.057-.466 1.11 0 2.102.157 2.977.471.875.319 1.617.779 2.227 1.381a5.994 5.994 0 0 1 1.404 2.204c.322.868.483 1.849.483 2.944 0 1.064-.175 1.996-.523 2.795-.345.803-.813 1.474-1.404 2.011a5.882 5.882 0 0 1-1.983 1.217 6.483 6.483 0 0 1-2.272.408c-.55 0-1.106-.026-1.67-.079a6.331 6.331 0 0 1-1.558-.335A2.539 2.539 0 0 1 41.66 98c-.288-.352-.432-.83-.432-1.432 0-.265.042-.557.125-.875.084-.318.222-.6.415-.846.193-.247.453-.392.778-.438v-.068a2.02 2.02 0 0 1-1.096-1.153c-.118-.3-.169-.665-.154-1.097.02-.492.13-.926.33-1.301.205-.375.481-.69.83-.943a3.9 3.9 0 0 1 1.221-.569 5.793 5.793 0 0 1 1.506-.187c.511 0 .979.076 1.403.227a3.58 3.58 0 0 1 1.114.63c.318.274.572.592.761.955.193.368.313.764.358 1.188a3.17 3.17 0 0 1-.051 1.034c-.068.31-.172.566-.313.767-.136.2-.287.328-.454.38v.069h.636v1.205H43.5c-.318 0-.599.088-.84.266-.243.178-.364.438-.364.779 0 .386.132.682.397.886.265.209.674.35 1.227.426.553.08 1.262.12 2.125.12.508 0 1.008-.07 1.5-.21.497-.137.96-.345 1.392-.626a4.545 4.545 0 0 0 1.143-1.05 4.84 4.84 0 0 0 .772-1.495c.19-.568.284-1.214.284-1.938 0-.89-.138-1.687-.414-2.391a4.794 4.794 0 0 0-1.2-1.79c-.522-.489-1.158-.862-1.908-1.12-.747-.253-1.595-.38-2.546-.38-.966 0-1.824.127-2.574.38-.75.258-1.382.637-1.897 1.137-.516.504-.906 1.127-1.17 1.87-.27.742-.404 1.598-.404 2.567 0 .417.04.828.119 1.233.08.406.167.764.261 1.074.095.31.165.534.21.67l-1.045.319a7.005 7.005 0 0 1-.295-.92c-.099-.376-.18-.777-.245-1.205a8.109 8.109 0 0 1-.096-1.216Zm4.523-.66c0 .508.102.92.306 1.234.205.314.514.543.926.687.413.144.934.216 1.563.216.636 0 1.133-.08 1.489-.239.356-.159.606-.394.75-.704.144-.31.216-.693.216-1.148 0-.432-.114-.801-.341-1.108a2.154 2.154 0 0 0-.898-.699 3.054 3.054 0 0 0-1.216-.238 4.73 4.73 0 0 0-1.37.193 2.243 2.243 0 0 0-1.033.63c-.262.292-.392.684-.392 1.177Zm-4.91 12.462c0-.647.084-1.204.25-1.67.163-.466.38-.854.648-1.165a3.56 3.56 0 0 1 .852-.733l.75 1.068c-.159.122-.34.275-.545.461a2.325 2.325 0 0 0-.54.761c-.155.326-.233.752-.233 1.278 0 .705.17 1.286.512 1.745.34.458.875.687 1.602.687h1.773v-.113a7.34 7.34 0 0 1-.591-.421c-.231-.178-.438-.436-.62-.773-.178-.333-.267-.784-.267-1.352 0-.704.167-1.337.5-1.898.334-.556.819-.998 1.455-1.323.636-.322 1.409-.483 2.318-.483.894 0 1.672.157 2.335.471.667.315 1.182.752 1.546 1.313.367.56.55 1.208.55 1.943 0 .568-.094 1.019-.283 1.352-.186.337-.398.595-.637.773a8.82 8.82 0 0 1-.58.42v.137h1.387v1.295H40.75c-.75 0-1.36-.17-1.83-.511a2.912 2.912 0 0 1-1.04-1.364 5.155 5.155 0 0 1-.335-1.898Zm4.796-.045c0 .538.123.992.37 1.364.245.371.6.653 1.062.846.462.193 1.015.29 1.659.29.629 0 1.183-.095 1.665-.284.48-.19.858-.47 1.13-.841.273-.371.41-.83.41-1.375 0-.568-.145-1.042-.432-1.421a2.625 2.625 0 0 0-1.16-.846 4.473 4.473 0 0 0-1.613-.279c-.606 0-1.142.095-1.608.285a2.46 2.46 0 0 0-1.091.852c-.261.379-.392.848-.392 1.409ZM41 110.962h8.727v1.295h-1.363v.114c.466.182.827.475 1.085.88.261.406.392.892.392 1.461 0 .575-.13 1.055-.392 1.437a2.56 2.56 0 0 1-1.085.904v.09c.45.224.808.559 1.074 1.006.268.447.403.983.403 1.608 0 .78-.244 1.419-.733 1.915-.485.496-1.24.744-2.267.744H41v-1.341h5.84c.645 0 1.105-.176 1.382-.528.276-.352.414-.767.414-1.244 0-.614-.185-1.089-.556-1.427-.368-.337-.834-.505-1.398-.505H41v-1.364h5.977c.497 0 .896-.161 1.2-.483.306-.322.46-.737.46-1.244 0-.349-.093-.674-.279-.977a2.102 2.102 0 0 0-.773-.728 2.279 2.279 0 0 0-1.13-.272H41v-1.341Zm-.205 16.474c0-.553.105-1.055.313-1.506.212-.45.517-.808.915-1.073.401-.266.886-.398 1.454-.398.5 0 .906.098 1.216.295.315.197.56.46.739.79.178.33.31.693.398 1.091.09.401.162.805.215 1.21.069.53.12.96.154 1.29.038.333.1.576.187.727.087.156.239.233.455.233h.045c.561 0 .997-.153 1.307-.46.31-.303.466-.763.466-1.381 0-.64-.14-1.142-.42-1.505-.28-.364-.58-.62-.898-.767l.454-1.273c.53.227.944.53 1.24.909.298.382.507.799.624 1.25.121.454.182.901.182 1.341 0 .28-.034.602-.102.966a3.092 3.092 0 0 1-.404 1.062c-.204.345-.513.631-.926.858-.413.227-.966.341-1.659.341H41v-1.341h1.182v-.068a2.345 2.345 0 0 1-.608-.455 2.621 2.621 0 0 1-.551-.846c-.152-.352-.228-.782-.228-1.29Zm1.205.205c0 .53.104.977.313 1.341a2.131 2.131 0 0 0 1.846 1.113h1.227c-.068-.057-.13-.182-.187-.375a6.29 6.29 0 0 1-.142-.659 29.629 29.629 0 0 1-.17-1.284 5.137 5.137 0 0 0-.222-.977 1.685 1.685 0 0 0-.45-.728c-.196-.181-.465-.272-.806-.272-.466 0-.818.172-1.057.517-.235.348-.352.79-.352 1.324Zm-1 6.243h8.727v1.34H41v-1.34Zm10.182.681c0-.261.089-.486.267-.676a.86.86 0 0 1 .642-.278.86.86 0 0 1 .642.278c.178.19.267.415.267.676a.935.935 0 0 1-.267.671.851.851 0 0 1-.642.284.851.851 0 0 1-.642-.284.934.934 0 0 1-.267-.671Zm1.454 4.456H41v-1.341h11.636v1.341Zm-11.727 3.434c0-.281.1-.521.301-.722a.983.983 0 0 1 .722-.301c.28 0 .52.1.721.301a.984.984 0 0 1 .302.722c0 .28-.1.52-.302.721a.983.983 0 0 1-.721.301.96.96 0 0 1-.512-.142 1.062 1.062 0 0 1-.375-.369.975.975 0 0 1-.136-.511Zm-.09 6.974c0-.818.192-1.523.579-2.114a3.774 3.774 0 0 1 1.596-1.363c.678-.318 1.453-.478 2.324-.478.887 0 1.669.163 2.347.489.682.33 1.214.788 1.596 1.375.387.591.58 1.28.58 2.068a3.91 3.91 0 0 1-.341 1.659 3.18 3.18 0 0 1-.955 1.211 2.982 2.982 0 0 1-1.431.585v-1.341c.397-.102.75-.33 1.056-.682.311-.348.466-.818.466-1.409 0-.523-.136-.981-.409-1.375-.269-.39-.65-.695-1.142-.915-.488-.216-1.062-.324-1.721-.324-.675 0-1.262.106-1.762.319-.5.215-.888.518-1.164.909-.277.394-.415.856-.415 1.386 0 .348.06.665.181.949.122.284.296.524.523.721a2 2 0 0 0 .819.421v1.341a3.101 3.101 0 0 1-2.37-1.739c-.239-.485-.358-1.049-.358-1.693Zm0 8.937c0-.787.187-1.479.562-2.073.375-.591.9-1.053 1.574-1.387.674-.329 1.462-.494 2.363-.494.91 0 1.703.165 2.38.494.679.334 1.205.796 1.58 1.387.375.594.563 1.286.563 2.073 0 .788-.188 1.478-.563 2.069-.375.594-.901 1.056-1.58 1.386-.677.333-1.47.5-2.38.5-.901 0-1.69-.167-2.363-.5-.675-.33-1.2-.792-1.574-1.386-.375-.591-.563-1.281-.563-2.069Zm1.204 0c0 .599.153 1.091.46 1.478.307.386.71.672 1.21.858.5.185 1.042.278 1.625.278.584 0 1.127-.093 1.63-.278a2.746 2.746 0 0 0 1.222-.858c.311-.387.466-.879.466-1.478 0-.598-.155-1.09-.466-1.477a2.755 2.755 0 0 0-1.221-.858 4.695 4.695 0 0 0-1.63-.278 4.65 4.65 0 0 0-1.626.278 2.72 2.72 0 0 0-1.21.858c-.307.387-.46.879-.46 1.477ZM41 164.368h8.727v1.295h-1.363v.114c.466.182.827.475 1.085.881.261.405.392.892.392 1.46 0 .576-.13 1.055-.392 1.437a2.56 2.56 0 0 1-1.085.904v.091c.45.223.808.558 1.074 1.005.268.447.403.983.403 1.608 0 .781-.244 1.419-.733 1.915-.485.496-1.24.744-2.267.744H41v-1.34h5.84c.645 0 1.105-.177 1.382-.529.276-.352.414-.767.414-1.244 0-.614-.185-1.089-.556-1.426-.368-.337-.834-.506-1.398-.506H41v-1.364h5.977c.497 0 .896-.161 1.2-.483.306-.322.46-.736.46-1.244 0-.348-.093-.674-.279-.977a2.1 2.1 0 0 0-.773-.727 2.28 2.28 0 0 0-1.13-.273H41v-1.341Z"/></g><path stroke="#000" stroke-dasharray="12 12" d="M120.5 0v350"/><defs><clipPath id="a"><path fill="#fff" d="M0 0h120v350H0z"/></clipPath></defs></svg>