<svg xmlns="http://www.w3.org/2000/svg" width="121" height="350" fill="none" viewBox="0 0 121 350"><g clip-path="url(#a)"><path fill="red" d="M120 0H0v350h120V0Z"/><path fill="#FF0" d="M53.1 51.47c1.47-.31 2.75-.87 3.84-1.7a9.32 9.32 0 0 0 2.4-2.67c1.01-1.6 1.51-3.4 1.51-5.41 0-2.01-.44-3.61-1.32-4.97-.88-1.37-2.19-2.36-3.92-3 1.14-.58 2-1.23 2.59-1.93 1.05-1.26 1.57-2.93 1.57-5s-.52-3.74-1.56-5.18c-1.73-2.35-4.66-3.55-8.8-3.61H33v33.95h15.3c1.72 0 3.32-.15 4.8-.46v-.02ZM39.78 23.88h7.39c1.63 0 2.96.18 4.01.53 1.22.51 1.82 1.55 1.82 3.13 0 1.43-.46 2.42-1.38 2.98-.92.56-2.12.84-3.59.84h-8.25v-7.49.01Zm0 22.15v-9.05h8.35c1.46.01 2.59.21 3.39.57 1.44.66 2.16 1.87 2.16 3.64 0 2.09-.74 3.5-2.23 4.24-.82.4-1.97.6-3.44.6h-8.24.01Zm26.82 3.66c2.55 2.06 5.5 3.09 8.84 3.09 4.05 0 7.2-1.22 9.44-3.66 1.45-1.54 2.26-3.05 2.44-4.54h-6.7c-.39.74-.84 1.31-1.35 1.73-.93.77-2.15 1.15-3.64 1.15-1.41 0-2.62-.31-3.62-.94-1.65-1.01-2.52-2.78-2.63-5.3h18.28c.03-2.17-.04-3.83-.22-4.98-.3-1.97-.97-3.7-2-5.19-1.14-1.69-2.59-2.93-4.34-3.71-1.75-.78-3.72-1.17-5.9-1.17-3.68 0-6.67 1.16-8.98 3.48-2.31 2.32-3.46 5.65-3.46 10 0 4.64 1.28 7.99 3.83 10.05l.01-.01ZM71.29 33c.93-.95 2.23-1.43 3.92-1.43 1.55 0 2.85.45 3.89 1.35 1.05.9 1.63 2.23 1.75 3.97H69.54c.24-1.63.82-2.93 1.75-3.89Zm10.86-13.06H67.4v3.43h14.75v-3.43Zm-32.445 73c0-1.366.301-2.545.904-3.536.61-.985 1.46-1.745 2.549-2.28 1.095-.53 2.37-.794 3.822-.794 1.453 0 2.733.264 3.841.794 1.114.535 1.982 1.28 2.604 2.234.628.96.942 2.08.942 3.36 0 .74-.124 1.469-.37 2.189a5.423 5.423 0 0 1-1.2 1.967c-.548.59-1.274 1.061-2.18 1.412-.904.351-2.018.526-3.341.526h-.924v-10.93h1.884v8.716c.8 0 1.514-.16 2.142-.48a3.617 3.617 0 0 0 1.486-1.349c.364-.578.545-1.261.545-2.05 0-.867-.215-1.618-.646-2.252a4.252 4.252 0 0 0-1.662-1.45 4.883 4.883 0 0 0-2.198-.508h-1.255c-1.071 0-1.98.185-2.724.555-.739.375-1.302.895-1.69 1.56-.381.665-.572 1.437-.572 2.317 0 .573.08 1.09.24 1.552.166.467.412.87.739 1.209.332.339.744.6 1.237.785l-.591 2.105a4.668 4.668 0 0 1-1.884-1.117c-.535-.523-.954-1.17-1.255-1.94-.296-.769-.444-1.633-.444-2.594Zm19.204 11.366H50v-2.179h18.91v2.179Zm-4.727 15.588L50 114.649v-2.216l14.182-5.244v2.364l-11.301 3.915v.147l11.3 3.915v2.364Zm0 14.472L50 129.122v-2.216l14.182-5.244v2.363L52.88 127.94v.148l11.3 3.915v2.363ZM50 137.242h14.182v2.179H50v-2.179Zm16.546 1.108c0-.424.144-.791.433-1.098.29-.302.638-.453 1.044-.453s.754.151 1.043.453c.29.307.434.674.434 1.098 0 .425-.145.788-.434 1.09a1.38 1.38 0 0 1-1.043.461 1.38 1.38 0 0 1-1.044-.461 1.519 1.519 0 0 1-.433-1.09ZM50 143.412h14.182v2.105H62.04v.148c.702.259 1.27.726 1.708 1.404.437.677.655 1.44.655 2.289 0 .16-.003.36-.009.6a8.004 8.004 0 0 1-.028.545h-2.215a6.53 6.53 0 0 0 .083-.508c.043-.258.064-.532.064-.821 0-.69-.144-1.305-.434-1.847a3.276 3.276 0 0 0-1.181-1.274c-.5-.308-1.068-.462-1.709-.462H50v-2.179Zm-.332 13.847c0-.898.169-1.714.507-2.446a4.196 4.196 0 0 1 1.487-1.745c.652-.431 1.44-.647 2.364-.647.812 0 1.47.16 1.975.48a3.39 3.39 0 0 1 1.2 1.284c.29.535.505 1.126.647 1.773.148.652.265 1.308.35 1.966.112.862.195 1.561.25 2.096.062.542.163.936.305 1.182.141.252.388.378.739.378h.073c.911 0 1.62-.249 2.124-.747.505-.493.757-1.241.757-2.244 0-1.04-.228-1.856-.683-2.447-.456-.591-.942-1.006-1.459-1.246l.739-2.068c.861.369 1.532.861 2.012 1.477a5.54 5.54 0 0 1 1.016 2.031c.197.739.296 1.465.296 2.179 0 .456-.056.979-.167 1.57a5.022 5.022 0 0 1-.655 1.726c-.333.56-.834 1.025-1.505 1.394-.671.37-1.57.554-2.696.554H50v-2.179h1.92v-.11c-.307-.148-.637-.394-.988-.739-.35-.345-.649-.803-.895-1.376-.246-.572-.37-1.271-.37-2.096Zm1.957.333c0 .862.17 1.588.508 2.179.338.597.775 1.046 1.31 1.348a3.338 3.338 0 0 0 1.69.461h1.995c-.111-.092-.212-.295-.305-.609a10.295 10.295 0 0 1-.23-1.071 45.28 45.28 0 0 1-.167-1.173 70.73 70.73 0 0 0-.11-.914 8.34 8.34 0 0 0-.36-1.588c-.16-.486-.404-.88-.73-1.181-.32-.296-.757-.444-1.311-.444-.757 0-1.33.28-1.718.841-.381.566-.572 1.283-.572 2.151Zm-1.92 23.218c0-1.329.314-2.474.941-3.434.628-.961 1.493-1.699 2.595-2.216 1.102-.517 2.36-.776 3.776-.776 1.44 0 2.711.265 3.813.794 1.108.536 1.973 1.281 2.595 2.235.628.96.942 2.08.942 3.36 0 .998-.185 1.896-.555 2.696a5.159 5.159 0 0 1-1.55 1.967c-.665.511-1.441.828-2.327.951v-2.179c.646-.166 1.218-.535 1.717-1.108.505-.566.757-1.329.757-2.29 0-.849-.221-1.594-.665-2.234-.437-.634-1.055-1.13-1.855-1.487-.795-.35-1.727-.526-2.798-.526-1.096 0-2.05.173-2.862.517-.813.351-1.444.844-1.893 1.478-.45.64-.674 1.391-.674 2.252 0 .567.098 1.081.295 1.542.197.462.48.853.85 1.173.37.32.812.548 1.33.683v2.179a5.05 5.05 0 0 1-2.263-.914c-.665-.48-1.194-1.117-1.588-1.911-.388-.788-.581-1.705-.581-2.752Zm-.037 12.936c0-.899.169-1.715.507-2.447a4.203 4.203 0 0 1 1.487-1.745c.652-.431 1.44-.646 2.364-.646.812 0 1.47.16 1.975.48.511.32.911.748 1.2 1.283.29.536.505 1.127.647 1.773.148.652.265 1.308.35 1.967.112.861.195 1.56.25 2.095.062.542.163.936.305 1.182.141.253.388.379.739.379h.073c.911 0 1.62-.25 2.124-.748.505-.493.757-1.24.757-2.244 0-1.04-.228-1.856-.683-2.446-.456-.591-.942-1.007-1.459-1.247l.739-2.068c.861.369 1.532.862 2.012 1.477a5.54 5.54 0 0 1 1.016 2.031c.197.739.296 1.465.296 2.179 0 .456-.056.979-.167 1.57a5.027 5.027 0 0 1-.655 1.727c-.333.56-.834 1.024-1.505 1.394-.671.369-1.57.554-2.696.554H50v-2.179h1.92v-.111c-.307-.148-.637-.394-.988-.739-.35-.344-.649-.803-.895-1.375-.246-.573-.37-1.271-.37-2.096Zm1.957.332c0 .862.17 1.588.508 2.179.338.597.775 1.047 1.31 1.348a3.34 3.34 0 0 0 1.69.462h1.995c-.111-.093-.212-.296-.305-.61a10.21 10.21 0 0 1-.23-1.071 45.84 45.84 0 0 1-.167-1.172c-.043-.376-.08-.68-.11-.914a8.306 8.306 0 0 0-.36-1.588c-.16-.487-.404-.881-.73-1.182-.32-.296-.757-.443-1.311-.443-.757 0-1.33.28-1.718.84-.381.566-.572 1.283-.572 2.151Zm9.38 20.19-.553-1.957c.326-.123.643-.305.95-.545.315-.234.573-.554.776-.96.203-.406.305-.926.305-1.56 0-.868-.2-1.592-.6-2.17-.394-.573-.896-.859-1.505-.859-.542 0-.97.197-1.284.591-.313.394-.575 1.01-.784 1.847l-.517 2.105c-.308 1.268-.779 2.213-1.413 2.834-.628.622-1.437.933-2.428.933a3.6 3.6 0 0 1-2.18-.702c-.64-.462-1.144-1.108-1.514-1.939-.369-.831-.553-1.797-.553-2.899 0-1.446.314-2.644.941-3.592.628-.947 1.545-1.548 2.752-1.8l.517 2.068c-.764.197-1.336.57-1.718 1.117-.381.554-.572 1.278-.572 2.17 0 1.016.215 1.822.646 2.419.437.603.96.905 1.57.905.492 0 .905-.172 1.237-.517.339-.345.591-.874.757-1.588l.554-2.364c.308-1.299.785-2.253 1.431-2.862.653-.603 1.468-.905 2.447-.905.8 0 1.508.225 2.124.674.615.456 1.098 1.074 1.45 1.856.35.788.526 1.68.526 2.678 0 1.403-.308 2.505-.924 3.305-.615.806-1.428 1.379-2.437 1.717Zm3.177 9.706h-1.847v-7.349h1.847v7.349Zm3.397-5.207v2.179H54.063c-.616 0-1.078.089-1.385.268-.302.184-.505.418-.61.701-.098.29-.148.594-.148.915 0 .24.013.437.037.59l.074.37-1.957.443a4.44 4.44 0 0 1-.166-.619 4.545 4.545 0 0 1-.093-1.006c0-.616.133-1.219.397-1.81a3.6 3.6 0 0 1 1.21-1.459c.542-.381 1.225-.572 2.05-.572h14.107Zm-17.874 14.279c0-1.367.301-2.545.904-3.536.61-.985 1.46-1.745 2.549-2.281 1.095-.529 2.37-.794 3.822-.794 1.453 0 2.733.265 3.841.794 1.114.536 1.982 1.28 2.604 2.234.628.961.942 2.081.942 3.361a6.72 6.72 0 0 1-.37 2.188 5.42 5.42 0 0 1-1.2 1.967c-.548.591-1.274 1.062-2.18 1.413-.904.351-2.018.526-3.341.526h-.924v-10.932h1.884v8.716c.8 0 1.514-.16 2.142-.48a3.616 3.616 0 0 0 1.486-1.348c.364-.579.545-1.262.545-2.05 0-.868-.215-1.619-.646-2.253a4.252 4.252 0 0 0-1.662-1.449 4.876 4.876 0 0 0-2.198-.508h-1.255c-1.071 0-1.98.185-2.724.554-.739.375-1.302.896-1.69 1.56-.381.665-.572 1.438-.572 2.318 0 .572.08 1.089.24 1.551a3.3 3.3 0 0 0 .739 1.209c.332.339.744.601 1.237.785l-.591 2.105a4.663 4.663 0 0 1-1.884-1.117c-.535-.523-.954-1.169-1.255-1.939-.296-.769-.444-1.634-.444-2.594Zm19.204 11.366H50v-2.179h18.91v2.179Zm0 6.169H50v-2.178h18.91v2.178Zm-19.241 8.165c0-.899.169-1.715.507-2.447a4.203 4.203 0 0 1 1.487-1.745c.652-.431 1.44-.646 2.364-.646.812 0 1.47.16 1.975.48.511.32.911.748 1.2 1.283.29.536.505 1.127.647 1.773.148.652.265 1.308.35 1.967.112.861.195 1.56.25 2.095.062.542.163.936.305 1.182.141.253.388.379.739.379h.073c.911 0 1.62-.25 2.124-.748.505-.493.757-1.24.757-2.244 0-1.04-.228-1.856-.683-2.446-.456-.591-.942-1.007-1.459-1.247l.739-2.068c.861.369 1.532.862 2.012 1.477a5.54 5.54 0 0 1 1.016 2.031c.197.739.296 1.465.296 2.179 0 .456-.056.979-.167 1.57a5.027 5.027 0 0 1-.655 1.727c-.333.56-.834 1.024-1.505 1.394-.671.369-1.57.554-2.696.554H50v-2.179h1.92v-.111c-.307-.148-.637-.394-.988-.739-.35-.344-.649-.803-.895-1.375-.246-.573-.37-1.271-.37-2.096Zm1.957.332c0 .862.17 1.588.508 2.179.338.597.775 1.047 1.31 1.348a3.34 3.34 0 0 0 1.69.462h1.995c-.111-.093-.212-.296-.305-.61a10.21 10.21 0 0 1-.23-1.071 45.84 45.84 0 0 1-.167-1.172c-.043-.376-.08-.68-.11-.914a8.298 8.298 0 0 0-.36-1.588c-.16-.487-.404-.881-.73-1.182-.32-.296-.757-.443-1.311-.443-.757 0-1.33.28-1.718.84-.381.566-.572 1.283-.572 2.151Zm6.906 12.324H50v-2.179h14.182v2.105h-2.216v.185c.72.332 1.299.837 1.736 1.514.443.677.665 1.551.665 2.622 0 .96-.198 1.8-.591 2.521-.388.72-.98 1.28-1.773 1.68-.788.4-1.785.6-2.992.6H50v-2.179h8.864c1.114 0 1.982-.289 2.603-.868.628-.578.942-1.372.942-2.382 0-.695-.15-1.317-.452-1.865a3.235 3.235 0 0 0-1.32-1.283c-.58-.314-1.28-.471-2.106-.471Zm-8.826 18.791c0-1.28.304-2.403.914-3.37.609-.96 1.462-1.711 2.557-2.253 1.096-.535 2.376-.803 3.841-.803 1.477 0 2.767.268 3.869.803 1.101.542 1.957 1.293 2.566 2.253.61.967.915 2.09.915 3.37 0 1.28-.305 2.401-.915 3.361-.609.966-1.465 1.717-2.566 2.253-1.102.541-2.392.812-3.869.812-1.465 0-2.745-.271-3.84-.812-1.096-.536-1.949-1.287-2.558-2.253-.61-.96-.914-2.081-.914-3.361Zm1.957 0c0 .973.25 1.773.748 2.401.498.628 1.154 1.092 1.966 1.394a7.52 7.52 0 0 0 2.641.452c.948 0 1.831-.15 2.65-.452.819-.302 1.48-.766 1.985-1.394.505-.628.757-1.428.757-2.401 0-.972-.252-1.773-.757-2.4-.505-.628-1.166-1.093-1.985-1.395a7.62 7.62 0 0 0-2.65-.452c-.948 0-1.828.151-2.64.452-.813.302-1.469.767-1.967 1.395-.499.627-.748 1.428-.748 2.4Zm9.344 19.798-.554-1.957a3.65 3.65 0 0 0 .95-.545c.315-.234.573-.554.776-.96.203-.407.305-.927.305-1.561 0-.868-.2-1.591-.6-2.17-.394-.572-.896-.858-1.505-.858-.542 0-.97.197-1.284.591-.313.394-.575 1.009-.784 1.846l-.517 2.105c-.308 1.268-.779 2.213-1.413 2.835-.628.622-1.437.932-2.428.932a3.598 3.598 0 0 1-2.18-.701c-.64-.462-1.144-1.108-1.514-1.939-.369-.831-.553-1.798-.553-2.899 0-1.447.314-2.644.941-3.592.628-.948 1.545-1.548 2.752-1.8l.517 2.068c-.764.197-1.336.569-1.718 1.117-.381.554-.572 1.277-.572 2.17 0 1.015.215 1.822.646 2.419.437.603.96.905 1.57.905.492 0 .905-.173 1.237-.517.339-.345.591-.874.757-1.588l.554-2.364c.308-1.299.785-2.253 1.431-2.862.653-.604 1.468-.905 2.447-.905.8 0 1.508.224 2.124.674.615.455 1.098 1.074 1.45 1.856.35.788.526 1.68.526 2.677 0 1.404-.308 2.505-.924 3.306-.615.806-1.428 1.378-2.437 1.717Z"/></g><path stroke="#000" stroke-dasharray="12 12" d="M120.5 0v350"/><defs><clipPath id="a"><path fill="#fff" d="M0 0h120v350H0z"/></clipPath></defs></svg>