<svg xmlns="http://www.w3.org/2000/svg" width="132" height="87" fill="none" viewBox="0 0 132 87"><g clip-path="url(#a)"><path fill="url(#b)" stroke="#000" stroke-miterlimit="10" stroke-width="2" d="M127.738.253H4.262C2.047.253.252 2.058.252 4.285v78.43c0 2.227 1.795 4.032 4.01 4.032h123.476c2.215 0 4.011-1.805 4.011-4.032V4.285c0-2.227-1.796-4.032-4.011-4.032Z"/><path fill="#000" d="M6.834 7.426v61.937l8.043 10.332h6.615l-7.61-9.403h4.832l7.716 9.41h30.886l-7.74-9.435v-9.464h9.767s-1.849-5.272-4.94-7.47a4.193 4.193 0 0 0-2.427-.77h-2.652V7.434l.06-.004H6.834v-.003Z"/><path fill="#ED92BC" d="M19.95 25.773c2.525 0 4.571-2.058 4.571-4.596 0-2.538-2.046-4.595-4.57-4.595-2.526 0-4.572 2.057-4.572 4.595s2.046 4.596 4.571 4.596Zm.244 10.186c-.143-.306-.364-.338-.535-.306a.65.65 0 0 0-.33.185L14.6 40.696a1.6 1.6 0 0 1-1.148.485H6.555v-5.485h5.415a.57.57 0 0 0 .508-.308c4.9-9.504 11.204-9.145 11.204-9.145h16.19c.503 0 .972.247 1.259.661l5.746 8.323c.97 1.697-.81 2.899-.81 2.899-2.306 1.345-3.532-.407-3.678-.63l-.05-.073-3.89-5.534a.793.793 0 0 0-.646-.336h-5.159a.303.303 0 0 0-.274.432v.002l5.026 10.393c.995 2.141 1.047 10.343 1.047 10.343.046 1.457.947 1.495 1.229 1.472.072-.005.148-.01.22-.01H51.54c.324 0 .64.085.922.247 3.182 1.849 3.853 4.732 3.853 4.732l-19.702-.018c-2.775 0-3.667-4.179-3.667-4.179l-1.625-7.252a.274.274 0 0 0-.505-.078L20.264 65.868l-.51.879-.022.032a3.55 3.55 0 0 1-2.95 1.561h-5.16l1.228-2.472 10.812-21.763.02-.036a2.505 2.505 0 0 0-.08-2.522c-.93-1.49-3.205-5.146-3.413-5.588h.005Z"/><path fill="#000" d="M128.288 15.14H76.02v9.815h52.268V15.14Z"/><path fill="#000" d="M75.237 7.451h13.497L69.696 26.738 62.947 19.9l12.29-12.45Z"/><path fill="#000" d="M75.237 32.34h13.497L69.696 13.058l-6.749 6.835 12.29 12.449ZM67.7 63.545h10.772v-4.631H67.699v-3.578h11.544V50.73H62.736v21.66h16.956v-4.643H67.7v-4.202Zm34.549-12.815h-6.125l-4.439 6.237-4.415-6.237h-6.171l7.625 10.292-8.346 11.368h6.133l5.182-7.29 5.134 7.29h6.141l-8.374-11.368 7.655-10.292Zm6.629 0h-5.039v21.66h5.039V50.73Zm1.765 0v4.606h6.415V72.39h5.001V55.336h6.48V50.73h-17.896Z"/></g><defs><linearGradient id="b" x1="0.251221" x2="131.749" y1="43.5013" y2="43.5013" gradientUnits="userSpaceOnUse"><stop stop-color="#00D800"/><stop offset="0.41" stop-color="#FF0"/><stop offset="0.72" stop-color="red"/><stop offset="0.97" stop-color="#FFB0CD"/></linearGradient><clipPath id="a"><path fill="#fff" d="M0 0h132v87H0z"/></clipPath></defs></svg>