<svg xmlns="http://www.w3.org/2000/svg" width="75" height="113" fill="none" viewBox="0 0 75 113"><path stroke="#1D1D1B" stroke-miterlimit="10" d="M65.71.5H9.32A8.32 8.32 0 0 0 1 8.82v56.39a8.32 8.32 0 0 0 8.32 8.32h56.39a8.32 8.32 0 0 0 8.32-8.32V8.82A8.32 8.32 0 0 0 65.71.5Z"/><path fill="#1D1D1B" d="M21.117 48.97H16.89l12.226-33.295h4.162L45.503 48.97h-4.227l-9.95-28.027h-.26L21.118 48.97Zm1.561-13.006h17.037v3.577H22.678v-3.577ZM50.437 48.97V24h3.837v24.97h-3.837Zm1.95-29.133a2.728 2.728 0 0 1-1.934-.764c-.53-.51-.796-1.122-.796-1.837 0-.715.265-1.328.796-1.837a2.728 2.728 0 0 1 1.935-.764c.748 0 1.387.255 1.918.764.542.51.813 1.122.813 1.837 0 .715-.27 1.328-.813 1.837-.53.51-1.17.764-1.918.764ZM11.92 109.89v-6.545h1.006v6.545h-1.005Zm.512-7.636a.714.714 0 0 1-.507-.201.642.642 0 0 1-.21-.481c0-.188.07-.348.21-.482a.717.717 0 0 1 .507-.2c.196 0 .364.067.503.2a.639.639 0 0 1 .213.482.636.636 0 0 1-.213.481.7.7 0 0 1-.503.201Zm3.342-1.091v8.727h-1.006v-8.727h1.006Zm2.847 0v8.727h-1.005v-8.727h1.005Zm5.967 6.051v-3.869h1.006v6.545h-1.006v-1.108h-.068a2.15 2.15 0 0 1-.716.848c-.323.23-.733.345-1.227.345a2.18 2.18 0 0 1-1.09-.268 1.883 1.883 0 0 1-.75-.818c-.183-.367-.274-.829-.274-1.385v-4.159h1.006v4.09c0 .478.134.858.4 1.143.27.284.614.426 1.032.426.25 0 .504-.064.763-.192.261-.128.48-.324.656-.588.179-.264.268-.601.268-1.01Zm7.484-2.404-.903.256a1.686 1.686 0 0 0-.251-.439 1.221 1.221 0 0 0-.444-.358c-.187-.093-.427-.14-.72-.14-.4 0-.734.092-1.001.277-.264.181-.396.413-.396.694 0 .25.09.448.272.593.182.144.466.265.852.362l.972.238c.585.142 1.021.36 1.308.652.287.29.43.664.43 1.121 0 .375-.107.71-.323 1.006a2.156 2.156 0 0 1-.895.699c-.383.17-.83.255-1.338.255-.668 0-1.22-.145-1.658-.434-.437-.29-.714-.713-.83-1.27l.954-.239c.09.352.263.617.515.793.256.176.59.264 1.002.264.469 0 .84-.099 1.116-.298.279-.202.418-.443.418-.725a.763.763 0 0 0-.239-.571c-.159-.156-.403-.272-.733-.349l-1.09-.256c-.6-.142-1.04-.362-1.322-.66-.278-.301-.417-.678-.417-1.13 0-.369.104-.696.31-.98a2.12 2.12 0 0 1 .857-.669 3.006 3.006 0 0 1 1.236-.243c.648 0 1.156.142 1.526.426.372.285.636.66.792 1.125Zm4.48-1.465v.852H33.16v-.852h3.392Zm-2.403-1.569h1.005v6.239c0 .284.042.497.124.639a.639.639 0 0 0 .324.281c.133.046.274.069.422.069.11 0 .201-.006.273-.017l.17-.034.205.903a2.189 2.189 0 0 1-.75.119c-.285 0-.563-.061-.836-.183a1.657 1.657 0 0 1-.673-.558c-.176-.25-.264-.566-.264-.946v-6.512Zm3.916 8.114v-6.545h.972v.988h.068c.12-.324.335-.586.648-.788a1.905 1.905 0 0 1 1.056-.303 10.855 10.855 0 0 1 .529.017v1.023a3.325 3.325 0 0 0-.235-.038 2.284 2.284 0 0 0-.379-.03c-.318 0-.602.067-.852.2a1.47 1.47 0 0 0-.801 1.334v4.142h-1.006Zm6.391.153c-.415 0-.791-.078-1.13-.234a1.94 1.94 0 0 1-.805-.686c-.199-.301-.298-.665-.298-1.091 0-.375.074-.679.222-.912.147-.236.345-.42.592-.554a3.12 3.12 0 0 1 .818-.298 10.1 10.1 0 0 1 .908-.162c.398-.051.72-.09.967-.115.25-.029.432-.075.546-.141.116-.065.174-.179.174-.341v-.034c0-.42-.115-.747-.345-.98-.227-.233-.572-.349-1.035-.349-.48 0-.857.105-1.13.315-.272.21-.464.435-.575.673l-.955-.341c.171-.397.398-.707.682-.929.287-.224.6-.38.938-.468a3.89 3.89 0 0 1 1.005-.137 4 4 0 0 1 .725.077c.276.048.541.149.797.303.258.153.473.385.643.694.17.31.256.725.256 1.245v4.312H46.45v-.886h-.05a1.77 1.77 0 0 1-.342.456c-.159.162-.37.299-.635.413-.264.114-.586.17-.967.17Zm.153-.903c.398 0 .733-.078 1.006-.234a1.602 1.602 0 0 0 .835-1.385v-.921c-.042.051-.136.098-.281.141a4.63 4.63 0 0 1-.494.106 20.937 20.937 0 0 1-.963.128 3.89 3.89 0 0 0-.733.166 1.271 1.271 0 0 0-.546.337c-.136.148-.204.35-.204.605 0 .35.129.614.388.793.26.176.592.264.992.264Zm7.53-5.795v.852h-3.393v-.852h3.392Zm-2.404-1.569h1.005v6.239c0 .284.042.497.124.639a.64.64 0 0 0 .324.281c.133.046.274.069.422.069.11 0 .201-.006.273-.017l.17-.034.205.903a2.191 2.191 0 0 1-.75.119c-.285 0-.563-.061-.836-.183a1.657 1.657 0 0 1-.673-.558c-.176-.25-.264-.566-.264-.946v-6.512Zm6.505 8.25c-.591 0-1.11-.14-1.556-.421a2.87 2.87 0 0 1-1.04-1.181c-.247-.506-.37-1.096-.37-1.773 0-.681.123-1.277.37-1.785.25-.509.597-.904 1.04-1.185.446-.281.965-.422 1.556-.422.59 0 1.108.141 1.55.422.447.281.794.676 1.04 1.185.25.508.376 1.104.376 1.785 0 .677-.125 1.267-.375 1.773a2.83 2.83 0 0 1-1.04 1.181c-.443.281-.96.421-1.551.421Zm0-.903c.449 0 .818-.115 1.108-.345.29-.23.504-.533.643-.908.14-.375.209-.781.209-1.219 0-.437-.07-.845-.209-1.223a2.066 2.066 0 0 0-.643-.916c-.29-.233-.66-.349-1.108-.349-.45 0-.819.116-1.108.349-.29.233-.505.539-.644.916a3.518 3.518 0 0 0-.209 1.223c0 .438.07.844.21 1.219.139.375.353.678.643.908.29.23.659.345 1.108.345Zm4.5.767v-6.545h.972v.988h.069c.119-.324.335-.586.647-.788a1.904 1.904 0 0 1 1.057-.303 10.862 10.862 0 0 1 .528.017v1.023a3.325 3.325 0 0 0-.234-.038c-.12-.02-.246-.03-.38-.03-.317 0-.601.067-.851.2a1.47 1.47 0 0 0-.801 1.334v4.142H60.74Z"/></svg>