<svg xmlns="http://www.w3.org/2000/svg" width="74" height="71" fill="none" viewBox="0 0 74 71"><path stroke="#1D1D1B" stroke-miterlimit="10" d="M65.02 1.22H5.54a4.42 4.42 0 0 0-4.42 4.42v59.48a4.42 4.42 0 0 0 4.42 4.42h59.48a4.42 4.42 0 0 0 4.42-4.42V5.64a4.42 4.42 0 0 0-4.42-4.42Z"/><path fill="#1D1D1B" d="M36.345 24.62h4.027v23.768c0 2.122-.39 3.924-1.17 5.407-.778 1.483-1.877 2.608-3.295 3.377-1.418.768-3.09 1.153-5.017 1.153-1.818 0-3.436-.33-4.854-.99-1.418-.672-2.533-1.624-3.345-2.858-.812-1.234-1.218-2.7-1.218-4.4h3.962c0 .942.233 1.764.698 2.468.476.692 1.126 1.234 1.948 1.623.823.39 1.76.585 2.81.585 1.157 0 2.142-.244 2.954-.73.812-.488 1.429-1.202 1.851-2.144.433-.953.65-2.116.65-3.49v-23.77Zm30.28 8.312c-.195-1.645-.985-2.923-2.37-3.832-1.386-.909-3.085-1.364-5.098-1.364-1.472 0-2.76.238-3.864.715-1.094.476-1.949 1.13-2.566 1.964-.606.834-.909 1.78-.909 2.842 0 .887.211 1.65.633 2.289a5.618 5.618 0 0 0 1.656 1.575c.672.411 1.375.752 2.111 1.023.736.26 1.413.47 2.03.633l3.377.909c.865.227 1.829.541 2.89.942 1.071.4 2.094.947 3.068 1.64a8.35 8.35 0 0 1 2.436 2.63c.638 1.071.957 2.386.957 3.945 0 1.797-.47 3.42-1.412 4.87-.931 1.451-2.295 2.604-4.092 3.459-1.785.855-3.956 1.283-6.51 1.283-2.381 0-4.443-.385-6.186-1.153-1.732-.769-3.096-1.84-4.091-3.215-.985-1.375-1.543-2.971-1.673-4.79h4.157c.108 1.256.53 2.295 1.266 3.118.747.812 1.689 1.418 2.825 1.818 1.148.39 2.381.585 3.702.585 1.537 0 2.917-.25 4.14-.747 1.223-.509 2.192-1.212 2.906-2.11.715-.91 1.072-1.97 1.072-3.183 0-1.104-.309-2.002-.926-2.695-.617-.693-1.428-1.256-2.435-1.689a25.58 25.58 0 0 0-3.263-1.136l-4.092-1.17c-2.598-.746-4.654-1.812-6.17-3.198-1.515-1.385-2.272-3.198-2.272-5.439 0-1.861.503-3.485 1.51-4.87 1.017-1.397 2.38-2.479 4.09-3.247 1.722-.78 3.643-1.17 5.765-1.17 2.143 0 4.048.385 5.715 1.153 1.666.758 2.987 1.797 3.961 3.117.985 1.321 1.505 2.82 1.559 4.498h-3.897Z"/></svg>