<svg xmlns="http://www.w3.org/2000/svg" width="75" height="75" fill="none" viewBox="0 0 75 75"><path stroke="#1D1D1B" stroke-miterlimit="10" d="M65.86 1.47H9.47a8.32 8.32 0 0 0-8.32 8.32v56.39a8.32 8.32 0 0 0 8.32 8.32h56.39a8.32 8.32 0 0 0 8.32-8.32V9.79a8.32 8.32 0 0 0-8.32-8.32Z"/><path fill="#1D1D1B" d="M24.183 16.645V49.94h-4.031V16.645h4.031ZM41.176 50.46c-2.08 0-3.918-.526-5.511-1.577-1.593-1.062-2.84-2.558-3.74-4.487-.899-1.94-1.349-4.232-1.349-6.877 0-2.622.45-4.898 1.35-6.827.9-1.93 2.151-3.42 3.755-4.471 1.604-1.052 3.458-1.577 5.56-1.577 1.626 0 2.91.27 3.853.813.954.53 1.68 1.138 2.178 1.82.51.672.906 1.225 1.187 1.659h.325v-12.29h3.837V49.94h-3.707v-3.837h-.455a24.61 24.61 0 0 1-1.203 1.724c-.52.682-1.262 1.295-2.227 1.837-.965.53-2.249.796-3.853.796Zm.52-3.446c1.54 0 2.84-.401 3.902-1.203 1.062-.813 1.87-1.935 2.422-3.366.553-1.441.83-3.105.83-4.99 0-1.865-.272-3.496-.813-4.894-.542-1.409-1.344-2.503-2.406-3.284-1.063-.791-2.374-1.187-3.935-1.187-1.625 0-2.98.418-4.064 1.252-1.073.824-1.88 1.946-2.422 3.365-.531 1.41-.797 2.992-.797 4.748 0 1.777.271 3.392.813 4.844.553 1.442 1.366 2.59 2.439 3.447 1.083.845 2.427 1.268 4.031 1.268Z"/></svg>