<svg xmlns="http://www.w3.org/2000/svg" width="58" height="103" fill="none" viewBox="0 0 58 103"><path fill="#1D1D1B" d="M12.553 99.9v-8.727h1.057v3.886h4.653v-3.886h1.057V99.9h-1.057v-3.904H13.61V99.9h-1.057Zm8.405-7.79v-.937h6.546v.937H24.76v7.79h-1.057v-7.79h-2.744Zm8.177-.937h1.261l2.966 7.244h.102l2.966-7.244h1.262V99.9h-.989v-6.63h-.085L33.89 99.9h-.955l-2.727-6.63h-.085v6.63h-.99v-8.727ZM39.81 99.9v-8.727h1.056v7.79h4.057v.937H39.81ZM28.618.68c8.95 0 17.91.03 26.86-.02 1.43 0 1.84.34 1.7 1.85-1.32 14.01-2.56 28.02-3.81 42.04-.39 4.33-.74 8.66-1.07 12.99-.09 1.16-.49 1.79-1.72 2.12-6.99 1.87-13.95 3.86-20.94 5.75-.71.19-1.56.17-2.28-.03-6.93-1.89-13.85-3.87-20.78-5.75-1.13-.31-1.55-.84-1.64-2-.86-10.21-1.77-20.41-2.67-30.61-.73-8.19-1.42-16.39-2.24-24.57C-.132.89.378.65 1.768.66c8.95.05 17.91.03 26.86.03l-.01-.01Zm16.2 26.57h-1.96c-7.35 0-14.7-.03-22.05.03-1.3.01-1.9-.36-1.96-1.69-.06-1.24-.28-2.47-.39-3.7-.19-2.09-.15-2.11 1.88-2.11h23.6c.55 0 1.11-.05 1.77-.09.15-1.81.21-3.51.45-5.19.21-1.47-.33-1.84-1.75-1.83-10.66.05-21.32.03-31.98.03-.5 0-1 .05-1.69.09.68 7.23 1.34 14.31 2.01 21.46h1.75c7.14 0 14.28.03 21.43-.02 1.28 0 1.64.44 1.51 1.63-.23 2.21-.33 4.44-.63 6.64-.07.52-.61 1.24-1.09 1.4-4.38 1.453-8.81 1.54-13.29.26-.25-.07-.57-.05-.74-.21-.47-.44-1.1-.89-1.27-1.45-.28-.98-.29-2.04-.35-3.07-.06-.94-.43-1.39-1.45-1.34-1.39.07-2.8.07-4.19 0-1.14-.05-1.41.39-1.28 1.48.33 2.72.59 5.45.78 8.18.08 1.05.51 1.51 1.52 1.76 4.06 1.03 8.09 2.15 12.15 3.18.66.17 1.44.17 2.11 0 4.01-1.02 7.99-2.16 12-3.17 1.12-.28 1.47-.87 1.54-1.94.26-3.77.6-7.53.89-11.29.23-2.93.45-5.86.69-9.05l-.01.01Z"/></svg>