<svg xmlns="http://www.w3.org/2000/svg" width="62" height="62" fill="none" viewBox="0 0 62 62"><path fill="#1D1D1B" d="M30.77.66c.16.02.32.05.48.06 1.01.04 2.03.02 3.03.11 2.12.19 4.26.27 6.32.92 1.05.33 2.08.73 3.14 1.05 3.43 1.03 6.33 2.98 9.08 5.19.41.33.73.76 1.08 1.17.57.67 1.14 1.35 1.68 2.05 2.27 2.92 4.13 6.06 5.09 9.66.43 1.62.67 3.27.76 4.94.07 1.33.13 2.67.19 4.01.07 1.49-.09 2.96-.27 4.43-.15 1.21-.34 2.42-.54 3.63-.08.44-.23.88-.37 1.31-.27.81-.56 1.61-.84 2.42-.03.09-.02.21.03.29.29.51.59 1.02.89 1.53.09.15.19.3.29.45-.33.25-.7.19-1.04.25-.24.04-.49.06-.74.07-.26.01-.41.13-.54.36-.61 1.13-1.22 2.26-1.86 3.38-1.29 2.25-3 4.14-4.96 5.82-.16.14-.29.31-.45.46-.08.08-.2.11-.29.18-.52.42-1.03.86-1.55 1.27-.12.09-.26.15-.41.23.01.02.04.06.1.15-.32.12-.62.24-.93.35-.06.02-.13.04-.19.07-.41.22-.82.43-1.21.68-.17.1-.3.27-.45.4-.03.03-.05.08-.09.09-.29.11-.57.22-.86.33-.13.05-.27.06-.38.12-.63.34-1.27.63-2 .7-.05 0-.14.07-.14.11-.04.3-.2.35-.46.23.08-.06.16-.13.23-.19-.01-.02-.02-.03-.03-.05-.62.28-1.24.56-1.85.84 0 .02.01.04.02.06.09-.01.17-.02.3-.04-.19.1-.4.14-.35.4 0 .02-.08.07-.14.09-.59.15-1.18.3-1.8.45.05-.1.09-.17.13-.26-.3-.24-.48.07-.71.16.09.03.18.06.34.11-.79.29-1.63.11-2.28.46-.2.01-.35 0-.49.03-.63.09-1.26.2-1.9.28-.41.05-.82.06-1.23.07-.47.01-.94 0-1.44 0 .08-.16.12-.24.17-.35-.57-.02-1.09-.06-1.62-.07-.51-.01-1.03.04-1.53-.02-.64-.07-1.28-.18-1.9-.33-1.12-.26-2.23-.59-3.36-.84-1.47-.33-2.93-.72-4.26-1.45-1.73-.94-3.48-1.86-5.06-3.04-.76-.57-1.51-1.18-2.09-1.97a.548.548 0 0 0-.52-.22c-.12.01-.27-.16-.39-.26-.04-.03-.03-.12-.07-.16a.593.593 0 0 0-.17-.15c-.02-.01-.12.08-.12.09a.8.8 0 0 0 .15.21c.03.03.08.04.12.05 0 .02-.01.04-.02.07-.11-.03-.25-.02-.31-.08-.56-.57-1.1-1.16-1.65-1.75-.04-.05-.07-.11-.15-.23.28.21.37.56.79.55-.1-.16-.17-.29-.26-.41-.17-.24-.34-.47-.51-.7a.524.524 0 0 0-.11-.1c-.37-.3-.7-.62-.89-1.08-.15-.35-.39-.66-.6-.99-.02-.04-.04-.07-.06-.11.17-.07.23.02.25.16.02.18.07.29.3.29.26 0 .42.21.54.43.14.24.33.38.67.38-.56-.93-1.09-1.82-1.66-2.76l.36.18c-.09-.2-.16-.34-.22-.48.01 0 .02-.02.04-.03.05.07.11.13.16.2.55.71 1.08 1.44 1.65 2.14.23.28.55.47.83.7l.32.26c.35.3.66.65 1.05.89.18.11.21.22.28.39.05.13.17.26.29.34.24.17.5.33.76.47.45.24.82.57 1.19.92.39.37.88.65 1.33.96.31.21.64.39.97.58.09.05.19.12.28.12.31-.02.5.18.73.32.63.37 1.25.73 1.84 1.07.09-.05.14-.09.17-.08.73.12 1.32.55 1.94.9.38.22.79.4 1.19.59.03.01.08.01.09.03.12.28.37.21.59.24.16.02.31.09.47.13.26.07.51.18.77.18.67 0 1.25.32 1.89.41.67.1 1.32.26 1.99.34.76.09 1.52.22 2.27.29.99.09 2 .07 3-.09 1.04-.16 2.09-.27 3.13-.4 1.58-.2 3.14-.44 4.6-1.17.75-.38 1.56-.62 2.34-.93.11-.04.22-.1.32-.16.79-.47 1.59-.93 2.37-1.43 1.77-1.13 3.55-2.24 5.03-3.77.65-.68 1.45-1.21 1.98-2.01.15-.24.3-.48.46-.71.11-.16.23-.31.36-.49 0-.13-.04-.35.04-.5.09-.16.29-.27.43-.39-.2-.16-.18-.31.13-.51.13-.08.28-.13.25-.33 0-.03.05-.09.09-.12.15-.08.37-.13.18-.38 0-.01.11-.13.18-.18.16-.09.33-.17.49-.25 0-.03-.02-.05-.03-.08l-.21-.03c-.04-.28.2-.3.39-.4l-.17-.14c.09-.09.19-.18.33-.31-.28-.03-.51-.07-.74-.06-1.88.06-3.75.12-5.63.19-1.12.04-2.24.12-3.36.16-2 .07-3.99.09-5.99.18-1.96.09-3.91.28-5.87.38-2.14.11-4.28.16-6.42.23-3.29.1-6.58.2-9.87.27-1.64.03-3.29-.01-4.94-.03-1.55-.01-3.1.01-4.65-.07-1.08-.05-2.16-.25-3.23-.39-.3-.04-.61-.1-.91-.13-.09 0-.18.04-.28.07-.05-.3-.27-.05-.4-.11-.09-.45-.05-.5.37-.64.88-.29 1.8-.4 2.72-.41 1.48-.03 2.96-.07 4.45-.09 2.06-.03 4.13-.04 6.2-.06h.03c.45-.03.48-.04.5-.48.05-.85.07-1.69.1-2.54v-.52h.28c.03.84.05 1.68.08 2.52h.08c0-.07.03-.13.03-.2 0-.6 0-1.2.01-1.8.01-.36.09-.73.08-1.09 0-.18.01-.41-.25-.51-.08-.03-.15-.21-.15-.33-.01-.67-.03-1.35.01-2.02.03-.45.17-.89.2-1.34.07-.93.09-1.86.14-2.79h-.1c-.06.67-.11 1.35-.17 2.02h-.1l-.03-.33c-.04-.38-.09-.75-.1-1.13 0-.32-.06-.7.09-.94.37-.61.25-1.26.3-1.89.06-.66.02-1.32.03-1.98 0-.08 0-.16-.01-.24h-.09c-.04 1.22-.09 2.44-.13 3.66h-.09c.01-.26.04-.53.04-.79 0-.78.05-1.57-.05-2.34-.11-.88.11-1.72.11-2.58 0-1.21.08-2.42.16-3.63l.09-1.59c0-.15-.02-.3-.04-.52-.1.11-.17.18-.22.25-1.06 1.35-2.1 2.71-3.19 4.03-.64.78-1.35 1.51-2.05 2.23-.23.23-.51.41-.67.72-.06.11-.24.26-.45.1.33-.25.55-.54.62-.93-.02-.02-.04-.04-.06-.05-.17.17-.34.35-.53.53.03-.35.36-.75.58-.71-.15-.48.24-.72.4-1.07.03.01.05.02.08.03l-.21.51c.02.01.03.02.05.03.12-.16.26-.3.36-.47.21-.38.39-.78.61-1.16.11-.2.28-.36.41-.55 1.64-2.4 3.25-4.81 4.91-7.2 1.03-1.48 2.13-2.92 3.21-4.37.7-.94 1.44-1.86 2.15-2.79.4-.52.79-1.05 1.18-1.59.99-1.39 1.97-2.78 2.96-4.17.08-.11.15-.22.26-.39-.28.03-.51.05-.73.07-1.06.09-2.12.14-3.17.27-.73.09-1.46.29-2.18.46-3.43.84-6.48 2.43-9.19 4.68-1.4 1.16-2.79 2.36-3.93 3.8-1.16 1.46-2.1 3.07-3.05 4.66-1.26 2.11-2.31 4.31-3.05 6.66-.23.71-.45 1.42-.59 2.15-.12.62-.11 1.26-.17 1.89-.04.43-.06.88-.17 1.3-.08.29-.27.58-.47.81-.19.21-.32.39-.23.68-.09 0-.18.02-.3.03.04.4.07.8.11 1.2-.02 0-.04 0-.06.01-.03-.18-.07-.36-.1-.54-.06-.39-.11-.79-.18-1.18-.04-.2-.11-.39-.17-.58-.01-.05-.04-.1-.04-.15-.04-.5-.06-.99-.1-1.49-.18-1.98.22-3.87.73-5.77.85-3.2 2.42-6.05 4.29-8.73 1.04-1.49 2.22-2.9 3.41-4.28.99-1.15 2.22-2.07 3.46-2.94 1.62-1.14 3.27-2.25 5.14-2.93 1.14-.42 2.29-.84 3.46-1.12 1.29-.31 2.62-.51 3.94-.69 1.6-.22 3.21-.37 4.82-.55.06 0 .11-.03.17-.04h.57l-.11-.09ZM23.91 12.4c-.05.06-.12.12-.15.19-.04.12-.02.27-.08.37-.12.2-.26.41-.44.57-.26.22-.3.67-.74.69-.02 0-.05.05-.06.08-.15.46-.49.79-.77 1.16-.78 1.05-1.54 2.12-2.3 3.19-.05.07-.09.14-.16.25h.41c.64 0 1.29 0 1.93-.02 1.07-.04 2.14-.08 3.21-.14.92-.05 1.85-.14 2.77-.15 1.91-.02 3.82-.09 5.72-.26 1.38-.12 2.77-.17 4.15-.21.8-.02 1.59.03 2.39.05.09 0 .18 0 .3-.01-.07-.12-.12-.2-.17-.27l-1.59-2.34c-2.25-3.36-4.43-6.77-6.99-9.9-.36-.44-.71-.9-1.06-1.35-.13-.17-.25-.2-.39-.03-.14.16-.29.32-.42.49-.61.84-1.21 1.68-1.81 2.52-.5.71-.99 1.42-1.47 2.14-.03.05-.03.12-.05.18h.15c-.04.09-.09.16-.13.25-.07-.08-.12-.15-.18-.23-.21.29-.41.57-.6.84.02.01.04.03.05.04.07-.06.15-.12.22-.17 0 0 .02.02.02.03-.2.25-.4.51-.62.78v-.22c-.44.49-.84.95-1.14 1.49v-.01Zm-1.38 27.07s-.1-.09-.15-.14c-.72-.78-1.09-1.75-1.51-2.7-.02-.04-.04-.09-.03-.12.03-.08.08-.15.12-.23.06.04.14.07.18.13.07.08.12.17.18.26.02-.01.05-.02.07-.03l-.29-1.13h.03l.33.78c.1 0 .19.03.23.08.4.63.79 1.26 1.17 1.9.15.26.38.52.1.81.19.13.36.24.53.35l.05-.07c-.12-.16-.25-.32-.37-.49.08-.01.11.01.14.04.4.38.77.81 1.22 1.14.96.7 2.04 1.19 3.19 1.49 1.05.27 2.14.24 3.22.21 2.12-.05 4.12-.51 5.82-1.89.07-.06.16-.1.23-.17.23-.23.49-.43.69-.69.84-1.13 1.59-2.32 2.01-3.68.09-.31.2-.61.3-.91-.01 0-.03-.01-.04-.02l-.24.32s-.06-.04-.08-.06c.06-.11.11-.22.17-.33.27-.55.52-1.11.57-1.74.04-.5.08-1.01.17-1.5.12-.66.22-1.3-.02-1.96-.22-.58-.26-1.25-.55-1.78-.41-.74-.96-1.39-1.48-2.06-.16-.21-.4-.38-.62-.53-.78-.53-1.56-1.05-2.35-1.57-.61-.4-1.25-.74-1.97-.85-.61-.1-1.23-.1-1.84-.11-.34 0-.68.06-1.01.12-.32.06-.63.16-.94.23-.21.05-.43.07-.64.14-.26.09-.51.2-.75.33-.64.32-1.29.64-1.92.97-.07.04-.12.11-.18.16.01.01.02.03.04.04.16-.06.31-.13.47-.19.01.02.02.05.04.07-.21.13-.41.27-.68.44.02-.17.03-.26.05-.38-.2.07-.36.15-.23.36-.13.09-.28.15-.36.26-.27.36-.64.59-1.02.8-.12.07-.26.14-.31.25-.27.54-.73.93-1.11 1.37-.05.06-.06.17-.05.26.02.23-.02.42-.2.58.03-.16.05-.31.08-.46l-.09-.02c-.22.35-.53.64-.65 1.07-.11.38-.44.68-.44 1.11 0 .04-.06.07-.1.1-.31.26-.33.53-.1.74-.08.36-.14.68-.22.99-.03.13-.06.27-.11.39-.14.32-.39.35-.6.07 0 0-.03 0-.11-.01-.26 3.83.21 7.63.29 11.46l6.68-.12c0-.02.01-.05.02-.07-.43-.21-.87-.42-1.3-.63-.06-.03-.13-.06-.19-.08-.26-.1-.54-.17-.79-.31-.36-.2-.69-.44-1.04-.66-.1-.07-.22-.12-.32-.17 0-.01.01-.03.02-.04.17.07.34.13.51.2.01-.02.02-.04.03-.05-.27-.32-.54-.64-.84-1-.24.01-.47-.1-.58-.4h.16c-.13-.19-.25-.34-.36-.5-.11-.15-.21-.31-.32-.46a.21.21 0 0 0-.06.04l.12.24-.07.01Zm35.43-2.66c.07-.13.13-.19.15-.27.05-.21.11-.42.13-.63.04-.48.05-.96.09-1.43.08-.9.18-1.8.26-2.7-.23-.04-.43-.85-.27-1.26.12.04.25.07.41.12-.04-.14-.09-.21-.07-.26.1-.29-.06-.53-.16-.77a.535.535 0 0 1 .1-.6c.04-.04.06-.09.11-.17l-.44.08c.06-.3-.29-.63.19-.85.04.2.07.39.1.58h.09c.19-1.33.09-2.65-.09-3.99-.11.02-.17.03-.26.04.1-.23-.17-.37-.06-.58.01-.02-.04-.07-.05-.11-.05-.17-.11-.34-.13-.51-.03-.23 0-.46-.04-.69-.17-1.33-.56-2.6-.92-3.89-.45-1.59-1.2-3-2.24-4.26-1.7-2.06-3.38-4.15-5.26-6.05-.21-.22-.44-.45-.71-.58-1.52-.78-3.05-1.55-4.6-2.28-2.57-1.21-5.29-1.91-8.1-2.28-1.2-.16-2.42-.22-3.63-.33-.17-.01-.33-.04-.55-.06.09.11.14.18.19.24.35.42.71.83 1.04 1.27 1.47 1.95 2.93 3.91 4.38 5.87 1.44 1.97 2.86 3.96 4.29 5.94.26.35.53.69.79 1.04.29.38.65.57 1.15.53.51-.04 1.02 0 1.53 0v.29c.02.98.03 1.97.06 2.95 0 .13.08.28.15.4.81 1.23 1.63 2.46 2.44 3.68.5.75.98 1.51 1.49 2.25 1.52 2.22 3.06 4.42 4.57 6.65 1.09 1.62 2.14 3.26 3.22 4.9.05.08.12.15.18.22.02-.01.05-.03.07-.04-.03-.1-.06-.2-.11-.36.12.06.19.09.31.15v-1.54h-.05c-.08.4-.16.79-.26 1.25-.19-.3-.25-.52-.1-.78.07-.13.09-.29.11-.44.03-.21.04-.42.06-.65.11.04.19.07.32.11-.07-.33-.14-.62-.21-.95.45.11.26.46.37.77l-.04-.02Zm-12.65 5.88c.17-.03.31-.07.45-.07.12 0 .24.08.36.07 1.13-.05 2.26-.14 3.39-.16 2.15-.04 4.3-.04 6.45-.05.22 0 .45-.02.67-.06.08-.01.19-.1.21-.17.02-.08-.03-.2-.09-.26-.2-.23-.43-.43-.62-.68-1.41-1.89-2.86-3.77-4.21-5.71-1.27-1.81-2.42-3.7-3.65-5.53-.79-1.19-1.62-2.36-2.43-3.53-.11-.16-.24-.31-.41-.53 0 .17-.02.25-.02.34-.03 1.34-.07 2.67-.09 4.01 0 .21-.04.4.07.64.12.25.03.61.03.92h-.01c-.02-.15-.05-.31-.07-.46-.02 0-.05 0-.07.01v1.21c0 .37-.04.74.22.99-.08.07-.19.13-.19.18.03.48-.15.99.16 1.44.04.06.06.14.09.23-.11-.01-.2-.02-.32-.04.02.26.01.5.05.74.03.18.14.28.34.03.04.27.07.47.09.68.02.24.11.5.04.71-.08.26-.02.47.05.7.05.19.06.39.09.58h-.07c-.04-.15-.08-.3-.13-.47-.05.31-.1.59-.14.88-.12-.05-.19-.08-.3-.13.11 1.19-.23 2.35.06 3.49Zm-2.6-14.15s.06 0 .08-.01c0-.09.01-.18.01-.27-.04-1.83-.09-3.67-.1-5.5 0-.6-.13-1.1-.46-1.61-.25-.39-.51-.63-.99-.51-.11.02-.22.01-.33.01-1.78.03-3.56.07-5.35.1-.04 0-.09.01-.13.02.35.23.71.4 1.08.56.9.41 1.8.82 2.56 1.46.67.56 1.28 1.19 1.74 1.95.16.26.33.53.51.77.62.81.99 1.74 1.26 2.7.03.11.07.22.11.33h.01Zm-6.7 14.4s.01.04.02.06c2.32-.08 4.65-.16 6.99-.25-.31-2.33-.57-4.61-.57-6.92-.3.51-.56 1.03-.82 1.55-.73 1.49-1.63 2.85-3.07 3.78-.08.05-.14.12-.21.19-.62.57-1.29 1.08-2.05 1.45-.1.05-.19.1-.29.14Zm-15.3-21.52c-.06 1.97-.11 3.9-.17 5.81 1.68-2.34 3.52-4.53 6.04-6.09-1.96.09-3.92.19-5.87.28Zm14.12 39.65v.06l1.17-.15v-.03l-.42-.09c0-.02.01-.04.02-.06.26.08 1.37-.12 1.5-.35-1.37.19-2.74.37-4.11.56 0 .05.01.09.02.14.69-.07 1.38-.13 2.06-.2v.07l-.24.06v-.01ZM9.58 51.91s-.04.03-.05.05c.14.34.42.62.69.66-.23-.25-.43-.48-.64-.71Zm27.59 8.52v.07c.36.11.69-.06 1.03-.13v-.07l-1.02.12-.01.01Zm-5.51.68v.1l1.1-.12c0-.03 0-.06-.01-.09l-1.09.12v-.01Z"/><path fill="#1D1D1B" d="M2.59 31.01c.03.47.04.94.09 1.4.03.34.1.67.17 1.01.07.36.17.71.23 1.07.01.06-.06.16-.12.21-.07.06-.16.08-.19.09.08.12.22.24.21.36 0 .12-.15.23-.24.36.1.04.18.08.28.12.03-.07.05-.12.08-.2.09.13.17.25.25.37-.07.04-.15.11-.21.1-.16-.03-.32-.09-.52-.16.03.33.05.62.08.91h-.03c-.15-.61-.3-1.21-.46-1.84-.1.02-.17.03-.25.05 0-.01-.03-.02-.03-.04-.11-.52-.21-1.03-.31-1.55-.02-.12-.05-.24-.03-.35.03-.24.04-.45-.16-.64-.04-.04.02-.2.05-.38.16.23.28.38.39.53h.05c0-.18.02-.34.03-.51.09 0 .16-.01.25-.02v-.39h.05c.07.32.15.64.24 1.02.1-.56-.22-1.06 0-1.55h.12l-.02.03Zm7.28-1.87c-.08.11-.15.23-.25.33-.13.14-.16.26.07.38.08-.11.15-.23.23-.34.02.01.04.03.06.04-.2.3-.4.61-.6.91 0 0-.02-.01-.03-.02.07-.18.15-.36.22-.55-.02 0-.04-.02-.06-.03-.33.42-.66.85-1.01 1.28.2.11.14.21 0 .32-.27.2-.57.39-.68.74-.02.06-.12.1-.16.13-.11-.12-.19-.21-.29-.33.2-.49.63-.83 1.06-1.16.16-.12.3-.25.47-.35.26-.15.26-.41.29-.67-.08.1-.16.2-.24.31l-.05-.05c.24-.38.53-.72.89-1 .02.02.05.04.07.06h.01Zm1.06-1.3c-.23.29-.45.59-.73.94-.02-.13-.06-.22-.03-.26.21-.27.4-.57.67-.78.03.03.06.07.09.1Zm-7.16 9.77c.25-.08.25.11.3.21.3.6.31.69.18.83-.16-.35-.32-.68-.48-1.05v.01Zm-.35-1.36c.08.19.16.39.24.59-.19 0-.35-.33-.32-.57.02 0 .05-.02.07-.03l.01.01ZM48.6 56.51c-.21.11-.41.22-.62.33-.01-.02-.03-.05-.04-.07.2-.12.4-.25.6-.37.02.04.04.07.06.11ZM8.93 29.35c.15-.19.3-.37.45-.56-.1.23-.15.49-.45.56Zm21.02-6.51c.18-.08.35-.17.54-.26 0 .093-.18.18-.54.26ZM23.91 12.4c.11-.06.22-.11.4-.2-.12.17-.2.29-.3.44-.04-.11-.06-.18-.08-.25l-.02.01Zm21.62 28.54c-.18.01-.19-.02-.13-.51.18.12.17.11.1.29-.02.05.02.14.03.22Z"/></svg>