<svg xmlns="http://www.w3.org/2000/svg" width="75" height="112" fill="none" viewBox="0 0 75 112"><path stroke="#1D1D1B" stroke-miterlimit="10" d="M65.71.5H9.32A8.32 8.32 0 0 0 1 8.82v56.39a8.32 8.32 0 0 0 8.32 8.32h56.39a8.32 8.32 0 0 0 8.32-8.32V8.82A8.32 8.32 0 0 0 65.71.5Z"/><path fill="#1D1D1B" d="M15.672 48.97V15.675h11.25c2.611 0 4.747.472 6.405 1.415 1.669.932 2.904 2.195 3.706 3.788.803 1.593 1.203 3.37 1.203 5.332 0 1.962-.4 3.745-1.203 5.349-.79 1.604-2.015 2.882-3.674 3.836-1.658.943-3.782 1.415-6.372 1.415h-8.064v-3.577h7.934c1.788 0 3.224-.309 4.308-.927 1.084-.617 1.87-1.452 2.357-2.503.498-1.062.748-2.26.748-3.593 0-1.333-.25-2.525-.748-3.576-.488-1.052-1.279-1.875-2.374-2.472-1.094-.607-2.546-.91-4.357-.91h-7.088V48.97h-4.031Zm46.227-19.378-3.447.975a6.402 6.402 0 0 0-.959-1.675c-.412-.552-.975-1.008-1.69-1.365-.716-.358-1.632-.537-2.748-.537-1.528 0-2.802.353-3.82 1.057-1.008.694-1.513 1.577-1.513 2.65 0 .954.347 1.707 1.041 2.26.694.553 1.777 1.013 3.251 1.382l3.707.91c2.233.542 3.896 1.371 4.991 2.487 1.095 1.106 1.642 2.531 1.642 4.276 0 1.43-.412 2.71-1.236 3.837-.813 1.127-1.95 2.016-3.414 2.666-1.463.65-3.164.975-5.104.975-2.547 0-4.655-.553-6.324-1.658-1.67-1.105-2.726-2.72-3.17-4.845l3.641-.91c.347 1.344 1.003 2.352 1.967 3.024.976.672 2.25 1.008 3.82 1.008 1.789 0 3.209-.38 4.26-1.138 1.062-.77 1.593-1.691 1.593-2.764 0-.867-.303-1.593-.91-2.178-.607-.597-1.54-1.04-2.796-1.334l-4.162-.975c-2.287-.542-3.967-1.382-5.04-2.52-1.062-1.149-1.593-2.585-1.593-4.308 0-1.409.395-2.655 1.187-3.74.802-1.083 1.89-1.934 3.267-2.551 1.388-.618 2.96-.927 4.715-.927 2.47 0 4.411.542 5.82 1.626 1.42 1.083 2.428 2.514 3.024 4.291ZM7.92 111.415v-9h.972v1.039h.12a8.35 8.35 0 0 1 .306-.434 1.81 1.81 0 0 1 .571-.478c.25-.142.588-.213 1.014-.213.551 0 1.037.138 1.458.414.42.275.748.666.984 1.172.236.505.354 1.102.354 1.789 0 .693-.118 1.294-.354 1.803-.236.506-.562.898-.98 1.176-.418.276-.9.413-1.444.413-.421 0-.758-.069-1.01-.208a1.886 1.886 0 0 1-.584-.482 6.332 6.332 0 0 1-.316-.452h-.085v3.461H7.92Zm.99-5.728c0 .495.072.931.216 1.308.145.375.357.67.635.883.279.21.62.315 1.023.315.42 0 .771-.111 1.053-.332.284-.225.497-.526.639-.904.145-.381.217-.804.217-1.27 0-.46-.07-.875-.213-1.244a1.924 1.924 0 0 0-.635-.882c-.281-.219-.635-.328-1.06-.328-.41 0-.754.103-1.032.311a1.861 1.861 0 0 0-.63.861c-.143.366-.214.794-.214 1.282Zm7.329-.665v3.938h-1.006v-8.727h1.006v3.204h.085a1.85 1.85 0 0 1 .69-.805c.31-.202.722-.303 1.236-.303.446 0 .837.09 1.172.269.335.176.595.447.78.814.187.363.281.826.281 1.389v4.159h-1.006v-4.091c0-.52-.135-.922-.405-1.206-.267-.287-.637-.43-1.112-.43-.33 0-.625.069-.886.208-.259.14-.463.343-.614.61-.148.267-.221.591-.221.971Zm8.743 4.074c-.591 0-1.11-.14-1.555-.422a2.861 2.861 0 0 1-1.04-1.18c-.247-.506-.371-1.097-.371-1.773 0-.681.124-1.277.37-1.785.25-.509.597-.904 1.04-1.185.447-.281.965-.422 1.556-.422.59 0 1.108.141 1.551.422.446.281.793.676 1.04 1.185.25.508.375 1.104.375 1.785 0 .676-.125 1.267-.375 1.773a2.823 2.823 0 0 1-1.04 1.18c-.443.282-.96.422-1.551.422Zm0-.903c.449 0 .818-.115 1.108-.345.29-.23.504-.533.643-.908.14-.375.21-.781.21-1.219 0-.437-.07-.845-.21-1.223a2.06 2.06 0 0 0-.643-.916c-.29-.233-.66-.349-1.108-.349-.449 0-.818.116-1.108.349a2.06 2.06 0 0 0-.643.916c-.14.378-.21.786-.21 1.223 0 .438.07.844.21 1.219.139.375.353.678.643.908.29.23.659.345 1.108.345Zm7.348-5.778v.852h-3.392v-.852h3.392Zm-2.404-1.569h1.006v6.239c0 .284.041.497.123.639a.64.64 0 0 0 .324.281c.134.046.274.069.422.069.11 0 .202-.006.273-.017l.17-.035.205.904a2.193 2.193 0 0 1-.75.119c-.284 0-.563-.061-.835-.183a1.658 1.658 0 0 1-.674-.558c-.176-.25-.264-.566-.264-.946v-6.512Zm6.505 8.25c-.59 0-1.11-.14-1.555-.422a2.861 2.861 0 0 1-1.04-1.18c-.247-.506-.37-1.097-.37-1.773 0-.681.123-1.277.37-1.785.25-.509.596-.904 1.04-1.185.446-.281.964-.422 1.555-.422s1.108.141 1.551.422c.446.281.793.676 1.04 1.185.25.508.375 1.104.375 1.785 0 .676-.125 1.267-.375 1.773a2.821 2.821 0 0 1-1.04 1.18c-.443.282-.96.422-1.55.422Zm0-.903c.449 0 .818-.115 1.108-.345.29-.23.504-.533.643-.908.14-.375.21-.781.21-1.219 0-.437-.07-.845-.21-1.223a2.06 2.06 0 0 0-.643-.916c-.29-.233-.659-.349-1.108-.349-.449 0-.818.116-1.108.349a2.06 2.06 0 0 0-.643.916c-.14.378-.21.786-.21 1.223 0 .438.07.844.21 1.219.139.375.353.678.643.908.29.23.66.345 1.108.345Zm9.138-4.313-.904.256a1.686 1.686 0 0 0-.251-.439 1.221 1.221 0 0 0-.444-.358c-.187-.094-.427-.14-.72-.14-.4 0-.734.092-1.001.277-.264.181-.396.413-.396.694 0 .25.09.448.272.593.182.144.466.265.853.362l.971.238c.585.142 1.022.36 1.309.652.286.29.43.664.43 1.121 0 .375-.108.71-.324 1.006a2.156 2.156 0 0 1-.895.699c-.383.17-.83.255-1.338.255-.668 0-1.22-.145-1.658-.434-.437-.29-.714-.713-.83-1.27l.954-.239c.09.352.263.617.516.793.255.176.59.264 1.001.264.469 0 .84-.099 1.117-.298.278-.202.417-.444.417-.725a.763.763 0 0 0-.239-.571c-.159-.156-.403-.273-.733-.349l-1.09-.256c-.6-.142-1.04-.362-1.321-.66-.279-.302-.418-.678-.418-1.13 0-.369.104-.696.311-.98a2.12 2.12 0 0 1 .857-.669 3.006 3.006 0 0 1 1.235-.243c.648 0 1.157.142 1.526.426.372.285.636.66.792 1.125Zm2.638 1.142v3.938h-1.005v-8.727h1.005v3.204h.086a1.85 1.85 0 0 1 .69-.805c.31-.202.722-.303 1.236-.303.446 0 .836.09 1.172.269.335.176.595.447.78.814.187.363.28.826.28 1.389v4.159h-1.005v-4.091c0-.52-.135-.922-.405-1.206-.267-.287-.638-.43-1.112-.43-.33 0-.625.069-.886.208-.259.14-.463.343-.614.61-.148.267-.222.591-.222.971Zm8.744 4.074c-.591 0-1.11-.14-1.556-.422a2.862 2.862 0 0 1-1.04-1.18c-.247-.506-.37-1.097-.37-1.773 0-.681.123-1.277.37-1.785.25-.509.597-.904 1.04-1.185.446-.281.965-.422 1.556-.422.59 0 1.108.141 1.55.422a2.81 2.81 0 0 1 1.04 1.185c.25.508.376 1.104.376 1.785 0 .676-.126 1.267-.376 1.773a2.822 2.822 0 0 1-1.04 1.18c-.442.282-.96.422-1.55.422Zm0-.903c.449 0 .818-.115 1.108-.345.29-.23.504-.533.643-.908.14-.375.209-.781.209-1.219 0-.437-.07-.845-.209-1.223a2.06 2.06 0 0 0-.643-.916c-.29-.233-.66-.349-1.108-.349-.45 0-.819.116-1.108.349a2.06 2.06 0 0 0-.644.916 3.518 3.518 0 0 0-.209 1.223c0 .438.07.844.21 1.219.138.375.353.678.643.908.29.23.659.345 1.108.345Zm4.5 3.222v-9h.972v1.039h.12c.074-.113.176-.258.306-.434a1.81 1.81 0 0 1 .572-.478c.25-.142.587-.213 1.014-.213.55 0 1.037.138 1.457.414.42.275.749.666.984 1.172.236.505.354 1.102.354 1.789 0 .693-.118 1.294-.354 1.803-.235.506-.562.898-.98 1.176-.417.276-.899.413-1.444.413-.42 0-.757-.069-1.01-.208a1.884 1.884 0 0 1-.584-.482 6.332 6.332 0 0 1-.315-.452h-.086v3.461h-1.005Zm.99-5.728c0 .495.072.931.217 1.308.145.375.356.67.635.883.278.21.619.315 1.022.315.42 0 .772-.111 1.053-.332.284-.225.497-.526.64-.904.144-.381.216-.804.216-1.27 0-.46-.07-.875-.213-1.244a1.924 1.924 0 0 0-.635-.882c-.28-.219-.635-.328-1.06-.328-.41 0-.754.103-1.032.311a1.862 1.862 0 0 0-.63.861c-.143.366-.214.794-.214 1.282Z"/></svg>