<svg xmlns="http://www.w3.org/2000/svg" width="60" height="60" fill="none" viewBox="0 0 60 60"><path fill="#1D1D1B" d="M.36 44.31V14.87l.3-.12c1.77-.88 3.54-1.77 5.31-2.66.2-.1.33-.11.52.04 4.76 3.72 9.53 7.43 14.3 11.14.12.09.25.18.4.3.11-.12.19-.23.29-.33 7.6-7.61 15.21-15.21 22.8-22.82.19-.19.34-.22.58-.12 3.96 1.59 7.93 3.18 11.89 4.76.83.33 1.65.66 2.48.99v47.06c-.1.04-.2.09-.3.13-4.67 1.87-9.35 3.74-14.02 5.61-.11.05-.22.12-.32.18h-.06l-.15-.18c-7.66-7.67-15.33-15.33-22.99-23-.07-.07-.15-.14-.23-.22-.13.1-.24.18-.35.27-4.77 3.72-9.55 7.43-14.32 11.15-.17.13-.3.16-.49.06-1.06-.54-2.13-1.08-3.2-1.61-.81-.4-1.62-.79-2.42-1.19H.36Zm44.16-2.6V17.46c-5.22 4.06-10.39 8.08-15.59 12.12L44.52 41.7v.01ZM6.26 20.82v17.53c2.93-2.93 5.86-5.86 8.75-8.76-2.9-2.9-5.82-5.83-8.75-8.77Z"/></svg>