<svg xmlns="http://www.w3.org/2000/svg" width="75" height="75" fill="none" viewBox="0 0 75 75"><path stroke="#1D1D1B" stroke-miterlimit="10" d="M65.38.97H8.99A8.32 8.32 0 0 0 .67 9.29v56.39A8.32 8.32 0 0 0 8.99 74h56.39a8.32 8.32 0 0 0 8.32-8.32V9.29A8.32 8.32 0 0 0 65.38.97Z"/><path fill="#1D1D1B" d="M66.31 8.8c1.76 8.67.13 16.58-5.35 23.56-5.66 7.21-13.16 11.83-21.77 14.6-5.13 1.65-10.44 2.74-15.65 4.14-1.42.38-2.82.9-4.18 1.47C13.59 55 9.22 58.74 7.88 65.23c.65-15.39 8.07-26.81 23.59-31.69 6.28-1.97 12.6-3.88 18.72-6.28 3.12-1.22 6.01-3.24 8.69-5.3 4.28-3.27 6.8-7.72 7.4-13.17l.03.01Z"/></svg>