<svg xmlns="http://www.w3.org/2000/svg" width="74" height="74" fill="none" viewBox="0 0 74 74"><path fill="#1D1D1B" d="M51.75 11.91c4.39-.78 8.79-1.53 13.18-2.36 1.99-.38 4-.61 5.96-1.11.57-.14 1.2-.17 1.77.03 1 .37 1.42 1.65.86 2.7-1.05 1.96-2.14 3.89-3.21 5.83-1.14 2.09-2.27 4.18-3.46 6.24-1.18 2.06-2.34 4.14-3.53 6.19-2.26 3.9-4.39 7.87-6.58 11.8-2.39 4.29-4.79 8.58-7.19 12.87-3.41 6.1-6.82 12.2-10.24 18.29-.4.71-1.02 1.25-1.83 1.21-.75-.04-1.36-.52-1.76-1.22-4.79-8.44-9.56-16.89-14.39-25.3-2.32-4.05-4.59-8.13-6.94-12.17-3.84-6.58-7.48-13.27-11.28-19.87-.8-1.4-1.68-2.75-2.37-4.21-.48-1.02.33-2.38 1.45-2.46 1-.07 1.97.19 2.94.35 2.5.41 4.98.95 7.48 1.4 3.48.62 6.96 1.2 10.44 1.82 1.31.24 2.62.5 3.95.61 0 .2.05.4.02.59-.3 1.8-.28 3.63-.4 5.45-.09 1.43-.18 2.87-.22 4.31-.03.91-.07 1.83-.13 2.74-.13 2.14-.33 4.28-.43 6.42-.07 1.36.39 1.66 1.71 1.34 2.1-.51 4.2-1.01 6.31-1.5.82-.19 1.26.19 1.26 1.01 0 .28-.1.53-.14.79-.53 3.2-1.27 6.36-1.9 9.54-.14.68.5 1.28 1.19 1.09 1.22-.35 2.43-.73 3.65-1.07.53-.15 1.11-.4 1.62.02.59.48.25 1.06.07 1.61v.07c-.68 3.37-1.35 6.73-2.04 10.09-.35 1.7-.74 3.38-1.09 5.08-.1.48.06.94.48 1.16.38.19.81.12 1.14-.26.24-.28.46-.56.63-.9 4.38-8.73 8.77-17.46 13.15-26.18 1.82-3.62 3.64-7.25 5.45-10.88.63-1.26 1.26-2.52 1.89-3.79.2-.4.26-.85.02-1.21-.25-.37-.66-.34-1.11-.29-2.27.27-4.48.86-6.73 1.24-1.24.21-1.74-.35-1.36-1.58.17-.56.3-1.13.5-1.67.46-1.27.6-2.65 1.22-3.87l-.01.01Z"/><path fill="#1D1D1B" d="M37.92 58.15c.21-.96.42-1.91.62-2.87.5-2.46 1-4.91 1.49-7.37l.56-2.79.03-.09c.18-.49.6-1.63-.46-2.5-.37-.3-.8-.45-1.28-.45-.4 0-.77.11-1.06.2l-.18.05c-.68.19-1.35.39-2.02.59-.55.16-1.09.33-1.64.48.27-1 .5-2.06.72-3.12.44-2.08.89-4.23 1.25-6.38.01-.07.03-.14.04-.2.05-.2.11-.45.11-.75 0-.82-.3-1.29-.56-1.55-.23-.23-.65-.51-1.31-.51-.2 0-.4.03-.62.08-2.11.49-4.21.99-6.32 1.5-.22.05-.37.08-.47.09 0-.09-.01-.22 0-.4.06-1.27.15-2.54.25-3.8.06-.87.13-1.74.18-2.61.06-.92.1-1.85.13-2.77.04-1.34.12-2.68.22-4.27.04-.55.06-1.11.08-1.67.05-1.28.1-2.48.3-3.68.04-.27.02-.5 0-.67v-.13c.01-.8.08-1.7.15-2.58.09-1.15.18-2.34.18-3.54 0-.12.01-.18.02-.21.02 0 .13-.05.39-.09 1.28-.24 2.56-.47 3.84-.7 2.27-.41 4.55-.83 6.81-1.27 3.2-.62 6.4-1.26 9.6-1.9l4.16-.83c.19-.04.29-.06.4-.08.05 0 .11-.01.16-.02 0 .03-.02.08-.03.12-.14.48-.29.96-.44 1.45-.29.94-.59 1.92-.83 2.9-.19.77-.42 1.52-.67 2.31-.35 1.12-.72 2.29-.93 3.51-.38.79-.58 1.59-.78 2.38-.13.51-.25 1-.42 1.46-.13.35-.23.72-.33 1.08l-.18.63c-.28.9-.22 1.63.18 2.18.25.34.74.75 1.66.75.19 0 .41-.02.64-.06.89-.15 1.77-.33 2.65-.52 1.32-.27 2.69-.56 4.04-.72.04 0 .07 0 .11-.01 0 .02-.02.05-.03.07-.62 1.26-1.25 2.52-1.89 3.78l-1.19 2.37c-1.42 2.84-2.84 5.67-4.27 8.51 0 0-10.27 20.44-13.15 26.19-.09.17-.2.34-.36.53.15-.7.3-1.39.45-2.08v-.02Z"/><path fill="#FFBFD7" d="M52.27 2.6c-.29.95-.6 1.94-.84 2.95-.18.74-.41 1.47-.65 2.24-.35 1.12-.72 2.27-.94 3.51-.38.84-.6 1.68-.79 2.44-.12.49-.24.95-.39 1.37-.15.4-.25.79-.35 1.16-.06.2-.11.4-.17.6-.48 1.52-.08 2.51.33 3.07.32.43 1.06 1.15 2.46 1.15.26 0 .53-.02.81-.07.91-.16 1.81-.34 2.69-.52.75-.15 1.47-.3 2.19-.43-.35.71-.71 1.42-1.07 2.13l-.88 1.76c-1.52 3.04-3.04 6.08-4.57 9.11l-4.19 8.34c-1.97 3.92-3.94 7.83-5.9 11.75l.99-4.93.57-2.84v-.02c.57-1.53.31-2.74-.76-3.62-.54-.45-1.21-.68-1.92-.68-.55 0-1.01.14-1.35.24l-.16.05c-.67.19-1.33.39-2 .58l.3-1.44c.44-2.1.9-4.27 1.26-6.45 0-.05.02-.09.03-.14.05-.22.13-.56.13-.98 0-1.16-.46-1.87-.85-2.26-.52-.52-1.24-.81-2.02-.81-.27 0-.56.03-.84.1-1.8.42-3.65.85-5.51 1.31.06-.96.13-1.93.2-2.88.06-.87.13-1.74.18-2.62.06-1.04.11-1.95.13-2.8.04-1.47.14-2.96.22-4.24.04-.56.06-1.12.08-1.68.05-1.25.1-2.43.29-3.57.06-.39.03-.73.01-.93v-.03c.02-.82.09-1.64.15-2.5.08-.97.15-1.97.18-3.01l3.47-.63c2.22-.4 4.52-.82 6.79-1.26 3.21-.62 6.46-1.27 9.6-1.9 1.03-.21 2.06-.41 3.08-.62M53.73.31c-.11 0-.22 0-.35.03-.15.02-.29.05-.44.08-4.58.91-9.16 1.85-13.75 2.73-3.54.68-7.1 1.31-10.64 1.97-.89.17-1.23.48-1.22 1.29 0 2.06-.28 4.1-.34 6.16 0 .2.05.4.02.59-.3 1.8-.28 3.63-.4 5.45-.09 1.43-.18 2.87-.22 4.31-.03.91-.07 1.83-.13 2.74-.13 2.14-.33 4.28-.43 6.42-.05 1.03.2 1.45.9 1.45.22 0 .49-.04.8-.12 2.1-.51 4.2-1.01 6.31-1.5.14-.03.27-.05.39-.05.57 0 .87.38.87 1.06 0 .28-.1.53-.14.79-.53 3.2-1.27 6.36-1.9 9.54-.12.59.35 1.12.93 1.12.09 0 .18-.01.27-.04 1.22-.35 2.43-.73 3.65-1.07.32-.09.65-.21.97-.21.22 0 .44.06.65.23.59.48.25 1.06.07 1.61v.07c-.68 3.37-1.35 6.73-2.04 10.09-.35 1.7-.74 3.38-1.09 5.08-.1.48.06.94.48 1.16.13.07.27.1.41.1.26 0 .52-.12.73-.36.24-.28.46-.56.63-.9 4.38-8.73 8.77-17.46 13.15-26.18a3678.044 3678.044 0 0 0 7.34-14.67c.2-.4.26-.85.02-1.21-.17-.25-.42-.32-.7-.32-.13 0-.26.01-.4.03-2.27.27-4.48.86-6.73 1.24-.17.03-.33.04-.47.04-.89 0-1.22-.56-.88-1.63.17-.56.3-1.13.5-1.67.46-1.27.6-2.65 1.22-3.87.33-2.02 1.13-3.91 1.62-5.89.35-1.45.84-2.87 1.26-4.31.26-.89-.08-1.4-.89-1.4l-.03.02Z"/></svg>