<svg xmlns="http://www.w3.org/2000/svg" width="59" height="65" fill="none" viewBox="0 0 59 65"><path fill="#1D1D1B" d="M29.65.16h26.54c1.98 0 2.02 0 1.85 1.9-.97 10.7-1.96 21.41-2.94 32.11-.67 7.31-1.41 14.61-1.96 21.93-.13 1.79-.65 2.53-2.47 2.97-6.22 1.51-12.41 3.18-18.55 5-2.14.64-4.06.3-6.05-.24-6.24-1.67-12.47-3.36-18.71-5.02-.78-.21-1.2-.55-1.27-1.45-.43-5.2-.93-10.39-1.41-15.58-.8-8.49-1.61-16.98-2.4-25.47-.46-4.89-.86-9.78-1.35-14.66C.81.48 1.15.14 2.33.15c9.11.05 18.21.03 27.32.02V.16Zm-.87 19.07c-.35.62-.99.72-1.53.95-4.37 1.86-8.74 3.74-13.13 5.55-.86.35-1.21.79-1.1 1.72.15 1.33.33 2.69.25 4.02-.1 1.58.45 1.98 2.01 1.96 7.19-.09 14.38-.04 21.57-.03.63 0 1.41-.22 1.32.93-.19 2.42-.32 4.85-.49 7.27-.03.46-.07.98-.64 1.13-3.67.97-7.1 2.85-11.22 1.31-4-1.5-4.11-1.19-4.51-5.44 0-.1-.01-.21-.02-.31-.03-.75-.36-1.1-1.16-1.09-1.71.04-3.41.03-5.12 0-.73-.01-1.04.24-.97.99.28 2.93.58 5.86.77 8.8.06.96.47 1.32 1.34 1.56 4.18 1.17 8.34 2.4 12.49 3.64.69.21 1.32.12 1.97-.06 4.23-1.18 8.46-2.37 12.69-3.52.75-.2 1.09-.53 1.15-1.36.49-6.44 1.01-12.88 1.58-19.31.11-1.27-.18-1.71-1.54-1.69-4.29.09-8.59.04-12.88.02-.41 0-.89.18-1.41-.31 4.3-1.81 8.43-3.71 12.69-5.28 2.88-1.06 4.92-2.38 4.26-5.86-.05-.29.09-.61.13-.92.18-1.413-.463-2.113-1.93-2.1h-1.24c-10.45.01-20.9.04-31.35 0-1.25 0-1.66.25-1.36 1.56.34 1.45.54 2.95.64 4.44.08 1.12.59 1.31 1.58 1.29 4.5-.07 9-.07 13.5-.08.53 0 1.11-.19 1.64.23l.02-.01Z"/></svg>