<svg xmlns="http://www.w3.org/2000/svg" width="75" height="75" fill="none" viewBox="0 0 75 75"><path stroke="#1D1D1B" stroke-miterlimit="10" d="M65.21.97H8.82A8.32 8.32 0 0 0 .5 9.29v56.39A8.32 8.32 0 0 0 8.82 74h56.39a8.32 8.32 0 0 0 8.32-8.32V9.29A8.32 8.32 0 0 0 65.21.97Z"/><path fill="#1D1D1B" d="M15.172 49.44V16.145h11.25c2.611 0 4.747.472 6.405 1.415 1.669.932 2.904 2.195 3.706 3.788.803 1.593 1.203 3.37 1.203 5.332 0 1.962-.4 3.745-1.203 5.349-.79 1.604-2.015 2.882-3.674 3.836-1.658.943-3.782 1.415-6.372 1.415h-8.064v-3.577h7.934c1.788 0 3.224-.309 4.308-.927 1.084-.617 1.87-1.452 2.357-2.503.498-1.062.748-2.26.748-3.593 0-1.333-.25-2.525-.748-3.577-.488-1.05-1.279-1.875-2.374-2.47-1.094-.608-2.546-.911-4.357-.911h-7.088V49.44h-4.031Zm46.227-19.378-3.447.975a6.4 6.4 0 0 0-.959-1.675c-.412-.552-.975-1.007-1.69-1.365-.716-.358-1.632-.537-2.748-.537-1.528 0-2.802.353-3.82 1.057-1.008.694-1.513 1.577-1.513 2.65 0 .954.347 1.707 1.041 2.26.694.552 1.777 1.013 3.251 1.382l3.707.91c2.233.542 3.896 1.371 4.991 2.487 1.095 1.106 1.642 2.531 1.642 4.276 0 1.43-.412 2.71-1.236 3.837-.813 1.127-1.95 2.015-3.414 2.666-1.463.65-3.164.975-5.104.975-2.547 0-4.655-.553-6.324-1.658-1.67-1.105-2.726-2.72-3.17-4.845l3.641-.91c.347 1.344 1.003 2.352 1.967 3.024.976.672 2.25 1.008 3.82 1.008 1.789 0 3.209-.38 4.26-1.138 1.062-.77 1.593-1.691 1.593-2.764 0-.867-.303-1.593-.91-2.178-.607-.597-1.54-1.04-2.796-1.334l-4.162-.975c-2.287-.542-3.967-1.382-5.04-2.52-1.062-1.149-1.593-2.585-1.593-4.308 0-1.409.395-2.655 1.187-3.74.802-1.083 1.89-1.934 3.267-2.552 1.388-.617 2.96-.926 4.715-.926 2.47 0 4.411.542 5.82 1.626 1.42 1.083 2.428 2.514 3.024 4.291Z"/></svg>