<svg xmlns="http://www.w3.org/2000/svg" width="94" height="108" fill="none" viewBox="0 0 94 108"><path fill="#1D1D1B" d="M38.83 97.564a1.338 1.338 0 0 0-.623-1.005c-.363-.239-.81-.358-1.338-.358-.386 0-.724.062-1.014.187a1.62 1.62 0 0 0-.673.516 1.23 1.23 0 0 0-.239.746c0 .233.056.433.166.6.114.165.259.303.435.414.176.108.36.197.554.268.193.069.37.124.533.167l.886.238c.227.06.48.142.759.247.28.105.55.249.805.431.258.179.472.409.64.69.167.281.25.627.25 1.036 0 .471-.123.897-.37 1.278-.245.381-.602.683-1.074.908-.469.224-1.038.336-1.709.336-.625 0-1.166-.1-1.623-.302a2.589 2.589 0 0 1-1.074-.844 2.409 2.409 0 0 1-.44-1.257h1.092c.028.33.139.602.332.818a1.8 1.8 0 0 0 .742.477c.3.103.625.154.971.154.404 0 .766-.065 1.087-.196.32-.134.575-.318.763-.554.187-.239.28-.517.28-.835 0-.29-.08-.526-.242-.708a1.785 1.785 0 0 0-.64-.443 6.628 6.628 0 0 0-.856-.298l-1.074-.307c-.681-.196-1.221-.476-1.619-.84-.398-.363-.597-.839-.597-1.427 0-.489.133-.915.397-1.278a2.631 2.631 0 0 1 1.074-.853 3.627 3.627 0 0 1 1.512-.307c.563 0 1.063.101 1.5.303.438.199.785.471 1.04.818.259.347.395.74.41 1.18H38.83Zm4.669 6.699c-.415 0-.791-.078-1.13-.234a1.939 1.939 0 0 1-.805-.686c-.199-.301-.298-.665-.298-1.091 0-.375.074-.679.222-.912.147-.236.345-.42.592-.554a3.12 3.12 0 0 1 .818-.298 10.1 10.1 0 0 1 .908-.162c.398-.051.72-.09.967-.115.25-.029.432-.075.545-.141.117-.065.175-.179.175-.34v-.035c0-.42-.115-.747-.345-.98-.227-.233-.572-.35-1.035-.35-.48 0-.857.106-1.13.316-.272.21-.464.435-.575.673l-.955-.34c.17-.398.398-.708.682-.93.287-.224.6-.38.938-.468.34-.091.676-.137 1.005-.137.21 0 .452.026.725.077.276.048.541.15.797.303.258.153.473.385.643.694.17.31.256.725.256 1.245v4.312h-1.006v-.886h-.05a1.773 1.773 0 0 1-.342.456c-.159.162-.37.299-.635.413-.264.114-.586.17-.967.17Zm.153-.903c.398 0 .733-.078 1.006-.234a1.597 1.597 0 0 0 .835-1.385v-.921c-.042.051-.136.098-.281.141a4.63 4.63 0 0 1-.494.106 21.062 21.062 0 0 1-.963.128c-.262.034-.506.09-.733.166a1.261 1.261 0 0 0-.546.337c-.136.148-.204.349-.204.605 0 .35.129.614.387.793.262.176.593.264.993.264Zm9.319-4.33-.903.256a1.68 1.68 0 0 0-.252-.439 1.221 1.221 0 0 0-.443-.358c-.188-.094-.428-.14-.72-.14-.4 0-.735.092-1.002.277-.264.181-.396.413-.396.694 0 .25.09.448.273.593.181.144.466.265.852.362l.972.238c.585.142 1.02.36 1.308.652.287.29.43.664.43 1.121 0 .375-.108.71-.324 1.006a2.155 2.155 0 0 1-.895.699c-.383.17-.83.255-1.338.255-.667 0-1.22-.145-1.657-.434-.438-.29-.715-.713-.831-1.27l.954-.239c.091.352.263.617.516.793.256.176.59.264 1.001.264.47 0 .841-.099 1.117-.298.278-.202.417-.443.417-.725a.762.762 0 0 0-.238-.571c-.16-.156-.404-.272-.733-.349l-1.091-.256c-.6-.142-1.04-.362-1.321-.66-.279-.302-.418-.678-.418-1.13 0-.369.104-.696.311-.98.21-.284.496-.507.857-.669a3.008 3.008 0 0 1 1.236-.243c.647 0 1.156.142 1.525.426.372.284.637.66.793 1.125Zm6.27 0-.904.256a1.678 1.678 0 0 0-.251-.439 1.221 1.221 0 0 0-.444-.358c-.187-.094-.427-.14-.72-.14-.4 0-.734.092-1.001.277-.264.181-.396.413-.396.694 0 .25.09.448.272.593.182.144.466.265.853.362l.971.238c.585.142 1.021.36 1.308.652.287.29.43.664.43 1.121 0 .375-.107.71-.323 1.006a2.156 2.156 0 0 1-.895.699c-.383.17-.83.255-1.338.255-.668 0-1.22-.145-1.658-.434-.437-.29-.714-.713-.83-1.27l.954-.239c.09.352.263.617.515.793.256.176.59.264 1.002.264.469 0 .84-.099 1.116-.298.279-.202.418-.443.418-.725a.763.763 0 0 0-.239-.571c-.159-.156-.403-.272-.733-.349l-1.09-.256c-.6-.142-1.04-.362-1.322-.66-.278-.302-.417-.678-.417-1.13 0-.369.104-.696.31-.98a2.13 2.13 0 0 1 .857-.669 3.008 3.008 0 0 1 1.236-.243c.648 0 1.157.142 1.526.426a2.3 2.3 0 0 1 .792 1.125ZM44.07.51c.05.1.15.07.23.07 1.75.1 3.48.35 5.18.81 2.03.55 3.94 1.34 5.62 2.63 1.6 1.22 2.8 2.73 3.39 4.68.24.79.38 1.61.44 2.43.19 2.5-.37 4.86-1.37 7.12-1.35 3.06-3.39 5.61-5.89 7.81a23.816 23.816 0 0 1-5.76 3.76c-1.83.84-3.74 1.45-5.69 1.95-1.4.36-2.83.62-4.26.79-.78.09-1.57.14-2.36.18-.89.05-1.78.02-2.66-.03-1.97-.11-3.89-.47-5.64-1.46-1.25-.7-2.34-1.57-3.13-2.79-.28-.43-.46-.91-.56-1.42-.02-.14 0-.27.04-.39.12-.31.44-.4.71-.2.13.1.27.21.38.34.83.99 1.92 1.6 3.11 2.05 1.23.46 2.5.69 3.81.75 1.96.1 3.88-.18 5.79-.58a28.92 28.92 0 0 0 7.86-2.85c2.46-1.31 4.67-2.95 6.57-4.99 1.13-1.21 2.1-2.53 2.85-4 .53-1.03.93-2.12 1.12-3.27.2-1.23.15-2.45-.33-3.62-.35-.87-.95-1.52-1.7-2.05-1.07-.76-2.27-1.21-3.53-1.52-1.56-.39-3.14-.52-4.74-.53-2.48-.02-4.92.31-7.34.85-3.3.75-6.46 1.88-9.52 3.32-3.34 1.58-6.56 3.37-9.6 5.47-1.96 1.35-3.81 2.83-5.47 4.54-1.23 1.27-2.33 2.65-3.16 4.23-.67 1.27-1.12 2.61-1.3 4.04-.18 1.44-.07 2.84.45 4.2.43 1.14 1.08 2.15 1.85 3.09 1.07 1.32 2.34 2.44 3.64 3.52 1.64 1.36 3.37 2.61 5.03 3.94 1.19.95 2.34 1.95 3.39 3.05.29.3.21.3.57.1 2.07-1.13 4.14-2.27 6.21-3.4.77-.42 1.53-.85 2.31-1.25.31-.16.55-.38.76-.66 1.48-1.92 3.25-3.48 5.44-4.55.81-.4 1.67-.67 2.59-.66 1.41.02 2.38.73 2.78 2.09.27.93.29 1.87.19 2.82-.03.32-.08.65-.11.97.15.02.23-.07.31-.13.32-.26.68-.37 1.09-.33.5.04.95.21 1.33.53.34.29.48.67.39 1.11-.16.78-.39 1.53-.59 2.29-.55 2.04-1.08 4.09-1.54 6.15-.23 1.02-.39 2.05-.33 3.11.01.19.02.39.11.58.17 0 .24-.15.32-.26.26-.37.45-.78.66-1.18.97-1.85 1.83-3.76 2.69-5.67.9-2 1.79-4 2.68-6 .85-1.91 1.71-3.82 2.5-5.76.28-.68.43-1.39.62-2.1.06-.21.12-.42.16-.64.07-.3.25-.49.52-.61.37-.17.76-.27 1.15-.33.79-.14 1.6-.18 2.4-.15.37.01.72.09 1.07.22.17.07.32.16.46.29.22.22.29.45.19.76-.32.93-.65 1.86-.87 2.82a8.846 8.846 0 0 0-.13 3.55c.05.32.09.65.13.98.11.73.41 1.4.72 2.06.17.37.36.74.57 1.15.08-.1.14-.17.18-.25 1.2-1.99 2.36-4.01 3.45-6.06.66-1.24 1.29-2.48 1.82-3.78.26-.62.35-1.29.53-1.93.14-.52.3-1.03.46-1.54.08-.27.25-.43.49-.55.39-.19.8-.28 1.22-.35.75-.12 1.5-.19 2.25-.15.44.02.87.08 1.27.28.13.07.25.14.36.25.21.21.28.43.18.73-.2.57-.39 1.15-.57 1.73-.37 1.18-.63 2.38-.54 3.62.1 1.46.3 2.9 1.02 4.22.35.64.66 1.3.99 1.95.13.25.14.25.38.14 1.58-.75 3.24-1.27 4.96-1.56 1.65-.28 3.31-.35 4.98-.21 1.26.1 2.48.34 3.67.75 1.91.65 3.6 1.65 4.99 3.13 1.31 1.39 2.19 3 2.5 4.9.22 1.39.12 2.75-.53 4.02-.75 1.47-1.94 2.47-3.44 3.12-.23.1-.47.12-.71.15a.407.407 0 0 1-.45-.24c-.07-.18-.04-.32.17-.47.21-.16.44-.3.66-.45.67-.45 1.26-1 1.71-1.68.8-1.21.93-2.51.52-3.88-.49-1.65-1.5-2.93-2.89-3.93-1.41-1.02-3-1.6-4.68-1.95-1.08-.23-2.18-.34-3.29-.4-2.36-.13-4.66.15-6.89.96-.55.2-.55.2-.37.73.32.91.54 1.85.6 2.81.05.84-.11 1.65-.46 2.41-.46 1.02-1.17 1.85-1.98 2.6-1.52 1.4-3.33 2.26-5.28 2.86-.62.19-1.24.25-1.86 0-.85-.34-1.29-.97-1.36-1.86-.1-1.23.22-2.39.72-3.5.59-1.28 1.4-2.42 2.33-3.48.66-.77 1.38-1.47 2.17-2.11.22-.18.21-.18.09-.45-.42-.88-.89-1.74-1.23-2.65-.48-1.28-.79-2.61-1.08-3.94-.04-.17-.07-.35-.11-.55-.13.04-.15.14-.19.22a80.711 80.711 0 0 1-3.32 5.96c-.61 1-1.24 1.98-1.92 2.93-.16.23-.17.41-.06.67.45 1.03.79 2.1.9 3.22.25 2.56-.6 4.66-2.66 6.25-.87.67-1.84 1.17-2.87 1.58-.84.33-1.69.61-2.59.74-.89.13-1.79.22-2.69.03-.64-.13-1.1-.5-1.27-1.17-.1-.4.04-.77.19-1.13.13-.31.33-.57.53-.83.81-1.08 1.7-2.1 2.56-3.14.87-1.05 1.78-2.07 2.59-3.16.28-.38.55-.77.84-1.15.13-.17.16-.33.05-.53-.28-.54-.52-1.1-.8-1.64-.88-1.7-1.36-3.53-1.76-5.39-.05-.24-.06-.48-.18-.75-.12.29-.22.54-.33.8-1.59 3.95-3.33 7.84-5.32 11.61-.85 1.62-1.7 3.23-2.62 4.81-.63 1.09-1.42 2.07-2.51 2.76-.56.35-1.16.43-1.79.25-.58-.17-.99-.56-1.28-1.08-.35-.63-.51-1.31-.59-2.02-.14-1.2-.11-2.4.05-3.6.02-.13.02-.27.02-.41-.13.04-.13.14-.16.22-.79 1.9-1.62 3.78-2.6 5.59-.34.62-.71 1.22-1.21 1.73-.77.8-1.72 1.03-2.8.93-.95-.1-1.65-.58-2.21-1.33-.73-1-1.21-2.11-1.57-3.27-.48-1.51-.74-3.05-.69-4.63.04-1.15.18-2.3.38-3.44.18-1.03.43-2.05.77-3.04.01-.04.03-.09.06-.2-1.82.95-3.51 1.97-5.22 2.97-.01.11.05.18.08.26.56 1.15.84 2.38.99 3.64.08.7.14 1.4.12 2.11-.05 2.43-.53 4.76-1.6 6.95-.91 1.86-2.17 3.46-3.73 4.82-1.63 1.42-3.46 2.47-5.53 3.11-1.05.32-2.12.51-3.22.58-1.29.09-2.55-.07-3.8-.33-1-.21-1.73-.8-2.33-1.58-.85-1.1-1.3-2.36-1.4-3.74-.21-2.77.65-5.2 2.41-7.33 1.39-1.67 3.06-3.03 4.82-4.28 2.29-1.62 4.71-3.02 7.21-4.29.26-.13.53-.25.76-.42-.02-.15-.14-.2-.23-.27-1.36-1.13-2.82-2.12-4.27-3.12-1.98-1.37-3.97-2.73-5.85-4.24-1.56-1.25-3.05-2.58-4.36-4.1-1.37-1.59-2.5-3.32-3.15-5.34-.14-.43-.25-.86-.33-1.31-.02-.13-.03-.27-.14-.36V28.5c.15-.22.12-.49.17-.73.24-1.36.68-2.66 1.27-3.91 1.2-2.55 2.89-4.76 4.8-6.8 1.61-1.72 3.39-3.25 5.27-4.67 2.67-2.01 5.51-3.75 8.47-5.3 2.29-1.2 4.63-2.27 7.03-3.22 1.92-.77 3.86-1.49 5.86-2.02C35.38 1.18 37.93.74 40.52.6c.07 0 .15.02.19-.07h3.36V.51ZM20.65 50.59c-.12-.02-.18.03-.24.07-2.17 1.26-4.28 2.6-6.26 4.15-1.13.89-2.25 1.79-3.16 2.91-.99 1.23-1.73 2.58-2.04 4.15-.14.72-.18 1.45.05 2.16.21.66.65 1.07 1.31 1.24.25.06.5.11.76.11 1.13.02 2.18-.31 3.19-.78 1.51-.71 2.79-1.72 3.88-2.98 1.17-1.36 2.05-2.87 2.54-4.59.37-1.31.52-2.64.39-4-.07-.83-.21-1.64-.42-2.44Zm11.67 2.09c.02.31.02.75.07 1.19.06.57.15 1.13.34 1.67.08.21.16.41.29.59.26.36.56.39.89.09.25-.22.44-.48.61-.77.5-.84.9-1.72 1.28-2.62.55-1.3 1.04-2.62 1.55-3.94.88-2.23 1.67-4.49 2.27-6.81.15-.58.29-1.16.28-1.76 0-.46-.22-.66-.68-.65-.31 0-.6.12-.87.25-.88.41-1.59 1.04-2.18 1.79-.94 1.19-1.66 2.52-2.3 3.88-1.04 2.2-1.51 4.53-1.56 7.08l.01.01Zm37.39-5.75c-.07.04-.1.06-.13.08-1.59 1.42-2.7 3.15-3.35 5.17-.11.34-.21.67-.17 1.04.03.24.1.29.34.2.37-.13.72-.31 1.05-.5 1.01-.59 1.77-1.4 2.19-2.5.22-.56.3-1.15.34-1.75.04-.59-.08-1.16-.28-1.75l.01.01Zm-12.36 4.19c-.13.04-.16.11-.2.17-.65.84-1.29 1.68-1.99 2.47-.72.82-1.46 1.63-2.2 2.43-.1.1-.27.22-.18.36.1.14.29.05.43 0 .03-.01.07-.03.1-.04.35-.12.64-.34.94-.55.88-.62 1.68-1.32 2.28-2.23.53-.79.81-1.65.81-2.63l.01.02Z"/></svg>