<svg xmlns="http://www.w3.org/2000/svg" width="58" height="104" fill="none" viewBox="0 0 58 104"><path fill="#1D1D1B" d="M24.08 94.71h-1.057a2.196 2.196 0 0 0-.89-1.38 2.388 2.388 0 0 0-.73-.359 2.911 2.911 0 0 0-.835-.119c-.528 0-1.007.133-1.436.4-.426.268-.766.661-1.018 1.181-.25.52-.375 1.158-.375 1.913 0 .756.125 1.394.375 1.914.252.52.592.913 1.018 1.18.43.267.908.4 1.436.4.29 0 .568-.04.835-.119.268-.08.51-.197.73-.353a2.245 2.245 0 0 0 .89-1.385h1.056a3.52 3.52 0 0 1-.434 1.197 3.267 3.267 0 0 1-1.837 1.458c-.386.127-.8.191-1.24.191-.744 0-1.406-.182-1.986-.545-.58-.364-1.035-.88-1.367-1.551-.333-.67-.5-1.466-.5-2.387 0-.92.167-1.716.5-2.386.332-.67.788-1.188 1.367-1.551.58-.364 1.242-.546 1.986-.546.44 0 .854.064 1.24.192.39.128.74.316 1.053.563.312.244.574.542.784.895.21.349.355.748.434 1.197Zm6.48-.545a1.338 1.338 0 0 0-.622-1.006c-.364-.239-.81-.358-1.338-.358-.387 0-.725.062-1.014.187a1.62 1.62 0 0 0-.674.516 1.236 1.236 0 0 0-.238.746c0 .233.055.433.166.6.113.165.258.303.434.414.177.108.361.197.554.268.194.069.371.124.533.167l.886.238c.228.06.48.142.759.247a3.5 3.5 0 0 1 .805.43c.259.18.472.41.64.691.167.281.251.627.251 1.036 0 .471-.124.897-.37 1.278-.245.38-.603.683-1.075.908-.468.224-1.038.336-1.708.336-.625 0-1.166-.1-1.624-.302a2.589 2.589 0 0 1-1.074-.844 2.408 2.408 0 0 1-.439-1.257h1.091c.029.33.14.602.333.818a1.8 1.8 0 0 0 .741.477c.301.103.625.154.972.154a2.86 2.86 0 0 0 1.086-.196c.321-.134.576-.318.763-.554a1.31 1.31 0 0 0 .281-.835c0-.29-.08-.526-.243-.708a1.783 1.783 0 0 0-.639-.443 6.734 6.734 0 0 0-.856-.298l-1.074-.307c-.682-.196-1.222-.476-1.62-.84-.397-.363-.596-.84-.596-1.427 0-.489.132-.915.396-1.279.267-.366.625-.65 1.074-.852a3.625 3.625 0 0 1 1.513-.307c.562 0 1.062.101 1.5.303.437.199.784.472 1.04.818.258.347.395.74.409 1.18H30.56Zm7.652 0a1.338 1.338 0 0 0-.622-1.006c-.363-.239-.81-.358-1.338-.358-.386 0-.724.062-1.014.187a1.62 1.62 0 0 0-.673.516 1.23 1.23 0 0 0-.239.746c0 .233.055.433.166.6.114.165.259.303.435.414.176.108.36.197.554.268.193.069.37.124.532.167l.887.238c.227.06.48.142.758.247.282.106.55.249.806.43.258.18.471.41.639.691.168.281.251.627.251 1.036 0 .471-.123.897-.37 1.278-.245.38-.603.683-1.074.908-.469.224-1.039.336-1.709.336-.625 0-1.166-.1-1.624-.302a2.588 2.588 0 0 1-1.073-.844 2.407 2.407 0 0 1-.44-1.257h1.092c.028.33.139.602.332.818a1.8 1.8 0 0 0 .741.477c.302.103.625.154.972.154a2.86 2.86 0 0 0 1.087-.196c.32-.134.575-.318.762-.554a1.31 1.31 0 0 0 .282-.835c0-.29-.081-.526-.243-.708a1.784 1.784 0 0 0-.64-.443 6.73 6.73 0 0 0-.856-.298l-1.074-.307c-.682-.196-1.221-.476-1.62-.84-.397-.363-.596-.84-.596-1.427 0-.489.132-.915.397-1.279a2.64 2.64 0 0 1 1.073-.852 3.625 3.625 0 0 1 1.513-.307c.563 0 1.063.101 1.5.303a2.6 2.6 0 0 1 1.04.818c.258.347.395.74.41 1.18h-1.024ZM28.743.49h26.54c1.98 0 2.02 0 1.85 1.9-.97 10.7-1.96 21.41-2.94 32.11-.67 7.31-1.41 14.61-1.96 21.93-.13 1.79-.65 2.53-2.47 2.97-6.22 1.51-12.41 3.18-18.55 5-2.14.64-4.06.3-6.05-.24-6.24-1.67-12.47-3.36-18.71-5.02-.78-.21-1.2-.55-1.27-1.45-.43-5.2-.93-10.39-1.41-15.58-.8-8.49-1.61-16.98-2.4-25.47-.46-4.89-.86-9.78-1.35-14.66-.12-1.17.22-1.51 1.4-1.5 9.11.05 18.21.03 27.32.02V.49Zm-.87 19.07c-.35.62-.99.72-1.53.95-4.37 1.86-8.74 3.74-13.13 5.55-.86.35-1.21.79-1.1 1.72.15 1.33.33 2.69.25 4.02-.1 1.58.45 1.98 2.01 1.96 7.19-.09 14.38-.04 21.57-.03.63 0 1.41-.22 1.32.93-.19 2.42-.32 4.85-.49 7.27-.03.46-.07.98-.64 1.13-3.67.97-7.1 2.85-11.22 1.31-4-1.5-4.11-1.19-4.51-5.44 0-.1-.01-.21-.02-.31-.03-.75-.36-1.1-1.16-1.09-1.71.04-3.41.03-5.12 0-.73-.01-1.04.24-.97.99.28 2.93.58 5.86.77 8.8.06.96.47 1.32 1.34 1.56 4.18 1.17 8.34 2.4 12.49 3.64.69.21 1.32.12 1.97-.06 4.23-1.18 8.46-2.37 12.69-3.52.75-.2 1.09-.53 1.15-1.36.49-6.44 1.01-12.88 1.58-19.31.11-1.27-.18-1.71-1.54-1.69-4.29.09-8.59.04-12.88.02-.41 0-.89.18-1.41-.31 4.3-1.81 8.43-3.71 12.69-5.28 2.88-1.06 4.92-2.38 4.26-5.86-.05-.29.09-.61.13-.92.18-1.413-.464-2.113-1.93-2.1h-1.24c-10.45.01-20.9.04-31.35 0-1.25 0-1.66.25-1.36 1.56.34 1.45.54 2.95.64 4.44.08 1.12.59 1.31 1.58 1.29 4.5-.07 9-.07 13.5-.08.53 0 1.11-.19 1.64.23l.02-.01Z"/></svg>