<svg xmlns="http://www.w3.org/2000/svg" width="95" height="42" fill="none" viewBox="0 0 95 42"><path fill="#1D1D1B" d="M70.73.87V8.3c-.51 0-.98.01-1.46 0-1.37-.04-1.6.06-1.98 1.36-.6 2.04-1.11 4.11-1.7 6.15-.57 1.99-1.17 3.96-1.78 5.94-.61 1.95-1.64 3.65-3.25 5.15l.81.23c-.22.37-.37.76-.63 1.05-1.64 1.76-3.17 3.65-5.01 5.18-1.21 1-2.95 1.11-4.53.68-.28-.08-.64-.84-.53-1.14.25-.72.61-1.52 1.17-1.98 2.47-2.02 5.03-3.94 7.57-5.88.77-.59 1.35-1.26 1.67-2.21.3-.88.91-1.66 1.23-2.54.65-1.8 1.28-3.61 1.78-5.45.54-1.99.94-4.03 1.36-6.05.06-.29-.04-.79-.24-.91-1.93-1.22-2.24-2.97-1.81-5.02.14-.65.25-1.31.38-1.97h6.96l-.01-.02Zm23.45 24.85L81.01 34c-.46.29-.96.53-1.44.8-.64.36-1.12.28-1.54-.38-.42-.66-.09-1.05.39-1.37 1.39-.94 2.78-1.87 4.2-2.77 2.78-1.77 5.57-3.52 8.35-5.28.31-.19.6-.41 1.02-.7-.37-.3-.67-.59-1.01-.81-3.68-2.39-7.38-4.77-11.06-7.16-.59-.38-1.14-.81-1.69-1.25-.44-.35-.69-.76-.25-1.32.41-.52.8-.63 1.4-.26 4.61 2.82 9.22 5.61 13.84 8.41.31.19.64.36.95.53v3.29l.01-.01Z"/><path fill="#1D1D1B" d="M30.14 41.61c0-1.52-.01-2.97.02-4.42 0-.2.2-.44.38-.58 5.2-4.09 10.4-8.16 15.61-12.24.09-.07.21-.11.4-.22-.08.35-.14.6-.19.86-.26 1.36.33 2.15 1.73 2.14 2.88-.02 5.33-1.11 7.37-3.13.15-.15.27-.35.44-.46.41-.26.85-.48 1.28-.71.06.5.32 1.07.15 1.48-.31.76-.77 1.51-1.33 2.12-2.43 2.62-5.27 4.79-8.09 6.97-3.3 2.55-6.57 5.15-9.88 7.69-.37.29-.92.47-1.39.48-2.13.05-4.26.02-6.5.02Zm8.25-.18c3.95-3.11 7.91-6.22 11.88-9.34.06.14.11.2.1.24-.31 1.71.35 2.39 2.15 2.25 2.91-.24 5.4-1.38 7.44-3.48.17-.17.35-.33.63-.6.24 1.44.2 2.76-.49 3.93-.89 1.51-1.88 2.97-2.93 4.39-.72.97-1.45 2.16-2.46 2.64-.98.46-2.32.15-3.51.16H38.44l-.06-.18.01-.01Zm10.87-20.9c-.27.46-.43 1.05-.82 1.36-5.92 4.69-11.87 9.34-17.81 14-.09.07-.2.13-.4.25-.04-.29-.09-.51-.09-.73 0-2.04-.02-4.08.01-6.11 0-.35.16-.81.41-1.02 2.4-2.02 4.83-4 7.26-5.99.11-.09.25-.15.39-.23.25 1.61.75 1.99 2.38 2 2.54 0 4.79-.68 6.61-2.54.49-.5 1.12-.88 1.68-1.31.12.11.25.21.37.32h.01ZM2.71 24.37c.72.59 1.22 1.08 1.8 1.45 3.35 2.17 6.72 4.32 10.08 6.49.66.43 1.29.92 1.91 1.42.51.41.45.86.06 1.34-.36.45-.68.58-1.23.24-4.83-2.98-9.67-5.93-14.5-8.9-.18-.11-.41-.34-.42-.52-.04-.91-.04-1.83 0-2.74 0-.18.24-.41.42-.52 4.8-2.9 9.61-5.79 14.42-8.69.51-.31.92-.36 1.35.16.65.78.68 1.13-.2 1.69-3.34 2.13-6.71 4.21-10.08 6.32l-3.61 2.27v-.01Z"/><path fill="#1D1D1B" d="M48.44 26.82c-1.58.02-2.04-.63-1.67-2.09.37-1.45 1.59-2.11 2.64-2.9 1.12-.84 2.3-1.6 3.44-2.4 1.19-.84 2.36-1.72 3.57-2.55.42-.29.9-.55 1.39-.66.4-.09 1.04-.08 1.23.16.23.3.26.94.09 1.31-.32.71-.77 1.39-1.28 1.98-.99 1.15-2.06 2.24-3.11 3.35-.57.6-1.26 1.09-1.73 1.75-1.17 1.63-2.87 1.91-4.58 2.04l.01.01Zm-7.98-2.84c-.59-.34-1.44-.53-1.71-1.04-.43-.79.08-1.53.82-2.09 2.58-1.95 5.11-3.95 7.69-5.89.6-.45 1.29-.84 2-1.08.38-.13 1.03-.02 1.3.25.21.2.17.9-.02 1.22-.45.79-.98 1.56-1.61 2.2-1.69 1.71-3.45 3.35-5.19 5.02-.88.84-1.92 1.26-3.16 1.15-.04.09-.08.17-.12.26Z"/></svg>