<svg xmlns="http://www.w3.org/2000/svg" width="69" height="68" fill="none" viewBox="0 0 69 68"><path fill="#1D1D1B" d="M40.83 49.75c1.8-.42 3.55-.72 5.24-1.23 5.62-1.69 8.75-5.58 9.7-11.29.48-2.88.63-5.77-.24-8.62-.5-1.64-1.28-3.13-2.4-4.43-.34-.39-.42-.71-.27-1.22.81-2.67.55-5.31-.38-7.9-.09-.26-.55-.59-.8-.55-1.13.16-2.32.27-3.36.71-1.65.7-3.18 1.65-4.79 2.46-.34.17-.81.28-1.17.2-5.22-1.25-10.42-1.25-15.64-.01-.38.09-.91 0-1.24-.2-2.25-1.39-4.52-2.7-7.19-3.12-1.44-.23-1.6-.14-1.99 1.23-.71 2.45-.83 4.91-.09 7.39.07.23.01.61-.14.78-3.04 3.61-3.56 7.82-2.96 12.3.38 2.86 1.21 5.56 3.04 7.86 2.31 2.91 5.49 4.3 9.02 5.04.99.21 1.98.34 3.07.53-1.13 1.23-1.7 2.62-1.99 4.15-.04.22-.32.48-.55.58-3.75 1.61-7.13.53-9.31-2.96-1.13-1.8-2.62-3.13-4.78-3.51-.43-.08-.91-.03-1.35.06-.77.17-.87.61-.32 1.2.24.25.51.49.8.67 1.7.99 2.92 2.47 3.52 4.27 1.31 3.95 5.18 5.65 9.31 5.25.79-.08 1.59-.19 2.5-.31 0 2.21.06 4.36-.02 6.5-.04 1.2-1.18 1.75-2.49 1.31-2.94-1-5.72-2.35-8.23-4.18C5.3 55.44.33 45.56.67 33.19 1.11 17.28 12.91 3.77 28.56.96c18.2-3.28 35.69 8.84 39.16 27.12 3.17 16.65-6.19 33.1-22.03 38.7-1.89.67-2.83 0-2.82-2.02.01-2.82.02-5.64.05-8.47.02-2.42-.38-4.71-2.11-6.55l.02.01Z"/></svg>