<svg xmlns="http://www.w3.org/2000/svg" width="68" height="62" fill="none" viewBox="0 0 68 62"><path fill="#1D1D1B" d="M48.03 61.09h-.26c-.32-.14-.63-.14-.95 0h-.26c-.13-.18-.32-.07-.48-.11-1.76-.42-3.41-1.08-4.99-1.95-2.47-1.37-4.64-3.13-6.69-5.06-.26-.25-.41-.18-.59.01-.82.86-1.75 1.59-2.67 2.33A25.077 25.077 0 0 1 26 59.53c-1 .48-2.02.91-3.1 1.16-.56.13-1.13.26-1.7.39h-.17c-.48-.19-.98-.04-1.47-.09-1.6-.08-2.93-.73-3.95-1.94-.95-1.13-1.62-2.42-1.89-3.9-.19-1-.35-2-.43-3.02-.13-1.66-.04-3.32.16-4.95.18-1.48.43-2.97.84-4.42.08-.27 0-.35-.23-.42a34.08 34.08 0 0 1-4.68-1.72c-2.67-1.22-5.16-2.71-7.14-4.94-.67-.76-1.2-1.61-1.62-2.53-.41-.89-.38-1.83-.44-2.77v-.17c.25-1.14.67-2.2 1.36-3.14 1.34-1.82 3.12-3.13 5.06-4.24 2.3-1.32 4.76-2.25 7.29-3.01.54-.16.53-.16.39-.72-.12-.5-.26-1-.36-1.5-.17-.92-.28-1.85-.4-2.78-.35-2.61-.41-5.21.15-7.8.27-1.28.72-2.48 1.47-3.56.58-.85 1.32-1.54 2.25-1.96 1.57-.71 3.21-.66 4.86-.33 1.81.37 3.46 1.14 5.05 2.04 2.33 1.32 4.42 2.97 6.36 4.8.29.27.45.26.72 0 .8-.76 1.62-1.51 2.5-2.19 3.06-2.37 6.23-4.52 10.25-4.9 1.47-.14 2.86.13 4.09.95 1.38.93 2.15 2.33 2.69 3.86.29.83.45 1.7.61 2.56.02.03.05.06.07.09.04.14-.05.26-.03.41.07.54.11 1.08.13 1.63.04 1.29.01 2.58-.17 3.86-.12.89-.21 1.78-.36 2.66-.14.82-.33 1.64-.5 2.46-.05.23 0 .34.26.41 1.32.39 2.63.83 3.9 1.36 3.05 1.28 5.95 2.8 8.16 5.37.79.92 1.4 1.94 1.68 3.13.04.18 0 .37.18.5v1.3c-.21.34-.16.75-.27 1.12-.53 1.75-1.71 3.04-3.02 4.23-1.85 1.67-4.02 2.83-6.28 3.82-1.37.6-2.78 1.12-4.22 1.53-.14.04-.34.05-.26.29.21.6.28 1.23.41 1.85.31 1.46.44 2.94.58 4.41.14 1.52.03 3.04-.16 4.55-.29 2.28-.92 4.42-2.6 6.11-.92.92-2.01 1.45-3.3 1.58-.23.03-.47-.07-.68.09l-.01.04ZM44.02 20.8s.04-.03.01-.06c-.01 0-.03-.02-.03-.02-.02 0-.03.03-.05.04.02.01.04.03 3.87 6.75.07-.03.08-.03.09-.04.83-1.78 1.46-3.64 2.07-5.5.06-.19-.03-.22-.18-.25-.52-.1-1.03-.2-1.55-.32-1.27-.28-2.57-.37-3.83-.69-.11-.03-.3.03-.38.11-.07.07.06.2.12.3.18.3.37.58.55.88 1.06 1.81 2.12 3.63-.69-1.21v.01ZM25.44 5.52l-.09-.06c-.33-.12-.58-.38-.94-.44-.02-.1-.08-.15-.17-.16-.18-.05-.37-.07-.53-.15-1.25-.58-2.54-.82-3.93-.82-1.55 0-2.61 1.41-2.91 2.71-.02.03-.05.05-.07.08a9.15 9.15 0 0 0-.59 3.14c-.04 1.46-.04 2.93.14 4.39.19 1.51.47 2.99.81 4.47.05.21.12.28.36.23.77-.17 1.53-.33 2.31-.46 1.2-.2 2.4-.44 3.62-.55.69-.06 1.39-.14 2.08-.23.47-.06.87-.16 1.13-.63.22-.4.53-.75.8-1.12 1.06-1.42 2.17-2.79 3.33-4.12.16-.02.21-.12.21-.27.27-.31.53-.63.81-.93.13-.14.1-.24-.02-.36-.87-.87-1.84-1.62-2.8-2.38a23.01 23.01 0 0 0-3.54-2.33l-.01-.01Zm12.82 36.26c.47.09.98-.09 1.49-.07.32.02.5-.11.67-.36 2.14-3.26 4.09-6.63 5.79-10.14a.51.51 0 0 0 0-.52c-.36-.68-.69-1.38-1.05-2.06a89.453 89.453 0 0 0-4.8-8.05.496.496 0 0 0-.37-.25c-.75-.12-1.51-.1-2.27-.15-3.01-.2-6.01-.09-9.02.07-.6.03-1.03.23-1.37.8-.75 1.25-1.56 2.45-2.3 3.71-1.07 1.82-2.07 3.68-3.06 5.55-.24.45-.29.85-.01 1.32.53.93.99 1.91 1.51 2.85 1.24 2.24 2.59 4.42 3.96 6.58.33.52.63.88 1.35.74.66-.13 1.33.06 2 .06 2.48 0 4.96.07 7.49-.09l-.01.01Zm-19.8-10.79c-.04-.11-.06-.21-.1-.3-1.15-2.59-2.24-5.19-3.05-7.91-.08-.28-.22-.31-.48-.22-.57.2-1.16.36-1.73.55-2.6.89-5.08 2.01-7.28 3.7-.95.74-1.81 1.57-2.37 2.66-.24.47-.5.99-.41 1.52.24 1.43.88 2.69 2.01 3.59 1.77 1.43 3.66 2.69 5.77 3.58 1.29.54 2.59 1.04 3.95 1.41.3.08.4 0 .49-.28.87-2.74 1.9-5.41 3.09-8.03.04-.09.07-.19.1-.28l.01.01Zm-2.3 19.67c0 1.15 0 2.29.28 3.42.22.92.47 1.82.99 2.61.33.5.71.95 1.3 1.15 1.28.45 2.58.46 3.85 0 1.66-.6 3.25-1.38 4.74-2.34 1.65-1.06 3.17-2.28 4.56-3.66.19-.19.16-.27 0-.44-.4-.42-.78-.85-1.16-1.28a69.197 69.197 0 0 1-4.26-5.4c-.09-.13-.18-.28-.37-.25-.72.1-1.38-.36-2.1-.19-.07.01-.15-.07-.23-.11-.07-.03-.14-.11-.23-.07-.66.21-1.31-.02-1.94-.1-1.4-.18-2.78-.51-4.17-.79-.23-.05-.33.05-.37.24-.54 2.37-.96 4.76-.91 7.21h.02Zm19.95.95c.65.8 1.44 1.47 2.23 2.08.99.76 1.97 1.55 3.06 2.18 1.18.68 2.35 1.35 3.62 1.85.7.27 1.44.38 2.17.49.78.12 1.59.04 2.24-.43 1.04-.75 1.73-1.81 2.03-3.06.32-1.32.4-2.68.45-4.04.04-1.08-.07-2.15-.15-3.22-.1-1.41-.48-2.75-.72-4.13-.04-.22-.17-.28-.37-.24-1.43.28-2.86.59-4.3.81-1.27.19-2.54.31-3.81.49-.3.04-.66-.11-.91.26-1.68 2.44-3.48 4.79-5.53 6.94l-.01.02ZM47.8 3.82c-1.78-.07-3.25.59-4.67 1.31-1.67.85-3.21 1.93-4.65 3.13-.71.59-1.4 1.19-2.09 1.79-.21.19-.37.39-.1.67 1.87 1.96 3.54 4.09 5.1 6.31.32.45.68.64 1.21.63.35-.01.72 0 1.04.06.5.1 1 .2 1.5.26.86.1 1.71.26 2.57.39.92.15 1.83.37 2.75.56.23.05.4.03.43-.3.06-.51.17-1.01.3-1.51.33-1.37.44-2.76.56-4.16.08-1.03.1-2.06 0-3.1-.13-1.41-.31-2.8-.95-4.09-.63-1.29-1.56-2.14-3-1.97v.02Zm17.09 26.9c0-.48-.16-1-.62-1.68-.95-1.39-2.27-2.37-3.67-3.25-1.11-.69-2.28-1.25-3.49-1.76-1.28-.55-2.58-1.01-3.91-1.43-.2-.06-.42-.13-.48.15-.26 1.07-.69 2.08-1.07 3.11-.55 1.49-1.15 2.96-1.82 4.4-.14.31-.34.6-.14 1 1.23 2.54 2.27 5.16 3.14 7.84.1.31.21.4.55.29 2.18-.68 4.29-1.52 6.28-2.64 1.56-.88 3.04-1.88 4.19-3.29.58-.72 1.09-1.5 1.05-2.74h-.01ZM24.08 41.38s.03-.07.04-.1c-.12-.19-.24-.39-.36-.58-1.2-1.89-2.34-3.82-3.37-5.82-.06-.12-.08-.32-.25-.31-.17.01-.17.21-.22.34-.64 1.52-1.2 3.06-1.72 4.62-.3.91-.32.9.63 1.06 1.18.2 2.35.38 3.52.61.58.11 1.15.05 1.72.17l.01.01Zm23.81-6.98c-.32.39-.49.85-.72 1.28-.97 1.78-1.98 3.54-3.08 5.25-.06.09-.17.2-.11.31.06.11.22.07.32.05.55-.16 1.13-.1 1.69-.22 1.26-.27 2.53-.45 3.79-.72.31-.07.34-.16.25-.45-.54-1.69-1.18-3.34-1.87-4.96-.08-.18-.11-.39-.28-.53l.01-.01ZM30.13 44.75c.05.11.07.16.1.2 1.16 1.54 2.44 2.98 3.66 4.47.13.16.22.16.37 0 1.01-1.13 1.98-2.29 2.9-3.48.25-.32.49-.64.73-.97.04-.05.1-.11.05-.19-.04-.06-.09-.1-.18-.08-.73.11-1.47.09-2.21.08-1.41-.02-2.82-.01-4.24-.02h-1.18v-.01Zm7.13-27.43c.2 0 .45.08.56-.12.11-.19-.13-.32-.24-.46-1.04-1.4-2.18-2.71-3.33-4.01-.17-.19-.29-.19-.45-.01-.22.26-.46.51-.68.77a67.1 67.1 0 0 0-2.84 3.47c-.07.09-.19.17-.14.29.06.13.21.07.31.07.41-.02.83-.07 1.24-.08 1.85-.02 3.71-.07 5.56.07l.01.01Zm-17.12 10.3c.42-.78.77-1.46 1.14-2.11.84-1.46 1.61-2.95 2.55-4.35.06-.09.16-.21.1-.31-.08-.12-.24-.08-.36-.06-.34.05-.67.14-1.01.17-1.43.11-2.82.46-4.22.72-.3.06-.31.19-.23.44.29.81.54 1.63.84 2.44.36.98.76 1.96 1.19 3.06Z"/><path fill="#1D1D1B" d="M19.57 61.09V61c.49.05.99-.1 1.47.09h-1.47Zm27.25 0c.32-.14.63-.14.95 0h-.95Zm1.9-.09v.09h-.69c.21-.16.46-.06.68-.09h.01ZM30.78 11.79c0-.14.1-.21.21-.27 0 .15-.05.25-.21.27Zm-6.37-6.77c-.12.02-.14-.08-.17-.16.1.01.16.06.17.16Zm1.03.5c-.06.02-.07-.02-.09-.06l.09.06Zm-8.57 1.07s-.05.05-.07.08c.02-.03.05-.05.07-.08Zm37.65 1.72s.05.06.07.09c-.02-.03-.05-.06-.07-.09ZM34.04 24.93c3.47-.08 5.77 2.84 5.96 5.34.15 1.93-.38 3.63-1.72 4.96-1.14 1.14-2.61 1.73-4.29 1.73-3.29.01-6.17-2.73-6.04-6.24.13-3.47 3.12-5.98 6.08-5.8l.01.01Z"/></svg>