<svg xmlns="http://www.w3.org/2000/svg" width="79" height="60" fill="none" viewBox="0 0 79 60"><path fill="#1D1D1B" d="M37.24.28c.04.08.12.06.19.06 1.47.08 2.92.3 4.35.68 1.7.46 3.3 1.13 4.71 2.2 1.34 1.02 2.35 2.29 2.84 3.93.2.67.31 1.35.37 2.04.16 2.1-.31 4.08-1.15 5.98-1.14 2.57-2.84 4.71-4.94 6.56a19.984 19.984 0 0 1-4.83 3.15c-1.53.7-3.14 1.22-4.77 1.63a26.37 26.37 0 0 1-5.56.81c-.75.04-1.49.02-2.23-.02-1.66-.09-3.26-.39-4.73-1.22-1.05-.59-1.97-1.32-2.63-2.34a3.16 3.16 0 0 1-.47-1.19c-.02-.12 0-.23.03-.33.1-.26.37-.34.59-.17.11.09.23.18.32.29.7.83 1.61 1.34 2.61 1.72 1.03.39 2.1.58 3.2.63 1.65.08 3.26-.15 4.86-.48a24.74 24.74 0 0 0 6.6-2.39c2.06-1.1 3.92-2.48 5.51-4.19.94-1.01 1.76-2.12 2.39-3.36.44-.87.78-1.78.94-2.74.17-1.03.12-2.05-.27-3.04-.29-.73-.8-1.27-1.43-1.72-.9-.64-1.91-1.01-2.96-1.28-1.3-.32-2.63-.44-3.98-.45-2.08-.01-4.13.26-6.16.72-2.77.63-5.42 1.58-7.99 2.79-2.8 1.32-5.5 2.83-8.06 4.59-1.64 1.13-3.2 2.37-4.59 3.81-1.03 1.07-1.95 2.23-2.65 3.55a9.839 9.839 0 0 0-1.09 3.39c-.15 1.21-.06 2.38.38 3.52.36.95.91 1.8 1.55 2.59.9 1.11 1.96 2.05 3.06 2.96 1.38 1.14 2.82 2.19 4.22 3.31 1 .8 1.96 1.63 2.85 2.56.24.25.17.25.48.08 1.74-.95 3.48-1.9 5.21-2.85.64-.35 1.29-.71 1.94-1.05.26-.14.46-.32.64-.55 1.24-1.61 2.73-2.92 4.56-3.82.68-.33 1.4-.56 2.17-.56 1.18.01 2 .61 2.33 1.75.23.78.24 1.57.16 2.37-.03.27-.06.54-.1.82.13.02.19-.06.26-.11.27-.22.57-.31.91-.28.42.03.8.18 1.12.45.28.24.4.56.33.94-.13.65-.33 1.29-.5 1.93-.46 1.71-.91 3.43-1.29 5.16-.19.86-.33 1.72-.28 2.61.01.16.02.33.1.49.14 0 .2-.12.27-.22.22-.31.38-.65.56-.99.82-1.56 1.54-3.16 2.26-4.76.75-1.68 1.5-3.35 2.25-5.03.71-1.61 1.44-3.2 2.1-4.83.23-.57.36-1.17.52-1.76.05-.18.1-.35.14-.53a.71.71 0 0 1 .44-.51c.31-.14.64-.22.97-.28.67-.12 1.34-.15 2.01-.13.31.01.61.07.9.18.15.06.27.14.38.25.19.18.24.38.16.64-.27.78-.54 1.56-.73 2.37-.23.99-.27 1.98-.11 2.98.04.27.07.55.11.82.09.61.35 1.17.6 1.73.14.31.31.62.48.97.07-.09.11-.14.15-.21 1.01-1.67 1.98-3.36 2.9-5.08.55-1.04 1.08-2.08 1.53-3.17.21-.52.29-1.08.44-1.62.12-.43.25-.86.39-1.29.07-.22.21-.36.41-.46.33-.16.67-.23 1.03-.29.63-.1 1.26-.16 1.89-.12.37.02.73.06 1.07.23.11.06.21.12.3.21.17.17.24.36.15.61-.17.48-.33.97-.48 1.45-.31.99-.53 2-.46 3.04.08 1.23.25 2.44.85 3.54.29.54.55 1.09.83 1.64.11.21.11.21.32.11 1.33-.63 2.71-1.06 4.16-1.31 1.39-.24 2.78-.29 4.18-.17 1.05.09 2.08.29 3.08.63 1.6.54 3.02 1.39 4.19 2.62 1.1 1.16 1.84 2.52 2.1 4.11.19 1.16.1 2.3-.44 3.37-.63 1.24-1.63 2.08-2.89 2.62-.19.08-.39.1-.6.13-.18.02-.32-.06-.38-.2-.06-.15-.03-.27.14-.4.18-.14.37-.26.56-.38.57-.38 1.06-.84 1.43-1.41.67-1.01.78-2.11.44-3.25-.41-1.39-1.26-2.46-2.42-3.3-1.18-.85-2.51-1.34-3.93-1.64-.91-.19-1.83-.28-2.76-.33-1.98-.11-3.91.13-5.78.8-.46.17-.46.17-.31.61.27.76.45 1.55.5 2.36.05.7-.09 1.38-.38 2.03-.38.86-.98 1.55-1.66 2.18-1.27 1.18-2.8 1.89-4.43 2.4-.52.16-1.04.21-1.56 0-.71-.28-1.08-.82-1.14-1.56-.09-1.04.18-2.01.61-2.94.49-1.08 1.18-2.03 1.95-2.92.56-.64 1.16-1.23 1.82-1.77.18-.15.18-.15.07-.38-.35-.74-.74-1.46-1.03-2.22-.4-1.07-.66-2.19-.9-3.3-.03-.15-.06-.29-.09-.46-.11.04-.12.12-.16.19a71.79 71.79 0 0 1-2.78 5.01c-.51.84-1.04 1.66-1.61 2.46-.14.19-.15.35-.05.56.38.86.66 1.76.75 2.7.21 2.14-.5 3.91-2.23 5.24-.73.57-1.55.99-2.41 1.33-.7.28-1.42.51-2.17.62-.75.11-1.5.18-2.25.03-.54-.11-.93-.42-1.06-.98-.08-.34.03-.65.16-.95.11-.26.28-.48.44-.7.68-.91 1.42-1.76 2.15-2.63.73-.88 1.49-1.73 2.17-2.65.24-.32.46-.65.71-.96.11-.15.13-.27.04-.45-.23-.45-.44-.92-.67-1.38-.74-1.43-1.14-2.96-1.48-4.52-.04-.2-.05-.4-.15-.63-.1.24-.19.46-.27.67-1.34 3.32-2.8 6.58-4.46 9.74-.71 1.36-1.43 2.71-2.2 4.03-.53.91-1.19 1.74-2.1 2.31-.47.29-.97.36-1.5.21-.49-.14-.83-.47-1.07-.9-.29-.53-.42-1.1-.49-1.69-.12-1.01-.09-2.02.05-3.02.01-.11.01-.22.02-.35-.11.03-.11.12-.14.19-.66 1.59-1.36 3.17-2.18 4.69-.28.52-.6 1.02-1.01 1.45-.65.67-1.45.87-2.35.78-.8-.08-1.39-.48-1.85-1.12-.61-.84-1.01-1.77-1.32-2.75-.4-1.27-.62-2.56-.58-3.89.03-.97.16-1.93.32-2.89.15-.87.36-1.72.65-2.55.01-.04.02-.07.05-.17-1.52.79-2.95 1.66-4.38 2.49 0 .1.04.15.07.22.47.97.7 2 .83 3.06.07.59.12 1.18.1 1.77-.05 2.04-.45 3.99-1.34 5.83-.76 1.56-1.82 2.9-3.13 4.04A12.854 12.854 0 0 1 12 58.67c-.88.27-1.78.42-2.7.49-1.08.08-2.14-.06-3.19-.27-.84-.17-1.45-.67-1.96-1.33-.71-.92-1.09-1.98-1.18-3.14-.18-2.33.54-4.37 2.02-6.15 1.16-1.4 2.57-2.54 4.05-3.59 1.92-1.36 3.96-2.53 6.05-3.6.22-.11.44-.21.64-.36-.01-.13-.12-.17-.19-.23-1.14-.95-2.37-1.78-3.59-2.62-1.66-1.15-3.33-2.29-4.91-3.56-1.31-1.05-2.56-2.17-3.66-3.44-1.15-1.33-2.1-2.79-2.64-4.48-.12-.36-.21-.73-.28-1.1-.02-.11-.02-.22-.12-.31v-1.16c.13-.19.1-.41.14-.62.2-1.14.57-2.23 1.07-3.28 1.01-2.14 2.42-3.99 4.03-5.71 1.35-1.44 2.84-2.73 4.42-3.92 2.24-1.69 4.62-3.15 7.11-4.45 1.92-1 3.89-1.9 5.9-2.71 1.61-.64 3.24-1.25 4.91-1.7C30.02.87 32.16.5 34.34.38c.06 0 .13.01.16-.06h2.82l-.08-.04ZM17.59 42.3c-.1-.02-.15.03-.2.06-1.82 1.06-3.59 2.18-5.25 3.48-.95.74-1.88 1.5-2.65 2.45-.83 1.03-1.45 2.17-1.71 3.48-.12.61-.15 1.21.04 1.81.17.55.54.9 1.1 1.04.21.05.42.09.63.09.95.01 1.83-.26 2.68-.66 1.27-.59 2.34-1.44 3.25-2.5.98-1.14 1.72-2.41 2.13-3.85a9.3 9.3 0 0 0 .33-3.36c-.06-.69-.17-1.37-.35-2.05v.01Zm9.79 1.76c.01.26.02.63.06 1 .05.48.12.95.29 1.41.06.17.13.34.24.49.22.3.47.33.75.08.21-.19.37-.41.51-.64.42-.7.76-1.45 1.08-2.2.46-1.09.87-2.2 1.3-3.3.74-1.87 1.4-3.77 1.9-5.72.12-.48.25-.97.24-1.48 0-.38-.18-.55-.57-.55-.26 0-.5.1-.73.21-.74.35-1.33.88-1.83 1.5-.79 1-1.39 2.11-1.93 3.26-.87 1.85-1.27 3.8-1.31 5.94Zm31.37-4.82c-.06.04-.08.05-.11.07a9.736 9.736 0 0 0-2.81 4.34c-.09.28-.18.57-.14.87.02.2.08.24.28.17.31-.11.6-.26.88-.42.85-.49 1.48-1.17 1.84-2.1.18-.47.25-.97.29-1.46.04-.49-.06-.97-.23-1.47Zm-10.37 3.52c-.1.04-.13.1-.17.14-.54.7-1.08 1.41-1.67 2.08-.6.69-1.22 1.37-1.85 2.04-.08.09-.23.18-.15.3.08.12.24.05.36 0 .03 0 .06-.02.09-.03.29-.1.54-.29.79-.46.74-.52 1.41-1.11 1.92-1.87.44-.66.68-1.38.68-2.2Z"/></svg>