<svg xmlns="http://www.w3.org/2000/svg" width="75" height="75" fill="none" viewBox="0 0 75 75"><path stroke="#1D1D1B" stroke-miterlimit="10" d="M65.71.5H9.32A8.32 8.32 0 0 0 1 8.82v56.39a8.32 8.32 0 0 0 8.32 8.32h56.39a8.32 8.32 0 0 0 8.32-8.32V8.82A8.32 8.32 0 0 0 65.71.5Z"/><path fill="#1D1D1B" d="M21.117 48.97H16.89l12.226-33.295h4.162L45.503 48.97h-4.227l-9.95-28.027h-.26L21.118 48.97Zm1.561-13.006h17.037v3.577H22.678v-3.577ZM50.437 48.97V24h3.837v24.97h-3.837Zm1.95-29.133a2.728 2.728 0 0 1-1.934-.764c-.53-.51-.796-1.122-.796-1.837 0-.715.265-1.328.796-1.837a2.728 2.728 0 0 1 1.935-.764c.748 0 1.387.255 1.918.764.542.51.813 1.122.813 1.837 0 .715-.27 1.328-.813 1.837-.53.51-1.17.764-1.918.764Z"/></svg>