<svg xmlns="http://www.w3.org/2000/svg" width="75" height="112" fill="none" viewBox="0 0 75 112"><path stroke="#1D1D1B" stroke-miterlimit="10" d="M65.71 1H9.32A8.32 8.32 0 0 0 1 9.32v56.39a8.32 8.32 0 0 0 8.32 8.32h56.39a8.32 8.32 0 0 0 8.32-8.32V9.32A8.32 8.32 0 0 0 65.71 1Z"/><path fill="#1D1D1B" d="M24.034 16.175V49.47h-4.032V16.175h4.032ZM41.026 49.99c-2.08 0-3.918-.525-5.51-1.577-1.594-1.062-2.84-2.557-3.74-4.487-.9-1.94-1.35-4.232-1.35-6.877 0-2.622.45-4.898 1.35-6.827.9-1.93 2.151-3.42 3.755-4.471 1.604-1.051 3.458-1.577 5.56-1.577 1.626 0 2.91.27 3.853.813.954.53 1.68 1.138 2.179 1.82a29.4 29.4 0 0 1 1.186 1.659h.326v-12.29h3.836V49.47h-3.706v-3.837h-.456a24.61 24.61 0 0 1-1.203 1.723c-.52.683-1.262 1.296-2.227 1.838-.964.53-2.249.796-3.853.796Zm.52-3.446c1.54 0 2.84-.401 3.902-1.203 1.062-.813 1.87-1.935 2.422-3.366.553-1.441.83-3.105.83-4.99 0-1.865-.271-3.496-.813-4.894-.542-1.409-1.344-2.504-2.406-3.284-1.063-.791-2.374-1.187-3.934-1.187-1.626 0-2.981.418-4.065 1.252-1.073.824-1.88 1.946-2.422 3.365-.531 1.41-.797 2.992-.797 4.747 0 1.778.271 3.393.813 4.845.553 1.442 1.366 2.59 2.439 3.447 1.084.845 2.427 1.268 4.032 1.268ZM13.92 108.96v-6.545h1.006v6.545h-1.005Zm.512-7.636a.714.714 0 0 1-.507-.201.642.642 0 0 1-.21-.481c0-.188.07-.348.21-.482a.717.717 0 0 1 .507-.2c.196 0 .364.067.503.2a.639.639 0 0 1 .213.482.636.636 0 0 1-.213.481.7.7 0 0 1-.503.201Zm3.342 3.698v3.938h-1.006v-6.545h.972v1.022h.085c.153-.332.386-.599.699-.801.312-.204.716-.307 1.21-.307.443 0 .831.091 1.163.273.333.179.591.452.776.818.185.364.277.824.277 1.381v4.159h-1.006v-4.091c0-.514-.133-.915-.4-1.202-.267-.289-.634-.434-1.1-.434-.32 0-.608.069-.86.208-.25.14-.448.343-.593.61-.145.267-.217.591-.217.971Zm8.843 3.938h-2.693v-8.727h2.813c.846 0 1.57.174 2.173.524a3.426 3.426 0 0 1 1.385 1.496c.32.647.481 1.423.481 2.326 0 .909-.162 1.692-.485 2.348a3.458 3.458 0 0 1-1.415 1.509c-.62.349-1.372.524-2.259.524Zm-1.636-.938h1.568c.722 0 1.32-.139 1.794-.417a2.577 2.577 0 0 0 1.061-1.189c.233-.514.35-1.126.35-1.837 0-.704-.116-1.311-.346-1.819a2.539 2.539 0 0 0-1.03-1.176c-.458-.276-1.028-.414-1.71-.414h-1.687v6.852Zm10.176 1.074c-.63 0-1.175-.139-1.632-.417a2.812 2.812 0 0 1-1.053-1.176c-.244-.506-.366-1.094-.366-1.765 0-.67.122-1.261.366-1.772a2.883 2.883 0 0 1 1.032-1.202c.443-.29.96-.435 1.55-.435.342 0 .678.057 1.01.171.333.113.636.298.908.554.273.253.49.588.652 1.005.162.418.243.932.243 1.543v.426h-5.045v-.869h4.022a2.15 2.15 0 0 0-.221-.989 1.67 1.67 0 0 0-.622-.686 1.739 1.739 0 0 0-.946-.251c-.4 0-.748.099-1.04.298a1.97 1.97 0 0 0-.67.767 2.25 2.25 0 0 0-.233 1.014v.58c0 .494.085.913.255 1.257.174.341.414.601.72.78.307.176.664.264 1.07.264.264 0 .503-.037.716-.111a1.53 1.53 0 0 0 .558-.341c.156-.153.277-.344.362-.571l.972.273a2.157 2.157 0 0 1-.516.869c-.241.247-.54.441-.895.58a3.327 3.327 0 0 1-1.197.204Zm8.876-5.216-.903.256a1.69 1.69 0 0 0-.251-.439 1.222 1.222 0 0 0-.444-.358c-.187-.094-.427-.14-.72-.14-.4 0-.734.092-1.001.277-.264.181-.396.413-.396.694 0 .25.09.448.272.593.182.144.466.265.852.362l.972.238c.585.142 1.021.36 1.308.652.287.29.43.664.43 1.121 0 .375-.107.71-.323 1.006a2.155 2.155 0 0 1-.895.699c-.384.17-.83.255-1.338.255-.668 0-1.22-.145-1.658-.434-.437-.29-.714-.713-.83-1.27l.954-.239c.09.352.263.617.515.793.256.176.59.264 1.002.264.469 0 .84-.099 1.116-.298.279-.202.418-.444.418-.725a.762.762 0 0 0-.239-.571c-.159-.156-.403-.273-.733-.349l-1.09-.256c-.6-.142-1.04-.362-1.322-.66-.278-.302-.417-.678-.417-1.13 0-.369.104-.696.31-.98a2.13 2.13 0 0 1 .857-.669 3.006 3.006 0 0 1 1.236-.243c.648 0 1.156.142 1.526.426.372.285.636.66.792 1.125Zm1.633 5.08v-6.545h1.006v6.545h-1.005Zm.512-7.636a.714.714 0 0 1-.507-.201.642.642 0 0 1-.209-.481c0-.188.07-.348.209-.482a.717.717 0 0 1 .507-.2c.196 0 .364.067.503.2a.639.639 0 0 1 .213.482.636.636 0 0 1-.213.481.7.7 0 0 1-.503.201Zm4.978 10.227c-.486 0-.903-.063-1.253-.188a2.668 2.668 0 0 1-.873-.485 2.65 2.65 0 0 1-.55-.64l.801-.562c.091.119.206.256.345.409.14.156.33.291.571.405.245.116.564.175.96.175.528 0 .964-.128 1.308-.384.343-.256.515-.656.515-1.202v-1.329h-.085a5.453 5.453 0 0 1-.316.443 1.787 1.787 0 0 1-.579.464c-.25.134-.588.201-1.014.201a2.731 2.731 0 0 1-1.423-.375 2.633 2.633 0 0 1-.993-1.091c-.242-.477-.363-1.057-.363-1.739 0-.67.118-1.254.354-1.751.236-.5.564-.887.984-1.159.42-.276.907-.414 1.458-.414.426 0 .764.071 1.014.213.253.14.446.299.58.478.136.176.241.321.315.434h.102v-1.039h.972v6.732c0 .563-.128 1.02-.384 1.373a2.178 2.178 0 0 1-1.022.779 3.85 3.85 0 0 1-1.424.252Zm-.034-3.597c.404 0 .745-.092 1.023-.277.278-.184.49-.45.635-.797.145-.346.217-.761.217-1.244 0-.471-.07-.888-.213-1.248a1.87 1.87 0 0 0-.63-.848c-.279-.205-.623-.307-1.032-.307-.426 0-.781.108-1.065.324a1.964 1.964 0 0 0-.635.869c-.14.364-.209.767-.209 1.21 0 .455.071.857.213 1.206.145.347.358.619.64.818.283.196.636.294 1.056.294Zm5.71-2.932v3.938h-1.005v-6.545h.971v1.022h.085c.154-.332.387-.599.7-.801.312-.204.715-.307 1.21-.307.443 0 .83.091 1.163.273.332.179.59.452.775.818.185.364.277.824.277 1.381v4.159h-1.005v-4.091c0-.514-.134-.915-.4-1.202-.268-.289-.634-.434-1.1-.434-.321 0-.608.069-.861.208a1.5 1.5 0 0 0-.592.61c-.145.267-.218.591-.218.971Z"/></svg>