<svg xmlns="http://www.w3.org/2000/svg" width="77" height="56" fill="none" viewBox="0 0 77 56"><g filter="url(#a)"><path fill="#FFBFD7" stroke="#000" d="M9.192.662h58.434c2.503 0 4.53 2.02 4.53 4.506v37.228c0 2.487-2.027 4.506-4.53 4.506H9.192c-2.504 0-4.53-2.02-4.53-4.506V5.168c0-2.487 2.026-4.506 4.53-4.506Z"/><mask id="b" fill="#fff"><path d="M67.625.324c2.686 0 4.868 2.174 4.868 4.844v37.225c0 2.673-2.185 4.844-4.868 4.844H9.192c-2.685 0-4.867-2.174-4.867-4.844V5.168C4.325 2.495 6.51.324 9.192.324h58.433Zm0-.324H9.192C6.325 0 4 2.314 4 5.168v37.225c0 2.854 2.325 5.168 5.192 5.168h58.433c2.868 0 5.193-2.314 5.193-5.168V5.168C72.818 2.314 70.493 0 67.625 0Z"/></mask><path fill="#000" d="M67.625.324c2.686 0 4.868 2.174 4.868 4.844v37.225c0 2.673-2.185 4.844-4.868 4.844H9.192c-2.685 0-4.867-2.174-4.867-4.844V5.168C4.325 2.495 6.51.324 9.192.324h58.433Zm0-.324H9.192C6.325 0 4 2.314 4 5.168v37.225c0 2.854 2.325 5.168 5.192 5.168h58.433c2.868 0 5.193-2.314 5.193-5.168V5.168C72.818 2.314 70.493 0 67.625 0Z"/><path fill="#000" d="M67.625 1.324c2.138 0 3.868 1.73 3.868 3.844h2c0-3.226-2.634-5.844-5.868-5.844v2Zm3.868 3.844v37.225h2V5.168h-2Zm0 37.225c0 2.116-1.733 3.844-3.868 3.844v2c3.23 0 5.868-2.614 5.868-5.844h-2Zm-3.868 3.844H9.192v2h58.433v-2Zm-58.433 0c-2.137 0-3.867-1.73-3.867-3.844h-2c0 3.226 2.634 5.844 5.867 5.844v-2Zm-3.867-3.844V5.168h-2v37.225h2Zm0-37.225c0-2.116 1.732-3.844 3.867-3.844v-2c-3.23 0-5.867 2.614-5.867 5.844h2Zm3.867-3.844h58.433v-2H9.192v2ZM67.625-1H9.192v2h58.433v-2ZM9.192-1C5.777-1 3 1.757 3 5.168h2C5 2.87 6.872 1 9.192 1v-2ZM3 5.168v37.225h2V5.168H3Zm0 37.225c0 3.411 2.777 6.168 6.192 6.168v-2C6.872 46.56 5 44.69 5 42.393H3Zm6.192 6.168h58.433v-2H9.192v2Zm58.433 0c3.416 0 6.193-2.757 6.193-6.168h-2c0 2.297-1.873 4.168-4.193 4.168v2Zm6.193-6.168V5.168h-2v37.225h2Zm0-37.225C73.818 1.757 71.04-1 67.625-1v2c2.32 0 4.193 1.87 4.193 4.168h2Z" mask="url(#b)"/><path fill="#333" stroke="#000" d="M22.435 20.904c.133.335.202.707.202 1.123 0 .82-.267 1.486-.796 2.034-.534.554-1.2.863-2.033.923l.02.284-.588-.011a45.928 45.928 0 0 0-.026 1.669v.498c0 1.295-.098 2.249-.272 2.884v.001c-.254.936-.776 1.814-1.586 2.635-1.237 1.231-2.735 1.846-4.519 1.846-.88 0-1.58-.282-2.138-.838-.555-.553-.84-1.25-.84-2.12 0-.395.067-.772.204-1.134l.067-.177-.067-.177a3.169 3.169 0 0 1-.205-1.134c0-.857.275-1.55.821-2.114h.001c.542-.562 1.226-.854 2.086-.87l.49-.01v-.806a7.3 7.3 0 0 1 .024-.562l.003-.038-.002-.037a7.955 7.955 0 0 1-.025-.54V22.79c0-1.793.613-3.285 1.842-4.509 1.23-1.224 2.73-1.835 4.534-1.835.88 0 1.584.282 2.153.84.565.557.852 1.251.852 2.123 0 .416-.068.79-.202 1.126l-.073.184.073.185Zm-.508-2.002h-.05a2.09 2.09 0 0 0-.606-1.13c-.44-.426-1-.627-1.639-.627-1.583 0-2.937.544-4.026 1.628-1.09 1.084-1.637 2.433-1.637 4.01v1.444c0 .114-.01.462-.026 1.06v.539c0 .33-.105.578-.312.782l-.002.002c-.21.21-.462.314-.792.314-.64 0-1.203.206-1.636.65-.427.438-.63.996-.63 1.633s.203 1.195.636 1.626c.432.43.992.631 1.63.631 1.57 0 2.915-.549 4.003-1.642 1.085-1.091 1.639-2.43 1.66-3.99v-.002l.026-3.042v-.004c0-.246.023-.38.04-.434.001 0 .012-.027.057-.085.049-.064.123-.147.228-.25l.003-.003c.115-.115.388-.255.93-.347.628-.107 1.172-.328 1.56-.714.405-.403.583-.94.583-1.549v-.5Z"/><path fill="#333" stroke="#000" d="M39.771 36.5c.11.277.176.578.196.908v.212c0 .872-.287 1.566-.852 2.123-.566.557-1.272.84-2.153.84-1.984 0-3.635-.656-4.984-1.969-1.349-1.31-2.02-2.928-2.02-4.896v-3.094a.885.885 0 0 0-.263-.66c-.198-.186-.449-.234-.66-.234h-.5v2.124c0 .872-.287 1.565-.851 2.118l-.001.001c-.566.557-1.272.84-2.153.84-.88 0-1.58-.282-2.138-.838-.555-.553-.84-1.25-.84-2.121V14.083c0-.874.282-1.573.843-2.14.56-.562 1.258-.849 2.135-.849.878 0 1.58.287 2.151.852.567.563.854 1.265.854 2.136v4.194l.981.136c.195-.69.524-1.167.965-1.477.446-.313 1.057-.492 1.874-.492.88 0 1.583.282 2.153.84.565.557.852 1.251.852 2.122 0 .509-.05.99-.148 1.44l-.028.126.037.124c.091.306.139.617.139.932 0 .77-.116 1.494-.342 2.175l-.071.214.113.195c.584 1.003.882 2.129.882 3.392v3.094c0 .216.054.47.251.668.197.197.452.252.671.252.922 0 1.652.286 2.236.845.58.556.873 1.253.873 2.144 0 .394-.067.77-.205 1.133l-.068.181.071.18ZM28.473 21.026h-.005l-.643-.015v-6.928c0-.64-.208-1.2-.648-1.639-.44-.438-1.002-.643-1.643-.643s-1.203.205-1.636.649c-.428.438-.63.996-.63 1.633v15.15c0 .637.202 1.196.635 1.627.433.43.993.63 1.63.63.639 0 1.198-.2 1.639-.625.445-.43.653-.991.653-1.631v-2.83h1.213c.474 0 .851.154 1.167.46.312.303.466.67.466 1.137v3.093c0 1.734.591 3.21 1.78 4.393 1.188 1.183 2.67 1.77 4.407 1.77h.104c.638 0 1.198-.2 1.638-.626.446-.43.653-.991.653-1.63 0-.641-.207-1.202-.648-1.64-.44-.438-1.002-.644-1.643-.644h-.104c-.469 0-.845-.156-1.163-.47a1.544 1.544 0 0 1-.47-1.153V28c0-1.86-.702-3.398-2.08-4.584.995-1.131 1.501-2.474 1.501-4.014 0-.64-.207-1.2-.653-1.631-.44-.425-1-.626-1.638-.626-.669 0-1.261.172-1.682.603-.419.428-.584 1.029-.584 1.706 0 .438-.154.805-.48 1.124a1.483 1.483 0 0 1-1.136.447Z"/><path fill="#333" stroke="#000" d="M42.36 16.991a3.3 3.3 0 0 1-.386 1.441l-.08.148.027.166c.03.195.046.414.046.656v12.452c0 .87-.29 1.563-.862 2.116h-.001c-.579.562-1.28.843-2.14.843-.862 0-1.58-.283-2.137-.838-.555-.553-.841-1.25-.841-2.121V19.402c0-.223.015-.43.046-.632l.026-.167-.081-.15a3.317 3.317 0 0 1-.414-1.62c0-.394.068-.77.205-1.133l.067-.177-.067-.178a3.168 3.168 0 0 1-.205-1.133c0-.93.327-1.72.997-2.386.671-.668 1.461-.994 2.402-.994.94 0 1.73.326 2.4.994.671.667.998 1.452.998 2.386 0 .397-.068.77-.205 1.133l-.067.178.067.177c.137.362.205.739.205 1.133v.158Zm-1.5-4.666-.001-.001a2.607 2.607 0 0 0-1.894-.787 2.61 2.61 0 0 0-1.894.787 2.587 2.587 0 0 0-.791 1.888c0 .73.27 1.369.791 1.888.522.52 1.162.787 1.894.787.733 0 1.369-.268 1.892-.785l.002-.002c.521-.519.79-1.157.79-1.888 0-.732-.27-1.366-.789-1.887Zm.393 16.908v-9.83c0-.666-.17-1.256-.598-1.676-.426-.417-1.022-.582-1.693-.582-.638 0-1.198.2-1.63.631-.434.431-.636.99-.636 1.626v9.83c0 .637.202 1.196.635 1.627.433.43.993.63 1.63.63.639 0 1.199-.2 1.639-.625.446-.43.653-.991.653-1.631Z"/><path fill="#333" stroke="#000" d="M48.082 31.354h-.003v.5c0 .87-.29 1.563-.862 2.116-.58.562-1.281.843-2.14.843-.862 0-1.58-.283-2.137-.838-.556-.553-.842-1.25-.842-2.121V14.083c0-.875.283-1.569.842-2.125.558-.556 1.257-.838 2.137-.838.968 0 1.684.278 2.206.789.516.51.8 1.212.8 2.173v17.272Zm-.716-2.121v-15.15c0-.666-.171-1.256-.599-1.675-.425-.418-1.022-.583-1.693-.583-.638 0-1.197.2-1.63.631-.434.431-.635.99-.635 1.627v15.15c0 .636.202 1.195.635 1.626.432.43.992.63 1.63.63.639 0 1.198-.2 1.638-.625.446-.43.654-.991.654-1.631Zm6.8 2.121h-.004v.5c0 .87-.29 1.563-.862 2.116-.579.562-1.281.843-2.14.843-.862 0-1.58-.283-2.137-.838-.556-.553-.841-1.25-.841-2.121V14.083c0-.875.282-1.569.84-2.125.56-.556 1.258-.838 2.139-.838.967 0 1.683.278 2.205.789.517.51.8 1.212.8 2.173v17.272Zm-.717-2.121v-15.15c0-.666-.17-1.256-.598-1.675-.426-.418-1.022-.583-1.694-.583-.637 0-1.197.2-1.63.631-.433.431-.635.99-.635 1.627v15.15c0 .636.202 1.195.635 1.626.433.43.993.63 1.63.63.639 0 1.198-.2 1.639-.625.445-.43.653-.991.653-1.631Zm13.393-8.329c.133.335.202.707.202 1.123 0 .82-.267 1.486-.796 2.034-.534.554-1.2.863-2.033.923l.02.284-.588-.011a45.67 45.67 0 0 0-.027 1.669v.498c0 1.295-.097 2.249-.271 2.884v.001c-.254.936-.776 1.814-1.586 2.635-1.237 1.231-2.735 1.846-4.52 1.846-.88 0-1.578-.282-2.137-.838-.556-.553-.841-1.25-.841-2.12 0-.395.068-.772.205-1.134l.067-.177-.067-.177a3.169 3.169 0 0 1-.205-1.134c0-.857.274-1.55.821-2.114h.001c.542-.562 1.225-.854 2.085-.87l.49-.01v-.806a7.3 7.3 0 0 1 .025-.562l.003-.038-.003-.037a7.965 7.965 0 0 1-.024-.54V22.79c0-1.793.613-3.285 1.842-4.509 1.23-1.224 2.73-1.835 4.534-1.835.88 0 1.584.282 2.153.84.565.557.852 1.251.852 2.123 0 .416-.069.79-.202 1.126l-.073.184.073.185Zm-.508-2.002h-.05a2.09 2.09 0 0 0-.607-1.13c-.44-.426-1-.627-1.638-.627-1.583 0-2.937.544-4.027 1.628-1.09 1.084-1.636 2.433-1.636 4.01v1.444c0 .114-.01.462-.026 1.06v.539c0 .33-.105.578-.313.782l-.001.002c-.21.21-.462.314-.792.314-.641 0-1.203.206-1.636.65-.427.438-.63.996-.63 1.633s.202 1.195.635 1.626c.433.43.993.631 1.63.631 1.57 0 2.915-.549 4.003-1.642 1.086-1.091 1.64-2.43 1.66-3.99v-.002l.027-3.042v-.004c0-.246.023-.38.04-.434 0 0 .012-.027.056-.085a2.51 2.51 0 0 1 .229-.25l.002-.003c.116-.115.389-.255.931-.347.628-.107 1.172-.328 1.56-.714.405-.403.583-.94.583-1.549v-.5Z"/></g><defs><filter id="a" width="76.8179" height="55.5609" x="0" y="0" color-interpolation-filters="sRGB" filterUnits="userSpaceOnUse"><feFlood flood-opacity="0" result="BackgroundImageFix"/><feColorMatrix in="SourceAlpha" result="hardAlpha" values="0 0 0 0 0 0 0 0 0 0 0 0 0 0 0 0 0 0 127 0"/><feOffset dy="4"/><feGaussianBlur stdDeviation="2"/><feComposite in2="hardAlpha" operator="out"/><feColorMatrix values="0 0 0 0 0 0 0 0 0 0 0 0 0 0 0 0 0 0 0.25 0"/><feBlend in2="BackgroundImageFix" result="effect1_dropShadow_2_974"/><feBlend in="SourceGraphic" in2="effect1_dropShadow_2_974" result="shape"/></filter></defs></svg>