<svg xmlns="http://www.w3.org/2000/svg" width="511" height="272" fill="none" viewBox="0 0 511 272"><path fill="#000" d="M120.799 103.068c0 8.311-2.738 15.344-8.214 21.052-5.477 5.708-12.368 8.859-20.674 9.453 0-.137-.136-.457-.456-.913-.32-.457-.456-.777-.456-.914-.137 3.836-.228 8.723-.228 14.568v4.384c0 11.553-.868 20.412-2.556 26.577-2.464 9.088-7.484 17.49-15.014 25.208-11.683 11.691-25.922 17.581-42.716 17.581-8.762 0-16.064-2.877-21.814-8.676-5.75-5.754-8.67-13.061-8.67-21.828 0-4.019.684-7.855 2.098-11.554C.73 174.307 0 170.471 0 166.453c0-8.631 2.784-15.847 8.443-21.737 5.613-5.846 12.732-8.86 21.358-8.997v-2.785c0-1.69.09-3.471.228-5.298-.137-2.009-.228-3.698-.228-5.068v-12.696c0-16.942 5.795-31.235 17.433-42.88C58.87 55.347 73.155 49.548 90.086 49.548c8.762 0 16.064 2.877 21.951 8.676 5.841 5.754 8.762 13.06 8.762 21.828 0 4.156-.684 7.992-2.099 11.554 1.369 3.562 2.099 7.398 2.099 11.553v-.091Zm-15.014-23.107c0-4.612-1.461-8.357-4.381-11.188-2.921-2.831-6.709-4.293-11.318-4.293-12.778 0-23.503 4.339-32.22 13.06-8.716 8.723-13.051 19.455-13.051 32.241v12.695c0 1.096-.091 4.247-.228 9.453v4.612c0 4.019-1.37 7.353-4.062 10.047-2.692 2.694-6.024 4.064-10.04 4.064-4.61 0-8.351 1.461-11.18 4.384-2.83 2.923-4.29 6.713-4.29 11.325 0 4.612 1.414 8.357 4.29 11.188 2.829 2.832 6.57 4.293 11.18 4.293 12.641 0 23.275-4.384 31.991-13.152 8.716-8.768 13.143-19.499 13.28-32.103l.228-26.806c0-2.329.183-4.064.594-5.206.365-1.142 1.597-2.74 3.56-4.75 2.007-2.008 5.521-3.424 10.496-4.292 5.02-.822 8.762-2.557 11.317-5.069 2.556-2.511 3.788-6.028 3.788-10.503h.046Z"/><path fill="#000" d="M272.768 240.568c0 8.768-2.921 16.075-8.763 21.829-5.841 5.799-13.143 8.676-21.951 8.676-18.482 0-34.044-6.21-46.777-18.586-12.687-12.421-19.03-27.856-19.03-46.351v-27.262c0-2.329-1.232-3.471-3.696-3.471v14.339c0 8.768-2.921 16.075-8.763 21.829-5.841 5.753-13.143 8.676-21.951 8.676-8.807 0-16.064-2.877-21.814-8.676-5.75-5.754-8.671-13.061-8.671-21.829V33.062c0-8.768 2.875-16.12 8.671-21.965 5.796-5.845 13.052-8.768 21.814-8.768 8.763 0 16.064 2.923 21.951 8.768 5.842 5.845 8.763 13.152 8.763 21.965v36.99c3.833-13.7 13.553-20.55 29.115-20.55 8.762 0 16.11 2.877 21.951 8.676 5.842 5.754 8.763 13.061 8.763 21.829 0 4.795-.457 9.316-1.37 13.654a33.348 33.348 0 0 1 1.37 9.453c0 7.261-1.096 14.111-3.241 20.55 5.522 9.544 8.306 20.275 8.306 32.103v27.262c0 2.466 1.232 3.699 3.697 3.699 9.081 0 16.611 2.877 22.635 8.677 6.024 5.799 8.991 13.152 8.991 22.056 0 4.019-.685 7.855-2.1 11.554 1.369 3.562 2.1 7.398 2.1 11.553Zm-15.015-23.107c0-4.612-1.46-8.402-4.381-11.325-2.921-2.922-6.708-4.384-11.318-4.384h-.912c-5.249 0-9.675-1.826-13.28-5.434-3.606-3.607-5.431-8.037-5.431-13.289v-27.262c0-16.623-6.754-29.957-20.308-39.958 10.177-9.864 15.242-21.783 15.242-35.802 0-4.612-1.46-8.357-4.381-11.188-2.921-2.832-6.708-4.293-11.318-4.293-10.313 0-15.47 5.297-15.47 15.938 0 5.068-1.826 9.452-5.522 13.06-3.697 3.608-8.078 5.343-13.143 5.206l-9.949-.228V33.108c0-4.612-1.461-8.403-4.381-11.325-2.921-2.923-6.709-4.384-11.318-4.384s-8.351 1.461-11.181 4.384c-2.829 2.922-4.29 6.713-4.29 11.325V166.68c0 4.612 1.415 8.357 4.29 11.188 2.83 2.831 6.572 4.293 11.181 4.293 4.609 0 8.397-1.416 11.318-4.293 2.92-2.831 4.381-6.576 4.381-11.188v-29.363h15.014c5.248 0 9.675 1.781 13.28 5.297 3.606 3.562 5.431 7.946 5.431 13.152v27.262c0 14.157 4.792 26.03 14.33 35.574 9.538 9.544 21.403 14.339 35.55 14.339h.913c4.609 0 8.397-1.415 11.318-4.292 2.921-2.832 4.381-6.576 4.381-11.189h-.046Z"/><path fill="#000" d="M293.76 57.31c0 5.846-1.323 11.235-3.924 16.167.319 2.009.456 4.155.456 6.484v109.781c0 8.768-2.966 16.075-8.899 21.829-5.933 5.753-13.189 8.676-21.814 8.676s-16.064-2.877-21.814-8.676c-5.796-5.754-8.671-13.061-8.671-21.829V79.962c0-2.147.137-4.248.456-6.257-2.784-5.069-4.153-10.549-4.153-16.394 0-4.019.685-7.855 2.1-11.554-1.37-3.699-2.1-7.535-2.1-11.553 0-9.407 3.332-17.445 10.04-24.157C242.146 3.334 250.178 0 259.579 0s17.433 3.334 24.141 10.046c6.709 6.713 10.04 14.75 10.04 24.158 0 4.018-.684 7.854-2.099 11.553 1.369 3.7 2.099 7.535 2.099 11.554Zm-15.014-23.106c0-5.252-1.871-9.727-5.659-13.517-3.788-3.79-8.26-5.663-13.508-5.663-5.248 0-9.721 1.872-13.509 5.663-3.787 3.79-5.658 8.265-5.658 13.517 0 5.251 1.871 9.727 5.658 13.517 3.788 3.79 8.261 5.663 13.509 5.663 5.248 0 9.72-1.873 13.508-5.663 3.788-3.79 5.659-8.266 5.659-13.517Zm-3.468 132.431V79.961c0-10.32-5.249-15.48-15.699-15.48-4.609 0-8.352 1.415-11.181 4.292-2.83 2.831-4.29 6.576-4.29 11.188v86.674c0 4.612 1.415 8.357 4.29 11.188 2.829 2.832 6.572 4.293 11.181 4.293 4.609 0 8.397-1.416 11.318-4.293 2.92-2.831 4.381-6.575 4.381-11.188Z"/><path fill="#000" d="M343.869 189.697c0 8.767-2.967 16.074-8.899 21.828-5.933 5.754-13.189 8.676-21.815 8.676-8.625 0-16.063-2.877-21.814-8.676-5.795-5.754-8.67-13.061-8.67-21.828V33.062c0-8.768 2.875-16.074 8.67-21.828 5.751-5.754 13.052-8.677 21.814-8.677 9.402 0 16.84 2.74 22.408 8.22 5.522 5.48 8.306 12.924 8.306 22.285v156.68-.045Zm-15.015-23.107V33.062c0-10.32-5.248-15.48-15.699-15.48-4.609 0-8.351 1.415-11.18 4.292-2.83 2.831-4.29 6.576-4.29 11.188v133.573c0 4.612 1.415 8.357 4.29 11.188 2.829 2.832 6.571 4.293 11.18 4.293 4.61 0 8.398-1.416 11.318-4.293 2.921-2.831 4.381-6.576 4.381-11.188v-.045Z"/><path fill="#000" d="M397.217 189.697c0 8.767-2.966 16.074-8.899 21.828-5.932 5.754-13.189 8.676-21.814 8.676s-16.064-2.877-21.814-8.676c-5.796-5.754-8.671-13.061-8.671-21.828V33.062c0-8.768 2.875-16.074 8.671-21.828 5.75-5.754 13.052-8.677 21.814-8.677 9.401 0 16.84 2.74 22.408 8.22 5.522 5.48 8.305 12.924 8.305 22.285v156.68-.045Zm-15.014-23.107V33.062c0-10.32-5.248-15.48-15.699-15.48-4.609 0-8.351 1.415-11.181 4.292-2.829 2.831-4.29 6.576-4.29 11.188v133.573c0 4.612 1.415 8.357 4.29 11.188 2.83 2.832 6.572 4.293 11.181 4.293 4.609 0 8.397-1.416 11.318-4.293 2.921-2.831 4.381-6.576 4.381-11.188v-.045Z"/><path fill="#000" d="M510.167 103.068c0 8.311-2.738 15.344-8.214 21.052-5.477 5.708-12.368 8.859-20.674 9.453 0-.137-.137-.457-.456-.913-.319-.457-.456-.777-.456-.914-.137 3.836-.229 8.723-.229 14.568v4.384c0 11.553-.867 20.412-2.555 26.577-2.465 9.088-7.485 17.49-15.015 25.208-11.682 11.691-25.967 17.581-42.715 17.581-8.762 0-16.064-2.877-21.814-8.676-5.796-5.754-8.671-13.061-8.671-21.828 0-4.019.685-7.855 2.099-11.554-1.369-3.699-2.099-7.535-2.099-11.553 0-8.631 2.829-15.847 8.443-21.737 5.613-5.846 12.732-8.86 21.358-8.997v-2.785c0-1.69.091-3.471.228-5.298-.137-2.009-.228-3.698-.228-5.068v-12.696c0-16.942 5.795-31.235 17.432-42.88 11.638-11.645 25.922-17.444 42.853-17.444 8.762 0 16.109 2.877 21.951 8.676 5.841 5.754 8.762 13.06 8.762 21.828 0 4.156-.685 7.992-2.099 11.554 1.369 3.562 2.099 7.398 2.099 11.553v-.091Zm-15.014-23.107c0-4.612-1.461-8.357-4.381-11.188-2.921-2.831-6.709-4.293-11.318-4.293-12.778 0-23.503 4.339-32.219 13.06-8.717 8.723-13.052 19.455-13.052 32.241v12.695c0 1.096-.092 4.247-.228 9.453v4.612c0 4.019-1.37 7.353-4.062 10.047-2.693 2.694-6.024 4.064-10.04 4.064-4.609 0-8.351 1.461-11.181 4.384-2.829 2.923-4.29 6.713-4.29 11.325 0 4.612 1.415 8.357 4.29 11.188 2.83 2.832 6.572 4.293 11.181 4.293 12.641 0 23.274-4.384 31.991-13.152 8.716-8.768 13.143-19.499 13.28-32.103l.228-26.806c0-2.329.183-4.064.594-5.206.365-1.142 1.597-2.74 3.559-4.75 1.963-2.008 5.522-3.424 10.496-4.292 5.02-.822 8.763-2.557 11.318-5.069 2.556-2.557 3.788-6.028 3.788-10.503h.046Z"/></svg>