<svg xmlns="http://www.w3.org/2000/svg" width="90" height="43" fill="none" viewBox="0 0 90 43"><g clip-path="url(#a)"><path fill="#00D800" stroke="#000" stroke-miterlimit="10" d="M66.689.205H23.31a4.713 4.713 0 0 0-3.157 1.212L1.714 18.125a4.537 4.537 0 0 0 0 6.75l18.444 16.708a4.715 4.715 0 0 0 3.158 1.212h43.377c1.17 0 2.297-.434 3.158-1.212l18.443-16.709a4.538 4.538 0 0 0 0-6.748L69.847 1.415A4.715 4.715 0 0 0 66.689.206Z"/><path fill="#000" d="M9.087 28.76c-.188-.048-.375-.298-.491-.618-.084-.266-.154-.548-.154-.765 0-.82.066-1.618.204-2.285.083-.533.287-1.237.578-2.171.204-.668.932-1.384 1.593-1.736a2.465 2.465 0 0 1-.865-.566l-1.373-1.335a2.35 2.35 0 0 1-.865-1.068 14.184 14.184 0 0 0 4.526-2.302c.391-.282.678-.532.866-.684.066-.049.12-.082.137-.098.662-.516 1.12-.766 1.39-.766.611 0 1.036.184 1.252.532.017.05.033.066.05.082l1.473 1.45c.066.066.12.119.137.168.066.152.137.315.187.57 1.086.032 1.693.134 1.83.315.255-.836.409-1.585.458-2.253.017-.418.816-.7 2.426-.852a28.544 28.544 0 0 1 2.476-.098c1.102 0 2.017.467 2.712 1.417l1.22 1.2c.457.45.831 1.052 1.135 1.835-.27.266-.458.4-.595.466-.849-.368-1.34-.548-1.494-.548-.578 0-1.235.45-1.984 1.367-.745.934-1.12 1.704-1.12 2.286v.065l.933.901c.1.098.154.168.17.2.816 1.352 1.22 2.085 1.273 2.155.795 1.384 1.22 2.334 1.22 2.854 0 .549-.338.82-1 .82-.523 0-2.034-.435-4.422-1.254l-1.373-.45c-.408-.136-.898-.283-1.306-.418-.358-.119-.645-.266-.882-.483l-.32-.3c-.408.603-1.253 1.254-2.41 1.9-.628.353-1.493.75-2.575 1.234-1.423.65-2.288.933-2.68.933-.082 0-.17-.016-.286-.032-.12-.017-.204-.033-.254-.033a.407.407 0 0 1-.27-.135l-1.527-1.503v.004Zm16.138-1.834c.17.033.391-.033.678-.184v-.5c0-.217-.374-.95-1.102-2.22-.778-1.334-1.323-2.067-1.644-2.186-.016.151 0 .385.05.684.05.282.084.5.084.634 0 .55.016.7.033.45-.017.136-.083.218-.237.234-.358 0-.662-.401-.916-1.183-.033-.119-.05-.385-.05-.803 0-.418.254-1.253.745-2.535.287-.516.458-.835.524-.966.22-.402.558-.836 1.036-1.286.558-.549 1.053-.82 1.44-.82.32 0 .761.099 1.323.283-.728-.982-1.44-1.47-2.134-1.47-.425 0-1.153.033-2.151.119-1.153.082-1.798.2-1.93.315-.084.25-.375 1.286-.85 3.104-.357 1.352-.728 2.286-1.152 2.838l-.474-.233a1.775 1.775 0 0 1-.17-.549 2.395 2.395 0 0 1 0-.5c.016-.233.016-.4.016-.483a.853.853 0 0 1-.034-.217c0-.184.138-.684.425-1.486a4.542 4.542 0 0 0-1.186-.168c-.832 0-1.236.315-1.236.966 0 .217.034.516.1.934.067.418.1.717.1.934 0 .618-.083 1.02-.237 1.2-.558-.652-.849-1.851-.849-3.637 0-.2 0-.5.017-.9.016-.419.016-.718.016-.918 0-.803-.12-1.2-.337-1.2-.27 0-.744.25-1.406.75-.948.716-1.527 1.134-1.71 1.269-1.202.684-2.15 1.216-2.846 1.568 1.016.352 1.781.602 2.305.75.22.151.408.618.579 1.4.154.684.22 1.237.22 1.688 0 1.052-.187 1.584-.578 1.584-.187 0-.287-.118-.304-.352 0 .05 0 .033.017-.016v-1.302c0-.136.033-.467.033-.602-.32.25-.628.45-.882.618a4.762 4.762 0 0 0-.49.766c-.558 1.2-.833 2.62-.833 4.271 0 .082.067.266.067.315.05.066.137.099.237.099.695 0 2.034-.55 4.019-1.65 1.493-.82 2.525-1.45 3.103-1.884.121-.82.188-1.233.204-1.27.084-.5.287-.82.579-.934.22.066.357.369.424.885.083.635.154 1.02.237 1.134.154.234 1.22.684 3.237 1.335 1.373.45 2.409.836 3.066 1.135l.832.184-.008.008Zm-.32-4.406a.51.51 0 0 0 .17.168l-.17-.168Z"/><path fill="#000" d="m38.393 17.417-.017.098 1.66 1.618-.083.57c-.016.233-.137.515-.337.867-.287.467-.645.717-1.052.733l-.778.033a52.012 52.012 0 0 0 1.73 2.453c.188.352.458.782.795 1.302.287.418.424.967.424 1.618 0 1.069-.374 1.835-.998 2.22-.491.282-1.373.434-2.526.434-1.813 0-3.457-.266-4.896-.82l-.017-.016c-1.103-.417-1.968-.917-2.575-1.519l-1.307-1.286c-.982-.766-1.473-1.667-1.473-2.686 0-.7.1-1.27.32-1.684.138-.25.271-.569.629-1.15l-.137-.152c-.579-.385-.966-.95-1.17-1.72-.27-.999-.44-1.85-.44-2.387 0-.619.05-1.07.137-1.335.187-.484.578-.733 1.169-.733.761 0 1.747.352 2.933 1.036h-.017c.645.352 1.22.75 1.731 1.183.12-.315.32-.7.645-1.085.287-.315.745-.467 1.39-.467.137 0 .32.168.557.5l1.39 1.368c.12.135.287.352.474.667.017.066.05.098.067.152.187.065.407.098.628.118l1.152.066-.008.004Zm-10.339 7.007c.391.483.899.852 1.494 1.118 1.119.618 2.15 1.02 3.12 1.183.578.099.999.152 1.257.168l1.202.05s.137.016.458.032c.17.017.374.017.628 0 .778-.033 1.373-.282 1.78-.766.271-.315.408-.65.408-1.036 0-.733-.287-1.47-.848-2.22-.27-.351-.816-1.052-1.61-2.1a21.578 21.578 0 0 1-.95-1.45 16.46 16.46 0 0 1-.099-.315c-.033-.184-.033-.283-.017-.3.084 0 .558.152.679.169.474.065.865.082 1.169.033.457-.136.54-.353.882-.836l-1.373-.315a2.204 2.204 0 0 1-1.07-.586c-.237-.368-.524-.782-.848-1.27-.254-.351-.474-.548-.662-.601-.424.299-.695.634-.849.982a11.98 11.98 0 0 0-.287 1l-.237.884a9.04 9.04 0 0 0-.474-1.183c-.12-.25-.778-.733-1.968-1.434-1.186-.7-1.93-1.052-2.238-1.052-.22 0-.358 0-.375.016a1.38 1.38 0 0 1-.204.283c-.083.299-.12.733-.12 1.302 0 .385.066.717.22 1.036.1.418.237.836.425 1.233.303.667.628 1 .965 1 .12 0 .32-.218.628-.652.304-.45.458-.733.474-.884-.137.049-.32.118-.54.2-.254-.184-.375-.483-.375-.868s.17-.602.508-.602c.22 0 .457.082.728.266.287.184.424.369.424.57 0 .25-.337.884-1.015 1.883-.358.516-.728 1.086-1.12 1.683-.357.55-.54.983-.54 1.303 0-.05-.017.082-.05.368-.017.2-.017.369.033.516.034.516.17.918.391 1.184l-.004.008Zm5.78-1.069-.558.098c-.32.066-.778-.081-1.373-.45-.358-.217-.541-.516-.541-.868 0-.234.1-.619.304-1.151.237-.635.49-.95.76-.95.475 0 .85.233 1.12.716.05.082.22.517.524 1.336.12.417.17.7.17.851 0 .283-.136.418-.407.418Z"/><path fill="#000" d="M49.173 20.82c-.154.651-.662 1.184-1.527 1.601.254.201.491.402.745.619.524.418 1.202.884 1.83 1.216.458.217.85.401 1.053.483.187 0 .474-.098.612-.151.016-.05.1-.082.12-.135l.154-.136c.067-.065.287-.299.358-.368.287.098.491.266.612.483l1.51 1.47c.22.217.32.533.32.983 0 1.07-.54 2.203-1.627 3.403-.931 1.02-1.764 1.52-2.492 1.52-.49 0-1.052-.316-1.676-.934l-1.153-1.134a6.422 6.422 0 0 1-1.086-1.053 28.05 28.05 0 0 1-1.527-2.019l-.12.152h.016c-.12.151-.424.434-.915.852-.815.683-1.473 1.02-1.985 1.02-.12 0-.22 0-.27-.017a.44.44 0 0 1-.154-.099l-1.543-1.502-.017-.017c-.358-.119-.728-1.069-1.053-2.785-.27-1.47-.44-2.838-.44-3.853v-.082c0-.119.016-.299.033-.57 0-.2.016-.433.033-.7L37.407 17.5h-.1c0-.066.017-.184-.033-.25a.802.802 0 0 1 0-.282c.22-.717 1.29-1.434 2.459-1.835.05-.016.137-.016.254-.066.187-.049.474-.118.815-.2l.578-.152c.22-.049.408-.082.728-.168a6.186 6.186 0 0 1-.066-.9c0-.25.033-.468.12-.652.271-.483.779-.75 1.457-.7.187.016.457.049.794.135.188.135.475.401.866.782.524.516.998.885 1.423 1.135h-.017c.358.184.816.4 1.39.634.761.316 1.356.55 1.543.635v.082l1.644 1.618c0 .081.016.184.066.266-.287.385-.628.7-1.015.819-.22.082-.612.151-1.17.184a4.813 4.813 0 0 0-.948.119c.12.2.287.418.508.635l.204.2c.12.12.22.316.27.602.05.25.05.484 0 .684l-.004-.004Zm3.303 4.44c-.066.016-.287.134-.661.315-.254.135-.424.2-.474.184-.254-.119-.629-.266-1.12-.467-.203-.016-.76-.401-1.676-1.15a25.43 25.43 0 0 1-1.61-1.385L44.8 20.738c.05-.065.1-.135.154-.184.12-.098.337-.217.678-.369.612-.25.949-.548 1.036-.868.05-.2-.016-.467-.187-.782-.154-.283-.304-.516-.49-.668-.442-.384-.662-.733-.662-1.052 0-.401.254-.618.778-.635l.761.05a5.152 5.152 0 0 0 1.73-.353 58.9 58.9 0 0 1-3.34-1.486c-.32-.152-.712-.602-1.202-1.319-.154-.033-.337-.066-.541-.119-.304-.016-.491.332-.558 1.07.05.183.083.417.1.667-.1.45-.474.716-1.136.802l-.948.135c-.188.017-.525.066-.982.135-.728.099-1.236.386-1.56.869l.744-.017c.154.017.525.369.579.516.083.25.12.602.12 1.053 0 .352-.033.766-.083 1.216.017.651.033 1.601.083 2.822.017.618.084 1.069.188 1.384-.05.016-.017.217.083.618.033.12.083.332.17.684.084.25.27.668.558 1.216.254 0 .678-.184 1.236-.532.578-.369.881-.667.931-.9.017-.12-.033-.451-.154-1.037-.203-.95-.303-1.417-.32-1.384.05-.234.22-.352.491-.352.083 0 .17.016.27.032.304.066.866.783 1.694 2.17 1.102 1.852 1.764 2.92 1.984 3.236.832 1.2 1.594 1.868 2.272 2.02.424.081 1.053-.333 1.847-1.27.728-.852 1.136-1.45 1.22-1.835.082-.385.137-.733.137-1.02l-.005.008Zm-7.967-5.922c0 .352-.557.569-.965.569-.22 0-.816-.066-1.07-.066-.187.017-.32-.151-.39-.466-.017-.152-.067-.385-.121-.7-.154-.717-.22-1.184-.22-1.418 0-.119.1-.266.286-.45.491.2.999.5 1.494.9.711.57 1.07.95 1.07 1.168 0 .282-.034.45-.084.467v-.004Z"/><path fill="#000" d="M68.886 16.598c-.171.168-.475.299-.9.385a1.54 1.54 0 0 1-.424.066 1.18 1.18 0 0 0-.357.049c.22.118.424.25.474.401l1.56 1.52s-.016-.017-.033-.017l.033.016c.067.066.1.135.1.185 0 .618-.12 1.167-.358 1.666-.154.316-.39.733-.744 1.319l1.643 1.601v.483c0 .684-.22 1.401-.678 2.118-.204.315-.579.802-1.053 1.384-.524.483-1.052.852-1.577 1.101-.22.099-.778.234-1.643.402-.154.049-.358.033-.645.033-.408 0-.965-.017-1.593-.082l-.525-.05c-.794-.016-1.34-.118-1.593-.368l-1.103-1.085s-.033.049-.05.065c-.187.267-.611.533-1.29.852-.54.25-1.069.45-1.422.586-1.053.331-1.88.5-2.492.5h-.288a.41.41 0 0 1-.286-.136l-1.527-1.52c-.121-.048-.204-.134-.358-.314.187-.45.507-.983.965-1.602.458-.618.761-1.069.899-1.4.965-2.052 1.44-3.22 1.44-3.506 0-.315-.017-.585-.017-.802l-1.473-1.434c-.05-.016-.033-.016-.084-.033-.27-.352-.694-.9-1.185-1.617-.678-1-1.12-1.704-1.12-1.9 0-.25.138-.45.425-.602l-.017.016c.22-.152.458-.2.678-.2.695 0 2.002.417 3.762 1.166 1.356.603 2.388 1.102 2.779 1.352a.76.76 0 0 1 .237.315l.137.135c0-.2 0-.4.017-.618.017-.852.12-1.487.27-1.835.238-.569.745-.999 1.527-1.302l1.203-.45c.066-.082.337-.12.728-.201.066-.033.1-.033.237-.066a.874.874 0 0 1 .187-.049l.204-.049c.12-.016.424-.033.982-.033.965 0 1.864.418 2.663 1.237v.05l1.593 1.568s.033.049.05.065l.033.635h.009Zm-1.34 6.155c-1.473.782-2.41 1.167-2.763 1.167-.353 0-.507-.233-.507-.684 0-.168.12-.466.358-.9.357-.603.628-1.135 1.235-2.02.287-.417.728-1.052.849-1.4.12-.385.187-.635.187-.733 0-.119-.05-.25-.137-.385-.628.467-1.66.983-3.087 1.568-.474.185-1.053.434-1.731.717-.391.168-.711.25-.949.25-.066 0-.1-.016-.12-.05l-.034-.048c.1-.267.27-.5.508-.717.441-.401 1.036-1.27 1.764-2.605.882-1.617 1.985-2.387 3.324-2.301l-.557-.385c-.712-.266-1.307-.402-1.78-.402-.475 0-1.12.152-1.915.467l-1.643.652c-.287.315-.458.9-.541 1.769 0 .049-.017.7-.066 1.953-.121.75-.425 1.286-.933 1.634-.12-.119-.253-.45-.407-1.036-.187-.717-.287-1.118-.32-1.216-.121-.201-.883-.651-2.289-1.368-1.527-.766-2.592-1.15-3.22-1.15h-.458v.249c.05.066.237.401.579 1 .457.818.711 1.269.728 1.35.083.082.253.136.507.168.254.033.408.066.475.099.524.385.882.782 1.035 1.183.121.316.188.852.188 1.569 0 .45-.32 1.319-.965 2.637a47.953 47.953 0 0 1-1.864 3.403c.016 0 .203.082.287.082.358 0 .915-.119 1.676-.368.866-.283 1.527-.619 2.018-1 .254-.217.524-.5.778-.884.474-.684.762-1.2.882-1.536l.1-.467s.12-.082.32-.168l.375-.168c.22-.065.508-.167.865-.315.12-.049.458-.184.999-.434.474-.217.795-.315.948-.315.05 0 .084.016.1.032-.358 1.184-.778 2.155-1.252 2.871-.017.033-.304.467-.866 1.286-.253.369-.374.586-.374.668v.282c-.05 0 .187.017.712.05.524.032.848.049.948.049l2.001-.017c.882-.016 1.952-.766 3.187-2.285a3.871 3.871 0 0 0 .849-1.802l-.004.004Z"/><path fill="#000" d="M68.058 25.825c-.816-.619-1.22-1.2-1.22-1.786 0-.082.1-.369.288-.717a1.01 1.01 0 0 1 .137-.299v.017c.05-.066.12-.234.1-.184a.678.678 0 0 0 .1-.185c.016-.049.033-.065.05-.119l.711-1.285a.42.42 0 0 0-.067-.185l.017.017c-.083-.136-.17-.201-.237-.201l-.391-.782s-.083-.082-.083-.099c-.121-.184-.254-.384-.254-.7 0-.217.05-.434.137-.7.154-.483.578-.983 1.236-1.52.711-.548 1.252-1.036 1.627-1.433.407-.45 1.152-.835 2.238-1.253.32-.119 1.086-.282 2.305-.5 1.373-.25 2.68-.368 3.898-.368.458 0 .982.082 1.544.233-.017.017-.017.05-.017.082l1.644 1.618c-.067.352-.425.75-1.086 1.233-.999.683-1.627 1.15-1.897 1.367-.491.418-.882.852-1.153 1.335l1.07 1.037c.153.167.286.4.44.716.121.217.138.602.138 1.085 0 .168-.304.668-.425.7-.033.017-.066.017-.1.017-.05 0-.033.017-.083.017s-.1 0-.154-.017h-.033l-.083-.033c-1.34 2.17-2.018 3.653-2.018 4.44 0 .352.137.868.424 1.535 0 .651-.137.868-.794.868-.658 0-1.831-.282-3.325-.802-.524-.184-1.036-.385-1.373-.57-.931-.483-1.643-.95-2.1-1.416l-1.203-1.168-.008.005Zm.507-5.64c.287-.049.795-.135 1.56-.282 1.407-.266 2.222-.401 2.426-.401.204 0 .358.049.458.167v.218c-.728.933-1.357 1.519-1.897 1.752l-.662.283.22-.635c0-.082.171-.266.525-.549.457-.368.761-.618.882-.733-.525.082-1.677.3-3.441.619-.017.016.083.082.27.233.05.033.121.135.204.315a9.232 9.232 0 0 1-.49 1l-.492.851c-.083.152-.22.402-.407.75 0 .868.848 1.667 2.525 2.387.391.152 1.103.45 2.118.869.457.184 1.069.282 1.864.266 0-.066.016-.152.033-.25a.716.716 0 0 0 0-.266l-.304-1.053c0-.716.254-1.519.745-2.436.154-.267.54-1 1.202-2.187.188-.549.358-.836.491-.836l.558.283s.016-.066.033-.119a.41.41 0 0 0 0-.2v-.435c-.32-.548-.865-.917-1.627-1.118-.22-.049-.557-.082-1.015-.082-.187 0-.457.033-.832.082a6.17 6.17 0 0 1-.815.066c-.121 0-.304.016-.575.033a.655.655 0 0 1-.594-.168c-.017-.082-.017-.152-.017-.217 0-.217.066-.369.204-.483.187-.234.358-.418.49-.566.238-.233.679-.466 1.34-.684.017 0 .017.017.017.05 0 .184-.083.417-.27.716-.188.283-.358.483-.508.57-.12.065-.17.167-.17.315 0 .016.27 0 .831-.066.458-.049.712-.082.745-.082.375-.049.595-.118.645-.168.408-.683 1.036-1.416 1.864-2.17.882-.782 1.677-1.319 2.388-1.601-.05-.033-.204-.05-.458-.033-1.693.05-3.507.299-5.425.733-.865.352-1.693.635-2.558 1.351-.221.185-.679.55-1.34 1.118-.915.783-1.373 1.335-1.373 1.65 0 .1.05.234.17.419l.458.716.004.008Z"/></g><defs><clipPath id="a"><path fill="#fff" d="M0 0h90v43H0z"/></clipPath></defs></svg>