<svg xmlns="http://www.w3.org/2000/svg" width="1379" height="786" fill="none" viewBox="0 0 1379 786"><g clip-path="url(#a)"><path fill="#00D800" stroke="#000" stroke-miterlimit="10" stroke-width="2" d="M1033.7.83H345.301L1.101 393l344.2 392.171H1033.7L1377.9 393 1033.7.83Z"/><path fill="#000" d="M434.793 147.79c-1.334-.365-2.668-2.181-3.513-4.486-.605-1.94-1.093-3.996-1.093-5.572 0-5.936.48-11.756 1.449-16.607.605-3.88 2.063-8.971 4.118-15.753 1.449-4.85 6.66-10.057 11.382-12.602-2.303-.846-4.358-2.305-6.172-4.121l-9.808-9.692c-2.784-1.94-4.846-4.486-6.172-7.761 12.592-3.88 23.494-9.817 32.333-16.723 2.783-2.056 4.846-3.88 6.171-4.967.481-.364.845-.605.969-.73 4.722-3.755 7.995-5.57 9.933-5.57 4.357 0 7.389 1.334 8.963 3.88.124.364.24.48.365.605l10.537 10.546c.48.48.845.846.969 1.21.481 1.095.969 2.305 1.334 4.121 7.754.24 12.111.97 13.08 2.305 1.814-6.06 2.908-11.516 3.272-16.358.125-3.027 5.816-5.091 17.314-6.185 5.327-.481 11.258-.73 17.678-.73 7.87 0 14.406 3.391 19.376 10.297l8.715 8.723c3.272 3.275 5.931 7.636 8.11 13.332-1.939 1.94-3.272 2.91-4.241 3.391-6.056-2.67-9.568-3.996-10.654-3.996-4.117 0-8.839 3.275-14.165 9.94-5.327 6.791-7.994 12.363-7.994 16.608v.481l6.66 6.541c.729.73 1.094 1.211 1.209 1.451 5.816 9.817 8.715 15.148 9.08 15.638 5.691 10.057 8.714 16.963 8.714 20.727 0 3.997-2.418 5.937-7.14 5.937-3.753 0-14.53-3.151-31.604-9.087l-9.808-3.275c-2.908-.97-6.42-2.056-9.328-3.027-2.543-.845-4.597-1.94-6.295-3.515l-2.303-2.181c-2.908 4.362-8.964 9.088-17.198 13.822-4.482 2.545-10.653 5.455-18.407 8.971-10.173 4.726-16.344 6.79-19.136 6.79-.605 0-1.209-.124-2.063-.24-.845-.125-1.449-.241-1.814-.241-.605 0-1.334-.364-1.938-.97l-10.902-10.911.017-.016Zm115.279-13.333c1.21.241 2.784-.24 4.846-1.334v-3.64c0-1.576-2.667-6.907-7.869-16.118-5.575-9.693-9.444-15.032-11.747-15.878-.124 1.095 0 2.786.365 4.967.364 2.064.604 3.639.604 4.609 0 3.997.125 5.091.241 3.275-.125.971-.605 1.576-1.699 1.7-2.543 0-4.722-2.91-6.536-8.606-.24-.846-.364-2.786-.364-5.82 0-3.035 1.814-9.087 5.326-18.423 2.063-3.756 3.272-6.061 3.753-7.031 1.574-2.91 3.993-6.061 7.389-9.336 3.993-3.996 7.506-5.937 10.297-5.937 2.303 0 5.451.73 9.444 2.065-5.211-7.147-10.289-10.662-15.259-10.662-3.024 0-8.234.24-15.375.845-8.234.606-12.84 1.451-13.81 2.305-.604 1.816-2.659 9.336-6.055 22.544-2.543 9.817-5.211 16.607-8.234 20.603l-3.389-1.7c-.604-1.334-1.093-2.67-1.209-3.996-.124-.73-.124-1.94 0-3.631.124-1.7.124-2.91.124-3.516-.124-.48-.24-.97-.24-1.575 0-1.335.969-4.966 3.024-10.787-3.148-.845-5.932-1.21-8.475-1.21-5.931 0-8.839 2.305-8.839 7.03 0 1.576.24 3.757.729 6.791.481 3.026.729 5.215.729 6.79 0 4.486-.605 7.396-1.698 8.723-3.993-4.726-6.056-13.457-6.056-26.424 0-1.451 0-3.64.125-6.542.124-3.026.124-5.215.124-6.666 0-5.82-.845-8.722-2.419-8.722-1.939 0-5.327 1.816-10.049 5.456-6.784 5.215-10.901 8.24-12.227 9.21-8.598 4.967-15.383 8.848-20.345 11.393 7.265 2.545 12.716 4.361 16.468 5.456 1.574 1.094 2.908 4.485 4.118 10.181 1.093 4.966 1.574 8.971 1.574 12.238 0 7.636-1.334 11.516-4.118 11.516-1.333 0-2.054-.846-2.178-2.545 0 .365 0 .24.124-.125v-9.452c0-.97.24-3.39.24-4.36-2.303 1.815-4.481 3.274-6.296 4.485-1.698 2.305-2.907 4.245-3.512 5.571-3.993 8.723-5.931 19.029-5.931 31.026 0 .605.48 1.94.48 2.305.365.481.969.729 1.698.729 4.962 0 14.53-3.996 28.696-11.997 10.653-5.936 18.043-10.546 22.16-13.697.845-5.936 1.333-8.971 1.449-9.211.605-3.632 2.063-5.937 4.117-6.791 1.574.481 2.544 2.67 3.024 6.426.605 4.602 1.094 7.396 1.698 8.241 1.094 1.7 8.715 4.967 23.129 9.693 9.808 3.275 17.198 6.061 21.92 8.241l5.931 1.335-.017-.017Zm-2.303-31.995c.241.365.605.846 1.21 1.21l-1.21-1.21Z"/><path fill="#000" d="m644.17 65.376-.124.73 11.871 11.756-.605 4.12c-.124 1.7-.969 3.757-2.419 6.302-2.063 3.391-4.606 5.215-7.505 5.331l-5.567.24c3.993 6.178 7.87 11.633 12.351 17.818 1.334 2.546 3.273 5.696 5.691 9.452 2.055 3.027 3.024 7.031 3.024 11.757 0 7.761-2.659 13.332-7.141 16.118-3.512 2.065-9.808 3.151-18.042 3.151-12.956 0-24.703-1.94-34.992-5.937l-.124-.124c-7.87-3.026-14.05-6.666-18.407-11.027l-9.328-9.336c-7.024-5.572-10.537-12.122-10.537-19.509 0-5.091.729-9.212 2.303-12.238.969-1.816 1.938-4.12 4.482-8.366l-.97-1.094c-4.117-2.786-6.9-6.907-8.358-12.487-1.939-7.27-3.148-13.456-3.148-17.328 0-4.486.364-7.76.969-9.692 1.334-3.516 4.117-5.332 8.359-5.332 5.451 0 12.475 2.546 20.95 7.512h-.124A72.055 72.055 0 0 1 599.13 55.8c.845-2.305 2.303-5.09 4.598-7.876 2.062-2.305 5.326-3.391 9.932-3.391.969 0 2.303 1.21 3.993 3.631l9.933 9.941c.845.97 2.062 2.546 3.388 4.85.124.481.364.73.48 1.095 1.334.48 2.908.73 4.482.846l8.234.48Zm-73.868 50.899c2.783 3.515 6.42 6.177 10.653 8.117 7.994 4.485 15.383 7.396 22.284 8.606 4.117.73 7.141 1.095 8.963 1.211l8.599.364c-.124 0 .969.125 3.272.241 1.21.124 2.668.124 4.482 0 5.567-.241 9.808-2.056 12.716-5.572 1.938-2.305 2.907-4.726 2.907-7.511 0-5.332-2.062-10.663-6.055-16.118a1727.475 1727.475 0 0 1-11.507-15.273c-1.574-2.18-3.877-5.696-6.784-10.546a66.416 66.416 0 0 1-.729-2.305c-.241-1.335-.24-2.065-.125-2.18.605 0 3.993 1.094 4.847 1.21 3.388.48 6.171.605 8.358.24 3.272-.97 3.877-2.545 6.296-6.06l-9.808-2.305c-3.024-.73-5.575-2.181-7.63-4.246-1.698-2.66-3.752-5.695-6.055-9.21-1.815-2.546-3.389-3.997-4.722-4.362-3.024 2.18-4.962 4.61-6.056 7.147-.24.605-.969 3.026-2.054 7.271l-1.698 6.426a68.076 68.076 0 0 0-3.389-8.606c-.845-1.816-5.566-5.331-14.049-10.422-8.475-5.091-13.801-7.636-15.988-7.636-1.574 0-2.543 0-2.668.124-.24.48-.729 1.21-1.449 2.064-.605 2.181-.845 5.332-.845 9.452 0 2.786.48 5.215 1.574 7.512.729 3.026 1.698 6.06 3.023 8.971 2.179 4.85 4.482 7.271 6.901 7.271.845 0 2.303-1.575 4.481-4.726 2.179-3.275 3.273-5.33 3.389-6.425-.97.365-2.303.846-3.877 1.45-1.815-1.334-2.66-3.515-2.66-6.3 0-2.786 1.21-4.362 3.629-4.362 1.574 0 3.272.606 5.21 1.94 2.055 1.335 3.024 2.67 3.024 4.121 0 1.816-2.419 6.426-7.265 13.697-2.543 3.756-5.211 7.877-7.994 12.238-2.543 3.996-3.877 7.147-3.877 9.452 0-.365-.124.605-.364 2.661-.125 1.451-.125 2.67.24 3.756.24 3.756 1.209 6.666 2.783 8.606l.017.017Zm41.295-7.761c-.729.125-2.062.365-3.992.73-2.303.481-5.567-.605-9.809-3.275-2.543-1.575-3.877-3.756-3.877-6.301 0-1.7.729-4.486 2.179-8.366 1.698-4.602 3.513-6.907 5.451-6.907 3.388 0 6.056 1.7 7.994 5.216.365.605 1.574 3.755 3.753 9.692.845 3.026 1.209 5.091 1.209 6.177 0 2.064-.969 3.026-2.908 3.026v.008Z"/><path fill="#000" d="M721.186 90.1c-1.093 4.726-4.722 8.606-10.902 11.632 1.815 1.451 3.513 2.91 5.327 4.486 3.753 3.026 8.599 6.425 13.08 8.846 3.273 1.576 6.056 2.911 7.506 3.516 1.333 0 3.388-.73 4.357-1.095.124-.364.729-.605.845-.97l1.093-.97c.481-.481 2.055-2.18 2.544-2.661 2.054.729 3.512 1.94 4.357 3.515l10.777 10.663c1.574 1.575 2.303 3.88 2.303 7.147 0 7.76-3.876 16.002-11.622 24.724-6.66 7.396-12.592 11.027-17.802 11.027-3.513 0-7.506-2.305-11.987-6.79l-8.234-8.242c-2.303-1.699-4.963-4.245-7.754-7.636-3.877-4.726-7.63-9.817-10.902-14.667l-.845 1.094h.124c-.845 1.095-3.023 3.151-6.536 6.177-5.815 4.967-10.537 7.396-14.165 7.396-.845 0-1.574 0-1.939-.124-.364-.125-.729-.365-1.093-.73L658.7 135.527l-.124-.124c-2.543-.846-5.211-7.761-7.505-20.239-1.939-10.662-3.148-20.604-3.148-28v-.605c0-.845.124-2.18.24-4.12 0-1.451.124-3.15.24-5.091l-11.266-11.392h-.729c0-.48.124-1.335-.24-1.816-.125-.73-.125-1.45 0-2.056 1.574-5.215 9.203-10.422 17.562-13.332.364-.125.969-.125 1.814-.481 1.334-.365 3.388-.846 5.815-1.45 1.334-.366 2.668-.73 4.117-1.095 1.574-.365 2.908-.606 5.211-1.21a44.696 44.696 0 0 1-.481-6.543c0-1.815.241-3.39.845-4.725 1.939-3.516 5.576-5.456 10.413-5.091 1.334.124 3.273.364 5.692.97 1.333.97 3.388 2.91 6.171 5.696 3.753 3.756 7.141 6.425 10.173 8.241h-.124c2.543 1.335 5.815 2.91 9.932 4.602 5.451 2.305 9.684 3.996 11.018 4.61v.605l11.746 11.757c0 .605.125 1.335.481 1.94-2.063 2.786-4.482 5.09-7.265 5.936-1.574.606-4.358 1.095-8.359 1.335-3.023.124-5.21.481-6.784.846.845 1.45 2.062 3.026 3.636 4.602l1.45 1.45c.845.846 1.574 2.305 1.938 4.362.365 1.815.365 3.515 0 4.966l.017.025Zm23.609 32.236c-.48.124-2.062.97-4.721 2.305-1.815.97-3.024 1.451-3.389 1.335-1.814-.846-4.481-1.941-7.994-3.391-1.449-.125-5.451-2.911-11.987-8.366-4.962-3.997-8.714-7.396-11.506-10.057l-15.259-14.667c.364-.481.729-.97 1.093-1.335.845-.73 2.419-1.576 4.847-2.67 4.357-1.816 6.784-3.996 7.389-6.301.364-1.451-.124-3.391-1.334-5.696-1.093-2.065-2.179-3.756-3.512-4.85-3.148-2.787-4.722-5.332-4.722-7.637 0-2.91 1.814-4.485 5.567-4.61l5.451.365a36.307 36.307 0 0 0 12.351-2.545c-8.715-3.64-16.709-7.272-23.858-10.787-2.303-1.094-5.086-4.361-8.599-9.576-1.093-.24-2.419-.481-3.877-.846-2.178-.124-3.512 2.421-3.992 7.76.364 1.335.604 3.027.729 4.85-.729 3.276-3.389 5.216-8.11 5.821l-6.785.97c-1.334.125-3.753.481-7.025.97-5.21.73-8.839 2.786-11.142 6.302l5.327-.125c1.093.125 3.752 2.662 4.117 3.756.605 1.816.845 4.361.845 7.636 0 2.546-.24 5.58-.605 8.847.124 4.726.24 11.632.605 20.479.124 4.486.605 7.761 1.334 10.057-.365.125-.125 1.576.604 4.486.241.845.605 2.421 1.21 4.966.605 1.816 1.938 4.85 3.993 8.847 1.814 0 4.846-1.335 8.839-3.881 4.117-2.661 6.296-4.85 6.66-6.541.124-.846-.24-3.275-1.093-7.512-1.45-6.907-2.179-10.298-2.303-10.057.364-1.7 1.574-2.546 3.512-2.546.605 0 1.209.125 1.938.24 2.179.482 6.172 5.697 12.112 15.754 7.869 13.457 12.591 21.209 14.165 23.514 5.931 8.722 11.382 13.572 16.228 14.667 3.024.605 7.506-2.421 13.197-9.212 5.21-6.185 8.11-10.546 8.715-13.332.604-2.786.969-5.331.969-7.396l.016.009Zm-56.911-43.023c0 2.545-3.992 4.12-6.9 4.12-1.574 0-5.815-.48-7.63-.48-1.333.124-2.303-1.095-2.783-3.391-.124-1.095-.48-2.786-.845-5.091-1.093-5.215-1.574-8.606-1.574-10.306 0-.846.729-1.94 2.063-3.275 3.512 1.451 7.141 3.64 10.653 6.542 5.086 4.12 7.63 6.906 7.63 8.482 0 2.064-.241 3.275-.605 3.39l-.009.009Z"/><path fill="#000" d="M862.014 59.44c-1.21 1.21-3.388 2.18-6.42 2.785-1.334.365-2.179.48-3.024.48-.969 0-1.814.125-2.543.366 1.574.845 3.023 1.816 3.388 2.91l11.142 11.027c-.124 0-.124-.124-.24-.124l.24.124c.48.481.729.97.729 1.335 0 4.486-.845 8.482-2.543 12.122-1.094 2.305-2.784 5.33-5.327 9.576l11.747 11.632v3.516c0 4.966-1.574 10.181-4.846 15.388-1.45 2.305-4.117 5.821-7.506 10.057-3.752 3.516-7.505 6.186-11.258 8.001-1.573.73-5.566 1.7-11.746 2.91-1.094.365-2.543.241-4.606.241a108 108 0 0 1-11.382-.605l-3.753-.365c-5.691-.125-9.568-.846-11.382-2.67l-7.87-7.876c-.124.124-.24.364-.364.48-1.334 1.941-4.358 3.881-9.204 6.186-3.877 1.815-7.629 3.275-10.173 4.245-7.505 2.421-13.444 3.631-17.802 3.631h-2.063c-.729 0-1.449-.365-2.062-.97l-10.902-11.027c-.845-.365-1.45-.97-2.543-2.305 1.334-3.275 3.637-7.147 6.9-11.633 3.273-4.485 5.451-7.76 6.42-10.181 6.901-14.907 10.289-23.39 10.289-25.454 0-2.305-.124-4.245-.124-5.82L752.649 77c-.365-.124-.241-.124-.605-.24-1.938-2.546-4.962-6.542-8.475-11.758-4.846-7.27-7.994-12.361-7.994-13.812 0-1.816.97-3.276 3.024-4.362l-.124.125c1.574-1.095 3.272-1.451 4.846-1.451 4.962 0 14.29 3.026 26.881 8.482 9.684 4.36 17.074 8 19.857 9.816.729.606 1.334 1.335 1.698 2.305l.97.97c0-1.45 0-2.91.124-4.485.124-6.185.845-10.787 1.938-13.332 1.698-4.121 5.327-7.272 10.902-9.452l8.599-3.275c.48-.605 2.419-.846 5.21-1.451.481-.24.729-.24 1.699-.481.24-.124.729-.24 1.333-.365l1.45-.365c.845-.124 3.024-.24 7.025-.24 6.9 0 13.32 3.026 19.012 8.97v.366l11.382 11.392c.124.124.24.364.364.48l.24 4.602h.009Zm-9.568 44.722c-10.537 5.696-17.198 8.481-19.741 8.481-2.543 0-3.637-1.699-3.637-4.966 0-1.21.845-3.391 2.544-6.542 2.543-4.36 4.481-8.241 8.839-14.667 2.062-3.026 5.21-7.636 6.055-10.181.845-2.786 1.334-4.602 1.334-5.331 0-.846-.365-1.816-.969-2.786-4.482 3.39-11.871 7.147-22.044 11.392-3.388 1.335-7.505 3.15-12.351 5.215-2.784 1.21-5.087 1.816-6.785 1.816-.48 0-.729-.125-.845-.365l-.24-.365c.729-1.94 1.938-3.64 3.636-5.215 3.148-2.91 7.39-9.212 12.592-18.904C827.13 49.987 835 44.416 844.568 45.021l-3.993-2.786c-5.087-1.94-9.328-2.91-12.716-2.91s-7.994 1.094-13.685 3.391l-11.747 4.726c-2.054 2.305-3.272 6.542-3.877 12.843 0 .365-.124 5.09-.48 14.178-.845 5.455-3.024 9.336-6.661 11.88-.845-.845-1.814-3.274-2.907-7.51-1.334-5.216-2.055-8.118-2.303-8.847-.845-1.451-6.296-4.726-16.344-9.942-10.902-5.58-18.532-8.365-23.005-8.365h-3.272v1.815c.364.481 1.698 2.91 4.117 7.272 3.272 5.936 5.086 9.211 5.21 9.816.605.606 1.815.97 3.629 1.211 1.814.24 2.908.48 3.388.73 3.753 2.785 6.296 5.696 7.389 8.606.845 2.305 1.334 6.185 1.334 11.392 0 3.275-2.303 9.576-6.901 19.152-3.992 8.117-8.358 16.359-13.32 24.725.124 0 1.45.605 2.063.605 2.543 0 6.536-.846 11.986-2.67 6.172-2.056 10.902-4.485 14.406-7.271 1.815-1.576 3.753-3.64 5.575-6.426 3.389-4.966 5.451-8.722 6.296-11.151l.729-3.392c.125-.124.845-.605 2.303-1.21l2.668-1.211c1.574-.48 3.636-1.21 6.171-2.305.845-.364 3.272-1.334 7.141-3.15 3.388-1.576 5.691-2.305 6.785-2.305.364 0 .604.124.729.24-2.544 8.607-5.567 15.637-8.964 20.844-.124.241-2.178 3.391-6.18 9.336-1.814 2.67-2.659 4.245-2.659 4.85v2.065c-.364 0 1.334.124 5.087.365 3.752.24 6.055.365 6.784.365l14.29-.125c6.296-.124 13.925-5.571 22.764-16.607 3.148-3.88 5.211-8.241 6.056-13.092l-.008.009Z"/><path fill="#000" d="M856.082 126.456c-5.815-4.485-8.714-8.722-8.714-12.967 0-.605.729-2.67 2.054-5.215.124-.605.481-1.335.969-2.181v.125c.365-.481.845-1.7.729-1.335a4.92 4.92 0 0 0 .729-1.335c.125-.365.241-.481.365-.846l5.086-9.335c0-.24-.124-.73-.48-1.335l.124.124c-.605-.97-1.21-1.45-1.698-1.45l-2.784-5.697c-.124-.124-.604-.605-.604-.73-.845-1.334-1.815-2.785-1.815-5.09 0-1.576.365-3.151.97-5.091 1.093-3.516 4.117-7.147 8.839-11.027 5.086-3.997 8.963-7.512 11.622-10.422 2.908-3.275 8.234-6.061 15.988-9.087 2.303-.846 7.754-2.065 16.469-3.64 9.808-1.816 19.136-2.662 27.85-2.662 3.273 0 7.025.606 11.018 1.7-.124.124-.124.365-.124.605l11.746 11.757c-.48 2.545-3.023 5.456-7.753 8.971-7.141 4.967-11.623 8.366-13.561 9.941-3.513 3.026-6.296 6.177-8.235 9.693l7.63 7.511c1.094 1.21 2.063 2.91 3.148 5.215.845 1.576.969 4.362.969 7.877 0 1.211-2.179 4.85-3.023 5.091-.241.124-.481.124-.729.124-.365 0-.241.125-.605.125-.365 0-.729 0-1.094-.125h-.24l-.605-.24c-9.568 15.753-14.414 26.54-14.414 32.236 0 2.545.97 6.301 3.024 11.151 0 4.726-.969 6.302-5.691 6.302-4.722 0-13.081-2.057-23.734-5.821-3.752-1.335-7.389-2.786-9.808-4.121-6.66-3.515-11.747-6.906-15.019-10.305l-8.599-8.482v-.009Zm3.629-40.966c2.063-.365 5.691-.97 11.142-2.056 10.048-1.94 15.864-2.91 17.313-2.91 1.45 0 2.543.364 3.272 1.21v1.575c-5.21 6.79-9.684 11.028-13.56 12.727l-4.722 2.056 1.574-4.601c0-.605 1.209-1.94 3.752-3.996 3.272-2.67 5.451-4.486 6.296-5.332-3.753.606-11.987 2.18-24.578 4.486-.125.124.604.605 1.938 1.7.364.24.845.97 1.45 2.304-.97 2.421-2.179 4.85-3.513 7.272l-3.512 6.185a309.067 309.067 0 0 0-2.908 5.456c0 6.301 6.056 12.121 18.043 17.328 2.783 1.094 7.869 3.275 15.135 6.301 3.272 1.335 7.629 2.057 13.32 1.94 0-.48.124-1.094.24-1.815.125-.73.125-1.335 0-1.94l-2.178-7.637c0-5.215 1.814-11.027 5.326-17.693 1.094-1.94 3.877-7.271 8.599-15.877 1.334-3.997 2.543-6.061 3.512-6.061l3.993 2.064c0-.124.125-.48.241-.845.124-.481.124-.97 0-1.451v-3.151c-2.303-3.996-6.172-6.666-11.623-8.117-1.574-.365-3.993-.605-7.265-.605-1.334 0-3.272.24-5.931.605-2.543.365-4.482.48-5.816.48-.845 0-2.178.125-4.117.241-1.574.365-3.023-.124-4.241-1.21-.124-.606-.124-1.095-.124-1.576 0-1.575.48-2.67 1.449-3.515 1.334-1.7 2.543-3.026 3.513-4.12 1.698-1.7 4.846-3.392 9.568-4.967.124 0 .124.124.124.365 0 1.335-.605 3.026-1.939 5.215-1.333 2.056-2.543 3.515-3.636 4.12-.845.481-1.21 1.211-1.21 2.306 0 .124 1.939 0 5.932-.481 3.272-.365 5.086-.606 5.326-.606 2.668-.364 4.242-.845 4.606-1.21 2.908-4.966 7.389-10.306 13.321-15.753 6.296-5.696 11.987-9.577 17.073-11.633-.364-.24-1.45-.365-3.272-.24-12.111.365-25.067 2.18-38.753 5.331-6.179 2.545-12.111 4.602-18.282 9.817-1.574 1.335-4.846 3.996-9.568 8.117-6.536 5.696-9.808 9.692-9.808 11.997 0 .73.364 1.7 1.209 3.026l3.272 5.215.017-.041Z"/></g><defs><clipPath id="a"><path fill="#fff" d="M0 0h1379v786H0z"/></clipPath></defs></svg>